<svg width="18" height="15" viewBox="0 0 18 15" fill="none" xmlns="http://www.w3.org/2000/svg">
<path d="M2.87109 9.36328L0.464844 10.4844C0.191406 10.6211 0 10.9766 0 11.3867V14.3125C0 14.5312 0.136719 14.7227 0.355469 14.75C0.628906 14.8047 0.875 14.5859 0.875 14.3125V11.3867C0.875 11.332 0.875 11.2773 0.875 11.2773L3.22656 10.1562C3.39062 10.0742 3.5 9.91016 3.5 9.74609C3.5 9.41797 3.14453 9.22656 2.87109 9.36328ZM8.55859 9.52734C7.65625 9.60938 7 10.4297 7 11.332V14.3125C7 14.5586 7.19141 14.75 7.4375 14.75C7.65625 14.75 7.875 14.5586 7.875 14.3125V11.3047C7.875 10.8672 8.14844 10.457 8.58594 10.4023C9.13281 10.3203 9.625 10.7305 9.625 11.25V14.3125C9.625 14.5586 9.81641 14.75 10.0625 14.75C10.2812 14.75 10.5 14.5586 10.5 14.3125V11.25C10.5 10.2383 9.59766 9.41797 8.55859 9.52734ZM12.6875 7.50391L9.1875 5.39844V3.8125H10.9375C11.1562 3.8125 11.375 3.62109 11.375 3.375C11.375 3.15625 11.1562 2.9375 10.9375 2.9375H9.1875V1.1875C9.1875 0.96875 8.96875 0.75 8.75 0.75C8.50391 0.75 8.3125 0.96875 8.3125 1.1875V2.9375H6.5625C6.31641 2.9375 6.125 3.15625 6.125 3.375C6.125 3.62109 6.31641 3.8125 6.5625 3.8125H8.3125V5.39844L4.78516 7.50391C4.51172 7.66797 4.375 7.94141 4.375 8.26953V14.3125C4.375 14.5586 4.56641 14.75 4.8125 14.75C5.03125 14.75 5.25 14.5586 5.25 14.3125V8.26953L8.75 6.16406L12.25 8.26953V14.3125C12.25 14.5586 12.4414 14.75 12.6875 14.75C12.9062 14.75 13.125 14.5586 13.125 14.3125V8.26953C13.125 7.94141 12.9609 7.66797 12.6875 7.50391ZM17.0078 10.4844L14.6016 9.36328C14.3281 9.22656 14 9.41797 14 9.74609C14 9.91016 14.082 10.0742 14.2461 10.1562L16.5977 11.2773C16.5977 11.2773 16.625 11.332 16.625 11.3867V14.3125C16.625 14.5312 16.7617 14.7227 16.9805 14.75C17.2539 14.8047 17.5 14.5859 17.5 14.3125V11.3867C17.5 10.9766 17.3086 10.6211 17.0078 10.4844Z" fill="#E1AE2E"/>
</svg>
