<svg width="10" height="15" viewBox="0 0 10 15" fill="none" xmlns="http://www.w3.org/2000/svg">
<path d="M5.25 12.7812C5.60547 12.7812 5.90625 12.5078 5.90625 12.125C5.90625 11.7695 5.60547 11.4688 5.25 11.4688C4.86719 11.4688 4.59375 11.7695 4.59375 12.125C4.59375 12.5078 4.86719 12.7812 5.25 12.7812ZM7.875 0.75H2.625C1.64062 0.75 0.875 1.54297 0.875 2.5V13C0.875 13.9844 1.64062 14.75 2.625 14.75H7.875C8.83203 14.75 9.625 13.9844 9.625 13V2.5C9.625 1.54297 8.83203 0.75 7.875 0.75ZM8.75 13C8.75 13.4922 8.33984 13.875 7.875 13.875H2.625C2.13281 13.875 1.75 13.4922 1.75 13V10.375H8.75V13ZM8.75 9.5H1.75V2.5C1.75 2.03516 2.13281 1.625 2.625 1.625H7.875C8.33984 1.625 8.75 2.03516 8.75 2.5V9.5Z" fill="#F5CB5C"/>
</svg>
