<svg width="11" height="11" viewBox="0 0 11 11" fill="none" xmlns="http://www.w3.org/2000/svg">
<path d="M11 1.17795V9.82202C11 10.1344 10.8759 10.4341 10.655 10.655C10.4341 10.8759 10.1345 11 9.82205 11H1.17796C0.865542 11 0.565925 10.8759 0.345016 10.655C0.124106 10.4341 0 10.1344 0 9.82202V1.17795C0 1.02326 0.0304694 0.870085 0.0896672 0.727169C0.148865 0.584253 0.235632 0.454396 0.345016 0.345012C0.454399 0.235629 0.584256 0.148865 0.727172 0.0896672C0.870089 0.0304693 1.02326 0 1.17796 0H9.82205C10.1345 0 10.4341 0.124103 10.655 0.345012C10.8759 0.565922 11 0.865536 11 1.17795ZM5.10591 5.48493C5.10591 5.17657 5.01447 4.87512 4.84315 4.61873C4.67183 4.36233 4.42833 4.16248 4.14344 4.04447C3.85855 3.92647 3.54506 3.89559 3.24262 3.95575C2.94018 4.01591 2.66237 4.16441 2.44432 4.38245C2.22628 4.6005 2.07778 4.87832 2.01762 5.18076C1.95747 5.4832 1.98834 5.79669 2.10635 6.08158C2.22435 6.36647 2.42419 6.60996 2.68059 6.78128C2.93698 6.9526 3.23842 7.04405 3.54679 7.04405C3.95992 7.04405 4.35616 6.88007 4.64849 6.58814C4.94082 6.29622 5.10534 5.90019 5.10591 5.48706V5.48493ZM9.01018 5.48493C9.01018 5.17657 8.91874 4.87512 8.74742 4.61873C8.5761 4.36233 8.3326 4.16248 8.04771 4.04447C7.76282 3.92647 7.44933 3.89559 7.14689 3.95575C6.84445 4.01591 6.56664 4.16441 6.34859 4.38245C6.13054 4.6005 5.98205 4.87832 5.92189 5.18076C5.86173 5.4832 5.89261 5.79669 6.01062 6.08158C6.12862 6.36647 6.32846 6.60996 6.58486 6.78128C6.84125 6.9526 7.14269 7.04405 7.45106 7.04405C7.6557 7.04433 7.8584 7.00427 8.04755 6.92615C8.2367 6.84803 8.40859 6.73338 8.55339 6.58878C8.6982 6.44417 8.81308 6.27244 8.89146 6.0834C8.96984 5.89435 9.01018 5.69171 9.01018 5.48706V5.48493Z" fill="#E1AE2E"/>
</svg>
