<svg width="105" height="105" viewBox="0 0 105 105" fill="none" xmlns="http://www.w3.org/2000/svg">
<path d="M96.9685 57.0769L100.962 54.1602L97.1929 50.9743L100.738 47.5641L96.5647 44.9167L99.616 41.0128L95.1288 38.9936L97.5967 34.7308L92.8852 33.2949L94.7698 28.7179L89.8788 27.9551L91.1352 23.1987L86.1993 23.109L86.7826 18.2179L81.8916 18.8013L81.8019 13.8654L77.0455 15.1218L76.2826 10.2308L71.7057 12.1154L70.2698 7.40384L66.007 9.87179L63.9878 5.38461L60.0839 8.43589L57.4814 4.26281L54.0262 7.80768L50.8403 4.03845L47.9237 8.03204L44.2442 4.71153L41.9109 9.06409L37.8275 6.28204L36.0775 10.9038L31.6801 8.70512L30.6032 13.5064L25.8916 11.9359L25.4878 16.8718L20.6416 15.9743L20.866 20.8654L15.975 20.641L16.8724 25.4872L11.9365 25.891L13.507 30.6026L8.70573 31.6795L10.9044 36.0769L6.28265 37.8269L9.0647 41.9102L4.71214 44.2436L8.03265 47.9231L4.03906 50.8397L7.80829 54.0256L4.26342 57.4359L8.4365 60.0833L5.38522 63.9872L9.8724 66.0064L7.40445 70.2692L12.116 71.7051L10.2314 76.282L15.1224 77.0449L13.866 81.8013L18.8019 81.891L18.2185 86.782L23.1096 86.1987L23.1993 91.1346L27.9557 89.8782L28.7185 94.7692L33.2955 92.8846L34.7314 97.5961L38.9942 95.1282L41.0134 99.6154L44.9173 96.5641L47.5647 100.737L50.975 97.1923L54.1609 100.962L57.0775 96.9679L60.757 100.288L63.0903 95.9359L67.1737 98.7179L68.9237 94.0961L73.3211 96.2949L74.398 91.4936L79.1096 93.0641L79.5134 88.1282L84.3596 89.0256L84.1352 84.1346L89.0262 84.359L88.1288 79.5128L93.0647 79.109L91.4942 74.3974L96.2955 73.3205L94.0967 68.9231L98.7185 67.1731L95.9365 63.0897L100.289 60.7564L96.9685 57.0769Z" fill="#A39161"/>
<path d="M52.5016 89.3398C32.0401 89.3398 15.4375 72.7372 15.4375 52.2757C15.4375 31.8141 32.0401 15.2115 52.5016 15.2115C72.9631 15.2115 89.5657 31.8141 89.5657 52.2757C89.5657 72.7372 72.9631 89.3398 52.5016 89.3398Z" fill="white"/>
<path d="M52.2329 81.8013C68.4403 81.8013 81.579 68.6626 81.579 52.4552C81.579 36.2477 68.4403 23.109 52.2329 23.109C36.0254 23.109 22.8867 36.2477 22.8867 52.4552C22.8867 68.6626 36.0254 81.8013 52.2329 81.8013Z" fill="#A39161"/>
<path d="M42.2687 72.9167C41.9098 72.7821 41.7751 72.5577 41.6854 72.3334L39.3072 65.4231L39.1726 65.3334L38.0957 65.468L35.538 72.3782C35.4482 72.6026 35.3585 72.8718 34.9995 73.0064L34.5508 73.1411V73.5449H37.3328V73.0962L36.5251 72.8718C36.3905 72.827 36.3457 72.7821 36.3457 72.6475C36.3457 72.5577 36.3905 72.468 36.3905 72.3782L37.0636 70.359H39.6662L40.2944 72.2885C40.3841 72.5129 40.3841 72.6026 40.3841 72.6475C40.3841 72.7372 40.3841 72.7821 40.1149 72.8718L39.3521 73.0962V73.5449H42.7174V73.0962L42.2687 72.9167ZM39.4418 69.7308H37.288L38.3649 66.5449L39.4418 69.7308Z" fill="white"/>
<path d="M50.0758 71.6602L49.7617 71.5256L49.7169 71.6153C49.0886 72.8717 48.0566 73.0512 47.1592 73.0512C45.4092 73.0512 44.1976 71.6153 44.1976 69.5064C44.1976 67.3525 45.3643 65.9166 47.1143 65.9166C48.2361 65.9166 48.9989 66.4551 49.0886 67.3076V67.3974H49.3579L49.4925 67.3076L49.8963 65.423L49.7169 65.2435L49.672 65.2884C49.5822 65.3333 49.4027 65.423 49.0886 65.423C48.9092 65.423 48.6399 65.3782 48.3258 65.3333C47.9668 65.2884 47.6079 65.2435 47.3386 65.2435C44.5117 65.2435 42.7617 66.8589 42.7617 69.4615C42.7617 72.064 44.5117 73.6794 47.3386 73.6794C48.0566 73.6794 49.1784 73.4999 49.6271 73.2756H49.672L50.0758 71.8397V71.7948V71.6602ZM49.5374 72.6474C49.5374 72.6025 49.5374 72.6025 49.5374 72.6474V72.6474Z" fill="white"/>
<path d="M59.5432 72.9616C58.6906 72.9616 58.556 72.6924 58.556 72.2437V66.7693C58.556 66.3206 58.7355 66.0514 59.5432 66.0514H59.5881L59.6778 65.8719L59.6329 65.4232H56.3124V66.0065H56.4021C57.165 66.0065 57.3445 66.2757 57.3445 66.7244V69.1027H53.2162V66.7244C53.2162 66.2757 53.3957 66.0065 54.2034 66.0065H54.2483L54.338 65.827L54.2932 65.3783H50.9727V65.9616H51.0624C51.8252 65.9616 52.0047 66.2309 52.0047 66.6796V72.2437C52.0047 72.6924 51.8252 72.9616 51.0624 72.9616H50.9727V73.545H54.2932L54.338 73.0962L54.2483 72.9168H54.2034C53.3509 72.9168 53.2162 72.6475 53.2162 72.1988V69.7757H57.3445V72.1988C57.3445 72.6475 57.165 72.9168 56.4021 72.9168H56.3124V73.5001H59.6329L59.6778 73.0514L59.5881 72.8719H59.5432V72.9616Z" fill="white"/>
<path d="M67.7555 71.6602L67.4414 71.5256L67.3965 71.6153C66.7683 72.8717 65.7363 73.0512 64.8388 73.0512C63.0888 73.0512 61.8773 71.6153 61.8773 69.5064C61.8773 67.3525 63.044 65.9166 64.794 65.9166C65.9158 65.9166 66.6786 66.4551 66.7683 67.3076V67.3974H67.0376L67.1722 67.3076L67.576 65.423L67.3965 65.2435L67.3517 65.2884C67.2619 65.3333 67.1273 65.423 66.7683 65.423C66.5888 65.423 66.3196 65.3782 66.0055 65.3333C65.6465 65.2884 65.2876 65.2435 65.0183 65.2435C62.1914 65.2435 60.4414 66.8589 60.4414 69.4615C60.4414 72.064 62.1914 73.6794 65.0183 73.6794C65.7363 73.6794 66.8581 73.4999 67.3068 73.2756H67.3517L67.7555 71.8397V71.7948V71.6602Z" fill="white"/>
<path d="M73.9024 39.7115C73.8127 39.7115 73.678 39.7115 73.5883 39.6667L51.8255 31.1859L30.1075 39.6667C29.6588 39.8462 29.1204 39.6218 28.9409 39.1731C28.7614 38.7244 28.9857 38.1859 29.4345 38.0064L51.4665 29.391C51.6909 29.3013 51.9152 29.3013 52.0947 29.391L74.1716 38.0064C74.6204 38.1859 74.8447 38.7244 74.6652 39.1731C74.5755 39.4872 74.2614 39.7115 73.9024 39.7115Z" fill="white"/>
<path d="M31.9927 44.1987C31.6337 44.1987 31.3196 43.9743 31.1401 43.6154C30.9606 43.1667 31.185 42.6282 31.6337 42.4487L51.467 34.7308C51.6914 34.641 51.9157 34.641 52.0952 34.7308L71.9285 42.4487C72.3773 42.6282 72.6016 43.1218 72.4221 43.6154C72.2426 44.0641 71.7491 44.2884 71.2555 44.109L51.7362 36.5256L32.3068 44.109C32.217 44.1538 32.0824 44.1987 31.9927 44.1987Z" fill="white"/>
<path d="M34.2387 48.4166C33.8798 48.4166 33.5657 48.1923 33.3862 47.8333C33.2067 47.3846 33.4311 46.8461 33.8798 46.6666L51.4695 39.8461C51.6939 39.7564 51.9182 39.7564 52.0977 39.8461L69.7323 46.6666C70.181 46.8461 70.4054 47.3397 70.2259 47.8333C70.0464 48.282 69.5528 48.5064 69.0592 48.3269L51.7836 41.641L34.5528 48.3718C34.4631 48.4166 34.3285 48.4166 34.2387 48.4166Z" fill="white"/>
<path d="M35.8943 63.9872C35.8046 63.9872 35.7148 63.8974 35.7148 63.8077V49.1795C35.7148 49.0897 35.8046 49 35.8943 49C35.9841 49 36.0738 49.0897 36.0738 49.1795V63.8077C36.0738 63.8974 35.9841 63.9872 35.8943 63.9872Z" fill="white"/>
<path d="M38.5869 64.2564C38.1382 64.2564 37.7344 63.8974 37.7344 63.4038V50.1667C37.7344 49.7179 38.0934 49.3141 38.5869 49.3141C39.0357 49.3141 39.4395 49.6731 39.4395 50.1667V63.4038C39.4395 63.8974 39.0357 64.2564 38.5869 64.2564Z" fill="white"/>
<path d="M41.7276 64.2564C41.2788 64.2564 40.875 63.8974 40.875 63.4039V49.0897C40.875 48.641 41.234 48.2372 41.7276 48.2372C42.1763 48.2372 42.5801 48.5962 42.5801 49.0897V63.4039C42.5353 63.8974 42.1763 64.2564 41.7276 64.2564Z" fill="white"/>
<path d="M45.0479 64.2565C44.5992 64.2565 44.1953 63.8975 44.1953 63.4039V47.968C44.1953 47.5193 44.5543 47.1155 45.0479 47.1155C45.4966 47.1155 45.9004 47.4745 45.9004 47.968V63.4039C45.9004 63.8975 45.5415 64.2565 45.0479 64.2565Z" fill="white"/>
<path d="M48.6377 64.2565C48.189 64.2565 47.7852 63.8975 47.7852 63.4039V46.6219C47.7852 46.1731 48.1441 45.7693 48.6377 45.7693C49.1313 45.7693 49.4903 46.1283 49.4903 46.6219V63.4039C49.4454 63.8975 49.0864 64.2565 48.6377 64.2565Z" fill="white"/>
<path d="M65.1065 64.2564C64.6578 64.2564 64.2539 63.8974 64.2539 63.4038V50.1667C64.2539 49.7179 64.6129 49.3141 65.1065 49.3141C65.6001 49.3141 65.959 49.6731 65.959 50.1667V63.4038C65.959 63.8974 65.5552 64.2564 65.1065 64.2564Z" fill="white"/>
<path d="M62.0127 64.2564C61.564 64.2564 61.1602 63.8974 61.1602 63.4039V49.0897C61.1602 48.641 61.5191 48.2372 62.0127 48.2372C62.5063 48.2372 62.8653 48.5962 62.8653 49.0897V63.4039C62.8204 63.8974 62.4614 64.2564 62.0127 64.2564Z" fill="white"/>
<path d="M58.6455 64.2565C58.1968 64.2565 57.793 63.8975 57.793 63.4039V47.968C57.793 47.5193 58.1519 47.1155 58.6455 47.1155C59.0942 47.1155 59.4981 47.4745 59.4981 47.968V63.4039C59.4981 63.8975 59.0942 64.2565 58.6455 64.2565Z" fill="white"/>
<path d="M55.0557 64.2565C54.607 64.2565 54.2031 63.8975 54.2031 63.4039V46.6219C54.2031 46.1731 54.5621 45.7693 55.0557 45.7693C55.5044 45.7693 55.9082 46.1283 55.9082 46.6219V63.4039C55.9082 63.8975 55.5493 64.2565 55.0557 64.2565Z" fill="white"/>
<path d="M51.824 63.9873C51.7343 63.9873 51.6445 63.8975 51.6445 63.8078V43.1219C51.6445 43.0321 51.7343 42.9424 51.824 42.9424C51.9138 42.9424 52.0035 43.0321 52.0035 43.1219V63.8526C51.9586 63.8975 51.9138 63.9873 51.824 63.9873Z" fill="white"/>
<path d="M67.8006 63.9872C67.7108 63.9872 67.6211 63.8974 67.6211 63.8077V49.1795C67.6211 49.0897 67.7108 49 67.8006 49C67.8903 49 67.9801 49.0897 67.9801 49.1795V63.8077C67.9801 63.8974 67.8903 63.9872 67.8006 63.9872Z" fill="white"/>
<path d="M51.824 34.2821C51.7343 34.2821 51.6445 34.1923 51.6445 34.1026V32.0385C51.6445 31.9488 51.7343 31.859 51.824 31.859C51.9138 31.859 52.0035 31.9488 52.0035 32.0385V34.1026C51.9586 34.1923 51.9138 34.2821 51.824 34.2821Z" fill="white"/>
<path d="M51.824 39.4872C51.7343 39.4872 51.6445 39.3974 51.6445 39.3077V37.2436C51.6445 37.1538 51.7343 37.0641 51.824 37.0641C51.9138 37.0641 52.0035 37.1538 52.0035 37.2436V39.3077C51.9586 39.4423 51.9138 39.4872 51.824 39.4872Z" fill="white"/>
<path d="M35.8943 45.5449C35.8046 45.5449 35.7148 45.4552 35.7148 45.3654V43.3013C35.7148 43.2116 35.8046 43.1218 35.8943 43.1218C35.9841 43.1218 36.0738 43.2116 36.0738 43.3013V45.3654C36.0738 45.4552 35.9841 45.5449 35.8943 45.5449Z" fill="white"/>
<path d="M67.8006 45.5449C67.7108 45.5449 67.6211 45.4552 67.6211 45.3654V43.3013C67.6211 43.2116 67.7108 43.1218 67.8006 43.1218C67.8903 43.1218 67.9801 43.2116 67.9801 43.3013V45.3654C67.9801 45.4552 67.8903 45.5449 67.8006 45.5449Z" fill="white"/>
<path d="M83.9118 93.0641C85.0784 93.0641 85.9759 93.782 85.9759 95.0384C85.9759 96.2949 85.0784 97.0128 83.9118 97.0128C82.7451 97.0128 81.8477 96.2949 81.8477 95.0384C81.8477 93.782 82.7451 93.0641 83.9118 93.0641ZM83.9118 96.8782C85.0336 96.8782 85.7964 96.2051 85.7964 95.0833C85.7964 93.9615 85.0336 93.2884 83.9118 93.2884C82.79 93.2884 82.0271 93.9615 82.0271 95.0833C82.0271 96.2051 82.79 96.8782 83.9118 96.8782ZM83.2836 96.25H83.1041V93.9167H84.0464C84.5848 93.9167 84.7195 94.2308 84.7195 94.5897C84.7195 94.9487 84.54 95.1731 84.2707 95.2179L84.7643 96.2949H84.54L84.0464 95.2628H83.2387V96.25H83.2836ZM83.2836 95.0384H84.0912C84.4502 95.0384 84.54 94.859 84.54 94.5449C84.54 94.3654 84.4951 94.0513 84.0912 94.0513H83.3284V95.0384H83.2836Z" fill="#A39161"/>
<path d="M46.8438 82.8784L46.7989 83.013L46.395 83.0578C46.2604 83.0578 46.2155 83.1027 46.2155 83.1925C46.2155 83.2373 46.2155 83.3271 46.2155 83.4168L46.395 84.5386L47.8309 84.763L48.3694 83.7758C48.4143 83.7309 48.4143 83.6412 48.4591 83.5963C48.4591 83.5066 48.4591 83.4617 48.3694 83.4168L47.9655 83.2373L48.0104 83.1027L49.4014 83.3271L49.3566 83.4617L49.1322 83.5066C48.9079 83.5514 48.863 83.6861 48.7732 83.8207L46.8438 87.2309H46.3053L46.2604 87.186L45.5873 83.3271C45.5873 83.1925 45.4976 83.013 45.3181 82.9232L45.0938 82.7886L45.1386 82.6091L46.8438 82.8784ZM46.5745 86.9168L46.7091 86.8719L46.1258 83.3719C46.0809 83.1925 46.1258 82.9681 46.395 82.9232L45.722 82.8335C45.8566 82.9681 45.9014 83.1925 45.9463 83.3271L46.5745 86.9168ZM46.7989 86.7822L47.7412 85.0322L46.4848 84.8078L46.7989 86.7822ZM48.4143 83.2373C48.7284 83.3271 48.7284 83.5066 48.5938 83.7309C48.6835 83.5514 48.8181 83.3719 49.0873 83.3271L48.4143 83.2373Z" fill="#A39161"/>
<path d="M41.6392 81.6667C41.9085 81.6218 42.4918 81.7116 42.8508 81.8013C44.152 82.2052 44.9597 83.1924 44.5559 84.6283C44.152 86.0642 42.8956 86.468 41.6392 86.0641C41.37 85.9744 40.9661 85.75 40.7418 85.7052C40.5623 85.6603 40.4726 85.6603 40.4277 85.7052L40.3828 85.6603L40.8764 84.8077H40.9213H41.011C40.9213 85.3462 41.3251 85.7052 41.8636 85.8847C42.761 86.1539 43.6136 85.6154 43.9726 84.4936C44.2867 83.3718 43.8828 82.4744 42.9405 82.1603C42.5367 82.0257 41.9085 81.8911 41.37 82.5193L41.2802 82.4295V82.3847L41.6392 81.6667ZM40.652 85.3462C40.9213 85.4359 40.9213 85.4808 41.2802 85.6603C41.011 85.4808 40.8764 85.2116 40.8764 84.9424L40.652 85.3462ZM41.4597 82.2052C41.6841 82.0257 41.9085 81.936 42.3123 81.8911C42.0879 81.8462 41.8636 81.8462 41.6841 81.8462L41.4597 82.2052ZM44.1969 84.5385C44.0174 85.1218 43.7033 85.75 42.8508 86.0193C43.7931 85.8847 44.2418 85.1218 44.4213 84.5385C44.6008 83.9552 44.6456 83.0129 43.7931 82.3398C44.511 83.1924 44.3764 84 44.1969 84.5385Z" fill="#A39161"/>
<path d="M38.5432 80.1411L38.4534 80.3655C38.0945 80.186 37.915 80.2757 37.7803 80.545L37.197 81.7565L39.306 82.7437L39.8893 81.5322C40.0239 81.2629 39.9791 81.0834 39.5303 80.904V80.8591L39.6201 80.7245L41.1457 81.4424L41.056 81.6668C40.697 81.4873 40.5175 81.577 40.3829 81.8463L39.1265 84.4937C38.9919 84.7629 39.0816 84.9424 39.4406 85.1219L39.3509 85.3463L37.8252 84.6283L37.8701 84.4488L37.915 84.404C38.3188 84.5834 38.4983 84.4937 38.6329 84.2693L39.1714 83.0578L37.0624 82.0706L36.5239 83.2822C36.3893 83.5514 36.4791 83.7309 36.838 83.9104L36.7483 84.1347L35.2227 83.4168L35.2675 83.2373L35.3124 83.1924C35.7162 83.3719 35.8957 83.2822 36.0304 83.0578L37.2868 80.4104C37.4214 80.1411 37.3765 79.9616 36.9278 79.7822V79.7373L37.0175 79.6027L38.5432 80.1411ZM37.6906 80.4104C37.7803 80.2757 37.8701 80.0514 38.1842 80.1411L37.6457 79.8719C37.6906 80.0065 37.6457 80.186 37.556 80.3206L36.2547 83.1027C36.2098 83.2373 36.1201 83.4168 35.9855 83.5065L36.4791 83.7309C36.2098 83.5514 36.2996 83.327 36.3893 83.1924L37.6906 80.4104ZM40.2932 81.6219C40.3829 81.4873 40.4727 81.2629 40.7868 81.3527L40.2483 81.0834C40.2932 81.2181 40.2483 81.3975 40.1586 81.5322L38.8573 84.3142C38.8124 84.4488 38.7227 84.6283 38.588 84.7181L39.0816 84.9424C38.8124 84.7629 38.9021 84.5386 38.9919 84.404L40.2932 81.6219Z" fill="#A39161"/>
<path d="M33.5618 77.3142C33.831 77.3591 34.3695 77.5834 34.6836 77.8078C35.8054 78.5706 36.299 79.7373 35.4913 80.9937C34.6836 82.2052 33.3823 82.2501 32.2605 81.5322C32.0362 81.3975 31.6772 81.0386 31.4977 80.9488C31.3631 80.8591 31.2285 80.8142 31.1836 80.8142V80.7245L31.9015 80.0514H31.9464L31.9913 80.0963C31.7221 80.5899 32.0362 81.0834 32.4849 81.3527C33.2926 81.8911 34.2349 81.6219 34.908 80.6347C35.581 79.6475 35.4015 78.6604 34.6387 78.1219C34.3246 77.8975 33.7413 77.5834 33.0233 77.9873L32.9785 77.8975V77.8527L33.5618 77.3142ZM31.5426 80.545C31.7669 80.7245 31.7669 80.7693 32.0362 81.0386C31.8118 80.8142 31.7669 80.5001 31.8567 80.2309L31.5426 80.545ZM33.2477 77.7629C33.5169 77.6283 33.7862 77.6283 34.1451 77.7181C33.9208 77.5834 33.6964 77.5386 33.5618 77.4937L33.2477 77.7629ZM35.1772 80.8142C34.8182 81.3527 34.3246 81.8463 33.4272 81.8463C34.3695 81.9809 35.0426 81.3976 35.3567 80.904C35.7156 80.4104 36.0297 79.5129 35.4015 78.6155C35.8503 79.6027 35.4913 80.3206 35.1772 80.8142Z" fill="#A39161"/>
<path d="M30.0202 73.9488L29.9305 74.0386L29.5715 73.8591C29.4369 73.8142 29.392 73.8142 29.3472 73.8591C29.3023 73.904 29.2574 73.9488 29.2574 74.0386L28.7638 75.0258L29.7959 76.0578L30.8279 75.5642C30.8728 75.5193 30.9625 75.5193 31.0074 75.4745C31.0523 75.4296 31.0972 75.3399 31.0074 75.2501L30.7831 74.8911L30.8728 74.8014L31.86 75.7886L31.7702 75.8783L31.5459 75.7886C31.3664 75.6988 31.2318 75.7437 31.0972 75.8335L27.5523 77.4488L27.1484 77.1347V77.0899L28.8536 73.5899C28.8984 73.4552 28.9882 73.3206 28.8536 73.0963L28.7638 72.8719L28.8984 72.7373L30.0202 73.9488ZM27.4177 77.0899L27.5523 77.1347L29.1228 73.9488C29.2125 73.7694 29.3472 73.5899 29.6164 73.7693L29.1228 73.2758C29.1677 73.4553 29.0779 73.6796 28.9882 73.8142L27.4177 77.0899ZM27.7318 77.0899L29.5266 76.1924L28.6292 75.295L27.7318 77.0899ZM31.0523 75.1604C31.2318 75.4296 31.142 75.5642 30.9177 75.6988C31.0972 75.6091 31.3215 75.5193 31.5459 75.6988L31.0523 75.1604Z" fill="#A39161"/>
<path d="M26.5646 69.9104C26.789 70.0001 27.2377 70.4489 27.462 70.7181C28.2697 71.795 28.3595 73.0963 27.1928 73.9937C26.0261 74.8912 24.8146 74.4873 23.962 73.4553C23.7826 73.2309 23.5582 72.8271 23.4684 72.6476C23.3787 72.513 23.289 72.4681 23.1992 72.4232V72.3335L24.0967 71.9296H24.1415L24.1864 71.9745C23.7826 72.3784 23.9172 72.9168 24.2313 73.3207C24.8146 74.0835 25.8018 74.1284 26.7441 73.4104C27.6864 72.6925 27.8659 71.7053 27.2826 70.9425C27.0582 70.6284 26.6095 70.1348 25.8018 70.3142L25.7569 70.2245L25.8018 70.1796L26.5646 69.9104ZM23.5582 72.3335C23.7377 72.5578 23.7377 72.6027 23.8723 72.9617C23.7377 72.6476 23.7826 72.3335 23.962 72.154L23.5582 72.3335ZM26.9236 73.7694C26.43 74.1732 25.8018 74.4425 24.9492 74.1732C25.8018 74.622 26.6095 74.263 27.1031 73.904C27.5967 73.545 28.18 72.7822 27.9108 71.7501C27.9556 72.8271 27.3723 73.4104 26.9236 73.7694ZM26.071 70.2245C26.3402 70.1796 26.6095 70.2694 26.9236 70.4937C26.7441 70.3142 26.5646 70.1796 26.43 70.0899L26.071 70.2245Z" fill="#A39161"/>
<path d="M24.4529 66.3655C24.6773 66.5001 25.0363 66.9937 25.2157 67.3078C25.8888 68.4744 25.7991 69.7757 24.4978 70.4937C23.1965 71.2116 22.0298 70.6732 21.4016 69.5065C21.267 69.2821 21.0875 68.8334 20.9978 68.6539C20.9081 68.5193 20.8183 68.4296 20.7734 68.4296L20.8183 68.3398L21.7606 68.0257H21.8055L21.8504 68.1155C21.4016 68.4296 21.4465 69.0129 21.7157 69.4616C22.2093 70.3142 23.1965 70.4937 24.2286 69.9103C25.2606 69.327 25.5747 68.3847 25.0811 67.5321C24.9016 67.1732 24.4978 66.6347 23.6901 66.7245V66.6347L23.735 66.5898L24.4529 66.3655ZM21.1324 68.3398C21.267 68.6091 21.267 68.6539 21.3568 69.0129C21.267 68.6988 21.3568 68.3847 21.5363 68.2052L21.1324 68.3398ZM24.3183 70.2244C23.7798 70.5385 23.1068 70.7629 22.2991 70.3591C23.1068 70.9424 23.9145 70.6732 24.4529 70.3591C24.9914 70.045 25.6645 69.4168 25.5298 68.3398C25.4401 69.4168 24.8119 69.9103 24.3183 70.2244ZM23.9593 66.5898C24.2286 66.5898 24.4978 66.6796 24.767 66.9488C24.6324 66.7693 24.4529 66.5898 24.3183 66.5001L23.9593 66.5898Z" fill="#A39161"/>
<path d="M22.6161 62.2822C22.8405 62.372 23.0648 62.5515 23.1546 62.7758C23.3341 63.2245 23.0648 63.5835 22.661 63.8976C22.3918 64.122 22.1225 64.3912 21.9879 64.7502C21.943 64.9297 21.943 65.1092 22.0776 65.513L23.2443 65.0194C23.5135 64.9297 23.6033 64.7502 23.4238 64.3015L23.4687 64.2566L23.6482 64.2117L24.2764 65.7822L24.052 65.872C23.9174 65.4681 23.693 65.4233 23.4687 65.513L20.7315 66.6348C20.4623 66.7245 20.3725 66.904 20.552 67.3079L20.3276 67.3976L19.6994 65.8271C19.2507 64.7502 19.7443 64.3015 20.2379 64.0771C20.5969 63.9425 21.1802 63.9874 21.5841 64.6156H21.6289C21.5392 64.2566 21.7635 63.8976 22.0328 63.6284C22.3918 63.2694 22.7059 62.9104 22.6161 62.6412C22.5712 62.5066 22.5264 62.4617 22.4366 62.3271V62.2822H22.6161ZM20.3276 64.5258C20.5969 64.4361 21.0905 64.3015 21.5392 64.795C21.0905 64.122 20.552 64.2117 20.2379 64.3463C19.9687 64.4809 19.52 64.8399 19.7892 65.6476C19.6097 64.8848 20.0584 64.6156 20.3276 64.5258ZM21.8533 65.5579C21.8533 65.513 21.8084 65.4233 21.7635 65.3784C21.4046 64.5258 20.911 64.3912 20.3276 64.6156C19.9238 64.7951 19.6546 65.1092 19.9238 65.7822C20.0584 66.1412 20.2828 66.1861 20.5071 66.0963L21.8533 65.5579ZM23.4687 65.3784C23.6482 65.3335 23.8276 65.2438 24.0071 65.513L23.7828 64.9297C23.7379 65.0643 23.5584 65.154 23.4238 65.1989L20.5969 66.3656C20.4623 66.4104 20.2828 66.5002 20.1482 66.4553L20.3725 66.9489C20.3276 66.6348 20.5071 66.5451 20.6866 66.5002L23.4687 65.3784ZM23.0648 62.7758C23.0648 63.045 22.9751 63.2245 22.4366 63.6284C22.1674 63.8527 21.7635 64.2566 21.8533 64.795C21.8982 64.3463 22.302 63.9874 22.5712 63.8079C22.8853 63.5386 23.2443 63.2694 23.0648 62.7758Z" fill="#A39161"/>
<path d="M22.7524 61.8783L22.528 61.9231C22.4383 61.5193 22.2588 61.4295 21.9896 61.5193L19.1627 62.2372C18.8934 62.327 18.7588 62.4616 18.8934 62.8654L18.6691 62.9103L17.9062 59.9039L17.9511 59.8142H18.8934L18.9383 59.859V59.9488C18.4447 60.1283 18.2652 60.4424 18.3998 60.936L18.4896 61.2949C18.5793 61.6988 18.7588 61.7436 19.028 61.6988L20.3293 61.3398L20.105 60.5321C20.0152 60.218 19.8806 60.1283 19.3421 60.2629L19.2973 60.0834L20.7332 59.7244L20.778 59.859V59.9039C20.3293 59.9936 20.2845 60.1731 20.3293 60.4872L20.5537 61.2949L21.855 60.936C22.1242 60.8462 22.2588 60.7116 22.1691 60.3975L22.0345 59.8142C21.9447 59.5449 21.7204 59.0513 21.0473 58.9167V58.827L21.0921 58.7821H22.0345L22.7524 61.8783ZM18.1755 59.9936C18.1306 60.218 18.1306 60.3975 18.1755 60.6667C18.1306 60.3526 18.3101 60.0834 18.5345 59.9936H18.1755ZM21.9896 61.3398C22.1691 61.2949 22.3934 61.2501 22.528 61.5193L22.3934 60.936C22.3037 61.0706 22.1242 61.1154 21.9896 61.1603L19.028 61.9231C18.8934 61.968 18.7139 62.0129 18.5793 61.968L18.7139 62.5065C18.7139 62.1924 18.8934 62.1475 19.0729 62.1026L21.9896 61.3398ZM20.3742 59.9488L19.7011 60.1283C19.9255 60.1283 20.0601 60.218 20.1498 60.3975C20.1498 60.1731 20.1498 60.0385 20.3742 59.9488ZM21.3165 58.8718C21.5857 58.9616 21.8101 59.0962 21.9896 59.4552C21.8998 59.2308 21.8101 59.0065 21.7204 58.9167L21.3165 58.8718Z" fill="#A39161"/>
<path d="M21.5395 58.1988C21.4946 57.795 21.3151 57.6604 21.0459 57.7053L18.1292 58.0642C17.86 58.1091 17.7254 58.2437 17.7702 58.6476L17.5459 58.6924C17.4561 57.9745 17.3664 57.3463 17.2766 56.8527C17.142 55.5065 17.7254 54.3847 19.1613 54.2501C20.5523 54.0706 21.4048 55.0578 21.5843 56.3591C21.6292 56.8527 21.6741 57.5258 21.7638 58.1988H21.5395ZM19.2061 54.4745C18.5779 54.5642 17.7702 54.8335 17.5459 55.8206C17.9048 54.9681 18.6228 54.7886 19.251 54.6988C19.8343 54.6091 20.642 54.654 21.1805 55.4168C20.6869 54.5194 19.7895 54.4296 19.2061 54.4745ZM21.3151 56.3142C21.1805 55.1027 20.3728 54.654 19.251 54.7886C18.1292 54.9232 17.4112 55.5514 17.5459 56.7181L17.5907 57.0322C17.6356 57.3912 17.8151 57.4809 18.0843 57.436L21.001 57.077C21.2702 57.0322 21.4048 56.8976 21.36 56.4937L21.3151 56.3142ZM21.0907 57.5706C21.2702 57.5706 21.4946 57.5258 21.5843 57.8399C21.5843 57.6604 21.5395 57.3912 21.5395 57.2565C21.4497 57.3912 21.2254 57.3912 21.0907 57.436L18.0395 57.795C17.9048 57.795 17.6805 57.8399 17.5459 57.795C17.5907 57.9745 17.5907 58.154 17.6356 58.3335C17.6805 58.0194 17.9048 57.9745 18.0395 57.9745L21.0907 57.5706Z" fill="#A39161"/>
<path d="M21.3136 53.4874H21.0892C21.0892 53.0835 20.9546 52.9489 20.6405 52.9489H17.7239C17.4546 52.9489 17.2751 53.0835 17.2751 53.4874H17.0508V51.8271L17.2303 51.7822L17.2751 51.8271C17.2751 52.2758 17.4098 52.3656 17.7239 52.3656H20.6405C20.9098 52.3656 21.0892 52.2309 21.0892 51.8271L21.1341 51.7822L21.3136 51.8271V53.4874ZM20.7303 52.8143C20.9098 52.8143 21.1341 52.8143 21.179 53.1284V52.5002C21.0892 52.6348 20.8649 52.6348 20.7303 52.6348H17.679C17.5444 52.6348 17.32 52.6348 17.2303 52.5899V53.1284C17.2751 52.8143 17.4995 52.8143 17.679 52.8143H20.7303Z" fill="#A39161"/>
<path d="M21.3585 50.5706H21.1341C21.179 50.1219 21.0444 49.9873 20.7751 49.9424L17.4098 49.6283C17.3649 50.1668 17.4546 50.795 18.038 51.1091L17.9931 51.1988H17.9482L17.0508 50.9744L17.3649 47.6988L18.2623 47.6539L18.3072 47.6988V47.7885C17.6341 47.968 17.4546 48.5962 17.4098 49.1347L20.7751 49.4488C21.0444 49.4937 21.2239 49.3591 21.2687 48.9103H21.3136L21.4931 48.9552L21.3585 50.5706ZM17.7239 51.0193C17.4995 50.8398 17.3649 50.6603 17.2751 50.2565C17.2751 50.4809 17.2751 50.7052 17.3649 50.8847L17.7239 51.0193ZM17.4098 49.4937L20.82 49.8078C20.9995 49.8078 21.2239 49.8527 21.2687 50.1668L21.3136 49.5834C21.179 49.6732 20.9995 49.6732 20.8649 49.6732L17.4546 49.3591L17.4098 49.4937ZM17.6341 47.8334C17.5444 47.968 17.4995 48.1924 17.4546 48.4168C17.5892 48.0129 17.7687 47.8783 18.038 47.7437L17.6341 47.8334Z" fill="#A39161"/>
<path d="M21.6731 47.6539L21.4487 47.609C21.5385 47.2052 21.4038 47.0706 21.1346 46.9808L18.2628 46.3526C17.9936 46.3078 17.8141 46.3975 17.7244 46.8014L17.5 46.7565L18.1731 43.7501L18.2628 43.7052L19.1154 44.109V44.1539V44.2437C18.5769 44.1988 18.3077 44.3783 18.2179 44.8719L18.1282 45.2308C18.0385 45.6347 18.1731 45.7693 18.4423 45.8142L19.7436 46.0834L19.9231 45.2757C19.9679 44.9616 19.8782 44.827 19.3846 44.6924L19.4295 44.5129L20.8654 44.827V45.0065L20.8205 45.0514C20.3718 44.9616 20.2372 45.0514 20.1923 45.3655L20.0128 46.1731L21.359 46.4872C21.6282 46.5321 21.8077 46.4873 21.8974 46.1283L22.032 45.5449C22.0769 45.2757 22.1218 44.7372 21.5385 44.2885L21.5833 44.1988H21.6282L22.4359 44.6475L21.6731 47.6539ZM21.2244 46.8462C21.4038 46.8911 21.6282 46.936 21.6282 47.2501L21.7628 46.6667C21.6282 46.7565 21.4487 46.7116 21.3141 46.6667L18.3077 45.9937C18.1731 45.9488 17.9487 45.9039 17.859 45.8142L17.7244 46.3526C17.859 46.0834 18.0833 46.1283 18.2628 46.1283L21.2244 46.8462ZM18.3974 43.8847C18.2628 44.0642 18.1731 44.2437 18.1282 44.468C18.2628 44.1539 18.5321 44.0193 18.7564 44.0193L18.3974 43.8847ZM20.4167 44.827L19.7436 44.6924C19.9679 44.7821 20.0128 44.9167 20.0128 45.1411C20.1026 44.9616 20.1923 44.827 20.4167 44.827ZM21.7179 44.3334C21.9423 44.5578 22.0321 44.7372 22.0769 45.1411C22.1218 44.9167 22.1218 44.6924 22.0769 44.5129L21.7179 44.3334Z" fill="#A39161"/>
<path d="M22.2555 43.8398C22.3901 43.436 22.3004 43.3014 22.0312 43.1668L19.2491 42.1796C18.9799 42.0899 18.8004 42.1347 18.6658 42.5386L18.4414 42.4488C18.6658 41.7757 18.8901 41.1475 19.0696 40.654C19.5183 39.3975 20.5953 38.6796 21.8965 39.1283C23.2427 39.6219 23.5568 40.8334 23.1081 42.1347C22.9286 42.6283 22.7042 43.2116 22.435 43.8847L22.2555 43.8398ZM22.1209 43.077C22.3004 43.1219 22.4799 43.2116 22.435 43.5257C22.4799 43.3463 22.5696 43.1219 22.6594 42.9424C22.5247 43.0322 22.3004 42.9424 22.1658 42.8975L19.294 41.8655C19.1594 41.8206 18.9799 41.7309 18.8901 41.6411C18.8453 41.8206 18.7555 42.0001 18.7106 42.1796C18.8901 41.9104 19.0696 42.0001 19.2491 42.045L22.1209 43.077ZM22.8837 42.0899C23.2876 40.9681 22.794 40.2052 21.7171 39.8014C20.6401 39.3975 19.7427 39.6668 19.3388 40.7886L19.2491 41.0578C19.1145 41.4168 19.2491 41.5514 19.5183 41.6411L22.2555 42.6283C22.5247 42.7181 22.7042 42.6732 22.8388 42.2693L22.8837 42.0899ZM21.8068 39.4873C21.2235 39.2629 20.3709 39.1732 19.6978 39.936C20.4158 39.3527 21.1337 39.4873 21.7171 39.7116C22.3004 39.936 22.9735 40.295 23.1081 41.1924C23.1081 40.1604 22.3901 39.6668 21.8068 39.4873Z" fill="#A39161"/>
<path d="M23.6465 36.9744C23.3324 36.7949 23.1978 36.3462 23.3773 36.0321C23.5568 35.718 24.0055 35.5834 24.3196 35.7629C24.6337 35.9424 24.7683 36.3911 24.5888 36.7052C24.4093 37.0642 24.0055 37.1539 23.6465 36.9744ZM24.5439 36.6603C24.3644 36.7949 24.0952 36.8847 23.7811 36.7052C23.467 36.5257 23.4221 36.2565 23.4221 36.0321C23.2875 36.3014 23.3773 36.7052 23.6465 36.8847C24.0055 37.0642 24.4093 36.9296 24.5439 36.6603Z" fill="#A39161"/>
<path d="M28.5369 32.6668L28.4022 32.577L28.5369 32.2181C28.5817 32.0834 28.5817 32.0386 28.5369 31.9937C28.492 31.9488 28.4022 31.9488 28.3574 31.904L27.3253 31.5001L26.383 32.6219L26.9663 33.6091C27.0112 33.654 27.0561 33.7437 27.101 33.7437C27.1458 33.7886 27.2356 33.7886 27.3253 33.7437L27.6843 33.4745L27.8189 33.5642L26.9215 34.6411L26.7869 34.5514L26.8766 34.327C26.9215 34.1027 26.8766 34.0129 26.7869 33.8783L24.8125 30.5129L25.0817 30.0642H25.1266L28.7612 31.4104C28.8958 31.4552 29.0304 31.5001 29.2548 31.3655L29.4792 31.2309L29.6138 31.3206L28.5369 32.6668ZM25.1715 30.3783V30.5129L28.492 31.7693C28.6715 31.8591 28.851 31.9488 28.7163 32.2181L29.1651 31.6796C28.9856 31.7245 28.7612 31.6796 28.6266 31.6347L25.1715 30.3783ZM25.1715 30.6475L26.2484 32.3527L27.0561 31.3655L25.1715 30.6475ZM27.4151 33.7886C27.1907 34.0129 27.0112 33.8783 26.8766 33.6988C27.0112 33.8783 27.101 34.1027 26.9663 34.327L27.4151 33.7886Z" fill="#A39161"/>
<path d="M32.1732 28.7629C32.0835 28.9873 31.7245 29.4809 31.4553 29.7501C30.4681 30.6924 29.2117 30.8719 28.1797 29.795C27.1476 28.718 27.4168 27.4616 28.404 26.5193C28.5835 26.3398 28.9873 26.0706 29.1668 25.936C29.3014 25.8014 29.3463 25.7116 29.3463 25.6667H29.4361L29.9296 26.5193V26.5642L29.8848 26.6091C29.4361 26.2501 28.9425 26.4296 28.5386 26.7885C27.8207 27.4616 27.8655 28.4488 28.7181 29.3014C29.5258 30.1539 30.513 30.2437 31.2309 29.6155C31.545 29.3462 31.9489 28.8526 31.7245 28.0898L31.8143 28.045L31.8591 28.0898L32.1732 28.7629ZM28.404 29.5257C27.9553 29.077 27.5963 28.4488 27.8207 27.5962C27.4617 28.4937 27.8655 29.2565 28.3143 29.7052C28.7181 30.1539 29.5258 30.6475 30.513 30.2885C29.4361 30.468 28.8079 29.9296 28.404 29.5257ZM29.4809 26.0257C29.2566 26.2052 29.2117 26.2052 28.8976 26.4296C29.1668 26.295 29.4809 26.295 29.7053 26.4296L29.4809 26.0257ZM31.8143 28.3591C31.8591 28.6283 31.8143 28.8975 31.6348 29.2565C31.8143 29.077 31.904 28.8975 31.9938 28.718L31.8143 28.3591Z" fill="#A39161"/>
<path d="M35.0474 26.8334L34.9128 26.6539C35.2717 26.4296 35.2717 26.2052 35.0922 25.9809L34.3294 24.8591L32.4448 26.1603L33.2076 27.2821C33.3871 27.5065 33.5666 27.5514 33.9256 27.327L33.9705 27.3719L34.0602 27.5514L32.6692 28.4937L32.5346 28.3142C32.8935 28.0898 32.8935 27.8655 32.714 27.6411L31.0538 25.218C30.8743 24.9937 30.6948 24.9488 30.3807 25.1732L30.2461 24.9937L31.6371 24.0514L31.7717 24.186V24.2309C31.3679 24.5001 31.3679 24.6796 31.5474 24.9039L32.3102 25.9809L34.1948 24.6796L33.432 23.6027C33.2525 23.3783 33.073 23.3334 32.7589 23.5578L32.6243 23.3334L34.0153 22.3911L34.1499 22.5257V22.5706C33.7461 22.8398 33.7461 23.0193 33.9256 23.2437L35.5858 25.6668C35.7653 25.8911 35.9448 25.936 36.3038 25.7116L36.3487 25.7565L36.4384 25.936L35.0474 26.8334ZM32.8935 27.5962C32.9833 27.7309 33.1179 27.9552 32.8935 28.1347L33.3871 27.7757C33.2525 27.7757 33.1179 27.5962 33.0281 27.4616L31.2781 24.9488C31.1884 24.8142 31.0987 24.6796 31.0538 24.545L30.6051 24.8591C30.8743 24.7244 31.0089 24.9039 31.1435 25.0385L32.8935 27.5962ZM35.2717 25.9809C35.3615 26.1155 35.4961 26.3398 35.2717 26.5193L35.7653 26.1603C35.6307 26.1603 35.4961 25.9809 35.4064 25.8462L33.6563 23.3334C33.5666 23.1988 33.4769 23.0642 33.432 22.9296L32.9833 23.2437C33.2525 23.1091 33.3871 23.2885 33.5217 23.4232L35.2717 25.9809Z" fill="#A39161"/>
<path d="M39.9814 23.9617C39.8468 24.186 39.3083 24.5001 38.9942 24.6796C37.7827 25.263 36.5263 25.0835 35.8532 23.7822C35.1801 22.436 35.8083 21.3142 37.0199 20.7309C37.2442 20.5963 37.7378 20.4617 37.9173 20.3719C38.0519 20.2822 38.1417 20.1925 38.1865 20.1476L38.2763 20.1925L38.5006 21.1348L38.4558 21.1796L38.366 21.2245C38.0519 20.7758 37.5135 20.7758 37.0199 21.0001C36.1673 21.404 35.8981 22.3912 36.4365 23.4681C36.975 24.545 37.8724 24.904 38.7699 24.5001C39.1288 24.3207 39.6673 24.0066 39.6673 23.154H39.7571L39.8019 23.1989L39.9814 23.9617ZM36.1673 23.6027C35.8981 23.0194 35.7186 22.3463 36.1673 21.5835C35.5391 22.3463 35.7635 23.1989 36.0327 23.7373C36.3019 24.2758 36.9301 24.9937 37.9622 24.9489C36.8853 24.8142 36.4365 24.0963 36.1673 23.6027ZM38.2314 20.5514C37.9622 20.6412 37.9173 20.6412 37.5583 20.7309C37.8724 20.686 38.1865 20.7758 38.3212 20.9553L38.2314 20.5514ZM39.7571 23.4681C39.7122 23.7373 39.6224 24.0066 39.3532 24.2758C39.5776 24.1412 39.7571 24.0066 39.8468 23.8719L39.7571 23.4681Z" fill="#A39161"/>
<path d="M44.6495 22.6155V22.436L44.9636 22.2117C45.0983 22.1219 45.0983 22.077 45.0983 22.0322C45.0983 21.9873 45.0534 21.8976 45.0085 21.8527L44.3803 20.9104L42.9444 21.2694L42.8995 22.436C42.8995 22.4809 42.8995 22.5706 42.8995 22.6155C42.8995 22.7053 42.9893 22.7501 43.079 22.7501H43.4829L43.5277 22.8847L42.1816 23.2437L42.1367 23.1091L42.3162 22.9745C42.4957 22.8399 42.4957 22.7053 42.5406 22.5706L42.8995 18.6668L43.3931 18.4873H43.438L45.6367 21.7181C45.7265 21.8527 45.8162 21.9424 46.0406 21.9873H46.3098L46.3547 22.1668L44.6495 22.6155ZM43.079 22.8847C42.7649 22.9296 42.6752 22.7501 42.6752 22.5258C42.6752 22.7501 42.6303 22.9745 42.3611 23.1091L43.079 22.8847ZM43.1239 19.0258L42.9893 21.045L44.2457 20.7309L43.1239 19.0258ZM43.2585 18.7565L43.1688 18.8463L45.1431 21.8078C45.2777 21.9873 45.3226 22.1668 45.0534 22.3014L45.7265 22.1219C45.547 22.077 45.4124 21.8527 45.3226 21.7629L43.2585 18.7565Z" fill="#A39161"/>
<path d="M49.8965 21.5834C49.6722 21.718 49.0888 21.8975 48.7298 21.9424C47.3837 22.1219 46.2619 21.5386 46.0375 20.0578C45.8581 18.577 46.8004 17.7245 48.1465 17.545C48.4157 17.5001 48.9093 17.545 49.0888 17.5001C49.2683 17.5001 49.3581 17.4104 49.4029 17.3655L49.4478 17.4103L49.3581 18.3975L49.3132 18.4424H49.2234C49.0888 17.9039 48.5504 17.7245 48.0119 17.8142C47.0696 17.9488 46.4863 18.7565 46.6658 19.968C46.8004 21.1347 47.5632 21.8078 48.5055 21.6732C48.9093 21.6283 49.5375 21.4937 49.8068 20.7309L49.8965 20.7757L49.9414 20.8206L49.8965 21.5834ZM46.3965 19.968C46.3068 19.3398 46.3516 18.6219 47.0247 18.0386C46.217 18.5321 46.1273 19.4296 46.1722 20.0129C46.2619 20.6411 46.576 21.4937 47.6081 21.7629C46.6657 21.3591 46.4414 20.5514 46.3965 19.968ZM49.3132 17.8142C49.044 17.8142 48.9991 17.8142 48.6401 17.7693C48.9542 17.8142 49.2234 17.9937 49.3132 18.2629V17.8142ZM49.8516 21.045C49.717 21.3142 49.5375 21.4937 49.1786 21.6732C49.4029 21.6283 49.6273 21.5386 49.7619 21.4488L49.8516 21.045Z" fill="#A39161"/>
<path d="M54.0247 21.5834C53.8003 21.718 53.1721 21.8078 52.8131 21.8078C51.467 21.8078 50.3901 21.045 50.4349 19.5642C50.4349 18.0834 51.5119 17.3655 52.858 17.3655C53.1272 17.3655 53.576 17.4552 53.8003 17.4552C53.9798 17.4552 54.0696 17.4104 54.1144 17.3655L54.1593 17.4103L53.9349 18.3527L53.8901 18.3975H53.8003C53.7555 17.8591 53.2619 17.5898 52.6785 17.5898C51.7362 17.5898 51.0632 18.3527 51.0632 19.5193C51.0632 20.686 51.7362 21.4488 52.6785 21.4488C53.0824 21.4488 53.7106 21.4039 54.0696 20.686L54.1593 20.7309L54.2042 20.7757L54.0247 21.5834ZM50.7939 19.5193C50.7939 18.8911 50.9285 18.218 51.6914 17.7245C50.7939 18.1283 50.6144 18.9809 50.5696 19.5642C50.5696 20.1924 50.7939 21.0898 51.7811 21.4937C50.8837 20.9104 50.749 20.1027 50.7939 19.5193ZM53.9798 17.7245C53.6657 17.7245 53.6657 17.6796 53.3067 17.5898C53.6208 17.6796 53.8452 17.9039 53.8901 18.1283L53.9798 17.7245ZM54.0696 21.045C53.9349 21.2693 53.7106 21.4488 53.3516 21.5834C53.576 21.5834 53.8003 21.4937 53.9798 21.4488L54.0696 21.045Z" fill="#A39161"/>
<path d="M58.4685 22.077C58.289 22.2116 57.9749 22.3013 57.7954 22.3013C57.3018 22.2116 57.1672 21.8077 57.0774 21.2693C57.0326 20.9103 56.9428 20.5513 56.7185 20.2821C56.5838 20.1475 56.4043 20.0577 56.0454 20.0129L55.8659 21.2693C55.821 21.5385 55.9108 21.718 56.4043 21.7629V21.8077L56.3595 21.9872L54.6992 21.7629L54.7441 21.5385C55.1479 21.5834 55.2826 21.4488 55.3274 21.1795L55.7313 18.2629C55.7761 17.9936 55.6864 17.8142 55.2377 17.7693L55.2826 17.5449L56.9428 17.7693C58.1095 17.9488 58.2441 18.577 58.1544 19.1154C58.1095 19.4744 57.7954 19.968 56.9877 20.0129V20.0577C57.3467 20.1475 57.571 20.5065 57.6608 20.9103C57.7505 21.4039 57.93 21.8526 58.2441 21.8975C58.3787 21.8975 58.4236 21.8975 58.6031 21.8975L58.6479 21.9424L58.4685 22.077ZM55.3723 21.2244C55.3274 21.4039 55.2826 21.6283 55.0133 21.6283L55.5967 21.718C55.5069 21.5834 55.5069 21.4039 55.5518 21.2693L56.0005 18.218C56.0005 18.0834 56.0454 17.859 56.1351 17.7693L55.5967 17.6795C55.8659 17.7693 55.8659 17.9936 55.821 18.1731L55.3723 21.2244ZM56.0005 19.7436C56.0454 19.7436 56.1351 19.7885 56.18 19.7885C57.0774 19.9231 57.4364 19.5193 57.5261 18.9359C57.571 18.4872 57.3915 18.1283 56.7185 17.9936C56.3146 17.9488 56.18 18.0834 56.1351 18.3526L56.0005 19.7436ZM57.7954 22.2116C57.571 22.077 57.4364 21.8975 57.3467 21.2244C57.3018 20.8654 57.1223 20.327 56.6736 20.1026C57.0326 20.3718 57.1223 20.8654 57.1672 21.2244C57.2569 21.6731 57.3018 22.1218 57.7954 22.2116ZM57.7056 18.9359C57.6608 19.2052 57.5261 19.7436 56.8531 19.8334C57.6608 19.7885 57.8402 19.2949 57.8851 18.9359C57.93 18.6218 57.7954 18.0385 56.9877 17.9039C57.7056 18.1283 57.7505 18.6667 57.7056 18.9359Z" fill="#A39161"/>
<path d="M58.7812 22.3911L58.8261 22.1667C59.23 22.2565 59.4095 22.1667 59.4543 21.8975L60.2171 19.0706C60.3069 18.8013 60.2172 18.6218 59.8133 18.5321L59.8582 18.3077L62.8197 19.1154L62.8646 19.2052L62.4159 20.0129H62.371H62.2813C62.371 19.4744 62.1915 19.2052 61.6979 19.0706L61.3389 18.9808C60.9351 18.8911 60.8005 18.9808 60.7107 19.25L60.3518 20.5513L61.1595 20.7757C61.4736 20.8654 61.6082 20.7757 61.7877 20.2821L61.9672 20.327L61.5633 21.718H61.3838L61.3389 21.6731C61.4736 21.2244 61.3389 21.0898 61.0697 21L60.262 20.7757L59.903 22.077C59.8133 22.3462 59.903 22.5257 60.2171 22.6154L60.8005 22.7949C61.0697 22.8847 61.6082 22.9295 62.0569 22.3911L62.1466 22.4359V22.4808L61.653 23.2885L58.7812 22.3911ZM59.5441 21.9872C59.4992 22.1667 59.4095 22.3911 59.0954 22.3462L59.6787 22.5257C59.5889 22.3911 59.6338 22.2116 59.6787 22.0321L60.4864 19.0706C60.5313 18.9359 60.5761 18.7565 60.6659 18.6667L60.1274 18.5321C60.3966 18.6667 60.3518 18.8911 60.3069 19.0706L59.5441 21.9872ZM62.0569 22.6154C61.8325 22.7949 61.6082 22.9295 61.2043 22.9295C61.4287 22.9744 61.653 22.9744 61.8325 22.9744L62.0569 22.6154ZM61.6082 21.3142L61.7877 20.6411C61.6979 20.8654 61.5184 20.9103 61.3389 20.9103C61.5184 20.9552 61.653 21.0898 61.6082 21.3142ZM62.6851 19.3847C62.5056 19.25 62.3261 19.1603 62.1018 19.0706C62.4159 19.2052 62.5505 19.4744 62.5056 19.6988L62.6851 19.3847Z" fill="#A39161"/>
<path d="M62.5488 23.1988C62.9077 23.3783 63.0872 23.2886 63.2219 23.0194L64.3885 20.3271C64.4783 20.0578 64.4334 19.8783 64.0744 19.6988L64.1642 19.4745C64.8372 19.7437 65.4206 19.9681 65.9142 20.1924C67.1257 20.7309 67.7988 21.8078 67.2603 23.1091C66.7218 24.4104 65.4654 24.6796 64.209 24.1412C63.7603 23.9617 63.177 23.6476 62.5039 23.3783L62.5488 23.1988ZM63.3116 23.1091C63.2667 23.2437 63.1321 23.4681 62.818 23.4232C62.9975 23.5129 63.2219 23.6027 63.3565 23.6924C63.3116 23.5578 63.3565 23.3335 63.4462 23.1988L64.6578 20.3719C64.7026 20.2373 64.7924 20.0578 64.8821 19.9681C64.7026 19.9232 64.5231 19.8335 64.3885 19.7437C64.6577 19.9232 64.568 20.1476 64.4783 20.2822L63.3116 23.1091ZM64.2539 23.9617C65.3757 24.4553 66.1385 23.9617 66.5872 22.9296C67.0359 21.8976 66.8565 20.9553 65.7347 20.5065L65.4654 20.3719C65.1513 20.2373 64.9719 20.3271 64.8821 20.5963L63.7154 23.2886C63.6257 23.5578 63.6706 23.7373 64.0295 23.8719L64.2539 23.9617ZM66.9462 23.0194C67.1706 22.436 67.3501 21.5835 66.6321 20.9104C67.1706 21.6732 66.9911 22.3912 66.7667 22.9745C66.5424 23.5129 66.0936 24.186 65.1962 24.2758C66.1385 24.2758 66.677 23.6027 66.9462 23.0194Z" fill="#A39161"/>
<path d="M66.7266 25.3526L66.8163 25.1731C67.1753 25.3975 67.3548 25.3078 67.4894 25.0834L68.9253 22.5257C69.0599 22.3014 69.015 22.077 68.656 21.8975L68.7458 21.718L70.1817 22.5257L70.1368 22.7052L70.0919 22.7501C69.733 22.5257 69.5535 22.6155 69.4189 22.8398L67.983 25.3975C67.8484 25.6219 67.8484 25.8462 68.2522 26.0257V26.0706L68.1625 26.2052L66.7266 25.3526ZM67.5791 25.1731C67.4894 25.3078 67.3548 25.5321 67.0855 25.3975L67.624 25.7116C67.5791 25.577 67.6689 25.3975 67.7586 25.2629L69.2843 22.6155C69.374 22.4808 69.4637 22.3013 69.5535 22.2565L69.0599 21.9872C69.2843 22.2116 69.1945 22.3911 69.1048 22.5257L67.5791 25.1731Z" fill="#A39161"/>
<path d="M69.2344 26.8783L69.369 26.6988C69.728 26.968 69.9523 26.9232 70.0869 26.6988L72.0164 23.9167C71.5677 23.6026 70.9844 23.3783 70.401 23.7373L70.3562 23.6475V23.6026L70.9844 22.9296L73.6767 24.8591L73.2728 25.6667L73.228 25.7116L73.1382 25.6667C73.3177 24.9937 72.869 24.545 72.4203 24.2308L70.4459 27.0129C70.2664 27.2373 70.3113 27.4167 70.6703 27.7308V27.7757L70.5357 27.9103L69.2344 26.8783ZM72.1062 23.9616L70.1318 26.7885C70.0421 26.9232 69.9075 27.1026 69.5934 26.968L70.0869 27.327C70.0421 27.1924 70.1767 27.0129 70.2664 26.8783L72.2408 24.0514L72.1062 23.9616ZM70.6703 23.468C70.9395 23.3783 71.1639 23.3334 71.5677 23.468C71.3882 23.3334 71.1639 23.2437 70.9844 23.2437L70.6703 23.468ZM73.4523 24.9937C73.3626 24.8591 73.228 24.6796 73.0485 24.545C73.3177 24.8591 73.3626 25.0834 73.3626 25.3975L73.4523 24.9937Z" fill="#A39161"/>
<path d="M71.6133 28.5834L71.7479 28.4039C72.062 28.6731 72.2415 28.6731 72.421 28.4488L74.3953 26.2949C74.5748 26.0706 74.5748 25.8911 74.3056 25.6219L74.4402 25.4424L76.7287 27.5065V27.5962L75.9658 28.1347H75.921L75.8761 28.0898C76.1902 27.6411 76.1453 27.327 75.7864 26.968L75.5171 26.7437C75.203 26.4744 75.0235 26.5193 74.844 26.6988L73.9466 27.686L74.5748 28.2244C74.7992 28.4488 74.9787 28.4488 75.3376 28.0449L75.4722 28.1796L74.4851 29.2565L74.3505 29.1667V29.1219C74.6646 28.8078 74.6197 28.6283 74.3953 28.4039L73.7671 27.8655L72.8697 28.8526C72.6902 29.0321 72.6453 29.2565 72.9146 29.4808L73.3633 29.8847C73.5876 30.0642 74.0364 30.3334 74.6646 30.0642L74.7094 30.1539V30.1988L73.9466 30.6924L71.6133 28.5834ZM72.5107 28.5834C72.3761 28.718 72.2415 28.8526 71.9722 28.718L72.421 29.1219C72.421 28.9873 72.5556 28.8078 72.6453 28.718L74.7094 26.4296C74.7992 26.3398 74.9338 26.1603 75.0684 26.1155L74.6646 25.7565C74.844 26.0257 74.7094 26.2052 74.5748 26.2949L72.5107 28.5834ZM74.4402 30.2885C74.171 30.3783 73.9017 30.3783 73.5428 30.1539C73.7222 30.2885 73.9466 30.4231 74.0812 30.468L74.4402 30.2885ZM74.6197 28.8975L75.0684 28.359C74.8889 28.4937 74.7094 28.4937 74.5299 28.359C74.7094 28.5834 74.7543 28.718 74.6197 28.8975ZM76.4594 27.6411C76.3697 27.4616 76.2351 27.2821 76.1005 27.1026C76.2799 27.3719 76.2799 27.686 76.1902 27.8655L76.4594 27.6411Z" fill="#A39161"/>
<path d="M74.6209 31.0065C74.8901 31.3206 75.0696 31.3206 75.294 31.1412L77.5376 29.2565C77.7619 29.0771 77.8068 28.8976 77.5376 28.5835L77.717 28.4489C78.1658 28.9873 78.6145 29.4809 78.9286 29.8847C79.7811 30.9168 79.8709 32.1732 78.794 33.1155C77.717 34.013 76.4606 33.6989 75.6081 32.6668C75.294 32.263 74.8901 31.7694 74.4414 31.2309L74.6209 31.0065ZM75.3388 31.2758C75.2042 31.3655 75.0247 31.545 74.8004 31.3206C74.935 31.4553 75.0696 31.6347 75.1594 31.8142C75.1594 31.6796 75.3388 31.5001 75.4286 31.4104L77.7619 29.436C77.8965 29.3463 78.0311 29.2117 78.1658 29.1668C78.0311 29.0322 77.8965 28.8976 77.8068 28.763C77.9414 29.0322 77.8068 29.2117 77.6722 29.3014L75.3388 31.2758ZM75.7876 32.4424C76.5504 33.3848 77.4927 33.295 78.3453 32.5771C79.2427 31.8591 79.467 30.9617 78.7042 30.0194L78.5247 29.795C78.3004 29.5258 78.1209 29.5706 77.8965 29.7053L75.6529 31.5899C75.4286 31.7694 75.3837 31.9489 75.6529 32.263L75.7876 32.4424ZM78.6145 32.8463C79.0632 32.4424 79.6017 31.7694 79.2876 30.8271C79.4222 31.7245 78.9735 32.3078 78.4799 32.7117C78.0311 33.1155 77.3581 33.4745 76.5055 33.1604C77.3581 33.6091 78.1209 33.2053 78.6145 32.8463Z" fill="#A39161"/>
<path d="M79.8238 35.6732C80.1379 35.4937 80.5866 35.6283 80.7661 35.9424C80.9456 36.2565 80.8559 36.7052 80.4969 36.8847C80.1828 37.0642 79.7341 36.9744 79.5546 36.6155C79.3751 36.3462 79.4648 35.8527 79.8238 35.6732ZM79.6443 36.6155C79.6443 36.436 79.6892 36.1219 80.0033 35.9424C80.3174 35.7629 80.5866 35.8527 80.7661 35.9873C80.5866 35.718 80.2277 35.6283 79.9136 35.7629C79.5995 35.9424 79.4648 36.3462 79.6443 36.6155Z" fill="#A39161"/>
<path d="M81.1279 42.0898L81.2625 42.045L81.4869 42.3591C81.5766 42.4488 81.6215 42.4937 81.7112 42.4488C81.7561 42.4488 81.8459 42.3591 81.8907 42.3142L82.7433 41.5963L82.2048 40.2052L81.083 40.2501C81.0382 40.2501 80.9484 40.2501 80.9035 40.295C80.8138 40.3398 80.7689 40.3847 80.8138 40.4745L80.8587 40.8783L80.7241 40.9232L80.2305 39.6219L80.3651 39.577L80.5446 39.7565C80.6792 39.936 80.8138 39.936 80.9933 39.936H84.8971L85.1664 40.3847V40.4296L82.16 42.9424C82.0702 43.0322 81.9356 43.1668 81.9356 43.3911V43.6604L81.7561 43.7052L81.1279 42.0898ZM80.6792 40.5642C80.5894 40.2501 80.7689 40.1604 81.0382 40.1604C80.8138 40.1604 80.5894 40.1604 80.4548 39.8911L80.6792 40.5642ZM84.7625 40.295L84.6279 40.2052L81.8907 42.4488C81.7561 42.5834 81.5317 42.6732 81.3971 42.4039L81.6664 43.077C81.7112 42.8975 81.8907 42.7181 81.9805 42.6283L84.7625 40.295ZM84.5382 40.1604L82.5189 40.2052L82.9676 41.4168L84.5382 40.1604Z" fill="#A39161"/>
<path d="M82.6545 47.1604C82.4751 46.9809 82.2507 46.3975 82.161 46.0386C81.8469 44.6924 82.3404 43.5257 83.7763 43.1668C85.2122 42.8078 86.1545 43.7052 86.4686 45.0065C86.5135 45.2757 86.5584 45.7693 86.6033 45.9488C86.6481 46.1283 86.693 46.2181 86.7379 46.2629L86.693 46.3078H85.7058L85.661 46.2629V46.1732C86.1994 45.9937 86.2892 45.4552 86.1545 44.9168C85.9302 43.9745 85.0327 43.5257 83.8661 43.795C82.6994 44.0642 82.161 44.8719 82.3404 45.8142C82.4302 46.2181 82.6545 46.8463 83.4174 46.9809V47.0706L83.3725 47.1155L82.6545 47.1604ZM83.911 43.5257C84.5392 43.3911 85.2122 43.3463 85.8853 43.9745C85.302 43.2116 84.4494 43.2116 83.8212 43.3463C83.2379 43.4809 82.3853 43.9296 82.2058 44.9616C82.5648 43.9296 83.3725 43.6604 83.911 43.5257ZM83.2379 47.0706C82.9686 46.9809 82.7443 46.8014 82.5648 46.4873C82.6545 46.7116 82.7443 46.936 82.834 47.0706H83.2379ZM86.3789 46.2181C86.334 45.9488 86.334 45.904 86.334 45.545C86.334 45.8591 86.1545 46.1283 85.9302 46.2629L86.3789 46.2181Z" fill="#A39161"/>
<path d="M82.9256 50.6155H83.1499C83.1948 51.0194 83.3294 51.154 83.6435 51.1091L84.9897 51.0194L84.8102 48.7309L83.464 48.8206C83.1948 48.8206 83.0602 48.9553 83.1051 49.4488L83.0602 49.4937H82.8807L82.7461 47.7886H82.9705C83.0153 48.1924 83.1499 48.327 83.464 48.2822L86.3807 48.0578C86.6499 48.0578 86.7846 47.8783 86.7846 47.4745H87.0089L87.1435 49.1796L86.964 49.2245H86.9192C86.8743 48.7758 86.7397 48.6412 86.4256 48.686L85.1243 48.7758L85.3038 51.0642L86.6051 50.9745C86.8743 50.9745 87.0089 50.795 87.0089 50.3912H87.2333L87.3679 52.0963L87.1884 52.1412H87.1435C87.0987 51.6924 86.964 51.5578 86.6499 51.6027L83.7333 51.827C83.464 51.827 83.3294 51.9617 83.3743 52.4553L83.3294 52.5001H83.1499L82.9256 50.6155ZM83.3294 48.3719C83.1499 48.3719 82.9256 48.3719 82.8358 48.1027L82.8807 48.686C82.9705 48.5514 83.1948 48.5514 83.3294 48.5065L86.3807 48.2822C86.5153 48.2822 86.7397 48.2373 86.8294 48.327L86.7846 47.7886C86.7397 48.1027 86.5153 48.1476 86.3358 48.1476L83.3294 48.3719ZM83.5987 51.2437C83.4192 51.2437 83.1948 51.2437 83.1051 50.9745L83.1499 51.6027C83.2397 51.4681 83.464 51.4681 83.5987 51.4232L86.6499 51.1988C86.7846 51.1988 87.0089 51.154 87.0987 51.2437L87.0538 50.7053C87.0089 51.0194 86.7846 51.0642 86.6051 51.0642L83.5987 51.2437Z" fill="#A39161"/>
<path d="M82.9237 56.3591C82.8339 56.1347 82.7891 55.5065 82.7891 55.1476C82.8788 53.8014 83.6865 52.8142 85.1673 52.904C86.648 52.9937 87.3211 54.1155 87.2314 55.4617C87.2314 55.7309 87.0968 56.1796 87.0968 56.404C87.0968 56.5835 87.1416 56.6732 87.1416 56.7181L87.0968 56.763L86.1544 56.4937L86.1096 56.4488V56.3591C86.648 56.3142 86.9173 55.8655 86.9621 55.3271C87.007 54.3847 86.3339 53.6668 85.1224 53.5771C83.9557 53.4873 83.148 54.1155 83.1032 55.0578C83.0583 55.4617 83.1032 56.0899 83.7762 56.4937L83.7314 56.5835H83.6865L82.9237 56.3591ZM83.4621 56.404C83.2378 56.2245 83.0583 56.045 83.0134 55.6412C83.0134 55.8655 83.0583 56.1347 83.1032 56.2694L83.4621 56.404ZM85.1673 53.2181C85.7955 53.263 86.4685 53.4424 86.9173 54.2053C86.5583 53.3078 85.7506 53.0386 85.1224 52.9937C84.4942 52.9488 83.5968 53.1283 83.1032 54.0706C83.7762 53.2181 84.5839 53.1732 85.1673 53.2181ZM86.7378 56.5386C86.7827 56.2694 86.7826 56.2245 86.9173 55.8655C86.8275 56.1796 86.5583 56.3591 86.3339 56.404L86.7378 56.5386Z" fill="#A39161"/>
<path d="M81.7553 61.0707L81.8899 61.1155V61.5194C81.8899 61.654 81.9348 61.6989 81.9797 61.7437C82.0245 61.7437 82.1143 61.7437 82.204 61.7437L83.3258 61.6989L83.7297 60.3078L82.7874 59.6796C82.7425 59.6348 82.6527 59.5899 82.6079 59.5899C82.5181 59.5899 82.4733 59.5899 82.4284 59.6796L82.204 60.0386L82.0694 59.9937L82.4284 58.6476L82.563 58.6925L82.6079 58.9168C82.6527 59.1412 82.7425 59.2309 82.8771 59.3207L86.063 61.6091L85.9733 62.1476L85.9284 62.1925L82.0245 62.4617C81.8899 62.4617 81.7104 62.5066 81.5758 62.686L81.4412 62.9104L81.2617 62.8655L81.7553 61.0707ZM85.7938 61.7886L85.7489 61.654L82.204 61.8784C82.0245 61.8784 81.8002 61.8335 81.8002 61.5643L81.6207 62.2373C81.7553 62.1027 81.9797 62.1027 82.1592 62.0578L85.7938 61.7886ZM82.3386 59.5899C82.4733 59.2758 82.6527 59.3207 82.8771 59.4553C82.6976 59.3207 82.5181 59.186 82.563 58.9168L82.3386 59.5899ZM85.6591 61.5194L83.9989 60.3976L83.6848 61.654L85.6591 61.5194Z" fill="#A39161"/>
<path d="M80.007 66.1411C79.9622 65.8719 80.1416 65.2885 80.2763 64.9296C80.8147 63.6732 81.8916 63.0001 83.2378 63.5834C84.5839 64.1668 84.898 65.4232 84.3596 66.6347C84.2698 66.8591 84.0006 67.2629 83.9109 67.4873C83.866 67.6219 83.866 67.7565 83.866 67.8014L83.7762 67.8462L82.9686 67.2629V67.218L83.0134 67.1283C83.5519 67.2629 83.9557 66.9039 84.1801 66.4103C84.5391 65.5129 84.0904 64.6155 83.0134 64.1668C81.9365 63.718 80.9942 64.0321 80.5904 64.9296C80.4557 65.2885 80.2314 65.9168 80.7698 66.545L80.6801 66.6347H80.6352L80.007 66.1411ZM80.5455 66.3655C80.366 66.1411 80.3211 65.8719 80.366 65.5129C80.2763 65.7373 80.2314 65.9616 80.2763 66.1411L80.5455 66.3655ZM83.148 63.8975C83.7314 64.1219 84.3147 64.5257 84.4942 65.4232C84.4493 64.436 83.7762 63.9424 83.1929 63.718C82.6096 63.4937 81.7121 63.3591 80.9493 64.077C81.8468 63.4488 82.6545 63.6732 83.148 63.8975ZM83.5968 67.5321C83.7314 67.2629 83.7763 67.2629 83.9557 66.9488C83.7763 67.218 83.4621 67.3078 83.2378 67.2629L83.5968 67.5321Z" fill="#A39161"/>
<path d="M77.9844 69.7308C77.9844 69.4616 78.2087 68.9232 78.4331 68.6091C79.1062 67.4424 80.2728 66.9039 81.5741 67.6667C82.8305 68.4296 82.9652 69.686 82.2921 70.8526C82.1575 71.077 81.8434 71.436 81.7536 71.6155C81.6639 71.7501 81.6639 71.8847 81.6639 71.9296H81.5741L80.8562 71.2565V71.2116L80.901 71.1219C81.3946 71.3462 81.8882 71.0321 82.1575 70.5834C82.6511 69.7757 82.3369 68.7885 81.3049 68.2052C80.2728 67.6219 79.2857 67.8014 78.8369 68.6091C78.6126 68.968 78.3434 69.5514 78.7921 70.2244L78.7023 70.3142H78.6575L77.9844 69.7308ZM78.4331 70.0001C78.2985 69.7309 78.2536 69.5065 78.3434 69.1026C78.2536 69.327 78.1639 69.5514 78.1639 69.7308L78.4331 70.0001ZM81.3946 67.936C81.9331 68.2501 82.4716 68.7437 82.5164 69.5962C82.6062 68.6539 81.978 68.0257 81.4844 67.7116C80.9459 67.3975 80.0485 67.1283 79.1959 67.7565C80.1382 67.3078 80.901 67.6219 81.3946 67.936ZM81.3049 71.5706C81.4844 71.3462 81.4844 71.3014 81.7536 71.0321C81.5293 71.2565 81.2152 71.3462 80.9908 71.2565L81.3049 71.5706Z" fill="#A39161"/>
<path d="M75.3398 73.3206C75.2949 73.0962 75.3847 72.7821 75.5193 72.6027C75.8334 72.1988 76.2821 72.2886 76.7757 72.468C77.0898 72.6027 77.4936 72.6924 77.8526 72.6475C78.0321 72.6027 78.2116 72.5129 78.4359 72.1988L77.4488 71.3911C77.2244 71.2116 77.0449 71.2116 76.7308 71.5706H76.6859L76.5513 71.436L77.5834 70.0898L77.7629 70.2245C77.4936 70.5386 77.5385 70.7629 77.7629 70.8975L80.0513 72.7373C80.2757 72.9168 80.4552 72.9168 80.7244 72.5578L80.9039 72.6924L79.8718 74.0386C79.1539 74.9809 78.5257 74.7565 78.077 74.3975C77.7629 74.1732 77.5385 73.6347 77.8975 72.9168H77.8526C77.5834 73.186 77.1795 73.186 76.7757 73.0514C76.2821 72.9168 75.8334 72.7821 75.609 73.0514C75.5193 73.1411 75.5193 73.2309 75.4295 73.3655H75.3847L75.3398 73.3206ZM75.5642 72.6475C75.7885 72.5129 76.0129 72.5129 76.5962 72.7373C76.9103 72.8719 77.4936 73.0065 77.8975 72.6924C77.4936 72.8719 77.0001 72.6924 76.6859 72.5578C76.2821 72.468 75.8783 72.2886 75.5642 72.6475ZM77.5834 71.0322C77.4488 70.9424 77.2693 70.7629 77.4039 70.4937L77.0449 70.9873C77.1795 70.9424 77.359 71.077 77.4936 71.1668L79.9167 73.0514C80.0513 73.1411 80.1859 73.2757 80.2308 73.3655L80.5898 72.9168C80.3654 73.0962 80.1859 72.9616 80.0513 72.8719L77.5834 71.0322ZM78.3911 74.218C78.1667 74.0386 77.8077 73.6796 78.0321 73.0514C77.6731 73.7693 78.0321 74.218 78.2565 74.3975C78.4808 74.577 79.0641 74.7565 79.6026 74.1283C79.109 74.6219 78.6154 74.3975 78.3911 74.218ZM78.5706 72.3783C78.5257 72.4232 78.4808 72.468 78.4359 72.5129C77.8526 73.2309 78.0321 73.7245 78.4808 74.1283C78.8398 74.3975 79.2436 74.4424 79.6924 73.9039C79.9616 73.5898 79.8718 73.4103 79.6924 73.2309L78.5706 72.3783Z" fill="#A39161"/>
<path d="M74.89 73.4103L75.0246 73.5898C74.7105 73.859 74.7554 74.0834 74.9349 74.2628L76.999 76.3718C77.1785 76.5513 77.4028 76.5962 77.6721 76.2821L77.8067 76.4616L75.608 78.6154H75.5182L75.0695 77.8077V77.7628L75.1144 77.718C75.5182 78.0769 75.8772 78.0321 76.2362 77.6731L76.5054 77.4039C76.7746 77.1346 76.7746 76.9103 76.5951 76.7308L75.6528 75.7885L75.0695 76.3718C74.8452 76.5962 74.8452 76.7757 75.2041 77.1346L75.0695 77.2692L74.0375 76.2372L74.1272 76.1026H74.1721C74.4862 76.4167 74.6657 76.4167 74.89 76.1923L75.4734 75.609L74.5311 74.6218C74.3516 74.4423 74.1272 74.3975 73.9028 74.6218L73.4541 75.0257C73.2298 75.2051 72.9605 75.6539 73.1849 76.3269L73.0951 76.3718H73.0503L72.6016 75.5641L74.89 73.4103ZM73.0503 76.1474C73.0054 75.8782 73.0054 75.609 73.2298 75.25C73.0503 75.4295 72.9605 75.609 72.8708 75.7885L73.0503 76.1474ZM74.8452 74.3077C74.7105 74.1731 74.5759 73.9936 74.7554 73.7692L74.3067 74.1731C74.4413 74.1731 74.6208 74.3077 74.7105 74.3975L76.8644 76.5962C76.9541 76.6859 77.0887 76.8654 77.1336 76.9551L77.5375 76.5513C77.2682 76.7308 77.0887 76.5513 76.999 76.4616L74.8452 74.3077ZM74.3964 76.4167L74.89 76.9103C74.7554 76.7308 74.8003 76.5513 74.89 76.3718C74.7554 76.5064 74.5759 76.5513 74.3964 76.4167ZM75.5631 78.3013C75.7426 78.2116 75.9221 78.1218 76.1464 77.9423C75.8772 78.1218 75.5631 78.1218 75.3836 77.9872L75.5631 78.3013Z" fill="#A39161"/>
<path d="M72.2874 76.2373C71.9733 76.4616 71.9284 76.686 72.1079 76.9103L73.8579 79.2886C74.0374 79.5129 74.2169 79.5578 74.531 79.3334L74.6656 79.5129C74.0823 79.9168 73.5887 80.3655 73.1849 80.6347C72.1079 81.4424 70.8066 81.4424 69.999 80.3206C69.1464 79.1988 69.5502 77.9873 70.6272 77.1796C71.031 76.8655 71.5695 76.5065 72.1528 76.1027L72.2874 76.2373ZM70.2682 80.1411C70.6272 80.6347 71.3002 81.218 72.2425 80.9488C71.3451 81.0385 70.8066 80.545 70.4028 80.0065C70.0438 79.5129 69.6849 78.8398 70.0438 77.9873C69.5502 78.8398 69.9092 79.6475 70.2682 80.1411ZM70.8066 77.3591C69.8195 78.077 69.8643 78.9745 70.5374 79.9168C71.2105 80.8591 72.1079 81.1283 73.0502 80.4103L73.2746 80.2309C73.5438 80.0065 73.5438 79.827 73.4092 79.6027L71.6592 77.2245C71.4797 77.0001 71.3002 76.9552 70.9861 77.1796L70.8066 77.3591ZM71.9733 76.9552C71.8836 76.8206 71.749 76.6411 71.9733 76.4168C71.8387 76.5065 71.6143 76.686 71.4797 76.7757C71.6143 76.7757 71.749 76.9552 71.8387 77.0898L73.6784 79.5578C73.7682 79.6924 73.9028 79.827 73.9028 79.9616C74.0374 79.8719 74.2169 79.7373 74.3515 79.6027C74.0823 79.7373 73.9028 79.5578 73.8131 79.4232L71.9733 76.9552Z" fill="#A39161"/>
<path d="M68.3403 78.7949L68.4749 78.9744C68.1159 79.1988 68.071 79.3782 68.2056 79.6026L69.6864 82.1603C69.821 82.3847 70.0005 82.4744 70.3595 82.25L70.4941 82.4295L69.0582 83.2821L68.9685 83.1475V83.1026C69.3274 82.8782 69.3723 82.6988 69.2377 82.4744L67.7569 79.9167C67.6223 79.6924 67.4428 79.6026 67.0838 79.827L67.039 79.7821L66.9492 79.6026L68.3403 78.7949ZM68.071 79.6475C67.9813 79.5129 67.8915 79.2885 68.1159 79.109L67.5774 79.4231C67.712 79.468 67.8467 79.6475 67.8915 79.7372L69.4172 82.3847C69.5069 82.5193 69.5967 82.6988 69.5967 82.8334L70.0903 82.5641C69.7761 82.6539 69.6864 82.4744 69.5967 82.3398L68.071 79.6475Z" fill="#A39161"/>
<path d="M65.7814 80.186L65.8712 80.4104C65.4673 80.5899 65.4225 80.7694 65.5122 81.0386L66.9481 84.1347C67.4417 83.9104 67.9353 83.5514 67.8904 82.8335H67.9802L68.025 82.8783L68.2494 83.7758L65.243 85.1668L64.7494 84.404V84.3591L64.8391 84.3142C65.3327 84.8078 65.9609 84.6732 66.4545 84.4488L65.0186 81.3527C64.884 81.0835 64.7494 80.9937 64.3007 81.2181L64.2558 81.1732L64.2109 80.9937L65.7814 80.186ZM66.8135 84.1796L65.3776 81.0386C65.2879 80.904 65.243 80.6796 65.4673 80.5001L64.9289 80.7694C65.0635 80.8142 65.1532 80.9937 65.243 81.1283L66.6789 84.2694L66.8135 84.1796ZM65.2879 84.8078C65.4673 84.8078 65.6917 84.7629 65.9161 84.6732C65.5122 84.7181 65.2879 84.6732 65.0186 84.4937L65.2879 84.8078ZM67.9802 83.1476C67.9353 83.4617 67.8455 83.6412 67.5314 83.9104C67.7558 83.8206 67.9353 83.6412 68.025 83.5514L67.9802 83.1476Z" fill="#A39161"/>
<path d="M63.1334 81.3976L63.2232 81.6219C62.8193 81.7566 62.7744 81.936 62.8193 82.2053L63.7167 84.9873C63.8065 85.2565 63.986 85.3463 64.345 85.2566L64.4347 85.4809L61.518 86.4232L61.4283 86.3783L61.3834 85.436L61.4283 85.3912L61.518 85.3463C61.7424 85.8399 62.0565 85.9745 62.5501 85.795L62.9091 85.7053C63.3129 85.5707 63.3578 85.3912 63.268 85.1219L62.8642 83.8655L62.1014 84.1348C61.8321 84.2245 61.6975 84.404 61.877 84.8976L61.6975 84.9425L61.2488 83.5514L61.3834 83.4617H61.4283C61.5629 83.8655 61.7424 83.9553 62.0116 83.8655L62.7744 83.5963L62.3706 82.295C62.2808 82.0258 62.1462 81.936 61.7873 82.0258L61.2039 82.2053C60.9347 82.295 60.486 82.5194 60.3514 83.2373H60.2616L60.2167 83.1925L60.1719 82.2501L63.1334 81.3976ZM60.2616 82.9681C60.3514 82.6989 60.4411 82.4745 60.8001 82.2501C60.5757 82.3399 60.3962 82.4296 60.2616 82.5642V82.9681ZM61.3385 83.8655L61.5629 84.5386C61.518 84.3142 61.6526 84.1796 61.8321 84.0899C61.6078 84.0899 61.4283 84.045 61.3385 83.8655ZM61.518 86.0642C61.7424 86.0642 61.9219 86.0642 62.1911 86.0194C61.877 86.0642 61.6078 85.9296 61.4732 85.7053L61.518 86.0642ZM62.6847 82.1604C62.6398 81.9809 62.595 81.7566 62.8642 81.6219L62.2809 81.8014C62.4155 81.8463 62.5052 82.0707 62.5501 82.2053L63.4924 85.1219C63.5373 85.2565 63.5821 85.436 63.5821 85.5707L64.1206 85.3912C63.8065 85.436 63.7167 85.2117 63.6719 85.0322L62.6847 82.1604Z" fill="#A39161"/>
<path d="M59.4989 82.7885C59.095 82.8783 59.0053 83.0129 59.0501 83.327L59.5437 86.2437C59.5886 86.5129 59.7232 86.6475 60.1719 86.5578L60.2168 86.7821C59.4989 86.9168 58.8707 87.0514 58.3771 87.1411C57.0758 87.3655 55.9091 86.827 55.6399 85.436C55.4155 84.045 56.313 83.1475 57.6142 82.9232C58.1078 82.8334 58.736 82.7437 59.454 82.6539L59.4989 82.7885ZM55.954 85.3014C56.0437 85.8847 56.4027 86.6924 57.3899 86.9168C56.5373 86.6027 56.2681 85.8847 56.1783 85.2565C56.0886 84.6732 56.0886 83.8655 56.7617 83.327C55.9091 83.8206 55.8642 84.718 55.954 85.3014ZM57.6591 83.1026C56.4924 83.327 56.0886 84.1347 56.2681 85.2565C56.4476 86.3783 57.1206 87.0514 58.2873 86.827L58.6014 86.7821C58.9604 86.7373 59.0053 86.5578 58.9604 86.2886L58.4668 83.4168C58.4219 83.1475 58.2873 83.0129 57.8835 83.0578L57.6591 83.1026ZM58.9155 83.2373C58.8707 83.0578 58.8707 82.8334 59.1399 82.7437C58.9604 82.7885 58.736 82.7886 58.5566 82.8334C58.6912 82.9232 58.736 83.1027 58.736 83.2821L59.2745 86.2886C59.3194 86.4232 59.3194 86.6475 59.2745 86.7821C59.454 86.7373 59.6335 86.6924 59.813 86.6924C59.4989 86.6924 59.454 86.468 59.4091 86.2886L58.9155 83.2373Z" fill="#A39161"/>
<path d="M52.8578 84.9424C52.8578 85.3463 52.5437 85.6604 52.1398 85.6604C51.736 85.6604 51.4219 85.3463 51.4219 84.9424C51.4219 84.5386 51.736 84.2245 52.1398 84.2245C52.5437 84.2245 52.8578 84.5386 52.8578 84.9424ZM52.1398 84.3142C52.3193 84.404 52.5437 84.5835 52.5437 84.9424C52.5437 85.3014 52.3193 85.4809 52.1398 85.5706C52.4539 85.5706 52.7232 85.3014 52.7232 84.9424C52.768 84.5835 52.4539 84.3142 52.1398 84.3142Z" fill="#A39161"/>
</svg>
