<svg width="186" height="73" viewBox="0 0 186 73" fill="none" xmlns="http://www.w3.org/2000/svg">
<g clip-path="url(#clip0)">
<path d="M87.7445 33.0994C86.6781 37.7847 85.6118 38.9938 83.1744 38.9938H68.5504V5.44099C68.5504 4.38302 68.5503 3.62733 68.7027 3.17391C68.855 2.7205 68.855 2.41822 69.0074 2.11594C69.1597 1.9648 69.312 1.66253 69.6167 1.66253C69.9214 1.51139 70.3784 1.36025 70.9877 1.20911H71.14V0H61.8476V1.20911H62C62.457 1.51139 62.914 1.66253 63.2187 1.81366C63.5233 1.9648 63.6757 2.11594 63.828 2.41822C63.9803 2.56936 63.9803 2.87164 64.1327 3.32505C64.1327 3.77847 64.285 4.53416 64.285 5.44099V35.8199C64.285 36.8778 64.285 37.6335 64.1327 38.087C63.9803 38.5404 63.828 38.9938 63.5233 39.1449C63.2187 39.4472 62.6093 39.5983 61.8476 39.9006H61.6953V41.1097H89.8771V32.7971L87.7445 33.0994Z" fill="#141C3B"/>
<path d="M90.7914 21.3105C90.7914 20.5549 90.7914 19.9503 90.639 19.4969C90.4867 18.2878 90.3344 17.3809 90.182 16.4741C89.8773 15.265 89.4203 14.207 88.811 13.4513C88.2017 12.6956 87.2877 11.9399 86.3737 11.4865C85.3073 11.0331 84.0887 10.7308 82.5653 10.7308C80.7373 10.7308 79.0616 11.1843 77.5383 12.0911C76.1673 12.9979 74.9486 14.207 74.1869 15.8696C73.4253 17.5321 72.9683 19.3457 72.9683 21.6128C72.9683 25.089 73.7299 27.6584 75.2533 29.472C76.7766 31.2857 79.0616 32.1925 82.1083 32.1925C83.1746 32.1925 84.241 32.0414 85.155 31.7391C86.069 31.4368 86.983 30.9834 87.7447 30.3789C88.5063 29.7743 89.4203 29.1698 90.3344 28.1118L90.4867 27.9606L88.9633 26.4493L88.811 26.6004C87.897 27.5072 86.983 28.2629 86.069 28.7163C85.155 29.1698 84.0887 29.3209 82.87 29.3209C81.499 29.3209 80.4326 29.0186 79.5186 28.4141C78.6046 27.8095 77.9953 26.9027 77.6906 25.8447C77.3859 24.7867 77.0813 23.2754 77.0813 21.6128V21.3105H90.7914ZM77.3859 19.3457C77.5383 17.2298 77.9953 15.5673 78.9093 14.5093C79.8233 13.3002 80.8896 12.8468 82.413 12.8468C83.327 12.8468 84.0886 13.1491 84.698 13.6025C85.3073 14.0559 85.7643 14.8116 86.069 15.7184C86.3737 16.6252 86.526 17.8344 86.6783 19.3457H77.3859Z" fill="#141C3B"/>
<path d="M102.521 10.882C101.302 10.882 100.236 11.0331 99.3219 11.3354C98.2555 11.6377 97.4939 12.0911 96.7322 12.6956C95.9705 13.3002 95.3612 14.0559 95.0565 14.9627C94.5995 15.8695 94.4472 16.9275 94.4472 18.1366C94.4472 19.4969 94.7519 20.706 95.2089 21.7639C95.6659 22.8219 96.4275 23.5776 97.4939 24.1822C96.4275 24.9379 95.6659 25.6936 95.2089 26.4492C94.7519 27.2049 94.4472 27.9606 94.4472 28.7163C94.4472 29.472 94.5995 30.0766 95.0565 30.6811C95.3612 31.1345 95.8182 31.588 96.4275 31.8902C95.3612 32.4948 94.5995 33.0993 93.9902 33.7039C93.3808 34.4596 93.0762 35.3664 93.0762 36.2733C93.0762 37.3312 93.3808 38.0869 93.8378 38.8426C94.2948 39.4472 95.0565 40.0517 95.8182 40.5051C96.7322 40.9586 97.7985 41.2608 98.8649 41.412C100.084 41.5631 101.455 41.7143 102.826 41.7143C104.806 41.7143 106.482 41.412 108.005 40.8074C109.528 40.2029 110.595 39.4472 111.356 38.3892C112.118 37.3312 112.575 36.1221 112.575 34.7619C112.575 33.7039 112.423 32.7971 111.966 31.8902C111.509 31.1345 110.899 30.3789 109.833 29.9254C108.919 29.472 107.548 29.1697 106.025 29.1697H100.845C99.9312 29.1697 99.1695 29.1697 98.7125 29.0186C98.2555 28.8675 97.9509 28.7163 97.7985 28.414C97.6462 28.1118 97.4939 27.8095 97.4939 27.3561C97.4939 26.6004 97.9509 25.8447 99.0172 25.089C99.9312 25.3913 100.845 25.5424 102.064 25.5424C104.806 25.5424 106.786 24.9379 108.31 23.5776C109.833 22.3685 110.442 20.4037 110.442 18.1366C110.442 17.2298 110.29 16.4741 109.985 15.5673C109.681 14.8116 109.376 14.207 108.919 13.7536L109.071 13.6025H113.337V11.1842H105.568C104.654 11.0331 103.587 10.882 102.521 10.882ZM108.919 35.3664C108.919 36.1221 108.614 36.8778 108.157 37.4824C107.7 38.0869 106.939 38.5403 106.025 38.8426C105.111 39.1449 104.044 39.296 102.673 39.296C100.541 39.296 99.0172 38.9938 98.1032 38.3892C97.0369 37.7847 96.5799 36.8778 96.5799 35.6687C96.5799 34.913 96.7322 34.3085 97.0369 33.7039C97.3415 33.0993 97.9509 32.4948 98.5602 32.0414C99.4742 32.1925 100.388 32.1925 101.607 32.1925H105.111C105.872 32.1925 106.634 32.3437 107.091 32.4948C107.548 32.6459 108.005 32.9482 108.31 33.2505C108.614 33.5528 108.767 33.855 108.919 34.1573C108.919 34.6107 108.919 35.0642 108.919 35.3664ZM106.482 18.1366C106.482 18.8923 106.482 19.4969 106.329 20.1014C106.177 20.706 105.872 21.3105 105.568 21.7639C105.263 22.2174 104.806 22.6708 104.349 22.8219C103.892 23.1242 103.283 23.2753 102.521 23.2753C101.15 23.2753 100.084 22.8219 99.4742 21.9151C98.7125 21.0083 98.4079 19.648 98.4079 17.8343C98.4079 16.1718 98.7125 14.9627 99.4742 14.0559C100.236 13.149 101.15 12.6956 102.521 12.6956C103.283 12.6956 104.044 12.8468 104.654 13.3002C105.111 13.6025 105.568 14.207 105.872 15.1138C106.329 15.8695 106.482 16.9275 106.482 18.1366Z" fill="#141C3B"/>
<path d="M132.683 30.0766C132.378 29.9255 132.226 29.7743 132.074 29.6232C131.921 29.472 131.769 29.1698 131.769 28.7163C131.769 28.4141 131.617 27.9606 131.617 27.5072C131.617 27.0538 131.617 26.2981 131.617 25.2402V17.8344C131.617 16.0207 131.464 14.5093 131.007 13.6025C130.55 12.6956 129.941 11.9399 129.027 11.4865C128.113 11.0331 127.047 10.7308 125.523 10.7308C124.609 10.7308 123.695 10.882 122.629 11.0331C121.715 11.1843 120.801 11.4865 119.887 11.7888C118.973 12.0911 117.754 12.6956 116.383 13.3002V16.323H119.43V16.1718C119.735 14.9627 120.344 14.207 120.953 13.6025C121.563 12.9979 122.477 12.6956 123.543 12.6956C124.609 12.6956 125.371 12.8468 125.98 13.3002C126.59 13.7536 127.047 14.3582 127.351 15.1139C127.656 16.0207 127.808 17.0787 127.808 18.59V19.7992C123.695 19.9503 120.649 20.706 118.516 21.764C116.383 22.9731 115.317 24.6356 115.317 26.7515C115.317 27.8095 115.622 28.7163 116.079 29.472C116.536 30.2277 117.145 30.8323 118.059 31.2857C118.973 31.7391 119.887 31.8903 120.953 31.8903C122.172 31.8903 123.391 31.588 124.457 31.1346C125.523 30.6811 126.742 29.7743 127.961 28.4141H128.113L127.961 31.7391V31.8903H134.054V30.6811H133.902C133.292 30.3789 132.835 30.2277 132.683 30.0766ZM121.258 23.2753C122.629 22.5197 124.762 22.2174 127.656 22.0662V24.9379C127.656 25.6936 127.504 26.2981 127.047 27.0538C126.59 27.8095 125.98 28.4141 125.219 28.8675C124.457 29.3209 123.543 29.6232 122.629 29.6232C122.02 29.6232 121.41 29.472 120.953 29.3209C120.496 29.1698 120.039 28.8675 119.735 28.4141C119.43 27.9606 119.278 27.3561 119.278 26.6004C119.125 25.089 119.887 24.031 121.258 23.2753Z" fill="#141C3B"/>
<path d="M150.811 26.7516C149.897 27.6584 148.983 28.4141 148.221 28.7164C147.46 29.0187 146.393 29.3209 145.479 29.3209C144.413 29.3209 143.651 29.1698 143.042 28.7164C142.433 28.263 141.823 27.8095 141.366 27.0538C140.909 26.2982 140.605 25.5425 140.452 24.4845C140.3 23.4265 140.148 22.3685 140.148 21.1594C140.148 19.3458 140.3 17.6832 140.757 16.323C141.214 15.1139 141.823 14.0559 142.585 13.4514C143.347 12.8468 144.261 12.5445 145.175 12.5445C145.784 12.5445 146.393 12.6957 146.85 12.8468C147.46 13.3002 147.764 13.6025 148.221 14.2071C148.526 14.6605 148.831 15.4162 149.135 16.323V16.4741H152.03V11.7888H151.877C150.811 11.4866 149.897 11.3354 148.831 11.1843C147.764 11.0331 146.698 11.0331 145.479 11.0331C143.499 11.0331 141.823 11.4866 140.452 12.3934C138.929 13.3002 137.863 14.5093 136.949 16.1719C136.187 17.8344 135.73 19.648 135.73 21.764C135.73 25.089 136.492 27.8095 137.863 29.6232C139.386 31.4369 141.366 32.3437 144.108 32.3437C144.87 32.3437 145.479 32.3437 146.241 32.1926C146.85 32.0414 147.46 31.8903 148.221 31.588C148.831 31.2857 149.44 30.9835 150.049 30.53C150.659 30.0766 151.268 29.4721 152.03 28.7164V28.5652L150.811 26.7516Z" fill="#141C3B"/>
<path d="M168.329 11.1843V12.3934H168.482C169.243 12.5445 169.853 12.8468 170.157 13.1491C170.462 13.4513 170.614 13.9048 170.614 14.5093C170.614 14.9627 170.614 15.4162 170.462 15.8696C170.31 16.323 170.157 16.9275 169.853 17.381L165.74 27.3561L162.084 16.9275C161.931 16.323 161.779 15.8696 161.627 15.4161C161.474 14.9627 161.474 14.6605 161.474 14.207C161.474 13.9048 161.474 13.6025 161.627 13.3002C161.779 13.1491 161.931 12.8468 162.236 12.6957C162.541 12.5445 162.998 12.3934 163.607 12.2422H163.759V11.1843H154.771V12.3934H154.924C155.533 12.5445 155.838 12.6957 156.142 12.8468C156.447 12.9979 156.599 13.3002 156.904 13.7536C157.209 14.207 157.513 14.8116 157.818 15.8696L163.759 31.8903C163.15 33.0994 162.541 34.1574 162.084 34.913C161.627 35.6687 161.17 36.2733 160.865 36.7267C160.56 37.1801 160.103 37.3313 159.799 37.4824C159.494 37.6335 159.037 37.7847 158.732 37.7847C158.275 37.7847 157.971 37.6335 157.666 37.4824C157.361 37.3313 157.209 36.8779 157.056 36.2733V36.1222H154.924V40.5052H155.076C156.142 40.6563 156.904 40.8075 157.818 40.8075C159.037 40.8075 160.103 40.5052 161.017 39.9006C161.931 39.2961 162.693 38.5404 163.455 37.3313C164.216 36.2733 164.978 34.7619 165.74 32.9482L173.509 15.5673C173.966 14.6605 174.27 13.9048 174.575 13.4513C174.88 12.9979 175.184 12.5445 175.489 12.3934C175.794 12.2422 176.251 11.94 176.708 11.94H176.86V11.1843H168.329Z" fill="#141C3B"/>
<path d="M9.29248 16.6253H10.9682V16.4741C11.1205 15.7184 11.4252 14.9627 11.5775 14.5093C11.8822 14.0559 12.0345 13.6025 12.3392 13.3002C12.6438 12.9979 12.7962 12.8468 13.1008 12.8468C13.4055 12.6957 13.7102 12.6957 14.1672 12.6957H15.9952V27.8095C15.9952 28.4141 15.9952 28.8675 15.8428 29.1698C15.8428 29.472 15.6905 29.6232 15.6905 29.9255C15.5382 30.0766 15.5382 30.2277 15.3858 30.3789C15.2335 30.53 15.0812 30.53 14.9288 30.6812C14.6242 30.8323 14.4718 30.8323 14.1672 30.8323H14.0148V31.7391H21.1745V30.8323H21.0222C20.5652 30.6812 20.2605 30.6812 19.9559 30.53C19.8035 30.3789 19.4989 30.2277 19.4989 30.0766C19.3465 29.9255 19.3465 29.6232 19.1942 29.3209C19.1942 29.0186 19.0419 28.5652 19.0419 27.9607V12.8468H20.8699C21.4792 12.8468 21.7839 12.8468 22.0885 12.9979C22.3932 13.1491 22.5455 13.3002 22.8502 13.4513C23.1549 13.7536 23.3072 14.0559 23.4596 14.5093C23.6119 14.9627 23.9166 15.7184 24.0689 16.4741V16.6253H25.8969V11.1843H9.29248V16.6253Z" fill="#141C3B"/>
<path d="M41.5875 30.3789C41.4352 30.2277 41.2828 29.9255 41.2828 29.7743C41.2828 29.472 41.1305 28.8675 41.1305 27.9607V22.3685C41.1305 21.6128 41.1305 20.8571 40.9782 20.2526C40.8258 19.648 40.6735 19.1946 40.5212 18.8923C40.3688 18.4389 40.0642 18.1366 39.7595 17.8344C39.4548 17.5321 38.9978 17.3809 38.5408 17.2298C38.0838 17.0787 37.6268 17.0787 37.0175 17.0787C36.5605 17.0787 35.9511 17.2298 35.4941 17.3809C35.0371 17.5321 34.5801 17.8344 34.1231 18.1366C33.6661 18.4389 33.0568 18.8923 32.4474 19.648V10.1263H31.3811L27.5728 10.2774V11.3354H27.7251C28.1821 11.4865 28.6391 11.4865 28.7914 11.6377C28.9438 11.7888 29.0961 11.7888 29.2484 11.9399C29.4008 12.0911 29.4008 12.2422 29.5531 12.5445C29.5531 12.8468 29.7054 13.1491 29.7054 13.4513C29.7054 13.9047 29.7054 14.5093 29.7054 15.4161V27.9607C29.7054 28.5652 29.7054 29.1698 29.7054 29.472C29.7054 29.7743 29.5531 30.0766 29.5531 30.2277C29.4008 30.3789 29.4008 30.53 29.0961 30.53C28.9438 30.6812 28.6391 30.6811 28.1821 30.8323H28.0298V31.7391H34.2755V30.8323H34.1231C33.6661 30.6811 33.3614 30.6812 33.2091 30.53C33.0568 30.3789 32.9044 30.2277 32.7521 30.0766C32.5998 29.9255 32.5998 29.6232 32.5998 29.3209C32.5998 29.0186 32.5998 28.5652 32.5998 27.9607V22.2174C32.5998 21.764 32.7521 21.4617 32.9044 21.0083C33.0568 20.706 33.3615 20.2526 33.8185 19.9503C34.2755 19.648 34.5801 19.3457 34.8848 19.1946C35.1895 19.0435 35.4941 19.0435 35.9511 19.0435C36.5605 19.0435 37.1698 19.1946 37.4745 19.4969C37.7791 19.7992 38.0838 20.4037 38.2361 21.0083C38.3885 21.764 38.3885 22.6708 38.3885 24.031V27.9607C38.3885 28.5652 38.3885 29.1698 38.2361 29.472C38.2361 29.7743 38.0838 30.0766 37.9315 30.2277C37.7791 30.3789 37.6268 30.53 37.4745 30.53C37.3221 30.6812 37.0175 30.6811 36.7128 30.8323H36.5605V31.7391H42.8062V30.8323H42.6538C42.1968 30.6811 41.7398 30.53 41.5875 30.3789Z" fill="#141C3B"/>
<path d="M56.5158 24.3333C56.5158 22.8219 56.3635 21.7639 56.0588 20.8571C55.7541 19.9503 55.4495 19.3457 54.9925 18.7412C54.5355 18.1366 53.9261 17.6832 53.1645 17.3809C52.4028 17.0786 51.4888 16.9275 50.5748 16.9275C49.2038 16.9275 48.1374 17.2298 47.0711 17.8343C46.0048 18.4389 45.2431 19.3457 44.7861 20.5548C44.1767 21.7639 44.0244 22.973 44.0244 24.4844C44.0244 26.9026 44.6338 28.7163 45.7001 30.0766C46.7664 31.2857 48.4421 31.8902 50.4224 31.8902C51.1841 31.8902 51.9458 31.7391 52.5551 31.5879C53.1645 31.4368 53.7738 31.1345 54.3831 30.6811C54.9925 30.2277 55.6018 29.7743 56.2112 29.1697L56.3635 29.0186L55.2971 27.8095L55.1448 27.9606C54.5355 28.5652 53.9261 29.1697 53.1645 29.472C52.5551 29.7743 51.7935 29.9254 51.0318 29.9254C50.1178 29.9254 49.3561 29.7743 48.7468 29.3209C48.1374 28.8674 47.6804 28.2629 47.5281 27.5072C47.2234 26.7515 47.0711 25.6935 47.0711 24.6356V24.4844H56.5158V24.3333ZM50.4224 18.4389C51.0318 18.4389 51.6411 18.59 51.9458 18.8923C52.4028 19.1946 52.7075 19.7991 52.8598 20.4037C53.0121 21.0082 53.1645 21.9151 53.3168 22.8219H47.0711C47.2234 21.4617 47.5281 20.2525 48.1374 19.4968C48.7468 18.7412 49.5084 18.4389 50.4224 18.4389Z" fill="#141C3B"/>
<path d="M186 51.9917H0V53.2008H186V51.9917Z" fill="#141C3B"/>
<path d="M49.2037 64.3851L46.3094 72.8488H44.6337L42.501 66.6522L40.3684 72.8488H38.6927L35.7983 64.3851H37.474L39.6067 70.884L41.7394 64.3851H43.2627L45.3954 70.884L47.5281 64.3851H49.2037Z" fill="#141C3B"/>
<path d="M52.2505 64.3851H53.7738V72.8488H52.2505V64.3851Z" fill="#141C3B"/>
<path d="M58.0391 64.3851H59.5624V71.4886H63.9801V72.8488H57.8867V64.3851H58.0391Z" fill="#141C3B"/>
<path d="M67.1792 64.3851H68.7025V71.4886H73.1202V72.8488H67.0269V64.3851H67.1792Z" fill="#141C3B"/>
<path d="M77.6903 72.3954C76.9286 72.0932 76.4716 71.4886 76.0146 70.8841C75.5576 70.2795 75.4053 69.5238 75.4053 68.617C75.4053 67.7101 75.5576 67.1056 76.0146 66.3499C76.4716 65.7453 76.9286 65.1408 77.6903 64.8385C78.452 64.5362 79.2136 64.2339 79.9753 64.2339C80.8893 64.2339 81.651 64.3851 82.2603 64.8385C82.8696 65.2919 83.479 65.7453 83.936 66.3499C84.393 66.9544 84.5453 67.7101 84.5453 68.617C84.5453 69.3727 84.393 70.1284 83.936 70.8841C83.479 71.4886 83.022 72.0932 82.2603 72.3954C81.4986 72.6977 80.737 73 79.9753 73C79.2136 73 78.452 72.8489 77.6903 72.3954ZM81.651 71.1863C82.108 70.884 82.4126 70.5818 82.7173 70.1284C83.022 69.6749 83.1743 69.2215 83.1743 68.617C83.1743 68.0124 83.022 67.559 82.7173 67.1056C82.4126 66.6522 82.108 66.3499 81.651 66.0476C81.194 65.7453 80.737 65.5942 80.1276 65.5942C79.5183 65.5942 79.0613 65.7453 78.6043 66.0476C78.1473 66.3499 77.8426 66.6522 77.538 67.1056C77.2333 67.559 77.0809 68.0124 77.0809 68.617C77.0809 69.2215 77.2333 69.6749 77.538 70.1284C77.8426 70.5818 78.1473 70.884 78.6043 71.1863C79.0613 71.4886 79.5183 71.6397 80.1276 71.6397C80.5846 71.6397 81.194 71.4886 81.651 71.1863Z" fill="#141C3B"/>
<path d="M100.388 64.3851L97.4935 72.8488H95.8178L93.6851 66.6522L91.5524 72.8488H89.8768L86.9824 64.3851H88.6581L90.7908 70.884L92.9235 64.3851H94.4468L96.5795 70.884L98.7122 64.3851H100.388Z" fill="#141C3B"/>
<path d="M116.079 69.2215C116.383 69.5238 116.536 69.9772 116.536 70.5818C116.536 71.3375 116.231 71.942 115.622 72.2443C115.012 72.6977 114.251 72.8488 113.184 72.8488H108.919V64.3851H112.88C113.946 64.3851 114.708 64.5362 115.165 64.9896C115.622 65.443 115.926 65.8965 115.926 66.6522C115.926 67.1056 115.774 67.4078 115.622 67.7101C115.469 68.0124 115.165 68.3147 114.86 68.4658C115.317 68.617 115.774 68.9192 116.079 69.2215ZM110.442 65.5942V68.0124H112.727C113.337 68.0124 113.641 67.8613 113.946 67.7101C114.251 67.559 114.403 67.2567 114.403 66.8033C114.403 66.3499 114.251 66.1987 113.946 65.8965C113.641 65.7453 113.184 65.5942 112.727 65.5942H110.442ZM114.86 70.4306C114.86 69.6749 114.251 69.2215 113.032 69.2215H110.442V71.6397H113.032C114.251 71.6397 114.86 71.1863 114.86 70.4306Z" fill="#141C3B"/>
<path d="M126.437 71.6397V73H120.039V64.5362H126.285V65.8964H121.715V68.0124H125.828V69.3726H121.715V71.6397H126.437Z" fill="#141C3B"/>
<path d="M137.558 64.3851V72.8488H136.187L131.464 67.1056V72.8488H129.941V64.3851H131.312L136.034 70.1283V64.3851H137.558Z" fill="#141C3B"/>
<path d="M141.67 64.3851H145.326C146.24 64.3851 147.002 64.5362 147.764 64.8385C148.525 65.1408 148.982 65.7453 149.439 66.3499C149.896 66.9544 150.049 67.7101 150.049 68.617C150.049 69.5238 149.896 70.1283 149.439 70.884C148.982 71.6397 148.525 72.0932 147.764 72.3954C147.002 72.6977 146.24 72.8488 145.326 72.8488H141.67V64.3851ZM145.326 71.6397C145.936 71.6397 146.545 71.4886 147.002 71.3375C147.459 71.1863 147.916 70.7329 148.068 70.2795C148.221 69.8261 148.525 69.3727 148.525 68.7681C148.525 68.1635 148.373 67.7101 148.068 67.2567C147.764 66.8033 147.459 66.501 147.002 66.1987C146.545 65.8965 145.936 65.8965 145.326 65.8965H143.194V71.6397H145.326Z" fill="#141C3B"/>
</g>
<defs>
<clipPath id="clip0">
<rect width="186" height="73" fill="white"/>
</clipPath>
</defs>
</svg>
