<svg width="168" height="66" viewBox="0 0 168 66" fill="none" xmlns="http://www.w3.org/2000/svg">
<path d="M79.2548 29.9255C78.2917 34.1615 77.3285 35.2547 75.1271 35.2547H61.9182V4.91925C61.9182 3.96273 61.9182 3.2795 62.0558 2.86957C62.1934 2.45963 62.1934 2.18634 62.331 1.91304C62.4686 1.7764 62.6062 1.50311 62.8814 1.50311C63.1565 1.36646 63.5693 1.22981 64.1197 1.09317H64.2573V0H55.8642V1.09317H56.0017C56.4145 1.36646 56.8273 1.50311 57.1025 1.63975C57.3777 1.7764 57.5153 1.91304 57.6529 2.18634C57.7904 2.32298 57.7904 2.59627 57.928 3.00621C57.928 3.41615 58.0656 4.09938 58.0656 4.91925V32.3851C58.0656 33.3416 58.0656 34.0248 57.928 34.4348C57.7904 34.8447 57.6529 35.2547 57.3777 35.3913C57.1025 35.6646 56.5521 35.8012 55.8642 36.0745H55.7266V37.1677H81.1811V29.6522L79.2548 29.9255Z" fill="white"/>
<path d="M82.0045 19.2683C82.0045 18.5851 82.0045 18.0385 81.8669 17.6286C81.7293 16.5354 81.5918 15.7155 81.4542 14.8957C81.179 13.8025 80.7662 12.846 80.2158 12.1628C79.6655 11.4795 78.8399 10.7963 78.0144 10.3864C77.0512 9.97642 75.9505 9.70312 74.5746 9.70312C72.9234 9.70312 71.4099 10.1131 70.034 10.9329C68.7957 11.7528 67.6949 12.846 67.007 14.3491C66.319 15.8522 65.9062 17.4919 65.9062 19.5416C65.9062 22.6845 66.5942 25.0075 67.9701 26.6472C69.3461 28.287 71.4099 29.1069 74.1618 29.1069C75.1249 29.1069 76.0881 28.9702 76.9136 28.6969C77.7392 28.4236 78.5647 28.0137 79.2527 27.4671C79.9406 26.9205 80.7662 26.3739 81.5917 25.4174L81.7293 25.2808L80.3534 23.9143L80.2158 24.051C79.3903 24.8708 78.5647 25.5541 77.7392 25.964C76.9136 26.3739 75.9505 26.5106 74.8497 26.5106C73.6114 26.5106 72.6483 26.2373 71.8227 25.6907C70.9972 25.1441 70.4468 24.3242 70.1716 23.3677C69.8964 22.4112 69.6212 21.0447 69.6212 19.5416V19.2683H82.0045ZM69.8964 17.4919C70.034 15.5789 70.4468 14.0758 71.2723 13.1193C72.0979 12.0261 73.061 11.6162 74.437 11.6162C75.2625 11.6162 75.9505 11.8895 76.5008 12.2994C77.0512 12.7093 77.464 13.3926 77.7392 14.2124C78.0144 15.0323 78.1519 16.1255 78.2895 17.4919H69.8964Z" fill="white"/>
<path d="M92.601 9.83984C91.5003 9.83984 90.5371 9.97649 89.7116 10.2498C88.7484 10.5231 88.0605 10.933 87.3725 11.4796C86.6846 12.0262 86.1342 12.7094 85.859 13.5293C85.4462 14.3492 85.3086 15.3057 85.3086 16.3989C85.3086 17.6287 85.5838 18.7218 85.9966 19.6784C86.4094 20.6349 87.0973 21.3181 88.0605 21.8647C87.0973 22.5479 86.4094 23.2311 85.9966 23.9144C85.5838 24.5976 85.3086 25.2808 85.3086 25.9641C85.3086 26.6473 85.4462 27.1939 85.859 27.7405C86.1342 28.1504 86.547 28.5603 87.0973 28.8336C86.1342 29.3802 85.4462 29.9268 84.8959 30.4734C84.3455 31.1566 84.0703 31.9765 84.0703 32.7964C84.0703 33.7529 84.3455 34.4361 84.7583 35.1193C85.171 35.6659 85.859 36.2125 86.547 36.6225C87.3725 37.0324 88.3357 37.3057 89.2988 37.4423C90.3996 37.579 91.6379 37.7156 92.8762 37.7156C94.6649 37.7156 96.1784 37.4423 97.5543 36.8957C98.9303 36.3492 99.8934 35.6659 100.581 34.7094C101.269 33.7529 101.682 32.6597 101.682 31.4299C101.682 30.4734 101.545 29.6535 101.132 28.8336C100.719 28.1504 100.169 27.4672 99.2054 27.0572C98.3799 26.6473 97.1416 26.374 95.7656 26.374H91.0875C90.262 26.374 89.574 26.374 89.1612 26.2374C88.7485 26.1007 88.4733 25.9641 88.3357 25.6908C88.1981 25.4175 88.0605 25.1442 88.0605 24.7343C88.0605 24.051 88.4733 23.3678 89.4364 22.6846C90.262 22.9579 91.0875 23.0945 92.1883 23.0945C94.6649 23.0945 96.4536 22.5479 97.8295 21.3181C99.2054 20.2249 99.7558 18.4485 99.7558 16.3989C99.7558 15.579 99.6182 14.8957 99.343 14.0759C99.0679 13.3926 98.7927 12.8461 98.3799 12.4361L98.5175 12.2995H102.37V10.1131H95.3529C94.5273 9.97649 93.5642 9.83984 92.601 9.83984ZM98.3799 31.9765C98.3799 32.6597 98.1047 33.3429 97.6919 33.8895C97.2792 34.4361 96.5912 34.8461 95.7656 35.1193C94.9401 35.3926 93.977 35.5293 92.7386 35.5293C90.8123 35.5293 89.4364 35.256 88.6109 34.7094C87.6477 34.1628 87.2349 33.343 87.2349 32.2498C87.2349 31.5666 87.3725 31.02 87.6477 30.4734C87.9229 29.9268 88.4733 29.3802 89.0236 28.9703C89.8492 29.1069 90.6747 29.1069 91.7755 29.1069H94.9401C95.6281 29.1069 96.316 29.2436 96.7288 29.3802C97.1416 29.5169 97.5543 29.7902 97.8295 30.0634C98.1047 30.3367 98.2423 30.61 98.3799 30.8833C98.3799 31.2933 98.3799 31.7032 98.3799 31.9765ZM96.1784 16.3989C96.1784 17.0821 96.1784 17.6287 96.0408 18.1752C95.9032 18.7218 95.6281 19.2684 95.3529 19.6784C95.0777 20.0883 94.6649 20.4982 94.2521 20.6349C93.8394 20.9082 93.289 21.0448 92.601 21.0448C91.3627 21.0448 90.3996 20.6349 89.8492 19.815C89.1612 18.9951 88.886 17.7653 88.886 16.1256C88.886 14.6225 89.1612 13.5293 89.8492 12.7094C90.5371 11.8895 91.3627 11.4796 92.601 11.4796C93.289 11.4796 93.9769 11.6162 94.5273 12.0262C94.9401 12.2995 95.3529 12.8461 95.6281 13.6659C96.0408 14.3492 96.1784 15.3057 96.1784 16.3989Z" fill="white"/>
<path d="M119.846 27.1938C119.57 27.0572 119.433 26.9205 119.295 26.7839C119.158 26.6472 119.02 26.3739 119.02 25.964C119.02 25.6907 118.883 25.2808 118.883 24.8708C118.883 24.4609 118.883 23.7777 118.883 22.8211V16.1255C118.883 14.4857 118.745 13.1193 118.332 12.2994C117.919 11.4795 117.369 10.7963 116.543 10.3864C115.718 9.97642 114.755 9.70312 113.379 9.70312C112.553 9.70312 111.728 9.83977 110.765 9.97642C109.939 10.1131 109.113 10.3864 108.288 10.6596C107.462 10.9329 106.362 11.4795 105.123 12.0261V14.759H107.875V14.6224C108.15 13.5292 108.701 12.846 109.251 12.2994C109.801 11.7528 110.627 11.4795 111.59 11.4795C112.553 11.4795 113.241 11.6162 113.792 12.0261C114.342 12.436 114.755 12.9826 115.03 13.6659C115.305 14.4857 115.443 15.4423 115.443 16.8087V17.9019C111.728 18.0385 108.976 18.7218 107.05 19.6783C105.123 20.7714 104.16 22.2746 104.16 24.1876C104.16 25.1441 104.435 25.964 104.848 26.6472C105.261 27.3305 105.811 27.877 106.637 28.287C107.462 28.6969 108.288 28.8336 109.251 28.8336C110.352 28.8336 111.453 28.5603 112.416 28.1503C113.379 27.7404 114.48 26.9205 115.58 25.6907H115.718L115.58 28.6969V28.8336H121.084V27.7404H120.946C120.396 27.4671 119.983 27.3305 119.846 27.1938ZM109.526 21.0447C110.765 20.3615 112.691 20.0882 115.305 19.9516V22.5478C115.305 23.2311 115.168 23.7777 114.755 24.4609C114.342 25.1441 113.792 25.6907 113.104 26.1006C112.416 26.5106 111.59 26.7839 110.765 26.7839C110.214 26.7839 109.664 26.6472 109.251 26.5106C108.838 26.3739 108.426 26.1006 108.15 25.6907C107.875 25.2808 107.738 24.7342 107.738 24.051C107.6 22.6845 108.288 21.728 109.526 21.0447Z" fill="white"/>
<path d="M136.219 24.1877C135.394 25.0076 134.568 25.6908 133.88 25.9641C133.192 26.2374 132.229 26.5107 131.404 26.5107C130.44 26.5107 129.752 26.3741 129.202 25.9641C128.652 25.5542 128.101 25.1443 127.689 24.461C127.276 23.7778 127.001 23.0946 126.863 22.1381C126.725 21.1815 126.588 20.225 126.588 19.1318C126.588 17.4921 126.725 15.989 127.138 14.7592C127.551 13.666 128.101 12.7095 128.789 12.1629C129.477 11.6163 130.303 11.343 131.128 11.343C131.679 11.343 132.229 11.4797 132.642 11.6163C133.192 12.0263 133.467 12.2995 133.88 12.8461C134.155 13.2561 134.431 13.9393 134.706 14.7592V14.8958H137.32V10.6598H137.182C136.219 10.3865 135.394 10.2499 134.431 10.1132C133.467 9.97656 132.504 9.97656 131.404 9.97656C129.615 9.97656 128.101 10.3865 126.863 11.2064C125.487 12.0263 124.524 13.1194 123.698 14.6225C123.01 16.1256 122.598 17.7654 122.598 19.6784C122.598 22.6846 123.286 25.1443 124.524 26.784C125.9 28.4238 127.689 29.2436 130.165 29.2436C130.853 29.2436 131.404 29.2436 132.092 29.107C132.642 28.9704 133.192 28.8337 133.88 28.5604C134.431 28.2871 134.981 28.0138 135.531 27.6039C136.082 27.194 136.632 26.6474 137.32 25.9641V25.8275L136.219 24.1877Z" fill="white"/>
<path d="M152.043 10.1133V11.2064H152.18C152.868 11.3431 153.418 11.6164 153.694 11.8897C153.969 12.163 154.106 12.5729 154.106 13.1195C154.106 13.5294 154.106 13.9394 153.969 14.3493C153.831 14.7592 153.694 15.3058 153.419 15.7158L149.704 24.7344L146.401 15.3058C146.264 14.7592 146.126 14.3493 145.989 13.9394C145.851 13.5294 145.851 13.2561 145.851 12.8462C145.851 12.5729 145.851 12.2996 145.989 12.0263C146.126 11.8897 146.264 11.6164 146.539 11.4797C146.814 11.3431 147.227 11.2064 147.777 11.0698H147.915V10.1133H139.797V11.2064H139.934C140.485 11.3431 140.76 11.4797 141.035 11.6164C141.31 11.753 141.448 12.0263 141.723 12.4363C141.998 12.8462 142.274 13.3928 142.549 14.3493L147.915 28.8338C147.364 29.927 146.814 30.8835 146.401 31.5667C145.989 32.2499 145.576 32.7965 145.301 33.2065C145.025 33.6164 144.613 33.753 144.337 33.8897C144.062 34.0263 143.649 34.163 143.374 34.163C142.961 34.163 142.686 34.0263 142.411 33.8897C142.136 33.753 141.998 33.3431 141.861 32.7965V32.6599H139.934V36.6226H140.072C141.035 36.7592 141.723 36.8959 142.549 36.8959C143.649 36.8959 144.613 36.6226 145.438 36.076C146.264 35.5294 146.952 34.8462 147.64 33.753C148.328 32.7965 149.016 31.4301 149.704 29.7903L156.721 14.076C157.133 13.2561 157.409 12.5729 157.684 12.163C157.959 11.753 158.234 11.3431 158.509 11.2064C158.785 11.0698 159.197 10.7965 159.61 10.7965H159.748V10.1133H152.043Z" fill="white"/>
<path d="M8.39453 15.0325H9.90804V14.8959C10.0456 14.2127 10.3208 13.5294 10.4584 13.1195C10.7336 12.7096 10.8712 12.2996 11.1464 12.0263C11.4216 11.753 11.5592 11.6164 11.8343 11.6164C12.1095 11.4797 12.3847 11.4797 12.7975 11.4797H14.4486V25.1443C14.4486 25.6909 14.4486 26.1009 14.311 26.3741C14.311 26.6474 14.1734 26.7841 14.1734 27.0574C14.0358 27.194 14.0358 27.3307 13.8982 27.4673C13.7606 27.604 13.623 27.604 13.4854 27.7406C13.2103 27.8773 13.0727 27.8773 12.7975 27.8773H12.6599V28.6971H19.1267V27.8773H18.9891C18.5763 27.7406 18.3012 27.7406 18.026 27.604C17.8884 27.4673 17.6132 27.3307 17.6132 27.194C17.4756 27.0574 17.4756 26.7841 17.338 26.5108C17.338 26.2375 17.2004 25.8276 17.2004 25.281V11.6164H18.8515C19.4019 11.6164 19.6771 11.6164 19.9523 11.753C20.2275 11.8897 20.365 12.0263 20.6402 12.163C20.9154 12.4363 21.053 12.7096 21.1906 13.1195C21.3282 13.5294 21.6034 14.2127 21.741 14.8959V15.0325H23.3921V10.1133H8.39453V15.0325Z" fill="white"/>
<path d="M37.5647 27.4668C37.4271 27.3302 37.2895 27.0569 37.2895 26.9202C37.2895 26.6469 37.1519 26.1003 37.1519 25.2805V20.2246C37.1519 19.5413 37.1519 18.8581 37.0144 18.3115C36.8768 17.7649 36.7392 17.355 36.6016 17.0817C36.464 16.6718 36.1888 16.3985 35.9136 16.1252C35.6384 15.8519 35.2257 15.7153 34.8129 15.5786C34.4001 15.442 33.9873 15.442 33.437 15.442C33.0242 15.442 32.4738 15.5786 32.061 15.7153C31.6483 15.8519 31.2355 16.1252 30.8227 16.3985C30.4099 16.6718 29.8596 17.0817 29.3092 17.7649V9.15625H28.3461L24.9062 9.2929V10.2494H25.0438C25.4566 10.3861 25.8694 10.3861 26.007 10.5227C26.1446 10.6594 26.2822 10.6594 26.4198 10.796C26.5574 10.9326 26.5574 11.0693 26.6949 11.3426C26.6949 11.6159 26.8325 11.8892 26.8325 12.1625C26.8325 12.5724 26.8325 13.119 26.8325 13.9389V25.2805C26.8325 25.8271 26.8325 26.3736 26.8325 26.6469C26.8325 26.9202 26.6949 27.1935 26.6949 27.3302C26.5574 27.4668 26.5574 27.6035 26.2822 27.6035C26.1446 27.7401 25.8694 27.7401 25.4566 27.8767H25.319V28.6966H30.9603V27.8767H30.8227C30.4099 27.7401 30.1347 27.7401 29.9972 27.6035C29.8596 27.4668 29.722 27.3302 29.5844 27.1935C29.4468 27.0569 29.4468 26.7836 29.4468 26.5103C29.4468 26.237 29.4468 25.8271 29.4468 25.2805V20.0879C29.4468 19.678 29.5844 19.4047 29.722 18.9948C29.8596 18.7215 30.1348 18.3115 30.5475 18.0382C30.9603 17.7649 31.2355 17.4917 31.5107 17.355C31.7859 17.2184 32.061 17.2184 32.4738 17.2184C33.0242 17.2184 33.5746 17.355 33.8497 17.6283C34.1249 17.9016 34.4001 18.4482 34.5377 18.9948C34.6753 19.678 34.6753 20.4979 34.6753 21.7277V25.2805C34.6753 25.8271 34.6753 26.3736 34.5377 26.6469C34.5377 26.9202 34.4001 27.1935 34.2625 27.3302C34.1249 27.4668 33.9873 27.6035 33.8497 27.6035C33.7121 27.7401 33.437 27.7401 33.1618 27.8767H33.0242V28.6966H38.6655V27.8767H38.5279C38.1151 27.7401 37.7023 27.6035 37.5647 27.4668Z" fill="white"/>
<path d="M51.0482 22.0003C51.0482 20.6339 50.9106 19.6774 50.6354 18.8575C50.3602 18.0376 50.085 17.491 49.6723 16.9444C49.2595 16.3979 48.7091 15.9879 48.0212 15.7146C47.3332 15.4413 46.5076 15.3047 45.6821 15.3047C44.4438 15.3047 43.4806 15.578 42.5175 16.1246C41.5543 16.6711 40.8664 17.491 40.4536 18.5842C39.9032 19.6774 39.7656 20.7705 39.7656 22.137C39.7656 24.3233 40.316 25.9631 41.2791 27.1929C42.2423 28.2861 43.7558 28.8326 45.5445 28.8326C46.2325 28.8326 46.9204 28.696 47.4708 28.5593C48.0212 28.4227 48.5715 28.1494 49.1219 27.7395C49.6723 27.3295 50.2226 26.9196 50.773 26.373L50.9106 26.2364L49.9474 25.1432L49.8099 25.2798C49.2595 25.8264 48.7091 26.373 48.0212 26.6463C47.4708 26.9196 46.7828 27.0562 46.0949 27.0562C45.2693 27.0562 44.5814 26.9196 44.031 26.5097C43.4806 26.0997 43.0678 25.5531 42.9302 24.8699C42.6551 24.1867 42.5175 23.2302 42.5175 22.2736V22.137H51.0482V22.0003ZM45.5445 16.6711C46.0949 16.6711 46.6452 16.8078 46.9204 17.0811C47.3332 17.3544 47.6084 17.901 47.746 18.4475C47.8836 18.9941 48.0212 19.814 48.1587 20.6339H42.5175C42.6551 19.4041 42.9302 18.3109 43.4806 17.6277C44.031 16.9444 44.7189 16.6711 45.5445 16.6711Z" fill="white"/>
<path d="M168 47.0078H0V48.101H168V47.0078Z" fill="white"/>
<path d="M44.444 58.2109L41.8298 65.8631H40.3163L38.39 60.2606L36.4637 65.8631H34.9502L32.3359 58.2109H33.8495L35.7757 64.0867L37.702 58.2109H39.078L41.0042 64.0867L42.9305 58.2109H44.444Z" fill="white"/>
<path d="M47.1953 58.2109H48.5712V65.8631H47.1953V58.2109Z" fill="white"/>
<path d="M52.4227 58.2109H53.7987V64.6333H57.7888V65.8631H52.2852V58.2109H52.4227Z" fill="white"/>
<path d="M60.6806 58.2109H62.0565V64.6333H66.0467V65.8631H60.543V58.2109H60.6806Z" fill="white"/>
<path d="M70.1733 65.4531C69.4853 65.1798 69.0725 64.6332 68.6597 64.0866C68.247 63.5401 68.1094 62.8568 68.1094 62.037C68.1094 61.2171 68.247 60.6705 68.6597 59.9873C69.0725 59.4407 69.4853 58.8941 70.1733 58.6208C70.8612 58.3475 71.5492 58.0742 72.2371 58.0742C73.0627 58.0742 73.7507 58.2109 74.301 58.6208C74.8514 59.0307 75.4018 59.4407 75.8145 59.9873C76.2273 60.5338 76.3649 61.2171 76.3649 62.037C76.3649 62.7202 76.2273 63.4034 75.8145 64.0866C75.4018 64.6332 74.989 65.1798 74.301 65.4531C73.6131 65.7264 72.9251 65.9997 72.2371 65.9997C71.5492 65.9997 70.8612 65.863 70.1733 65.4531ZM73.7507 64.3599C74.1634 64.0866 74.4386 63.8134 74.7138 63.4034C74.989 62.9935 75.1266 62.5835 75.1266 62.037C75.1266 61.4904 74.989 61.0804 74.7138 60.6705C74.4386 60.2606 74.1634 59.9873 73.7507 59.714C73.3379 59.4407 72.9251 59.304 72.3747 59.304C71.8244 59.304 71.4116 59.4407 70.9988 59.714C70.586 59.9873 70.3109 60.2606 70.0357 60.6705C69.7605 61.0804 69.6229 61.4904 69.6229 62.037C69.6229 62.5835 69.7605 62.9935 70.0357 63.4034C70.3109 63.8134 70.586 64.0866 70.9988 64.3599C71.4116 64.6332 71.8244 64.7699 72.3747 64.7699C72.7875 64.7699 73.3379 64.6332 73.7507 64.3599Z" fill="white"/>
<path d="M90.6745 58.2109L88.0603 65.8631H86.5468L84.6205 60.2606L82.6942 65.8631H81.1807L78.5664 58.2109H80.0799L82.0062 64.0867L83.9325 58.2109H85.3084L87.2347 64.0867L89.161 58.2109H90.6745Z" fill="white"/>
<path d="M104.846 62.5836C105.121 62.8569 105.259 63.2668 105.259 63.8134C105.259 64.4967 104.983 65.0432 104.433 65.3165C103.883 65.7265 103.195 65.8631 102.231 65.8631H98.3789V58.2109H101.956C102.919 58.2109 103.607 58.3476 104.02 58.7575C104.433 59.1675 104.708 59.5774 104.708 60.2606C104.708 60.6706 104.571 60.9439 104.433 61.2172C104.295 61.4904 104.02 61.7637 103.745 61.9004C104.158 62.037 104.571 62.3103 104.846 62.5836ZM99.7548 59.3041V61.4904H101.819C102.369 61.4904 102.644 61.3538 102.919 61.2172C103.195 61.0805 103.332 60.8072 103.332 60.3973C103.332 59.9873 103.195 59.8507 102.919 59.5774C102.644 59.4408 102.231 59.3041 101.819 59.3041H99.7548ZM103.745 63.6768C103.745 62.9935 103.195 62.5836 102.094 62.5836H99.7548V64.7699H102.094C103.195 64.7699 103.745 64.36 103.745 63.6768Z" fill="white"/>
<path d="M114.205 64.77V65.9998H108.426V58.3477H114.067V59.5775H109.939V61.4905H113.654V62.7203H109.939V64.77H114.205Z" fill="white"/>
<path d="M124.247 58.2109V65.8631H123.008L118.743 60.6706V65.8631H117.367V58.2109H118.606L122.871 63.4035V58.2109H124.247Z" fill="white"/>
<path d="M127.961 58.2109H131.263C132.089 58.2109 132.777 58.3476 133.465 58.6209C134.153 58.8942 134.565 59.4408 134.978 59.9873C135.391 60.5339 135.529 61.2172 135.529 62.037C135.529 62.8569 135.391 63.4035 134.978 64.0867C134.565 64.7699 134.153 65.1799 133.465 65.4532C132.777 65.7265 132.089 65.8631 131.263 65.8631H127.961V58.2109ZM131.263 64.7699C131.814 64.7699 132.364 64.6333 132.777 64.4967C133.189 64.36 133.602 63.9501 133.74 63.5401C133.877 63.1302 134.153 62.7203 134.153 62.1737C134.153 61.6271 134.015 61.2172 133.74 60.8072C133.465 60.3973 133.189 60.124 132.777 59.8507C132.364 59.5774 131.814 59.5774 131.263 59.5774H129.337V64.7699H131.263Z" fill="white"/>
</svg>
