<svg width="186" height="73" viewBox="0 0 186 73" fill="none" xmlns="http://www.w3.org/2000/svg">
<g clip-path="url(#clip0)">
<path d="M87.7445 33.0994C86.6781 37.7847 85.6118 38.9938 83.1744 38.9938H68.5504V5.44099C68.5504 4.38302 68.5503 3.62733 68.7027 3.17391C68.855 2.7205 68.855 2.41822 69.0074 2.11594C69.1597 1.9648 69.312 1.66253 69.6167 1.66253C69.9214 1.51139 70.3784 1.36025 70.9877 1.20911H71.14V0H61.8476V1.20911H62C62.457 1.51139 62.914 1.66253 63.2187 1.81366C63.5233 1.9648 63.6757 2.11594 63.828 2.41822C63.9803 2.56936 63.9803 2.87164 64.1327 3.32505C64.1327 3.77847 64.285 4.53416 64.285 5.44099V35.8199C64.285 36.8778 64.285 37.6335 64.1327 38.087C63.9803 38.5404 63.828 38.9938 63.5233 39.1449C63.2187 39.4472 62.6093 39.5983 61.8476 39.9006H61.6953V41.1097H89.8771V32.7971L87.7445 33.0994Z" fill="white"/>
<path d="M90.7918 21.3102C90.7918 20.5545 90.7918 19.9499 90.6395 19.4965C90.4872 18.2874 90.3348 17.3806 90.1825 16.4737C89.8778 15.2646 89.4208 14.2067 88.8115 13.451C88.2022 12.6953 87.2882 11.9396 86.3742 11.4862C85.3078 11.0327 84.0891 10.7305 82.5658 10.7305C80.7378 10.7305 79.0621 11.1839 77.5388 12.0907C76.1678 12.9976 74.9491 14.2067 74.1874 15.8692C73.4258 17.5317 72.9688 19.3454 72.9688 21.6125C72.9688 25.0886 73.7304 27.658 75.2538 29.4717C76.7771 31.2853 79.0621 32.1922 82.1088 32.1922C83.1751 32.1922 84.2415 32.041 85.1555 31.7388C86.0695 31.4365 86.9835 30.9831 87.7452 30.3785C88.5068 29.7739 89.4208 29.1694 90.3348 28.1114L90.4872 27.9603L88.9638 26.4489L88.8115 26.6C87.8975 27.5069 86.9835 28.2626 86.0695 28.716C85.1555 29.1694 84.0891 29.3205 82.8705 29.3205C81.4995 29.3205 80.4331 29.0183 79.5191 28.4137C78.6051 27.8091 77.9958 26.9023 77.6911 25.8443C77.3864 24.7864 77.0818 23.275 77.0818 21.6125V21.3102H90.7918ZM77.3864 19.3454C77.5388 17.2294 77.9958 15.5669 78.9098 14.5089C79.8238 13.2998 80.8901 12.8464 82.4135 12.8464C83.3275 12.8464 84.0891 13.1487 84.6985 13.6021C85.3078 14.0555 85.7648 14.8112 86.0695 15.718C86.3742 16.6249 86.5265 17.834 86.6788 19.3454H77.3864Z" fill="white"/>
<path d="M102.523 10.8828C101.304 10.8828 100.238 11.034 99.3238 11.3362C98.2575 11.6385 97.4958 12.0919 96.7341 12.6965C95.9725 13.301 95.3631 14.0567 95.0585 14.9636C94.6015 15.8704 94.4491 16.9284 94.4491 18.1375C94.4491 19.4977 94.7538 20.7068 95.2108 21.7648C95.6678 22.8228 96.4295 23.5785 97.4958 24.183C96.4295 24.9387 95.6678 25.6944 95.2108 26.4501C94.7538 27.2058 94.4491 27.9615 94.4491 28.7172C94.4491 29.4729 94.6015 30.0774 95.0585 30.682C95.3631 31.1354 95.8201 31.5888 96.4295 31.8911C95.3631 32.4957 94.6015 33.1002 93.9921 33.7048C93.3828 34.4605 93.0781 35.3673 93.0781 36.2741C93.0781 37.3321 93.3828 38.0878 93.8398 38.8435C94.2968 39.448 95.0585 40.0526 95.8201 40.506C96.7342 40.9594 97.8005 41.2617 98.8668 41.4128C100.086 41.564 101.457 41.7151 102.828 41.7151C104.808 41.7151 106.484 41.4128 108.007 40.8083C109.53 40.2037 110.597 39.448 111.358 38.3901C112.12 37.3321 112.577 36.123 112.577 34.7627C112.577 33.7048 112.425 32.7979 111.968 31.8911C111.511 31.1354 110.901 30.3797 109.835 29.9263C108.921 29.4729 107.55 29.1706 106.027 29.1706H100.847C99.9332 29.1706 99.1715 29.1706 98.7145 29.0195C98.2575 28.8683 97.9528 28.7172 97.8005 28.4149C97.6481 28.1126 97.4958 27.8104 97.4958 27.3569C97.4958 26.6012 97.9528 25.8455 99.0192 25.0899C99.9332 25.3921 100.847 25.5433 102.066 25.5433C104.808 25.5433 106.788 24.9387 108.312 23.5785C109.835 22.3694 110.444 20.4046 110.444 18.1375C110.444 17.2306 110.292 16.4749 109.987 15.5681C109.683 14.8124 109.378 14.2079 108.921 13.7544L109.073 13.6033H113.339V11.1851H105.57C104.656 11.034 103.589 10.8828 102.523 10.8828ZM108.921 35.3673C108.921 36.123 108.616 36.8787 108.159 37.4832C107.702 38.0878 106.941 38.5412 106.027 38.8435C105.113 39.1458 104.046 39.2969 102.675 39.2969C100.543 39.2969 99.0192 38.9946 98.1052 38.3901C97.0388 37.7855 96.5818 36.8787 96.5818 35.6696C96.5818 34.9139 96.7341 34.3093 97.0388 33.7048C97.3435 33.1002 97.9528 32.4957 98.5622 32.0422C99.4762 32.1934 100.39 32.1934 101.609 32.1934H105.113C105.874 32.1934 106.636 32.3445 107.093 32.4956C107.55 32.6468 108.007 32.9491 108.312 33.2513C108.616 33.5536 108.769 33.8559 108.921 34.1582C108.921 34.6116 108.921 35.065 108.921 35.3673ZM106.484 18.1375C106.484 18.8932 106.484 19.4977 106.331 20.1023C106.179 20.7068 105.874 21.3114 105.57 21.7648C105.265 22.2182 104.808 22.6716 104.351 22.8228C103.894 23.125 103.285 23.2762 102.523 23.2762C101.152 23.2762 100.086 22.8228 99.4762 21.9159C98.7145 21.0091 98.4098 19.6489 98.4098 17.8352C98.4098 16.1727 98.7145 14.9636 99.4762 14.0567C100.238 13.1499 101.152 12.6965 102.523 12.6965C103.285 12.6965 104.046 12.8476 104.656 13.301C105.113 13.6033 105.57 14.2079 105.874 15.1147C106.331 15.8704 106.484 16.9284 106.484 18.1375Z" fill="white"/>
<path d="M132.683 30.0762C132.378 29.9251 132.225 29.7739 132.073 29.6228C131.921 29.4717 131.769 29.1694 131.769 28.716C131.769 28.4137 131.616 27.9603 131.616 27.5069C131.616 27.0535 131.616 26.2978 131.616 25.2398V17.834C131.616 16.0203 131.464 14.5089 131.007 13.6021C130.55 12.6953 129.94 11.9396 129.026 11.4862C128.112 11.0327 127.046 10.7305 125.523 10.7305C124.609 10.7305 123.695 10.8816 122.628 11.0327C121.714 11.1839 120.8 11.4862 119.886 11.7884C118.972 12.0907 117.754 12.6953 116.383 13.2998V16.3226H119.429V16.1715C119.734 14.9624 120.343 14.2067 120.953 13.6021C121.562 12.9975 122.476 12.6953 123.542 12.6953C124.609 12.6953 125.37 12.8464 125.98 13.2998C126.589 13.7532 127.046 14.3578 127.351 15.1135C127.655 16.0203 127.808 17.0783 127.808 18.5897V19.7988C123.695 19.9499 120.648 20.7056 118.515 21.7636C116.383 22.9727 115.316 24.6352 115.316 26.7512C115.316 27.8091 115.621 28.716 116.078 29.4717C116.535 30.2274 117.144 30.8319 118.058 31.2853C118.972 31.7388 119.886 31.8899 120.953 31.8899C122.171 31.8899 123.39 31.5876 124.456 31.1342C125.523 30.6808 126.741 29.7739 127.96 28.4137H128.112L127.96 31.7388V31.8899H134.054V30.6808H133.901C133.292 30.3785 132.835 30.2274 132.683 30.0762ZM121.257 23.275C122.628 22.5193 124.761 22.217 127.655 22.0659V24.9375C127.655 25.6932 127.503 26.2978 127.046 27.0534C126.589 27.8091 125.98 28.4137 125.218 28.8671C124.456 29.3205 123.542 29.6228 122.628 29.6228C122.019 29.6228 121.41 29.4717 120.953 29.3205C120.496 29.1694 120.039 28.8671 119.734 28.4137C119.429 27.9603 119.277 27.3557 119.277 26.6C119.125 25.0886 119.886 24.0307 121.257 23.275Z" fill="white"/>
<path d="M150.812 26.7497C149.898 27.6565 148.984 28.4122 148.222 28.7145C147.46 29.0168 146.394 29.319 145.48 29.319C144.414 29.319 143.652 29.1679 143.043 28.7145C142.433 28.2611 141.824 27.8076 141.367 27.052C140.91 26.2963 140.605 25.5406 140.453 24.4826C140.3 23.4246 140.148 22.3667 140.148 21.1575C140.148 19.3439 140.301 17.6814 140.758 16.3211C141.215 15.112 141.824 14.054 142.586 13.4495C143.347 12.8449 144.261 12.5426 145.175 12.5426C145.785 12.5426 146.394 12.6938 146.851 12.8449C147.46 13.2983 147.765 13.6006 148.222 14.2052C148.527 14.6586 148.831 15.4143 149.136 16.3211V16.4722H152.03V11.7869H151.878C150.812 11.4847 149.898 11.3335 148.831 11.1824C147.765 11.0312 146.699 11.0312 145.48 11.0312C143.5 11.0312 141.824 11.4847 140.453 12.3915C138.929 13.2983 137.863 14.5074 136.949 16.17C136.187 17.8325 135.73 19.6462 135.73 21.7621C135.73 25.0872 136.492 27.8076 137.863 29.6213C139.386 31.435 141.367 32.3418 144.109 32.3418C144.871 32.3418 145.48 32.3418 146.242 32.1907C146.851 32.0395 147.46 31.8884 148.222 31.5861C148.831 31.2838 149.441 30.9816 150.05 30.5281C150.659 30.0747 151.269 29.4702 152.03 28.7145V28.5633L150.812 26.7497Z" fill="white"/>
<path d="M168.331 11.1836V12.3927H168.484C169.245 12.5438 169.855 12.8461 170.159 13.1484C170.464 13.4507 170.616 13.9041 170.616 14.5086C170.616 14.9621 170.616 15.4155 170.464 15.8689C170.312 16.3223 170.159 16.9269 169.855 17.3803L165.742 27.3554L162.085 16.9269C161.933 16.3223 161.781 15.8689 161.628 15.4155C161.476 14.9621 161.476 14.6598 161.476 14.2064C161.476 13.9041 161.476 13.6018 161.628 13.2995C161.781 13.1484 161.933 12.8461 162.238 12.695C162.542 12.5438 162.999 12.3927 163.609 12.2416H163.761V11.1836H154.773V12.3927H154.926C155.535 12.5438 155.84 12.695 156.144 12.8461C156.449 12.9973 156.601 13.2995 156.906 13.753C157.211 14.2064 157.515 14.8109 157.82 15.8689L163.761 31.8896C163.152 33.0987 162.542 34.1567 162.085 34.9124C161.628 35.6681 161.171 36.2726 160.867 36.726C160.562 37.1795 160.105 37.3306 159.8 37.4817C159.496 37.6329 159.039 37.784 158.734 37.784C158.277 37.784 157.972 37.6329 157.668 37.4817C157.363 37.3306 157.211 36.8772 157.058 36.2726V36.1215H154.926V40.5045H155.078C156.144 40.6556 156.906 40.8068 157.82 40.8068C159.039 40.8068 160.105 40.5045 161.019 39.9C161.933 39.2954 162.695 38.5397 163.456 37.3306C164.218 36.2726 164.98 34.7612 165.742 32.9476L173.511 15.5666C173.968 14.6598 174.272 13.9041 174.577 13.4507C174.882 12.9973 175.186 12.5438 175.491 12.3927C175.796 12.2416 176.253 11.9393 176.71 11.9393H176.862V11.1836H168.331Z" fill="white"/>
<path d="M9.29297 16.6246H10.9686V16.4734C11.121 15.7178 11.4256 14.9621 11.578 14.5086C11.8826 14.0552 12.035 13.6018 12.3397 13.2995C12.6443 12.9973 12.7967 12.8461 13.1013 12.8461C13.406 12.695 13.7107 12.695 14.1677 12.695H15.9957V27.8089C15.9957 28.4134 15.9957 28.8668 15.8433 29.1691C15.8433 29.4714 15.691 29.6225 15.691 29.9248C15.5387 30.0759 15.5387 30.2271 15.3863 30.3782C15.234 30.5294 15.0817 30.5293 14.9293 30.6805C14.6247 30.8316 14.4723 30.8316 14.1677 30.8316H14.0153V31.7385H21.175V30.8316H21.0227C20.5657 30.6805 20.261 30.6805 19.9564 30.5294C19.804 30.3782 19.4994 30.2271 19.4994 30.0759C19.347 29.9248 19.347 29.6225 19.1947 29.3202C19.1947 29.018 19.0424 28.5645 19.0424 27.96V12.8461H20.8704C21.4797 12.8461 21.7844 12.8461 22.089 12.9973C22.3937 13.1484 22.546 13.2995 22.8507 13.4507C23.1554 13.753 23.3077 14.0552 23.46 14.5086C23.6124 14.9621 23.917 15.7178 24.0694 16.4734V16.6246H25.8974V11.1836H9.29297V16.6246Z" fill="white"/>
<path d="M41.589 30.3776C41.4366 30.2265 41.2843 29.9242 41.2843 29.773C41.2843 29.4708 41.132 28.8662 41.132 27.9594V22.3672C41.132 21.6115 41.132 20.8558 40.9796 20.2513C40.8273 19.6467 40.675 19.1933 40.5226 18.891C40.3703 18.4376 40.0656 18.1354 39.7609 17.8331C39.4563 17.5308 38.9993 17.3797 38.5423 17.2285C38.0853 17.0774 37.6283 17.0774 37.0189 17.0774C36.5619 17.0774 35.9526 17.2285 35.4956 17.3797C35.0386 17.5308 34.5816 17.8331 34.1246 18.1354C33.6676 18.4376 33.0582 18.891 32.4489 19.6467V10.125H31.3826L27.5742 10.2761V11.3341H27.7266C28.1836 11.4852 28.6406 11.4852 28.7929 11.6364C28.9452 11.7875 29.0976 11.7875 29.2499 11.9387C29.4022 12.0898 29.4022 12.2409 29.5546 12.5432C29.5546 12.8455 29.7069 13.1478 29.7069 13.4501C29.7069 13.9035 29.7069 14.508 29.7069 15.4149V27.9594C29.7069 28.5639 29.7069 29.1685 29.7069 29.4708C29.7069 29.773 29.5546 30.0753 29.5546 30.2264C29.4022 30.3776 29.4022 30.5287 29.0976 30.5287C28.9452 30.6799 28.6406 30.6799 28.1836 30.831H28.0312V31.7378H34.2769V30.831H34.1246C33.6676 30.6799 33.3629 30.6799 33.2106 30.5287C33.0582 30.3776 32.9059 30.2264 32.7536 30.0753C32.6012 29.9242 32.6012 29.6219 32.6012 29.3196C32.6012 29.0173 32.6012 28.5639 32.6012 27.9594V22.2161C32.6012 21.7627 32.7536 21.4604 32.9059 21.007C33.0582 20.7047 33.3629 20.2513 33.8199 19.949C34.2769 19.6467 34.5816 19.3445 34.8863 19.1933C35.1909 19.0422 35.4956 19.0422 35.9526 19.0422C36.5619 19.0422 37.1713 19.1933 37.4759 19.4956C37.7806 19.7979 38.0853 20.4024 38.2376 21.007C38.3899 21.7627 38.3899 22.6695 38.3899 24.0298V27.9594C38.3899 28.5639 38.3899 29.1685 38.2376 29.4708C38.2376 29.773 38.0853 30.0753 37.9329 30.2264C37.7806 30.3776 37.6283 30.5287 37.4759 30.5287C37.3236 30.6799 37.0189 30.6799 36.7143 30.831H36.5619V31.7378H42.8076V30.831H42.6553C42.1983 30.6799 41.7413 30.5287 41.589 30.3776Z" fill="white"/>
<path d="M56.5148 24.3316C56.5148 22.8202 56.3625 21.7622 56.0578 20.8554C55.7532 19.9486 55.4485 19.344 54.9915 18.7394C54.5345 18.1349 53.9252 17.6815 53.1635 17.3792C52.4018 17.0769 51.4878 16.9258 50.5738 16.9258C49.2028 16.9258 48.1365 17.2281 47.0701 17.8326C46.0038 18.4372 45.2421 19.344 44.7851 20.5531C44.1758 21.7622 44.0234 22.9713 44.0234 24.4827C44.0234 26.9009 44.6328 28.7146 45.6991 30.0749C46.7655 31.284 48.4411 31.8885 50.4215 31.8885C51.1831 31.8885 51.9448 31.7374 52.5542 31.5862C53.1635 31.4351 53.7728 31.1328 54.3822 30.6794C54.9915 30.226 55.6008 29.7726 56.2102 29.168L56.3625 29.0169L55.2962 27.8078L55.1438 27.9589C54.5345 28.5635 53.9252 29.168 53.1635 29.4703C52.5542 29.7726 51.7925 29.9237 51.0308 29.9237C50.1168 29.9237 49.3551 29.7726 48.7458 29.3192C48.1365 28.8657 47.6795 28.2612 47.5271 27.5055C47.2225 26.7498 47.0701 25.6918 47.0701 24.6339V24.4827H56.5148V24.3316ZM50.4215 18.4372C51.0308 18.4372 51.6401 18.5883 51.9448 18.8906C52.4018 19.1929 52.7065 19.7974 52.8588 20.402C53.0112 21.0065 53.1635 21.9134 53.3158 22.8202H47.0701C47.2225 21.4599 47.5271 20.2508 48.1365 19.4951C48.7458 18.7394 49.5075 18.4372 50.4215 18.4372Z" fill="white"/>
<path d="M186 51.9922H0V53.2013H186V51.9922Z" fill="white"/>
<path d="M49.2023 64.3867L46.3079 72.8505H44.6323L42.4996 66.6538L40.3669 72.8505H38.6912L35.7969 64.3867H37.4726L39.6052 70.8857L41.7379 64.3867H43.2612L45.3939 70.8857L47.5266 64.3867H49.2023Z" fill="white"/>
<path d="M52.25 64.3867H53.7733V72.8505H52.25V64.3867Z" fill="white"/>
<path d="M58.0391 64.3867H59.5624V71.4902H63.9801V72.8505H57.8867V64.3867H58.0391Z" fill="white"/>
<path d="M67.1758 64.3867H68.6991V71.4902H73.1168V72.8505H67.0234V64.3867H67.1758Z" fill="white"/>
<path d="M77.6874 72.3959C76.9257 72.0936 76.4687 71.489 76.0117 70.8845C75.5547 70.2799 75.4023 69.5242 75.4023 68.6174C75.4023 67.7106 75.5547 67.106 76.0117 66.3503C76.4687 65.7458 76.9257 65.1412 77.6874 64.8389C78.449 64.5367 79.2107 64.2344 79.9724 64.2344C80.8864 64.2344 81.648 64.3855 82.2574 64.8389C82.8667 65.2923 83.4761 65.7458 83.9331 66.3503C84.3901 66.9549 84.5424 67.7106 84.5424 68.6174C84.5424 69.3731 84.3901 70.1288 83.9331 70.8845C83.4761 71.489 83.0191 72.0936 82.2574 72.3959C81.4957 72.6981 80.734 73.0004 79.9724 73.0004C79.2107 73.0004 78.449 72.8493 77.6874 72.3959ZM81.648 71.1868C82.105 70.8845 82.4097 70.5822 82.7144 70.1288C83.0191 69.6754 83.1714 69.222 83.1714 68.6174C83.1714 68.0128 83.0191 67.5594 82.7144 67.106C82.4097 66.6526 82.105 66.3503 81.648 66.048C81.191 65.7458 80.734 65.5946 80.1247 65.5946C79.5154 65.5946 79.0584 65.7458 78.6014 66.048C78.1444 66.3503 77.8397 66.6526 77.535 67.106C77.2304 67.5594 77.078 68.0128 77.078 68.6174C77.078 69.222 77.2304 69.6754 77.535 70.1288C77.8397 70.5822 78.1444 70.8845 78.6014 71.1868C79.0584 71.489 79.5154 71.6402 80.1247 71.6402C80.5817 71.6402 81.191 71.489 81.648 71.1868Z" fill="white"/>
<path d="M100.386 64.3867L97.4915 72.8505H95.8158L93.6832 66.6538L91.5505 72.8505H89.8748L86.9805 64.3867H88.6561L90.7888 70.8857L92.9215 64.3867H94.4448L96.5775 70.8857L98.7102 64.3867H100.386Z" fill="white"/>
<path d="M116.078 69.2232C116.382 69.5254 116.535 69.9789 116.535 70.5834C116.535 71.3391 116.23 71.9437 115.621 72.2459C115.011 72.6994 114.25 72.8505 113.183 72.8505H108.918V64.3867H112.879C113.945 64.3867 114.707 64.5379 115.164 64.9913C115.621 65.4447 115.925 65.8981 115.925 66.6538C115.925 67.1072 115.773 67.4095 115.621 67.7118C115.468 68.0141 115.164 68.3163 114.859 68.4675C115.316 68.6186 115.773 68.9209 116.078 69.2232ZM110.441 65.5958V68.0141H112.726C113.336 68.0141 113.64 67.8629 113.945 67.7118C114.25 67.5606 114.402 67.2584 114.402 66.8049C114.402 66.3515 114.25 66.2004 113.945 65.8981C113.64 65.747 113.183 65.5958 112.726 65.5958H110.441ZM114.859 70.4323C114.859 69.6766 114.25 69.2232 113.031 69.2232H110.441V71.6414H113.031C114.25 71.6414 114.859 71.188 114.859 70.4323Z" fill="white"/>
<path d="M126.437 71.6387V72.9989H120.039V64.5352H126.285V65.8954H121.715V68.0113H125.828V69.3716H121.715V71.6387H126.437Z" fill="white"/>
<path d="M137.554 64.3867V72.8505H136.183L131.461 67.1072V72.8505H129.938V64.3867H131.308L136.031 70.13V64.3867H137.554Z" fill="white"/>
<path d="M141.668 64.3867H145.324C146.238 64.3867 147 64.5379 147.761 64.8401C148.523 65.1424 148.98 65.747 149.437 66.3515C149.894 66.9561 150.046 67.7118 150.046 68.6186C150.046 69.5254 149.894 70.13 149.437 70.8857C148.98 71.6414 148.523 72.0948 147.761 72.3971C147 72.6994 146.238 72.8505 145.324 72.8505H141.668V64.3867ZM145.324 71.6414C145.933 71.6414 146.543 71.4902 147 71.3391C147.457 71.188 147.914 70.7346 148.066 70.2811C148.218 69.8277 148.523 69.3743 148.523 68.7697C148.523 68.1652 148.371 67.7118 148.066 67.2584C147.761 66.8049 147.457 66.5027 147 66.2004C146.543 65.8981 145.933 65.8981 145.324 65.8981H143.191V71.6414H145.324Z" fill="white"/>
</g>
<defs>
<clipPath id="clip0">
<rect width="186" height="73" fill="white"/>
</clipPath>
</defs>
</svg>
