<svg width="192" height="72" viewBox="0 0 192 72" fill="none" xmlns="http://www.w3.org/2000/svg">
<path d="M17.087 65.11C16.493 65.11 15.9173 65.0257 15.36 64.857C14.81 64.6883 14.3737 64.4647 14.051 64.186L14.546 63.075C14.8613 63.3243 15.2463 63.5297 15.701 63.691C16.163 63.845 16.625 63.922 17.087 63.922C17.659 63.922 18.0843 63.8303 18.363 63.647C18.649 63.4637 18.792 63.2217 18.792 62.921C18.792 62.701 18.7113 62.5213 18.55 62.382C18.396 62.2353 18.198 62.1217 17.956 62.041C17.714 61.9603 17.384 61.8687 16.966 61.766C16.3793 61.6267 15.9027 61.4873 15.536 61.348C15.1767 61.2087 14.865 60.9923 14.601 60.699C14.3443 60.3983 14.216 59.995 14.216 59.489C14.216 59.0637 14.3297 58.6787 14.557 58.334C14.7917 57.982 15.14 57.7033 15.602 57.498C16.0713 57.2927 16.6433 57.19 17.318 57.19C17.7873 57.19 18.2493 57.2487 18.704 57.366C19.1587 57.4833 19.551 57.652 19.881 57.872L19.43 58.983C19.0927 58.785 18.7407 58.6347 18.374 58.532C18.0073 58.4293 17.6517 58.378 17.307 58.378C16.7423 58.378 16.3207 58.4733 16.042 58.664C15.7707 58.8547 15.635 59.1077 15.635 59.423C15.635 59.643 15.712 59.8227 15.866 59.962C16.0273 60.1013 16.229 60.2113 16.471 60.292C16.713 60.3727 17.043 60.4643 17.461 60.567C18.033 60.699 18.5023 60.8383 18.869 60.985C19.2357 61.1243 19.5473 61.3407 19.804 61.634C20.068 61.9273 20.2 62.3233 20.2 62.822C20.2 63.2473 20.0827 63.6323 19.848 63.977C19.6207 64.3217 19.2723 64.5967 18.803 64.802C18.3337 65.0073 17.7617 65.11 17.087 65.11ZM29.393 63.801V65H23.618V57.3H29.239V58.499H25.048V60.501H28.766V61.678H25.048V63.801H29.393ZM39.8291 57.3V65H38.6521L34.4061 59.786V65H32.9871V57.3H34.1641L38.4101 62.514V57.3H39.8291ZM43.8924 57.3H45.3224V65H43.8924V57.3ZM53.0021 65.11C52.2174 65.11 51.5098 64.9413 50.8791 64.604C50.2484 64.2593 49.7534 63.7863 49.3941 63.185C49.0348 62.5763 48.8551 61.898 48.8551 61.15C48.8551 60.402 49.0348 59.7273 49.3941 59.126C49.7534 58.5173 50.2484 58.0443 50.8791 57.707C51.5098 57.3623 52.2174 57.19 53.0021 57.19C53.7868 57.19 54.4944 57.3623 55.1251 57.707C55.7558 58.0443 56.2508 58.5137 56.6101 59.115C56.9694 59.7163 57.1491 60.3947 57.1491 61.15C57.1491 61.9053 56.9694 62.5837 56.6101 63.185C56.2508 63.7863 55.7558 64.2593 55.1251 64.604C54.4944 64.9413 53.7868 65.11 53.0021 65.11ZM53.0021 63.856C53.5154 63.856 53.9774 63.7423 54.3881 63.515C54.7988 63.2803 55.1214 62.9577 55.3561 62.547C55.5908 62.129 55.7081 61.6633 55.7081 61.15C55.7081 60.6367 55.5908 60.1747 55.3561 59.764C55.1214 59.346 54.7988 59.0233 54.3881 58.796C53.9774 58.5613 53.5154 58.444 53.0021 58.444C52.4888 58.444 52.0268 58.5613 51.6161 58.796C51.2054 59.0233 50.8828 59.346 50.6481 59.764C50.4134 60.1747 50.2961 60.6367 50.2961 61.15C50.2961 61.6633 50.4134 62.129 50.6481 62.547C50.8828 62.9577 51.2054 63.2803 51.6161 63.515C52.0268 63.7423 52.4888 63.856 53.0021 63.856ZM65.7029 65L64.1299 62.745C64.0639 62.7523 63.9649 62.756 63.8329 62.756H62.0949V65H60.6649V57.3H63.8329C64.5002 57.3 65.0795 57.41 65.5709 57.63C66.0695 57.85 66.4509 58.1653 66.7149 58.576C66.9789 58.9867 67.1109 59.4743 67.1109 60.039C67.1109 60.6183 66.9679 61.117 66.6819 61.535C66.4032 61.953 65.9999 62.2647 65.4719 62.47L67.2429 65H65.7029ZM65.6699 60.039C65.6699 59.5477 65.5085 59.17 65.1859 58.906C64.8632 58.642 64.3902 58.51 63.7669 58.51H62.0949V61.579H63.7669C64.3902 61.579 64.8632 61.447 65.1859 61.183C65.5085 60.9117 65.6699 60.5303 65.6699 60.039ZM79.3148 65.11C78.5375 65.11 77.8335 64.9413 77.2028 64.604C76.5795 64.2593 76.0881 63.7863 75.7288 63.185C75.3768 62.5837 75.2008 61.9053 75.2008 61.15C75.2008 60.3947 75.3805 59.7163 75.7398 59.115C76.0991 58.5137 76.5905 58.0443 77.2138 57.707C77.8445 57.3623 78.5485 57.19 79.3258 57.19C79.9565 57.19 80.5321 57.3 81.0528 57.52C81.5735 57.74 82.0135 58.059 82.3728 58.477L81.4488 59.346C80.8915 58.7447 80.2058 58.444 79.3918 58.444C78.8638 58.444 78.3908 58.5613 77.9728 58.796C77.5548 59.0233 77.2285 59.3423 76.9938 59.753C76.7591 60.1637 76.6418 60.6293 76.6418 61.15C76.6418 61.6707 76.7591 62.1363 76.9938 62.547C77.2285 62.9577 77.5548 63.2803 77.9728 63.515C78.3908 63.7423 78.8638 63.856 79.3918 63.856C80.2058 63.856 80.8915 63.5517 81.4488 62.943L82.3728 63.823C82.0135 64.241 81.5698 64.56 81.0418 64.78C80.5211 65 79.9455 65.11 79.3148 65.11ZM89.1789 65.11C88.3942 65.11 87.6865 64.9413 87.0559 64.604C86.4252 64.2593 85.9302 63.7863 85.5709 63.185C85.2115 62.5763 85.0319 61.898 85.0319 61.15C85.0319 60.402 85.2115 59.7273 85.5709 59.126C85.9302 58.5173 86.4252 58.0443 87.0559 57.707C87.6865 57.3623 88.3942 57.19 89.1789 57.19C89.9635 57.19 90.6712 57.3623 91.3019 57.707C91.9325 58.0443 92.4275 58.5137 92.7869 59.115C93.1462 59.7163 93.3259 60.3947 93.3259 61.15C93.3259 61.9053 93.1462 62.5837 92.7869 63.185C92.4275 63.7863 91.9325 64.2593 91.3019 64.604C90.6712 64.9413 89.9635 65.11 89.1789 65.11ZM89.1789 63.856C89.6922 63.856 90.1542 63.7423 90.5649 63.515C90.9755 63.2803 91.2982 62.9577 91.5329 62.547C91.7675 62.129 91.8849 61.6633 91.8849 61.15C91.8849 60.6367 91.7675 60.1747 91.5329 59.764C91.2982 59.346 90.9755 59.0233 90.5649 58.796C90.1542 58.5613 89.6922 58.444 89.1789 58.444C88.6655 58.444 88.2035 58.5613 87.7929 58.796C87.3822 59.0233 87.0595 59.346 86.8249 59.764C86.5902 60.1747 86.4729 60.6367 86.4729 61.15C86.4729 61.6633 86.5902 62.129 86.8249 62.547C87.0595 62.9577 87.3822 63.2803 87.7929 63.515C88.2035 63.7423 88.6655 63.856 89.1789 63.856ZM103.915 65L103.904 59.896L101.374 64.12H100.736L98.2056 59.962V65H96.8416V57.3H98.0186L101.077 62.404L104.08 57.3H105.257L105.268 65H103.915ZM116.42 65L116.409 59.896L113.879 64.12H113.241L110.711 59.962V65H109.347V57.3H110.524L113.582 62.404L116.585 57.3H117.762L117.773 65H116.42ZM125.164 65.11C124.101 65.11 123.272 64.813 122.678 64.219C122.084 63.6177 121.787 62.7597 121.787 61.645V57.3H123.217V61.59C123.217 63.1007 123.87 63.856 125.175 63.856C126.473 63.856 127.122 63.1007 127.122 61.59V57.3H128.53V61.645C128.53 62.7597 128.233 63.6177 127.639 64.219C127.053 64.813 126.228 65.11 125.164 65.11ZM139.375 57.3V65H138.198L133.952 59.786V65H132.533V57.3H133.71L137.956 62.514V57.3H139.375ZM143.438 57.3H144.868V65H143.438V57.3ZM150.513 58.51H147.961V57.3H154.495V58.51H151.943V65H150.513V58.51ZM157.568 57.3H158.998V65H157.568V57.3ZM168.856 63.801V65H163.081V57.3H168.702V58.499H164.511V60.501H168.229V61.678H164.511V63.801H168.856ZM174.837 65.11C174.243 65.11 173.667 65.0257 173.11 64.857C172.56 64.6883 172.124 64.4647 171.801 64.186L172.296 63.075C172.611 63.3243 172.996 63.5297 173.451 63.691C173.913 63.845 174.375 63.922 174.837 63.922C175.409 63.922 175.834 63.8303 176.113 63.647C176.399 63.4637 176.542 63.2217 176.542 62.921C176.542 62.701 176.461 62.5213 176.3 62.382C176.146 62.2353 175.948 62.1217 175.706 62.041C175.464 61.9603 175.134 61.8687 174.716 61.766C174.129 61.6267 173.653 61.4873 173.286 61.348C172.927 61.2087 172.615 60.9923 172.351 60.699C172.094 60.3983 171.966 59.995 171.966 59.489C171.966 59.0637 172.08 58.6787 172.307 58.334C172.542 57.982 172.89 57.7033 173.352 57.498C173.821 57.2927 174.393 57.19 175.068 57.19C175.537 57.19 175.999 57.2487 176.454 57.366C176.909 57.4833 177.301 57.652 177.631 57.872L177.18 58.983C176.843 58.785 176.491 58.6347 176.124 58.532C175.757 58.4293 175.402 58.378 175.057 58.378C174.492 58.378 174.071 58.4733 173.792 58.664C173.521 58.8547 173.385 59.1077 173.385 59.423C173.385 59.643 173.462 59.8227 173.616 59.962C173.777 60.1013 173.979 60.2113 174.221 60.292C174.463 60.3727 174.793 60.4643 175.211 60.567C175.783 60.699 176.252 60.8383 176.619 60.985C176.986 61.1243 177.297 61.3407 177.554 61.634C177.818 61.9273 177.95 62.3233 177.95 62.822C177.95 63.2473 177.833 63.6323 177.598 63.977C177.371 64.3217 177.022 64.5967 176.553 64.802C176.084 65.0073 175.512 65.11 174.837 65.11Z" fill="white"/>
<path d="M90.2163 30.9103C89.2747 35.2356 88.3331 36.5016 85.9268 36.5016H72.5351V5.1693C72.5351 4.21984 72.5351 3.58686 72.6398 3.05938C72.7444 2.6374 72.849 2.32091 72.9536 2.10992C73.0583 1.89893 73.2675 1.79343 73.4767 1.58244C73.686 1.47694 74.1045 1.37145 74.7322 1.16046H74.8368V0H66.2578V1.16046H66.3624C66.9902 1.37145 67.4087 1.47694 67.6179 1.58244C67.8271 1.68793 68.0364 1.89893 68.141 2.10992C68.2456 2.32091 68.3503 2.6374 68.4549 3.05938C68.5595 3.48137 68.5595 4.11434 68.5595 5.06381V33.3367C68.5595 34.2862 68.5595 35.0246 68.4549 35.5521C68.3503 35.9741 68.2456 36.3961 67.9318 36.6071C67.6179 36.8181 67.0948 37.1346 66.3624 37.2401H66.2578V38.4005H92.2041V30.6993L90.2163 30.9103Z" fill="white"/>
<path d="M92.7234 20.0815V19.9772C92.7234 19.3512 92.7234 18.8295 92.6203 18.4122C92.5172 17.3688 92.4141 16.4298 92.2078 15.5951C91.8985 14.4475 91.486 13.5084 90.8673 12.7781C90.3517 12.0478 89.5267 11.4218 88.5986 11.0044C87.6705 10.5871 86.5362 10.3784 85.1957 10.3784C83.5458 10.3784 81.999 10.7958 80.6584 11.6304C79.3178 12.4651 78.3898 13.6128 77.6679 15.1778C76.9461 16.6385 76.6367 18.4122 76.6367 20.3945C76.6367 23.5245 77.3586 26.0286 78.6991 27.5936C80.0397 29.2629 82.1021 30.0976 84.7832 30.0976C85.8144 30.0976 86.7425 29.9933 87.5674 29.6803C88.3924 29.3673 89.2173 28.9499 89.8361 28.5326C90.5579 28.0109 91.2797 27.3849 92.1047 26.4459L92.2078 26.3416L90.8673 24.8809L90.7641 24.9852C89.9392 25.9242 89.1142 26.5502 88.2893 26.9676C87.4643 27.3849 86.5362 27.5936 85.505 27.5936C84.2676 27.5936 83.2364 27.2806 82.5145 26.7589C81.7927 26.1329 81.174 25.4026 80.8646 24.3592C80.5553 23.3159 80.349 22.0639 80.349 20.4988V20.2902H92.7234V20.0815ZM80.5553 18.2035C80.6584 16.3255 81.174 14.7605 81.8958 13.7171C82.6177 12.6738 83.752 12.1521 84.9894 12.1521C85.8144 12.1521 86.5362 12.3608 87.0518 12.8824C87.5674 13.2998 87.9799 14.0301 88.2893 14.8648C88.5986 15.6995 88.7017 16.8471 88.8049 18.2035H80.5553Z" fill="white"/>
<path d="M103.735 10.3784C102.708 10.3784 101.682 10.4822 100.861 10.7936C99.9379 11.1049 99.2196 11.5201 98.5013 12.039C97.8856 12.5579 97.27 13.2844 96.9621 14.1147C96.5517 14.945 96.4491 15.9828 96.4491 17.1245C96.4491 18.3699 96.6543 19.4077 97.1673 20.3418C97.6804 21.2759 98.2961 22.0024 99.2196 22.5213C98.1935 23.2478 97.5778 23.9743 97.1673 24.597C96.7569 25.2197 96.5517 25.9462 96.5517 26.6727C96.5517 27.3992 96.7569 27.9181 97.0647 28.437C97.3726 28.8522 97.783 29.2673 98.2961 29.4749C97.3726 29.9938 96.6543 30.5127 96.1412 31.1355C95.6282 31.8619 95.3203 32.5884 95.3203 33.4187C95.3203 34.3528 95.5255 35.1831 95.936 35.8058C96.3464 36.4285 96.9621 36.9474 97.783 37.3626C98.6039 37.7777 99.5274 37.9853 100.554 38.1928C101.58 38.4004 102.811 38.4004 104.145 38.4004C105.889 38.4004 107.429 38.0891 108.763 37.5701C110.097 37.0512 111.123 36.2209 111.841 35.2869C112.559 34.3528 112.867 33.2112 112.867 31.9657C112.867 31.0317 112.662 30.0976 112.354 29.3711C111.944 28.6446 111.328 28.0219 110.404 27.6068C109.481 27.1916 108.352 26.984 107.018 26.984H102.401C101.58 26.984 100.861 26.984 100.451 26.8803C100.04 26.7765 99.7327 26.5689 99.63 26.3613C99.4248 26.1538 99.3222 25.7386 99.3222 25.3235C99.3222 24.597 99.8353 23.9743 100.656 23.2478C101.477 23.5591 102.401 23.6629 103.427 23.6629C105.787 23.6629 107.736 23.0402 109.07 21.8986C110.404 20.7569 111.02 18.9926 111.02 16.9169C111.02 16.0866 110.917 15.3601 110.712 14.6336C110.507 14.0109 110.199 13.3882 109.789 12.973L109.891 12.8693L113.483 12.973V10.7936H106.505C105.582 10.4822 104.658 10.3784 103.735 10.3784ZM109.481 32.8998C109.481 33.6263 109.276 34.3528 108.865 34.8717C108.455 35.3906 107.839 35.9096 107.018 36.2209C106.197 36.5323 105.171 36.6361 104.042 36.6361C102.195 36.6361 100.759 36.3247 99.8353 35.8058C98.9117 35.2869 98.5013 34.4566 98.5013 33.3149C98.5013 32.5884 98.7065 32.0695 99.0144 31.4468C99.3222 30.9279 99.8353 30.409 100.451 29.89C101.272 29.9938 102.195 29.9938 103.221 29.9938H106.095C106.813 29.9938 107.429 30.0976 107.839 30.2014C108.249 30.409 108.66 30.6165 108.865 30.8241C109.07 31.0317 109.276 31.343 109.378 31.7582C109.378 32.1733 109.481 32.4847 109.481 32.8998ZM107.223 17.1245C107.223 17.7472 107.121 18.3699 107.018 18.8888C106.916 19.4077 106.71 19.9267 106.402 20.3418C106.095 20.7569 105.787 21.0683 105.274 21.3796C104.863 21.5872 104.248 21.7948 103.632 21.7948C102.401 21.7948 101.477 21.3796 100.861 20.5494C100.246 19.7191 99.9379 18.4737 99.9379 16.8131C99.9379 15.2563 100.246 14.1147 100.861 13.2844C101.477 12.4541 102.401 12.1428 103.632 12.1428C104.35 12.1428 104.966 12.3503 105.479 12.6617C105.992 12.973 106.402 13.5958 106.71 14.3223C107.121 15.0488 107.223 15.9828 107.223 17.1245Z" fill="white"/>
<path d="M131.399 28.1152C131.186 28.0109 130.972 27.8022 130.865 27.5936C130.758 27.3849 130.651 27.1762 130.544 26.8632C130.437 26.5502 130.437 26.1329 130.437 25.8199C130.437 25.4026 130.437 24.7766 130.437 23.7332V16.8471C130.437 15.0735 130.223 13.8214 129.795 12.9868C129.368 12.1521 128.726 11.4218 127.978 11.0044C127.122 10.5871 126.053 10.3784 124.663 10.3784C123.807 10.3784 122.845 10.4828 121.99 10.6914C121.134 10.9001 120.279 11.1088 119.423 11.4218C118.568 11.7348 117.498 12.2564 116.215 12.8824H116.108V15.5951H118.995V15.4908C119.316 14.4475 119.744 13.6128 120.386 13.0911C121.027 12.5694 121.776 12.3608 122.845 12.3608C123.807 12.3608 124.556 12.5694 125.09 12.8824C125.625 13.1954 126.053 13.8214 126.267 14.5518C126.481 15.2821 126.694 16.4298 126.694 17.7862V18.9338C122.845 19.1425 119.958 19.7685 118.033 20.8118C116.108 21.8552 115.039 23.4202 115.039 25.2982C115.039 26.2372 115.253 27.0719 115.681 27.8022C116.108 28.5326 116.75 29.0543 117.498 29.4716C118.247 29.8889 119.209 30.0976 120.279 30.0976C121.455 30.0976 122.524 29.8889 123.593 29.3673C124.663 28.8456 125.732 28.0109 126.908 26.8632H127.015L126.908 29.5759V29.6803H132.683V28.5326H132.576C132.148 28.4283 131.72 28.2196 131.399 28.1152ZM120.813 21.8552C122.096 21.2292 124.128 20.8118 126.801 20.8118V23.5245C126.801 24.1505 126.588 24.7766 126.16 25.5069C125.732 26.1329 125.197 26.6546 124.449 27.0719C123.7 27.4892 122.952 27.6979 121.99 27.6979C121.348 27.6979 120.813 27.5936 120.386 27.4892C119.958 27.2806 119.53 27.0719 119.316 26.6546C118.995 26.2372 118.889 25.7156 118.889 24.9852C118.889 23.5245 119.53 22.4812 120.813 21.8552Z" fill="white"/>
<path d="M148.024 25.1554C147.182 26.0121 146.34 26.6546 145.604 27.0829C144.867 27.4041 144.025 27.6183 143.078 27.6183C142.131 27.6183 141.394 27.4041 140.763 27.0829C140.132 26.7616 139.605 26.2262 139.29 25.5838C138.869 24.9413 138.658 24.0846 138.448 23.228C138.343 22.2643 138.237 21.1935 138.237 20.1227C138.237 18.3023 138.448 16.8032 138.869 15.6253C139.29 14.4475 139.816 13.4837 140.552 12.9483C141.289 12.4129 142.026 12.0917 142.973 12.0917C143.604 12.0917 144.131 12.1988 144.551 12.4129C144.972 12.6271 145.288 12.9483 145.604 13.4837C145.92 14.0191 146.235 14.6616 146.446 15.5183V15.6253H149.182V11.2351H149.077C148.13 10.9138 147.182 10.6997 146.341 10.5926C145.393 10.4855 144.446 10.3784 143.289 10.3784C141.5 10.3784 139.921 10.8067 138.553 11.6634C137.185 12.52 136.133 13.6979 135.396 15.3041C134.659 16.9103 134.238 18.6236 134.238 20.6581C134.238 23.8705 134.87 26.3333 136.238 28.0466C137.606 29.7599 139.5 30.6165 142.026 30.6165C142.657 30.6165 143.394 30.5094 143.92 30.4024C144.551 30.2953 145.078 30.0811 145.709 29.7599C146.341 29.4386 146.867 29.1174 147.393 28.6891C147.919 28.2608 148.55 27.7254 149.182 26.9758L149.287 26.8687L148.024 25.1554Z" fill="white"/>
<path d="M163.921 10.7936V11.9352H164.025C164.752 12.1428 165.271 12.3503 165.582 12.5579C165.893 12.8693 165.997 13.1806 165.997 13.6995C165.997 14.1147 165.893 14.426 165.789 14.8412C165.686 15.2563 165.478 15.7752 165.271 16.2942L161.43 25.4273L158.006 15.879C157.798 15.3601 157.694 14.945 157.59 14.5298C157.487 14.1147 157.487 13.8033 157.487 13.492C157.487 13.1806 157.59 12.8693 157.694 12.6617C157.798 12.4541 158.006 12.3503 158.213 12.1428C158.421 12.039 158.836 11.8314 159.459 11.7276H159.562V10.586H151.363V11.7276H151.467C151.986 11.8314 152.297 12.039 152.609 12.1428C152.816 12.3503 153.024 12.5579 153.231 12.973C153.439 13.3882 153.75 14.0109 154.062 14.945L159.562 29.6825C159.043 30.8241 158.524 31.7582 158.109 32.4847C157.694 33.2112 157.279 33.8339 156.968 34.1452C156.656 34.4566 156.345 34.7679 156.034 34.8717C155.722 34.9755 155.411 35.0793 154.996 35.0793C154.581 35.0793 154.269 34.9755 154.062 34.7679C153.854 34.5604 153.647 34.249 153.543 33.7301V33.6263H151.571V37.6739H151.675C152.609 37.8815 153.439 37.8815 154.165 37.8815C155.307 37.8815 156.345 37.5701 157.175 37.0512C158.006 36.5323 158.732 35.8058 159.459 34.7679C160.185 33.7301 160.808 32.4847 161.534 30.8241L168.592 14.945C169.007 14.1147 169.318 13.492 169.526 12.973C169.837 12.5579 170.045 12.1428 170.356 11.9352C170.564 11.7276 170.979 11.6238 171.498 11.5201H171.601V10.3784H163.921V10.7936Z" fill="white"/>
<path d="M18 15.4702H19.5676V15.3641C19.7766 14.6216 19.8811 13.9851 20.0901 13.5608C20.2991 13.1365 20.5081 12.7122 20.7172 12.5C20.9262 12.2878 21.1352 12.0757 21.4487 11.9696C21.7622 11.8635 22.0757 11.8635 22.4938 11.8635H24.1658V25.972C24.1658 26.5024 24.1658 26.9267 24.0613 27.2449C24.0613 27.5632 23.9568 27.7753 23.8523 27.8814C23.7478 27.9875 23.6433 28.1997 23.5388 28.3057C23.4343 28.4118 23.2253 28.5179 23.0163 28.5179C22.8073 28.624 22.5983 28.624 22.2847 28.73H22.1802V29.5787H28.6596V28.73H28.5551C28.1371 28.624 27.8236 28.5179 27.6145 28.4118C27.4055 28.3057 27.301 28.1996 27.1965 27.9875C27.092 27.7753 26.9875 27.5632 26.9875 27.2449C26.883 26.9267 26.883 26.5024 26.883 25.972V11.7574H28.5551C29.0776 11.7574 29.3911 11.7574 29.6002 11.8635C29.8092 11.9696 30.0182 12.0757 30.2272 12.3939C30.4362 12.6061 30.6452 12.9243 30.8542 13.4547C31.0632 13.879 31.2723 14.5155 31.4813 15.3641V15.4702H33.0488V10.3784H18V15.4702Z" fill="white"/>
<path d="M47.9684 28.2082C47.7561 28.1028 47.65 27.8919 47.65 27.5757C47.5438 27.2595 47.5438 26.7325 47.5438 25.9946V20.7243C47.5438 19.9864 47.5438 19.354 47.4377 18.8269C47.3316 18.2999 47.2254 17.8783 47.0131 17.5621C46.8008 17.2458 46.5885 16.9296 46.2701 16.6134C45.9517 16.4026 45.6333 16.1918 45.2087 16.0864C44.7841 15.981 44.3595 15.8756 43.8288 15.8756C43.2981 15.8756 42.8735 15.981 42.4489 16.0864C42.0244 16.1918 41.5998 16.508 41.1752 16.7188C40.7506 17.035 40.2199 17.4567 39.583 18.0891V9.34033H38.6277L35.125 9.44574V10.3944H35.2311C35.6557 10.4998 35.9742 10.6052 36.1864 10.6052C36.3987 10.7106 36.5049 10.816 36.611 10.9214C36.7172 11.0268 36.8233 11.2377 36.8233 11.4485C36.9294 11.6593 36.9294 11.9755 36.9294 12.2917C36.9294 12.7133 36.9294 13.3458 36.9294 14.189V25.7838C36.9294 26.4162 36.9294 26.8379 36.8233 27.1541C36.8233 27.4703 36.7172 27.6811 36.611 27.7865C36.5049 27.8919 36.3987 27.9973 36.1864 28.1028C35.9742 28.2082 35.7619 28.3136 35.3373 28.419H35.2311V29.2622H40.9629V28.419H40.8568C40.4322 28.3136 40.2199 28.2082 40.0076 28.1028C39.7953 27.9973 39.6892 27.8919 39.583 27.6811C39.4769 27.4703 39.4769 27.2595 39.3708 27.0487C39.3708 26.8379 39.3708 26.3108 39.3708 25.6784V20.6189C39.3708 20.1972 39.4769 19.881 39.6892 19.5648C39.9015 19.2486 40.2199 18.9324 40.5383 18.6161C40.9629 18.2999 41.2813 18.0891 41.4936 17.9837C41.8121 17.8783 42.1305 17.7729 42.4489 17.7729C43.0858 17.7729 43.6165 17.8783 43.9349 18.1945C44.2534 18.5107 44.5718 18.9324 44.678 19.5648C44.7841 20.1972 44.8902 21.1459 44.8902 22.4108V26.1C44.8902 26.7325 44.8902 27.1541 44.7841 27.4703C44.678 27.7865 44.678 27.9973 44.5718 28.1028C44.4657 28.2082 44.3595 28.3136 44.2534 28.419C44.1472 28.5244 43.8288 28.6298 43.5104 28.7352H43.4042V29.5784H49.136V28.7352H49.0299C48.4991 28.5244 48.0746 28.3136 47.9684 28.2082Z" fill="white"/>
<path d="M61.5882 22.9344V22.829C61.5882 21.5649 61.4845 20.5114 61.1731 19.774C60.9655 18.9313 60.6542 18.2992 60.239 17.7724C59.8239 17.2457 59.305 16.8243 58.6823 16.5083C58.0595 16.1923 57.2293 16.0869 56.2952 16.0869C55.0498 16.0869 54.0119 16.403 53.0779 16.9297C52.1438 17.5618 51.4173 18.4045 50.8984 19.458C50.3794 20.5114 50.1719 21.7756 50.1719 23.1451C50.1719 25.3573 50.6908 27.1482 51.6249 28.307C52.5589 29.4658 54.0119 30.0979 55.9838 30.0979C56.7103 30.0979 57.3331 29.9926 57.9558 29.7819C58.5785 29.5712 59.0974 29.2551 59.6163 28.9391C60.1352 28.6231 60.6542 28.0963 61.2769 27.4643L61.3807 27.3589L60.3428 26.3055L60.239 26.4108C59.6163 27.0429 59.0974 27.4643 58.4747 27.7803C57.852 28.0963 57.2293 28.2017 56.5028 28.2017C55.6725 28.2017 54.946 27.991 54.4271 27.5696C53.9081 27.1482 53.493 26.6215 53.2854 25.8841C53.0779 25.1467 52.9741 24.1985 52.9741 23.1451V22.9344H61.5882ZM56.1914 17.3511C56.8141 17.3511 57.2293 17.5618 57.6444 17.8778C58.0595 18.1938 58.2671 18.7206 58.4747 19.2473C58.6823 19.8794 58.786 20.6168 58.786 21.5649H53.0779C53.1816 20.1954 53.493 19.1419 54.0119 18.5099C54.5309 17.6671 55.2573 17.3511 56.1914 17.3511Z" fill="white"/>
<line x1="10" y1="47.5" x2="182" y2="47.5" stroke="white"/>
</svg>
