<svg width="172" height="68" viewBox="0 0 172 68" fill="none" xmlns="http://www.w3.org/2000/svg">
<g clip-path="url(#clip0)">
<path d="M81.1392 30.8323C80.1532 35.1967 79.1671 36.323 76.9132 36.323H63.3898V5.06832C63.3898 4.08282 63.3898 3.37888 63.5307 2.95652C63.6716 2.53416 63.6716 2.25259 63.8125 1.97101C63.9533 1.83023 64.0942 1.54865 64.3759 1.54865C64.6577 1.40787 65.0803 1.26708 65.6437 1.12629H65.7846V0H57.1916V1.12629H57.3325C57.7551 1.40787 58.1777 1.54865 58.4595 1.68944C58.7412 1.83023 58.8821 1.97101 59.0229 2.25259C59.1638 2.39337 59.1638 2.67495 59.3047 3.09731C59.3047 3.51967 59.4455 4.2236 59.4455 5.06832V33.3665C59.4455 34.352 59.4455 35.0559 59.3047 35.4783C59.1638 35.9006 59.0229 36.323 58.7412 36.4638C58.4595 36.7453 57.896 36.8861 57.1916 37.1677H57.0508V38.294H83.1114V30.5507L81.1392 30.8323Z" fill="white"/>
<path d="M83.9581 19.8512C83.9581 19.1472 83.9581 18.5841 83.8173 18.1617C83.6764 17.0354 83.5355 16.1907 83.3947 15.346C83.1129 14.2197 82.6903 13.2342 82.1268 12.5303C81.5634 11.8263 80.7182 11.1224 79.873 10.7C78.8869 10.2777 77.7599 9.99609 76.3513 9.99609C74.6608 9.99609 73.1113 10.4185 71.7026 11.2632C70.4348 12.1079 69.3078 13.2342 68.6035 14.7828C67.8992 16.3315 67.4766 18.0209 67.4766 20.1327C67.4766 23.3708 68.1809 25.7642 69.5896 27.4537C70.9983 29.1431 73.1113 29.9878 75.9287 29.9878C76.9147 29.9878 77.9008 29.847 78.746 29.5655C79.5912 29.2839 80.4364 28.8615 81.1408 28.2984C81.8451 27.7352 82.6903 27.1721 83.5355 26.1866L83.6764 26.0458L82.2677 24.6379L82.1268 24.7787C81.2816 25.6234 80.4364 26.3274 79.5912 26.7497C78.746 27.1721 77.7599 27.3129 76.633 27.3129C75.3652 27.3129 74.3791 27.0313 73.5339 26.4681C72.6887 25.905 72.1252 25.0603 71.8435 24.0748C71.5617 23.0893 71.28 21.6814 71.28 20.1327V19.8512H83.9581ZM71.5617 18.0209C71.7026 16.0499 72.1252 14.5013 72.9704 13.5158C73.8156 12.3895 74.8017 11.9671 76.2104 11.9671C77.0556 11.9671 77.7599 12.2487 78.3234 12.671C78.8869 13.0934 79.3095 13.7973 79.5912 14.6421C79.873 15.4868 80.0138 16.6131 80.1547 18.0209H71.5617Z" fill="white"/>
<path d="M94.8041 10.1367C93.6772 10.1367 92.6911 10.2775 91.8459 10.5591C90.8598 10.8407 90.1555 11.263 89.4512 11.8262C88.7468 12.3893 88.1833 13.0932 87.9016 13.938C87.479 14.7827 87.3381 15.7682 87.3381 16.8945C87.3381 18.1616 87.6199 19.2879 88.0425 20.2734C88.4651 21.2589 89.1694 21.9628 90.1555 22.526C89.1694 23.2299 88.4651 23.9338 88.0425 24.6378C87.6199 25.3417 87.3381 26.0456 87.3381 26.7496C87.3381 27.4535 87.479 28.0166 87.9016 28.5798C88.1833 29.0021 88.6059 29.4245 89.1694 29.7061C88.1833 30.2692 87.479 30.8324 86.9155 31.3955C86.3521 32.0995 86.0703 32.9442 86.0703 33.7889C86.0703 34.7744 86.352 35.4783 86.7747 36.1823C87.1973 36.7454 87.9016 37.3086 88.6059 37.7309C89.4512 38.1533 90.4372 38.4349 91.4233 38.5756C92.5503 38.7164 93.8181 38.8572 95.0859 38.8572C96.9172 38.8572 98.4667 38.5756 99.8754 38.0125C101.284 37.4494 102.27 36.7454 102.974 35.7599C103.679 34.7744 104.101 33.6481 104.101 32.381C104.101 31.3955 103.961 30.5508 103.538 29.7061C103.115 29.0021 102.552 28.2982 101.566 27.8759C100.721 27.4535 99.4528 27.1719 98.0441 27.1719H93.2546C92.4094 27.1719 91.705 27.1719 91.2824 27.0311C90.8598 26.8903 90.5781 26.7496 90.4372 26.468C90.2964 26.1864 90.1555 25.9048 90.1555 25.4825C90.1555 24.7785 90.5781 24.0746 91.5642 23.3707C92.4094 23.6522 93.2546 23.793 94.3815 23.793C96.9172 23.793 98.7484 23.2299 100.157 21.9628C101.566 20.8365 102.129 19.0063 102.129 16.8945C102.129 16.0498 101.988 15.3458 101.707 14.5011C101.425 13.7972 101.143 13.234 100.721 12.8117L100.861 12.6709H104.806V10.4183H97.6215C96.7763 10.2775 95.7902 10.1367 94.8041 10.1367ZM100.721 32.9442C100.721 33.6481 100.439 34.352 100.016 34.9152C99.5937 35.4783 98.8893 35.9007 98.0441 36.1823C97.1989 36.4638 96.2128 36.6046 94.945 36.6046C92.9729 36.6046 91.5642 36.3231 90.719 35.7599C89.7329 35.1968 89.3103 34.352 89.3103 33.2257C89.3103 32.5218 89.4512 31.9587 89.7329 31.3955C90.0146 30.8324 90.5781 30.2692 91.1416 29.8469C91.9868 29.9877 92.832 29.9877 93.9589 29.9877H97.1989C97.9032 29.9877 98.6076 30.1284 99.0302 30.2692C99.4528 30.41 99.8754 30.6916 100.157 30.9732C100.439 31.2547 100.58 31.5363 100.721 31.8179C100.721 32.2402 100.721 32.6626 100.721 32.9442ZM98.4667 16.8945C98.4667 17.5984 98.4667 18.1616 98.3259 18.7247C98.185 19.2879 97.9032 19.851 97.6215 20.2734C97.3398 20.6957 96.9172 21.1181 96.4946 21.2589C96.072 21.5404 95.5085 21.6812 94.8041 21.6812C93.5363 21.6812 92.5503 21.2589 91.9868 20.4142C91.2824 19.5694 91.0007 18.3024 91.0007 16.6129C91.0007 15.0643 91.2824 13.938 91.9868 13.0932C92.6911 12.2485 93.5363 11.8262 94.8041 11.8262C95.5085 11.8262 96.2128 11.9669 96.7763 12.3893C97.1989 12.6709 97.6215 13.234 97.9032 14.0787C98.3258 14.7827 98.4667 15.7682 98.4667 16.8945Z" fill="white"/>
<path d="M122.696 28.0168C122.414 27.876 122.273 27.7352 122.132 27.5944C121.991 27.4536 121.85 27.1721 121.85 26.7497C121.85 26.4681 121.71 26.0458 121.71 25.6234C121.71 25.2011 121.71 24.4971 121.71 23.5116V16.6131C121.71 14.9236 121.569 13.5158 121.146 12.671C120.724 11.8263 120.16 11.1224 119.315 10.7C118.47 10.2777 117.484 9.99609 116.075 9.99609C115.23 9.99609 114.384 10.1369 113.398 10.2777C112.553 10.4185 111.708 10.7 110.863 10.9816C110.018 11.2632 108.891 11.8263 107.623 12.3895V15.2052H110.44V15.0644C110.722 13.9381 111.285 13.2342 111.849 12.671C112.412 12.1079 113.258 11.8263 114.244 11.8263C115.23 11.8263 115.934 11.9671 116.497 12.3895C117.061 12.8118 117.484 13.375 117.765 14.0789C118.047 14.9236 118.188 15.9091 118.188 17.317V18.4433C114.384 18.5841 111.567 19.288 109.595 20.2735C107.623 21.3998 106.637 22.9485 106.637 24.9195C106.637 25.905 106.918 26.7497 107.341 27.4536C107.764 28.1576 108.327 28.7207 109.172 29.1431C110.018 29.5655 110.863 29.7062 111.849 29.7062C112.976 29.7062 114.103 29.4247 115.089 29.0023C116.075 28.5799 117.202 27.7352 118.329 26.4681H118.47L118.329 29.5655V29.7062H123.964V28.5799H123.823C123.259 28.2984 122.837 28.1576 122.696 28.0168ZM112.131 21.6814C113.398 20.9775 115.371 20.6959 118.047 20.5551V23.23C118.047 23.934 117.906 24.4971 117.484 25.2011C117.061 25.905 116.497 26.4681 115.793 26.8905C115.089 27.3129 114.244 27.5944 113.398 27.5944C112.835 27.5944 112.271 27.4536 111.849 27.3129C111.426 27.1721 111.004 26.8905 110.722 26.4681C110.44 26.0458 110.299 25.4826 110.299 24.7787C110.158 23.3708 110.863 22.3853 112.131 21.6814Z" fill="white"/>
<path d="M139.462 24.9192C138.616 25.7639 137.771 26.4678 137.067 26.7494C136.362 27.031 135.376 27.3125 134.531 27.3125C133.545 27.3125 132.841 27.1718 132.277 26.7494C131.714 26.327 131.15 25.9047 130.728 25.2007C130.305 24.4968 130.023 23.7929 129.883 22.8074C129.742 21.8219 129.601 20.8364 129.601 19.7101C129.601 18.0206 129.742 16.472 130.164 15.2049C130.587 14.0786 131.15 13.0931 131.855 12.5299C132.559 11.9668 133.404 11.6852 134.249 11.6852C134.813 11.6852 135.376 11.826 135.799 11.9668C136.362 12.3891 136.644 12.6707 137.067 13.2339C137.349 13.6562 137.63 14.3602 137.912 15.2049V15.3457H140.589V10.9813H140.448C139.462 10.6997 138.616 10.5589 137.63 10.4181C136.644 10.2773 135.658 10.2773 134.531 10.2773C132.7 10.2773 131.15 10.6997 129.883 11.5444C128.474 12.3891 127.488 13.5154 126.643 15.0641C125.938 16.6127 125.516 18.3022 125.516 20.2732C125.516 23.3705 126.22 25.9047 127.488 27.5941C128.896 29.2836 130.728 30.1283 133.263 30.1283C133.968 30.1283 134.531 30.1283 135.236 29.9875C135.799 29.8467 136.362 29.7059 137.067 29.4243C137.63 29.1428 138.194 28.8612 138.757 28.4388C139.321 28.0165 139.884 27.4533 140.589 26.7494V26.6086L139.462 24.9192Z" fill="white"/>
<path d="M155.658 10.418V11.5443H155.799C156.504 11.685 157.067 11.9666 157.349 12.2482C157.631 12.5298 157.771 12.9521 157.771 13.5153C157.771 13.9376 157.771 14.36 157.631 14.7824C157.49 15.2047 157.349 15.7679 157.067 16.1902L153.264 25.4822L149.883 15.7679C149.742 15.2047 149.601 14.7824 149.46 14.36C149.319 13.9376 149.319 13.6561 149.319 13.2337C149.319 12.9521 149.319 12.6706 149.46 12.389C149.601 12.2482 149.742 11.9666 150.024 11.8258C150.305 11.685 150.728 11.5443 151.291 11.4035H151.432V10.418H143.121V11.5443H143.262C143.825 11.685 144.107 11.8258 144.389 11.9666C144.671 12.1074 144.812 12.389 145.093 12.8113C145.375 13.2337 145.657 13.7969 145.938 14.7824L151.432 29.7058C150.869 30.832 150.305 31.8176 149.883 32.5215C149.46 33.2254 149.038 33.7886 148.756 34.2109C148.474 34.6333 148.051 34.7741 147.77 34.9149C147.488 35.0557 147.065 35.1964 146.784 35.1964C146.361 35.1964 146.079 35.0557 145.798 34.9149C145.516 34.7741 145.375 34.3517 145.234 33.7886V33.6478H143.262V37.7306H143.403C144.389 37.8714 145.093 38.0122 145.938 38.0122C147.065 38.0122 148.051 37.7306 148.897 37.1675C149.742 36.6043 150.446 35.9004 151.151 34.7741C151.855 33.7886 152.559 32.3807 153.264 30.6913L160.448 14.5008C160.87 13.6561 161.152 12.9521 161.434 12.5298C161.716 12.1074 161.997 11.685 162.279 11.5443C162.561 11.4035 162.984 11.1219 163.406 11.1219H163.547V10.418H155.658Z" fill="white"/>
<path d="M8.59375 15.4863H10.1433V15.3455C10.2842 14.6416 10.5659 13.9376 10.7068 13.5153C10.9885 13.0929 11.1294 12.6706 11.4111 12.389C11.6928 12.1074 11.8337 11.9666 12.1155 11.9666C12.3972 11.8258 12.6789 11.8258 13.1015 11.8258H14.7919V25.9045C14.7919 26.4677 14.7919 26.89 14.6511 27.1716C14.6511 27.4532 14.5102 27.594 14.5102 27.8755C14.3693 28.0163 14.3693 28.1571 14.2285 28.2979C14.0876 28.4387 13.9467 28.4387 13.8059 28.5795C13.5241 28.7202 13.3833 28.7202 13.1015 28.7202H12.9607V29.565H19.5815V28.7202H19.4406C19.018 28.5795 18.7363 28.5795 18.4545 28.4387C18.3137 28.2979 18.0319 28.1571 18.0319 28.0163C17.891 27.8755 17.891 27.594 17.7502 27.3124C17.7502 27.0308 17.6093 26.6084 17.6093 26.0453V11.9666H19.2997C19.8632 11.9666 20.1449 11.9666 20.4267 12.1074C20.7084 12.2482 20.8493 12.389 21.131 12.5298C21.4128 12.8113 21.5536 13.0929 21.6945 13.5153C21.8354 13.9376 22.1171 14.6416 22.258 15.3455V15.4863H23.9484V10.418H8.59375V15.4863Z" fill="white"/>
<path d="M38.456 28.299C38.3151 28.1582 38.1742 27.8767 38.1742 27.7359C38.1742 27.4543 38.0334 26.8912 38.0334 26.0464V20.8373C38.0334 20.1334 38.0334 19.4295 37.8925 18.8663C37.7516 18.3032 37.6107 17.8808 37.4699 17.5992C37.329 17.1769 37.0473 16.8953 36.7655 16.6137C36.4838 16.3321 36.0612 16.1914 35.6386 16.0506C35.216 15.9098 34.7934 15.9098 34.2299 15.9098C33.8073 15.9098 33.2438 16.0506 32.8212 16.1914C32.3986 16.3321 31.976 16.6137 31.5534 16.8953C31.1308 17.1769 30.5673 17.5992 30.0039 18.3032V9.43359H29.0178L25.4961 9.57438V10.5599H25.637C26.0596 10.7007 26.4822 10.7007 26.623 10.8415C26.7639 10.9822 26.9048 10.9822 27.0456 11.123C27.1865 11.2638 27.1865 11.4046 27.3274 11.6862C27.3274 11.9678 27.4682 12.2493 27.4682 12.5309C27.4682 12.9533 27.4682 13.5164 27.4682 14.3611V26.0464C27.4682 26.6096 27.4682 27.1727 27.4682 27.4543C27.4682 27.7359 27.3274 28.0174 27.3274 28.1582C27.1865 28.299 27.1865 28.4398 26.9048 28.4398C26.7639 28.5806 26.4822 28.5806 26.0596 28.7214H25.9187V29.5661H31.6943V28.7214H31.5534C31.1308 28.5806 30.8491 28.5806 30.7082 28.4398C30.5673 28.299 30.4265 28.1582 30.2856 28.0174C30.1447 27.8767 30.1447 27.5951 30.1447 27.3135C30.1447 27.0319 30.1447 26.6096 30.1447 26.0464V20.6965C30.1447 20.2742 30.2856 19.9926 30.4265 19.5702C30.5673 19.2887 30.8491 18.8663 31.2717 18.5847C31.6943 18.3032 31.976 18.0216 32.2578 17.8808C32.5395 17.74 32.8212 17.74 33.2438 17.74C33.8073 17.74 34.3708 17.8808 34.6525 18.1624C34.9343 18.4439 35.216 19.0071 35.3569 19.5702C35.4977 20.2742 35.4977 21.1189 35.4977 22.386V26.0464C35.4977 26.6096 35.4977 27.1727 35.3569 27.4543C35.3569 27.7359 35.216 28.0174 35.0751 28.1582C34.9343 28.299 34.7934 28.4398 34.6525 28.4398C34.5117 28.5806 34.2299 28.5806 33.9482 28.7214H33.8073V29.5661H39.5829V28.7214H39.442C39.0194 28.5806 38.5968 28.4398 38.456 28.299Z" fill="white"/>
<path d="M52.2621 22.6681C52.2621 21.2602 52.1213 20.2747 51.8395 19.43C51.5578 18.5853 51.276 18.0221 50.8534 17.459C50.4308 16.8958 49.8674 16.4735 49.163 16.1919C48.4587 15.9103 47.6135 15.7695 46.7683 15.7695C45.5005 15.7695 44.5144 16.0511 43.5283 16.6143C42.5422 17.1774 41.8379 18.0221 41.4153 19.1484C40.8518 20.2747 40.7109 21.401 40.7109 22.8089C40.7109 25.0615 41.2744 26.7509 42.2605 28.018C43.2466 29.1443 44.7961 29.7074 46.6274 29.7074C47.3317 29.7074 48.0361 29.5666 48.5996 29.4259C49.163 29.2851 49.7265 29.0035 50.29 28.5811C50.8534 28.1588 51.4169 27.7364 51.9804 27.1733L52.1213 27.0325L51.1352 25.9062L50.9943 26.047C50.4308 26.6101 49.8674 27.1733 49.163 27.4548C48.5996 27.7364 47.8952 27.8772 47.1909 27.8772C46.3457 27.8772 45.6413 27.7364 45.0779 27.314C44.5144 26.8917 44.0918 26.3285 43.9509 25.6246C43.6692 24.9207 43.5283 23.9352 43.5283 22.9497V22.8089H52.2621V22.6681ZM46.6274 17.1774C47.1909 17.1774 47.7543 17.3182 48.0361 17.5998C48.4587 17.8813 48.7404 18.4445 48.8813 19.0076C49.0222 19.5708 49.163 20.4155 49.3039 21.2602H43.5283C43.6692 19.9931 43.9509 18.8668 44.5144 18.1629C45.0779 17.459 45.7822 17.1774 46.6274 17.1774Z" fill="white"/>
<path d="M172 48.4297H0V49.556H172V48.4297Z" fill="white"/>
<path d="M35.6413 67.8605V62.6513L33.1057 67.0157H32.4013L29.8657 62.7921V68.0012H28.457V60.1172H29.584L32.6831 65.3263L35.7822 60.1172H37.05V68.0012H35.6413V67.8605Z" fill="white"/>
<path d="M40.8516 59.9766H42.2603V67.8606H40.8516V59.9766Z" fill="white"/>
<path d="M46.0664 59.9766H49.4472C50.2924 59.9766 50.9968 60.1174 51.7011 60.3989C52.4055 60.6805 52.8281 61.2436 53.2507 61.8068C53.6733 62.3699 53.8142 63.0739 53.8142 63.9186C53.8142 64.7633 53.6733 65.3265 53.2507 66.0304C52.8281 66.7343 52.4055 67.1567 51.7011 67.4383C50.9968 67.7198 50.2924 67.8606 49.4472 67.8606H46.0664V59.9766ZM49.4472 66.7343C50.0107 66.7343 50.5742 66.5935 50.9968 66.4528C51.4194 66.312 51.842 65.8896 51.9829 65.4672C52.1237 65.0449 52.4055 64.6225 52.4055 64.0594C52.4055 63.4962 52.2646 63.0739 51.9829 62.6515C51.7011 62.2292 51.4194 61.9476 50.9968 61.666C50.5742 61.3844 50.0107 61.3844 49.4472 61.3844H47.4751V66.7343H49.4472Z" fill="white"/>
<path d="M58.6023 61.2436H55.9258V59.9766H62.6875V61.2436H60.011V67.8606H58.6023V61.2436Z" fill="white"/>
<path d="M66.9138 67.4384C66.2095 67.1568 65.7869 66.5937 65.3643 66.0305C64.9417 65.4674 64.8008 64.7635 64.8008 63.9187C64.8008 63.074 64.9417 62.5109 65.3643 61.807C65.7869 61.2438 66.2095 60.6807 66.9138 60.3991C67.6181 60.1175 68.3225 59.8359 69.0268 59.8359C69.872 59.8359 70.5764 59.9767 71.1398 60.3991C71.8442 60.6807 72.2668 61.2438 72.6894 61.807C73.112 62.3701 73.2529 63.074 73.2529 63.9187C73.2529 64.6227 73.112 65.3266 72.6894 66.0305C72.2668 66.5937 71.8442 67.1568 71.1398 67.4384C70.4355 67.72 69.7312 68.0016 69.0268 68.0016C68.3225 68.0016 67.4773 67.8608 66.9138 67.4384ZM70.4355 66.3121C70.8581 66.0305 71.1398 65.749 71.4216 65.3266C71.7033 64.9043 71.8442 64.4819 71.8442 63.9187C71.8442 63.3556 71.7033 62.9332 71.4216 62.5109C71.1398 62.0885 70.8581 61.807 70.4355 61.5254C70.0129 61.2438 69.5903 61.103 69.0268 61.103C68.4633 61.103 68.0407 61.2438 67.6181 61.5254C67.1955 61.807 66.9138 62.0885 66.6321 62.5109C66.3503 62.9332 66.2095 63.3556 66.2095 63.9187C66.2095 64.4819 66.3503 64.9043 66.6321 65.3266C66.9138 65.749 67.1955 66.0305 67.6181 66.3121C68.0407 66.5937 68.4633 66.7345 69.0268 66.7345C69.5903 66.7345 70.0129 66.5937 70.4355 66.3121Z" fill="white"/>
<path d="M87.9042 59.9766L85.2277 67.8606H83.6782L81.706 62.0884L79.7339 67.8606H78.1843L75.5078 59.9766H77.0574L79.0295 66.0304L81.0017 59.9766H82.4104L84.3825 66.0304L86.3547 59.9766H87.9042Z" fill="white"/>
<path d="M97.7661 59.9766V67.8606H96.4983L92.1313 62.5107V67.8606H90.7227V59.9766H91.9905L96.3574 65.3265V59.9766H97.7661Z" fill="white"/>
<path d="M111.427 60.3993C111.99 60.6809 112.272 60.9624 112.554 61.3848C112.835 61.8072 112.976 62.3703 112.976 62.9335C112.976 63.4966 112.835 64.0598 112.554 64.4821C112.272 64.9045 111.849 65.1861 111.427 65.4676C110.863 65.7492 110.3 65.7492 109.595 65.7492H107.764V68.0018H106.355V60.1177H109.595C110.3 59.9769 110.863 60.1177 111.427 60.3993ZM111.004 63.919C111.286 63.6374 111.568 63.215 111.568 62.7927C111.568 62.2295 111.427 61.948 111.004 61.6664C110.722 61.3848 110.159 61.244 109.595 61.244H107.905V64.3413H109.595C110.159 64.3413 110.582 64.2005 111.004 63.919Z" fill="white"/>
<path d="M120.866 66.0304H116.922L116.077 67.8606H114.527L118.049 59.9766H119.458L122.979 67.8606H121.43L120.866 66.0304ZM120.303 64.9041L118.753 61.5252L117.345 64.9041H120.303Z" fill="white"/>
<path d="M131.009 67.8606L129.459 65.608C129.459 65.608 129.318 65.608 129.177 65.608H127.346V67.8606H125.938V59.9766H129.177C129.882 59.9766 130.445 60.1174 131.009 60.2581C131.572 60.5397 131.854 60.8213 132.136 61.2436C132.417 61.666 132.558 62.2292 132.558 62.7923C132.558 63.3554 132.417 63.9186 132.136 64.341C131.854 64.7633 131.431 65.0449 130.868 65.3265L132.699 67.8606H131.009ZM130.445 61.666C130.164 61.3844 129.6 61.2436 129.037 61.2436H127.346V64.341H129.037C129.741 64.341 130.164 64.2002 130.445 63.9186C130.727 63.637 131.009 63.2147 131.009 62.7923C131.009 62.3699 130.727 61.9476 130.445 61.666Z" fill="white"/>
<path d="M138.473 64.6225L137.206 65.8896V67.8606H135.797V59.9766H137.206V64.0594L141.15 59.9766H142.84L139.459 63.4962L142.981 67.8606H141.291L138.473 64.6225Z" fill="white"/>
</g>
<defs>
<clipPath id="clip0">
<rect width="172" height="68" fill="white"/>
</clipPath>
</defs>
</svg>
