<svg width="264" height="139" viewBox="0 0 264 139" fill="none" xmlns="http://www.w3.org/2000/svg">
<path d="M38.6296 46.8813L15.6602 86.6882H29.6805L37.4364 72.2401H59.7596L52.5008 86.1899L38.6296 86.6882L52.5008 109.556L88.8443 46.8813H75.0726L65.0794 61.2796L44.198 61.0803L52.5008 46.8813H38.6296Z" fill="#9E3223"/>
<path d="M15.1133 46.8813L26.9461 67.1086L38.6297 46.8813H15.1133Z" fill="#CB94B4"/>
<path d="M38.6328 46.8813H64.9831L51.808 25.0598L38.6328 46.8813Z" fill="#CB94B4"/>
<path d="M76.8626 67.557L65.875 86.5387H88.2976L76.8626 67.557Z" fill="#CB94B4"/>
<path d="M103.759 47.3297H104.953L110.173 58.8881H108.781L107.438 55.8491H101.224L99.8814 58.8881H98.5391L103.759 47.3297ZM106.941 54.7032L104.356 48.8243L101.721 54.6534H106.941V54.7032Z" fill="black"/>
<path d="M111.316 54.7032C111.316 52.262 113.156 50.2692 115.642 50.2692C117.233 50.2692 118.227 50.9168 119.023 51.7638L118.177 52.6606C117.531 51.9631 116.736 51.3652 115.592 51.3652C113.852 51.3652 112.559 52.81 112.559 54.6534V54.7032C112.559 56.5466 113.902 57.9914 115.642 57.9914C116.736 57.9914 117.531 57.4434 118.227 56.7459L119.023 57.4932C118.177 58.4398 117.183 59.1373 115.592 59.1373C113.156 59.0874 111.316 57.0448 111.316 54.7032Z" fill="black"/>
<path d="M120.414 54.7032C120.414 52.262 122.254 50.2692 124.739 50.2692C126.33 50.2692 127.325 50.9168 128.12 51.7638L127.275 52.6606C126.629 51.9631 125.833 51.3652 124.69 51.3652C122.95 51.3652 121.657 52.81 121.657 54.6534V54.7032C121.657 56.5466 122.999 57.9914 124.739 57.9914C125.833 57.9914 126.629 57.4434 127.325 56.7459L128.12 57.4932C127.275 58.4398 126.281 59.1373 124.69 59.1373C122.254 59.0874 120.414 57.0448 120.414 54.7032Z" fill="black"/>
<path d="M130.258 50.4186H131.501V52.6107C132.097 51.2157 133.34 50.1695 134.931 50.2691V51.6143H134.832C132.992 51.6143 131.501 52.9595 131.501 55.5003V58.8881H130.258V50.4186Z" fill="black"/>
<path d="M140.203 57.9914C141.346 57.9914 142.191 57.4932 142.887 56.7957L143.683 57.4932C142.838 58.4398 141.794 59.0875 140.203 59.0875C137.866 59.0875 135.977 57.2939 135.977 54.6534C135.977 52.2122 137.717 50.2194 140.004 50.2194C142.49 50.2194 143.931 52.2122 143.931 54.7032C143.931 54.8029 143.931 54.9523 143.931 55.1516H137.22C137.418 56.9452 138.761 57.9914 140.203 57.9914ZM142.688 54.1552C142.539 52.6108 141.644 51.3154 140.004 51.3154C138.562 51.3154 137.418 52.5111 137.269 54.1552H142.688Z" fill="black"/>
<path d="M145.672 54.6534C145.672 51.8634 147.661 50.2193 149.699 50.2193C151.29 50.2193 152.284 51.0663 152.931 52.0129V46.9312H154.174V58.8881H152.931V57.1942C152.235 58.1907 151.24 59.0874 149.699 59.0874C147.71 59.0376 145.672 57.4433 145.672 54.6534ZM152.98 54.6534C152.98 52.6605 151.489 51.3652 149.948 51.3652C148.307 51.3652 146.965 52.5609 146.965 54.6036V54.6534C146.965 56.6462 148.357 57.9416 149.948 57.9416C151.539 57.9416 152.98 56.5964 152.98 54.6534Z" fill="black"/>
<path d="M157.059 47.1803H158.5V48.5753H157.059V47.1803ZM157.158 50.4187H158.401V58.8882H157.158V50.4187Z" fill="black"/>
<path d="M161.779 56.6461V51.5146H160.586V50.4185H161.779V47.8777H163.022V50.4185H165.707V51.5146H163.022V56.4469C163.022 57.4931 163.619 57.8418 164.464 57.8418C164.911 57.8418 165.259 57.7422 165.707 57.5429V58.639C165.259 58.8881 164.812 58.9877 164.166 58.9877C162.774 59.0375 161.779 58.34 161.779 56.6461Z" fill="black"/>
<path d="M171.425 57.9914C172.569 57.9914 173.414 57.4932 174.11 56.7957L174.905 57.4932C174.06 58.4398 173.016 59.0875 171.425 59.0875C169.088 59.0875 167.199 57.2939 167.199 54.6534C167.199 52.2122 168.939 50.2194 171.226 50.2194C173.712 50.2194 175.154 52.2122 175.154 54.7032C175.154 54.8029 175.154 54.9523 175.154 55.1516H168.442C168.591 56.9452 169.934 57.9914 171.425 57.9914ZM173.861 54.1552C173.712 52.6108 172.817 51.3154 171.177 51.3154C169.735 51.3154 168.591 52.5111 168.442 54.1552H173.861Z" fill="black"/>
<path d="M176.844 54.6534C176.844 51.8634 178.832 50.2193 180.871 50.2193C182.462 50.2193 183.456 51.0663 184.102 52.0129V46.9312H185.345V58.8881H184.102V57.1942C183.406 58.1907 182.412 59.0874 180.871 59.0874C178.882 59.0376 176.844 57.4433 176.844 54.6534ZM184.202 54.6534C184.202 52.6605 182.71 51.3652 181.169 51.3652C179.528 51.3652 178.186 52.5609 178.186 54.6036V54.6534C178.186 56.6462 179.578 57.9416 181.169 57.9416C182.71 57.9416 184.202 56.5964 184.202 54.6534Z" fill="black"/>
<path d="M194.345 57.2441V58.8881H193.102V46.9312H194.345V52.1125C195.041 51.1161 196.035 50.2193 197.576 50.2193C199.615 50.2193 201.603 51.8136 201.603 54.6036V54.6534C201.603 57.4433 199.615 59.0376 197.576 59.0376C196.035 59.0376 194.991 58.1907 194.345 57.2441ZM200.36 54.6534C200.36 52.6107 198.968 51.3652 197.377 51.3652C195.786 51.3652 194.345 52.7104 194.345 54.6036V54.6534C194.345 56.5964 195.836 57.9416 197.377 57.9416C199.018 57.9416 200.36 56.696 200.36 54.6534Z" fill="black"/>
<path d="M203.044 61.13L203.492 60.1336C203.89 60.3329 204.287 60.4326 204.834 60.4326C205.58 60.4326 206.077 60.034 206.574 58.8383L202.746 50.4186H204.138L207.221 57.4931L209.955 50.4186H211.298L207.768 59.1372C207.072 60.8809 206.226 61.5286 204.934 61.5286C204.138 61.5286 203.641 61.3792 203.044 61.13Z" fill="black"/>
<path d="M99.5341 67.0587H100.727L107.936 76.2257V67.0587H109.179V78.5175H108.135L100.727 69.1014V78.5175H99.4844V67.0587H99.5341Z" fill="black"/>
<path d="M111.613 76.0763C111.613 74.233 113.105 73.2864 115.243 73.2864C116.336 73.2864 117.082 73.4358 117.828 73.6351V73.386C117.828 71.8914 116.933 71.0942 115.342 71.0942C114.348 71.0942 113.552 71.3433 112.757 71.6921L112.359 70.6459C113.304 70.1975 114.199 69.9484 115.442 69.9484C116.635 69.9484 117.579 70.2971 118.176 70.895C118.773 71.4928 119.071 72.2899 119.071 73.386V78.5674H117.828V77.3218C117.231 78.0692 116.287 78.7666 114.795 78.7666C113.155 78.7168 111.613 77.82 111.613 76.0763ZM117.828 75.4286V74.6315C117.231 74.4322 116.386 74.2828 115.342 74.2828C113.751 74.2828 112.856 74.9803 112.856 75.9767V76.0265C112.856 77.0727 113.851 77.7204 114.994 77.7204C116.535 77.6706 117.828 76.7738 117.828 75.4286Z" fill="black"/>
<path d="M122.057 76.2757V71.1441H120.863V70.0481H122.057V67.5072H123.299V70.0481H125.984V71.1441H123.299V76.0764C123.299 77.1226 123.896 77.4714 124.741 77.4714C125.189 77.4714 125.537 77.3717 125.984 77.1724V78.2685C125.537 78.5176 125.089 78.6173 124.443 78.6173C123.101 78.6671 122.057 78.0194 122.057 76.2757Z" fill="black"/>
<path d="M128.27 66.8097H129.711V68.2047H128.27V66.8097ZM128.319 70.048H129.562V78.5176H128.319V70.048Z" fill="black"/>
<path d="M132 74.3326C132 71.8914 133.84 69.8986 136.425 69.8986C138.96 69.8986 140.8 71.8914 140.8 74.2828V74.3326C140.8 76.724 138.911 78.7667 136.375 78.7667C133.84 78.7168 132 76.724 132 74.3326ZM139.507 74.3326C139.507 72.4892 138.165 70.9946 136.375 70.9946C134.536 70.9946 133.293 72.4892 133.293 74.2828V74.3326C133.293 76.1262 134.635 77.6208 136.425 77.6208C138.215 77.571 139.507 76.1262 139.507 74.3326Z" fill="black"/>
<path d="M143.086 70.048H144.329V71.5426C144.876 70.6459 145.771 69.8986 147.212 69.8986C149.251 69.8986 150.444 71.2935 150.444 73.2864V78.5176H149.201V73.5853C149.201 71.991 148.356 71.0444 146.864 71.0444C145.423 71.0444 144.329 72.0907 144.329 73.6849V78.5176H143.086V70.048Z" fill="black"/>
<path d="M152.484 76.0763C152.484 74.233 153.976 73.2864 156.114 73.2864C157.208 73.2864 157.953 73.4358 158.699 73.6351V73.386C158.699 71.8914 157.804 71.0942 156.213 71.0942C155.219 71.0942 154.423 71.3433 153.628 71.6921L153.23 70.6459C154.175 70.1975 155.07 69.9484 156.313 69.9484C157.506 69.9484 158.45 70.2971 159.047 70.895C159.644 71.4928 159.942 72.2899 159.942 73.386V78.5674H158.699V77.3218C158.102 78.0692 157.158 78.7666 155.666 78.7666C154.075 78.7168 152.484 77.82 152.484 76.0763ZM158.699 75.4286V74.6315C158.053 74.4322 157.257 74.2828 156.213 74.2828C154.622 74.2828 153.727 74.9803 153.727 75.9767V76.0265C153.727 77.0727 154.722 77.7204 155.865 77.7204C157.456 77.6706 158.699 76.7738 158.699 75.4286Z" fill="black"/>
<path d="M162.723 66.5605H163.966V78.5175H162.723V66.5605Z" fill="black"/>
<path d="M172.121 67.0587H173.414V78.5175H172.121V67.0587Z" fill="black"/>
<path d="M176.547 70.048H177.79V71.5426C178.337 70.6459 179.232 69.8986 180.673 69.8986C182.712 69.8986 183.905 71.2935 183.905 73.2864V78.5176H182.662V73.5853C182.662 71.991 181.817 71.0444 180.325 71.0444C178.884 71.0444 177.79 72.0907 177.79 73.6849V78.5176H176.547V70.048Z" fill="black"/>
<path d="M185.895 77.4215L186.541 76.5248C187.436 77.2222 188.48 77.6208 189.474 77.6208C190.469 77.6208 191.214 77.0728 191.214 76.2756V76.2258C191.214 75.3789 190.22 75.0301 189.126 74.7312C187.784 74.3326 186.342 73.8842 186.342 72.3398V72.29C186.342 70.8452 187.535 69.8488 189.226 69.8488C190.27 69.8488 191.413 70.1975 192.258 70.7954L191.662 71.7419C190.866 71.2437 189.971 70.9448 189.176 70.9448C188.182 70.9448 187.535 71.4928 187.535 72.1903V72.2402C187.535 73.0373 188.579 73.3362 189.723 73.685C191.015 74.0835 192.457 74.5817 192.457 76.1262V76.176C192.457 77.7703 191.115 78.7169 189.474 78.7169C188.182 78.667 186.839 78.2187 185.895 77.4215Z" fill="black"/>
<path d="M195.041 76.2757V71.1441H193.848V70.0481H195.041V67.5072H196.284V70.0481H198.969V71.1441H196.284V76.0764C196.284 77.1226 196.88 77.4714 197.726 77.4714C198.173 77.4714 198.521 77.3717 198.969 77.1724V78.2685C198.521 78.5176 198.074 78.6173 197.427 78.6173C196.035 78.6671 195.041 78.0194 195.041 76.2757Z" fill="black"/>
<path d="M201.207 66.8097H202.649V68.2047H201.207V66.8097ZM201.306 70.048H202.549V78.5176H201.306V70.048Z" fill="black"/>
<path d="M205.928 76.2757V71.1441H204.734V70.0481H205.928V67.5072H207.171V70.0481H209.855V71.1441H207.171V76.0764C207.171 77.1226 207.767 77.4714 208.612 77.4714C209.06 77.4714 209.408 77.3717 209.855 77.1724V78.2685C209.408 78.5176 208.96 78.6173 208.314 78.6173C206.972 78.6671 205.928 78.0194 205.928 76.2757Z" fill="black"/>
<path d="M211.945 75.329V70.0978H213.188V75.03C213.188 76.6243 214.033 77.5709 215.525 77.5709C216.967 77.5709 218.061 76.5247 218.061 74.9304V70.0978H219.304V78.5673H218.061V77.0727C217.464 77.9695 216.619 78.7168 215.177 78.7168C213.139 78.7168 211.945 77.3218 211.945 75.329Z" fill="black"/>
<path d="M222.584 76.2757V71.1441H221.391V70.0481H222.584V67.5072H223.827V70.0481H226.512V71.1441H223.827V76.0764C223.827 77.1226 224.423 77.4714 225.269 77.4714C225.716 77.4714 226.064 77.3717 226.512 77.1724V78.2685C226.064 78.5176 225.617 78.6173 224.97 78.6173C223.628 78.6671 222.584 78.0194 222.584 76.2757Z" fill="black"/>
<path d="M232.23 77.6208C233.373 77.6208 234.219 77.1226 234.915 76.4251L235.71 77.1226C234.865 78.0692 233.821 78.7169 232.23 78.7169C229.893 78.7169 228.004 76.9233 228.004 74.2828C228.004 71.8416 229.744 69.8488 232.031 69.8488C234.517 69.8488 235.959 71.8416 235.959 74.3326C235.959 74.4323 235.959 74.5817 235.959 74.781H229.247C229.446 76.5746 230.738 77.6208 232.23 77.6208ZM234.716 73.7846C234.567 72.2402 233.672 70.9448 232.031 70.9448C230.589 70.9448 229.446 72.1405 229.297 73.7846H234.716Z" fill="black"/>
<path d="M99.7841 90.8233H98.6406V89.7272H99.7841V88.9799C99.7841 88.0333 100.033 87.286 100.53 86.7878C100.977 86.3394 101.574 86.1401 102.32 86.1401C102.916 86.1401 103.314 86.19 103.712 86.3394V87.4355C103.264 87.286 102.916 87.2362 102.469 87.2362C101.475 87.2362 100.977 87.834 100.977 89.0297V89.7272H103.662V90.8233H100.977V98.1469H99.7344V90.8233H99.7841Z" fill="black"/>
<path d="M104.652 93.962C104.652 91.5208 106.492 89.528 109.077 89.528C111.613 89.528 113.452 91.5208 113.452 93.9122V93.962C113.452 96.3534 111.563 98.396 109.027 98.396C106.492 98.3462 104.652 96.3534 104.652 93.962ZM112.16 93.962C112.16 92.1186 110.817 90.624 109.027 90.624C107.188 90.624 105.945 92.1186 105.945 93.9122V93.962C105.945 95.7556 107.287 97.2502 109.077 97.2502C110.867 97.2502 112.16 95.7556 112.16 93.962Z" fill="black"/>
<path d="M115.691 89.7272H116.934V91.9193C117.531 90.5243 118.774 89.4781 120.365 89.5777V90.9229H120.315C118.476 90.9229 116.984 92.268 116.984 94.8089V98.1967H115.741V89.7272H115.691Z" fill="black"/>
<path d="M126.332 96.3035L127.277 95.5064C127.973 96.5526 128.718 97.1505 129.912 97.1505C131.204 97.1505 132.149 96.2039 132.149 94.4103V86.6881H133.442V94.3605C133.442 95.7057 133.044 96.7021 132.398 97.3498C131.751 97.9476 130.906 98.2964 129.862 98.2964C128.172 98.3462 127.078 97.4992 126.332 96.3035Z" fill="black"/>
<path d="M140.003 97.2502C141.147 97.2502 141.992 96.752 142.688 96.0545L143.484 96.752C142.638 97.6986 141.594 98.3462 140.003 98.3462C137.667 98.3462 135.777 96.5527 135.777 93.9122C135.777 91.471 137.517 89.4781 139.804 89.4781C142.29 89.4781 143.732 91.471 143.732 93.962C143.732 94.0617 143.732 94.2111 143.732 94.4104H137.02C137.219 96.2538 138.512 97.2502 140.003 97.2502ZM142.439 93.4638C142.29 91.9194 141.395 90.624 139.755 90.624C138.313 90.624 137.169 91.8197 137.02 93.4638H142.439Z" fill="black"/>
<path d="M144.824 89.7272H146.167L148.404 96.5028L150.641 89.6774H151.685L153.972 96.5028L156.21 89.7272H157.502L154.519 98.2465H153.425L151.138 91.5706L148.851 98.2465H147.758L144.824 89.7272Z" fill="black"/>
<path d="M159.645 86.4889H161.086V87.8839H159.645V86.4889ZM159.744 89.7272H160.987V98.1968H159.744V89.7272Z" fill="black"/>
<path d="M163.219 97.1007L163.865 96.2039C164.76 96.9014 165.804 97.3 166.798 97.3C167.793 97.3 168.539 96.752 168.539 95.9548V95.905C168.539 95.0581 167.544 94.7093 166.45 94.4104C165.108 94.0118 163.666 93.5634 163.666 92.019V91.9692C163.666 90.5244 164.859 89.528 166.55 89.528C167.594 89.528 168.737 89.8767 169.583 90.4746L168.986 91.4211C168.191 90.9229 167.296 90.624 166.5 90.624C165.506 90.624 164.859 91.172 164.859 91.8695V91.9194C164.859 92.7165 165.904 93.0154 167.047 93.3642C168.34 93.7627 169.781 94.2609 169.781 95.8054V95.8552C169.781 97.4495 168.439 98.396 166.798 98.396C165.506 98.3462 164.163 97.848 163.219 97.1007Z" fill="black"/>
<path d="M172.02 86.2397H173.262V91.2218C173.809 90.3251 174.704 89.5777 176.146 89.5777C178.185 89.5777 179.378 90.9727 179.378 92.9656V98.1469H178.135V93.2147C178.135 91.6204 177.29 90.6738 175.798 90.6738C174.356 90.6738 173.262 91.72 173.262 93.3143V98.1469H172.02V86.2397Z" fill="black"/>
<path d="M187.234 86.6881H188.527V91.7698H195.139V86.6881H196.432V98.1469H195.139V92.9655H188.527V98.1469H187.234V86.6881Z" fill="black"/>
<path d="M198.918 93.962C198.918 91.5208 200.758 89.528 203.343 89.528C205.878 89.528 207.718 91.5208 207.718 93.9122V93.962C207.718 96.3534 205.829 98.396 203.293 98.396C200.758 98.3462 198.918 96.3534 198.918 93.962ZM206.425 93.962C206.425 92.1186 205.083 90.624 203.293 90.624C201.454 90.624 200.211 92.1186 200.211 93.9122V93.962C200.211 95.7556 201.553 97.2502 203.343 97.2502C205.133 97.2502 206.425 95.7556 206.425 93.962Z" fill="black"/>
<path d="M209.262 97.1007L209.908 96.2039C210.803 96.9014 211.847 97.3 212.841 97.3C213.836 97.3 214.582 96.752 214.582 95.9548V95.905C214.582 95.0581 213.587 94.7093 212.493 94.4104C211.151 94.0118 209.709 93.5634 209.709 92.019V91.9692C209.709 90.5244 210.902 89.528 212.593 89.528C213.637 89.528 214.78 89.8767 215.626 90.4746L215.029 91.4211C214.233 90.9229 213.339 90.624 212.543 90.624C211.549 90.624 210.902 91.172 210.902 91.8695V91.9194C210.902 92.7165 211.946 93.0154 213.09 93.3642C214.383 93.7627 215.824 94.2609 215.824 95.8054V95.8552C215.824 97.4495 214.482 98.396 212.841 98.396C211.549 98.3462 210.206 97.848 209.262 97.1007Z" fill="black"/>
<path d="M218.109 89.7272H219.352V91.4211C220.048 90.4247 221.043 89.528 222.584 89.528C224.622 89.528 226.611 91.1222 226.611 93.9122V93.962C226.611 96.752 224.622 98.3462 222.584 98.3462C220.993 98.3462 219.999 97.4993 219.352 96.5527V100.787H218.109V89.7272ZM225.368 93.962C225.368 91.9194 223.976 90.6738 222.385 90.6738C220.794 90.6738 219.352 92.019 219.352 93.9122V93.962C219.352 95.905 220.844 97.2502 222.385 97.2502C224.026 97.2003 225.368 96.0047 225.368 93.962Z" fill="black"/>
<path d="M229 86.4889H230.442V87.8839H229V86.4889ZM229.099 89.7272H230.342V98.1968H229.099V89.7272Z" fill="black"/>
<path d="M232.727 93.962C232.727 91.5208 234.566 89.528 237.052 89.528C238.643 89.528 239.637 90.1756 240.433 91.0226L239.588 91.9194C238.941 91.2219 238.146 90.624 237.002 90.624C235.262 90.624 233.97 92.0688 233.97 93.9122V93.962C233.97 95.8054 235.312 97.2502 237.052 97.2502C238.146 97.2502 238.941 96.7021 239.637 96.0047L240.433 96.752C239.588 97.6986 238.593 98.396 237.002 98.396C234.616 98.3462 232.727 96.3534 232.727 93.962Z" fill="black"/>
<path d="M246.05 97.2502C247.194 97.2502 248.039 96.752 248.735 96.0545L249.53 96.752C248.685 97.6986 247.641 98.3462 246.05 98.3462C243.713 98.3462 241.824 96.5527 241.824 93.9122C241.824 91.471 243.564 89.4781 245.851 89.4781C248.337 89.4781 249.779 91.471 249.779 93.962C249.779 94.0617 249.779 94.2111 249.779 94.4104H243.117C243.266 96.2538 244.559 97.2502 246.05 97.2502ZM248.536 93.4638C248.387 91.9194 247.492 90.624 245.851 90.624C244.41 90.624 243.266 91.8197 243.117 93.4638H248.536Z" fill="black"/>
</svg>
