<svg xmlns="http://www.w3.org/2000/svg" width="1868" height="1534" viewBox="0 0 1868 1534" preserveAspectRatio="none"><g><g><path fill="#ff7729" d="M1848.06 374.647c21.68-97.704 4.755-183.157 4.755-235.65 0-34.942-37.724-142.839-131.945-138.542-207.124 9.444-538.388 13.906-723.203 5.46-51.967-.205-571.18 4.618-729.054 5.05-103.716 5.722-218.725-3.21-244.08 53.82-14.37 32.32-32.76 269.722-18.582 602.558 5.636 132.328 12.785 186.533 4.49 310.596-5.124 76.67-5.08 242.355 1.144 340.603 6.64 104.833 40.263 202.424 168.214 204.74 85.402 1.545 314.314 9.796 400.916 9.978 174.767.368 500.66-24.447 727.072-20.774 158.11 2.873 462.507 18.456 511.492-31.639 48.986-50.095 53.354-252.412 45.818-332.497-14.213-151.035 3.065-73.99-.21-223.617-2.837-231.149-30.468-319.817-16.827-550.086z"/></g></g></svg>