<svg xmlns="http://www.w3.org/2000/svg" width="934" height="976.5" viewBox="0 0 1868 1953" preserveAspectRatio="none"><g><g><path fill="#fff" d="M1848.02 455.953c21.678-97.704 4.753-264.6 4.753-317.095 0-34.94-37.723-142.838-131.944-138.541-207.125 9.445-538.388 13.907-723.204 5.459-51.966-.202-571.179 4.619-729.054 5.05-103.715 5.724-218.725-3.208-244.08 53.82C10.122 96.969-8.268 415.814 5.91 748.65c5.636 132.328 12.785 524.65 4.491 648.713-5.125 76.669-5.08 242.356 1.143 340.602 6.641 104.834 40.264 202.426 168.215 204.74 85.401 1.546 314.313 9.797 400.916 9.979 174.766.369 500.66-24.446 727.072-20.774 158.11 2.873 462.507 18.456 511.492-31.64 48.986-50.094 53.354-252.41 45.818-332.496-14.213-151.035 3.065-267.414-.21-417.04-2.837-231.148-30.467-464.511-16.827-694.78z"/></g></g></svg>