<svg xmlns="http://www.w3.org/2000/svg" width="1588" height="1584" viewBox="0 0 1588 1584" preserveAspectRatio="none"><g><g><path fill="#d6496f" d="M1017.956 1001.476c14.343 12.92 33.208 29.88 57.397 53.076 16.077 15.418 34.697 33.35 55.83 54.744 19.257 20.16 34.91 37.557 51.553 53.931 16.645 16.376 35.124 30.882 55.44 49.967 26.364 26.367 48.405 51.248 53.819 50.165 5.413-1.083 29.516-34.56 45.057-55.053 15.567-20.526 32.365-40.246 45.619-62.27 13.269-22.052 24.773-45.223 35.266-68.743 10.447-23.417 18.106-48.024 25.347-72.863 7.832-24.265 16.973-48.68 22.095-74.043-43.56-6.149-90.786-44.037-106.457-84.827-8.883-23.119-10.627-49.132-6.993-73.51 4.96-33.273 23.219-66.48 51.639-85.184 18.563-12.218 38.744-20.977 61.81-22.884-5.324-25.276-10.715-57.538-18.59-81.974-7.917-24.564-17.476-48.663-27.962-72.125-10.516-23.528-22.141-46.702-35.235-68.867-13.078-22.14-29.326-42.317-44.97-62.842-15.541-20.39-47.71-61.075-49.78-59.109-28.235 26.804-56.898 52.618-83.662 80.93-22.666 23.84-45.522 47.49-68.777 70.76-21.3 21.314-41.25 44.144-63.162 64.815-24.456 23.072-45.127 37.988-58.474 51.65-25.921 26.532-44.327 42.773-44.327 42.773l-168.731 158.59z"/></g><g><path fill="#eaa70e" d="M831.49 1388.4c17.29 6.001 32.945 15.279 44.564 27.457 33.53 35.143 20.581 92.616-5.557 127.952-16.487 22.288-39.357 37.805-67.402 39.73-29.76 2.043-62.715-8.152-83.127-30.564-15.489-17.005-24.98-39.236-28.62-61.81-6.052-37.51 4.963-80.426 40.831-99.1 28.115-14.637 66.63-15.007 99.31-3.665z"/></g><g><path fill="#d6496f" d="M1586.423 795.143c6.745 49.413-31.21 98.174-94.472 106.477-45.426 5.962-108.663-33.73-111.386-99.054-2.55-61.172 47.888-118.784 119.336-104.198 40.945 8.359 75.482 46.124 84.829 87.588.717 3.184 1.293 6.254 1.693 9.187z"/></g><g><path fill="#29c4ad" d="M886.378 65.13c8.002 15.617 11.908 39.237 11.499 56.661-1.614 68.71-105.795 109.662-159.32 73.83a98.595 98.595 0 0 1-8.43-6.647c-13.46-11.85-23.701-27.656-31.48-44.331-34.795-74.59 42.39-163.215 115.123-140.286 26.389 8.319 48.63 22.4 63.749 45.576 3.189 4.889 6.179 9.967 8.859 15.197z"/></g><g><path fill="#fff" d="M777.125 149.172c1.682.542 3.265 1.378 4.477 2.648 4.777 5.007.275 15.342-6.088 16.602a9.874 9.874 0 0 1-1.073.126c-1.803.115-3.678-.227-5.399-.915-6.612-2.645-8.603-14.64-1.792-18.186 2.472-1.287 5.436-1.3 8.162-.726.575.12 1.15.269 1.713.45z"/></g><g><path fill="#fff" d="M819.73 149.084c1.726-.423 3.523-.543 5.23-.095 6.734 1.767 8.332 12.992 3.548 17.43-.271.24-.555.464-.852.674-1.483 1.05-3.269 1.746-5.106 2.065-7.057 1.224-15.092-7.997-11.131-14.628 1.437-2.406 3.968-3.98 6.606-4.929.556-.2 1.127-.375 1.705-.517z"/></g><g><path fill="#fff" d="M741.89 74.831s27.421-1.167 45.546-2.565c18.124-1.4 42.147-2.1 51.476-2.1 9.33 0 18.56-1.543 15.196 6.711-5.293 12.996-11.23 37.136-12.63 43.9-1.4 6.763.932 7.93-10.963 9.562-11.894 1.633-42.214 4.431-54.342 4.664-12.128.234-22.156 2.566-22.156 2.566z"/></g><g><path fill="none" stroke="#fff" stroke-linecap="round" stroke-linejoin="round" stroke-miterlimit="20" stroke-width="3.97" d="M721.721 54.145v0s4.775 2.728 8.507 4.36c3.731 1.633 9.33 3.265 9.33 3.265v0l16.791 85.828v0s12.594-.233 24.955 0c12.361.233 35.684 1.585 55.51 0"/></g><g><path fill="#ff7729" d="M155.049 709.43c23.514 13.284 47.602 37.951 51.468 65.912 4.092 29.594-8.943 59.91-27.465 82.406-17.625 21.411-43.434 39.44-72.035 40.116a98.636 98.636 0 0 1-10.68-.576c-17.757-1.925-35.415-8.41-50.944-18.002-46.545-28.748-58.956-105.492-27.043-146.273 37.093-47.402 91.773-48.964 136.699-23.583z"/></g><g><path fill="#eaa70e" d="M634.005 975.894c-6.623 6.186-28.073 24.875-54.438 51.24-46.863 49.546-94.12 98.736-142.616 146.691-38.579 38.147-86.56 74.052-118.962 117.84-1.487 2.01 37.956 32.908 58.475 48.315 20.501 15.393 41.071 30.675 63.12 43.777 22.046 13.1 45.284 23.896 68.626 34.508 23.345 10.615 46.392 22.141 70.781 30.07 24.375 7.926 48.594 12.143 73.76 17.19 2.218-22.86 11.48-42.668 23.98-60.867 12.703-18.498 30.383-32.572 50.253-42.958 19.51-10.199 40.958-16.174 64.052-15.377 23.351-1.314 46.146 1.848 65.473 12.175 19.671 10.511 35.227 27.902 47.841 46.583 12.404 18.37 21.784 38.505 24.57 61.013 25.326-4.668 49.31-11.372 73.771-19.078 24.525-7.726 48.523-16.586 71.928-27.155 23.414-10.573 47.381-20.31 69.424-33.518 22.031-13.199 43.677-27.45 64.09-43.07 20.395-15.607 39.751-33.752 58.281-51.564-16.93-18.375-35.527-35.864-53.13-53.347-17.645-17.523-35.902-34.364-53.918-51.58-17.908-17.115-35.047-35.14-53.022-52.535-17.735-17.162-36.209-33.774-53.72-51.768-20.662-17.644-35.97-36.364-51.07-54.56-15.436-18.602-192.124-203.054-215.548-217.014 0 0-129.16 143.657-152 164.99z"/></g><g><path fill="#ff7729" d="M607.498 946.94c-21.058 16.111-26.13 25.443-52.497 51.808-17.86 18.696-36.216 35.132-53 52.485-51.582 53.329-107.938 103.762-155.912 160.25-15.578 18.344-31.826 35.864-55.036 50.212-18.45-17.942-34.183-38.284-49.669-58.531-15.55-20.329-29.984-41.298-42.76-63.483-12.746-22.133-25.86-44.218-36.059-67.73-10.17-23.448-19.512-47.439-27.36-71.796-7.862-24.398-12.249-48.791-17.992-73.636 23.321-1.565 44.58-9.036 62.997-21.422 18.751-12.61 33.78-30.859 44.38-50.915 10.392-19.663 21.437-42.744 18.156-65.717-3.248-22.736-10.782-47.532-21.654-67.126-10.886-19.618-23.543-34.876-42.092-47.51-18.547-12.633-40.547-19.859-63.188-21.728 5.173-25.335 12.754-49.6 20.722-73.88 8.034-24.483 15.12-49.309 25.815-72.611 10.718-23.349 25.26-44.716 38.47-66.77 13.171-21.992 26.501-43.874 41.971-64.469 15.373-20.467 31.506-39.921 48.97-58.901 23.208 14.501 38.175 32.323 53.495 51.041 15.01 18.34 29.46 37.872 49.941 55.883 17.705 17.754 36.424 34.125 54.345 51.142 18.133 17.219 36.55 33.927 54.52 50.987 18.086 17.167 36.767 33.647 54.298 51.262 17.524 17.608 31.86 36.498 48.438 55.161l147.42 168.237z"/></g><g><path fill="#29c4ad" d="M948.028 612.63c23.028-22.961 45.614-46.368 68.353-69.616 29.277-29.933 63.62-57.024 90.67-88.898 16.57-19.524 33.327-37.634 51.426-53.988 18.615-16.82 36.348-34.7 54.482-51.631 17.966-16.775 34.99-32.489 50.403-52.804-18.72-17.622-36.598-35.032-57.133-50.622-20.5-15.564-43.154-28.037-65.218-41.324-22.065-13.287-44.641-25.4-68.026-36.16-23.401-10.767-46.48-22.472-70.96-30.455-24.467-7.979-50.412-14.677-75.713-19.624-2.1 22.911-8.088 46.467-20.077 65.243-12.28 19.231-29.512 35.623-49.307 46.338-19.337 10.468-42.131 15.72-65.912 14.07-23.294 1.063-44.712-6.656-64.187-16.925-19.861-10.472-39.003-23.653-51.6-42.358-12.368-18.368-18.494-42.04-20.682-64.918-33.196 6.64-64.38 16.363-94.523 26.045-30.133 9.68-59.1 21.951-89.061 38.1-26.512 14.288-55.41 29.82-81.544 49.382-26.185 19.603-49.804 41.971-71.225 62.994 16.417 18.84 33.899 35.851 51.32 53.446 17.48 17.655 34.606 35.594 52.65 52.731 17.945 17.041 35.393 34.705 53.455 51.96 17.828 17.032 35.07 34.938 52.585 52.88 29.285 24.27 54.009 53.904 80.718 81.034 59.32 60.255 112.35 126.272 167.018 190.702l144.416-138.505c9.318-8.937 18.53-17.983 27.672-27.098z"/></g><g><path fill="#fff" d="M697.044 685.25s46.84-43.584 114.78-32.458c67.943 11.125 101.628 48.495 118.47 108.498 16.844 60.002-16.91 129.762-56.877 151.201-39.968 21.438-108.392 47.755-168.395-2.247-60.003-50.002-93.328-147.342-7.978-224.994z"/></g><g><path fill="#e5e5e5" d="M849.548 832.655s-13.54 18.353-27.306 25.45c-22.176 11.428-47.175 10.37-68.506-2.95-18.719-11.69-30.694-31.295-32.819-53.297-1.87-19.368 4.171-41.703 18.46-55.487 18.826-18.16 48.134-23.296 72.782-14.754 29.09 10.082 47.346 38.808 49.848 68.598-2.928-.22-6.005 0-9.608 0-.862 0-2.687-.189-3.003.6-.316.79.652 1.813 1.201 3.003 5.873 12.725 14.153 24.517 25.241 33.09 13.638-7.767 27.915-21.053 37.17-33.728.446-.61.911-1.335.73-2.069-.28-1.125-1.754-1.357-2.913-1.359-3.718-.005-11.007-.16-11.007-.16s-.578-22.798-8.135-42.86c-9.214-24.462-26.59-45.784-49.728-58.083-54.332-28.88-127.462-2.735-151.51 53.798-13.812 32.47-11.313 74.153 8.455 103.866 17.791 26.741 49.292 44.194 80.963 47.543 26.695 2.823 55.884-5.145 78.006-20.82 14.306-10.136 40.783-35.83 37.66-35.702-3.368.14-28.116 10.67-32.92 7.53-4.807-3.14-13.06-22.209-13.06-22.209z"/></g><g><path fill="#fff" d="M125.824 743.832s10.58 58.11 12.394 65.966c1.813 7.857-3.224 8.663-6.648 8.26-3.425-.403-3.948-10.677-15.875-14.102-11.926-3.425-21.596-4.029-34.489-1.208 0 0-2.82-8.865-4.23-14.304-1.41-5.439-3.626-13.296-3.626-13.296s12.691-2.82 25.181-7.453c12.49-4.634 15.392-8.663 17.164-13.095 1.773-4.432-1.513-12.15 2.516-14.164 4.029-2.015 7.21 1.187 7.613 3.396z"/></g><g><path fill="#fff" d="M82.717 849.532s-3.928-13.544-5.741-24.02c-1.813-10.476-6.245-31.427-7.051-37.873-.806-6.447-2.417-11.483-2.417-11.483s-16.117 1.61-23.369 6.245c-7.252 4.633-4.231 22.563 2.417 25.383 6.648 2.82 14.102 1.41 14.102 1.41s1.91 16.613 3.223 25.786a943.58 943.58 0 0 1 2.267 16.969z"/></g><g><path fill="none" stroke="#fff" stroke-linecap="round" stroke-linejoin="round" stroke-miterlimit="20" stroke-width="3.79" d="M148.29 747.952v0s11.886 7.051 14.907 17.526c3.022 10.476 1.411 20.75 0 25.384-1.41 4.633-6.596 10.676-6.596 10.676v0"/></g><g><path fill="none" stroke="#fff" stroke-linecap="round" stroke-linejoin="round" stroke-miterlimit="20" stroke-width="3.79" d="M161.821 730.441v0s17.292 10.258 21.689 25.499c4.396 15.241 2.051 30.189 0 36.929-2.052 6.741-9.598 15.534-9.598 15.534v0"/></g><g><path fill="#fff" d="M771.927 1463.23s7.154-16.945 11.673-26.735c4.518-9.79 7.907-12.803 13.179-3.389 5.272 9.414 13.179 27.864 13.179 27.864s6.778.377 22.593 2.26c15.814 1.883 21.646 5.271 12.893 13.556-8.752 8.283-22.308 20.71-22.308 20.71s2.636 15.061 3.766 24.475c1.13 9.413 3.39 19.203-8.284 12.802-11.673-6.4-27.865-15.438-27.865-15.438s-15.438 9.414-22.593 13.932c-7.154 4.52-12.426 3.766-10.919-9.413 1.506-13.18 4.142-25.982 4.142-25.982s-15.062-14.685-20.334-19.58c-5.27-4.896-7.906-11.673 4.143-12.803 12.05-1.13 26.735-2.259 26.735-2.259z"/></g><g><path fill="#fff" d="M740.286 1427.402l13.57 16.872"/><path fill="none" stroke="#fff" stroke-linecap="round" stroke-linejoin="round" stroke-miterlimit="20" stroke-width="4.36" d="M740.286 1427.402l13.57 16.872"/></g><g><path fill="#fff" d="M823.122 1444.274l18.755-16.872"/><path fill="none" stroke="#fff" stroke-linecap="round" stroke-linejoin="round" stroke-miterlimit="20" stroke-width="4.36" d="M823.122 1444.274l18.755-16.872"/></g><g><path fill="#fff" d="M841.877 1508.543l16.787 12.836"/><path fill="none" stroke="#fff" stroke-linecap="round" stroke-linejoin="round" stroke-miterlimit="20" stroke-width="4.36" d="M841.877 1508.543l16.787 12.836"/></g><g><path fill="#fff" d="M740.286 1506.464l-14.587 9.785"/><path fill="none" stroke="#fff" stroke-linecap="round" stroke-linejoin="round" stroke-miterlimit="20" stroke-width="4.36" d="M740.286 1506.464l-14.587 9.785"/></g><g><path fill="#fff" d="M1444.537 849.235s11.729-2.666 18.927-9.331c7.198-6.664 11.996-14.395 11.996-14.395s23.193 1.151 42.92-10.487c19.727-11.639 18.66-37.764 12.262-47.893-6.397-10.131-29.856-33.323-71.176-26.925s-46.918 41.287-40.254 53.966c6.664 12.679 16.262 24.142 31.723 28.407 0 0 1.866 16.795-6.398 26.658z"/></g><g><path fill="none" stroke="#fff" stroke-linecap="round" stroke-linejoin="round" stroke-miterlimit="20" stroke-width="3.91" d="M1540.848 786.926v0s-17.628-12.265-41.904-8.219c-24.275 4.046-34.39 30.055-22.54 44.216 11.847 14.161 30.353 16.473 36.272 16.762 0 0 7.653 15.605 28.172 14.738 0 0-10.693-7.514-11.27-18.206 0 0 11.848-.578 19.362-11.849 7.513-11.27 5.552-31.228-8.092-37.442z"/></g></g></svg>