<?xml version="1.0" encoding="utf-8"?>
<!-- Generator: Adobe Illustrator 24.1.2, SVG Export Plug-In . SVG Version: 6.00 Build 0)  -->
<svg version="1.1" id="Слой_1" xmlns="http://www.w3.org/2000/svg" xmlns:xlink="http://www.w3.org/1999/xlink" x="0px" y="0px"
	 viewBox="0 0 1803.51 960.04" style="enable-background:new 0 0 1803.51 960.04;" xml:space="preserve">
<style type="text/css">
	.st0{fill:#FF7729;}
</style>
<path class="st0" d="M2.7,421.67c1.08-14.56,2.5-28.95,4.28-43.09C39.58,119.31,148.82,77.77,219.82,58.82
	C607.21-44.56,992.85,23.9,1379.37,4.88c69.16-3.4,139.63,3.87,208.85,11.68c104.28,11.77,218.73,106.79,215.21,385.57
	c-2.22,175.68-45.19,350.03-92.24,433.55c-64.74,114.92-140.26,118.22-212.11,118.56c-403.94,1.93-807.89,3.86-1211.83,5.79
	c-56.66,0.27-114.19-7.51-168.39-54.95C82.78,873.51,48.08,817.03,25,723.55C4.72,641.39-5.17,527.33,2.7,421.67z"/>
</svg>
