<svg xmlns="http://www.w3.org/2000/svg" width="902.5" height="522" viewBox="0 0 1805 1044"><g><g><path fill="#f1f1f1" d="M3.674 459.226c1.109-15.804 2.555-31.436 4.357-46.791C41.085 130.892 150.4 85.595 221.438 64.9 609.028-48.016 994.557 25.627 1381.12 4.29c69.167-3.816 139.634 3.96 208.84 12.32 104.265 12.596 218.55 115.555 214.543 418.226-2.526 190.74-45.812 380.106-93.01 470.865-64.94 124.886-140.473 128.596-212.326 129.096l-1211.882 8.423c-56.66.393-114.176-7.957-168.301-59.368-36.021-34.214-70.63-95.476-93.542-196.92C5.303 697.769-4.38 573.955 3.673 459.226z"/></g></g></svg>