<svg xmlns="http://www.w3.org/2000/svg" width="902.5" height="522" viewBox="0 0 1805 1044" preserveAspectRatio="none"><g><g><path fill="#d6496f" d="M3.674 459.226c1.109-15.804 2.555-31.436 4.357-46.791C41.085 130.892 150.4 85.594 221.438 64.899 609.028-48.016 994.557 25.627 1381.12 4.29c69.167-3.817 139.634 3.959 208.84 12.319 104.265 12.596 218.55 115.555 214.543 418.226-2.526 190.74-45.812 380.105-93.01 470.865-64.94 124.886-140.473 128.596-212.326 129.096l-1211.882 8.422c-56.66.394-114.176-7.957-168.301-59.367-36.021-34.215-70.63-95.477-93.542-196.921C5.303 697.769-4.38 573.954 3.673 459.226z"/></g></g></svg>