<svg xmlns="http://www.w3.org/2000/svg" width="284" height="406" viewBox="0 0 284 406" preserveAspectRatio="none"><g><g><path fill="#d6496f" d="M164.511 1.244c4.27.215 8.492.524 12.644.933 76.112 7.488 89.32 46.474 94.91 65.964 19.138 66.733 3.227 89.888 11.123 195.917 1.412 18.971-.295 38.365-2.166 57.415-2.82 28.702-29.953 83.262-111.604 83.868-51.455.382-106.764-10.436-131.504-22.884-34.04-17.129-35.459-60.445-35.992-80.173-2.994-110.91-.589-85.223-.632-196.168C1.281 79.39 13.298 55.021 26.864 39.87 35.891 29.784 49.021 15.933 76.252 9.07c23.935-6.033 57.273-9.39 88.26-7.826z"/></g></g></svg>