<?xml version="1.0" encoding="utf-8"?>
<!-- Generator: Adobe Illustrator 24.1.2, SVG Export Plug-In . SVG Version: 6.00 Build 0)  -->
<svg version="1.1" id="Слой_1" xmlns="http://www.w3.org/2000/svg" xmlns:xlink="http://www.w3.org/1999/xlink" x="0px" y="0px"
	 viewBox="0 0 249.66 381.3" style="enable-background:new 0 0 249.66 381.3;" xml:space="preserve">
<style type="text/css">
	.st0{fill:#FF7729;}
</style>
<path class="st0" d="M144.29,0.36c3.77,0.2,7.51,0.49,11.18,0.88c67.29,7.06,78.96,43.81,83.9,62.18
	c16.92,62.91,2.85,84.73,9.83,184.68c1.25,17.88-0.26,36.17-1.91,54.12c-2.49,27.06-26.48,78.49-98.66,79.06
	c-45.49,0.36-90.85-9.84-112.72-21.57C5.82,343.57,4.57,302.74,4.09,284.14C1.45,179.59,0.04,203.8,0,99.22
	c-0.01-25.19,10.61-48.17,22.61-62.45c7.98-9.51,19.59-22.56,43.66-29.03C87.43,2.05,116.9-1.11,144.29,0.36z"/>
</svg>
