<svg xmlns="http://www.w3.org/2000/svg" width="284" height="406" viewBox="0 0 284 406"><g><g><path fill="#f1f1f1" d="M164.511 1.244c4.27.216 8.492.524 12.644.933 76.112 7.488 89.32 46.474 94.91 65.964 19.138 66.733 3.227 89.888 11.123 195.916 1.412 18.972-.295 38.366-2.166 57.416-2.82 28.702-29.953 83.262-111.604 83.868-51.455.382-106.764-10.436-131.504-22.884-34.04-17.129-35.459-60.445-35.992-80.172-2.994-110.91-.589-85.224-.632-196.169C1.281 79.39 13.298 55.021 26.864 39.87 35.891 29.785 49.021 15.933 76.252 9.07c23.935-6.033 57.273-9.39 88.26-7.826z"/></g></g></svg>