<?xml version="1.0" encoding="utf-8"?>
<!-- Generator: Adobe Illustrator 24.1.2, SVG Export Plug-In . SVG Version: 6.00 Build 0)  -->
<svg version="1.1" id="Слой_1" xmlns="http://www.w3.org/2000/svg" xmlns:xlink="http://www.w3.org/1999/xlink" x="0px" y="0px"
	 viewBox="0 0 415.2 136" style="enable-background:new 0 0 415.2 136;" xml:space="preserve">
<style type="text/css">
	.st0{fill:none;}
	.st1{fill:#FF7729;}
	.st2{fill:#FFFFFF;}
	.st3{fill:none;stroke:#FFFFFF;stroke-width:0;stroke-linecap:round;stroke-linejoin:round;}
</style>
<g>
	<path class="st0" d="M43.4,25.2C24,32.2,12.2,42.6,7.3,57.1C12.2,42.7,24,32.2,43.4,25.2z"/>
	<path class="st0" d="M128.6,130.5c-20.9,0-45.5-0.8-69.5-7.1C83.1,129.7,107.7,130.5,128.6,130.5z"/>
	<path class="st0" d="M274.1,129.4c-46.7,0.4-93.4,0.7-139.3,1.1C180.8,130.1,227.4,129.8,274.1,129.4z"/>
	<path class="st0" d="M394.6,5.5c5.1,0,10.1,0,15.1,0v122.9c-16.8,0.1-33.6,0.3-50.6,0.4c16.9-0.1,33.8-0.3,50.6-0.4h0V5.5
		C404.7,5.5,399.7,5.5,394.6,5.5C394.6,5.5,394.6,5.5,394.6,5.5z"/>
	<path class="st0" d="M17.7,100c9.5,10.9,23.4,18.8,41.5,23.5C41.1,118.8,27.1,110.9,17.7,100z"/>
	<path class="st1" d="M409.8,5.5c-5,0-10.1,0-15.1,0c-14.5,0-29.4,0-44.7,0.1c-5.8,0-11.7,0.1-17.6,0.1c-4.5,0-9,0.1-13.5,0.1
		c-4,0-8,0.1-12.1,0.1c-3.4,0-6.9,0.1-10.3,0.1c-2.4,0-4.9,0.1-7.4,0.1c-20.3,0.3-41,0.8-61.9,1.5c-0.2,0-0.4,0-0.5,0
		c-5.3,0.2-10.5,0.4-15.8,0.6c-3.2,0.1-6.4,0.3-9.6,0.4c-15,0.6-30,1.4-45,2.3c-7.2,0.4-14.3,0.9-21.5,1.4
		c-6.4,0.4-12.9,0.9-19.3,1.4c-6.4,0.5-12.8,1-19.2,1.6c-17.6,1.6-36.3,3.9-52.8,9.8C24,32.2,12.2,42.7,7.3,57.1
		c-0.6,1.7-1,3.4-1.3,5.2C3.8,74.8,8.3,89.2,17.7,100c9.5,10.9,23.4,18.8,41.5,23.5c24,6.2,48.6,7.1,69.5,7.1c2,0,4,0,5.9,0
		c0.1,0,0.2,0,0.3,0c45.9-0.4,92.6-0.7,139.3-1.1c28.4-0.2,56.8-0.4,85.1-0.7c16.9-0.1,33.8-0.3,50.6-0.4V5.5z"/>
	<path class="st2" d="M394.6,0c-99,0-200.6,1.1-299,9.9c-32,2.9-81.1,9-93.5,45.4c-0.7,2-1.2,4-1.5,6c-2.6,14.8,3,30.8,12.9,42.2
		c11.3,13,27.6,20.8,44.2,25.2c23.1,6,47.1,7.2,70.9,7.2c2,0,4,0,6,0c92.4-0.7,188.2-1.5,280.6-2.2V0C408.4,0,401.5,0,394.6,0z
		 M409.8,128.4L409.8,128.4c-16.8,0.1-33.6,0.3-50.6,0.4c-28.2,0.2-56.6,0.4-85.1,0.7c-46.7,0.4-93.4,0.7-139.3,1.1
		c-0.1,0-0.2,0-0.3,0c-2,0-3.9,0-5.9,0c-20.9,0-45.5-0.8-69.5-7.1c-18.1-4.7-32-12.6-41.5-23.5C8.3,89.2,3.8,74.8,6,62.3
		c0.3-1.8,0.8-3.5,1.3-5.2C12.2,42.6,24,32.2,43.4,25.2c16.5-6,35.1-8.2,52.8-9.8c6.4-0.6,12.8-1.1,19.2-1.6
		c6.4-0.5,12.8-1,19.3-1.4c7.2-0.5,14.3-1,21.5-1.4c15-0.9,30.1-1.7,45-2.3c3.2-0.1,6.4-0.3,9.6-0.4c5.3-0.2,10.6-0.4,15.8-0.6
		c0.2,0,0.4,0,0.5,0C248,7,268.7,6.5,289.1,6.2c2.5,0,4.9-0.1,7.4-0.1c3.5-0.1,6.9-0.1,10.3-0.1c4,0,8.1-0.1,12.1-0.1
		c4.5,0,9-0.1,13.5-0.1c5.9,0,11.8-0.1,17.6-0.1c15.2-0.1,30.1-0.1,44.7-0.1c0,0,0,0,0,0c5,0,10.1,0,15.1,0V128.4z"/>
	<path class="st3" d="M134.6,12.4c-6.4,0.4-12.9,0.9-19.3,1.4"/>
</g>
</svg>
