<?xml version="1.0" encoding="utf-8"?>
<!-- Generator: Adobe Illustrator 24.1.2, SVG Export Plug-In . SVG Version: 6.00 Build 0)  -->
<svg version="1.1" id="Слой_1" xmlns="http://www.w3.org/2000/svg" xmlns:xlink="http://www.w3.org/1999/xlink" x="0px" y="0px"
	 viewBox="0 0 298.4 95.4" style="enable-background:new 0 0 298.4 95.4;" xml:space="preserve">
<style type="text/css">
	.st0{fill:#FFFFFF;}
	.st1{fill:#FF7729;}
</style>
<g>
	<path class="st0" d="M293.4,40.4c-0.3-13.5-11.3-24.5-22-29.5c-8.6-4-18.8-5.9-31.9-5.9c-2.9,0-5.9,0.1-9.2,0.3
		c-20.9,1.1-43.1,1.9-67.9,2.5c-31.5,0.7-63,0.8-86.9,0.8c-2.7,0-5.4,0-8.1,0h-0.2l-0.2,0c0,0-1.4-0.1-3.9-0.1
		C54.4,8.3,32.8,10,16.5,25C6.3,34.4,2.4,49.5,6.8,62.6C12,78,27.1,87.7,49.4,89.9c0.9,0.1,1.5,0.3,2.1,0.5L206,89.2
		c20.9-0.2,44.6-0.3,63.6-11.2C281.7,71.1,293.8,55.9,293.4,40.4z"/>
	<path class="st1" d="M298.4,40.3c-0.4-14.8-11.5-27.7-24.9-33.9c-10.5-4.9-22.3-6.3-34-6.3c-3.2,0-6.3,0.1-9.5,0.3
		c-22.6,1.2-45.1,2-67.7,2.5c-28.9,0.6-57.9,0.8-86.8,0.8c-2.7,0-5.4,0-8.1,0c0,0-1.6-0.2-4.3-0.2c-9.4,0-32.3,1.8-49.9,18
		C-9.6,42.2-5.9,89.6,49,94.9c0.6,0,1.1,0.4,1.6,0.5l155.5-1.2c22.6-0.2,46.4-0.6,66.1-11.9C286.4,74.2,298.8,57.2,298.4,40.3z
		 M51.5,90.4c-0.5-0.2-1.2-0.4-2.1-0.5C27.1,87.7,12,78,6.8,62.6C2.4,49.5,6.3,34.4,16.5,25C32.8,10,54.4,8.3,63,8.3
		c2.4,0,3.8,0.1,3.9,0.1l0.2,0h0.2c2.7,0,5.4,0,8.1,0c23.9,0,55.4-0.1,86.9-0.8c24.8-0.5,47-1.3,67.9-2.5c3.3-0.2,6.3-0.3,9.2-0.3
		c13.1,0,23.3,1.9,31.9,5.9c10.7,5,21.7,16,22,29.5c0.4,15.5-11.6,30.7-23.7,37.6c-19,10.9-42.7,11-63.6,11.2L51.5,90.4z"/>
</g>
</svg>
