<?xml version="1.0" encoding="utf-8"?>
<!-- Generator: Adobe Illustrator 24.1.2, SVG Export Plug-In . SVG Version: 6.00 Build 0)  -->
<svg version="1.1" id="Слой_1" xmlns="http://www.w3.org/2000/svg" xmlns:xlink="http://www.w3.org/1999/xlink" x="0px" y="0px"
	 viewBox="0 0 158.68 56.65" style="enable-background:new 0 0 158.68 56.65;" xml:space="preserve" preserveAspectRatio="none">
<style type="text/css">
	.st0{fill:#FFFFFF;}
</style>
<g>
	<path class="st0" d="M36.06,56.65c-6.49,0-13.39-0.43-20.13-3.11c-5.33-2.12-9.45-5.69-12.26-10.61
		c-2.86-5.01-4.19-11.75-3.47-17.6v0c0.1-0.86,0.26-1.71,0.45-2.53C4.36,6.8,19.4,4.88,26.63,3.96C57.36,0.04,61.47,0.1,73.65,0.27
		c6.44,0.09,15.27,0.21,31.6-0.21c8.28-0.21,16.81,0.15,25.54,0.58c17.32,0.85,27.74,9.3,27.88,22.59
		c0.12,11.01-5.42,20.79-10.62,25.23c-8.08,6.9-18.11,6.95-26.16,6.99c-24.61,0.13-33.7,0.37-42.49,0.59
		c-8.8,0.23-17.9,0.46-42.51,0.59C36.62,56.65,36.34,56.65,36.06,56.65z M67.57,1.96c-8.42,0-15.72,0.55-40.72,3.73
		C20.02,6.57,5.79,8.38,2.34,23.19c-0.18,0.76-0.32,1.55-0.41,2.35v0C1.25,31.03,2.5,37.36,5.18,42.06
		c2.61,4.57,6.44,7.89,11.39,9.85c6.75,2.68,13.74,3,20.31,2.98c24.6-0.13,33.69-0.37,42.48-0.59c8.8-0.23,17.9-0.46,42.53-0.59
		c8.17-0.04,17.44-0.09,25.03-6.58c5.05-4.31,10.11-13.9,10.01-23.88c-0.19-17.67-18.4-20.48-26.22-20.86
		c-8.7-0.43-17.19-0.8-25.41-0.58c-16.37,0.42-25.21,0.3-31.67,0.21C71.41,1.99,69.46,1.96,67.57,1.96z M1.06,25.43h0.01H1.06z"/>
</g>
</svg>
