<?xml version="1.0" encoding="utf-8"?>
<!-- Generator: Adobe Illustrator 24.1.2, SVG Export Plug-In . SVG Version: 6.00 Build 0)  -->
<svg version="1.1" id="Слой_1" xmlns="http://www.w3.org/2000/svg" xmlns:xlink="http://www.w3.org/1999/xlink" x="0px" y="0px"
	 viewBox="0 0 416.7 104" style="enable-background:new 0 0 416.7 104;" xml:space="preserve" preserveAspectRatio="none">
<style type="text/css">
	.st0{fill:#FF7729;}
</style>
<g>
	<path class="st0" d="M416.7,41.9c-0.4-24.3-20.5-39.7-53.6-41c-16.4-0.7-32.4-1.2-47.9-0.7c-29.7,0.9-59.9,0.8-89.1,0.7
		C168.5,0.8,109,0.6,50.6,8C36.8,9.8,8.1,13.4,1.2,42.7c-0.4,1.5-0.6,3.1-0.8,4.6l0,0C-1,58.2,1.6,70.2,7.2,79.4
		c5.4,8.8,13.6,15.5,23.7,19.2c12.2,4.5,24.7,5.4,36.5,5.4c1.1,0,2.2,0,3.2,0l276.6-3.1c15.2-0.2,34.2-0.4,49.6-13
		C406.6,79.8,417.1,61.9,416.7,41.9z"/>
</g>
</svg>
