<?xml version="1.0" encoding="utf-8"?>
<!-- Generator: Adobe Illustrator 24.1.2, SVG Export Plug-In . SVG Version: 6.00 Build 0)  -->
<svg version="1.1" id="Слой_1" xmlns="http://www.w3.org/2000/svg" xmlns:xlink="http://www.w3.org/1999/xlink" x="0px" y="0px"
	 viewBox="0 0 146.01 43.59" style="enable-background:new 0 0 146.01 43.59;" xml:space="preserve">
<style type="text/css">
	.st0{fill:#FF7729;}
	.st1{fill:#FFFFFF;}
</style>
<g>
	<path class="st0" d="M43.34,42.71c-7.1,0-15.47-0.28-23.66-2.39c-6.28-1.62-11.15-4.35-14.46-8.14c-3.34-3.81-4.93-8.94-4.15-13.39
		c0.11-0.64,0.28-1.28,0.48-1.89C5.75,4.67,23.69,3.08,32.31,2.31c14.3-1.27,27.13-1.44,37.8-1.44c5.15,0,10.2,0.05,15.54,0.09
		c5.32,0.05,10.82,0.1,16.41,0.1c1.99,0,3.99-0.01,6.02-0.02c0.08,0,1.44-0.11,3.59-0.11c6.61,0,18.78,0.93,26.07,7.16
		c6.16,5.27,8.79,13.2,6.7,20.21c-2.22,7.48-9.21,12.35-19.68,13.72c-14.26,0.11-26.96,0.22-39.67,0.33
		c-12.73,0.11-25.45,0.22-39.74,0.33C44.68,42.71,44.01,42.71,43.34,42.71z"/>
	<path class="st1" d="M70.12,1.75c5.15,0,10.19,0.05,15.53,0.09c5.32,0.05,10.82,0.1,16.42,0.1c1.99,0,3.99-0.01,6.02-0.02l0.06,0
		l0.06,0c0.01,0,1.35-0.1,3.46-0.1c5.22,0,18.16,0.68,25.49,6.95c5.8,4.97,8.39,12.72,6.43,19.3c-2.12,7.11-8.83,11.76-18.9,13.1
		c-14.17,0.11-26.82,0.22-39.45,0.33c-12.78,0.11-25.55,0.22-39.9,0.33c-0.67,0.01-1.33,0.01-2,0.01c-7.05,0-15.35-0.28-23.44-2.36
		C13.8,37.9,9.08,35.25,5.88,31.6c-3.17-3.62-4.68-8.47-3.94-12.66c0.11-0.6,0.26-1.19,0.45-1.76c3.53-10.31,17.14-12.86,30-14
		C46.66,1.92,59.47,1.75,70.12,1.75 M70.12,0C57.79,0,45.47,0.27,32.23,1.44C21.45,2.4,4.9,4.45,0.73,16.62
		c-0.23,0.66-0.4,1.34-0.52,2.02c-0.87,4.96,1,10.29,4.35,14.11c3.82,4.35,9.3,6.97,14.9,8.41c7.77,2,15.88,2.42,23.88,2.42
		c0.67,0,1.34,0,2.01-0.01c28.56-0.22,50.9-0.44,79.46-0.67c24.64-3.21,25.88-24.87,13.49-35.48c-7.61-6.52-20.42-7.37-26.63-7.37
		c-2.22,0-3.6,0.11-3.6,0.11c-2.02,0.01-4.02,0.02-6.01,0.02C91.04,0.19,80.57,0,70.12,0L70.12,0z"/>
</g>
</svg>
