<?xml version="1.0" encoding="utf-8"?>
<!-- Generator: Adobe Illustrator 24.1.2, SVG Export Plug-In . SVG Version: 6.00 Build 0)  -->
<svg version="1.1" id="Слой_1" xmlns="http://www.w3.org/2000/svg" xmlns:xlink="http://www.w3.org/1999/xlink" x="0px" y="0px"
	 viewBox="0 0 301.2 89.9" style="enable-background:new 0 0 301.2 89.9;" xml:space="preserve">
<style type="text/css">
	.st0{fill:#FFFFFF;}
	.st1{fill:#FF7729;}
</style>
<g>
	<path class="st0" d="M282.1,19.2c-14.8-12.6-41.1-14-51.7-14c-4.3,0-7,0.2-7,0.2l-0.2,0H223c-4,0-8.1,0-12.4,0
		c-11.6,0-22.9-0.1-33.9-0.2c-11-0.1-21.4-0.2-32-0.2C122.7,5,96.3,5.4,67,8c-26.1,2.3-53.7,7.4-60.7,28c-0.4,1.1-0.7,2.3-0.9,3.4
		c-1.5,8.3,1.5,17.8,7.8,25c6.4,7.3,15.9,12.6,28.2,15.8c16.6,4.3,33.6,4.8,48,4.8c1.4,0,2.7,0,4.1,0c29.6-0.2,56.4-0.5,82.3-0.7
		c25.6-0.2,52.1-0.5,81.3-0.7c20.2-2.7,33.6-11.9,37.8-26C298.8,44.5,293.6,29.1,282.1,19.2z"/>
	<path class="st1" d="M285.3,15.3C269.6,1.9,243.2,0.1,230.4,0.1c-4.6,0-7.4,0.2-7.4,0.2c-4.2,0-8.3,0-12.4,0
		c-22.8,0-44.4-0.4-65.9-0.4c-25.4,0-50.9,0.6-78.1,3c-22.3,2-56.4,6.2-65,31.3C1,35.7,0.7,37,0.4,38.5c-1.8,10.2,2.1,21.2,9,29.1
		c7.9,9,19.2,14.4,30.7,17.4c16,4.1,32.8,5,49.3,5c1.4,0,2.8,0,4.2,0c58.9-0.5,105-0.9,163.9-1.4C308.3,81.9,310.9,37.2,285.3,15.3z
		 M294.9,57.5c-4.2,14.1-17.6,23.3-37.8,26c-29.2,0.2-55.7,0.5-81.3,0.7c-25.9,0.2-52.7,0.5-82.3,0.7c-1.4,0-2.7,0-4.1,0
		c-14.5,0-31.5-0.6-48-4.8c-12.3-3.2-21.8-8.5-28.2-15.8c-6.3-7.2-9.3-16.7-7.8-25c0.2-1.2,0.5-2.3,0.9-3.4
		c7-20.5,34.6-25.6,60.7-28c29.4-2.6,55.8-3,77.7-3c10.6,0,21,0.1,32,0.2c11,0.1,22.3,0.2,33.9,0.2c4.4,0,8.4,0,12.4,0h0.2l0.2,0
		c0,0,2.7-0.2,7-0.2c10.6,0,36.9,1.4,51.7,14C293.6,29.1,298.8,44.5,294.9,57.5z"/>
</g>
</svg>
