<?xml version="1.0" encoding="utf-8"?>
<!-- Generator: Adobe Illustrator 24.1.2, SVG Export Plug-In . SVG Version: 6.00 Build 0)  -->
<svg version="1.1" id="Слой_1" xmlns="http://www.w3.org/2000/svg" xmlns:xlink="http://www.w3.org/1999/xlink" x="0px" y="0px"
	 viewBox="0 0 782.47 147.88" style="enable-background:new 0 0 782.47 147.88;" xml:space="preserve" preserveAspectRatio="none">
<style type="text/css">
	.st0{fill:#FFFFFF;}
</style>
<g>
	<path class="st0" d="M105.97,147.88c-18.64,0-38.32-1.2-57.6-7.65c-16-5.35-28.45-14.5-37-27.18C2.61,100.09-1.54,82.57,0.52,67.33
		c0.31-2.26,0.74-4.48,1.31-6.61C12.74,19.25,57.76,14.06,79.4,11.57C172.91,0.8,319.56,1.08,448.96,1.33
		c64.74,0.12,125.9,0.24,173.06-1.07c24.75-0.69,50.26,0.12,76.4,1.07c15.57,0.57,37.91,3.35,55.91,13.37
		c18.27,10.16,27.73,25.21,28.12,44.74c0.57,28.54-15.93,53.99-31.51,65.55c-24.05,17.86-54,18.16-78.07,18.41
		c-73.62,0.74-179,1.5-280.91,2.23c-101.9,0.73-207.28,1.49-280.89,2.23C109.38,147.87,107.68,147.88,105.97,147.88z M3.29,67.71
		l2.77,0.37C4.18,82.01,7.98,98.05,16,109.93c7.85,11.64,19.33,20.05,34.14,25c20.27,6.78,41.24,7.53,60.88,7.34
		c73.62-0.74,179-1.5,280.91-2.23c101.9-0.73,207.28-1.49,280.89-2.23c24.47-0.25,52.21-0.53,74.79-17.3
		c14.92-11.08,29.75-35.57,29.25-60.96c-0.89-44.93-55.3-51.77-78.65-52.63c-26.04-0.96-51.46-1.76-76.04-1.07
		c-47.25,1.31-108.44,1.2-173.23,1.07C319.71,6.67,173.22,6.39,80.04,17.13c-20.4,2.35-62.86,7.24-72.81,45.02
		c-0.5,1.91-0.9,3.9-1.17,5.93L3.29,67.71z"/>
</g>
</svg>
