<?xml version="1.0" encoding="utf-8"?>
<!-- Generator: Adobe Illustrator 24.1.2, SVG Export Plug-In . SVG Version: 6.00 Build 0)  -->
<svg version="1.1" id="Слой_1" xmlns="http://www.w3.org/2000/svg" xmlns:xlink="http://www.w3.org/1999/xlink" x="0px" y="0px"
	 viewBox="0 0 89.4 30.9" style="enable-background:new 0 0 89.4 30.9;" xml:space="preserve">
<style type="text/css">
	.st0{fill:none;}
	.st1{fill:#FFFFFF;}
	.st2{fill:#FF7729;}
</style>
<g>
	<path class="st0" d="M6.3,2.9c-0.3,0-0.7,0-1,0l-3.6,0v0l2.7,0C5,2.9,5.7,2.9,6.3,2.9z"/>
	<path class="st0" d="M1.7,29.1L1.7,29.1c9.2-0.1,18.8-0.1,28.4-0.2c0.9,0,1.8,0,2.7,0c-1,0-2,0-3,0C20.3,28.9,10.8,29,1.7,29.1z"/>
	<path class="st0" d="M71,1.8c-0.1,0-0.1,0-0.2,0c-0.9,0-1.8,0-2.9,0.1c-6.1,0.3-12.5,0.6-19.5,0.8c7.2-0.2,13.8-0.4,20-0.8
		C69.4,1.8,70.2,1.8,71,1.8z"/>
	<path class="st1" d="M80.3,25c3.8-2.2,7.6-7,7.4-12c-0.1-4.3-3.5-7.8-6.9-9.4C78.2,2.4,75,1.8,71,1.8c-0.8,0-1.7,0-2.6,0.1
		c-6.2,0.3-12.8,0.6-20,0.8c-0.6,0-1.3,0-1.9,0c-10,0.2-20.7,0.3-28.9,0.3c-3.8,0-7.6,0-11.3,0c-0.6,0-1.3,0-1.9,0l-2.7,0v26.2
		c9.1-0.1,18.6-0.1,28.1-0.2c1,0,2,0,3,0c9.3-0.1,18.6-0.1,27.5-0.2C66.8,28.6,74.3,28.5,80.3,25z"/>
	<path class="st2" d="M81.5,2c-3.3-1.6-7-2-10.7-2c-1,0-2,0-3,0.1c-7.2,0.4-14.2,0.6-21.4,0.8c-9.2,0.2-19.1,0.3-28.8,0.3
		c-6,0-11.9,0-17.6,0v29.8c19.4-0.1,40.8-0.3,60.3-0.5c7.1-0.1,14.7-0.2,20.9-3.8c4.5-2.6,8.4-8.1,8.3-13.6
		C89.3,8.2,85.8,4.1,81.5,2z M30.1,28.9c-9.6,0.1-19.2,0.1-28.4,0.2v0V2.9v0l3.6,0c0.3,0,0.7,0,1,0c3.7,0,7.5,0,11.3,0
		c8.2,0,18.9,0,28.9-0.3c0.7,0,1.3,0,1.9,0c7-0.2,13.5-0.4,19.5-0.8c1.1-0.1,2-0.1,2.9-0.1c0.1,0,0.1,0,0.2,0c4,0,7.1,0.6,9.8,1.9
		c3.3,1.6,6.8,5.1,6.9,9.4c0.1,5-3.6,9.8-7.4,12c-6,3.5-13.4,3.5-20,3.6c-8.9,0.1-18.2,0.1-27.5,0.2C31.9,28.9,31,28.9,30.1,28.9z"
		/>
</g>
</svg>
