<?xml version="1.0" encoding="utf-8"?>
<!-- Generator: Adobe Illustrator 24.1.2, SVG Export Plug-In . SVG Version: 6.00 Build 0)  -->
<svg version="1.1" id="Слой_1" xmlns="http://www.w3.org/2000/svg" xmlns:xlink="http://www.w3.org/1999/xlink" x="0px" y="0px"
	 viewBox="0 0 495.8 8.2" style="enable-background:new 0 0 495.8 8.2;" xml:space="preserve">
<style type="text/css">
	.st0{fill:#29C4AD;}
</style>
<g>
	<path class="st0" d="M483.3,8.2c-12.1,0-24.2-0.9-36-1.7C432.1,5.4,416.5,4.2,401,5c-25.3,1.2-51.1,1.3-75.9,1.3
		c-9.6,0-19.5,0-29.2,0.1c-30.2,0.3-56.2,0.4-85.2,0.2c-23.5-0.2-47.4,0.2-70.6,0.6C104.4,7.8,67.6,8.4,31.4,7
		c-5.1-0.2-10.2-0.8-15.1-1.4C11.6,5,6.8,4.5,2,4.3C0.9,4.2-0.1,3.2,0,2c0.1-1.2,1-2.1,2.2-2C7.1,0.2,12,0.8,16.8,1.3
		c4.9,0.6,9.9,1.1,14.8,1.3C67.6,4.1,104.4,3.5,140,3c23.2-0.4,47.1-0.8,70.7-0.6c29,0.2,55,0.1,85.2-0.2c9.7-0.1,19.6-0.1,29.2-0.1
		C349.9,2,375.6,2,400.8,0.7c15.7-0.8,31.5,0.4,46.8,1.5c15.1,1.1,30.6,2.2,45.9,1.5c1.2-0.1,2.2,0.9,2.2,2c0.1,1.2-0.9,2.2-2,2.2
		C490.3,8.1,486.8,8.2,483.3,8.2z"/>
</g>
</svg>
