<?xml version="1.0" encoding="utf-8"?>
<!-- Generator: Adobe Illustrator 24.1.2, SVG Export Plug-In . SVG Version: 6.00 Build 0)  -->
<svg version="1.1" id="Слой_1" xmlns="http://www.w3.org/2000/svg" xmlns:xlink="http://www.w3.org/1999/xlink" x="0px" y="0px"
	 viewBox="0 0 416.8 104.1" style="enable-background:new 0 0 416.8 104.1;" xml:space="preserve" preserveAspectRatio="none">
<style type="text/css">
	.st0{fill:#FFFFFF;}
</style>
<path class="st0" d="M416.8,42c-0.4-24.4-20.5-39.7-53.6-41.1c-16.4-0.7-32.4-1.2-47.9-0.8c-29.7,0.9-59.9,0.8-89.1,0.7
	C168.6,0.7,109.1,0.6,50.6,8C36.8,9.8,8.2,13.4,1.2,42.8c-0.4,1.5-0.6,3.1-0.8,4.7C-1,58.3,1.6,70.3,7.2,79.5
	c5.4,8.8,13.6,15.5,23.7,19.2c12.2,4.5,24.7,5.4,36.5,5.4c1.1,0,2.2,0,3.2,0l276.5-3.1c15.3-0.2,34.2-0.4,49.6-13
	C406.6,79.9,417.1,62,416.8,42z"/>
</svg>
