<?xml version="1.0" encoding="utf-8"?>
<!-- Generator: Adobe Illustrator 24.1.2, SVG Export Plug-In . SVG Version: 6.00 Build 0)  -->
<svg version="1.1" id="Слой_1" xmlns="http://www.w3.org/2000/svg" xmlns:xlink="http://www.w3.org/1999/xlink" x="0px" y="0px"
	 viewBox="0 0 782.5 147.9" style="enable-background:new 0 0 782.5 147.9;" xml:space="preserve" preserveAspectRatio="none">
<style type="text/css">
	.st0{fill:#FFFFFF;}
</style>
<path class="st0" d="M782.5,59.4c-0.4-19.5-9.8-34.6-28.1-44.7c-18-10-40.3-12.8-55.9-13.4c-26.1-1-51.7-1.8-76.4-1.1
	C574.9,1.6,513.7,1.4,449,1.3C319.6,1.1,172.9,0.8,79.4,11.6c-21.6,2.5-66.7,7.7-77.6,49.1c-0.6,2.1-1,4.3-1.3,6.6
	c-2.1,15.2,2.1,32.8,10.8,45.7c8.6,12.7,21,21.8,37,27.2c19.3,6.4,39,7.6,57.6,7.6c1.7,0,3.4,0,5.1,0c73.6-0.7,179-1.5,280.9-2.2
	c101.9-0.7,207.3-1.5,280.9-2.2c24.1-0.2,54-0.6,78.1-18.4C766.5,113.4,783,88,782.5,59.4z"/>
</svg>
