<svg xmlns="http://www.w3.org/2000/svg" width="646" height="130" viewBox="0 0 646 130" preserveAspectRatio="none"><g><g><path fill="#5ec0ad" d="M4.708 59.554c.223-1.829.543-3.64.967-5.419 7.765-32.625 38.626-38.12 58.731-40.683C174.104-.52 409.076 7.077 519.018 3.694c19.671-.606 39.78.126 59.534.927 29.761 1.21 62.904 12.84 63.532 47.838.396 22.056-10.821 44.05-23.728 54.654-17.761 14.59-39.246 15.2-59.701 15.426-115.003 1.285-354.776 2.568-469.779 3.852-16.131.18-32.556-.649-48.268-6.464-10.456-3.869-20.669-10.869-27.786-22.542-6.255-10.259-9.736-24.549-8.114-37.83z"/></g><g><path fill="none" stroke="#fff" stroke-linecap="round" stroke-linejoin="round" stroke-miterlimit="20" stroke-width="6.98" d="M4.708 59.554c.223-1.829.543-3.64.967-5.419 7.765-32.625 38.626-38.12 58.731-40.683C174.104-.52 409.076 7.077 519.018 3.694c19.671-.606 39.78.126 59.534.927 29.761 1.21 62.904 12.84 63.532 47.838.396 22.056-10.821 44.05-23.728 54.654-17.761 14.59-39.246 15.2-59.701 15.426-115.003 1.285-354.776 2.568-469.779 3.852-16.131.18-32.556-.649-48.268-6.464-10.456-3.869-20.669-10.869-27.786-22.542-6.255-10.259-9.736-24.549-8.114-37.83z"/></g></g></svg>