<?xml version="1.0" encoding="utf-8"?>
<!-- Generator: Adobe Illustrator 24.1.2, SVG Export Plug-In . SVG Version: 6.00 Build 0)  -->
<svg version="1.1" id="Слой_1" xmlns="http://www.w3.org/2000/svg" xmlns:xlink="http://www.w3.org/1999/xlink" x="0px" y="0px"
	 viewBox="0 0 416.76 104.13" style="enable-background:new 0 0 416.76 104.13;" xml:space="preserve" preserveAspectRatio="none">
<style type="text/css">
	.st0{fill:#FFFFFF;}
</style>
<g>
	<path class="st0" d="M67.39,104.13c-11.78,0-24.23-0.84-36.47-5.37c-10.1-3.74-18.29-10.39-23.69-19.23
		c-5.64-9.25-8.22-21.26-6.89-32.11l0,0c0.19-1.58,0.47-3.15,0.83-4.65C8.15,13.43,36.83,9.78,50.61,8.02
		c58.44-7.44,117.95-7.27,175.49-7.1c29.23,0.09,59.46,0.17,89.14-0.74c15.52-0.48,31.52,0.08,47.92,0.75
		c33.13,1.34,53.16,16.7,53.6,41.08c0.36,20.01-10.14,37.88-20.04,46.01c-15.36,12.62-34.34,12.83-49.59,13l-276.52,3.09
		C69.54,104.12,68.47,104.13,67.39,104.13z M5.89,48.08c-1.16,9.5,1.18,20.44,6.12,28.53c4.8,7.87,11.81,13.56,20.85,16.9
		c12.51,4.63,25.51,5.15,37.68,5.01l276.52-3.09c15.12-0.17,32.27-0.36,46.11-11.73c9.18-7.54,18.31-24.25,18-41.59
		c-0.55-30.38-33.92-35.02-48.24-35.6c-16.29-0.66-32.18-1.22-47.52-0.74c-29.77,0.92-60.05,0.83-89.33,0.74
		C168.72,6.35,109.4,6.17,51.32,13.57c-20.06,2.55-39.36,8.02-44.7,30.48C6.3,45.35,6.06,46.71,5.89,48.08L5.89,48.08z"/>
</g>
</svg>
