<?xml version="1.0" encoding="utf-8"?>
<!-- Generator: Adobe Illustrator 24.1.2, SVG Export Plug-In . SVG Version: 6.00 Build 0)  -->
<svg version="1.1" id="Слой_1" xmlns="http://www.w3.org/2000/svg" xmlns:xlink="http://www.w3.org/1999/xlink" x="0px" y="0px"
	 viewBox="0 0 91.8 30.3" style="enable-background:new 0 0 91.8 30.3;" xml:space="preserve">
<style type="text/css">
	.st0{fill:#FFFFFF;}
	.st1{fill:#FF7729;}
</style>
<g>
	<path class="st0" d="M21.1,3.9c-8.1,0.8-16.9,2.4-19,9c-0.2,0.3-0.3,0.7-0.3,1.1c-0.5,2.6,0.5,5.7,2.4,7.9c2,2.3,5,4,8.8,5.1
		c5.2,1.4,10.6,1.6,15.2,1.6c0.5,0,0.9,0,1.3,0c10.1-0.1,20.8-0.2,31.5-0.2c9.8-0.2,19.7-0.3,29.1-0.4V1.7h-2.3
		C65.9,1.7,42.6,2,21.1,3.9z"/>
	<path class="st1" d="M88,0C66,0,42.6,0.2,21,2.2C14,2.8,3.2,4.2,0.4,12.3c-0.1,0.4-0.3,0.9-0.3,1.4c-0.6,3.3,0.6,6.8,2.7,9.4
		c2.4,2.9,6.1,4.6,9.7,5.6c5.1,1.3,10.4,1.6,15.6,1.6c0.5,0,0.9,0,1.3,0c20.1-0.2,42.1-0.3,62.3-0.5V0C90.5,0,89.2,0,88,0z M90.1,28
		c-9.5,0.1-19.3,0.2-29.2,0.2c-10.6,0.1-21.3,0.2-31.5,0.2c-0.4,0-0.9,0-1.3,0c-4.6,0-9.9-0.2-15.2-1.6c-3.9-1-6.9-2.7-8.8-5.1
		c-2-2.3-2.9-5.3-2.4-7.9c0.1-0.4,0.2-0.7,0.3-1.1c2.2-6.5,10.9-8.2,19.1-8.9C42.6,2,65.9,1.7,88,1.7h2.2V28z"/>
</g>
</svg>
