<?xml version="1.0" encoding="utf-8"?>
<!-- Generator: Adobe Illustrator 24.1.2, SVG Export Plug-In . SVG Version: 6.00 Build 0)  -->
<svg version="1.1" id="Слой_1" xmlns="http://www.w3.org/2000/svg" xmlns:xlink="http://www.w3.org/1999/xlink" x="0px" y="0px"
	 viewBox="0 0 404.6 138.7" style="enable-background:new 0 0 404.6 138.7;" xml:space="preserve">
<style type="text/css">
	.st0{fill:none;}
	.st1{fill:#FF7729;}
	.st2{fill:#FFFFFF;}
</style>
<g>
	<path class="st0" d="M27.9,10.5c17.5,0,35.6,0.1,53.6,0.1c35.5,0,82.1-0.1,127.5-1.1c35.6-0.8,67.5-1.9,97.6-3.6
		c4.8-0.3,9.2-0.4,13.3-0.4c19.1,0,34,2.8,46.6,8.7c9,4.2,17.1,10.7,22.9,18.3c1.6,2.1,3,4.3,4.2,6.5c-1.2-2.2-2.6-4.4-4.2-6.5
		c-5.8-7.6-14-14.1-22.9-18.3c-12.6-5.9-27.5-8.7-46.6-8.7c-4.2,0-8.5,0.1-13.3,0.4c-30.1,1.6-62,2.8-97.6,3.6
		c-45.4,1-92,1.1-127.5,1.1C63.5,10.6,45.4,10.5,27.9,10.5c-7.5,0-15,0-22.4-0.1v122.7c0,0,0,0,0,0V10.5
		C12.9,10.5,20.4,10.5,27.9,10.5z"/>
	<path class="st1" d="M393.6,39c-1.2-2.2-2.6-4.4-4.2-6.5c-5.8-7.6-14-14.1-22.9-18.3c-12.6-5.9-27.4-8.7-46.6-8.7
		c-4.2,0-8.5,0.1-13.3,0.4c-30.1,1.6-62,2.8-97.6,3.6c-45.4,1-92,1.1-127.5,1.1c-17.9,0-36,0-53.6-0.1c-7.5,0-15,0-22.4,0v122.7
		c43-0.3,86.8-0.7,130.6-1c45.5-0.4,91.1-0.7,135.8-1c30.3-0.2,64.6-0.5,92.3-16.5c17.9-10.3,35.6-32.9,35-56.1
		C399,51.9,397.1,45.2,393.6,39z"/>
	<path class="st2" d="M404.6,58.4c-0.5-21.4-16.6-40.2-35.9-49.2c-15.2-7.1-32-9.2-48.9-9.2c-4.6,0-9.1,0.1-13.6,0.4
		c-32.6,1.8-64.8,2.9-97.4,3.6c-41.7,0.9-84.7,1.1-127.4,1.1C54,5.1,26.8,5,0,5v133.8c89.5-0.7,182.4-1.4,271.9-2.1
		c32.6-0.2,66.7-0.9,95-17.2C387.4,107.6,405.3,83,404.6,58.4z M364.2,114.6c-27.7,16-62.1,16.3-92.3,16.5
		c-44.7,0.3-90.2,0.7-135.8,1c-43.8,0.3-87.5,0.7-130.6,1c0,0,0,0,0,0V10.5c7.4,0,14.9,0,22.4,0c17.5,0,35.6,0.1,53.6,0.1
		c35.5,0,82.1-0.1,127.5-1.1c35.6-0.8,67.5-1.9,97.6-3.6c4.8-0.3,9.2-0.4,13.3-0.4c19.1,0,34,2.8,46.6,8.7
		c9,4.2,17.1,10.7,22.9,18.3c1.6,2.1,3,4.3,4.2,6.5c3.5,6.3,5.4,12.9,5.5,19.6C399.8,81.8,382,104.3,364.2,114.6z"/>
</g>
</svg>
