<?xml version="1.0" encoding="utf-8"?>
<!-- Generator: Adobe Illustrator 24.1.2, SVG Export Plug-In . SVG Version: 6.00 Build 0)  -->
<svg version="1.1" id="Слой_1" xmlns="http://www.w3.org/2000/svg" xmlns:xlink="http://www.w3.org/1999/xlink" x="0px" y="0px"
	 viewBox="0 0 144.65 46.25" style="enable-background:new 0 0 144.65 46.25;" xml:space="preserve">
<style type="text/css">
	.st0{fill:#FF7729;}
	.st1{fill:#FFFFFF;}
</style>
<g>
	<path class="st0" d="M24.58,45.35c-0.2-0.09-0.46-0.2-0.77-0.23c-15.47-1.49-20.42-9.59-22-14.28c-2.32-6.93-0.27-14.91,5.12-19.86
		c8.33-7.66,19.28-8.48,23.6-8.48c1.26,0,2.01,0.07,2.02,0.07l3.98,0.01c11.6,0,26.87-0.04,42.12-0.37
		c11.99-0.26,22.74-0.65,32.87-1.2c1.65-0.09,3.14-0.13,4.56-0.13c6.6,0,11.72,0.95,16.11,2.99c5.63,2.62,11.39,8.48,11.58,15.68
		c0.21,8.14-6.02,16.03-12.29,19.61c-9.57,5.47-21.27,5.56-31.59,5.64l-75.23,0.58C24.63,45.37,24.61,45.36,24.58,45.35z"/>
	<path class="st1" d="M116.08,1.75L116.08,1.75c6.47,0,11.47,0.92,15.74,2.91c5.38,2.5,10.9,8.08,11.07,14.91
		c0.2,7.8-5.81,15.38-11.85,18.83c-9.37,5.36-20.95,5.45-31.17,5.53L24.83,44.5c-0.23-0.1-0.54-0.22-0.94-0.25
		C8.92,42.8,4.15,35.05,2.65,30.56c-2.22-6.61-0.25-14.22,4.88-18.94c8.11-7.45,18.79-8.25,23-8.25c1.21,0,1.93,0.07,1.94,0.07
		l0.08,0.01l0.08,0l3.91,0c11.59,0,26.86-0.04,42.13-0.37c12.01-0.26,22.77-0.65,32.9-1.2C113.21,1.79,114.68,1.75,116.08,1.75
		 M116.08,0c-1.54,0-3.08,0.05-4.6,0.13c-10.97,0.59-21.85,0.96-32.84,1.19C64.61,1.63,50.58,1.7,36.54,1.7c-1.3,0-2.6,0-3.91,0
		c0,0-0.78-0.07-2.1-0.07c-4.57,0-15.66,0.88-24.19,8.71c-11,10.11-9.19,33.09,17.39,35.66c0.27,0.03,0.51,0.18,0.77,0.26l75.4-0.59
		c10.97-0.09,22.5-0.31,32.02-5.76c6.92-3.96,12.94-12.16,12.73-20.39c-0.18-7.17-5.58-13.43-12.09-16.45
		C127.45,0.7,121.76,0,116.08,0L116.08,0z"/>
</g>
</svg>
