<?xml version="1.0" encoding="utf-8"?>
<!-- Generator: Adobe Illustrator 24.1.2, SVG Export Plug-In . SVG Version: 6.00 Build 0)  -->
<svg version="1.1" id="Слой_1" xmlns="http://www.w3.org/2000/svg" xmlns:xlink="http://www.w3.org/1999/xlink" x="0px" y="0px"
	 viewBox="0 0 416.7 104" style="enable-background:new 0 0 416.7 104;" xml:space="preserve" preserveAspectRatio="none">
<style type="text/css">
	.st0{fill:#FF7729;}
</style>
<g>
	<path class="st0" d="M67.4,104c-11.8,0-24.3-0.8-36.5-5.4C20.8,94.9,12.6,88.3,7.2,79.5C1.6,70.2-1,58.2,0.3,47.4c0,0,0,0,0,0
		c0.2-1.6,0.5-3.1,0.8-4.6C8.2,13.4,36.8,9.8,50.6,8c58.4-7.4,118-7.3,175.5-7.1c29.2,0.1,59.4,0.2,89.1-0.7
		c15.5-0.5,30.9,0.1,47.9,0.7c33.1,1.3,53.1,16.7,53.6,41c0.4,20-10.1,37.8-20,46c-15.3,12.6-34.3,12.8-49.6,13L70.6,104
		C69.5,104,68.5,104,67.4,104z M5.8,48C4.6,57.5,7,68.5,11.9,76.6c4.8,7.9,11.8,13.6,20.9,16.9c12.5,4.6,25.5,5.2,37.7,5L347,95.4
		c15.1-0.2,32.3-0.4,46.1-11.7c9.2-7.5,18.3-24.3,18-41.6C410.6,11.6,377.2,7,362.9,6.4c-17-0.7-32.2-1.2-47.5-0.7
		c-29.8,0.9-60,0.8-89.3,0.7c-57.4-0.2-116.7-0.3-174.8,7.1C31.2,16,11.9,21.5,6.5,44C6.2,45.3,6,46.7,5.8,48L5.8,48z"/>
</g>
</svg>
