<?xml version="1.0" encoding="utf-8"?>
<!-- Generator: Adobe Illustrator 24.1.2, SVG Export Plug-In . SVG Version: 6.00 Build 0)  -->
<svg version="1.1" id="Слой_1" xmlns="http://www.w3.org/2000/svg" xmlns:xlink="http://www.w3.org/1999/xlink" x="0px" y="0px"
	 viewBox="0 0 1203.66 1098.52" style="enable-background:new 0 0 1203.66 1098.52;" xml:space="preserve">
<style type="text/css">
	.st0{fill:#EAA70E;}
</style>
<path class="st0" d="M1203.36,575.55c9.48,236.61-207.97,400.17-407.17,480.38c-156.87,53.85-279.37,61.27-434.21-4.72
	c-69.08-26.81-130.26-71.55-188.74-116.38C64.63,837.65-24.74,694.3,6.2,543.59c22.58-115.27,70.57-228.06,143.45-320.84
	c46.11-53.78,100.1-101.41,158.18-141.7C478.31-13.72,603.51-24.71,786.25,44.54c46.32,17.1,89.32,40.13,129.21,68.17
	c63.94,36.68,118.96,86.17,164.79,143.24c42.44,59.45,77.31,124.61,100.75,194.05C1191.43,489.78,1197.97,535.18,1203.36,575.55z"/>
</svg>
