<svg xmlns="http://www.w3.org/2000/svg" width="544" height="466" viewBox="0 0 544 466"><g><g><path fill="#4d6c45" d="M-127.333 139.596c74.013 3.927 109.76 52.116 102.474 114.791-1.419 10.435-9.68 56.821-19.507 75.39-.807 8.339-1.768 16.687-3.182 24.907-.842 4.891-2.665 10.008-4.383 14.965a356.902 356.902 0 0 0-1.177 3.441c30.977-30.129 64.173-57.055 98.286-80.16 1.156-5.523 3.837-11.165 6.52-16.637 2.208-4.506 4.328-8.755 5.48-12.608 2.083-6.975 3.838-14.162 5.451-21.407-21.854-11.699-32.918-36.092-38.27-59.949-3.996-17.516.528-36.703 2.196-55.339-.315-5.165 23.944-79.382 30.946-82.68 10.652-5.682 43.701 40.437 45.765 46.116 16.48 42.747-.698 83.911-23.922 127.118a918.5 918.5 0 0 0-.437 2.005c-3.232 14.943-6.277 30.352-10.77 45.146-1.45 4.763-3.904 9.64-6.236 14.358a246.401 246.401 0 0 0-2 4.13c31.344-20.252 64.293-38.686 97.071-55.078 1.76-5.336 5.024-10.628 8.273-15.754 2.688-4.253 5.268-8.255 6.835-11.966 4.152-9.834 7.654-20.196 11.032-30.535-8.849 4.421-9.286-35.347-9.7-45.553C171.235 99.967 190.55 17.625 226.686.93c9.356-4.393 18.866 46.781 17.635 53.974-6.513 35.193-15.674 77.46-45.77 103.905-4.853 14.516-9.569 29.516-15.657 43.746-1.966 4.585-4.944 9.175-7.78 13.627a239.709 239.709 0 0 0-2.715 4.338 1364.583 1364.583 0 0 1 41.573-19.206 1733.61 1733.61 0 0 1 10.088-4.425c8.06-3.502 16.494-7.058 25.154-10.443 2.103-2.584 5.023-4.792 7.122-6.354.94-.7 2.231-1.659 2.581-2.023 7.687-8.164 14.813-17.456 21.857-26.68-16.007-1.315 3.28-28.253 7.411-42.155 6.865-24.923 38.071-46.397 64.644-59.207 13.576-6.633 29.932-12.174 45.018-15.616 1.055-.236 2.664-.947 3.213-.28 3.728 4.983-25.716 47.331-29.655 53.351-7.969 10.857-21.624 22.23-33.18 30.773-13.536 9.95-27.319 24.617-42.228 30.564-.427.551-.858 1.105-1.28 1.653-7.113 9.193-14.242 18.69-21.957 27.5 11.59-3.776 23.31-6.928 34.771-9.046 11.684-8.894 60.753-25.836 69.17-27.625 44.865-11.733 100.227-7.156 135.553 14.806 4.745 2.751 31.821 13.068 31.577 17.934-.293 7.25-21.027 8.737-26.37 9.732-24.807 4.33-48.616 12.295-73.908 13.24-20.359.791-39.523-1.102-59.699-2.542-23.248-1.67-47.6-8.019-68.397-17.053-1.495.235-2.99.472-4.475.728-16.469 2.854-33.333 7.972-49.97 14.144 3.18.97 7.945 1.918 10.68 2.477 2.69.546 5.088 1.051 7.072 1.617 17.952-3.913 39.845 8.117 57.93 12.138 5.042 1.106 9.49 3.491 14.13 5.423 15.8 6.597 28.733 13.157 42.494 22.286 9.214 5.751 45.013 30.23 46.508 40.937 1.248 6.841-52.285 4.564-58.494 3.931-41.508-7.34-71.826-35.769-95.855-64.704-4.987-6.076-20.02-8.042-19.552-12.386-8.448-1.723-14.779-3.322-17.652-6.796-6.792 2.732-13.53 5.581-20.18 8.47a1864.59 1864.59 0 0 0-10.042 4.403c-15.15 6.7-30.347 13.726-45.109 20.92 5.09 1.535 11.661 3.223 14.89 4.073 3.961 1.04 5.901 1.567 6.955 1.986 2.04.81 4.01 1.64 5.943 2.48 6.395-5.02 34.02 7.678 42.982 11.134 32.531 11.987 55.851 40.286 68.17 69.322 1.366 3.154 9.84 19.25 9.433 21.68-.333 2.065-11.134-.373-12.887-.624-13.969-2.18-28.518-8.024-41.04-14.457-32.417-16.804-61.906-42.479-67.173-75.59a179.332 179.332 0 0 0-11.01-4.739c-.599-.229-3.347-.948-5.774-1.573-12.174-3.134-19.56-5.105-23.546-7.234-33.449 16.783-67.044 35.71-98.822 56.5 5.252 1.005 12.145 2.012 15.5 2.523 4.042.615 6.026.938 7.113 1.238 1.904.531 3.76 1.082 5.58 1.646 8.425.455 18.662 2.731 23.295 3.333 33.475 4.185 67.67 31.933 84.684 56.42 2.788 3.846 21.503 25.949 20.043 28.864-3.643 7.35-42.29 5.362-51.58 4.569-46.608-5.445-87.345-42.526-89.103-85.542a381.115 381.115 0 0 0-3.352-.503c-12.282-1.803-19.798-2.974-24.008-4.637-34.839 23.729-68.694 51.499-100.133 82.64 5.313.374 12.238.563 15.612.674 4.067.13 6.066.217 7.18.388 6.27.974 12.102 2.184 17.617 3.62a40.067 40.067 0 0 1 1.457-4.448c6.372-15.903 31.135-9.295 42.17-8.212 40.642 3.816 63.367 31.058 88.942 56.483 3.424 3.357 23.885 25.836 19.941 28.97-9.226 7.325-31.028 2.51-41.343 2.36-35.568-1.151-83.392-5.852-103.3-38.171-4.87-8.115-8.852-16.756-9.143-26.321-6.063-1.678-12.558-3.042-19.615-4.1-.629-.087-3.454-.182-5.944-.249-11.227-.309-18.505-.556-23.019-1.466-.828.852-1.66 1.69-2.485 2.543a1263.1 1263.1 0 0 0-1.607 1.666c-9.327 9.686-18.79 19.884-25.54 30.495-1.014 1.596-2.086 3.492-3.21 5.503-3.717 6.64-7.823 14.17-13.998 18.947-1.143.881-2.453 1.328-3.693 1.344-1.47.018-2.839-.56-3.7-1.725-1.594-2.148-.847-5.48 1.673-7.429 3.93-3.039 7.347-9.312 10.431-14.838 1.211-2.173 2.362-4.223 3.56-6.109 7.373-11.629 17.75-22.812 27.076-32.499.536-.558 1.073-1.115 1.61-1.67 1.13-1.17 2.266-2.32 3.401-3.482.21-6.026 2.327-12.444 4.47-18.67 1.621-4.727 3.194-9.189 3.855-13.144.986-5.902 1.728-11.919 2.352-17.979-56.154-13.603-80.98-59.1-81.624-117.847-.639-4.809-.016-79.08 1.086-79.679 2.814-2.268 6.29-.016 9.353.127z"/></g></g></svg>