<svg xmlns="http://www.w3.org/2000/svg" width="311" height="373" viewBox="0 0 311 373"><g><g><path fill="#4d6c45" d="M370.748 328.132c16.664-9.837 34.108-31.029 46.746-49.932 48.85-73.07 73.54-132.193 29.96-150.408-48.746-20.374-77.862 127.005-77.862 127.005S384.822 4.237 283.424.13c-56.094-2.272 55.333 228.158 55.333 228.158S207.042-37.2 156.505 30.638c-25.813 34.65 96.72 137.168 150.642 217.896-57.635-65.496-152.542-161.34-209.112-154.5-53 6.407-47.732 68.951-.37 83.168 131.7 39.532 194.197 115.98 194.197 115.98s-34.549-31.357-106.77-63.855C107.59 194.452 4.693 172.84.208 225.12c-4.784 55.774 150.127 43.823 217.684 67.016 54.98 18.875 77.906 38.78 77.906 38.78s-45.234-21.212-131.386-32.76c-35.3-4.733-74.069-4.75-108.238 6.446-11.59 3.798-24.64 9.385-31.959 19.687-4.553 6.41-10.936 49.731 29.154 42.548 100.053-17.926 171.802-9.179 260.205 6.522z"/></g></g></svg>