<?xml version="1.0" encoding="utf-8"?>
<!-- Generator: Adobe Illustrator 24.1.2, SVG Export Plug-In . SVG Version: 6.00 Build 0)  -->
<svg version="1.1" id="Слой_1" xmlns="http://www.w3.org/2000/svg" xmlns:xlink="http://www.w3.org/1999/xlink" x="0px" y="0px"
	 viewBox="0 0 705.66 576.86" style="enable-background:new 0 0 705.66 576.86;" xml:space="preserve">
<style type="text/css">
	.st0{fill:#4D6C45;}
</style>
<path class="st0" d="M704.82,493.75c0,0-38.83-70.99-81.58-101.51c-41.86-29.88-119.15-43.59-122.35-44.15
	c-5.65-3.62-11.38-6.99-16.95-10.15c-24.31-13.78-51.92-23.73-78.13-33.2c-63.04-22.74-117.46-55.13-162.21-105.66
	c-26.22-29.6-48.41-63.01-73.16-94.05c7.51,6.49,15.25,12.7,23.58,17.95c14.92,9.42,35.59,25.09,50.9,33.87
	c21.81,12.51,66.73,25.37,87.57,25.98c43.95,1.28,85.79-11.1,97.51-16.04c42.37-17.85,91.8-74.41,91.8-74.41
	c2.76-3.13,1.59-5.86-2.56-6.08c0,0-69.83-3.61-112.2,14.26c-39.07,16.46-81.37,62.33-87.73,69.38
	c-27.57,1.66-100.5-38.99-129.4-61.25c-22.8-17.56-43.6-37.61-66.05-55.62c-23.05-18.48-48.45-37.71-77-46.63
	c-7.58-2.36-15.4-3.84-23.3-4.58C19.1,1.47,14.65,0.76,10.17,0.4C6.67,0.12-3.27-1.55,1.08,4.88c4.14,6.11,12.34,7.02,18.41,10.34
	c7.35,4.03,14.4,6.17,22.37,8.65c8.09,2.52,15.96,6.03,23.66,9.53c15.59,7.08,30.16,16.52,43.64,27.02
	c7.93,6.17,15.41,12.89,22.51,19.99c41.75,41.81,72.71,93.4,112.94,136.61c7.24,7.76,14.84,15.1,22.75,22.04
	c18.72,18.76,43.15,32.24,57.45,55.46c9.5,15.44,18.07,26.78,21.85,44.49c-0.49,1.22,0.62,39.65-33.94,107.68
	c-22.49,44.27,0.3,129.97,7.54,130.18c7.25,0.21,62.89-36.87,75.9-115.4c7.7-46.54-34.5-112.28-41.95-124.4
	c-4.49-24.67-28.01-54.49-29.83-57.23c15.96,9,35.91,18.66,52.96,25.59c25.58,10.42,51.78,19.45,77.51,29.57
	c13.52,5.32,28.37,11.46,42.4,19.03c3.72,6.67,40.71,71.97,81.24,100.9c42.74,30.52,122.51,44.19,122.51,44.19
	C705.1,499.82,706.83,497.4,704.82,493.75z"/>
</svg>
