<?xml version="1.0" encoding="utf-8"?>
<!-- Generator: Adobe Illustrator 24.1.2, SVG Export Plug-In . SVG Version: 6.00 Build 0)  -->
<svg version="1.1" id="Слой_1" xmlns="http://www.w3.org/2000/svg" xmlns:xlink="http://www.w3.org/1999/xlink" x="0px" y="0px"
	 viewBox="0 0 307.5 231.4" style="enable-background:new 0 0 307.5 231.4;" xml:space="preserve">
<style type="text/css">
	.st0{fill:#75C3BA;}
</style>
<path class="st0" d="M276.7,121.7c-42.9-50.9-89.9-78.9-91.6-78.1c-1,0.5,4.9,15.2,2.9,34.9c-2.7-3.6-5.5-7.2-8.6-10.5
	c-17.7-19.1-35.6-30.6-58.3-42.1c-4.5-2.3-9.3-5.7-14.5-6.1c3.4,9.5,6.8,19,10.2,28.5C71.4,15.1,0,0,0,0s10.5,26.5,33.2,56.1
	c22.7,29.5,39.4,46.2,39.4,46.2s-21.8,1.1-32.5,2.9c2.8-0.5,30.1,39.3,94,59c-17.3,8.3-30.9,11.9-34.4,12.1
	c-4,0.2,20.1,14.3,22.3,15.6c12.9,7.8,26.5,14.6,40.5,20.2c23.3,9.4,47.8,15.7,72.8,18.7c20.8,2.5,52.7-0.5,64.9-20.5
	C319,179.3,297.7,146.6,276.7,121.7z"/>
</svg>
