<?xml version="1.0" encoding="utf-8"?>
<!-- Generator: Adobe Illustrator 24.1.2, SVG Export Plug-In . SVG Version: 6.00 Build 0)  -->
<svg version="1.1" id="Слой_1" xmlns="http://www.w3.org/2000/svg" xmlns:xlink="http://www.w3.org/1999/xlink" x="0px" y="0px"
	 viewBox="0 0 696.52 447.92" style="enable-background:new 0 0 696.52 447.92;" xml:space="preserve">
<style type="text/css">
	.st0{fill:#CFAE2C;}
</style>
<g>
	<path class="st0" d="M343.35,317.13c-5.51,8.93-42.42,67.25-81.66,92.91c-42.56,27.85-119.24,37.8-119.24,37.8
		c-4.56,0.59-6.37-2.16-3.99-6.1c0,0,39.84-66.27,82.39-94.11c11.77-7.7,24.81-13.38,37.99-18.16
		c21.11-7.64,46.69-14.86,68.34-20.73c87.65-23.78,166.12-24.71,180.66-21.73c8.12,1.66,16.05,4.25,23.89,7.13
		c-28.7-17.09-56.08-36.79-85.51-52.31c-50.22-26.48-102.68-35.82-159.05-35c-23.44,0.33-48.13,0.7-71.35-2.93
		c-5.32-0.83-10.83-1.78-16.35-2.95c-2.69,0.5-65.51,16.96-107.33,5.87c-42.71-11.33-90.49-58.76-90.49-58.76
		c-2.66-2.28-2.02-4.7,1.42-5.37c0,0,60.89-17.08,103.59-5.76c40.5,10.74,89.01,54.11,93.92,58.26c13.29,1.8,31.71,4.06,43.93,4.23
		c23.25,0.32,41.65-2.18,64.88-1.58c15.47,0.4,30.91,1.73,46.14,4.07c-2.25-1.62-4.47-3.32-6.62-5.18
		c-12.16-10.55-23.36-22.55-33.41-35.32c-10.86-5.04-64.33-25.43-77.57-62.84C220.66,49.77,186.41,5.1,186.41,5.1
		c-2.66-2.28-2.01-4.58,1.46-5.1c0,0,78.29,11.05,104.6,56.89c21.79,37.96,29.28,100.58,29.51,101.66
		c10.87,10.67,21.48,21.63,33.55,30.96c18.15,14.03,39.83,18.7,60.13,27.9c8.28,3.11,16.44,6.63,24.45,10.59
		c44.49,22.06,84.18,53.48,129.46,73.99c7.7,3.48,15.58,6.55,23.65,9.05c13.73,4.26,28,7.36,42.37,8.31
		c7.1,0.47,14.34,0.89,21.45,0.47c7.01-0.41,13.2-0.82,20.18,0.17c5.76,0.81,12.49-0.91,17.56,2.67c5.33,3.77-2.99,5.41-5.82,6.22
		c-3.64,1.05-7.35,1.81-11,2.82c-6.44,1.77-13.03,2.93-19.7,3.32c-25.12,1.46-50.82-6.14-74.45-13.84
		c-23.02-7.51-44.36-22.38-68.5-24.17c-32.21-2.39-79.91,0.7-114.27,7.74S343.35,317.13,343.35,317.13z"/>
</g>
</svg>
