<svg xmlns="http://www.w3.org/2000/svg" width="557" height="319" viewBox="0 0 557 319"><g><g><path fill="#cfae2c" d="M236.172 125.919S142.359 71.158 75.575 71.775c-66.785.617-81.88 30.647-71.8 48.579 10.078 17.932 160.315 19.643 160.315 19.643S46.434 149.835 46.733 204.66c.299 54.825 77.493-32.333 126.354-47.295 48.86-14.962 57.21-13.799 57.21-13.799l107.513 33.118s-129.261-26.144-177.784 23.952c-48.524 50.095-10.803 57.504 16.487 47.023 27.29-10.48 75.375-50.599 127.739-57.143 52.363-6.544 63.3 2 63.3 2l80.72 33.434s-143.057-50.486-166.555 5.284c-23.5 55.771 115.622 15.819 115.622 15.819s-104.845 40.976-56.883 66.875c47.963 25.898 96.314-58.544 130.613-62.525 17.727-2.058 59.757 16.907 96.234 35.715 34.104 17.583 51.094 29.986 51.094 29.986l7.399-5.987-70.005-46.149s-36.133-33.433-66.354-90.895c-30.221-57.462-8.605-99.243-37.305-104.951-28.7-5.707-18.797 60.497-18.797 60.497s-43.398-102.472-77.621-68.07c-34.224 34.402 63.669 106.546 95.029 135.756 31.359 29.21 65.83 48.076 65.83 48.076L336.17 159.202S260.928 32.383 197.676 8.016c-63.253-24.367-50.051 16.043-11.017 60.747 39.035 44.702 124.025 88.49 124.025 88.49z"/></g></g></svg>