<svg xmlns="http://www.w3.org/2000/svg" width="611" height="487" viewBox="0 0 611 487"><g><g><path fill="#4d6c45" d="M589.73 359.669c-17.382-11.33-33.52-24.154-49.324-37.29-9.584-7.967-19.085-16.07-28.718-24.032-10.408-8.603-20.978-17.03-31.982-24.932-8.611-6.185-17.482-12.056-26.764-17.42-17.352-10.024-35.894-17.753-55.107-24.428-19.305-6.704-38.792-13.013-58.216-19.45 45.033-10.956 91.022-17.851 137.266-21.432 4.602 3.214 9.329 6.278 14.294 9.005 3.64 2 7.367 3.874 11.18 5.588a258.66 258.66 0 0 0 5.945 2.596c8.938 3.758 18.678 7.058 28.438 7.416 12.509.459 25.708-4.868 37.38-9.228 12.247-4.575 24.217-10.461 33.953-19.093 2.29-2.03 3.593-5.984.474-7.888a194.345 194.345 0 0 0-16.053-8.78c-8.333-4.066-17.012-7.56-25.972-10.365a176.165 176.165 0 0 0-20.292-5.07c-5.63-1.051-11.488-1.655-17.316-1.094-6.197.596-12.088 2.752-17.726 5.359-11.941 5.52-23.73 11.388-35.574 17.107-.003.11-.034.22-.041.33-43.871 3.42-87.58 9.74-130.465 19.64 2.385-2.185 16.219-17.181 19.704-23.27 14.597-25.505 21.325-54.628 27.257-82.418 5.224-24.478 8.759-49.145 10.767-73.861.33-4.086.633-8.172.882-12.26.19-3.142-3.943-5.194-6.87-4.077-.048.018-.098.03-.146.05-.03.012-.057.026-.086.038-15.805 6.709-29.288 17.532-39.762 30.56a118.16 118.16 0 0 0-3.286 4.29c-17.446 23.832-24.79 52.219-29.567 79.92-2.843 16.485-5.077 33.028-7.193 49.57-1.013 7.923.887 33.395 1.742 38.409-7.663 2.107-19.602 5.104-27.196 7.46a691.093 691.093 0 0 0-59.82 21.653 80.237 80.237 0 0 0 2.586-4.462c5.496-10.34 9.319-21.237 12.62-32.254 3.377-11.273 7.087-22.736 8.375-34.34 1.257-11.331-.76-22.844 2.043-34.08 1.107-4.435-3.164-7.398-7.576-5.601-11.871 4.834-22.893 10.365-31.49 19.684-14.135 15.324-21.08 35.119-23.957 54.534-1.62 10.93-1.654 21.924-.381 32.783.729 6.224 1.68 12.865 4.028 18.859-15.42 7.448-30.557 15.47-45.29 24.188-18.35 10.858-47.32 30.447-45.46 29.443 7.638-12.377 14.507-25.12 20.46-38.247 31.087-68.534 39.315-142.385 41.574-214.74.122-3.896-5.18-5.511-8.287-3.363-17.387 12.009-32.323 27.058-44.245 43.893-22.304 31.495-34.314 67.785-38.313 104.44-2.156 19.77-2.242 39.587-.871 59.223.697 9.963 4.877 45.826 14.05 61.163-11.065 8.716-21.796 17.856-32.121 27.438-18.92 17.558-36.554 36.615-52.023 57.297-6.641 8.879-14.578 18.545-19.155 28.788-.06.133-.14.258-.208.387-4.237 8.075 8.312 14.663 12.556 6.573 1.053-2.008 2.233-3.954 3.413-5.89a226.046 226.046 0 0 1 4.412-6.931c.92-1.394 1.854-2.78 2.798-4.155.52-.756 1.046-1.51 1.57-2.263l.302-.431c.29-.407.579-.815.872-1.221 14.017-19.383 29.89-37.376 47-54.08 10.353-10.108 21.177-19.688 32.36-28.823a22.526 22.526 0 0 1 1.792 2.2c3.172 4.467 5.38 9.608 7.719 14.514 5.34 11.203 10.12 22.652 15.109 34.01 6.619 15.069 13.93 30.199 22.98 44.056 8.486 12.99 18.51 24.854 30.934 34.497 6.519 5.062 13.689 9.522 21.659 13.198 38.678 17.839 84.14 15.535 127.037 12.334 4.72-.353 6.512-6.297 3.14-8.883a927.226 927.226 0 0 1-50.574-41.677c-.417-.368-.83-.741-1.245-1.11-14.293-12.706-28.172-25.826-41.555-39.377a432.03 432.03 0 0 1-2.916-2.983c-11.996-12.37-23.383-25.341-36.288-36.884-13.283-11.88-28.687-21.05-45.831-27.566-11.1-4.218-22.655-7.392-34.361-10.093 28.076-20.966 92.603-56.147 89.15-51.958-.497 10.457-.054 21.278 5.762 30.257 5.98 9.237 16.177 15.747 25.466 21.898 19.368 12.827 40.717 23.01 63.23 30.534 3.77 1.259 7.762-2.584 6.836-6.023-3.211-11.923-7.282-23.662-12.377-34.953-4.252-9.423-10.096-17.941-18.273-24.774-7.686-6.421-35.506-20.536-53.881-27.21 19.3-8.786 39.032-16.602 59.027-23.46 15.267-5.235 30.713-9.86 46.272-14.045 4.05 20.774 14.834 39.189 31.002 53.534 15.704 13.933 34.575 24.897 52.194 36.604 2.605 1.732 5.209 3.466 7.818 5.19 13.334 8.819 26.818 17.4 41.517 24.205 2.05.949 4.117 1.872 6.217 2.748 19.472 8.118 40.217 13.966 61.005 18.874 20.804 4.91 42.017 8.492 63.474 10.794 4.928.529 8.959-5.97 4.513-8.866z"/></g></g></svg>