<svg xmlns="http://www.w3.org/2000/svg" viewBox="0 0 467.8 741.07"><title>flora18</title><g id="ad13626c-885c-484b-85f2-24539d77fbd5" data-name="Слой 2"><g id="b3f1a18d-2cce-400c-8d0e-e1bb1fa914d7" data-name="Design"><path d="M-4906.1,5702.59c50.86-56.8,39.76-122.48,69.46-201.76,38.31,67.44-9.06,143.46-30.3,181.31,20.4-18.14,48.88-50.63,62.15-80.27,30.58-68.32-3.75-159.34,22.29-226.52,43.88,37.06,14.19,127.48,1.72,190.72,51.7-87.85,58.06-122.42,48.44-188.32-5.76-39.54-21.59-73.29-21.25-116.16.06-6.8,4-28,10.35-31,31.87,27.38,40.2,116.22,33.61,192.12,39.06-154.49-1.95-208.64-1.21-282.14.06-6.73,3.38-28,9.23-28.19s40.81,35.94,41.08,117c.17,49.55-21.27,121.06-40.32,185.6,11.83-36.93,58-145.81,105.22-146.26,4,46.42-36.59,79.61-72.67,123.08-31.25,37.66-63,131.7-101.57,190.2,55.19-44.39,98.95-148.4,129.1-143.62-9.35,122.1-226.4,261.4-226.4,261.4s46.94-26,93.88-41.57c51.66-17.18,80.49,4.21,80.49,4.21s-25.84,14.82-79.48,27.24c-116.27,26.94-141.39,52.43-282.21,163.77-1.77-3.2-6.54-4-8.67-7C-5017.1,5802.68-4946.2,5747.38-4906.1,5702.59Z" transform="translate(5063.16 -5112.39)" style="fill:#4d6c45"/></g></g></svg>