<?xml version="1.0" encoding="utf-8"?>
<!-- Generator: Adobe Illustrator 24.1.2, SVG Export Plug-In . SVG Version: 6.00 Build 0)  -->
<svg version="1.1" id="Слой_1" xmlns="http://www.w3.org/2000/svg" xmlns:xlink="http://www.w3.org/1999/xlink" x="0px" y="0px"
	 viewBox="0 0 190.43 343.71" style="enable-background:new 0 0 190.43 343.71;" xml:space="preserve">
<style type="text/css">
	.st0{fill:#D6496F;}
</style>
<path class="st0" d="M154.99,138.04c-1.05-0.13-4.26,15.36-16.71,30.76c-0.23-4.5-0.66-9.01-1.41-13.52
	c-4.28-25.69-13.03-45.09-25.68-67.22c-2.52-4.41-4.69-9.87-8.79-13.06c-2.37,9.79-4.74,19.58-7.11,29.37
	C75.49,51.82,24.09,0,24.09,0s-5.79,27.94-3,65.09s7.65,60.25,7.65,60.25S9.88,114.3,0,109.91c2.58,1.15,3.66,49.37,46.21,100.85
	c-18.95-2.56-32.34-6.97-35.35-8.76c-3.4-2.03,8.99,22.98,10.09,25.27c6.54,13.63,14.19,26.73,22.81,39.14
	c14.33,20.63,31.37,39.39,50.58,55.58c15.98,13.47,44.38,28.51,65.53,18.43c32.57-15.52,32.75-54.53,28.85-86.84
	C180.76,187.49,156.88,138.27,154.99,138.04z"/>
</svg>
