<?xml version="1.0" encoding="utf-8"?>
<!-- Generator: Adobe Illustrator 24.1.2, SVG Export Plug-In . SVG Version: 6.00 Build 0)  -->
<svg version="1.1" id="Слой_1" xmlns="http://www.w3.org/2000/svg" xmlns:xlink="http://www.w3.org/1999/xlink" x="0px" y="0px"
	 viewBox="0 0 490.83 389.84" style="enable-background:new 0 0 490.83 389.84;" xml:space="preserve">
<style type="text/css">
	.st0{fill-rule:evenodd;clip-rule:evenodd;fill:url(#SVGID_1_);}
</style>
<linearGradient id="SVGID_1_" gradientUnits="userSpaceOnUse" x1="13230.6133" y1="-463.068" x2="13000.9033" y2="-105.741" gradientTransform="matrix(-0.9976 0.0695 0.0695 0.9976 13300.8242 -446.3691)">
	<stop  offset="0" style="stop-color:#E7613F"/>
	<stop  offset="1" style="stop-color:#C7361E"/>
</linearGradient>
<path class="st0" d="M387.13,342.6c17.41-10.27,35.62-32.41,48.82-52.15c51.02-76.32,76.81-138.07,31.29-157.09
	c-50.91-21.28-81.32,132.65-81.32,132.65s15.91-261.7-90-265.99c-58.59-2.37,57.79,238.3,57.79,238.3S216.14-38.97,163.36,31.88
	C136.4,68.07,264.38,175.15,320.7,259.47C260.5,191.06,161.37,90.95,102.29,98.1c-55.36,6.69-49.85,72.02-0.39,86.87
	C239.46,226.25,304.73,306.1,304.73,306.1s-36.09-32.75-111.52-66.69c-80.95-36.43-188.42-59-193.1-4.39
	c-5,58.25,156.8,45.77,227.36,70c57.42,19.71,81.37,40.5,81.37,40.5s-47.25-22.16-137.23-34.22c-36.87-4.94-77.36-4.96-113.05,6.73
	c-12.11,3.97-25.74,9.8-33.38,20.56c-4.76,6.7-11.42,51.94,30.45,44.44c104.5-18.72,179.44-9.59,271.77,6.81"/>
</svg>
