<svg xmlns="http://www.w3.org/2000/svg" width="462" height="462" viewBox="0 0 462 462"><g><g><path fill="#d6496f" d="M276.582 3.862c1.16 17.342 3.92 34.388 7.044 51.317 1.895 10.266 3.924 20.528 5.796 30.828 2.023 11.128 3.85 22.304 5.117 33.582.992 8.825 1.648 17.712 1.765 26.691.218 16.786-1.73 33.5-4.724 50.273-3.008 16.853-6.38 33.677-9.635 50.506 26.453-28.418 50.33-59.198 71.89-91.52-.465-4.68-.767-9.389-.726-14.134.03-3.48.188-6.97.497-10.459.157-1.769.33-3.578.538-5.407.915-8.07 2.494-16.539 6.231-23.817 4.788-9.328 14.087-16.79 22.055-23.534 8.358-7.075 17.563-13.409 27.86-16.989 2.42-.84 5.842-.173 5.956 2.886.19 5.082.133 10.2-.159 15.326a156.048 156.048 0 0 1-3.066 23.223 147.547 147.547 0 0 1-4.608 16.905c-1.537 4.543-3.496 9.072-6.293 13.101-2.975 4.284-6.963 7.705-11.178 10.757-8.925 6.464-18.04 12.674-27.072 18.986-.08-.042-.174-.065-.257-.105-20.47 30.655-42.992 60.004-67.793 87.286 2.573-.849 19.198-4.814 25.075-4.867 24.615-.217 48.651 6.796 71.387 13.845 20.026 6.21 39.498 13.73 58.381 22.389a503.762 503.762 0 0 1 9.32 4.378c2.373 1.146 2.18 5.007.164 6.688-.032.028-.062.06-.096.087l-.063.046c-11.377 8.801-24.808 14.22-38.618 16.537-1.496.251-2.99.461-4.48.643-24.56 2.985-48.31-3.276-70.509-11.132-13.21-4.676-26.214-9.82-39.167-15.05-6.205-2.505-24.038-14.327-27.352-17.006-4.678 4.736-11.759 12.232-16.592 16.816a578.554 578.554 0 0 1-40.324 34.84c1.44-.06 2.88-.093 4.32-.06 9.805.218 19.334 1.89 28.736 3.99 9.62 2.15 19.516 4.134 28.523 7.946 8.795 3.724 16.381 9.913 25.74 12.468 3.693 1.007 4.11 5.342.988 7.83-8.395 6.694-16.95 12.482-27.28 14.946-16.989 4.052-34.298 1.018-49.663-4.833-8.65-3.294-16.697-7.77-24.11-13.15-4.249-3.082-8.714-6.497-12.13-10.668-11.759 8.214-23.822 15.99-36.227 23.185-15.45 8.96-41.632 22.104-40.135 21.155 12.171-.51 24.297-.309 36.327.718 62.812 5.358 120.145 29.598 173.94 57.585 2.897 1.508 1.905 6.042-.936 7.434-15.898 7.785-33.013 12.534-50.198 14.35-32.149 3.397-63.586-2.693-92.008-14.786-15.329-6.523-29.844-14.577-43.63-23.623-6.996-4.59-31.487-22.334-38.936-35.32a437.515 437.515 0 0 1-33.207 12.23c-20.58 6.632-41.729 11.712-63.177 14.543-9.208 1.215-19.523 3.056-28.882 2.204-.12-.01-.246-.003-.367-.006-7.637-.211-7.31-12.08.34-11.866 1.898.053 3.804-.012 5.701-.082 2.293-.084 4.585-.217 6.873-.384 1.394-.101 2.788-.217 4.181-.343.766-.07 1.531-.146 2.297-.22l.438-.045c.417-.045.834-.089 1.25-.137 19.905-2.302 39.554-6.53 58.768-12.19 11.627-3.425 23.061-7.41 34.317-11.839a18.84 18.84 0 0 0-.874-2.21c-1.965-4.148-4.816-7.868-7.443-11.586-5.999-8.49-12.406-16.675-18.662-24.97-8.3-11.01-16.36-22.55-22.778-34.84-6.017-11.52-10.578-23.706-12.536-36.734-1.028-6.837-1.35-13.903-.77-21.232 2.807-35.568 23.114-67.844 43.024-97.876 2.192-3.306 7.27-2.18 7.778 1.343a776.297 776.297 0 0 0 9.736 54.027c.098.455.202.909.301 1.364 3.43 15.649 7.331 31.164 11.751 46.493.321 1.12.651 2.237.984 3.353 4.125 13.833 8.94 27.467 12.087 41.625 3.24 14.572 3.631 29.584 1.37 44.78-1.466 9.838-3.88 19.582-6.7 29.242 26.82-11.926 78.958-44.666 74.482-43.858-7.844-3.92-15.569-8.677-19.748-16.605-4.299-8.154-4.88-18.271-5.569-27.577-1.439-19.407-.135-39.178 3.59-58.71.624-3.272 5.067-4.614 7.2-2.529 7.397 7.231 14.308 15.013 20.47 23.362 5.144 6.966 8.975 14.726 10.618 23.5 1.543 8.246.462 34.356-2.189 50.516 14.326-10.503 28.12-21.72 41.321-33.52 10.08-9.012 19.786-18.404 29.217-28.058-13.52-11.47-22.559-26.893-26.418-44.582-3.748-17.183-4.029-35.463-5.366-53.132-.199-2.613-.399-5.226-.59-7.839-.982-13.356-1.729-26.723-.68-40.25.146-1.888.318-3.777.54-5.67 2.043-17.553 6.267-35.107 11.197-52.308 4.934-17.212 11.005-34.179 18.113-50.8 1.633-3.818 8.032-4.102 8.327.333z"/></g></g></svg>