<svg xmlns="http://www.w3.org/2000/svg" width="584" height="448" viewBox="0 0 584 448"><g><g><path fill="#eaa70e" d="M343.347 317.28c-5.512 8.934-42.423 67.245-81.662 92.908-42.558 27.854-119.243 37.798-119.243 37.798-4.558.592-6.366-2.155-3.988-6.104 0 0 39.842-66.272 82.394-94.114 11.77-7.697 24.811-13.384 37.994-18.16 21.11-7.642 46.694-14.857 68.34-20.731 87.648-23.785 166.12-24.714 180.657-21.732 8.117 1.662 16.05 4.249 23.888 7.13-28.696-17.086-56.082-36.79-85.512-52.305-50.223-26.484-102.683-35.825-159.05-35.003-23.443.33-48.127.703-71.352-2.93-5.319-.827-10.828-1.783-16.35-2.954-2.688.505-65.512 16.959-107.334 5.867-42.707-11.33-90.488-58.764-90.488-58.764-2.662-2.28-2.017-4.696 1.42-5.365 0 0 60.886-17.085 103.593-5.755 40.498 10.74 89.01 54.11 93.918 58.257 13.292 1.796 31.712 4.057 43.932 4.228 23.253.322 41.654-2.183 64.883-1.581 15.473.398 30.91 1.726 46.142 4.067-2.254-1.615-4.475-3.317-6.623-5.177-12.16-10.555-23.357-22.55-33.408-35.321-10.858-5.042-64.33-25.432-77.57-62.841-17.267-48.782-51.524-93.453-51.524-93.453-2.66-2.281-2.005-4.575 1.464-5.096 0 0 78.287 11.05 104.596 56.892C314.25 95 321.747 157.618 321.97 158.704c10.872 10.67 21.483 21.628 33.547 30.957 18.147 14.033 39.83 18.696 60.135 27.902a267.31 267.31 0 0 1 24.448 10.59c44.495 22.064 84.182 53.483 129.461 73.993 7.697 3.482 15.576 6.546 23.652 9.05 13.728 4.263 27.997 7.363 42.371 8.307 7.102.467 14.34.89 21.454.472 7.013-.414 13.201-.822 20.18.166 5.76.809 12.487-.91 17.562 2.673 5.328 3.767-2.987 5.406-5.822 6.222-3.639 1.049-7.35 1.813-10.998 2.82-6.438 1.77-13.029 2.926-19.7 3.317-25.119 1.458-50.824-6.138-74.452-13.837-23.018-7.51-44.357-22.38-68.5-24.167-32.209-2.386-79.912.697-114.266 7.744-34.355 7.047-57.694 12.367-57.694 12.367z"/></g></g></svg>