<svg xmlns="http://www.w3.org/2000/svg" viewBox="0 0 450.43 357.88"><title>Ресурс 1</title><g id="aa67bd49-695d-4da0-ae04-7a5c870e9f1d" data-name="Слой 2"><g id="a6ffd716-90aa-4306-93de-fe75f40976af" data-name="Design"><path d="M-2325.13-5578.37a2.43,2.43,0,0,0-.08.55,371,371,0,0,0,2,59.14c.14,1.25.29,2.53.44,3.82,1.83,15.27,4.71,33,13.61,45.75-1.79,0-3.58.14-5.35.3a23.47,23.47,0,0,1-2.33-2.82c-2.71-5-5.26-10-7.82-15.08-.12-.29-.24-.56-.33-.79-4.31-10.1-7.42-20.34-13.57-29.6-6.92-10.4-17.57-16.39-29.63-18.63l-.24,0c-1.38.38-2.75.75-4.14,1.11-7.6,1.94-15.52,3.56-22.73,6.7-4,1.75-8.31,4-12.77,5.91a6.25,6.25,0,0,0,2.12,1.77c9.19,4.65,18.22,10.14,23,19.62.43.83.79,1.7,1.16,2.56a29.4,29.4,0,0,1-4.14,3.71,12.94,12.94,0,0,1-3.11,1.61c-.64-.29-1.28-.6-1.94-.87-20.82-8.87-43.61-7.14-64.43.43a5.52,5.52,0,0,0-1.39.78c1.12,5.24,1.67,10.58,3.11,15.77,1.94,7,6.23,12.34,9.82,18.47a58.66,58.66,0,0,0,13.13,9.29c10.41,5.49,22,8.3,33.33,11.58a7,7,0,0,0,.14,2.28c-6.76,2.44-16.31.25-23.07-.64s-13.65-2.45-20.52-3.15a3.35,3.35,0,0,0-2.43.74c2.21,9.5,4.28,19.08,6.76,28.54a35.56,35.56,0,0,0,11.33,11.93c9.46,6.2,21.33,6.83,32.28,6.29,13.21-.66,26.2-3.8,39.28-5.55,10.22-1.36,23.7-2.76,29.74,7.51a3.27,3.27,0,0,0,.44.58c-5.4,5.93-44.44,13.05-47.92,13.61a281.3,281.3,0,0,1-32.25,3.35c-5.86.26-13.38.91-19.49-.86a179.46,179.46,0,0,0,22.33,34,221.57,221.57,0,0,0,20.32,21.46,58.64,58.64,0,0,0,19.32.26c30.13-4.56,54.44-25.5,82.27-36.53-19.43,24.93-52.5,46.32-84.18,44.11a3,3,0,0,0-3.09,4.3c2.53,2,5.09,3.89,7.71,5.75,7.78,5.51,15.75,11,24.26,15.28,1.72.87,3.57,1.78,5.37,2.8q10.59,4.71,21.15,9.46c16-4.62,30.69-12.87,45.29-21,12.69-7.06,29.45-25.79,45.21-20.27a42.67,42.67,0,0,1-6.3,9.35,6.35,6.35,0,0,0-2.21,1.53c-1.34,1.42-2.75,3-4.22,4.57-8.95,7.16-20,11.85-30.54,17.61-17.28,9.48-32.75,21-45.26,36.33a3.09,3.09,0,0,0-.64,2.17c7.4,1.51,14.8,3.07,22.25,4.28,13.71,2.23,27.47,4,41.28,5.4,6.13.63,12.71.66,19.16,1.09,1,.06,2,.13,3,.22l.43-.3a68.68,68.68,0,0,0,10.15-8.67c.52-.52,1-1.06,1.52-1.6.37-.28.72-.57,1.08-.86a63.82,63.82,0,0,0,8.42-8.08c.28-.32.55-.65.83-1,6-7.16,10.79-15.37,15.53-23.56a148.09,148.09,0,0,1,.8,22.4,81.28,81.28,0,0,1-5.64,27.42,2.81,2.81,0,0,0,.24,2.74c13-4.65,24.59-14.81,36.42-22.12,12-14.33,19.23-32.37,22.34-51.34a140,140,0,0,0,1.46-32c0-.07,0-.15,0-.22,38.06,19.94,70.26,51.5,114.85,56.2a3.12,3.12,0,0,0,3.22-1.74,21.19,21.19,0,0,0,2.61-8.52,3.06,3.06,0,0,0-3.29-3.46c-28.9.88-52.63-14.94-75.4-30.81-10.51-7.32-22.37-16.36-34.91-23.14,19.33-15,35.17-33.84,42.58-57.7,7-22.59,5.06-51-5.75-72.16a3.92,3.92,0,0,0-.84-1.1c-.58-2.35-4.39-3.4-5.73-.57-5.7,12-18.75,31.95-33.29,38.39a51.14,51.14,0,0,0,0-19.46c1.05-14-2.69-27.52-9.46-39.86-3.21-4.13-6.06-8-8.46-10.73-9.35-10.61-21.74-17.64-33-26.09-1.38,4.3-1.19,9.77-2,14.11-1.48,7.75-3.65,15.38-5.55,23-2.66,10.74-4.86,21.77-3.71,32.69-7.55-4.63-11-9.72-12.27-20.62-1.48-12.41-2.59-24.89-5.52-37.07-1.81-7.5-4.1-15.35-7.78-22.35-15.78-7.47-31.42-15.48-48-20.94,4,17.41,9.84,34.34,13.77,51.78,3.8,16.87,6.53,36.59-1.79,52.48a2.83,2.83,0,0,0-.84.52c-2.44,2.13-4.5,3.1-6.25,3.24a33.23,33.23,0,0,0-7.25-7c-2.16-6.1-2.74-14.65-3-19.26-.87-13.22,1.23-26.29-.24-39.54a67.88,67.88,0,0,0-10.5-29.7,11.14,11.14,0,0,1-2.32-1.43c-5.54-3.49-10.72-8.49-16.09-11.88-6.47-4.09-13.28-7.59-19.79-11.59-3.55-2.17-7.8-5.23-12.29-7.91A2.73,2.73,0,0,0-2325.13-5578.37Z" transform="translate(2456.73 5579.92)" style="fill:#4d6c45"/></g></g></svg>