<?xml version="1.0" encoding="utf-8"?>
<!-- Generator: Adobe Illustrator 24.1.2, SVG Export Plug-In . SVG Version: 6.00 Build 0)  -->
<svg version="1.1" id="Слой_1" xmlns="http://www.w3.org/2000/svg" xmlns:xlink="http://www.w3.org/1999/xlink" x="0px" y="0px"
	 viewBox="0 0 199.15 264.6" style="enable-background:new 0 0 199.15 264.6;" xml:space="preserve">
<style type="text/css">
	.st0{fill:#EAA70E;}
</style>
<path class="st0" d="M81.78,53.2c3.16-11.87,7.59-23.37,13.48-34.15c1.94-3.55,4.09-7.24,4.04-11.28s-3.41-8.34-7.4-7.71
	c-2.64,0.42-4.53,2.72-6.07,4.9C64.79,36.44,56.68,73.35,53.42,110.85c-0.55,7.18-0.71,13.36,1.17,20.26
	c0.29,1.05,4.14,11.85,3.88,12.09C27.21,173.82-1.41,216.6,0.05,261.92c0.28,2.71,3.09,3.24,4.9,2.14c1.93,1.32,5.52-0.02,5.26-3.16
	c0.22-41.01,30.99-77.58,58.44-107.42c11.6,6.55,26.23,4.63,38.54,1.03c28.56-5.65,40.53-17.26,64.06-33.17
	c7.84-5.25,16.36-10.14,22.56-17.41c3.47-4.07,10.68-24.73-1.3-21.72c-5.04,1.27-12.45,10.67-16.54,14.08
	c-5.61,4.67-11.17,9.42-17.1,13.68c-50.93,36.52-73.02,32.01-73.02,32.01s68.85-43.8,92.63-66.09c7.15-6.71,21.82-15.64,5.66-22.51
	c-2.22-1.44-4.73-1-6.52,0.89c-16.21,13.78-81.06,66.94-81.06,66.94s37.77-43.58,61.49-65.66c6.96-6.48,8.65-19.77-3.65-20.57
	c-6.06,0.35-9.78,8.76-13.1,12.98c-17.13,21.84-49.59,53.88-49.59,53.88s4.36-30.99,38.74-68.27c1.13-1.22-0.95-3.12-2.07-4.35
	c-3.74-4.1-8.82-8.59-14.11-6.91C90.96,41.67,84.75,71.03,76.9,99.96C77.72,84.04,77.69,68.6,81.78,53.2z M161.39,63.43
	c0.19,0.17,0.38,0.34,0.56,0.52c-0.09,0.15-0.18,0.31-0.27,0.46C161.63,64.06,161.53,63.73,161.39,63.43z"/>
</svg>
