<?xml version="1.0" encoding="utf-8"?>
<!-- Generator: Adobe Illustrator 24.1.2, SVG Export Plug-In . SVG Version: 6.00 Build 0)  -->
<svg version="1.1" id="Слой_1" xmlns="http://www.w3.org/2000/svg" xmlns:xlink="http://www.w3.org/1999/xlink" x="0px" y="0px"
	 viewBox="0 0 641.9 461.6" style="enable-background:new 0 0 641.9 461.6;" xml:space="preserve">
<style type="text/css">
	.st0{fill:#CFAE2C;}
</style>
<path class="st0" d="M638.7,0.1c-6.2,0.7-10.1,6.4-14.9,9.6c-5.9,3.9-10.3,8.3-15.2,13.2c-5.1,5-10.8,9.5-16.4,13.8
	c-11.4,8.8-24.1,15.9-37.3,21.8c-7.7,3.5-15.6,6.4-23.7,8.9c-47.5,14.6-98.1,17.3-146,30.2c-8.6,2.3-17.1,5.1-25.3,8.2
	c-21.3,6.5-40.7,17.4-63.5,18.9c-15.2,1-30.4-0.2-45.6-1c-0.9-0.7-48-42.6-89.4-56.7C111.2,50.2,45.2,93.7,45.2,93.7
	c-2.3,2.7-1.2,4.8,2.3,4.8c0,0,55.2,10.8,100.5,35.9c34.7,19.3,88.3-0.8,99.7-4.2c16,2.9,32.3,4.5,48.4,4.4c2.8,0,5.6-0.2,8.4-0.5
	c-13,8.3-25.4,17.6-37.3,27.5c-17.8,14.9-29.9,29-47.6,44.1c-9.3,8-24.6,18.5-35.7,25.9c-6.4,0.1-71.5-0.3-109,18.5
	C35.4,269.9,1.1,323,1.1,323c-2.1,2.8-1,5,2.5,5c0,0,67.2,3.9,106.7-15.9c38.7-19.4,74.9-73.3,76.6-75.4c4.9-2.8,9.7-5.7,14.2-8.6
	c19.8-12.7,38.1-29.3,55.4-45c41.7-37.9,87.2-65.7,142.4-79c32.3-7.9,65.9-11.2,98.7-17.4c-7.8,3-15.4,6.3-22.6,10.5
	c-12.9,7.4-71.1,60-121,135.9c-12.3,18.7-26.7,41.1-37.5,60.8c-6.7,12.3-12.7,25.2-16.5,38.8c-13.5,49,0.5,125.1,0.5,125.1
	c0.8,4.5,4,5.4,7,1.9c0,0,50.9-58.2,64.4-107.3c12.4-45.2,1.5-113.4-0.3-123.7c0,0,14-19.4,35.1-47.5c21.1-28,54.8-61.9,80.5-81.4
	C506.5,85,532.3,82,554.5,72.4c22.8-9.9,47.1-21.2,65-38.9c4.7-4.7,8.9-9.9,12.6-15.5c2.1-3.2,4.3-6.2,6.4-9.4
	C640,6.1,645.2-0.7,638.7,0.1z"/>
</svg>
