<?xml version="1.0" encoding="utf-8"?>
<!-- Generator: Adobe Illustrator 24.1.2, SVG Export Plug-In . SVG Version: 6.00 Build 0)  -->
<svg version="1.1" id="Слой_1" xmlns="http://www.w3.org/2000/svg" xmlns:xlink="http://www.w3.org/1999/xlink" x="0px" y="0px"
	 viewBox="0 0 732.25 546.4" style="enable-background:new 0 0 732.25 546.4;" xml:space="preserve">
<style type="text/css">
	.st0{fill:#4D6C45;}
</style>
<path class="st0" d="M18.14,546.4c5.08-4.04,9.95-8.32,14.48-12.99c22.18-22.94,41.81-57.7,76.82-60.19
	c23.55-1.67,44.53,10.04,66.73,15.2c26.45,6.14,55.27,11.97,81.84,15.21c36.96,4.5,69.24,4.56,104.06-12.4
	c42.37-20.64,89.8-84.58,89.8-84.58s-44.94,18.21-70.59,17.81c-26.69-0.42-37.92-4.91-64.63-3.56
	c-46.64,2.36-122.33,57.24-148.97,51.15s-38.49-9.2-69.62-12.84c41.08-30.72,87.89-57.14,130.29-85.43
	c23.73-15.83,46.84-28.81,73.24-37.19c32.81-10.41,53.02-3.02,84.41,9.29c34.37,13.48,71.27,19.74,107.78,11.3
	c41.68-9.63,67.2-34.85,97.8-62.87c-38.81,22.07-82.68,29.64-124.92,20.3c-18.39-4.07-38.16-12.06-56.99-15.23
	c-40.16-6.76-99.99,15.06-99.99,15.06s65.83-35.93,84.36-47.43c27.07-16.8,47.18-38.31,77.18-49.47
	c35.23-13.11,74.13-12.12,108.92-27.55C713.73,130.73,732.25,0,732.25,0s-23.95,31.17-53.91,50.35
	c-43.2,27.64-98.71,33.94-143.39,57.85c-40.22,21.53-71.1,55.71-103.56,86.88c-30.88,29.66-54.63,65.86-92.22,88.32
	c-33.63,20.1-66,43.56-100.57,62.64c36.08-42.99,79.49-84.58,119.03-126.7c24.98-26.61,50.82-54.28,69.18-86.1
	c13.71-23.75,49.72-47.56,49.72-47.56s-92.21,14.78-141.48,71.8c-29.43,34.05-46.29,68.63-63.53,109.76
	c-14.55,34.7-31.17,76-62.04,98.85c-29.42,21.77-59.62,46.65-91.2,65.1c14.99-51.2,71.6-95.83,96.41-142.47
	c16.87-31.72,20.24-65.62,34.44-98.48c12.95-29.97,40.88-61.62,40.88-61.62s-90.62,49.27-122.29,112.62
	c-36.44,72.87-34.48,133.01-71.86,203.32C73.28,486.97,34.95,513.42,0,543.74L18.14,546.4z"/>
</svg>
