<?xml version="1.0" encoding="utf-8"?>
<!-- Generator: Adobe Illustrator 24.1.2, SVG Export Plug-In . SVG Version: 6.00 Build 0)  -->
<svg version="1.1" id="Слой_1" xmlns="http://www.w3.org/2000/svg" xmlns:xlink="http://www.w3.org/1999/xlink" x="0px" y="0px"
	 viewBox="0 0 467.8 741.07" style="enable-background:new 0 0 467.8 741.07;" xml:space="preserve">
<style type="text/css">
	.st0{fill:#D6496F;}
</style>
<path class="st0" d="M422.38,326.03c-30.15-4.78-73.9,99.23-129.09,143.61c38.59-58.5,70.31-152.54,101.57-190.19
	c36.08-43.47,76.63-76.67,72.67-123.08c-47.24,0.45-93.39,109.33-105.22,146.26c19.05-64.54,40.49-136.05,40.32-185.6
	C402.36,35.95,367.41-0.16,361.55,0c-5.86,0.16-9.17,21.47-9.24,28.19c-0.74,73.51,40.27,127.65,1.22,282.14
	c6.59-75.9-1.75-164.73-33.61-192.12c-6.39,3.02-10.3,24.19-10.35,30.99c-0.34,42.87,15.49,76.62,21.25,116.16
	c9.61,65.9,3.26,100.47-48.45,188.32c12.48-63.24,42.16-153.66-1.72-190.72c-26.04,67.18,8.3,158.2-22.29,226.51
	c-13.27,29.65-41.75,62.14-62.15,80.27c21.24-37.85,68.61-113.87,30.3-181.3c-29.71,79.28-18.6,144.95-69.46,201.75
	C116.96,635,46.06,690.29,0,734.11c2.12,2.92,6.9,3.76,8.67,6.96c140.82-111.34,165.94-136.83,282.21-163.76
	c53.64-12.42,79.48-27.24,79.48-27.24s-28.83-21.39-80.49-4.21c-46.94,15.62-93.88,41.57-93.88,41.57S413.04,448.13,422.38,326.03z"
	/>
</svg>
