<svg xmlns="http://www.w3.org/2000/svg" width="355" height="301" viewBox="0 0 355 301"><g><g><path fill="#4d6c45" d="M407.882 218.58c11.427-27.18 6.84-95.667-11.674-130.924-28.223-53.769-51.113-78.119-98.066-86.327-18.8-3.283-60.135.863-77.952 7.365-5.956 2.183-11.916 4.498-17.69 7.131-2.552 1.16-8.867 5.968-7.685 3.422 1.234-2.665 32.994-1.045 35.548-.72 31.648 3.914 65.208 20.716 83.545 47.297 7.574 10.963 15.88 30.763 2.772 41.083-15.178 11.936-31.664-4.59-41.527-15.106-21.327-22.749-65.943-73.612-102.24-49.82-5.872 3.855-11.074 8.557-16.127 13.403-1.977 1.907-20.158 17.646-18.027 20.817 2.09 3.113 27.087 1.357 36.194 4.05 15.685 4.65 30.472 13.1 41.599 25.225 7.622 8.303 14.825 21.436 8.199 32.423-12.565 20.837-37.955 8.282-51.95-3.1-37.932-30.825-58.093-47.026-96.391-5.534-4.753 5.145-14.452 13.15-16.666 20.044-.902 2.802 5.595-1.864 8.434-2.65 6.728-1.852 13.778-2.598 20.743-2.12 16.263 1.122 54.613 12.014 49.457 35.46-7.224 32.864-57.606 2.762-76.07 3.127-32.445.647-43.98 52.011-52.171 75.75-2.04 5.92-11.692 22.31-9.87 28.796.129.466.965-.145 1.37-.392 3.764-2.325 7.519-4.328 11.768-5.654 8.61-2.684 17.956-2.216 26.686-.32 28.538 6.162 55.096 27.954 83.59 8.16 17.316-12.026 22.455-33.856 31.917-51.476 2.915-5.415 9.488-15.49 16.736-9.997 17.844 13.52-5.61 44.07-14.344 55.543-3.08 4.04-6.38 7.982-9.775 11.767-.131.151-3.725 3.705-3.675 3.748 3.886 3.665 27.57-1.389 32.238-2.008 62.664-8.385 50.899-38.237 62.094-84.92 1.919-7.988 9.906-24.287 20.602-22.33 10.507 1.918 12.144 20.102 13.312 28.06 2.243 15.288-.542 30.675-7.902 44.224-5.413 9.968-13.153 18.21-21.823 25.435-4.275 3.56 15.686 1.286 17.27 1.108 4.909-.566 9.755-1.41 14.632-2.165 7.217-1.147 14.44-2.176 21.485-4.184 58.832-16.752 33.683-61.927 29.797-100.202-1.464-14.443 5.616-34.404 23.89-29.416 28.073 7.645 26.73 70.573 18.965 90.965-5.311 13.931-15.448 33.142-12.977 34.63 3.6 2.158 14.322-6.772 16.704-8.558 17.418-13.028 26.832-31.572 35.055-51.11z"/></g></g></svg>