<svg xmlns="http://www.w3.org/2000/svg" width="954" height="248" viewBox="0 0 954 248"><g><g><path fill="#ff7729" d="M707.78 3.847c3.03 3.005 3.133 6.71 2.733 10.439-.711 6.603-3.468 12.71-6.571 18.693-7.13 13.748-11.951 19.186-21.271 31.84-7.98 10.835-15.91 21.696-24.13 32.392-.13.287-.25.58-.345.889-4.598 14.753-7.94 29.716-7.001 45.304.608 10.09 3.187 19.542 9.929 27.459 2.202 2.587 4.768 4.75 7.719 6.407 2.576 1.447 3.357 3.614 2.972 6.363-1.025 7.329-9.014 10.92-14.986 6.65-9.802-7.005-15.041-16.97-17.966-28.334-3.232-12.555-3.317-25.241-1.317-37.988.063-.398.278-.802-.083-1.227-.992.18-1.431 1.076-2.04 1.71-6.312 6.578-13.073 12.587-21.163 16.95-4.798 2.587-9.81 4.432-15.346 4.396-6.864-.045-11.828-3.644-14.148-10.117-2.353-6.566-1.362-13.084.246-19.59.382-1.547.896-3.062 1.38-4.583.39-1.225.349-1.914-1.308-1.68-7.085 1.002-14.211 1.497-21.367 1.24-1.913-.068-2.338 1.098-2.868 2.516-4.291 11.488-11.595 20.236-23.33 24.6-7.676 2.857-15.413 3.152-22.367-1.981-7.72-5.696-9.815-13.874-9.28-22.984.093-1.582.43-3.164.797-4.711.324-1.361.092-1.873-1.426-1.55-6.18 1.315-12.441 2.006-18.745 2.31-2.35.115-4.722.396-7.046.186-2.876-.261-4.086.807-4.881 3.589-2.646 9.267-7 17.679-14.183 24.292-7.982 7.347-17.262 10.594-28.09 7.714-7.385-1.965-12.478-6.707-15.593-13.602-2.252-4.986-3.196-10.252-2.936-15.707.097-2.04-.32-2.61-2.321-1.502-19.946 11.036-40.682 20.489-61.226 30.323-2.67 1.279-4.401 3.01-5.532 5.776-6.584 16.093-13.191 32.184-21.408 47.542-7.197 13.45-15.181 26.377-26.208 37.116-5.594 5.448-11.892 9.85-19.568 11.995-14.278 3.989-26.202-4.753-26.657-19.651-.338-11.11 3.697-20.893 9.553-30.022 7.862-12.258 18.465-21.931 29.795-30.865 13.494-10.641 28.005-19.766 42.822-28.42 1.682-.983 2.825-2.178 3.544-4.021 3.357-8.607 6.828-17.171 10.248-25.754.272-.68.472-1.39.78-2.307-1.435.202-2.023 1.188-2.76 1.892-8.581 8.208-17.476 16.03-27.975 21.756-4.972 2.71-10.173 4.795-16.028 4.69-9.791-.175-16.865-8.572-15.456-18.313 1.323-9.146 5.739-16.791 11.53-23.704 6.995-8.35 15.175-15.243 25.499-19.214 4.43-1.704 9.02-2.788 13.809-2.285 5.663.595 10.545 2.943 14.208 7.332 1.613 1.932 2.543 1.643 3.963-.09 3.086-3.767 6.244-7.483 9.519-11.087 2.466-2.715 3.955-2.873 7.148-1.314 5.492 2.682 6.246 4.915 3.806 10.969-6.155 15.269-12.287 30.547-18.427 45.822-.248.618-.478 1.243-.788 2.05 1.044.198 1.576-.29 2.154-.582 19.263-9.776 38.51-19.585 57.797-29.314 2.19-1.106 3.835-2.492 5.007-4.69 1.909-3.58 4.368-6.786 7.727-9.176 1.169-.833 1.538-1.756 1.21-3.214-.7-3.128-.94-6.301-.253-9.491 2.2-10.222 11.705-16.047 22.528-13.66 9.295 2.05 15.487 8.015 19.864 16.152 3.527 6.557 5.137 13.663 5.709 20.997.188 2.414 1.214 3.136 3.406 3.294 13.28.954 25.78-1.39 37.235-8.46 1.066-.658 1.304-1.425 1.166-2.501-1.541-11.976 9.325-18.124 18.853-16.986 12.206 1.456 21.445 10.602 24.29 23.683 1.398 6.43 1.4 6.326 8.058 6.446 8.012.145 15.718-1.242 23.228-3.966 1.652-.6 2.878-1.531 3.903-2.973 5.213-7.34 11.382-13.698 19.352-18.095 10.55-5.82 22.083-6.407 31.925 1.923 2.945-7.826 6.095-15.592 9.53-23.27 6.417-14.343 8.713-21.344 18.45-34.3 3.823-5.084 8.042-9.884 13.87-13.382C696.71-.76 703.5-.4 707.78 3.847zM340.974 91.925c1.103-1.053.978-1.944.16-3.058-2.46-3.354-5.815-4.414-9.768-3.794-2.761.434-5.371 1.416-7.788 2.819-9.388 5.449-16.655 12.968-21.788 22.52a19.661 19.661 0 0 0-2.222 7.18c-.188 1.71.597 2.54 2.233 2.397 1.734-.04 5.33-1.506 8.53-3.235 11.778-6.36 21.107-15.716 30.643-24.83zm-18.444 74.187c.968-2.01 1.81-4.08 2.966-6.701-1.232.646-1.9.936-2.504 1.322-10.775 6.868-21.294 14.1-30.997 22.44-9.027 7.759-17.325 16.167-22.832 26.914-2.704 5.278-4.863 10.719-4.458 16.82.3 4.519 2.959 6.82 7.469 6.523 2.864-.19 5.328-1.436 7.67-2.958 8.736-5.677 14.876-13.775 20.44-22.317 8.684-13.332 15.362-27.748 22.246-42.043zm137.776-56.35c.743-2.267.218-3.335-2.068-4.076-7.185-2.331-13.742-5.877-19.365-10.961-1.504-1.36-2.261-1.018-3.36.403-5.695 7.37-7.74 15.713-6.644 24.849.39 3.266 1.432 6.383 3.537 9.037 1.839 2.32 4.235 3.49 7.154 3.582 3.263-.104 6.119-1.292 8.607-3.25 6.415-5.043 9.675-12.054 12.139-19.583zM458.88 91c1.903.825 1.947-.331 1.765-2.378-.478-3.56-1.236-7.774-3.173-11.654-1.273-2.552-3.115-4.596-5.992-5.398-3.895-1.087-6.961 1.363-6.763 5.35.09 1.822.787 3.4 1.809 4.884 3.077 4.47 7.513 7.097 12.354 9.196zm87.223 18.843c.556-1.24-.256-1.668-1.217-1.963-5.346-1.64-10.236-4.172-14.737-7.472-.812-.595-1.517-.786-2.468-.058-5.346 4.097-8.293 15.06-5.62 21.17 1.179 2.69 3.159 4.27 6.162 4.435.25-.02.505-.016.75-.062.495-.091 1.002-.158 1.473-.324 7.747-2.727 12.424-8.511 15.657-15.726zm.053-16.877c1.228.529 1.153-.414.92-1.247-.618-2.205-1.588-4.24-3.002-6.042-1.327-1.69-2.916-3.006-4.925-3.284-2.423-.077-3.545 1.544-2.465 3.469 2.092 3.73 5.758 5.505 9.472 7.104zm98.068-.766c.449-.557.594-1.111.323-1.855-1.497-4.118-7.24-8.32-11.686-8.57-4.96-.281-8.924 1.968-12.64 4.856-7.733 6.013-13.005 13.979-17.537 22.467-2.812 5.268-5.154 10.757-5.566 15.72-.24 6.292 1.637 7.77 6.523 6.098 3.358-1.15 6.397-2.95 9.232-5.095 12.406-9.39 21.71-21.661 31.35-33.621zm50.997-74.18c.079-.387.31-.934-.32-1.078-.275-.063-.762.203-1.003.437-.924.9-1.871 1.798-2.662 2.787-11.98 14.975-15.286 24.523-22.962 41.332l.539.32c2.406-3.368 4.859-6.712 7.208-10.111 7.93-11.477 11.246-15.801 17.169-28.214.849-1.778 1.643-3.57 2.03-5.472z"/></g><g><path fill="#ff7729" d="M881.642 56.93c.173 3.406-1.107 7.015-3.836 9.019-1.218.894-2.92 1.684-4.48 1.763-.768.039-1.59-.178-2.092-.735-1.513-1.686-1.978-4.9-5.363-3.538-3.23 1.298-3.936 5.979-4.02 8.877-.102 3.477.852 6.993 2.786 9.947 3.704 5.66 8.054 11.323 12.49 16.48.895 1.04 1.65 1.047 2.962.347 17.76-9.47 36.541-14.924 55.925-17.95 3.628-.565 7.264-.986 10.896-1.506 4.094-.586 6.868 1.546 7.044 5.455.172 3.858-2.62 7.133-6.559 7.65-9.153 1.2-18.28 2.699-27.34 4.95-11.708 2.909-23.06 6.929-33.882 12.669-1.423.755-1.763 1.402-1.372 2.828 1.947 7.106.292 14.192-3.165 21.103-5.277 10.547-13.392 18.23-25.237 21.857-4.176 1.279-8.369 1.682-12.452.845-8.794-1.805-12.69-8.905-9.66-17.466 2.001-5.654 5.787-10.36 9.958-14.846 5.537-5.956 11.914-10.992 18.683-15.572 1.346-.912 1.765-1.541.74-2.798-6.287-7.7-14.018-15.774-16.959-25.338-3.437-11.178 2.59-23.89 12.074-30.746 6.218-4.496 17.454-5.307 21.62 2.17.743 1.336 1.156 2.913 1.24 4.536zm-30.745 87.53c9.271-1.814 18.114-10.894 19.203-20.06-.004-.678-.002-1.74-.02-2.8-.026-1.354-.597-1.41-1.749-.598-5.73 4.032-11.037 8.508-15.649 13.7-1.78 2.005-3.542 4.052-4.567 6.492-1.08 2.573-.005 3.813 2.782 3.267z"/></g><g><path fill="#ff7729" d="M824.59 89.51a5.956 5.956 0 0 1-1.154-.541c-2.879-1.711-5.877-3.498-9.192-4.221-3.36-.733-6.597.569-9.069 2.83-3.733 3.417-6.44 7.593-8.91 11.93-6.526 11.464-11.34 23.7-16.146 35.937-.979 2.493-1.954 4.988-2.96 7.47-.926 2.283-2.495 3.29-4.927 3.19-2.437-.097-4.673-.875-6.607-2.324-2.195-1.644-3.31-3.692-2.599-6.64 1.562-6.47 2.928-12.986 4.375-19.484l-.368-.276c-1.058 1.027-2.11 2.06-3.176 3.08-10.93 10.459-23.07 19.023-37.608 23.765-7.064 2.304-14.309 3.34-21.746 2.568-15.706-1.635-25.659-13.054-24.467-28.798 1.591-21.025 11.981-36.543 30.615-46.438 3.486-1.85 7.323-2.676 11.373-2.484 9.02.428 13.604 9.96 11.047 17.28-1.918 5.49-5.875 9.33-10.322 12.735-7.819 5.988-16.66 9.967-26.04 12.774-1.796.537-2.509 1.415-2.616 3.229-.18 3.073-.206 6.147.772 9.062 2.027 6.039 7.581 9.418 14.704 9.265 8.721-.188 16.588-3.161 24.073-7.335 14.867-8.292 26.63-20 36.71-33.531 1.927-2.587 3.965-5.105 4.611-8.436.264-1.363 1.461-2.128 2.774-2.545 3.576-1.136 8.238.619 10.025 3.946.833 1.55 1.194 1.083 1.903-.02 3.004-4.664 6.092-9.275 10.125-13.15a40.732 40.732 0 0 1 3.245-2.811c7.05-5.463 16.641-2.98 22.854 2.679 3.431 3.124 5.063 7.795 3.964 12.34-.43 1.777-1.564 4.512-3.538 5.054-.569.156-1.16.088-1.725-.1zm-107.687-6.193c-5.534 2.566-9.798 6.67-13.616 11.348 2.991-.984 5.75-2.385 8.384-4.007 2.438-1.501 4.814-3.12 6.645-5.374.48-.59 1.317-1.297.663-2.097-.548-.67-1.417-.176-2.076.13z"/></g><g><path fill="#ff7729" d="M183.345 111.143c-2.34 1.514-4.752 1.78-7.498 1.895-3.103.13-6.165.437-9.282.337a53.374 53.374 0 0 1-10.306-.528c-1.577-.237-2.083.289-2.509 1.671-2.444 7.92-6.371 15.003-12.413 20.76-5.585 5.322-12.078 9.052-19.895 9.733-11.323.987-19.993-5.352-23.265-16.585-2.505-8.6-1.501-16.982 1.46-25.228 2.211-6.156 5.178-11.869 10.636-15.87 1.213-.89.744-1.955.523-3.046-2.124-10.476 3.259-18.819 13.445-20.628 3.936-.699 7.862-.325 11.617 1.16 8.486 3.357 13.662 9.846 16.911 18.078 1.501 3.804 2.495 7.764 2.907 11.842.176 1.739.846 2.428 2.754 2.579 4.784.377 9.593.359 14.38.056 2.177-.138 4.36-.318 6.53-.523 2.041-.194 4.229-.96 6.229-.152 1.439.58 2.479 1.946 2.879 3.445 1.076 4.034-1.552 8.539-4.793 10.796a9.865 9.865 0 0 1-.31.208zm-45.135.305c.456-1.207.308-1.926-1.072-2.376-5.668-1.847-10.807-4.701-15.391-8.503-1.26-1.045-2.009-.712-2.923.409-4.05 4.968-6.145 10.638-6.3 15.858-.015 4.459.537 7.07 1.674 9.115 1.97 3.544 4.942 4.651 8.71 3.175a15.017 15.017 0 0 0 2.794-1.456c6.009-3.984 9.982-9.544 12.508-16.222zm-9.101-25.571c2.495 3.7 6.242 5.64 10.584 7.661-.888-4.096-2.125-7.46-4.478-10.345-.803-.984-1.746-1.837-2.95-2.325-1.145-.464-2.361-.75-3.377.157-1.024.914-.864 2.159-.498 3.338.165.529.409 1.055.719 1.514z"/></g><g><path fill="#ff7729" d="M240.03 112.166c-5.674-.192-11.354.265-17.024-.317-1.83-.187-3.608-.683-5.229-1.887-2.614-1.94-3.148-5.246-1.237-8.369 2.664-4.35 6.32-5.623 10.273-5.592 9.264.072 18.527.217 27.79.332.681.01 1.365-.033 2.044.037 2.105.216 4.006 1.08 4.802 4.051.778 2.904.584 5.78-.866 8.292-1.518 2.628-3.585 3.867-5.979 3.696-4.859-.346-9.718-.043-14.575-.243z"/></g><g><path fill="#ff7729" d="M53.341 145.117a60.88 60.88 0 0 1-.543-8.529c.02-3.394.115-6.82.605-10.186.041-.286.388-3.602.753-3.669-.992.18-1.43 1.077-2.04 1.711-6.312 6.577-13.073 12.586-21.163 16.95-4.798 2.587-9.81 4.431-15.346 4.395-6.864-.045-11.828-3.644-14.148-10.117-2.353-6.566-1.362-13.084.246-19.59 0 0 2.807-12.859 12.51-26.078 5.325-7.258 11.381-13.698 19.351-18.095 10.55-5.82 22.083-6.407 31.925 1.924 2.945-7.827 6.095-15.593 9.53-23.27 6.418-14.344 8.713-21.345 18.451-34.3 3.822-5.084 8.041-9.885 13.87-13.383 6.062-3.64 12.852-3.278 17.132.966 3.03 3.006 3.132 6.711 2.732 10.44-.71 6.602-3.468 12.71-6.57 18.693-7.13 13.748-11.952 19.186-21.272 31.84-7.98 10.834-15.909 21.695-24.129 32.391-.13.287-.25.581-.346.89 0 0-16.234 35.558-.705 57.342 1.973 2.766 4.77 4.75 7.72 6.407 2.575 1.447 3.356 3.614 2.972 6.363-1.025 7.33-9.014 10.92-14.986 6.651-9.842-7.035-14.966-18.1-16.549-29.746zM60.918 92.2c.45-.557.594-1.11.323-1.854-1.497-4.119-7.24-8.32-11.686-8.57-4.959-.28-8.924 1.967-12.64 4.855-7.733 6.013-13.005 13.98-17.537 22.467-2.812 5.27-5.154 10.757-5.566 15.72-.239 6.292 1.637 7.77 6.523 6.098 3.358-1.149 6.397-2.95 9.232-5.095 12.406-9.389 21.711-21.66 31.351-33.62zm50.997-74.179c.08-.388.311-.935-.319-1.079-.276-.063-.763.203-1.004.437-.924.901-1.87 1.798-2.662 2.787C95.951 35.141 92.644 44.69 84.968 61.497l.54.321c2.405-3.369 4.858-6.713 7.207-10.112 7.931-11.476 11.246-15.8 17.17-28.213.848-1.779 1.642-3.57 2.03-5.473z"/></g><g><path fill="#ff7729" d="M944.842 114.95c-6.153-.105-11.75 5.939-11.74 12.678.007 5.383 3.65 8.588 9.812 8.632 6.925.05 11.095-4.395 11.046-11.776-.034-5.136-4.159-9.45-9.118-9.534z"/></g></g></svg>