<?xml version="1.0" encoding="utf-8"?>
<!-- Generator: Adobe Illustrator 24.1.2, SVG Export Plug-In . SVG Version: 6.00 Build 0)  -->
<svg version="1.1" id="Слой_1" xmlns="http://www.w3.org/2000/svg" xmlns:xlink="http://www.w3.org/1999/xlink" x="0px" y="0px"
	 viewBox="0 0 396.03 213.2" style="enable-background:new 0 0 396.03 213.2;" xml:space="preserve">
<style type="text/css">
	.st0{fill:#29C4AD;}
</style>
<g>
	<g>
		<path class="st0" d="M393.53,2.98c-3.69-3.66-9.53-3.97-14.75-0.83c-5.02,3.01-8.65,7.15-11.94,11.53
			c-8.39,11.16-10.36,17.19-15.89,29.54c-4.37,9.76-8.23,19.68-11.72,29.7c0.22,0.14,0.39,0.37,0.43,0.67
			c0.5,3.47,3.46,6.56,5.57,9.37c1.03,1.37,1.99,2.8,3.02,4.18c8.13-10.41,15.86-21.05,23.66-31.65
			c8.03-10.9,12.18-15.58,18.32-27.42c2.67-5.15,5.05-10.41,5.66-16.1C396.23,8.76,396.14,5.57,393.53,2.98z M382.71,15.19
			c-0.33,1.64-1.02,3.18-1.75,4.71c-5.1,10.69-7.96,14.41-14.79,24.3c-2.02,2.93-4.14,5.81-6.21,8.71
			c-0.15-0.09-0.31-0.18-0.46-0.28c6.61-14.48,9.46-22.7,19.78-35.6c0.68-0.85,1.5-1.62,2.29-2.4c0.21-0.2,0.63-0.43,0.86-0.38
			C382.98,14.38,382.78,14.85,382.71,15.19z"/>
		<path class="st0" d="M360,152.33c-2.54-1.43-4.75-3.29-6.65-5.52c-5.81-6.82-8.03-14.96-8.55-23.65
			c-0.81-13.42,2.07-26.31,6.03-39.02c0.29-0.92,0.76-1.72,1.34-2.46c0.19-0.24,0.37-0.49,0.55-0.73c-1.24-2.04-2.34-4.18-3.56-6.23
			c-1.94-3.27-4.31-6.73-5.15-10.52c-0.2-0.08-0.45-0.24-0.75-0.51c-8.59-7.65-18.75-7.21-28.03-2.09
			c-6.86,3.79-12.18,9.26-16.67,15.58c-0.88,1.24-1.94,2.04-3.36,2.56c-6.47,2.35-13.1,3.54-20,3.42c-5.73-0.1-5.74-0.01-6.94-5.55
			c-2.45-11.27-10.41-19.14-20.92-20.4c-8.21-0.98-17.56,4.31-16.24,14.63c0.12,0.93-0.09,1.59-1,2.15
			c-9.86,6.09-20.63,8.11-32.07,7.29c-1.89-0.14-2.77-0.76-2.93-2.84c-0.49-6.32-1.88-12.44-4.92-18.08
			c-3.77-7.01-9.1-12.14-17.11-13.91c-9.32-2.06-17.51,2.96-19.4,11.76c-0.59,2.75-0.39,5.48,0.22,8.17
			c0.28,1.26-0.04,2.05-1.04,2.77c-2.89,2.06-5.01,4.82-6.65,7.9c-1.01,1.89-2.43,3.09-4.31,4.04
			c-16.61,8.38-33.19,16.83-49.78,25.25c-0.5,0.25-0.96,0.67-1.85,0.5c0.27-0.69,0.46-1.23,0.68-1.77
			c5.29-13.15,10.57-26.31,15.87-39.46c2.1-5.21,1.45-7.14-3.28-9.45c-2.75-1.34-4.03-1.21-6.16,1.13c-2.82,3.1-5.54,6.3-8.2,9.55
			c-1.22,1.49-2.02,1.74-3.41,0.08c-3.16-3.78-7.36-5.8-12.24-6.31c-4.12-0.43-8.08,0.5-11.89,1.97C52.75,66,45.7,71.93,39.68,79.12
			c-4.99,5.95-8.79,12.54-9.93,20.41c-1.21,8.39,4.88,15.62,13.31,15.77c5.04,0.09,9.52-1.7,13.8-4.04
			c9.04-4.93,16.7-11.67,24.09-18.74c0.63-0.61,1.14-1.46,2.38-1.63c-0.27,0.79-0.44,1.4-0.67,1.99
			c-2.95,7.39-5.93,14.77-8.83,22.18c-0.62,1.59-1.6,2.62-3.05,3.46c-12.76,7.45-25.26,15.31-36.88,24.48
			c-9.76,7.69-18.89,16.02-25.66,26.58c-5.04,7.86-8.52,16.29-8.23,25.86c0.39,12.83,10.66,20.36,22.96,16.92
			c6.61-1.85,12.04-5.64,16.85-10.33c9.5-9.25,16.37-20.38,22.57-31.97c7.08-13.23,12.77-27.08,18.44-40.94
			c0.97-2.38,2.46-3.87,4.76-4.97c17.69-8.47,35.55-16.61,52.73-26.11c1.72-0.95,2.08-0.46,2,1.29c-0.22,4.7,0.59,9.23,2.53,13.53
			c2.68,5.94,7.07,10.02,13.43,11.71c9.32,2.48,17.32-0.32,24.19-6.64c6.19-5.69,9.94-12.94,12.21-20.92
			c0.68-2.4,1.73-3.32,4.2-3.09c2,0.18,4.04-0.06,6.07-0.16c5.43-0.26,10.82-0.86,16.14-1.99c1.31-0.28,1.51,0.16,1.23,1.33
			c-0.32,1.33-0.61,2.7-0.69,4.06c-0.46,7.85,1.35,14.89,7.99,19.79c5.99,4.42,12.65,4.17,19.26,1.71
			c10.11-3.76,16.4-11.29,20.09-21.19c0.46-1.22,0.82-2.23,2.47-2.17c6.16,0.22,12.3-0.21,18.4-1.07c1.43-0.2,1.46,0.39,1.13,1.45
			c-0.42,1.31-0.86,2.61-1.19,3.95c-1.38,5.6-2.24,11.22-0.21,16.87c2,5.57,6.27,8.67,12.18,8.71c4.77,0.03,9.08-1.56,13.22-3.79
			c6.97-3.76,12.79-8.93,18.23-14.6c0.52-0.55,0.9-1.32,1.76-1.47c0.31,0.37,0.13,0.71,0.07,1.06c-1.72,10.98-1.65,21.9,1.13,32.72
			c2.52,9.79,7.03,18.37,15.47,24.4c5.14,3.68,12.02,0.58,12.91-5.73C362.89,155.45,362.21,153.58,360,152.33z M77.63,78.83
			c-8.21,7.85-16.25,15.91-26.39,21.38c-2.76,1.49-5.85,2.75-7.35,2.79c-1.41,0.12-2.08-0.59-1.92-2.06
			c0.24-2.18,0.88-4.26,1.91-6.18c4.42-8.23,10.68-14.7,18.76-19.4c2.08-1.21,4.33-2.05,6.71-2.43c3.4-0.53,6.29,0.38,8.41,3.27
			C78.47,77.16,78.58,77.93,77.63,78.83z M61.75,142.72c-5.93,12.31-11.68,24.73-19.16,36.21c-4.79,7.36-10.08,14.33-17.6,19.22
			c-2.02,1.31-4.14,2.38-6.61,2.55c-3.88,0.26-6.17-1.73-6.43-5.62c-0.35-5.25,1.51-9.94,3.84-14.49
			c4.74-9.26,11.89-16.5,19.66-23.18c8.36-7.18,17.41-13.41,26.69-19.33c0.52-0.33,1.1-0.58,2.16-1.14
			C63.31,139.21,62.58,140.99,61.75,142.72z M180.4,94.2c-2.12,6.48-4.93,12.52-10.45,16.87c-2.14,1.68-4.6,2.71-7.41,2.8
			c-2.51-0.08-4.58-1.09-6.16-3.08c-1.81-2.29-2.71-4.97-3.05-7.78c-0.94-7.87,0.82-15.05,5.72-21.4c0.95-1.22,1.6-1.52,2.89-0.35
			c4.84,4.38,10.49,7.43,16.68,9.44C180.59,91.32,181.04,92.24,180.4,94.2z M179.18,78.04c-4.17-1.81-7.99-4.07-10.64-7.92
			c-0.88-1.28-1.48-2.64-1.56-4.21c-0.17-3.43,2.47-5.54,5.83-4.61c2.48,0.69,4.06,2.45,5.16,4.65c1.67,3.34,2.32,6.97,2.73,10.04
			C180.85,77.75,180.81,78.75,179.18,78.04z M254.29,94.27c-2.78,6.21-6.81,11.2-13.48,13.54c-0.41,0.14-0.84,0.2-1.27,0.28
			c-0.21,0.04-0.43,0.04-0.65,0.05c-2.59-0.14-4.29-1.5-5.31-3.82c-2.3-5.26,0.24-14.7,4.84-18.23c0.82-0.63,1.43-0.46,2.13,0.05
			c3.88,2.84,8.09,5.02,12.69,6.44C254.07,92.83,254.77,93.2,254.29,94.27z M254.34,79.73c-3.2-1.38-6.36-2.9-8.16-6.12
			c-0.93-1.66,0.04-3.05,2.12-2.99c1.73,0.24,3.1,1.37,4.24,2.83c1.22,1.55,2.05,3.3,2.59,5.2
			C255.33,79.37,255.4,80.19,254.34,79.73z M338.8,79.07c-8.3,10.3-16.32,20.87-27,28.95c-2.44,1.85-5.06,3.4-7.95,4.39
			c-4.21,1.44-5.82,0.17-5.62-5.25c0.36-4.27,2.37-9,4.79-13.54c3.9-7.31,8.44-14.17,15.1-19.35c3.2-2.49,6.61-4.42,10.89-4.18
			c3.83,0.22,8.77,3.83,10.06,7.38C339.31,78.11,339.18,78.59,338.8,79.07z"/>
		<path class="st0" d="M380.07,123.3c-5.31-0.04-8.44-2.8-8.45-7.43c-0.01-5.8,4.81-11.01,10.11-10.92
			c4.27,0.07,7.82,3.79,7.85,8.21C389.63,119.51,386.04,123.34,380.07,123.3z"/>
	</g>
</g>
</svg>
