<svg xmlns="http://www.w3.org/2000/svg" width="260.5" height="140.5" viewBox="0 0 521 281"><g><g><path fill="#fff" d="M517.627 4.332c3.427 3.399 3.543 7.592 3.09 11.809-.804 7.47-3.923 14.378-7.433 21.148-8.064 15.552-13.52 21.704-24.064 36.019-9.027 12.256-17.997 24.543-27.295 36.643a8.458 8.458 0 0 0-.392 1.006c-5.2 16.69-8.982 33.616-7.92 51.25.687 11.415 3.605 22.107 11.232 31.064 2.492 2.926 5.395 5.374 8.732 7.248 2.914 1.637 3.798 4.089 3.363 7.199-1.159 8.29-10.198 12.353-16.954 7.524-11.088-7.927-17.015-19.198-20.324-32.055-3.656-14.204-3.752-28.554-1.489-42.974.071-.451.314-.908-.094-1.39-1.123.205-1.62 1.219-2.309 1.937-7.14 7.44-14.788 14.238-23.94 19.173-5.428 2.928-11.098 5.014-17.36 4.974-7.765-.051-13.382-4.122-16.006-11.445-2.662-7.428-1.54-14.802.28-22.161.431-1.75 1.012-3.465 1.56-5.185.442-1.387.394-2.166-1.48-1.9-8.015 1.133-16.076 1.693-24.172 1.403-2.164-.077-2.645 1.242-3.244 2.846-4.854 12.995-13.117 22.89-26.392 27.83-8.684 3.23-17.436 3.564-25.304-2.242-8.73-6.444-11.103-15.696-10.498-26.001.105-1.79.487-3.58.902-5.331.366-1.54.103-2.118-1.614-1.752-6.989 1.487-14.073 2.268-21.205 2.614-2.657.129-5.34.447-7.97.209-3.254-.295-4.623.913-5.522 4.06-2.993 10.484-7.919 20-16.046 27.48-9.029 8.312-19.527 11.985-31.775 8.727-8.355-2.222-14.118-7.587-17.64-15.387-2.549-5.641-3.617-11.597-3.322-17.768.11-2.308-.36-2.953-2.626-1.7-22.564 12.485-46.022 23.179-69.263 34.304-3.02 1.446-4.979 3.406-6.258 6.534-7.448 18.205-14.922 36.408-24.218 53.782-8.142 15.216-17.174 29.839-29.648 41.988-6.328 6.163-13.453 11.143-22.137 13.57-16.15 4.512-29.64-5.378-30.155-22.231-.383-12.568 4.182-23.636 10.806-33.963 8.894-13.867 20.888-24.81 33.707-34.916 15.265-12.038 31.681-22.36 48.442-32.151 1.903-1.111 3.196-2.464 4.01-4.548 3.798-9.737 7.724-19.426 11.593-29.135.307-.77.534-1.571.883-2.61-1.625.228-2.289 1.344-3.122 2.14-9.709 9.287-19.77 18.134-31.648 24.612-5.625 3.067-11.508 5.425-18.133 5.307-11.075-.2-19.079-9.7-17.484-20.718 1.497-10.347 6.492-18.995 13.044-26.816 7.912-9.445 17.167-17.243 28.845-21.735 5.013-1.928 10.204-3.154 15.622-2.585 6.406.673 11.93 3.329 16.074 8.294 1.824 2.185 2.876 1.858 4.482-.102 3.492-4.261 7.064-8.465 10.77-12.543 2.79-3.07 4.473-3.25 8.085-1.485 6.213 3.033 7.066 5.56 4.306 12.409-6.963 17.273-13.9 34.556-20.846 51.836-.28.699-.542 1.406-.892 2.319 1.182.224 1.783-.327 2.437-.66 21.792-11.057 43.566-22.154 65.384-33.161 2.478-1.25 4.338-2.818 5.664-5.304 2.16-4.05 4.942-7.678 8.741-10.381 1.323-.943 1.74-1.987 1.37-3.635-.793-3.54-1.064-7.13-.287-10.737 2.49-11.565 13.241-18.155 25.485-15.454 10.515 2.32 17.52 9.068 22.471 18.272 3.991 7.417 5.812 15.457 6.46 23.754.212 2.73 1.372 3.548 3.852 3.725 15.023 1.08 29.164-1.572 42.122-9.571 1.206-.743 1.476-1.611 1.32-2.828-1.743-13.548 10.548-20.503 21.327-19.216 13.808 1.648 24.26 11.994 27.48 26.79 1.58 7.277 1.582 7.158 9.115 7.294 9.063.164 17.781-1.405 26.276-4.487 1.87-.678 3.256-1.732 4.415-3.362 5.898-8.304 12.877-15.496 21.893-20.471 11.934-6.584 24.982-7.248 36.115 2.176 3.332-8.854 6.895-17.64 10.782-26.326 7.26-16.225 9.856-24.145 20.872-38.8 4.324-5.752 9.097-11.183 15.69-15.14 6.86-4.118 14.54-3.71 19.382 1.093zM102.671 103.97c1.247-1.191 1.105-2.2.181-3.46-2.783-3.793-6.579-4.993-11.05-4.291-3.124.49-6.076 1.602-8.81 3.189-10.622 6.164-18.843 14.67-24.649 25.478a22.224 22.224 0 0 0-2.514 8.122c-.213 1.933.676 2.873 2.526 2.71 1.962-.045 6.03-1.704 9.652-3.66 13.322-7.194 23.876-17.78 34.664-28.088zm-20.866 83.925c1.095-2.273 2.048-4.615 3.355-7.58-1.393.73-2.148 1.059-2.833 1.495-12.189 7.77-24.088 15.952-35.064 25.386-10.212 8.778-19.6 18.288-25.829 30.447-3.059 5.97-5.502 12.125-5.043 19.028.34 5.112 3.346 7.715 8.448 7.379 3.241-.214 6.028-1.624 8.678-3.346 9.882-6.422 16.827-15.584 23.122-25.247 9.824-15.082 17.38-31.39 25.166-47.562zm155.862-63.746c.84-2.564.246-3.773-2.34-4.612-8.129-2.637-15.546-6.65-21.907-12.4-1.702-1.538-2.558-1.151-3.8.457-6.444 8.338-8.756 17.775-7.517 28.11.442 3.695 1.62 7.222 4.001 10.224 2.08 2.624 4.791 3.948 8.093 4.052 3.691-.118 6.922-1.462 9.737-3.675 7.256-5.707 10.944-13.637 13.733-22.156zm-1.612-21.225c2.153.933 2.203-.374 1.998-2.69-.542-4.027-1.4-8.794-3.59-13.184-1.44-2.887-3.524-5.2-6.779-6.107-4.407-1.23-7.875 1.542-7.65 6.053.101 2.06.89 3.846 2.046 5.525 3.481 5.057 8.5 8.029 13.975 10.403zm98.672 21.316c.63-1.401-.289-1.887-1.376-2.22-6.048-1.854-11.579-4.72-16.672-8.453-.918-.673-1.716-.89-2.792-.065-6.047 4.634-9.382 17.038-6.356 23.949 1.332 3.043 3.572 4.83 6.97 5.017.283-.022.571-.02.85-.071.558-.103 1.132-.178 1.665-.366 8.763-3.085 14.054-9.63 17.711-17.791zm.06-19.093c1.39.599 1.305-.468 1.041-1.41-.699-2.494-1.796-4.796-3.396-6.835-1.5-1.91-3.299-3.401-5.572-3.715-2.74-.087-4.01 1.746-2.788 3.925 2.366 4.22 6.514 6.228 10.715 8.035zm110.941-.866c.508-.63.672-1.256.366-2.098-1.694-4.66-8.19-9.411-13.22-9.695-5.61-.317-10.096 2.227-14.299 5.493-8.749 6.802-14.713 15.815-19.839 25.417-3.182 5.96-5.83 12.168-6.297 17.783-.27 7.118 1.852 8.789 7.38 6.898 3.798-1.3 7.236-3.337 10.443-5.764 14.034-10.621 24.56-24.504 35.466-38.034zm57.691-83.916c.09-.438.352-1.058-.36-1.22-.313-.071-.864.229-1.136.494-1.046 1.019-2.117 2.035-3.01 3.153-13.553 16.94-17.294 27.742-25.978 46.757.204.12.407.243.61.364 2.721-3.812 5.497-7.595 8.154-11.44 8.972-12.983 12.723-17.876 19.423-31.917.96-2.011 1.86-4.04 2.297-6.191z"/></g><g><path fill="#fff" d="M502.131 138.27c-6.96-.119-13.293 6.72-13.28 14.342.008 6.091 4.128 9.716 11.1 9.765 7.833.057 12.551-4.97 12.495-13.32-.038-5.81-4.704-10.69-10.315-10.787z"/></g></g></svg>