<?xml version="1.0" encoding="utf-8"?>
<!-- Generator: Adobe Illustrator 24.1.2, SVG Export Plug-In . SVG Version: 6.00 Build 0)  -->
<svg version="1.1" id="Слой_1" xmlns="http://www.w3.org/2000/svg" xmlns:xlink="http://www.w3.org/1999/xlink" x="0px" y="0px"
	 viewBox="0 0 337.52 181.7" style="enable-background:new 0 0 337.52 181.7;" xml:space="preserve">
<style type="text/css">
	.st0{fill:#FFFFFF;}
</style>
<g>
	<g>
		<path class="st0" d="M335.39,2.54c-3.14-3.12-8.12-3.38-12.58-0.71c-4.28,2.57-7.37,6.09-10.18,9.82
			c-7.15,9.51-8.83,14.65-13.54,25.17c-3.72,8.32-7.02,16.77-9.99,25.31c0.19,0.12,0.33,0.31,0.37,0.57
			c0.43,2.95,2.94,5.59,4.75,7.99c0.88,1.17,1.7,2.39,2.57,3.57c6.93-8.87,13.52-17.94,20.17-26.97
			c6.84-9.29,10.38-13.28,15.61-23.37c2.28-4.39,4.3-8.87,4.82-13.72C337.69,7.47,337.61,4.75,335.39,2.54z M326.17,12.94
			c-0.28,1.4-0.87,2.71-1.49,4.02c-4.35,9.11-6.78,12.28-12.6,20.71c-1.72,2.49-3.53,4.95-5.29,7.42c-0.13-0.08-0.26-0.16-0.4-0.24
			c5.63-12.34,8.06-19.34,16.85-30.34c0.58-0.73,1.28-1.38,1.95-2.05c0.18-0.17,0.53-0.37,0.74-0.32
			C326.4,12.26,326.23,12.66,326.17,12.94z"/>
		<path class="st0" d="M306.81,129.83c-2.17-1.22-4.05-2.8-5.67-4.7c-4.95-5.81-6.84-12.75-7.29-20.15
			c-0.69-11.44,1.76-22.42,5.14-33.25c0.24-0.78,0.65-1.46,1.14-2.1c0.16-0.21,0.31-0.42,0.47-0.62c-1.05-1.74-1.99-3.56-3.03-5.31
			c-1.66-2.79-3.67-5.74-4.39-8.97c-0.17-0.07-0.38-0.21-0.64-0.44c-7.32-6.52-15.98-6.15-23.89-1.79
			c-5.85,3.23-10.38,7.89-14.2,13.28c-0.75,1.06-1.65,1.74-2.86,2.18c-5.51,2-11.17,3.02-17.05,2.91c-4.89-0.09-4.89-0.01-5.91-4.73
			c-2.09-9.6-8.87-16.31-17.83-17.38c-6.99-0.83-14.97,3.68-13.84,12.47c0.1,0.79-0.07,1.35-0.86,1.84
			c-8.41,5.19-17.58,6.91-27.33,6.21c-1.61-0.12-2.36-0.65-2.5-2.42c-0.42-5.38-1.6-10.6-4.19-15.41
			c-3.21-5.97-7.76-10.35-14.58-11.86c-7.94-1.75-14.92,2.52-16.53,10.03c-0.5,2.34-0.33,4.67,0.19,6.97
			c0.24,1.07-0.03,1.75-0.89,2.36c-2.47,1.75-4.27,4.11-5.67,6.74c-0.86,1.61-2.07,2.63-3.67,3.44
			c-14.16,7.14-28.28,14.34-42.42,21.52c-0.42,0.22-0.81,0.57-1.58,0.43c0.23-0.59,0.4-1.05,0.58-1.5
			c4.51-11.21,9.01-22.42,13.53-33.63c1.79-4.44,1.24-6.08-2.79-8.05c-2.34-1.14-3.44-1.03-5.25,0.96c-2.4,2.65-4.72,5.37-6.99,8.14
			c-1.04,1.27-1.72,1.48-2.91,0.07c-2.69-3.22-6.27-4.94-10.43-5.38c-3.51-0.37-6.88,0.43-10.14,1.68
			c-7.58,2.91-13.58,7.97-18.72,14.1c-4.25,5.07-7.49,10.69-8.46,17.4c-1.03,7.15,4.16,13.31,11.34,13.44
			c4.3,0.08,8.12-1.45,11.76-3.44c7.71-4.2,14.23-9.94,20.53-15.97c0.54-0.52,0.97-1.24,2.03-1.39c-0.23,0.67-0.37,1.19-0.57,1.69
			c-2.51,6.3-5.06,12.59-7.52,18.9c-0.53,1.35-1.37,2.23-2.6,2.95c-10.88,6.35-21.53,13.05-31.43,20.86
			c-8.32,6.56-16.1,13.66-21.87,22.65c-4.3,6.7-7.26,13.88-7.01,22.04C0.35,177.51,9.1,183.92,19.58,181
			c5.63-1.57,10.26-4.8,14.36-8.8c8.09-7.88,13.95-17.37,19.24-27.24c6.03-11.27,10.88-23.08,15.71-34.89
			c0.83-2.03,2.1-3.3,4.06-4.24c15.08-7.22,30.3-14.16,44.94-22.26c1.47-0.81,1.77-0.39,1.7,1.1c-0.19,4,0.5,7.87,2.16,11.53
			c2.29,5.06,6.02,8.54,11.45,9.98c7.95,2.11,14.76-0.27,20.62-5.66c5.27-4.85,8.47-11.03,10.41-17.83
			c0.58-2.04,1.47-2.83,3.58-2.63c1.71,0.15,3.45-0.05,5.17-0.14c4.63-0.22,9.22-0.73,13.76-1.7c1.11-0.24,1.28,0.14,1.05,1.14
			c-0.27,1.14-0.52,2.3-0.59,3.46c-0.39,6.69,1.15,12.69,6.81,16.87c5.1,3.77,10.78,3.55,16.42,1.45
			c8.61-3.2,13.97-9.62,17.12-18.06c0.39-1.04,0.7-1.9,2.1-1.85c5.25,0.19,10.48-0.18,15.68-0.91c1.22-0.17,1.25,0.33,0.96,1.23
			c-0.36,1.12-0.73,2.23-1.01,3.36c-1.18,4.78-1.91,9.56-0.18,14.38c1.7,4.75,5.35,7.39,10.38,7.43c4.06,0.03,7.74-1.33,11.26-3.23
			c5.94-3.2,10.9-7.61,15.53-12.44c0.45-0.47,0.77-1.12,1.5-1.26c0.27,0.31,0.11,0.61,0.06,0.9c-1.47,9.36-1.41,18.67,0.97,27.88
			c2.15,8.34,5.99,15.65,13.19,20.8c4.38,3.13,10.25,0.5,11-4.88C309.28,132.48,308.7,130.89,306.81,129.83z M66.16,67.19
			c-7,6.69-13.85,13.56-22.49,18.22c-2.35,1.27-4.99,2.34-6.26,2.37c-1.2,0.11-1.78-0.5-1.64-1.76c0.2-1.86,0.75-3.63,1.63-5.27
			c3.77-7.01,9.1-12.53,15.99-16.53c1.77-1.03,3.69-1.75,5.72-2.07c2.9-0.46,5.36,0.32,7.17,2.78
			C66.88,65.76,66.97,66.41,66.16,67.19z M52.63,121.64c-5.05,10.49-9.95,21.07-16.33,30.86c-4.08,6.27-8.59,12.21-15,16.38
			c-1.72,1.12-3.53,2.03-5.63,2.17c-3.31,0.22-5.26-1.47-5.48-4.79c-0.3-4.48,1.29-8.47,3.27-12.35
			c4.04-7.89,10.13-14.06,16.76-19.75c7.12-6.12,14.84-11.43,22.75-16.47c0.44-0.28,0.93-0.5,1.84-0.97
			C53.95,118.64,53.34,120.16,52.63,121.64z M153.75,80.28c-1.81,5.53-4.2,10.67-8.91,14.37c-1.83,1.44-3.92,2.31-6.32,2.38
			c-2.14-0.07-3.9-0.93-5.25-2.63c-1.54-1.95-2.31-4.24-2.6-6.63c-0.8-6.71,0.7-12.83,4.88-18.24c0.81-1.04,1.36-1.29,2.47-0.3
			c4.13,3.73,8.94,6.33,14.21,8.04C153.91,77.83,154.3,78.62,153.75,80.28z M152.7,66.51c-3.55-1.54-6.81-3.47-9.07-6.75
			c-0.75-1.09-1.26-2.25-1.33-3.59c-0.14-2.93,2.11-4.72,4.96-3.93c2.11,0.59,3.46,2.09,4.4,3.96c1.42,2.85,1.98,5.94,2.33,8.55
			C154.13,66.27,154.1,67.11,152.7,66.51z M216.72,80.34c-2.37,5.3-5.81,9.54-11.49,11.54c-0.35,0.12-0.72,0.17-1.08,0.24
			c-0.18,0.03-0.37,0.03-0.55,0.05c-2.2-0.12-3.66-1.28-4.52-3.25c-1.96-4.48,0.2-12.53,4.12-15.54c0.7-0.53,1.22-0.39,1.81,0.04
			c3.3,2.42,6.89,4.28,10.82,5.48C216.54,79.11,217.13,79.43,216.72,80.34z M216.76,67.95c-2.73-1.17-5.42-2.48-6.95-5.21
			c-0.79-1.41,0.03-2.6,1.81-2.55c1.47,0.2,2.64,1.17,3.61,2.41c1.04,1.32,1.75,2.82,2.2,4.43
			C217.61,67.65,217.66,68.34,216.76,67.95z M288.74,67.39c-7.08,8.78-13.91,17.79-23.01,24.68c-2.08,1.57-4.31,2.9-6.78,3.74
			c-3.59,1.23-4.96,0.14-4.79-4.48c0.3-3.64,2.02-7.67,4.09-11.54c3.33-6.23,7.2-12.08,12.87-16.49c2.73-2.12,5.64-3.77,9.28-3.56
			c3.26,0.18,7.48,3.27,8.58,6.29C289.18,66.57,289.07,66.98,288.74,67.39z"/>
	</g>
</g>
</svg>
