<svg xmlns="http://www.w3.org/2000/svg" viewBox="0 0 382 172"><g><g><path fill="#d6496f" d="M-.067 156.157c-.123-4.992 1.474-10.188 3.782-14.287 4.523-8.032 12.05-14.678 19.44-20.03 10.086-7.305 21.06-13.239 31.795-19.509 1.248-.729 2.096-1.616 2.63-2.983 2.49-6.387 5.066-12.74 7.604-19.11.201-.505.35-1.03.58-1.712-1.067.15-1.503.882-2.049 1.404-6.368 6.091-12.968 11.895-20.758 16.143-3.689 2.012-7.549 3.558-11.894 3.481-7.264-.13-12.514-6.36-11.468-13.589.982-6.786 4.258-12.459 8.555-17.589 5.19-6.195 11.261-11.31 18.921-14.256 3.287-1.265 6.693-2.069 10.246-1.696 4.202.441 7.825 2.183 10.543 5.44 1.197 1.434 1.887 1.22 2.94-.066a211.946 211.946 0 0 1 7.063-8.227c1.83-2.014 2.935-2.132 5.304-.975 4.076 1.99 4.635 3.647 2.825 8.14-4.567 11.33-9.117 22.665-13.674 34-.184.458-.355.922-.584 1.52.775.147 1.17-.214 1.598-.43 14.294-7.255 28.575-14.533 42.887-21.753 1.625-.82 2.844-1.849 3.715-3.479 1.416-2.656 3.241-5.036 5.733-6.809.868-.619 1.141-1.303.9-2.385-.522-2.32-.699-4.675-.19-7.043 1.633-7.584 8.686-11.907 16.716-10.135 6.898 1.521 11.492 5.947 14.74 11.984 2.617 4.866 3.812 10.14 4.236 15.581.14 1.791.901 2.327 2.527 2.443 9.854.708 19.13-1.03 27.63-6.277.79-.488.966-1.057.864-1.855-1.143-8.887 6.92-13.448 13.99-12.604 9.056 1.08 15.912 7.866 18.023 17.572 1.037 4.772 1.04 4.695 5.98 4.784 5.944.107 11.662-.922 17.234-2.943 1.226-.445 2.136-1.137 2.896-2.206 3.87-5.447 8.446-10.164 14.36-13.427 7.828-4.319 16.386-4.754 23.69 1.427 2.184-5.807 4.521-11.569 7.071-17.267 4.761-10.643 6.464-15.837 13.69-25.45 2.836-3.773 5.967-7.335 10.291-9.93 4.5-2.702 9.537-2.433 12.712.717 2.248 2.23 2.325 4.98 2.028 7.746-.528 4.9-2.574 9.43-4.876 13.87-5.289 10.201-8.868 14.236-15.783 23.626-5.92 8.04-11.805 16.098-17.904 24.035a5.626 5.626 0 0 0-.257.66c-3.412 10.947-5.89 22.05-5.195 33.615.451 7.487 2.365 14.501 7.368 20.376 1.634 1.92 3.538 3.525 5.727 4.754 1.911 1.074 2.491 2.682 2.206 4.721-.76 5.438-6.689 8.103-11.12 4.935-7.274-5.198-11.16-12.592-13.33-21.025-2.399-9.316-2.463-18.729-.978-28.187.046-.295.206-.595-.062-.91-.737.133-1.062.798-1.514 1.268-4.684 4.881-9.7 9.34-15.703 12.577-3.56 1.92-7.279 3.29-11.387 3.262-5.093-.033-8.777-2.704-10.498-7.507-1.746-4.872-1.01-9.709.183-14.536.283-1.148.664-2.272 1.024-3.4.29-.91.258-1.42-.97-1.247-5.258.743-10.546 1.111-15.856.921-1.42-.05-1.734.814-2.128 1.866-3.184 8.524-8.604 15.015-17.31 18.254-5.697 2.12-11.437 2.338-16.598-1.47-5.726-4.227-7.282-10.295-6.885-17.055.07-1.174.318-2.347.591-3.496.24-1.01.068-1.389-1.058-1.15-4.585.976-9.23 1.49-13.909 1.715-1.743.085-3.503.294-5.228.137-2.134-.193-3.032.6-3.622 2.664-1.963 6.875-5.194 13.118-10.524 18.024-5.923 5.452-12.809 7.861-20.842 5.724-5.48-1.458-9.26-4.976-11.572-10.092-1.67-3.7-2.37-7.607-2.178-11.655.072-1.513-.237-1.937-1.722-1.115-14.8 8.19-30.187 15.203-45.43 22.501-1.982.948-3.266 2.234-4.106 4.285-4.885 11.941-3.837 11.438-9.934 22.834-5.34 9.98-11.264 19.572-19.446 27.541-4.15 4.043-8.825 7.31-14.52 8.9-6.66 1.861-14.38-.317-17.794-6.646-1.31-2.43-1.914-5.15-1.982-7.934zm60.92-88.03c.816-.783.724-1.444.118-2.27-1.825-2.489-4.315-3.276-7.248-2.816-2.049.322-3.986 1.051-5.78 2.092-6.966 4.043-12.358 9.623-16.166 16.711a14.569 14.569 0 0 0-1.649 5.327c-.14 1.27.443 1.885 1.656 1.778 1.287-.03 3.956-1.117 6.331-2.4 8.74-4.719 15.661-11.662 22.737-18.423zm-13.345 51.055c-6.217 2.991-12.258 6.375-17.929 10.312-5.178 3.593-11.572 10.807-15.496 15.798-3.1 3.944-8.595 16.067 1.668 15.39 2.126-.14 3.954-1.066 5.692-2.195 6.482-4.212 11.037-10.22 15.166-16.56 6.444-9.892 5.45-8.146 10.557-18.754.718-1.49 1.343-3.027 2.201-4.972-.914.48-1.379.75-1.859.981zm101.89-37.82c.551-1.683.161-2.476-1.535-3.026-5.332-1.729-10.197-4.36-14.369-8.132-1.116-1.01-1.678-.756-2.493.298-4.226 5.47-5.742 11.66-4.93 18.438.29 2.424 1.062 4.737 2.624 6.706 1.365 1.722 3.143 2.59 5.31 2.658 2.42-.077 4.54-.959 6.385-2.41 4.76-3.743 7.18-8.946 9.007-14.533zm-1.057-13.923c1.411.612 1.445-.245 1.31-1.764-.356-2.64-.918-5.768-2.355-8.648-.945-1.894-2.31-3.41-4.446-4.005-2.89-.807-5.165 1.011-5.019 3.97.067 1.352.585 2.522 1.343 3.624 2.283 3.317 5.575 5.266 9.167 6.823zm64.72 13.982c.413-.92-.189-1.237-.903-1.456-3.967-1.216-7.595-3.096-10.935-5.545-.602-.44-1.125-.583-1.83-.043-3.968 3.04-6.155 11.176-4.17 15.71.874 1.995 2.343 3.167 4.571 3.29.186-.015.375-.012.558-.047.366-.067.743-.117 1.092-.24 5.748-2.023 9.22-6.316 11.617-11.669zm.04-12.523c.911.392.856-.307.682-.925-.458-1.637-1.178-3.146-2.227-4.483-.985-1.254-2.164-2.23-3.655-2.437-1.797-.057-2.63 1.145-1.829 2.574 1.552 2.768 4.273 4.085 7.028 5.271zm72.768-.568c.333-.414.44-.825.24-1.376-1.112-3.057-5.373-6.174-8.672-6.36-3.68-.208-6.622 1.461-9.378 3.604-5.74 4.461-9.65 10.372-13.014 16.671-2.086 3.91-3.824 7.981-4.13 11.664-.177 4.668 1.215 5.765 4.841 4.524 2.491-.852 4.746-2.189 6.85-3.78 9.205-6.967 16.11-16.072 23.263-24.947zm37.84-55.042c.06-.288.23-.694-.237-.8-.205-.048-.566.15-.744.323-.686.67-1.389 1.335-1.976 2.068-8.888 11.112-11.342 18.197-17.038 30.67l.4.238c1.785-2.5 3.605-4.982 5.348-7.504 5.885-8.516 8.345-11.724 12.74-20.934.63-1.32 1.22-2.65 1.507-4.06z"/></g><g><path fill="#d6496f" d="M355.952 89.219c-1.056.484-1.307.899-1.018 1.814 1.444 4.557.217 9.1-2.349 13.534-3.914 6.763-9.936 11.69-18.724 14.017-3.1.82-6.21 1.078-9.24.542-6.525-1.158-9.416-5.711-7.168-11.202 1.484-3.626 4.294-6.643 7.389-9.521 4.108-3.82 8.84-7.05 13.863-9.986.999-.585 1.31-.99.549-1.794-4.666-4.938-10.402-10.116-12.584-16.25-2.55-7.17 1.92-15.321 8.958-19.718 4.614-2.883 12.951-3.403 16.042 1.393.552.856.858 1.867.92 2.908.128 2.184-.82 4.498-2.846 5.783-.904.573-2.167 1.08-3.324 1.13-.57.026-1.18-.113-1.552-.471-1.123-1.081-1.469-3.141-3.98-2.27-2.397.834-2.92 3.836-2.984 5.695-.075 2.229.633 4.484 2.068 6.379 2.75 3.629 5.976 7.262 9.268 10.569.664.667 1.224.67 2.198.222 6.087-2.807 12.41-5.086 18.858-6.906 3.325-.938 11.016-3.225 11.187 2.455.125 4.145-3.65 4.26-6.714 5.063a129.155 129.155 0 0 0-6.4 1.846c-4.229 1.343-8.384 2.919-12.417 4.768zm-26.175 21.87c6.88-1.163 13.44-6.986 14.25-12.863-.003-.436-.001-1.117-.016-1.797-.02-.868-.442-.904-1.298-.384-4.252 2.586-8.189 5.457-11.612 8.787-1.322 1.285-2.628 2.598-3.388 4.163-.802 1.65-.004 2.445 2.064 2.095z"/></g></g></svg>