<?xml version="1.0" encoding="utf-8"?>
<!-- Generator: Adobe Illustrator 24.1.2, SVG Export Plug-In . SVG Version: 6.00 Build 0)  -->
<svg version="1.1" id="Слой_1" xmlns="http://www.w3.org/2000/svg" xmlns:xlink="http://www.w3.org/1999/xlink" x="0px" y="0px"
	 viewBox="0 0 398.2 391.02" style="enable-background:new 0 0 398.2 391.02;" xml:space="preserve">
<style type="text/css">
	.st0{fill:#FF7729;}
	.st1{fill-rule:evenodd;clip-rule:evenodd;fill:#FFFFFF;}
	.st2{fill:#FFFFFF;}
</style>
<path class="st0" d="M272.98,15.75c32.54,10.49,63.16,26.66,86.6,51.23c92.42,96.87,5.33,296.79-117.76,321.16
	c-6.86,1.2-13.79,2.01-20.77,2.46c-34.87,2.22-71.15-4.39-104.43-17.7C-11.29,321.73-49.82,89.67,81.96,21.07
	C129.77-3.83,187.1-4.08,239.84,7.02C250.97,9.36,262.08,12.24,272.98,15.75z"/>
<g>
	<g>
		<path class="st1" d="M289.49,134.16c-0.38,2.4-0.44,4.87-0.77,7.32c-0.32,2.41-0.55,4.85-0.82,7.3c-0.26,2.42-0.69,4.84-0.91,7.3
			c-0.21,2.43-0.35,4.88-0.5,7.34c-0.16,2.43-0.53,4.87-0.63,7.33c-0.11,2.44-0.02,4.9-0.08,7.36c-0.06,2.44-0.04,4.89-0.05,7.36
			c-0.01,2.44-0.07,4.89-0.03,7.36c0.03,2.44,0.25,4.89,0.32,7.35c0.08,2.44,0.02,4.9,0.14,7.36c0.12,2.44,0.45,4.88,0.61,7.33
			c0.16,2.44,0.03,4.91,0.23,7.36c0.2,2.44,0.49,4.88,0.73,7.32c0.24,2.44,0.48,4.88,0.76,7.32c0.28,2.43,0.64,4.86,0.96,7.3
			c0.32,2.43,0.59,4.87,0.95,7.3c0.36,2.42,1.06,4.8,1.46,7.22c0.4,2.42,0.8,4.84,1.24,7.25c0.44,2.41,0.6,4.88,1.08,7.29
			c0.48,2.41,1.14,4.78,1.66,7.17c0.52,2.4,0.94,4.82,1.49,7.21c0.56,2.39,1.3,4.74,1.89,7.11c0.58,2.26,1.16,4.5,1.74,6.72
			c0.59,2.26,0.98,4.42,1.57,6.63c-2.22,0.19-4.29,0.57-6.52,0.81c-2.22,0.23-4.46,0.29-6.68,0.56c-2.39,0.35-4.77,0.73-7.17,1.05
			c-2.39,0.32-4.78,0.7-7.17,1c-2.4,0.29-4.81,0.48-7.21,0.74c-2.4,0.27-4.8,0.49-7.21,0.72c-2.4,0.24-4.79,0.59-7.2,0.8
			c-2.41,0.21-4.8,0.5-7.21,0.69c-2.41,0.19-4.83,0.11-7.24,0.27c-2.41,0.16-4.82,0.35-7.23,0.48c-2.41,0.13-4.81,0.52-7.22,0.62
			c-2.41,0.1-4.83,0.13-7.24,0.21c-2.41,0.08-4.83,0.24-7.24,0.29c-2.41,0.05-4.83-0.12-7.25-0.1c-2.41,0.02-4.83-0.15-7.24-0.15
			c-2.41,0-4.83,0.13-7.24,0.1c-2.41-0.03-4.83,0.11-7.25,0.05c-2.41-0.06-4.82-0.38-7.23-0.46c-2.41-0.08-4.83-0.09-7.24-0.2
			c-2.41-0.11-4.82-0.28-7.23-0.41c-2.41-0.13-4.82-0.29-7.23-0.45c-2.41-0.16-4.83-0.11-7.24-0.3c-2.41-0.19-4.8-0.58-7.2-0.79
			c-2.4-0.21-4.81-0.38-7.22-0.62c-2.4-0.24-4.8-0.51-7.2-0.77c-2.4-0.27-4.81-0.45-7.21-0.74c-2.4-0.29-4.77-0.78-7.16-1.1
			c-2.22-0.35-4.46-0.65-6.68-1.03c-2.22-0.38-4.38-0.77-6.59-1.2c0.58-2.11,1.25-4.12,1.82-6.19c0.59-2.11,0.92-4.27,1.51-6.34
			c0.68-2.34,1.4-4.66,2.03-7.02c0.63-2.35,1.15-4.73,1.73-7.09c0.58-2.36,1.4-4.67,1.93-7.05c0.53-2.37,0.97-4.77,1.45-7.16
			c0.48-2.38,0.79-4.8,1.21-7.2c0.42-2.39,0.95-4.77,1.32-7.18c0.37-2.4,0.42-4.85,0.74-7.27c0.32-2.41,0.7-4.81,0.97-7.24
			c0.27-2.41,0.57-4.83,0.78-7.26c0.21-2.42,0.55-4.83,0.72-7.27c0.16-2.42,0.13-4.86,0.24-7.3c0.11-2.42,0.26-4.85,0.33-7.29
			c0.06-2.42,0.09-4.86,0.1-7.3c0.01-2.42,0.18-4.86,0.15-7.31c-0.03-2.42-0.26-4.85-0.34-7.3c-0.08-2.42-0.21-4.85-0.34-7.29
			c-0.12-2.42-0.1-4.86-0.27-7.3c-0.17-2.41-0.3-4.85-0.52-7.29c-0.21-2.41-0.77-4.8-1.03-7.24c-0.25-2.41-0.18-4.87-0.48-7.3
			c-0.29-2.4-0.72-4.81-1.05-7.23c-0.35-2.54-0.83-5.06-1.18-7.6c-0.35-2.54-0.69-5.13-1.04-7.67c2.38,0.81,4.79,1.67,7.18,2.3
			c2.43,0.65,4.84,1.31,7.27,1.8c2.36,0.48,4.73,0.87,7.1,1.19c2.38,0.32,4.8,0.26,7.18,0.44c2.39,0.17,4.78,0.27,7.17,0.31
			c2.39,0.04,4.79,0.17,7.18,0.09c2.39-0.08,4.78-0.25,7.17-0.44c2.38-0.18,4.78-0.33,7.16-0.6c2.37-0.27,4.74-0.66,7.12-1
			c2.37-0.34,4.72-0.77,7.09-1.18c2.36-0.4,4.75-0.62,7.11-1.07c2.35-0.45,4.71-0.89,7.06-1.36c2.35-0.48,4.62-1.31,6.96-1.8
			c2.34-0.49,4.71-0.86,7.06-1.35c2.34-0.5,4.67-1.08,7.01-1.56c2.35-0.49,4.68-1.06,7.02-1.53c2.35-0.46,4.72-0.88,7.07-1.3
			c2.36-0.43,4.74-0.77,7.1-1.15c2.37-0.38,4.77-0.51,7.14-0.82c2.38-0.31,4.76-0.51,7.14-0.74c2.39-0.23,4.76-0.64,7.14-0.77
			c2.39-0.13,4.79-0.24,7.18-0.26c2.39-0.02,4.8-0.05,7.19,0.06c2.39,0.11,4.76,0.56,7.14,0.81c2.42,0.25,4.84,0.52,7.26,0.93
			c2.39,0.41,4.81,0.79,7.2,1.37c-0.35,2.23-0.81,4.45-1.16,6.68c-0.35,2.22-0.62,4.47-0.97,6.7
			C289.66,134.19,289.49,134.16,289.49,134.16z"/>
		<path class="st2" d="M156.09,180.31c-0.25-2.13-0.53-4.44-0.8-6.9c-0.24-2.19-0.55-4.49-0.79-6.9c-0.22-2.22-0.25-4.55-0.46-6.93
			c-0.2-2.25-0.42-4.55-0.6-6.92c-0.17-2.26-0.33-4.58-0.46-6.93c-0.13-2.28-0.35-4.59-0.45-6.94c-0.09-2.29-0.12-4.61-0.17-6.95
			c-0.05-2.3-0.06-4.62-0.06-6.95c0-2.31,0-4.63,0.06-6.95c0.06-2.31,0.34-4.62,0.46-6.94c0.12-2.32,0.27-4.63,0.46-6.93
			c0.2-2.32,0.28-4.64,0.56-6.93c0.3-2.51,0.56-5.01,0.97-7.45c0.41-2.5,0.9-4.97,1.43-7.38c0.55-2.49,1.27-4.89,1.96-7.25
			c0.71-2.46,1.55-4.82,2.41-7.11c0.91-2.4,1.9-4.69,3-6.87c1.15-2.29,2.43-4.43,3.81-6.45c1.44-2.11,2.89-4.16,4.59-5.93
			c1.76-1.82,3.77-3.3,5.83-4.7c2.05-1.4,4.17-2.71,6.54-3.64c2.26-0.88,4.68-1.54,7.24-1.95c2.36-0.38,4.86-0.6,7.49-0.55
			c2.56,0.05,5.01,0.2,7.31,0.55c2.53,0.38,4.92,0.95,7.15,1.66c2.41,0.77,4.56,1.94,6.64,3.07c2.19,1.18,4.23,2.49,6.08,4.04
			c1.88,1.56,3.67,3.22,5.23,5.12c1.53,1.86,2.94,3.87,4.18,6.02c1.2,2.07,2.24,4.29,3.2,6.59c0.92,2.2,1.55,4.57,2.27,6.96
			c0.69,2.29,1.35,4.64,1.87,7.07c0.5,2.35,1.08,4.73,1.43,7.18c0.33,2.28,0.44,4.63,0.66,6.99c0.21,2.3,0.51,4.64,0.62,7
			c0.12,2.32,0.23,4.67,0.26,7.02c0.04,2.33-0.07,4.68-0.1,7.03c-0.03,2.35-0.04,4.69-0.13,7.02c-0.09,2.36-0.43,4.69-0.56,7.01
			c-0.14,2.37-0.07,4.72-0.24,7.02c-0.18,2.38-0.61,4.7-0.81,6.98c-0.22,2.39-0.44,4.73-0.67,6.99c-0.25,2.42-0.44,4.76-0.69,6.99
			c-0.27,2.46-0.38,4.9-0.62,7.08c-2.49,0.01-5.1,0.03-7.59,0.14c0.24-2.15,0.5-4.5,0.76-6.92c0.24-2.19,0.58-4.48,0.82-6.85
			c0.23-2.22,0.49-4.52,0.7-6.87c0.2-2.25,0.45-4.54,0.63-6.88c0.17-2.26,0.07-4.58,0.21-6.91c0.14-2.28,0.47-4.57,0.57-6.89
			c0.09-2.29-0.04-4.61,0-6.91c0.04-2.31,0.15-4.61,0.12-6.91c-0.03-2.32,0.02-4.63-0.09-6.91c-0.11-2.33-0.37-4.62-0.57-6.89
			c-0.21-2.33-0.52-4.62-0.84-6.85c-0.34-2.35-0.83-4.62-1.31-6.86c-0.49-2.33-0.85-4.65-1.51-6.83c-0.69-2.28-1.48-4.5-2.37-6.58
			c-0.94-2.2-2.22-4.16-3.41-6.09c-1.25-2.02-2.49-4-4.04-5.68c-1.58-1.73-3.39-3.2-5.31-4.52c-1.88-1.3-3.95-2.31-6.18-3.17
			c-2.08-0.81-4.29-1.46-6.7-1.85c-2.18-0.35-4.49-0.66-6.95-0.64c-2.49,0.02-4.82,0.43-7.03,0.93c-2.39,0.53-4.63,1.25-6.69,2.29
			c-2.12,1.07-4.09,2.39-5.89,3.93c-1.76,1.51-3.27,3.33-4.75,5.24c-1.41,1.82-2.85,3.7-4.02,5.84c-1.1,2.01-1.94,4.24-2.85,6.49
			c-0.86,2.14-1.74,4.34-2.44,6.66c-0.67,2.22-1.19,4.53-1.72,6.88c-0.51,2.27-0.89,4.6-1.29,6.97c-0.39,2.3-0.95,4.62-1.24,6.99
			c-0.29,2.43-0.34,4.89-0.54,7.35c-0.2,2.44-0.45,4.89-0.57,7.35c-0.12,2.46-0.29,4.91-0.33,7.36c-0.04,2.47,0.06,4.93,0.08,7.37
			c0.02,2.48,0.07,4.94,0.15,7.37c0.08,2.49,0.05,4.95,0.18,7.37c0.13,2.5,0.37,4.95,0.53,7.35c0.17,2.51,0.39,4.96,0.59,7.35
			c0.22,2.53,0.5,4.98,0.73,7.33c0.25,2.56,0.57,5.01,0.83,7.32c0.29,2.62,0.5,5.11,0.76,7.35c-2.49,0.67-4.98,1.39-7.47,1.97
			C156.13,180.43,156.09,180.31,156.09,180.31z"/>
	</g>
</g>
</svg>
