<?xml version="1.0" encoding="utf-8"?>
<!-- Generator: Adobe Illustrator 24.1.2, SVG Export Plug-In . SVG Version: 6.00 Build 0)  -->
<svg version="1.1" id="Слой_1" xmlns="http://www.w3.org/2000/svg" xmlns:xlink="http://www.w3.org/1999/xlink" x="0px" y="0px"
	 viewBox="0 0 401.9 394.65" style="enable-background:new 0 0 401.9 394.65;" xml:space="preserve">
<style type="text/css">
	.st0{fill:#D6496F;}
	.st1{fill-rule:evenodd;clip-rule:evenodd;fill:#FFFFFF;}
</style>
<path class="st0" d="M275.52,15.9c32.84,10.59,63.75,26.91,87.4,51.7c93.28,97.77,5.38,299.55-118.86,324.15
	c-6.92,1.21-13.91,2.03-20.96,2.48c-35.19,2.24-71.81-4.43-105.4-17.87C-11.4,324.72-50.28,90.5,82.72,21.26
	C130.97-3.86,188.83-4.12,242.07,7.08C253.3,9.45,264.52,12.35,275.52,15.9z"/>
<g>
	<path class="st1" d="M93.17,162.61c-12.64,3.73-28.64-8.23-5.52-7.21c-13.73-34.81,39.61-19.44,14.32,3.72
		c9.06,5.88,12.7-6.77,18.99-11.67c9.74-7.58,27.1-14.94,40.2-17.66c16.15-3.36,28.53-1.14,44.92-1.26
		c35.14,6.89,36.95-19.61,75.35-14.97c13.23,3.6-8.65,26.28-6.15,37.29c6.28,5.46,12.13,10.75,16.17,16.59
		c15.41,30.08,36.44,6.52,34.23,42.95c0.22,15.56-1.48,24.39-8.64,25.81c-11.63,2.29-18.2,6.74-22.24,11.71
		c-9.29,13.02-24.49,17.26-34.94,27.98c-7.82,9.5,2.88,23.32-15.04,25.81c-8.76,1.22-10.01,1.3-18.94,1.3
		c-14.9,0.55-5.3-16.96-17.3-16.05c-11.3,1.69-19.52,1.71-29.84,0.18c-15.05-4.86-7.99,13.08-19.32,13.45
		c-23.56,0.77-19.1,1.77-23.64,1.11c-14.37-2.11-6.69-25.68-17.14-34.93c-7.7-6.81-15.54-13.15-17.83-28.38
		c-3.4-22.58-10.15-49.07,4.29-71.2C101.45,166.07,94.95,165.99,93.17,162.61z M214.01,139.63c-5.11-0.75-65.18-2.17-46.12,8.07
		c15.03-2.06,31.47-1.96,46.44-0.8C219.75,146.93,218.98,140.2,214.01,139.63z M269.26,170.41c8.74-4.44,14.99,8.73,6.67,13.17
		C267.69,187.89,261.05,173.22,269.26,170.41z M95.3,154.66c6.8-1.96,8.25-15.41-0.94-12.46C90.05,145.13,93.29,152.24,95.3,154.66z
		"/>
</g>
</svg>
