<svg xmlns="http://www.w3.org/2000/svg" width="41" height="41" viewBox="0 0 41 41"><g><g><path fill="#ff7729" d="M40.236 36.207c.698.7.346 2.185-.79 3.32-1.134 1.135-2.62 1.49-3.318.788l-1.09-1.089-9.993-9.842a15.927 15.927 0 0 1-8.86 2.677C7.34 32.061.172 24.893.172 16.048.172 7.205 7.34.035 16.185.035c8.845 0 16.014 7.17 16.014 16.013 0 3.467-1.113 6.667-2.985 9.287l9.713 9.568.002-.002.289.288zm-23.833-8.899c6.219 0 11.26-5.04 11.26-11.26 0-6.219-5.041-11.259-11.26-11.259-6.218 0-11.26 5.04-11.26 11.26 0 6.218 5.042 11.26 11.26 11.26z"/></g></g></svg>