<?xml version="1.0" encoding="utf-8"?>
<!-- Generator: Adobe Illustrator 24.1.2, SVG Export Plug-In . SVG Version: 6.00 Build 0)  -->
<svg version="1.1" id="Слой_1" xmlns="http://www.w3.org/2000/svg" xmlns:xlink="http://www.w3.org/1999/xlink" x="0px" y="0px"
	 viewBox="0 0 404.27 397.81" style="enable-background:new 0 0 404.27 397.81;" xml:space="preserve">
<style type="text/css">
	.st0{fill:#29C4AD;}
	.st1{fill:#FFFFFF;}
</style>
<path class="st0" d="M181.07,7.33c33.4-8.19,68.15-10.5,101.19-1.83c130.26,34.18,161.18,251.34,68.63,337.16
	c-5.24,4.65-10.75,8.99-16.49,13.06c-28.69,20.3-63.25,33.78-98.77,39.95C99.1,419.36-56.34,240.97,20.3,112.69
	C48.1,66.14,97.06,35.67,148.09,17.34C158.85,13.47,169.89,10.07,181.07,7.33z"/>
<g>
	<path class="st1" d="M298.11,97.65c-0.02-16.15-11.55-29.83-27.66-30.92c-16.34-1.1-34.32-0.96-53.21-0.92
		c-18.9,0.04-37.53,3.5-53.87,4.67c-16.1,1.15-28.75,14.99-28.72,31.13c0.15,95.01,0.25,95.01,0.39,190.02
		c0.02,15.83,12.11,29.8,27.87,31.29c16.6,1.57,34.55,2.66,53.78,2.62c19.21-0.04,37.49,0.21,54.02-1.42
		c15.74-1.55,28.02-16.95,28-32.77C297.76,196.33,298.25,192.66,298.11,97.65z M223.29,312.25c-7.08,3.42-15.79-0.48-19.21-7.56
		c-3.42-7.08-0.87-15.97,6.21-19.38c7.08-3.42,15.51,0.17,18.93,7.25S230.37,308.84,223.29,312.25z M217.25,275.23
		c-22.33,0.04-42.89-0.56-59.53-3.35c-8.28-78.44-0.5-85.73-2.06-159.77c-0.12-5.7,38.93-2.97,61.25-3.01
		c22.33-0.04,42.32,0.84,58.92,2.87c8.3,78.43,3.29,100.55,0.42,157.7C275.78,278.86,239.57,275.19,217.25,275.23z"/>
</g>
</svg>
