<?xml version="1.0" encoding="utf-8"?>
<!-- Generator: Adobe Illustrator 24.1.2, SVG Export Plug-In . SVG Version: 6.00 Build 0)  -->
<svg version="1.1" id="Слой_1" xmlns="http://www.w3.org/2000/svg" xmlns:xlink="http://www.w3.org/1999/xlink" x="0px" y="0px"
	 viewBox="0 0 401.9 394.6" style="enable-background:new 0 0 401.9 394.6;" xml:space="preserve">
<style type="text/css">
	.st0{fill:#D6496F;}
	.st1{fill:#FFFFFF;}
</style>
<g>
	<path class="st0" d="M214,139.6c-5.1-0.8-65.2-2.2-46.1,8.1c15-2.1,31.5-2,46.4-0.8C219.7,146.9,219,140.2,214,139.6z"/>
	<path class="st0" d="M94.4,142.2c-4.3,2.9-1.1,10,0.9,12.5C102.1,152.7,103.5,139.3,94.4,142.2z"/>
	<path class="st0" d="M269.3,170.4c-8.2,2.8-1.6,17.5,6.7,13.2C284.2,179.1,278,166,269.3,170.4z"/>
	<path class="st0" d="M362.9,67.6c-23.7-24.8-54.6-41.1-87.4-51.7c-11-3.5-22.2-6.4-33.4-8.8C188.8-4.1,131-3.9,82.7,21.3
		c-133,69.2-94.1,303.5,35,355.1c33.6,13.4,70.2,20.1,105.4,17.9c7-0.5,14-1.3,21-2.5C368.3,367.1,456.2,165.4,362.9,67.6z
		 M191.1,75.7c11.6,0,21.1,9.4,21.1,21.1c0,11.6-9.4,21.1-21.1,21.1c-11.7,0-21.1-9.4-21.1-21.1C170,85.2,179.4,75.7,191.1,75.7z
		 M317,236.2c-11.6,2.3-18.2,6.7-22.2,11.7c-9.3,13-24.5,17.3-34.9,28c-7.8,9.5,2.9,23.3-15,25.8c-8.8,1.2-10,1.3-18.9,1.3
		c-14.9,0.5-5.3-17-17.3-16c-11.3,1.7-19.5,1.7-29.8,0.2c-15.1-4.9-8,13.1-19.3,13.5c-23.6,0.8-19.1,1.8-23.6,1.1
		c-14.4-2.1-6.7-25.7-17.1-34.9c-7.7-6.8-15.5-13.1-17.8-28.4c-3.4-22.6-10.2-49.1,4.3-71.2c-3.7-1.1-10.2-1.2-11.9-4.6
		c-12.6,3.7-28.6-8.2-5.5-7.2c-13.7-34.8,39.6-19.4,14.3,3.7c9.1,5.9,12.7-6.8,19-11.7c9.7-7.6,27.1-14.9,40.2-17.7
		c16.2-3.4,28.5-1.1,44.9-1.3c35.1,6.9,37-19.6,75.4-15c13.2,3.6-8.7,26.3-6.2,37.3c6.3,5.5,12.1,10.8,16.2,16.6
		c15.4,30.1,36.4,6.5,34.2,43C325.9,226,324.2,234.8,317,236.2z"/>
	<path class="st1" d="M291.4,167.4c-4-5.8-9.9-11.1-16.2-16.6c-2.5-11,19.4-33.7,6.2-37.3c-38.4-4.6-40.2,21.9-75.4,15
		c-16.4,0.1-28.8-2.1-44.9,1.3c-13.1,2.7-30.5,10.1-40.2,17.7c-6.3,4.9-9.9,17.5-19,11.7c25.3-23.2-28-38.5-14.3-3.7
		c-23.1-1-7.1,10.9,5.5,7.2c1.8,3.4,8.3,3.5,11.9,4.6c-14.4,22.1-7.7,48.6-4.3,71.2c2.3,15.2,10.1,21.6,17.8,28.4
		c10.4,9.3,2.8,32.8,17.1,34.9c4.5,0.7,0.1-0.3,23.6-1.1c11.3-0.4,4.3-18.3,19.3-13.5c10.3,1.5,18.5,1.5,29.8-0.2
		c12-0.9,2.4,16.6,17.3,16c8.9,0,10.2-0.1,18.9-1.3c17.9-2.5,7.2-16.3,15-25.8c10.4-10.7,25.6-15,34.9-28c4-5,10.6-9.4,22.2-11.7
		c7.2-1.4,8.9-10.3,8.6-25.8C327.9,174,306.9,197.5,291.4,167.4z M95.3,154.7c-2-2.4-5.2-9.5-0.9-12.5
		C103.5,139.3,102.1,152.7,95.3,154.7z M214.3,146.9c-15-1.2-31.4-1.3-46.4,0.8c-19.1-10.2,41-8.8,46.1-8.1
		C219,140.2,219.7,146.9,214.3,146.9z M275.9,183.6c-8.2,4.3-14.9-10.4-6.7-13.2C278,166,284.2,179.1,275.9,183.6z"/>
	<path class="st1" d="M191.1,117.9c11.6,0,21.1-9.4,21.1-21.1c0-11.7-9.4-21.1-21.1-21.1c-11.7,0-21.1,9.4-21.1,21.1
		C170,108.5,179.4,117.9,191.1,117.9z"/>
</g>
</svg>
