<?xml version="1.0" encoding="utf-8"?>
<!-- Generator: Adobe Illustrator 24.1.2, SVG Export Plug-In . SVG Version: 6.00 Build 0)  -->
<svg version="1.1" id="Слой_1" xmlns="http://www.w3.org/2000/svg" xmlns:xlink="http://www.w3.org/1999/xlink" x="0px" y="0px"
	 viewBox="0 0 404.3 397.8" style="enable-background:new 0 0 404.3 397.8;" xml:space="preserve">
<style type="text/css">
	.st0{fill:#29C4AD;}
	.st1{fill:#FFFFFF;}
</style>
<g>
	<path class="st0" d="M216.9,109.1c-22.3,0-61.4-2.7-61.3,3c1.6,74-6.2,81.3,2.1,159.8c16.6,2.8,37.2,3.4,59.5,3.3
		c22.3,0,58.5,3.6,59-5.6c2.9-57.1,7.9-79.3-0.4-157.7C259.2,109.9,239.2,109.1,216.9,109.1z M187,225.4h-11.1v-63.8H187L187,225.4z
		 M199.7,225.4h-7.2v-63.8h7.2L199.7,225.4z M216,225.4h-4.8v-63.8h4.8V225.4z M233.7,225.4h-7.2v-63.8h7.2L233.7,225.4z
		 M257.7,225.4h-14.8v-63.8h14.8V225.4z"/>
	<path class="st0" d="M210.3,285.3c-7.1,3.4-9.6,12.3-6.2,19.4c3.4,7.1,12.1,11,19.2,7.6c7.1-3.4,9.3-12.6,5.9-19.7
		C225.8,285.5,217.4,281.9,210.3,285.3z"/>
	<path class="st0" d="M282.3,5.5c-33-8.7-67.8-6.4-101.2,1.8c-11.2,2.7-22.2,6.1-33,10c-51,18.3-100,48.8-127.8,95.3
		c-76.6,128.3,78.8,306.7,215.3,283c35.5-6.2,70.1-19.6,98.8-39.9c5.7-4.1,11.2-8.4,16.5-13.1C443.4,256.8,412.5,39.7,282.3,5.5z
		 M270.7,324.1c-16.5,1.6-34.8,1.4-54,1.4c-19.2,0-37.2-1-53.8-2.6c-15.8-1.5-27.8-15.5-27.9-31.3c-0.1-95-0.2-95-0.4-190
		c0-16.1,12.6-30,28.7-31.1c16.3-1.2,35-4.6,53.9-4.7c18.9,0,36.9-0.2,53.2,0.9c16.1,1.1,27.6,14.8,27.7,30.9
		c0.1,95-0.3,98.7,0.6,193.7C298.7,307.2,286.4,322.6,270.7,324.1z"/>
	<path class="st1" d="M298.1,97.7c0-16.1-11.5-29.8-27.7-30.9c-16.3-1.1-34.3-1-53.2-0.9c-18.9,0-37.5,3.5-53.9,4.7
		c-16.1,1.1-28.7,15-28.7,31.1c0.1,95,0.2,95,0.4,190c0,15.8,12.1,29.8,27.9,31.3c16.6,1.6,34.5,2.7,53.8,2.6
		c19.2,0,37.5,0.2,54-1.4c15.7-1.6,28-17,28-32.8C297.8,196.3,298.3,192.7,298.1,97.7z M223.3,312.3c-7.1,3.4-15.8-0.5-19.2-7.6
		c-3.4-7.1-0.9-16,6.2-19.4c7.1-3.4,15.5,0.2,18.9,7.3C232.6,299.6,230.4,308.8,223.3,312.3z M276.2,269.7c-0.5,9.2-36.7,5.5-59,5.6
		c-22.3,0-42.9-0.6-59.5-3.3c-8.3-78.4-0.5-85.7-2.1-159.8c-0.1-5.7,38.9-3,61.3-3c22.3,0,42.3,0.8,58.9,2.9
		C284.1,190.4,279.1,212.5,276.2,269.7z"/>
	<rect x="175.9" y="161.6" class="st1" width="11.1" height="63.8"/>
	<rect x="192.6" y="161.6" class="st1" width="7.2" height="63.8"/>
	<rect x="226.6" y="161.6" class="st1" width="7.2" height="63.8"/>
	<rect x="242.8" y="161.6" class="st1" width="14.8" height="63.8"/>
	<rect x="211.2" y="161.6" class="st1" width="4.8" height="63.8"/>
</g>
</svg>
