<?xml version="1.0" encoding="utf-8"?>
<!-- Generator: Adobe Illustrator 24.1.2, SVG Export Plug-In . SVG Version: 6.00 Build 0)  -->
<svg version="1.1" id="Слой_1" xmlns="http://www.w3.org/2000/svg" xmlns:xlink="http://www.w3.org/1999/xlink" x="0px" y="0px"
	 viewBox="0 0 69.27 83.5" style="enable-background:new 0 0 69.27 83.5;" xml:space="preserve">
<style type="text/css">
	.st0{fill:#FFFFFF;}
	.st1{fill:#4D6C45;}
</style>
<g>
	<path class="st0" d="M56.91,20.61C47.55,34.6,40.48,49.92,35.87,65.98c-0.89,3.09-5.59,2.97-6.94,0.32
		c-4.88-9.62-9.76-19.24-14.64-28.86c-2.14-4.22,4.64-7.34,6.77-3.14c3.48,6.86,6.96,13.72,10.44,20.58
		c0.72-2.09,1.48-4.17,2.29-6.22c4.37-11.1,9.95-21.75,16.61-31.73c-0.67-0.24-1.35-0.46-2.05-0.64C42.7,14.8,36.75,15.2,31.02,16.6
		c-1.92,0.47-3.81,1.05-5.65,1.72c-8.74,3.14-17.13,8.36-21.9,16.34c-13.13,21.98,13.5,52.54,36.9,48.49
		c6.09-1.06,12.01-3.37,16.92-6.84c0.98-0.7,1.93-1.44,2.82-2.24C73.7,61.46,71.75,32.39,56.91,20.61z"/>
	<path class="st1" d="M31.51,54.88c-3.48-6.86-6.96-13.72-10.44-20.58c-2.13-4.2-8.91-1.08-6.77,3.14
		c4.88,9.62,9.76,19.24,14.64,28.86c1.34,2.65,6.05,2.76,6.94-0.32c4.61-16.06,11.67-31.38,21.04-45.37
		c0.59-0.88,1.18-1.75,1.78-2.61c2.96-4.24,6.13-8.34,9.48-12.31c1.28-1.51,0.62-3.99-0.96-5.05c-1.78-1.2-3.96-0.63-5.24,0.89
		c-4.15,4.91-8.01,10.06-11.57,15.39c-6.66,9.98-12.24,20.64-16.61,31.73C32.99,50.72,32.23,52.8,31.51,54.88z"/>
</g>
</svg>
