<?xml version="1.0" encoding="utf-8"?>
<!-- Generator: Adobe Illustrator 24.1.2, SVG Export Plug-In . SVG Version: 6.00 Build 0)  -->
<svg version="1.1" id="Слой_1" xmlns="http://www.w3.org/2000/svg" xmlns:xlink="http://www.w3.org/1999/xlink" x="0px" y="0px"
	 viewBox="0 0 349.4 6.37" style="enable-background:new 0 0 349.4 6.37;" xml:space="preserve">
<style type="text/css">
	.st0{fill:#EAA70E;}
</style>
<path class="st0" d="M346.67,0.93c-11.25,0.18-20.18-0.1-28.81-0.37c-8.75-0.28-17.8-0.57-29.31-0.38
	c-18.56,0.31-37.45,0.32-55.71,0.34c-7.14,0-14.27,0.01-21.41,0.03c-22.1,0.07-41.2,0.1-62.56,0.05
	c-17.44-0.05-33.97,0.05-49.96,0.15C74.06,0.9,50.6,1.04,24.32,0.68c-3.63-0.05-7.35-0.2-10.94-0.34C9.9,0.2,6.29,0.06,2.73,0
	C2.72,0,2.7,0,2.69,0C1.22,0,0.02,1.18,0,2.65c-0.02,1.48,1.16,2.71,2.64,2.73c3.5,0.06,7.07,0.2,10.53,0.33
	C16.8,5.85,20.54,6,24.25,6.05c26.33,0.36,49.82,0.22,74.68,0.07c15.98-0.09,32.5-0.2,49.92-0.15c21.38,0.05,40.49,0.02,62.59-0.05
	c7.13-0.02,14.26-0.03,21.4-0.03c18.29-0.01,37.2-0.03,55.8-0.34c11.38-0.19,20.36,0.1,29.05,0.37c6.75,0.22,13.69,0.44,21.78,0.44
	c2.33,0,4.75-0.02,7.29-0.06c1.48-0.02,2.67-1.25,2.64-2.73C349.37,2.09,348.14,0.87,346.67,0.93z"/>
</svg>
