<?xml version="1.0" encoding="utf-8"?>
<!-- Generator: Adobe Illustrator 24.1.2, SVG Export Plug-In . SVG Version: 6.00 Build 0)  -->
<svg version="1.1" id="Слой_1" xmlns="http://www.w3.org/2000/svg" xmlns:xlink="http://www.w3.org/1999/xlink" x="0px" y="0px"
	 viewBox="0 0 338.42 5.85" style="enable-background:new 0 0 338.42 5.85;" xml:space="preserve">
<style type="text/css">
	.st0{fill:#EAA70E;}
</style>
<g>
	<path class="st0" d="M335.71,0.44c-10.41,0.09-20.99-0.05-31.23-0.18C294.15,0.13,283.46,0,272.87,0.09
		c-17.12,0.15-34.53,0.15-51.38,0.16c-6.59,0-13.19,0-19.78,0.02c-20.41,0.03-38.04,0.05-57.72,0.02
		c-15.92-0.02-32.15,0.02-47.85,0.07C72,0.42,47.04,0.49,22.63,0.32c-3.37-0.02-6.8-0.09-10.12-0.16C9.24,0.09,5.98,0.03,2.71,0
		C1.24-0.01,0.01,1.18,0,2.67s1.18,2.7,2.67,2.71C5.91,5.4,9.15,5.47,12.4,5.53c3.34,0.07,6.79,0.14,10.19,0.16
		C47.03,5.87,72,5.8,96.15,5.73c15.7-0.04,31.92-0.09,47.83-0.07c19.69,0.03,37.32,0.01,57.74-0.02c6.59-0.01,13.18-0.01,19.78-0.02
		c16.86-0.01,34.29-0.01,51.42-0.16c10.53-0.09,21.19,0.05,31.5,0.18c7.97,0.1,16.16,0.21,24.32,0.21c2.34,0,4.69-0.01,7.02-0.03
		c1.48-0.01,2.68-1.23,2.66-2.71C338.41,1.62,337.16,0.45,335.71,0.44z"/>
</g>
</svg>
