<?xml version="1.0" encoding="utf-8"?>
<!-- Generator: Adobe Illustrator 24.1.2, SVG Export Plug-In . SVG Version: 6.00 Build 0)  -->
<svg version="1.1" id="Слой_1" xmlns="http://www.w3.org/2000/svg" xmlns:xlink="http://www.w3.org/1999/xlink" x="0px" y="0px"
	 viewBox="0 0 793.43 10.34" style="enable-background:new 0 0 793.43 10.34;" xml:space="preserve">
<style type="text/css">
	.st0{fill:#FFFFFF;}
</style>
<g>
	<path class="st0" d="M774.17,10.34c-19.35,0-38.73-1.1-57.61-2.18c-24.36-1.39-49.55-2.82-74.41-1.87
		c-40.56,1.55-81.81,1.62-121.69,1.69c-15.35,0.03-31.22,0.05-46.82,0.16C425.28,8.49,383.53,8.67,337,8.39
		c-37.63-0.23-76.02,0.26-113.16,0.73c-57.15,0.72-116.25,1.47-174.1-0.36c-8.09-0.25-16.27-1-24.18-1.72
		C18.02,6.36,10.22,5.65,2.59,5.37C1.11,5.32-0.05,4.07,0,2.59S1.3-0.06,2.78,0C10.56,0.28,18.44,1,26.05,1.69
		c7.83,0.71,15.94,1.45,23.86,1.7c57.74,1.82,116.77,1.07,173.86,0.35c37.16-0.47,75.58-0.96,113.26-0.73
		c46.5,0.28,88.22,0.11,136.56-0.24c15.62-0.11,31.49-0.14,46.85-0.16c39.84-0.07,81.03-0.13,121.5-1.68
		c25.11-0.96,50.43,0.48,74.92,1.87c24.19,1.38,49.2,2.8,73.78,1.87c1.5-0.06,2.73,1.1,2.79,2.58c0.06,1.48-1.1,2.73-2.58,2.79
		C785.3,10.25,779.74,10.34,774.17,10.34z"/>
</g>
</svg>
