<svg xmlns="http://www.w3.org/2000/svg" width="128" height="27" viewBox="0 0 256 54"><g><g><path fill="#fff" d="M18.453 30.89c-.05-.198-.224-.298-.522-.298H9.196c-.298 0-.448.149-.448.447v20.905c0 .794-.398 1.192-1.194 1.192H1.282c-.796 0-1.194-.398-1.194-1.193V2c0-.797.398-1.196 1.194-1.196h20.233c3.034 0 5.722.636 8.062 1.904 2.338 1.27 4.155 3.06 5.45 5.377 1.294 2.313 1.94 4.964 1.94 7.949 0 3.434-.884 6.358-2.65 8.772-1.767 2.414-4.194 4.07-7.28 4.965a.453.453 0 0 0-.297.26c-.05.125-.026.237.074.337l10.303 21.35.149.599c0 .548-.35.82-1.045.82h-6.57c-.697 0-1.17-.298-1.418-.896zm-9.705-7.466c0 .297.15.448.448.448H20.32c2.388 0 4.316-.709 5.785-2.129 1.468-1.417 2.203-3.27 2.203-5.56 0-2.339-.735-4.243-2.203-5.712-1.47-1.466-3.397-2.202-5.785-2.202H9.196c-.298 0-.448.15-.448.447z"/></g><g><path fill="#fff" d="M55.875 52.801c-.175-.225-.187-.56-.037-1.008L73.83 1.848c.25-.646.721-.97 1.42-.97h6.12c.448 0 .758.112.933.336.175.225.187.56.037 1.007L64.35 52.166c-.25.648-.723.97-1.419.97h-6.122c-.448 0-.76-.11-.933-.335z"/></g><g><path fill="#fff" d="M108.398 51.868c-2.862-1.244-5.064-2.999-6.606-5.264-1.544-2.265-2.315-4.889-2.315-7.875V37.16c0-.795.398-1.193 1.195-1.193h6.122c.795 0 1.193.372 1.193 1.12v1.193c0 2.29 1.01 4.193 3.024 5.711 2.016 1.52 4.691 2.278 8.026 2.278 3.035 0 5.325-.647 6.868-1.94 1.542-1.295 2.314-2.962 2.314-5.004 0-1.392-.423-2.576-1.269-3.546-.846-.97-2.052-1.854-3.62-2.649-1.568-.796-3.92-1.792-7.056-2.988-3.534-1.293-6.395-2.513-8.584-3.658a15.987 15.987 0 0 1-5.488-4.666c-1.469-1.965-2.202-4.415-2.202-7.352 0-4.379 1.592-7.84 4.778-10.378 3.184-2.537 7.44-3.808 12.766-3.808 3.732 0 7.03.65 9.891 1.941 2.861 1.296 5.088 3.1 6.682 5.413 1.592 2.315 2.39 4.99 2.39 8.026v.971c0 .797-.4 1.194-1.195 1.194h-6.122c-.349 0-.634-.086-.859-.26-.224-.175-.336-.387-.336-.636v-.822c0-2.338-.958-4.316-2.874-5.934-1.916-1.617-4.566-2.427-7.95-2.427-2.739 0-4.866.573-6.384 1.717-1.518 1.146-2.276 2.762-2.276 4.852 0 1.494.398 2.714 1.194 3.658.796.947 1.99 1.805 3.584 2.577 1.591.773 4.055 1.754 7.39 2.948 3.533 1.345 6.358 2.565 8.474 3.66 2.115 1.094 3.931 2.625 5.45 4.59 1.517 1.967 2.276 4.418 2.276 7.353 0 2.888-.746 5.44-2.239 7.652-1.494 2.215-3.634 3.932-6.42 5.152-2.789 1.22-6.073 1.83-9.855 1.83-3.783 0-7.105-.623-9.967-1.867z"/></g><g><path fill="#fff" d="M194.737 8.344h-25.084c-.298 0-.448.149-.448.447v13.812c0 .3.15.449.447.449h16.724c.794 0 1.193.398 1.193 1.193v5.076c0 .797-.399 1.196-1.194 1.196h-16.723c-.298 0-.448.149-.448.447v14.26c0 .298.15.448.448.448h25.084c.795 0 1.195.398 1.195 1.193v5.078c0 .796-.4 1.194-1.195 1.194h-32.998c-.796 0-1.193-.398-1.193-1.194V2.073c0-.796.397-1.194 1.193-1.194h32.998c.795 0 1.195.398 1.195 1.194V7.15c0 .796-.4 1.194-1.195 1.194z"/></g><g><path fill="#fff" d="M236.376 30.89c-.05-.198-.224-.298-.522-.298h-8.735c-.297 0-.447.149-.447.447v20.905c0 .794-.398 1.192-1.194 1.192h-6.272c-.796 0-1.194-.398-1.194-1.193V2c0-.797.398-1.196 1.194-1.196h20.232c3.035 0 5.723.636 8.063 1.904a13.502 13.502 0 0 1 5.45 5.377c1.294 2.313 1.94 4.964 1.94 7.949 0 3.434-.884 6.358-2.65 8.772-1.768 2.414-4.195 4.07-7.28 4.965a.453.453 0 0 0-.298.26c-.05.125-.026.237.074.337l10.304 21.35.149.599c0 .548-.35.82-1.045.82h-6.57c-.697 0-1.17-.298-1.418-.896zm-9.704-7.466c0 .297.15.448.448.448h11.123c2.389 0 4.317-.709 5.786-2.129 1.468-1.417 2.203-3.27 2.203-5.56 0-2.339-.735-4.243-2.203-5.712-1.47-1.466-3.397-2.202-5.786-2.202H227.12c-.298 0-.448.15-.448.447z"/></g></g></svg>