<svg xmlns="http://www.w3.org/2000/svg" width="158" height="35.5" viewBox="0 0 316 71"><g><g><path fill="#fff" d="M.737 2.253c0-.754.617-1.44 1.439-1.44h22.27c8.978 0 16.242 7.264 16.242 16.104 0 6.853-4.523 12.404-11.033 15.008l10.21 18.913c.549.959 0 2.193-1.233 2.193h-9.936c-.617 0-1.028-.343-1.165-.686L17.595 32.54h-5.14v18.982c0 .754-.685 1.439-1.44 1.439h-8.84a1.447 1.447 0 0 1-1.438-1.44zm22.75 20.832c3.085 0 5.689-2.81 5.689-5.962 0-3.152-2.604-5.688-5.688-5.688H12.455v11.65zM47.405 2.253c0-.754.616-1.44 1.439-1.44h30.836c.822 0 1.439.686 1.439 1.44v8.086c0 .754-.617 1.439-1.44 1.439H58.985v9.25h16.995c.754 0 1.439.686 1.439 1.44v8.155c0 .822-.685 1.439-1.44 1.439H58.985v10.073H79.61c.822 0 1.439.685 1.439 1.439v8.155c0 .754-.617 1.439-1.44 1.439H48.775a1.447 1.447 0 0 1-1.44-1.44V2.254zm40.978 0c0-.754.617-1.44 1.439-1.44h8.84c.754 0 1.439.686 1.439 1.44v39.814h17.748c.822 0 1.439.685 1.439 1.439v8.154c0 .754-.616 1.439-1.44 1.439H89.822a1.447 1.447 0 0 1-1.44-1.44zm38.1 0c0-.754.686-1.44 1.44-1.44h8.976c.754 0 1.439.686 1.439 1.44v49.339c0 .753-.685 1.439-1.44 1.439h-8.975c-.754 0-1.44-.686-1.44-1.44zm43.446 20.558h-.07L157.115 51.18c-.343.89-1.165 1.782-2.673 1.782h-8.223c-1.097 0-1.713-.96-1.233-1.92L168.284.883c.205-.48.753-.822 1.233-.822h.753c.549 0 1.029.343 1.234.823l23.299 50.16c.48.96-.137 1.919-1.234 1.919h-8.291c-1.371 0-1.92-.48-2.604-1.85zm31.659-20.558c0-.754.616-1.44 1.439-1.44h17.337c8.772 0 16.035 6.03 16.035 13.843 0 5.756-5.14 9.937-8.634 11.787 3.974 1.644 10.005 5.276 10.005 12.129 0 8.36-7.401 14.39-16.241 14.39h-18.502a1.447 1.447 0 0 1-1.44-1.44zm17.405 19.736c2.81 0 5.208-2.4 5.208-5.346 0-3.015-2.398-5.07-5.208-5.07h-5.824v10.416zm1.028 20.352c2.879 0 5.346-2.4 5.346-5.414 0-3.015-3.221-5.208-6.1-5.208h-6.03v10.69h6.784zm24.327-40.088c0-.754.617-1.44 1.439-1.44h8.84c.754 0 1.439.686 1.439 1.44v39.814h17.748c.823 0 1.439.685 1.439 1.439v8.154c0 .754-.616 1.439-1.44 1.439h-28.026a1.447 1.447 0 0 1-1.44-1.44zm38.032 0c0-.754.617-1.44 1.439-1.44h30.837c.822 0 1.439.686 1.439 1.44v8.086c0 .754-.617 1.439-1.44 1.439H294.03v9.25h16.994c.754 0 1.439.686 1.439 1.44v8.155c0 .822-.685 1.439-1.44 1.439H294.03v10.073h20.626c.822 0 1.439.685 1.439 1.439v8.155c0 .754-.617 1.439-1.44 1.439h-30.836a1.447 1.447 0 0 1-1.44-1.44zm-88.741 58.384c.822 0 1.439.686 1.439 1.37v7.4c0 .755-.617 1.44-1.44 1.44h-47.42a1.447 1.447 0 0 1-1.438-1.44v-7.331c0-.753.617-1.44 1.439-1.44z"/></g></g></svg>