<?xml version="1.0" encoding="utf-8"?>
<!-- Generator: Adobe Illustrator 24.1.2, SVG Export Plug-In . SVG Version: 6.00 Build 0)  -->
<svg version="1.1" id="Слой_1" xmlns="http://www.w3.org/2000/svg" xmlns:xlink="http://www.w3.org/1999/xlink" x="0px" y="0px"
	 viewBox="0 0 453.03 74.14" style="enable-background:new 0 0 453.03 74.14;" xml:space="preserve">
<style type="text/css">
	.st0{fill:#FF7729;}
</style>
<g>
	<g>
		<path class="st0" d="M445.9,69.52c-1.31,0-2.51-0.31-3.6-0.93c-1.09-0.62-1.96-1.46-2.6-2.52c-0.64-1.06-0.97-2.24-0.97-3.55
			s0.32-2.49,0.97-3.55c0.64-1.06,1.51-1.9,2.6-2.52c1.09-0.62,2.29-0.93,3.6-0.93s2.5,0.31,3.58,0.93
			c1.08,0.62,1.94,1.46,2.58,2.52c0.64,1.06,0.97,2.24,0.97,3.55s-0.32,2.49-0.97,3.55c-0.64,1.06-1.51,1.9-2.58,2.52
			C448.4,69.21,447.2,69.52,445.9,69.52z M445.9,68.15c1.07,0,2.03-0.25,2.9-0.75c0.87-0.5,1.56-1.18,2.09-2.03
			c0.52-0.86,0.78-1.81,0.78-2.85c0-1.07-0.26-2.02-0.78-2.87c-0.52-0.85-1.22-1.52-2.09-2.03c-0.87-0.51-1.84-0.76-2.9-0.76
			c-1.07,0-2.04,0.26-2.92,0.76c-0.88,0.51-1.59,1.19-2.12,2.03c-0.53,0.85-0.8,1.8-0.8,2.87c0,1.04,0.27,1.99,0.8,2.85
			c0.53,0.86,1.24,1.54,2.12,2.03C443.86,67.9,444.83,68.15,445.9,68.15z M446.92,66.16l-1.09-2.93h-0.87v2.93h-1.77v-7.44h3.42
			c0.66,0,1.21,0.2,1.65,0.61c0.44,0.4,0.65,0.95,0.65,1.63c0,0.54-0.13,0.98-0.39,1.32c-0.26,0.34-0.58,0.6-0.95,0.76l1.21,3.11
			H446.92z M445.99,61.96c0.35,0,0.64-0.08,0.87-0.23c0.23-0.16,0.34-0.36,0.34-0.61c0-0.29-0.1-0.5-0.31-0.64
			c-0.21-0.13-0.49-0.2-0.84-0.2h-1.09v1.68H445.99z"/>
	</g>
	<g>
		<path class="st0" d="M164.59,29.32c-2.02-1.57-4.84-2.35-8.45-2.35c-2.18,0-4.23,0.45-6.14,1.36c-1.91,0.9-3.59,2.03-5.02,3.39
			c-1.43,1.36-2.53,2.7-3.27,4.03c-0.9-2.71-2.39-4.85-4.46-6.42c-2.07-1.57-4.84-2.35-8.29-2.35c-2.87,0-5.46,0.76-7.77,2.27
			c-2.31,1.52-4.11,3.23-5.38,5.14v-6.7h-8.29v41.86h8.29v-25.2c0-1.81,0.45-3.44,1.36-4.9c0.9-1.46,2.15-2.64,3.75-3.55
			c1.59-0.9,3.4-1.36,5.42-1.36c2.92,0,5.02,0.96,6.3,2.87c1.28,1.91,1.91,4.36,1.91,7.34v24.8h8.29V44.51c0-2.76,1-5.12,2.99-7.06
			c1.99-1.94,4.53-2.91,7.61-2.91c3.24,0,5.45,0.96,6.62,2.87c1.17,1.91,1.75,4.41,1.75,7.49v24.64h8.29V44.43
			c0-3.24-0.41-6.18-1.24-8.81C168.03,32.99,166.6,30.89,164.59,29.32z"/>
		<path class="st0" d="M208.5,33.19c-1.33-1.7-3.1-3.19-5.3-4.47c-2.21-1.28-4.77-1.91-7.69-1.91c-3.93,0-7.44,0.92-10.52,2.75
			c-3.08,1.83-5.5,4.39-7.26,7.65c-1.75,3.27-2.63,7.03-2.63,11.28c0,4.25,0.85,8.03,2.55,11.32c1.7,3.3,4,5.87,6.9,7.73
			c2.9,1.86,6.1,2.79,9.61,2.79c3.3,0,6.19-0.77,8.69-2.31c2.21-1.36,4.39-3.32,5.74-4.97v6.49h8.21v-7.91v-2.09V27.69h-8.29V33.19z
			 M207.22,55.8c-1.06,2.15-2.55,3.85-4.47,5.1c-1.91,1.25-4.15,1.87-6.7,1.87c-2.45,0-4.62-0.62-6.54-1.87
			c-1.91-1.25-3.4-2.95-4.47-5.1c-1.06-2.15-1.59-4.58-1.59-7.3c0-2.71,0.53-5.13,1.59-7.26c1.06-2.13,2.55-3.8,4.47-5.02
			c1.91-1.22,4.09-1.83,6.54-1.83c2.55,0,4.78,0.63,6.7,1.87c1.91,1.25,3.4,2.94,4.47,5.06c1.06,2.13,1.59,4.52,1.59,7.18
			C208.82,51.21,208.28,53.64,207.22,55.8z"/>
		<polygon class="st0" points="261.72,27.69 250.63,27.69 231.74,46.43 231.74,10.55 223.52,10.55 223.52,69.55 231.74,69.55 
			231.74,55.84 236.28,51.53 251.75,69.55 262.27,69.55 242.1,46.11 		"/>
		<path class="st0" d="M290.11,29.32c-2.87-1.73-6.06-2.59-9.57-2.59c-3.83,0-7.36,0.89-10.6,2.67c-3.24,1.78-5.85,4.33-7.81,7.65
			c-1.97,3.32-2.95,7.32-2.95,12c0,4.09,0.93,7.75,2.79,10.96c1.86,3.22,4.45,5.74,7.77,7.57c3.32,1.83,7.16,2.75,11.52,2.75
			c3.24,0,6.35-0.64,9.33-1.91c2.98-1.28,5.31-2.74,7.02-4.39h0.08l-4.07-5.98c-1.17,1.01-2.66,2.06-4.46,3.15
			c-1.81,1.09-4.17,1.63-7.1,1.63c-4.04,0-7.37-1.1-10.01-3.31c-2.63-2.2-4.19-5.2-4.66-8.97h32.05l0.08-3.51
			c0-4.04-0.85-7.57-2.55-10.6C295.26,33.43,292.98,31.05,290.11,29.32z M291.14,44.03H267.7c0.74-3.56,2.28-6.07,4.62-7.54
			c2.34-1.46,5.08-2.19,8.21-2.19c1.75,0,3.4,0.39,4.94,1.16c1.54,0.77,2.83,1.85,3.87,3.23c1.04,1.38,1.63,2.98,1.79,4.78V44.03z"
			/>
		<path class="st0" d="M333.41,29.32c-2.87-1.73-6.06-2.59-9.57-2.59c-3.83,0-7.36,0.89-10.61,2.67c-3.24,1.78-5.85,4.33-7.81,7.65
			c-1.97,3.32-2.95,7.32-2.95,12c0,4.09,0.93,7.75,2.79,10.96c1.86,3.22,4.45,5.74,7.77,7.57c3.32,1.83,7.16,2.75,11.52,2.75
			c3.24,0,6.35-0.64,9.33-1.91c2.98-1.28,5.31-2.74,7.02-4.39h0.08l-4.07-5.98c-1.17,1.01-2.66,2.06-4.47,3.15
			c-1.81,1.09-4.17,1.63-7.1,1.63c-4.04,0-7.37-1.1-10.01-3.31c-2.63-2.2-4.19-5.2-4.67-8.97h32.05l0.08-3.51
			c0-4.04-0.85-7.57-2.55-10.6C338.57,33.43,336.28,31.05,333.41,29.32z M334.45,44.03h-23.44c0.74-3.56,2.28-6.07,4.62-7.54
			c2.34-1.46,5.08-2.19,8.21-2.19c1.75,0,3.4,0.39,4.94,1.16c1.54,0.77,2.83,1.85,3.87,3.23c1.04,1.38,1.63,2.98,1.79,4.78V44.03z"
			/>
		<path class="st0" d="M378.19,29.12c-2.07-1.54-5-2.31-8.77-2.31c-2.98,0-5.69,0.76-8.13,2.27c-2.44,1.51-4.31,3.26-5.58,5.22
			v-6.62h-8.21v41.86h8.21V44.19c0-1.81,0.48-3.45,1.44-4.94c0.96-1.49,2.26-2.68,3.91-3.59c1.65-0.9,3.54-1.36,5.66-1.36
			c2.28-0.16,4.07,0.21,5.34,1.12c1.28,0.9,2.18,2.15,2.71,3.75c0.53,1.59,0.8,3.4,0.8,5.42v24.96h8.21V44.03
			c0-3.19-0.41-6.09-1.24-8.69C381.71,32.74,380.26,30.67,378.19,29.12z"/>
		<path class="st0" d="M420.65,27.69v5.5c-1.33-1.7-3.1-3.19-5.3-4.47c-2.21-1.28-4.77-1.91-7.69-1.91c-3.93,0-7.44,0.92-10.52,2.75
			c-3.08,1.83-5.5,4.39-7.26,7.65c-1.75,3.27-2.63,7.03-2.63,11.28c0,4.25,0.85,8.03,2.55,11.32c1.7,3.3,4,5.87,6.9,7.73
			c2.9,1.86,6.1,2.79,9.61,2.79c3.3,0,6.19-0.77,8.69-2.31c2.21-1.36,4.39-3.32,5.74-4.97v6.49h8.21v-7.91v-2.09V27.69H420.65z
			 M414.91,60.9c-1.91,1.25-4.15,1.87-6.7,1.87c-2.45,0-4.62-0.62-6.54-1.87c-1.91-1.25-3.4-2.95-4.47-5.1
			c-1.06-2.15-1.59-4.58-1.59-7.3c0-2.71,0.53-5.13,1.59-7.26c1.06-2.13,2.55-3.8,4.47-5.02c1.91-1.22,4.09-1.83,6.54-1.83
			c2.55,0,4.78,0.63,6.7,1.87c1.91,1.25,3.4,2.94,4.47,5.06c1.06,2.13,1.59,4.52,1.59,7.18c0,2.71-0.53,5.14-1.59,7.3
			C418.31,57.95,416.83,59.65,414.91,60.9z"/>
	</g>
	<path class="st0" d="M61.09,0.53C53.75-0.91,46.3,0.61,40.1,4.78c-5.07,3.41-8.8,8.27-10.77,13.94c-5.99-0.3-11.9,1.33-16.96,4.74
		c-6.2,4.17-10.4,10.51-11.83,17.85C-0.91,48.65,0.61,56.1,4.78,62.3c4.17,6.2,10.51,10.4,17.85,11.83l1.66-8.51
		c-5.06-0.99-9.44-3.89-12.32-8.17c-2.88-4.28-3.92-9.42-2.94-14.48c0.99-5.06,3.89-9.44,8.17-12.32c3.17-2.13,6.81-3.25,10.55-3.29
		c-0.14,5.75,1.49,11.39,4.76,16.26c4.11,6.11,10.33,10.27,17.52,11.76l0,0.01l4.64,0.94l0.78-4.34l0.06-0.29
		c0.01-0.03,0.01-0.07,0.02-0.1l0.05-0.25l-0.01,0c2.25-13.28-5.41-26.15-17.65-30.82c1.44-3.45,3.85-6.41,7.02-8.54
		c4.28-2.88,9.42-3.92,14.48-2.94c10.45,2.04,17.29,12.2,15.25,22.65l8.51,1.66C86.15,18.21,76.23,3.48,61.09,0.53z M47.23,45.32
		c-3.01-1.47-5.6-3.69-7.52-6.54c-1.92-2.85-3-6.08-3.23-9.42C42.61,32.38,46.74,38.5,47.23,45.32z"/>
</g>
</svg>
