<?xml version="1.0" encoding="utf-8"?>
<!-- Generator: Adobe Illustrator 24.1.2, SVG Export Plug-In . SVG Version: 6.00 Build 0)  -->
<svg version="1.1" id="Слой_1" xmlns="http://www.w3.org/2000/svg" xmlns:xlink="http://www.w3.org/1999/xlink" x="0px" y="0px"
	 viewBox="0 0 76.24 67.52" style="enable-background:new 0 0 76.24 67.52;" xml:space="preserve">
<style type="text/css">
	.st0{fill:#FFFFFF;}
</style>
<path class="st0" d="M55.64,0.48c-6.68-1.31-13.47,0.07-19.12,3.87c-4.61,3.11-8.01,7.53-9.81,12.69
	c-5.46-0.27-10.84,1.21-15.45,4.32c-5.65,3.8-9.47,9.58-10.78,16.26c-1.3,6.68,0.07,13.47,3.87,19.12
	c3.8,5.65,9.58,9.47,16.26,10.78l1.51-7.75c-4.61-0.9-8.59-3.54-11.22-7.44c-2.62-3.9-3.57-8.58-2.67-13.19
	c0.9-4.61,3.54-8.59,7.44-11.22c2.89-1.94,6.21-2.96,9.61-3c-0.13,5.24,1.35,10.38,4.34,14.81c3.75,5.56,9.41,9.35,15.96,10.71
	l0,0.01l4.23,0.85l0.71-3.94l0.05-0.28c0.01-0.03,0.01-0.06,0.01-0.09l0.04-0.23l-0.01,0c2.05-12.1-4.93-23.82-16.08-28.07
	c1.31-3.14,3.5-5.84,6.39-7.78c3.9-2.62,8.58-3.57,13.19-2.67c9.52,1.86,15.75,11.11,13.89,20.63l7.75,1.51
	C78.46,16.58,69.43,3.17,55.64,0.48z M43.01,41.27c-2.74-1.34-5.1-3.36-6.84-5.96c-1.75-2.59-2.73-5.54-2.94-8.58
	C38.81,29.49,42.56,35.06,43.01,41.27z"/>
</svg>
