<svg xmlns="http://www.w3.org/2000/svg" width="454" height="74" viewBox="0 0 454 74"><g><g><path fill="#fff" d="M442.836 68.516a7.121 7.121 0 0 1-2.6-2.52c-.644-1.06-.965-2.243-.965-3.55 0-1.308.32-2.49.965-3.55a7.132 7.132 0 0 1 2.6-2.522c1.089-.622 2.288-.933 3.595-.933 1.308 0 2.5.311 3.58.933a7.18 7.18 0 0 1 2.585 2.522c.643 1.06.965 2.242.965 3.55 0 1.307-.322 2.49-.965 3.55a7.17 7.17 0 0 1-2.584 2.52c-1.08.623-2.273.934-3.581.934-1.307 0-2.506-.31-3.595-.934zm6.502-1.184a5.753 5.753 0 0 0 2.086-2.033 5.384 5.384 0 0 0 .782-2.852c0-1.065-.261-2.02-.782-2.868a5.948 5.948 0 0 0-2.086-2.033c-.87-.51-1.837-.765-2.903-.765s-2.04.255-2.92.765a6.043 6.043 0 0 0-2.121 2.033c-.533.847-.8 1.803-.8 2.868 0 1.043.267 1.994.8 2.851a5.843 5.843 0 0 0 2.12 2.034c.882.499 1.855.748 2.92.748 1.067 0 2.035-.25 2.904-.748zm-1.88-1.243l-1.09-2.928h-.87v2.927h-1.775v-7.44h3.425c.664 0 1.214.201 1.65.606.435.405.654.95.654 1.635 0 .54-.13.98-.39 1.323a2.408 2.408 0 0 1-.95.763l1.215 3.113zm-.933-4.203c.353 0 .643-.079.872-.234.228-.155.342-.357.342-.606 0-.291-.104-.504-.311-.64-.208-.133-.488-.201-.841-.201h-1.09v1.68z"/></g><g><path fill="#fff" d="M165.12 29.254c-2.02-1.568-4.838-2.353-8.45-2.353-2.18 0-4.227.453-6.14 1.356-1.915.905-3.589 2.033-5.025 3.389-1.434 1.355-2.525 2.698-3.268 4.026-.904-2.711-2.392-4.85-4.465-6.418-2.073-1.568-4.838-2.353-8.293-2.353-2.87 0-5.46.758-7.773 2.273-2.313 1.515-4.106 3.229-5.382 5.142v-6.697h-8.292v41.86h8.292V44.283c0-1.806.451-3.441 1.355-4.904.903-1.461 2.152-2.643 3.748-3.547 1.595-.904 3.401-1.356 5.421-1.356 2.923 0 5.023.957 6.3 2.87 1.275 1.914 1.912 4.359 1.912 7.336v24.797h8.293V44.442c0-2.763.996-5.115 2.99-7.056 1.993-1.94 4.531-2.91 7.614-2.91 3.242 0 5.45.957 6.62 2.87 1.167 1.914 1.752 4.413 1.752 7.495v24.638h8.293V44.363c0-3.241-.413-6.18-1.236-8.81-.825-2.632-2.247-4.731-4.266-6.3z"/></g><g><path fill="#fff" d="M209.03 27.618h8.292v41.86h-8.212v-6.486c-1.355 1.65-3.53 3.607-5.74 4.971-2.5 1.541-5.395 2.312-8.69 2.312-3.51 0-6.712-.929-9.608-2.79-2.898-1.86-5.197-4.438-6.897-7.735-1.702-3.295-2.552-7.068-2.552-11.32 0-4.253.878-8.015 2.63-11.284 1.756-3.269 4.174-5.82 7.257-7.654 3.082-1.833 6.59-2.75 10.525-2.75 2.922 0 5.488.637 7.694 1.913 2.205 1.276 3.973 2.764 5.302 4.465zm-1.274 28.106c1.062-2.153 1.594-4.585 1.594-7.295 0-2.658-.532-5.05-1.594-7.176-1.064-2.126-2.552-3.814-4.465-5.063-1.914-1.249-4.146-1.874-6.698-1.874-2.446 0-4.624.612-6.538 1.834-1.915 1.223-3.403 2.898-4.466 5.023-1.064 2.126-1.595 4.545-1.595 7.256 0 2.71.531 5.142 1.595 7.295 1.063 2.153 2.551 3.854 4.465 5.103 1.914 1.25 4.092 1.874 6.538 1.874 2.552 0 4.784-.625 6.698-1.874 1.914-1.249 3.402-2.95 4.466-5.103z"/></g><g><path fill="#fff" d="M262.25 27.618h-11.082l-18.896 18.737V10.476h-8.212v59.002h8.212V55.764l4.544-4.306 15.468 18.02h10.525l-20.173-23.442z"/></g><g><path fill="#fff" d="M290.642 29.254c2.871 1.727 5.156 4.106 6.857 7.135 1.701 3.03 2.552 6.566 2.552 10.605l-.08 3.508H267.92c.478 3.775 2.033 6.765 4.664 8.97 2.631 2.206 5.966 3.308 10.006 3.308 2.923 0 5.29-.544 7.096-1.634 1.807-1.089 3.295-2.139 4.465-3.149l4.067 5.98h-.08c-1.702 1.648-4.04 3.11-7.016 4.384a23.443 23.443 0 0 1-9.329 1.915c-4.359 0-8.2-.917-11.52-2.75-3.324-1.835-5.915-4.359-7.775-7.576-1.86-3.215-2.79-6.869-2.79-10.963 0-4.677.983-8.677 2.95-12 1.965-3.32 4.571-5.873 7.813-7.654 3.242-1.78 6.777-2.67 10.605-2.67 3.508 0 6.697.864 9.567 2.591zm1.037 14.151c-.16-1.806-.758-3.4-1.794-4.783a10.83 10.83 0 0 0-3.868-3.23 10.922 10.922 0 0 0-4.942-1.156c-3.137 0-5.874.732-8.213 2.193-2.339 1.463-3.88 3.974-4.624 7.535h23.441z"/></g><g><path fill="#fff" d="M333.945 29.254c2.871 1.727 5.156 4.106 6.857 7.135 1.701 3.03 2.552 6.566 2.552 10.605l-.08 3.508h-32.053c.48 3.775 2.034 6.765 4.665 8.97 2.631 2.206 5.966 3.308 10.006 3.308 2.923 0 5.29-.544 7.096-1.634 1.807-1.089 3.295-2.139 4.465-3.149l4.067 5.98h-.08c-1.702 1.648-4.04 3.11-7.016 4.384a23.443 23.443 0 0 1-9.329 1.915c-4.359 0-8.2-.917-11.52-2.75-3.324-1.835-5.916-4.359-7.775-7.576-1.86-3.215-2.79-6.869-2.79-10.963 0-4.677.982-8.677 2.95-12 1.965-3.32 4.57-5.873 7.813-7.654 3.242-1.78 6.777-2.67 10.605-2.67 3.508 0 6.697.864 9.567 2.591zm1.037 14.151c-.16-1.806-.758-3.4-1.794-4.783a10.834 10.834 0 0 0-3.867-3.23 10.929 10.929 0 0 0-4.943-1.156c-3.137 0-5.874.732-8.213 2.193-2.339 1.463-3.88 3.974-4.624 7.535h23.441z"/></g><g><path fill="#fff" d="M378.723 29.054c-2.073-1.541-4.998-2.312-8.771-2.312-2.978 0-5.688.757-8.133 2.272-2.445 1.515-4.305 3.256-5.581 5.223v-6.62h-8.212v41.86h8.212V44.124c0-1.806.479-3.454 1.436-4.943.956-1.487 2.258-2.684 3.906-3.588 1.647-.903 3.535-1.355 5.66-1.355 2.286-.16 4.068.213 5.343 1.116 1.276.905 2.179 2.153 2.712 3.747.53 1.595.797 3.402.797 5.422v24.956h8.212V43.964c0-3.19-.412-6.086-1.236-8.691-.824-2.604-2.272-4.677-4.345-6.22z"/></g><g><path fill="#fff" d="M429.48 27.618v41.86h-8.211v-6.486c-1.356 1.648-3.532 3.607-5.741 4.971-2.5 1.541-5.396 2.312-8.691 2.312-3.51 0-6.712-.929-9.608-2.79-2.898-1.86-5.197-4.438-6.897-7.735-1.701-3.295-2.552-7.068-2.552-11.32 0-4.253.878-8.015 2.63-11.284 1.756-3.269 4.174-5.82 7.257-7.654 3.083-1.833 6.59-2.75 10.525-2.75 2.923 0 5.488.637 7.694 1.913 2.205 1.276 3.973 2.764 5.302 4.465v-5.502zm-14.032 33.21c1.913-1.25 3.4-2.95 4.465-5.104 1.062-2.153 1.595-4.585 1.595-7.295 0-2.658-.533-5.05-1.595-7.176-1.064-2.126-2.552-3.814-4.465-5.063-1.914-1.249-4.146-1.874-6.698-1.874-2.446 0-4.624.612-6.538 1.834-1.913 1.223-3.402 2.898-4.465 5.023-1.064 2.126-1.595 4.545-1.595 7.256 0 2.71.53 5.142 1.595 7.295 1.063 2.153 2.552 3.854 4.465 5.103 1.914 1.25 4.092 1.874 6.538 1.874 2.552 0 4.784-.625 6.698-1.874z"/></g><g><path fill="#fff" d="M61.624.456c15.144 2.956 25.06 17.68 22.106 32.825l-8.513-1.661c2.039-10.45-4.804-20.611-15.254-22.65a19.177 19.177 0 0 0-14.484 2.935 19.17 19.17 0 0 0-7.02 8.545C50.7 25.114 58.36 37.987 56.11 51.268h.006l-.046.256-.015.102-.056.292-.784 4.338-4.641-.935.002-.007c-7.197-1.492-13.411-5.655-17.523-11.762-3.28-4.867-4.906-10.51-4.765-16.26a19.176 19.176 0 0 0-10.548 3.292 19.187 19.187 0 0 0-8.166 12.318 19.183 19.183 0 0 0 2.935 14.485 19.185 19.185 0 0 0 12.318 8.166l-1.661 8.513C15.83 72.634 9.49 68.432 5.316 62.232 1.14 56.032-.37 48.577 1.062 41.24c1.43-7.336 5.634-13.676 11.834-17.851 5.066-3.412 10.97-5.042 16.964-4.744C31.837 12.98 35.567 8.122 40.633 4.71 46.833.536 54.289-.977 61.623.456zm-13.86 44.79c-.493-6.821-4.62-12.938-10.75-15.96a19.171 19.171 0 0 0 3.234 9.42 19.175 19.175 0 0 0 7.516 6.54z"/></g></g></svg>