<svg xmlns="http://www.w3.org/2000/svg" width="985" height="162" viewBox="0 0 985 162"><g><g><path fill="#ff7729" d="M651.05 76.531a7.124 7.124 0 0 1-2.6-2.522c-.644-1.058-.966-2.242-.966-3.549 0-1.308.322-2.491.965-3.549a7.126 7.126 0 0 1 2.6-2.523c1.09-.622 2.288-.933 3.596-.933 1.307 0 2.5.311 3.58.933a7.175 7.175 0 0 1 2.584 2.523c.643 1.058.965 2.241.965 3.549 0 1.307-.322 2.491-.965 3.549a7.172 7.172 0 0 1-2.584 2.522c-1.08.623-2.273.933-3.58.933-1.308 0-2.507-.31-3.596-.933zm6.501-1.185a5.745 5.745 0 0 0 2.086-2.034 5.384 5.384 0 0 0 .782-2.851c0-1.065-.26-2.021-.782-2.868a5.948 5.948 0 0 0-2.086-2.033c-.869-.51-1.837-.765-2.903-.765s-2.039.255-2.92.765a6.04 6.04 0 0 0-2.12 2.033c-.534.847-.8 1.803-.8 2.868 0 1.043.266 1.994.8 2.851a5.832 5.832 0 0 0 2.12 2.034c.881.498 1.854.747 2.92.747 1.066 0 2.034-.249 2.903-.747zm-1.879-1.244l-1.09-2.927h-.87v2.927h-1.776v-7.44h3.425c.664 0 1.214.202 1.65.606.436.405.654.95.654 1.635 0 .54-.13.98-.39 1.323a2.393 2.393 0 0 1-.949.763l1.214 3.113zm-.934-4.203c.353 0 .643-.077.872-.233.228-.156.342-.358.342-.607 0-.291-.104-.503-.31-.639-.209-.134-.489-.202-.842-.202h-1.089v1.681z"/></g><g><path fill="#ff7729" d="M373.334 37.267c-2.02-1.567-4.838-2.352-8.45-2.352-2.18 0-4.227.453-6.14 1.355-1.915.905-3.589 2.034-5.025 3.39-1.434 1.354-2.525 2.698-3.268 4.026-.904-2.71-2.392-4.85-4.465-6.419-2.073-1.567-4.838-2.352-8.293-2.352-2.87 0-5.46.757-7.773 2.272-2.313 1.516-4.107 3.23-5.382 5.142v-6.697h-8.292v41.86h8.292V52.296c0-1.805.451-3.44 1.355-4.903.903-1.462 2.152-2.644 3.748-3.548 1.595-.903 3.401-1.355 5.421-1.355 2.923 0 5.023.957 6.3 2.87 1.275 1.914 1.912 4.36 1.912 7.335v24.797h8.293V52.455c0-2.762.996-5.115 2.99-7.055 1.993-1.94 4.531-2.91 7.614-2.91 3.242 0 5.45.957 6.62 2.87 1.167 1.914 1.752 4.412 1.752 7.495v24.637h8.293V52.376c0-3.24-.413-6.178-1.236-8.81-.825-2.63-2.247-4.73-4.266-6.299z"/></g><g><path fill="#ff7729" d="M417.245 35.633h8.292v41.859h-8.212v-6.485c-1.355 1.648-3.531 3.607-5.741 4.97-2.5 1.54-5.395 2.313-8.69 2.313-3.51 0-6.712-.93-9.608-2.791-2.898-1.861-5.197-4.438-6.897-7.734-1.702-3.295-2.552-7.07-2.552-11.322 0-4.252.878-8.013 2.63-11.282 1.755-3.27 4.173-5.82 7.256-7.654 3.082-1.834 6.59-2.751 10.525-2.751 2.922 0 5.488.637 7.694 1.914 2.205 1.275 3.973 2.764 5.302 4.464zm-1.276 28.105c1.062-2.152 1.594-4.584 1.594-7.295 0-2.657-.532-5.05-1.594-7.176-1.064-2.126-2.552-3.813-4.465-5.063-1.914-1.248-4.146-1.874-6.698-1.874-2.445 0-4.623.612-6.537 1.834-1.914 1.223-3.402 2.898-4.465 5.023-1.064 2.126-1.595 4.545-1.595 7.256 0 2.71.53 5.143 1.595 7.295 1.063 2.153 2.55 3.854 4.465 5.104 1.914 1.249 4.092 1.873 6.538 1.873 2.552 0 4.784-.624 6.698-1.873 1.913-1.25 3.4-2.951 4.465-5.104z"/></g><g><path fill="#ff7729" d="M470.465 35.632h-11.083L440.486 54.37V18.49h-8.212v59.001h8.212V63.778l4.544-4.305 15.468 18.018h10.525l-20.173-23.44z"/></g><g><path fill="#ff7729" d="M498.856 37.267c2.871 1.73 5.156 4.107 6.857 7.136 1.701 3.03 2.552 6.566 2.552 10.604l-.08 3.508h-32.052c.478 3.776 2.033 6.766 4.664 8.971 2.631 2.206 5.966 3.308 10.006 3.308 2.923 0 5.29-.544 7.096-1.633 1.807-1.09 3.295-2.14 4.465-3.15l4.067 5.98h-.08c-1.702 1.647-4.04 3.11-7.016 4.384a23.425 23.425 0 0 1-9.329 1.915c-4.359 0-8.2-.917-11.52-2.75-3.324-1.835-5.915-4.359-7.775-7.577-1.86-3.214-2.79-6.868-2.79-10.963 0-4.676.983-8.676 2.95-11.999 1.965-3.32 4.571-5.873 7.813-7.654 3.242-1.78 6.777-2.67 10.605-2.67 3.508 0 6.697.864 9.567 2.59zm1.037 14.152c-.16-1.806-.758-3.4-1.794-4.784a10.803 10.803 0 0 0-3.868-3.228 10.897 10.897 0 0 0-4.942-1.157c-3.137 0-5.874.732-8.213 2.193-2.339 1.463-3.88 3.974-4.624 7.535h23.441z"/></g><g><path fill="#ff7729" d="M542.16 37.267c2.87 1.73 5.155 4.107 6.856 7.136 1.701 3.03 2.552 6.566 2.552 10.604l-.08 3.508h-32.053c.48 3.776 2.034 6.766 4.665 8.971 2.631 2.206 5.966 3.308 10.006 3.308 2.923 0 5.29-.544 7.096-1.633 1.807-1.09 3.295-2.14 4.465-3.15l4.067 5.98h-.08c-1.702 1.647-4.04 3.11-7.016 4.384a23.425 23.425 0 0 1-9.329 1.915c-4.359 0-8.2-.917-11.52-2.75-3.324-1.835-5.916-4.359-7.775-7.577-1.86-3.214-2.79-6.868-2.79-10.963 0-4.676.982-8.676 2.95-11.999 1.965-3.32 4.57-5.873 7.813-7.654 3.242-1.78 6.777-2.67 10.605-2.67 3.508 0 6.697.864 9.567 2.59zm1.036 14.152c-.16-1.806-.758-3.4-1.794-4.784a10.809 10.809 0 0 0-3.867-3.228 10.904 10.904 0 0 0-4.943-1.157c-3.137 0-5.874.732-8.213 2.193-2.339 1.463-3.88 3.974-4.624 7.535h23.441z"/></g><g><path fill="#ff7729" d="M586.937 37.068c-2.073-1.541-4.998-2.313-8.771-2.313-2.978 0-5.688.758-8.133 2.273-2.445 1.515-4.305 3.257-5.581 5.223v-6.619h-8.212v41.86h8.212V52.137c0-1.806.479-3.455 1.436-4.943.956-1.487 2.258-2.684 3.906-3.588 1.647-.903 3.535-1.355 5.66-1.355 2.286-.161 4.068.213 5.343 1.116 1.276.904 2.179 2.153 2.712 3.747.53 1.595.797 3.402.797 5.422v24.956h8.212V51.978c0-3.189-.412-6.086-1.236-8.69-.824-2.605-2.272-4.678-4.345-6.22z"/></g><g><path fill="#ff7729" d="M637.694 35.632v41.86h-8.211v-6.486c-1.356 1.648-3.532 3.607-5.741 4.971-2.5 1.541-5.396 2.312-8.691 2.312-3.51 0-6.712-.929-9.608-2.79-2.898-1.86-5.197-4.438-6.897-7.734-1.701-3.295-2.552-7.07-2.552-11.322 0-4.252.878-8.013 2.63-11.283 1.756-3.268 4.174-5.82 7.257-7.654 3.083-1.834 6.59-2.75 10.525-2.75 2.923 0 5.488.637 7.694 1.913 2.205 1.276 3.973 2.765 5.302 4.465v-5.502zm-14.032 33.21c1.913-1.25 3.4-2.95 4.465-5.105 1.062-2.152 1.595-4.584 1.595-7.294 0-2.658-.533-5.05-1.595-7.176-1.064-2.126-2.552-3.814-4.465-5.064-1.914-1.248-4.146-1.874-6.698-1.874-2.446 0-4.624.613-6.538 1.834-1.913 1.224-3.402 2.9-4.465 5.024-1.064 2.126-1.595 4.545-1.595 7.256 0 2.71.53 5.142 1.595 7.294 1.063 2.154 2.552 3.855 4.465 5.104 1.914 1.25 4.092 1.873 6.538 1.873 2.552 0 4.784-.624 6.698-1.873z"/></g><g><path fill="#ff7729" d="M269.838 8.47c15.144 2.955 25.06 17.681 22.106 32.825l-8.513-1.66c2.039-10.452-4.804-20.612-15.254-22.652a19.173 19.173 0 0 0-14.484 2.936 19.168 19.168 0 0 0-7.02 8.544c12.242 4.664 19.902 17.537 17.652 30.818l.006.001-.046.255-.015.102-.056.293-.784 4.337-4.641-.935.002-.007c-7.197-1.492-13.411-5.655-17.523-11.76-3.28-4.869-4.906-10.51-4.765-16.26a19.177 19.177 0 0 0-10.548 3.291 19.185 19.185 0 0 0-8.166 12.317 19.187 19.187 0 0 0 2.935 14.486 19.192 19.192 0 0 0 12.318 8.166l-1.661 8.512c-7.337-1.43-13.676-5.633-17.851-11.834-4.175-6.2-5.686-13.655-4.254-20.99 1.43-7.337 5.634-13.677 11.834-17.85 5.066-3.414 10.97-5.043 16.964-4.746 1.977-5.665 5.707-10.523 10.773-13.935 6.2-4.175 13.656-5.688 20.99-4.254zm-13.86 44.79c-.493-6.82-4.62-12.939-10.75-15.96a19.178 19.178 0 0 0 3.234 9.421 19.173 19.173 0 0 0 7.516 6.538z"/></g><g><path fill="none" stroke="#ff7729" stroke-linecap="round" stroke-linejoin="round" stroke-miterlimit="20" stroke-width="4" d="M157.754 2.431c-1.87 28.075.371 46.07.057 74.163-.216 19.271.127 38.54.228 57.81.095 18.254-1.273 6.88 0 25.055"/></g><g><path fill="#231f20" d="M25.954 47.387H43.87c4.361 0 10.102 0 13.077 1.798 3.252 1.938 5.81 5.465 5.81 10.309 0 5.257-2.765 9.2-7.332 11.066v.14c6.091 1.244 9.41 5.81 9.41 11.9 0 7.26-5.19 14.18-15.013 14.18H25.954zm6.57 21.238h13.15c7.467 0 10.515-2.697 10.515-7.888 0-6.848-4.84-7.815-10.516-7.815h-13.15zm0 22.62h16.47c5.67 0 9.27-3.458 9.27-8.854 0-6.434-5.19-8.233-10.727-8.233H32.523z"/></g><g><path fill="#231f20" d="M44.062 109.676c-20.748 0-37.568-16.822-37.568-37.572 0-20.749 16.82-37.567 37.568-37.567 20.756 0 37.575 16.818 37.575 37.567 0 20.75-16.819 37.572-37.575 37.572zM.788 72.082c0 23.9 19.376 43.277 43.274 43.277 23.906 0 43.282-19.377 43.282-43.277 0-23.9-19.376-43.275-43.282-43.275C20.164 28.807.788 48.182.788 72.082z"/></g><g><path fill="#231f20" d="M87.255 130.166H.878v-5.678h86.377z"/></g><g><path fill="#231f20" d="M84.063 118.236v-.958h.62c.08 0 .157.008.237.013a.623.623 0 0 1 .213.072c.062.03.114.073.151.138a.398.398 0 0 1 .06.237.513.513 0 0 1-.063.282.434.434 0 0 1-.179.149.674.674 0 0 1-.248.057c-.095.005-.195.01-.302.01zm-.475-1.338v3.01h.475v-1.297h.494l.825 1.298h.498l-.862-1.325a1.09 1.09 0 0 0 .571-.226c.148-.132.229-.326.229-.6 0-.29-.09-.502-.264-.65-.173-.138-.435-.21-.795-.21zm-.951 2.37a2.25 2.25 0 0 1-.164-.87c0-.315.053-.596.164-.864.1-.27.25-.5.443-.697a2.102 2.102 0 0 1 1.516-.63 2.116 2.116 0 0 1 1.514.63c.185.197.337.427.443.697.11.268.166.549.166.865 0 .31-.055.604-.166.87a2.188 2.188 0 0 1-.443.706 2.046 2.046 0 0 1-1.514.628c-.298 0-.584-.051-.839-.163a2.038 2.038 0 0 1-1.12-1.171zm-.428-1.891a2.427 2.427 0 0 0-.203 1.022c0 .373.06.71.203 1.022.138.32.325.589.56.82.234.24.513.414.83.547.311.128.65.19.996.19.36 0 .693-.062 1.012-.19.308-.133.58-.307.81-.546.235-.232.429-.501.56-.821.144-.311.209-.65.209-1.022a2.43 2.43 0 0 0-.209-1.022 2.57 2.57 0 0 0-.56-.811 2.576 2.576 0 0 0-.81-.54 2.6 2.6 0 0 0-1.012-.193 2.628 2.628 0 0 0-1.827.733 2.69 2.69 0 0 0-.56.81z"/></g><g><path fill="#231f20" d="M11.346 9.778A3.503 3.503 0 0 0 9.54 8.335a3.557 3.557 0 0 0-1.214-.208c-.772 0-1.429.149-1.968.448-.54.3-.978.7-1.313 1.203a5.279 5.279 0 0 0-.733 1.718 8.495 8.495 0 0 0-.229 1.99 7.9 7.9 0 0 0 .23 1.914c.152.62.397 1.179.732 1.674.335.496.773.892 1.313 1.192.54.299 1.196.449 1.968.449 1.051 0 1.871-.321 2.461-.962.591-.642.952-1.488 1.083-2.538h3.325c-.087.977-.313 1.859-.677 2.646a6.36 6.36 0 0 1-1.444 2.013 6.142 6.142 0 0 1-2.1 1.269c-.803.29-1.685.438-2.648.438-1.196 0-2.27-.208-3.227-.624a6.902 6.902 0 0 1-2.416-1.717 7.6 7.6 0 0 1-1.51-2.57c-.35-.985-.525-2.045-.525-3.183 0-1.167.174-2.251.525-3.25a7.78 7.78 0 0 1 1.51-2.613A6.91 6.91 0 0 1 5.1 5.873c.956-.422 2.031-.634 3.227-.634.861 0 1.674.125 2.44.372.765.248 1.45.609 2.055 1.083a5.86 5.86 0 0 1 1.5 1.76c.394.7.641 1.503.743 2.407H11.74a2.815 2.815 0 0 0-.393-1.083z"/></g><g><path fill="#231f20" d="M21.687 19.196c.628 0 1.167-.157 1.619-.471.452-.313.728-.644.832-.995h2.734c-.438 1.357-1.11 2.327-2.013 2.91-.904.583-1.998.874-3.281.874-.89 0-1.692-.141-2.407-.426a5.015 5.015 0 0 1-1.816-1.214 5.491 5.491 0 0 1-1.15-1.881c-.268-.729-.403-1.531-.403-2.406 0-.846.139-1.634.416-2.364a5.527 5.527 0 0 1 1.18-1.891 5.557 5.557 0 0 1 1.828-1.258c.707-.307 1.49-.459 2.352-.459.962 0 1.8.185 2.515.557a5.028 5.028 0 0 1 1.76 1.499c.46.627.793 1.341.997 2.144a8.03 8.03 0 0 1 .218 2.516h-8.16c.044 1.006.299 1.735.767 2.187.466.451 1.137.678 2.012.678zm-.197-7.241c-.496 0-.908.085-1.236.252a2.36 2.36 0 0 0-.788.623 2.3 2.3 0 0 0-.416.788 3.583 3.583 0 0 0-.141.744h5.054c-.147-.789-.406-1.387-.777-1.795-.372-.407-.94-.612-1.696-.612z"/></g><g><path fill="#231f20" d="M31.42 9.92v2.102h.045a3.81 3.81 0 0 1 .59-.975c.249-.299.533-.555.854-.767a4.2 4.2 0 0 1 1.029-.491 3.722 3.722 0 0 1 1.137-.175c.204 0 .429.036.679.11v2.886a6.607 6.607 0 0 0-1.117-.109c-.57 0-1.05.096-1.444.285a2.497 2.497 0 0 0-.952.776c-.24.33-.412.711-.514 1.15a6.312 6.312 0 0 0-.152 1.42v5.098h-3.108V9.92z"/></g><g><path fill="#231f20" d="M44.067 9.92V12H41.79v5.6c0 .526.089.876.264 1.05.175.174.525.262 1.049.262.175 0 .343-.008.503-.02.16-.015.314-.037.46-.067v2.406a7.27 7.27 0 0 1-.875.087c-.32.015-.634.023-.941.023-.481 0-.938-.033-1.368-.099a3.196 3.196 0 0 1-1.136-.383 2.029 2.029 0 0 1-.778-.809c-.19-.35-.283-.81-.283-1.378v-6.673h-1.881V9.92h1.88V6.53h3.106v3.39z"/></g><g><path fill="#231f20" d="M45.876 8.171h3.107v-2.56h-3.107zm3.106 1.749h-3.107v11.31h3.107z"/></g><g><path fill="#231f20" d="M50.214 11.999V9.92h1.859v-.875c0-1.006.313-1.83.94-2.472.627-.641 1.576-.963 2.845-.963.276 0 .555.01.832.034.275.02.546.04.807.054v2.319a9.47 9.47 0 0 0-1.136-.066c-.423 0-.726.099-.907.295-.182.197-.273.528-.273.996v.678h2.142v2.078H55.18v9.23h-3.108V12z"/></g><g><path fill="#231f20" d="M59.429 8.171h3.107v-2.56h-3.107zm3.107 1.749h-3.107v11.31h3.107z"/></g><g><path fill="#231f20" d="M69.447 19.196c.628 0 1.167-.157 1.62-.471.452-.313.729-.644.83-.995h2.735c-.437 1.357-1.108 2.327-2.011 2.91-.907.583-2 .874-3.283.874-.89 0-1.692-.141-2.406-.426a5.006 5.006 0 0 1-1.816-1.214 5.507 5.507 0 0 1-1.15-1.881c-.268-.729-.403-1.531-.403-2.406 0-.846.14-1.634.416-2.364a5.514 5.514 0 0 1 1.182-1.891 5.528 5.528 0 0 1 1.825-1.258c.708-.307 1.492-.459 2.352-.459.963 0 1.802.185 2.517.557a5.037 5.037 0 0 1 1.76 1.499c.46.627.792 1.341.995 2.144.205.802.277 1.641.219 2.516h-8.16c.044 1.006.3 1.735.766 2.187.467.451 1.139.678 2.012.678zm-.196-7.241c-.497 0-.907.085-1.236.252a2.35 2.35 0 0 0-.788.623 2.3 2.3 0 0 0-.416.788 3.583 3.583 0 0 0-.141.744h5.052c-.144-.789-.403-1.387-.776-1.795-.371-.407-.938-.612-1.695-.612z"/></g><g><path fill="#231f20" d="M84.258 19.787c-.364.612-.842 1.054-1.433 1.323-.59.27-1.257.404-2 .404-.849 0-1.592-.163-2.232-.492a4.456 4.456 0 0 1-1.586-1.334 6.023 6.023 0 0 1-.943-1.935 8.151 8.151 0 0 1-.314-2.276c0-.758.104-1.491.315-2.198a5.701 5.701 0 0 1 .942-1.871 4.72 4.72 0 0 1 1.562-1.302c.628-.328 1.358-.491 2.19-.491.67 0 1.308.142 1.911.426a3.326 3.326 0 0 1 1.435 1.258h.043V5.61h3.107V21.23h-2.953v-1.443zm-.58-6.728a2.545 2.545 0 0 0-.82-.798c-.336-.204-.759-.306-1.27-.306-.508 0-.94.102-1.29.306-.35.205-.63.474-.844.81-.21.336-.362.719-.456 1.147a6.125 6.125 0 0 0 .008 2.66c.104.437.268.827.494 1.17.226.343.51.62.853.83.343.213.756.318 1.236.318.51 0 .936-.102 1.28-.306.343-.205.618-.478.82-.821a3.64 3.64 0 0 0 .437-1.17c.088-.437.132-.89.132-1.355 0-.467-.043-.916-.132-1.347a3.277 3.277 0 0 0-.448-1.138z"/></g><g><path fill="#231f20" d="M8.456 141.312c-.157-1.094-1.204-1.925-2.405-1.925-2.171 0-2.99 1.85-2.99 3.776 0 1.831.819 3.68 2.99 3.68 1.478 0 2.314-1.017 2.494-2.466h2.346c-.248 2.744-2.143 4.5-4.84 4.5-3.404 0-5.406-2.543-5.406-5.714 0-3.267 2.002-5.81 5.406-5.81 2.419 0 4.45 1.418 4.745 3.96z"/></g><g><path fill="#231f20" d="M20.069 144.64c0 2.527-1.618 4.19-4.13 4.19-2.495 0-4.112-1.663-4.112-4.19 0-2.543 1.617-4.204 4.113-4.204 2.51 0 4.129 1.661 4.129 4.204zm-2.19 0c0-1.278-.445-2.556-1.94-2.556-1.477 0-1.927 1.278-1.927 2.556 0 1.262.45 2.542 1.928 2.542 1.494 0 1.939-1.28 1.939-2.542z"/></g><g><path fill="#231f20" d="M21.418 140.636h2.077v1.48h.032c.399-1 1.478-1.695 2.544-1.695.153 0 .336.03.478.076v2.034a4.054 4.054 0 0 0-.786-.076c-1.604 0-2.16 1.156-2.16 2.556v3.59h-2.185z"/></g><g><path fill="#231f20" d="M27.403 140.65h2.08v1.017h.03c.523-.847 1.386-1.231 2.37-1.231 2.499 0 3.62 2.017 3.62 4.28 0 2.127-1.168 4.115-3.495 4.115-.954 0-1.863-.417-2.386-1.202h-.033v3.79h-2.186zm4.004 1.435c-1.432 0-1.894 1.277-1.894 2.572 0 1.292.493 2.525 1.91 2.525 1.434 0 1.894-1.233 1.894-2.525 0-1.266-.51-2.572-1.91-2.572z"/></g><g><path fill="#231f20" d="M44.436 144.64c0 2.527-1.62 4.19-4.132 4.19-2.494 0-4.11-1.663-4.11-4.19 0-2.543 1.616-4.204 4.11-4.204 2.512 0 4.132 1.661 4.132 4.204zm-2.19 0c0-1.278-.447-2.556-1.942-2.556-1.476 0-1.925 1.278-1.925 2.556 0 1.262.45 2.542 1.925 2.542 1.495 0 1.942-1.28 1.942-2.542z"/></g><g><path fill="#231f20" d="M45.786 140.636h2.08v1.48h.033c.397-1 1.476-1.695 2.539-1.695.153 0 .34.03.478.076v2.034a4.011 4.011 0 0 0-.785-.076c-1.603 0-2.158 1.156-2.158 2.556v3.59h-2.187z"/></g><g><path fill="#231f20" d="M51.558 143.1c.125-2.05 1.957-2.664 3.744-2.664 1.586 0 3.498.352 3.498 2.261v4.145c0 .726.076 1.447.28 1.773h-2.222a3.546 3.546 0 0 1-.156-.773c-.69.727-1.706.988-2.677.988-1.511 0-2.711-.755-2.711-2.389 0-1.8 1.358-2.23 2.71-2.416 1.34-.203 2.59-.155 2.59-1.05 0-.938-.651-1.076-1.42-1.076-.831 0-1.37.337-1.448 1.2zm5.056 1.616c-.372.325-1.141.338-1.82.463-.677.136-1.294.37-1.294 1.17 0 .818.632 1.015 1.343 1.015 1.707 0 1.77-1.353 1.77-1.832z"/></g><g><path fill="#231f20" d="M63.218 140.651h1.603v1.463h-1.603v3.94c0 .743.186.927.924.927.232 0 .448-.016.679-.06v1.709c-.372.063-.85.077-1.281.077-1.336 0-2.508-.309-2.508-1.896v-4.697h-1.326v-1.463h1.326v-2.389h2.186z"/></g><g><path fill="#231f20" d="M68.659 137.615h-2.188v1.803h2.188zm-2.188 11.001h2.188v-7.965h-2.188z"/></g><g><path fill="#231f20" d="M78.371 144.64c0 2.527-1.62 4.19-4.133 4.19-2.494 0-4.109-1.663-4.109-4.19 0-2.543 1.615-4.204 4.11-4.204 2.511 0 4.132 1.661 4.132 4.204zm-2.19 0c0-1.278-.446-2.556-1.943-2.556-1.478 0-1.925 1.278-1.925 2.556 0 1.262.447 2.542 1.925 2.542 1.497 0 1.942-1.28 1.942-2.542z"/></g><g><path fill="#231f20" d="M79.784 140.651h2.08v1.108h.046c.555-.893 1.509-1.323 2.435-1.323 2.325 0 2.91 1.309 2.91 3.28v4.9h-2.187v-4.5c0-1.309-.386-1.957-1.401-1.957-1.188 0-1.696.663-1.696 2.282v4.175h-2.187z"/></g><g><path fill="#29c4ad" d="M983.928 101.24c.743.738.769 1.646.67 2.56-.174 1.62-.85 3.117-1.611 4.584-1.748 3.371-2.93 4.704-5.216 7.808-2.222 3.017-4.423 6.046-6.737 9.01-.292-.393-.566-.799-.86-1.19-.602-.8-1.443-1.683-1.586-2.67a.264.264 0 0 0-.123-.189 106.007 106.007 0 0 1 3.337-8.458c1.574-3.516 2.137-5.233 4.525-8.41.937-1.247 1.97-2.423 3.4-3.282 1.487-.892 3.152-.804 4.2.237zm-3.08 3.476c.02-.095.077-.229-.077-.265-.068-.015-.187.05-.246.108-.227.22-.46.44-.653.683-2.938 3.672-3.748 6.013-5.631 10.135l.132.078c.59-.826 1.192-1.645 1.768-2.479 1.945-2.814 2.758-3.874 4.21-6.918.208-.436.403-.875.498-1.342z"/></g><g><path fill="#29c4ad" d="M974.38 143.765c.632.355.824.887.729 1.56-.251 1.798-2.21 2.679-3.674 1.632-2.404-1.718-3.688-4.161-4.406-6.948-.792-3.08-.813-6.19-.323-9.315.016-.098.069-.197-.02-.301-.243.044-.351.264-.5.419-1.548 1.614-3.206 3.086-5.19 4.157-1.176.634-2.405 1.086-3.762 1.078-1.684-.012-2.901-.894-3.47-2.481-.577-1.61-.334-3.21.06-4.804.094-.38.22-.751.339-1.124.096-.3.086-.47-.321-.412-1.737.246-3.484.367-5.24.305-.468-.018-.572.269-.702.616-1.053 2.818-2.844 4.962-5.721 6.032-1.882.7-3.78.773-5.484-.485-1.893-1.397-2.407-3.402-2.276-5.637a6.72 6.72 0 0 1 .196-1.155c.079-.333.022-.46-.35-.38-1.515.322-3.051.492-4.597.568-.575.027-1.157.096-1.727.045-.705-.064-1.002.198-1.197.879-.65 2.273-1.717 4.335-3.478 5.957-1.957 1.802-4.233 2.598-6.887 1.892-1.812-.482-3.061-1.644-3.824-3.336a8.27 8.27 0 0 1-.72-3.85c.024-.501-.078-.641-.57-.37-4.89 2.706-9.975 5.025-15.012 7.436-.655.313-1.08.738-1.357 1.417-1.614 3.945-3.234 7.892-5.25 11.657-1.764 3.298-3.722 6.468-6.426 9.1-1.371 1.337-2.916 2.417-4.798 2.942-3.501.979-6.425-1.165-6.536-4.818-.083-2.725.906-5.123 2.342-7.362 1.928-3.005 4.528-5.377 7.306-7.568 3.309-2.61 6.867-4.847 10.5-6.97.413-.24.693-.533.87-.985.823-2.11 1.674-4.21 2.513-6.314.066-.167.115-.341.19-.567-.351.05-.495.29-.676.464-2.104 2.013-4.285 3.93-6.86 5.335-1.22.665-2.494 1.176-3.93 1.15-2.401-.043-4.136-2.102-3.79-4.491.325-2.242 1.407-4.117 2.827-5.812 1.716-2.047 3.72-3.738 6.253-4.711 1.086-.418 2.212-.684 3.386-.561 1.388.147 2.586.722 3.484 1.798.395.475.623.403.97-.021a70.227 70.227 0 0 1 2.335-2.72c.605-.665.97-.703 1.753-.321 1.347.657 1.532 1.205.934 2.689-1.51 3.744-3.013 7.49-4.52 11.236-.06.152-.116.305-.192.502.256.049.386-.07.528-.142 4.724-2.397 9.443-4.802 14.172-7.188.538-.271.94-.611 1.228-1.15.468-.877 1.07-1.664 1.895-2.25.287-.204.377-.431.297-.788-.172-.767-.231-1.545-.063-2.327.54-2.506 2.87-3.935 5.524-3.35 2.28.503 3.798 1.966 4.87 3.96.866 1.608 1.26 3.35 1.4 5.149.047.592.299.77.836.808 3.257.234 6.322-.341 9.13-2.074.262-.161.32-.35.286-.614-.377-2.936 2.287-4.444 4.623-4.165 2.993.358 5.259 2.6 5.956 5.807.343 1.577.344 1.552 1.976 1.58 1.965.036 3.855-.304 5.696-.972.405-.146.706-.375.957-.728 1.278-1.8 2.79-3.36 4.745-4.438 2.64-1.457 5.534-1.583 7.98.597a.811.811 0 0 0 .215.147c.238 1.08.912 2.064 1.465 2.996.346.584.66 1.192 1.013 1.774l-.158.207a2.245 2.245 0 0 0-.382.7c-1.128 3.619-1.947 7.288-1.717 11.11.149 2.474.782 4.792 2.435 6.733a6.933 6.933 0 0 0 1.892 1.57zm-80.395-20.926c.27-.26.239-.477.039-.75-.603-.823-1.426-1.082-2.395-.931a5.516 5.516 0 0 0-1.91.69 13.84 13.84 0 0 0-5.342 5.524 4.803 4.803 0 0 0-.545 1.76c-.046.42.146.623.547.587.425-.01 1.307-.37 2.092-.792 2.888-1.56 5.175-3.854 7.514-6.088zm-4.523 18.19c.237-.492.444-1 .727-1.643-.302.159-.465.23-.614.325-2.642 1.683-5.221 3.457-7.6 5.502-2.214 1.903-4.248 3.964-5.6 6.599-.662 1.294-1.191 2.629-1.092 4.125.074 1.108.726 1.672 1.832 1.599.702-.046 1.306-.352 1.88-.725 2.143-1.392 3.648-3.378 5.012-5.472 2.13-3.27 3.767-6.804 5.455-10.31zm33.784-13.816c.182-.557.053-.82-.507-1-1.762-.572-3.37-1.442-4.75-2.688-.368-.334-.553-.25-.822.099-1.397 1.807-1.898 3.852-1.63 6.093.096.8.35 1.565.867 2.216.45.569 1.039.856 1.755.878.8-.025 1.5-.317 2.11-.797 1.573-1.236 2.372-2.956 2.977-4.801zm-.35-4.602c.467.203.478-.08.433-.583-.117-.872-.303-1.906-.777-2.857-.313-.626-.765-1.127-1.47-1.324-.955-.266-1.707.334-1.658 1.312.022.447.193.834.443 1.198.755 1.096 1.842 1.739 3.029 2.254zm21.388 4.62c.136-.303-.063-.408-.298-.48a12.094 12.094 0 0 1-3.614-1.832c-.2-.147-.372-.194-.605-.015-1.311 1.005-2.034 3.693-1.378 5.19.289.66.775 1.048 1.51 1.088.062-.004.125-.004.185-.014.12-.023.246-.04.36-.08 1.9-.668 3.047-2.087 3.84-3.856zm.013-4.138c.3.13.283-.101.226-.305a4.231 4.231 0 0 0-.736-1.482c-.326-.414-.715-.737-1.208-.805-.594-.02-.87.379-.604.85.512.915 1.41 1.35 2.322 1.742zm24.047-.187c.11-.137.146-.272.079-.455-.367-1.01-1.775-2.04-2.865-2.102-1.216-.068-2.19.483-3.1 1.19-1.896 1.475-3.188 3.429-4.3 5.51-.69 1.293-1.263 2.638-1.365 3.855-.058 1.543.402 1.905 1.6 1.495.823-.282 1.568-.723 2.264-1.25 3.04-2.302 5.323-5.31 7.687-8.243z"/></g><g><path fill="#29c4ad" d="M980.096 135.498c-1.51-.011-2.404-.796-2.406-2.116-.002-1.653 1.37-3.135 2.88-3.11 1.215.022 2.226 1.08 2.235 2.339.012 1.81-1.01 2.9-2.709 2.887z"/></g><g><path fill="#ff7729" d="M232.276 131.918c-.526.602-1.26 1.178-2.2 1.729-.938.55-2.016 1.002-3.231 1.353a13.957 13.957 0 0 1-3.89.526c-2.355 0-4.48-.557-6.37-1.672-1.892-1.115-3.396-2.688-4.51-4.717-1.115-2.03-1.673-4.41-1.673-7.141 0-1.93.338-3.708 1.015-5.337a12.974 12.974 0 0 1 2.819-4.247 13.059 13.059 0 0 1 4.134-2.8 12.414 12.414 0 0 1 4.924-.996c1.428 0 2.762.22 4.002.658 1.24.439 2.33 1.002 3.27 1.692.939.688 1.672 1.422 2.198 2.198l-2.706 2.818a13.327 13.327 0 0 0-3.081-2.367 7.466 7.466 0 0 0-3.683-.94 8.59 8.59 0 0 0-4.267 1.128c-1.34.752-2.423 1.823-3.251 3.214-.826 1.39-1.24 3.05-1.24 4.979 0 2.105.42 3.859 1.26 5.262.839 1.403 1.954 2.449 3.344 3.139a9.993 9.993 0 0 0 4.49 1.033c1.48 0 2.783-.294 3.91-.884 1.128-.588 2.03-1.233 2.706-1.936z"/></g><g><path fill="#ff7729" d="M253.19 130.583a9.729 9.729 0 0 1-3.608 3.627c-1.516.877-3.213 1.316-5.092 1.316-1.879 0-3.584-.439-5.112-1.316a9.684 9.684 0 0 1-3.627-3.627c-.889-1.54-1.334-3.313-1.334-5.318 0-2.004.445-3.777 1.334-5.317a9.684 9.684 0 0 1 3.627-3.627c1.528-.877 3.233-1.316 5.112-1.316 1.88 0 3.576.44 5.092 1.316a9.729 9.729 0 0 1 3.608 3.627c.89 1.54 1.334 3.313 1.334 5.317 0 2.005-.445 3.777-1.334 5.318zm-3.383-8.832c-.539-1.014-1.27-1.803-2.198-2.368-.927-.563-1.967-.846-3.119-.846-1.153 0-2.199.283-3.139.846-.939.565-1.678 1.354-2.217 2.368-.539 1.015-.796 2.187-.77 3.514-.026 1.304.231 2.462.77 3.477.54 1.014 1.278 1.81 2.217 2.386.94.577 1.986.865 3.14.865 1.151 0 2.191-.288 3.118-.865.927-.576 1.66-1.372 2.198-2.386.54-1.015.796-2.173.771-3.477.025-1.327-.232-2.499-.77-3.514z"/></g><g><path fill="#ff7729" d="M268.705 115.005c1.779 0 3.157.364 4.134 1.09.977.727 1.659 1.705 2.049 2.932.388 1.227.582 2.592.582 4.096v12.027h-3.871v-11.764c0-.951-.126-1.803-.376-2.555-.251-.753-.676-1.34-1.278-1.767-.601-.425-1.441-.601-2.518-.526-1.002 0-1.892.213-2.668.64a5.002 5.002 0 0 0-1.842 1.69 4.226 4.226 0 0 0-.676 2.33v11.953h-3.871v-19.733h3.87v3.12c.602-.928 1.479-1.748 2.632-2.462 1.152-.714 2.43-1.07 3.833-1.07z"/></g><g><path fill="#ff7729" d="M290.668 115.005c1.779 0 3.157.364 4.134 1.09.977.727 1.659 1.705 2.049 2.932.388 1.227.582 2.592.582 4.096v12.027h-3.871v-11.764c0-.951-.126-1.803-.376-2.555-.251-.753-.676-1.34-1.278-1.767-.601-.425-1.441-.601-2.518-.526-1.002 0-1.892.213-2.668.64a5.002 5.002 0 0 0-1.842 1.69 4.226 4.226 0 0 0-.676 2.33v11.953h-3.871v-19.733h3.871v3.12c.601-.928 1.478-1.748 2.631-2.462 1.152-.714 2.43-1.07 3.833-1.07z"/></g><g><path fill="#ff7729" d="M319.269 132.557h-.038c-.802.777-1.904 1.465-3.308 2.067a11.055 11.055 0 0 1-4.397.902c-2.054 0-3.865-.432-5.431-1.297-1.566-.864-2.787-2.053-3.664-3.57-.877-1.516-1.315-3.238-1.315-5.168 0-2.204.463-4.09 1.39-5.656.927-1.566 2.155-2.77 3.683-3.61 1.528-.837 3.195-1.257 4.999-1.257 1.654 0 3.157.408 4.51 1.22 1.353.816 2.43 1.937 3.232 3.365.802 1.428 1.203 3.094 1.203 4.999l-.038 1.653h-15.108c.225 1.779.958 3.189 2.199 4.229 1.24 1.04 2.812 1.559 4.716 1.559 1.378 0 2.493-.257 3.345-.77.852-.513 1.553-1.008 2.105-1.485zm-11.952-12.985c-1.103.69-1.829 1.873-2.18 3.552h11.05v-.264a4.323 4.323 0 0 0-.846-2.255 5.156 5.156 0 0 0-4.153-2.067c-1.479 0-2.769.345-3.871 1.034z"/></g><g><path fill="#ff7729" d="M326.503 125.265c0 1.304.294 2.462.883 3.477a6.712 6.712 0 0 0 2.33 2.405 5.849 5.849 0 0 0 3.1.884c1.253 0 2.344-.326 3.27-.978.927-.65 1.679-1.328 2.256-2.029l2.142 2.631c-.476.676-1.127 1.31-1.954 1.897a11.028 11.028 0 0 1-2.82 1.43 10.098 10.098 0 0 1-3.307.544c-1.803 0-3.432-.45-4.885-1.354-1.453-.9-2.6-2.129-3.44-3.682-.84-1.554-1.258-3.295-1.258-5.225 0-1.954.419-3.702 1.259-5.242.839-1.54 1.986-2.763 3.439-3.665 1.453-.902 3.082-1.353 4.885-1.353 1.829 0 3.458.37 4.887 1.11 1.428.738 2.492 1.696 3.194 2.874l-2.142 2.63c-.577-.85-1.397-1.583-2.462-2.198-1.065-.614-2.1-.92-3.101-.92-1.177 0-2.242.294-3.194.882a6.306 6.306 0 0 0-2.255 2.405c-.552 1.015-.827 2.174-.827 3.477z"/></g><g><path fill="#ff7729" d="M350.672 135.15h-3.87v-15.973h-4.098v-3.758h4.097v-5.037h3.871v5.037h4.585v3.758h-4.585z"/></g><g><path fill="#ff7729" d="M360.436 111.134c.876 0 1.528-.25 1.954-.752.426-.501.639-1.064.639-1.691 0-.727-.213-1.315-.639-1.767-.426-.45-1.078-.675-1.954-.675-.877 0-1.529.25-1.955.751-.426.502-.638 1.065-.638 1.691 0 .728.212 1.315.638 1.767.426.451 1.078.676 1.955.676zm1.992 4.285h-3.871v19.731h3.871z"/></g><g><path fill="#ff7729" d="M377.946 115.005c1.78 0 3.157.364 4.134 1.09.977.727 1.66 1.705 2.05 2.932.387 1.227.581 2.592.581 4.096v12.027h-3.87v-11.764c0-.951-.127-1.803-.377-2.555-.25-.753-.676-1.34-1.278-1.767-.6-.425-1.44-.601-2.518-.526-1.002 0-1.892.213-2.668.64a5.002 5.002 0 0 0-1.842 1.69 4.226 4.226 0 0 0-.676 2.33v11.953h-3.87v-19.733h3.87v3.12c.601-.928 1.478-1.748 2.631-2.462 1.152-.714 2.43-1.07 3.833-1.07z"/></g><g><path fill="#ff7729" d="M392.303 138.42c.751.576 1.691 1.04 2.818 1.39 1.128.35 2.23.527 3.308.527 2.03 0 3.583-.495 4.66-1.485 1.077-.99 1.616-2.474 1.616-4.454v-2.405c-.35.602-.852 1.172-1.503 1.71a8.159 8.159 0 0 1-2.293 1.315 7.542 7.542 0 0 1-2.744.508c-1.829 0-3.482-.438-4.96-1.315-1.479-.877-2.65-2.092-3.515-3.646-.864-1.553-1.296-3.32-1.296-5.3 0-2.003.426-3.777 1.278-5.317.851-1.541 2.011-2.75 3.476-3.627 1.466-.877 3.101-1.315 4.905-1.315 1.503 0 2.838.332 4.003.996 1.165.664 2.048 1.385 2.65 2.16v-2.743h3.87v18.528c0 2.356-.47 4.253-1.409 5.695-.94 1.44-2.18 2.493-3.72 3.157-1.542.663-3.214.996-5.018.996-1.404 0-2.8-.22-4.19-.658-1.39-.44-2.513-1.01-3.365-1.71zm3.063-18.998a6.223 6.223 0 0 0-2.218 2.405c-.539 1.015-.808 2.16-.808 3.439 0 1.278.27 2.418.808 3.419a6.25 6.25 0 0 0 2.218 2.387c.94.589 2.01.884 3.213.884 1.252 0 2.35-.288 3.29-.864a5.95 5.95 0 0 0 2.197-2.387c.526-1.015.79-2.161.79-3.44 0-1.302-.264-2.455-.79-3.456a6.123 6.123 0 0 0-2.198-2.387c-.94-.59-2.037-.884-3.289-.884-1.203 0-2.274.295-3.213.884z"/></g><g><path fill="#ff7729" d="M439.488 116.302c1.391.865 2.486 2.067 3.29 3.608.8 1.54 1.201 3.314 1.201 5.318 0 2.005-.4 3.784-1.202 5.337-.803 1.554-1.892 2.769-3.27 3.646-1.378.877-2.919 1.315-4.623 1.315-1.403 0-2.675-.307-3.815-.921-1.14-.613-2.035-1.308-2.687-2.086v2.518h-3.87v-27.698h3.87v10.936c.576-.827 1.441-1.578 2.593-2.255 1.153-.676 2.418-1.014 3.796-1.014 1.754 0 3.327.43 4.717 1.296zm-8.38 3.1c-.916.577-1.63 1.372-2.143 2.387-.514 1.015-.77 2.16-.77 3.439 0 1.278.256 2.424.77 3.439a6.18 6.18 0 0 0 2.142 2.425c.914.6 1.96.9 3.138.9s2.218-.3 3.12-.9c.901-.602 1.61-1.41 2.123-2.425.513-1.015.771-2.161.771-3.44 0-1.277-.258-2.423-.77-3.438-.515-1.015-1.223-1.81-2.124-2.386-.902-.576-1.942-.865-3.12-.865-1.178 0-2.224.289-3.138.865z"/></g><g><path fill="#ff7729" d="M458.937 119.59a4.402 4.402 0 0 0-.92-.319 4.87 4.87 0 0 0-1.147-.132c-.802 0-1.591.207-2.368.62a5.324 5.324 0 0 0-1.935 1.767c-.514.764-.771 1.672-.771 2.724v10.9h-3.908v-19.732h3.908v3.721a7.252 7.252 0 0 1 2.499-2.969c1.115-.776 2.287-1.165 3.515-1.165.926 0 1.641.125 2.142.376z"/></g><g><path fill="#ff7729" d="M480.642 115.419v19.73h-3.91v-3.043c-.6.827-1.49 1.604-2.667 2.33-1.178.727-2.544 1.09-4.097 1.09-1.654 0-3.163-.438-4.53-1.315-1.364-.877-2.448-2.092-3.25-3.646-.802-1.553-1.202-3.332-1.202-5.337 0-2.004.413-3.777 1.24-5.318.827-1.541 1.967-2.743 3.42-3.608 1.453-.865 3.106-1.296 4.96-1.296 1.379 0 2.588.3 3.628.9 1.039.603 1.872 1.305 2.499 2.107v-2.594zm-6.615 15.653c.902-.588 1.603-1.39 2.105-2.405.5-1.015.752-2.161.752-3.44 0-1.251-.251-2.378-.752-3.381-.502-1.002-1.203-1.798-2.105-2.387-.902-.588-1.954-.883-3.157-.883-1.153 0-2.18.288-3.082.864-.902.578-1.604 1.367-2.105 2.369-.501 1-.751 2.14-.751 3.419 0 1.278.25 2.424.75 3.439.502 1.015 1.204 1.817 2.106 2.405.902.589 1.929.884 3.082.884 1.203 0 2.255-.295 3.157-.884z"/></g><g><path fill="#ff7729" d="M495.96 115.005c1.78 0 3.157.364 4.134 1.09.977.727 1.66 1.705 2.05 2.932.387 1.227.581 2.592.581 4.096v12.027h-3.87v-11.764c0-.951-.127-1.803-.377-2.555-.25-.753-.676-1.34-1.278-1.767-.6-.425-1.44-.601-2.518-.526-1.002 0-1.892.213-2.668.64a5.002 5.002 0 0 0-1.842 1.69 4.226 4.226 0 0 0-.676 2.33v11.953h-3.87v-19.733h3.87v3.12c.601-.928 1.478-1.748 2.631-2.462 1.152-.714 2.43-1.07 3.833-1.07z"/></g><g><path fill="#ff7729" d="M526.173 107.338v27.812h-3.871v-2.782c-.576.778-1.428 1.498-2.555 2.162-1.128.663-2.406.996-3.834.996-1.78 0-3.383-.439-4.811-1.316s-2.556-2.09-3.382-3.645c-.827-1.554-1.24-3.32-1.24-5.3 0-2.004.413-3.777 1.24-5.317.826-1.54 1.941-2.75 3.344-3.627 1.403-.877 2.982-1.316 4.736-1.316 1.403 0 2.675.288 3.815.864 1.14.577 2.035 1.253 2.687 2.03v-10.56zm-6.577 23.941c.902-.602 1.603-1.429 2.105-2.48.501-1.054.752-2.23.752-3.534 0-1.327-.251-2.512-.752-3.552-.502-1.039-1.203-1.86-2.105-2.46-.902-.602-1.954-.903-3.157-.903-1.178 0-2.217.301-3.119.902-.902.601-1.61 1.422-2.124 2.461-.514 1.04-.77 2.225-.77 3.552 0 1.304.256 2.48.77 3.533.514 1.052 1.222 1.88 2.124 2.481.902.601 1.941.902 3.119.902 1.203 0 2.255-.3 3.157-.902z"/></g><g><path fill="#ff7729" d="M542.409 120.605a9.359 9.359 0 0 0-2.387-1.729c-.89-.45-1.71-.676-2.461-.676-.527 0-1.047.062-1.56.187a2.785 2.785 0 0 0-1.297.696c-.351.338-.526.834-.526 1.485.025.901.433 1.54 1.222 1.916.789.376 1.772.715 2.95 1.015 1.027.276 2.03.62 3.007 1.034a6.137 6.137 0 0 1 2.424 1.803c.639.79.958 1.9.958 3.327 0 1.227-.345 2.28-1.033 3.157-.69.877-1.58 1.547-2.67 2.011a8.72 8.72 0 0 1-3.438.695c-1.428 0-2.837-.258-4.228-.77-1.39-.514-2.574-1.397-3.551-2.65l2.63-2.256a7.606 7.606 0 0 0 2.312 1.823c.864.44 1.922.66 3.176.66.475 0 .95-.082 1.428-.247a2.926 2.926 0 0 0 1.22-.789c.34-.362.509-.857.509-1.484 0-.602-.183-1.07-.545-1.409-.364-.339-.846-.614-1.447-.827a19.864 19.864 0 0 0-1.992-.582 26.386 26.386 0 0 1-3.176-1.11 6.77 6.77 0 0 1-2.593-1.879c-.69-.813-1.034-1.922-1.034-3.326 0-1.178.332-2.185.996-3.025.664-.839 1.535-1.49 2.612-1.954a8.647 8.647 0 0 1 3.458-.696c1.177 0 2.455.25 3.833.751 1.378.502 2.518 1.304 3.42 2.406z"/></g><g><path fill="#ff7729" d="M586.08 115.419l-6.652 19.73h-2.668l-5.036-11.461-4.699 11.462h-2.63l-6.728-19.731 3.91-.037 4.434 13.604 4.735-10.448h2.33l4.698 10.298 4.397-13.417z"/></g><g><path fill="#ff7729" d="M591.259 111.134c.877 0 1.528-.25 1.954-.752.426-.501.64-1.064.64-1.691 0-.727-.214-1.315-.64-1.767-.426-.45-1.077-.675-1.954-.675s-1.529.25-1.954.751c-.427.502-.639 1.065-.639 1.691 0 .728.212 1.315.639 1.767.425.451 1.077.676 1.954.676zm1.992 4.285h-3.871v19.731h3.871z"/></g><g><path fill="#ff7729" d="M604.481 135.15h-3.871v-15.973h-4.097v-3.758h4.097v-5.037h3.871v5.037h4.585v3.758h-4.585z"/></g><g><path fill="#ff7729" d="M622.359 115.005c1.779 0 3.157.364 4.134 1.09.977.727 1.659 1.705 2.049 2.932.388 1.227.582 2.592.582 4.096v12.027h-3.871v-11.764c0-.951-.126-1.803-.376-2.555-.251-.753-.676-1.34-1.278-1.767-.601-.425-1.441-.601-2.518-.526-1.002 0-1.892.213-2.668.64a5.002 5.002 0 0 0-1.842 1.69 4.226 4.226 0 0 0-.676 2.33v11.953h-3.871v-27.813h3.87v11.2c.602-.928 1.479-1.748 2.632-2.462 1.152-.714 2.43-1.07 3.833-1.07z"/></g><g><path fill="#ff7729" d="M656.296 120.605a9.359 9.359 0 0 0-2.387-1.729c-.89-.45-1.71-.676-2.461-.676-.527 0-1.047.062-1.56.187a2.785 2.785 0 0 0-1.297.696c-.351.338-.526.834-.526 1.485.025.901.433 1.54 1.222 1.916.789.376 1.772.715 2.95 1.015 1.027.276 2.03.62 3.007 1.034a6.137 6.137 0 0 1 2.424 1.803c.639.79.958 1.9.958 3.327 0 1.227-.345 2.28-1.033 3.157-.69.877-1.58 1.547-2.67 2.011a8.72 8.72 0 0 1-3.438.695c-1.428 0-2.837-.258-4.228-.77-1.39-.514-2.574-1.397-3.551-2.65l2.63-2.256a7.606 7.606 0 0 0 2.312 1.823c.864.44 1.922.66 3.176.66.475 0 .95-.082 1.428-.247a2.926 2.926 0 0 0 1.22-.789c.34-.362.509-.857.509-1.484 0-.602-.183-1.07-.545-1.409-.364-.339-.846-.614-1.447-.827a19.864 19.864 0 0 0-1.992-.582 26.386 26.386 0 0 1-3.176-1.11 6.77 6.77 0 0 1-2.593-1.879c-.69-.813-1.034-1.922-1.034-3.326 0-1.178.332-2.185.996-3.025.664-.839 1.535-1.49 2.612-1.954a8.647 8.647 0 0 1 3.458-.696c1.177 0 2.455.25 3.833.751 1.378.502 2.518 1.304 3.42 2.406z"/></g><g><path fill="#ff7729" d="M672.885 115.005c1.779 0 3.157.364 4.135 1.09.976.727 1.659 1.705 2.048 2.932.388 1.227.583 2.592.583 4.096v12.027h-3.871v-11.764c0-.951-.126-1.803-.376-2.555-.251-.753-.677-1.34-1.28-1.767-.6-.425-1.44-.601-2.516-.526-1.003 0-1.893.213-2.67.64a5 5 0 0 0-1.84 1.69 4.227 4.227 0 0 0-.677 2.33v11.953h-3.871v-27.813h3.87v11.2c.603-.928 1.48-1.748 2.632-2.462 1.152-.714 2.43-1.07 3.833-1.07z"/></g><g><path fill="#ff7729" d="M702.105 130.583a9.729 9.729 0 0 1-3.608 3.627c-1.516.877-3.213 1.316-5.092 1.316-1.88 0-3.584-.439-5.11-1.316a9.67 9.67 0 0 1-3.628-3.627c-.89-1.54-1.335-3.313-1.335-5.318 0-2.004.445-3.777 1.335-5.317a9.67 9.67 0 0 1 3.627-3.627c1.527-.877 3.231-1.316 5.111-1.316s3.576.44 5.092 1.316a9.729 9.729 0 0 1 3.608 3.627c.89 1.54 1.334 3.313 1.334 5.317 0 2.005-.445 3.777-1.334 5.318zm-3.383-8.832c-.539-1.014-1.27-1.803-2.198-2.368-.927-.563-1.968-.846-3.119-.846-1.153 0-2.199.283-3.139.846-.939.565-1.678 1.354-2.217 2.368-.539 1.015-.795 2.187-.77 3.514-.025 1.304.231 2.462.77 3.477.54 1.014 1.278 1.81 2.217 2.386.94.577 1.986.865 3.14.865 1.15 0 2.191-.288 3.118-.865.927-.576 1.66-1.372 2.198-2.386.54-1.015.795-2.173.771-3.477.024-1.327-.23-2.499-.77-3.514z"/></g><g><path fill="#ff7729" d="M722.299 116.377c1.39.865 2.486 2.061 3.288 3.589.802 1.529 1.203 3.295 1.203 5.299 0 1.98-.401 3.74-1.203 5.281-.802 1.541-1.891 2.751-3.27 3.626-1.377.878-2.918 1.316-4.622 1.316-1.404 0-2.675-.301-3.815-.901-1.14-.602-2.036-1.29-2.687-2.068v10.9h-3.908v-28.038h3.908v2.894c.576-.827 1.44-1.565 2.593-2.218 1.153-.651 2.418-.976 3.796-.976 1.754 0 3.327.431 4.717 1.296zm-8.381 3.138a5.963 5.963 0 0 0-2.142 2.349c-.514.99-.771 2.124-.771 3.401 0 1.254.257 2.381.77 3.383a6.07 6.07 0 0 0 2.143 2.387c.914.589 1.96.883 3.138.883s2.218-.294 3.119-.883c.902-.589 1.61-1.385 2.124-2.387.513-1.002.77-2.129.77-3.383 0-1.277-.257-2.411-.77-3.401a6.024 6.024 0 0 0-2.124-2.349c-.901-.576-1.941-.864-3.12-.864-1.177 0-2.223.288-3.137.864z"/></g><g><path fill="#ff7729" d="M745.694 116.377c1.391.865 2.486 2.061 3.288 3.589.802 1.529 1.203 3.295 1.203 5.299 0 1.98-.4 3.74-1.203 5.281-.802 1.541-1.89 2.751-3.269 3.626-1.378.878-2.919 1.316-4.623 1.316-1.404 0-2.675-.301-3.815-.901-1.14-.602-2.036-1.29-2.687-2.068v10.9h-3.908v-28.038h3.908v2.894c.576-.827 1.441-1.565 2.593-2.218 1.153-.651 2.418-.976 3.796-.976 1.754 0 3.327.431 4.717 1.296zm-8.38 3.138a5.963 5.963 0 0 0-2.143 2.349c-.514.99-.77 2.124-.77 3.401 0 1.254.256 2.381.77 3.383a6.07 6.07 0 0 0 2.142 2.387c.914.589 1.96.883 3.138.883s2.218-.294 3.12-.883c.901-.589 1.61-1.385 2.123-2.387.513-1.002.771-2.129.771-3.383 0-1.277-.258-2.411-.77-3.401a6.024 6.024 0 0 0-2.125-2.349c-.9-.576-1.94-.864-3.119-.864-1.178 0-2.224.288-3.138.864z"/></g><g><path fill="#ff7729" d="M771.12 132.557h-.038c-.802.777-1.904 1.465-3.307 2.067a11.055 11.055 0 0 1-4.397.902c-2.055 0-3.865-.432-5.431-1.297-1.566-.864-2.788-2.053-3.665-3.57-.877-1.516-1.315-3.238-1.315-5.168 0-2.204.464-4.09 1.39-5.656.927-1.566 2.156-2.77 3.684-3.61 1.528-.837 3.194-1.257 4.999-1.257 1.653 0 3.156.408 4.51 1.22 1.352.816 2.429 1.937 3.232 3.365.801 1.428 1.202 3.094 1.202 4.999l-.037 1.653h-15.109c.225 1.779.959 3.189 2.199 4.229 1.24 1.04 2.813 1.559 4.717 1.559 1.377 0 2.492-.257 3.345-.77.851-.513 1.552-1.008 2.104-1.485zm-11.951-12.985c-1.104.69-1.83 1.873-2.181 3.552h11.05v-.264a4.315 4.315 0 0 0-.846-2.255 5.16 5.16 0 0 0-4.152-2.067c-1.479 0-2.77.345-3.871 1.034z"/></g><g><path fill="#ff7729" d="M786.924 119.59a4.433 4.433 0 0 0-.921-.319 4.855 4.855 0 0 0-1.146-.132c-.802 0-1.592.207-2.37.62a5.332 5.332 0 0 0-1.934 1.767c-.514.764-.771 1.672-.771 2.724v10.9h-3.908v-19.732h3.908v3.721a7.247 7.247 0 0 1 2.5-2.969c1.115-.776 2.287-1.165 3.514-1.165.927 0 1.64.125 2.143.376z"/></g><g><path fill="#ff7729" d="M801.95 120.605a9.341 9.341 0 0 0-2.388-1.729c-.889-.45-1.71-.676-2.462-.676a6.57 6.57 0 0 0-1.559.187 2.777 2.777 0 0 0-1.296.696c-.352.338-.526.834-.526 1.485.024.901.431 1.54 1.221 1.916.79.376 1.772.715 2.95 1.015 1.027.276 2.03.62 3.006 1.034a6.133 6.133 0 0 1 2.425 1.803c.64.79.958 1.9.958 3.327 0 1.227-.345 2.28-1.033 3.157-.69.877-1.579 1.547-2.669 2.011a8.723 8.723 0 0 1-3.439.695c-1.428 0-2.837-.258-4.228-.77-1.39-.514-2.574-1.397-3.552-2.65l2.631-2.256a7.622 7.622 0 0 0 2.312 1.823c.864.44 1.922.66 3.175.66.476 0 .952-.082 1.43-.247a2.936 2.936 0 0 0 1.221-.789c.338-.362.507-.857.507-1.484 0-.602-.182-1.07-.545-1.409-.364-.339-.846-.614-1.448-.827-.6-.213-1.265-.408-1.99-.582a26.386 26.386 0 0 1-3.177-1.11c-1.04-.437-1.905-1.064-2.593-1.879-.69-.813-1.034-1.922-1.034-3.326 0-1.178.331-2.185.997-3.025.663-.839 1.534-1.49 2.611-1.954a8.647 8.647 0 0 1 3.458-.696c1.178 0 2.455.25 3.834.751 1.377.502 2.517 1.304 3.42 2.406z"/></g><g><path fill="#ff7729" d="M829.798 119.328h-4.66v15.822h-3.908v-15.822h-3.158v-3.571h3.158V113.2c0-1.703.545-3.101 1.634-4.19 1.09-1.09 2.499-1.635 4.228-1.635 1.002 0 1.836.188 2.5.563.663.376 1.145.74 1.446 1.09l-1.315 2.97a4.05 4.05 0 0 0-.977-.695 2.545 2.545 0 0 0-1.203-.32c-.901 0-1.528.213-1.88.639-.35.427-.525.952-.525 1.578v2.556h4.66z"/></g><g><path fill="#ff7729" d="M850.46 130.583a9.729 9.729 0 0 1-3.607 3.627c-1.516.877-3.213 1.316-5.092 1.316-1.88 0-3.584-.439-5.111-1.316a9.67 9.67 0 0 1-3.627-3.627c-.89-1.54-1.335-3.313-1.335-5.318 0-2.004.445-3.777 1.335-5.317a9.67 9.67 0 0 1 3.627-3.627c1.527-.877 3.23-1.316 5.11-1.316 1.88 0 3.577.44 5.093 1.316a9.729 9.729 0 0 1 3.608 3.627c.889 1.54 1.334 3.313 1.334 5.317 0 2.005-.445 3.777-1.334 5.318zm-3.382-8.832c-.54-1.014-1.271-1.803-2.198-2.368-.927-.563-1.968-.846-3.12-.846-1.152 0-2.198.283-3.138.846-.94.565-1.678 1.354-2.217 2.368-.54 1.015-.795 2.187-.771 3.514-.024 1.304.232 2.462.77 3.477.54 1.014 1.279 1.81 2.218 2.386.94.577 1.986.865 3.139.865 1.15 0 2.192-.288 3.119-.865.927-.576 1.659-1.372 2.198-2.386.54-1.015.795-2.173.77-3.477.025-1.327-.23-2.499-.77-3.514z"/></g><g><path fill="#ff7729" d="M866.69 119.59a4.433 4.433 0 0 0-.922-.319 4.855 4.855 0 0 0-1.146-.132c-.802 0-1.592.207-2.369.62a5.332 5.332 0 0 0-1.935 1.767c-.514.764-.77 1.672-.77 2.724v10.9h-3.908v-19.732h3.908v3.721a7.247 7.247 0 0 1 2.5-2.969c1.115-.776 2.287-1.165 3.514-1.165.927 0 1.64.125 2.143.376z"/></g></g></svg>