<svg xmlns="http://www.w3.org/2000/svg" width="130.5" height="43.5" viewBox="0 0 261 87"><g><g><path fill="#fff" d="M43.44-.114c23.48 0 42.517 19.51 42.517 43.579 0 24.068-19.036 43.579-42.516 43.579-23.48 0-42.516-19.511-42.516-43.58C.925 19.398 19.96-.113 43.44-.113zm0 82.814c21.67 0 39.236-17.566 39.236-39.236C82.676 21.796 65.11 4.23 43.44 4.23c-21.67 0-39.235 17.566-39.235 39.234 0 21.67 17.566 39.236 39.235 39.236z"/></g><g><path fill="#fff" d="M130.764-.114c23.48 0 42.516 19.51 42.516 43.579 0 24.068-19.036 43.579-42.516 43.579-23.48 0-42.516-19.511-42.516-43.58 0-24.067 19.036-43.578 42.516-43.578zm0 82.814c21.669 0 39.235-17.566 39.235-39.236 0-21.668-17.566-39.234-39.235-39.234-21.67 0-39.234 17.566-39.234 39.234 0 21.67 17.565 39.236 39.234 39.236z"/></g><g><path fill="#fff" d="M218.086-.114c23.481 0 42.516 19.51 42.516 43.579 0 24.068-19.035 43.579-42.516 43.579-23.48 0-42.516-19.511-42.516-43.58 0-24.067 19.036-43.578 42.516-43.578zm0 82.814c21.67 0 39.235-17.566 39.235-39.236 0-21.668-17.566-39.234-39.235-39.234s-39.235 17.566-39.235 39.234c0 21.67 17.566 39.236 39.235 39.236z"/></g><g><path fill="#fff" d="M43.44 8.177c18.778 0 34 15.799 34 35.288 0 19.489-15.222 35.287-34 35.287s-34-15.798-34-35.287c0-19.49 15.222-35.288 34-35.288zm17.385 12.175h-4.042v20.13H29.641v-20.13h-4.04v44.544h4.04v-20.49h27.142v20.49h4.042z"/></g><g><path fill="#fff" d="M130.763 8.177c18.778 0 34 15.799 34 35.288 0 19.489-15.222 35.287-34 35.287-18.777 0-34-15.798-34-35.287 0-19.49 15.223-35.288 34-35.288zm20.81 12.175h-3.268l-17.51 24.919-17.512-24.92h-3.327v44.545h4.042V28.245l15.65 22.309.466.542h1.39l16.026-22.851v36.65h4.042z"/></g><g><path fill="#fff" d="M218.087 8.177c18.777 0 34 15.8 34 35.287 0 19.49-15.223 35.287-34 35.287-18.778 0-34-15.797-34-35.287 0-19.488 15.222-35.287 34-35.287zm18.573 48.908l-2.956-2.772-.932 1c-2.716 2.91-7.391 6.376-14.237 6.376-9.988 0-17.812-8.348-17.812-19.005v-.12c0-10.658 7.824-19.006 17.812-19.006 6.976 0 10.902 2.86 14.107 5.95l.963.928 2.833-2.829-1.011-.963c-4.536-4.328-8.935-7.01-16.832-7.01-12.288 0-21.913 10.098-21.913 22.99v.12c0 12.823 9.573 22.87 21.794 22.87 6.673 0 12.47-2.535 17.236-7.533z"/></g></g></svg>