<?xml version="1.0" encoding="utf-8"?>
<!-- Generator: Adobe Illustrator 24.1.2, SVG Export Plug-In . SVG Version: 6.00 Build 0)  -->
<svg version="1.1" id="Слой_1" xmlns="http://www.w3.org/2000/svg" xmlns:xlink="http://www.w3.org/1999/xlink" x="0px" y="0px"
	 viewBox="0 0 33.5 29.7" style="enable-background:new 0 0 33.5 29.7;" xml:space="preserve">
<style type="text/css">
	.st0{fill:#FF7729;}
</style>
<path class="st0" d="M24.4,0.2c-2.9-0.6-5.9,0-8.4,1.7c-2,1.4-3.5,3.3-4.3,5.6C9.3,7.4,7,8,4.9,9.4c-2.5,1.7-4.2,4.2-4.7,7.1
	c-0.6,2.9,0,5.9,1.7,8.4c1.7,2.5,4.2,4.2,7.1,4.7l0.7-3.4c-2-0.4-3.8-1.6-4.9-3.3c-1.2-1.7-1.6-3.8-1.2-5.8c0.4-2,1.6-3.8,3.3-4.9
	c1.3-0.9,2.7-1.3,4.2-1.3c-0.1,2.3,0.6,4.6,1.9,6.5c1.6,2.4,4.1,4.1,7,4.7l0,0l1.9,0.4l0.3-1.7l0-0.1c0,0,0,0,0,0l0-0.1l0,0
	c0.9-5.3-2.2-10.5-7.1-12.3c0.6-1.4,1.5-2.6,2.8-3.4c1.7-1.2,3.8-1.6,5.8-1.2c4.2,0.8,6.9,4.9,6.1,9.1l3.4,0.7
	C34.5,7.3,30.5,1.4,24.4,0.2z M18.9,18.1c-1.2-0.6-2.2-1.5-3-2.6s-1.2-2.4-1.3-3.8C17,13,18.7,15.4,18.9,18.1z"/>
</svg>
