<svg xmlns="http://www.w3.org/2000/svg" width="109" height="58" viewBox="0 0 109 58"><g><g><path fill="#ff7729" d="M96.087 7.693c8.297 1.62 13.73 9.687 12.112 17.984l-4.665-.91c1.118-5.725-2.632-11.292-8.357-12.41a10.505 10.505 0 0 0-7.936 1.609 10.51 10.51 0 0 0-3.851 4.692c6.707 2.555 10.903 9.598 9.672 16.873l.008.002-.031.168-.003.027-.03.156-.43 2.38-2.542-.511v-.008a15.23 15.23 0 0 1-9.601-6.44 15.211 15.211 0 0 1-2.6-8.91c-2.05.02-4.05.634-5.79 1.805a10.507 10.507 0 0 0-4.473 6.749 10.507 10.507 0 0 0 1.609 7.935 10.501 10.501 0 0 0 6.748 4.474l-.911 4.665a15.23 15.23 0 0 1-9.78-6.484 15.23 15.23 0 0 1-2.33-11.5 15.23 15.23 0 0 1 6.483-9.781 15.203 15.203 0 0 1 9.307-2.581 15.198 15.198 0 0 1 5.89-7.653 15.23 15.23 0 0 1 11.5-2.331zm-7.594 24.54a10.646 10.646 0 0 0-5.89-8.745 10.505 10.505 0 0 0 1.773 5.162 10.505 10.505 0 0 0 4.117 3.583z"/></g><g><path fill="none" stroke="#ff7729" stroke-miterlimit="20" stroke-width="2.09" d="M47.743.593c-.924 10.206.184 16.749.028 26.96-.107 7.007.063 14.013.113 21.018.047 6.636-.63 2.5-.001 9.108"/></g><g><path fill="#231f20" d="M9.26 19.443h6.312c1.537 0 3.56 0 4.608.634 1.145.682 2.046 1.925 2.046 3.632 0 1.853-.973 3.242-2.583 3.899v.049c2.146.439 3.315 2.048 3.315 4.193 0 2.558-1.828 4.996-5.289 4.996H9.26zm2.315 7.483h4.633c2.632 0 3.705-.95 3.705-2.78 0-2.412-1.705-2.753-3.705-2.753h-4.633zm0 7.97h5.803c1.998 0 3.266-1.218 3.266-3.12 0-2.266-1.828-2.9-3.78-2.9h-5.29z"/></g><g><path fill="#231f20" d="M15.64 41.39c-7.31 0-13.237-5.927-13.237-13.239 0-7.31 5.927-13.236 13.237-13.236 7.313 0 13.24 5.926 13.24 13.236 0 7.312-5.927 13.24-13.24 13.24zM.393 28.144c0 8.421 6.827 15.248 15.247 15.248 8.423 0 15.25-6.827 15.25-15.248 0-8.42-6.827-15.248-15.25-15.248-8.42 0-15.247 6.827-15.247 15.248z"/></g><g><path fill="#231f20" d="M30.859 48.609H.425v-2h30.434z"/></g><g><path fill="#231f20" d="M29.734 44.406v-.338h.219c.028 0 .055.003.084.005a.221.221 0 0 1 .075.025c.02.011.04.026.053.048.014.02.02.05.02.084a.188.188 0 0 1-.021.1.155.155 0 0 1-.063.052.247.247 0 0 1-.088.02 1.744 1.744 0 0 1-.106.004zm-.167-.472v1.061h.167v-.457h.175l.29.457h.176l-.304-.467a.377.377 0 0 0 .2-.079c.053-.047.082-.115.082-.21 0-.104-.032-.178-.093-.23-.061-.05-.153-.075-.28-.075zm-.335.836a.799.799 0 0 1-.058-.307c0-.11.019-.21.058-.305a.68.68 0 0 1 .156-.245.74.74 0 0 1 .829-.162c.09.04.17.094.239.162a.785.785 0 0 1 .214.55.799.799 0 0 1-.214.555.729.729 0 0 1-.534.222.724.724 0 0 1-.69-.47zm-.151-.667a.845.845 0 0 0-.071.36c0 .131.02.251.07.36a.882.882 0 0 0 .49.482c.11.045.23.067.352.067a.873.873 0 0 0 .642-.259.877.877 0 0 0 .197-.29.838.838 0 0 0 .074-.36.903.903 0 0 0-.913-.904.926.926 0 0 0-.644.258.954.954 0 0 0-.197.286z"/></g><g><path fill="#231f20" d="M4.113 6.192a1.222 1.222 0 0 0-.636-.51 1.283 1.283 0 0 0-.428-.072c-.272 0-.504.053-.694.158-.19.106-.344.247-.462.424a1.86 1.86 0 0 0-.258.605 2.964 2.964 0 0 0 0 1.376c.054.219.14.415.258.59s.272.314.462.42c.19.105.422.157.694.157.37 0 .659-.112.867-.338.208-.227.336-.524.382-.894h1.17c-.03.344-.11.655-.238.932a2.148 2.148 0 0 1-1.248 1.156 2.71 2.71 0 0 1-.933.155c-.422 0-.8-.074-1.137-.22a2.446 2.446 0 0 1-.852-.605 2.676 2.676 0 0 1-.531-.906 3.3 3.3 0 0 1-.186-1.121c0-.411.062-.793.186-1.145.123-.352.3-.66.53-.921.232-.262.517-.468.853-.617a2.796 2.796 0 0 1 1.137-.223c.303 0 .59.044.859.13.27.088.512.216.725.383.213.167.389.373.528.62.139.246.226.529.262.847H4.252a1 1 0 0 0-.14-.381z"/></g><g><path fill="#231f20" d="M7.756 9.51a.97.97 0 0 0 .57-.166c.16-.11.257-.227.293-.35h.964c-.155.478-.39.82-.709 1.025-.319.206-.704.308-1.157.308-.313 0-.596-.05-.848-.15a1.758 1.758 0 0 1-.639-.428 1.916 1.916 0 0 1-.405-.662 2.43 2.43 0 0 1-.143-.848c0-.298.05-.576.147-.833.097-.257.236-.48.416-.667.18-.187.395-.335.644-.442.25-.11.525-.163.828-.163.34 0 .635.066.887.197.251.13.458.307.62.528.162.22.28.473.351.755.071.283.097.579.077.887H6.777c.015.354.105.61.27.77.164.16.401.239.71.239zm-.07-2.551c-.174 0-.32.03-.435.089a.81.81 0 0 0-.424.497 1.268 1.268 0 0 0-.05.262h1.781c-.052-.278-.143-.488-.274-.632-.13-.144-.33-.216-.598-.216z"/></g><g><path fill="#231f20" d="M11.186 6.242v.74h.015a1.375 1.375 0 0 1 .872-.786c.128-.041.262-.062.4-.062.072 0 .152.013.24.039V7.19a2.16 2.16 0 0 0-.394-.039c-.2 0-.37.034-.509.101a.875.875 0 0 0-.335.273 1.116 1.116 0 0 0-.18.405 2.199 2.199 0 0 0-.055.501v1.796h-1.095V6.242z"/></g><g><path fill="#231f20" d="M15.642 6.242v.732h-.802v1.974c0 .185.03.308.093.369.06.062.185.093.369.093a1.702 1.702 0 0 0 .34-.031v.848a2.688 2.688 0 0 1-.31.031 7.435 7.435 0 0 1-.33.007c-.17 0-.331-.011-.482-.034a1.13 1.13 0 0 1-.401-.135.723.723 0 0 1-.274-.285 1.03 1.03 0 0 1-.1-.486V6.974h-.662v-.732h.663V5.047h1.094v1.195z"/></g><g><path fill="#231f20" d="M16.279 5.625h1.095v-.902h-1.095zm1.095.617h-1.095v3.985h1.095z"/></g><g><path fill="#231f20" d="M17.808 6.974v-.732h.655v-.309c0-.354.11-.644.332-.87.22-.226.555-.339 1.002-.339.097 0 .195.003.293.011.097.008.192.014.284.019v.818a3.232 3.232 0 0 0-.4-.024c-.15 0-.256.035-.32.104-.064.07-.096.187-.096.351v.239h.755v.732h-.755v3.253h-1.095V6.974z"/></g><g><path fill="#231f20" d="M21.054 5.625h1.095v-.902h-1.095zm1.095.617h-1.095v3.985h1.095z"/></g><g><path fill="#231f20" d="M24.584 9.51a.976.976 0 0 0 .571-.166c.16-.11.257-.227.292-.35h.965c-.154.478-.391.82-.71 1.025-.319.206-.704.308-1.156.308-.313 0-.596-.05-.847-.15a1.754 1.754 0 0 1-.64-.428 1.916 1.916 0 0 1-.405-.662 2.43 2.43 0 0 1-.142-.848c0-.298.049-.576.146-.833.098-.257.236-.48.417-.667.179-.187.394-.335.643-.442.249-.11.525-.163.829-.163.339 0 .634.066.886.197.252.13.459.307.62.528.163.22.279.473.35.755.073.283.099.579.078.887h-2.874c.015.354.105.61.269.77.165.16.4.239.709.239zm-.069-2.551c-.175 0-.32.03-.436.089a.821.821 0 0 0-.424.497 1.198 1.198 0 0 0-.049.262h1.78c-.05-.278-.142-.488-.273-.632-.131-.144-.33-.216-.597-.216z"/></g><g><path fill="#231f20" d="M29.803 9.718a1.133 1.133 0 0 1-.505.467 1.678 1.678 0 0 1-.705.142c-.299 0-.56-.057-.786-.173a1.567 1.567 0 0 1-.559-.47A2.108 2.108 0 0 1 26.916 9a2.87 2.87 0 0 1 0-1.576c.074-.25.185-.468.332-.66.146-.188.33-.342.551-.457.22-.116.478-.174.771-.174.236 0 .461.05.673.15.214.1.382.248.506.444h.015V4.724h1.095v5.503h-1.04v-.51zm-.205-2.37a.882.882 0 0 0-.289-.281.846.846 0 0 0-.447-.108.887.887 0 0 0-.454.108.857.857 0 0 0-.298.285 1.268 1.268 0 0 0-.16.405 2.152 2.152 0 0 0 .002.936c.037.155.095.292.174.412.08.122.18.219.301.293a.81.81 0 0 0 .435.112c.18 0 .33-.035.451-.108a.8.8 0 0 0 .29-.29c.071-.12.123-.257.153-.411a2.414 2.414 0 0 0 0-.952 1.141 1.141 0 0 0-.158-.401z"/></g><g><path fill="#231f20" d="M3.095 52.537c-.056-.385-.425-.678-.849-.678-.763 0-1.051.651-1.051 1.33 0 .645.288 1.297 1.052 1.297.52 0 .816-.359.879-.869h.827c-.087.966-.755 1.585-1.706 1.585-1.2 0-1.904-.895-1.904-2.013 0-1.151.705-2.047 1.904-2.047.853 0 1.569.499 1.673 1.395z"/></g><g><path fill="#231f20" d="M7.186 53.71c0 .89-.57 1.476-1.455 1.476-.88 0-1.449-.586-1.449-1.476 0-.897.57-1.481 1.45-1.481.884 0 1.454.584 1.454 1.48zm-.772 0c0-.451-.157-.901-.683-.901-.52 0-.679.45-.679.9 0 .445.158.896.68.896.525 0 .682-.451.682-.895z"/></g><g><path fill="#231f20" d="M7.662 52.299h.732v.52h.01a.992.992 0 0 1 .896-.595c.054 0 .12.01.17.026v.716a1.45 1.45 0 0 0-.278-.026c-.564 0-.76.407-.76.9v1.266h-.77z"/></g><g><path fill="#231f20" d="M9.77 52.304h.733v.358h.011c.184-.299.488-.434.835-.434.88 0 1.275.711 1.275 1.508 0 .75-.411 1.45-1.231 1.45-.337 0-.656-.147-.841-.424h-.011v1.336H9.77zm1.411.505c-.505 0-.667.45-.667.906s.174.89.673.89c.505 0 .667-.434.667-.89 0-.446-.179-.906-.673-.906z"/></g><g><path fill="#231f20" d="M15.772 53.71c0 .89-.57 1.476-1.456 1.476-.879 0-1.449-.586-1.449-1.476 0-.897.57-1.481 1.45-1.481.884 0 1.455.584 1.455 1.48zm-.772 0c0-.451-.157-.901-.684-.901-.52 0-.678.45-.678.9 0 .445.158.896.678.896.527 0 .684-.451.684-.895z"/></g><g><path fill="#231f20" d="M16.247 52.299h.733v.52h.011a.992.992 0 0 1 .895-.595c.054 0 .12.01.17.026v.716a1.441 1.441 0 0 0-.278-.026c-.565 0-.76.407-.76.9v1.266h-.77z"/></g><g><path fill="#231f20" d="M18.282 53.167c.044-.723.689-.939 1.319-.939.559 0 1.232.124 1.232.797v1.461c0 .255.027.51.099.624h-.783a1.25 1.25 0 0 1-.055-.272c-.243.255-.601.348-.943.348-.533 0-.955-.266-.955-.842 0-.634.478-.786.955-.852.472-.07.912-.054.912-.369 0-.33-.23-.38-.5-.38-.293 0-.483.12-.51.424zm1.78.57c-.13.114-.401.118-.64.163-.24.047-.456.13-.456.412 0 .288.223.357.473.357.6 0 .624-.476.624-.645z"/></g><g><path fill="#231f20" d="M22.39 52.304h.565v.516h-.565v1.388c0 .261.066.326.326.326.08 0 .157-.005.239-.021v.603c-.131.021-.3.026-.451.026-.471 0-.884-.109-.884-.668V52.82h-.467v-.516h.467v-.842h.77z"/></g><g><path fill="#231f20" d="M24.307 51.234h-.771v.635h.771zm-.771 3.876h.771v-2.806h-.771z"/></g><g><path fill="#231f20" d="M27.729 53.71c0 .89-.571 1.476-1.456 1.476-.88 0-1.448-.586-1.448-1.476 0-.897.569-1.481 1.448-1.481.885 0 1.456.584 1.456 1.48zm-.773 0c0-.451-.156-.901-.684-.901-.52 0-.678.45-.678.9 0 .445.157.896.678.896.528 0 .684-.451.684-.895z"/></g><g><path fill="#231f20" d="M28.227 52.304h.733v.391h.016c.196-.315.532-.467.858-.467.819 0 1.025.461 1.025 1.156v1.726h-.77v-1.585c0-.461-.136-.69-.494-.69-.418 0-.597.234-.597.804v1.471h-.772z"/></g></g></svg>