<svg xmlns="http://www.w3.org/2000/svg" width="124.5" height="150.5" viewBox="0 0 249 301"><g><g><path fill="#0062a0" d="M28.537 96.095C28.537 43.103 71.493.15 124.476.15c52.99 0 95.949 42.953 95.949 95.945 0 52.985-42.958 95.939-95.95 95.939-52.982 0-95.938-42.954-95.938-95.94z"/></g><g><path fill="#248ecd" d="M29.255 84.343c4.899 9.837 10.345 19.374 15.432 29.175 2.83 5.452 9.647 15.515 8.192 22.084-.746 3.365-5.601 4.918-5.313 8.549.277 3.522 6.111 6.773 8.491 8.568 4.317 3.254 8.355 6.877 12.36 10.504 5.264 4.765 7.684 10.316 8.966 16.47a95.342 95.342 0 0 0 24.023 9.542c5.623-5.853 11.072-11.59 17.898-16.295 3.714-2.561 7.99-5.247 10.078-9.386 2.783-5.517-.328-8.864-1.967-13.604-1.474-4.253-2.943-5.878-7.56-8.47-7.801-4.377-16.997-5.967-25.541-8.292-7.741-2.108-15.64-4.13-23.472-5.868-4.544-1.01-10.875-1.4-14.094-5.152-4.761-5.554-8.26-15.32-10.157-22.204-.88-3.196-4.22-14.92-.044-17.542 2.066-1.298 7.16.992 8.538-.035 1.31-.976.65-3.948.655-5.46.027-9.673 6.459-15.108 14.682-19.394 6.825-3.558 14.34-5.618 21.602-8.074 2.69-.91 7.398-1.697 9.568-3.75 4.982-4.711 1.736-18.305 1.704-24.918-.047-9.74-10.571-9.038-18.19-12.216C55.164 22.069 33.39 50.48 29.256 84.343z"/></g><g><path fill="#248ecd" d="M161.39 22.217c7.554 5.382 21.63 17.15 14.337 27.325-2.073 2.894-6.404 7.37-5.503 11.46 1.785 8.106 11.093 4.132 15.4 2.105 3.143-1.48 6.885-2.586 10.423-2.142 1.837.23 7.652 1.591 8.57 3.41 2.028 4.042-7.642 8.051-9.879 9.648-6.25 4.46-11.814 9.456-15.252 16.402-1.912 3.861-7.692 14.723-5.238 19.411 1.45 2.772 7.951 3.296 10.483 4.083 4.48 1.391 9.033 2.964 13.38 4.731 3.222 1.312 12.38 4.066 14.127 7.461 2.484 4.818-7.996 8.88-10.76 11.47-4.87 4.563-13.598 18.985-9.816 26.997 17.748-17.41 28.763-41.659 28.763-68.484 0-44.186-29.87-81.386-70.516-92.532.7 7.565 5.218 14.193 11.48 18.655z"/></g><g><path fill="#fff" d="M106.383 170.759V54.842L92.43 54.71l.117-18.772 18.07-16.096h33.216v150.916z"/></g><g><path fill="#fff" d="M191.149 70.144h7.813l-33.559 45.97h-7.815z"/></g><g><path fill="#fff" d="M153.214 81.142c0-5.95 4.842-10.792 10.792-10.792 5.949 0 10.794 4.841 10.794 10.792 0 5.95-4.845 10.791-10.794 10.791-5.95 0-10.792-4.84-10.792-10.79zm6.027 0a4.77 4.77 0 0 0 4.765 4.763 4.77 4.77 0 0 0 4.764-4.763 4.77 4.77 0 0 0-4.764-4.764 4.77 4.77 0 0 0-4.765 4.764z"/></g><g><path fill="#fff" d="M181.347 105.303c0-5.951 4.84-10.792 10.791-10.792 5.95 0 10.79 4.84 10.79 10.792 0 5.95-4.84 10.792-10.79 10.792-5.952 0-10.79-4.842-10.79-10.792zm6.027 0a4.77 4.77 0 0 0 4.764 4.763 4.769 4.769 0 0 0 4.764-4.763 4.77 4.77 0 0 0-4.764-4.764 4.77 4.77 0 0 0-4.764 4.764z"/></g><g><path fill="#248ecd" d="M.356 210.976h31.63v9.602H11.313v6.72h18.694v9.094H11.313v14.12H.356z"/></g><g><path fill="#248ecd" d="M35.882 230.744c0-11.35 9.15-20.559 21.349-20.559 12.196 0 21.237 9.091 21.237 20.445v.114c0 11.352-9.151 20.557-21.35 20.557-12.2 0-21.236-9.094-21.236-20.444zm31.4 0c0-5.706-4.122-10.676-10.164-10.676-5.988 0-9.995 4.858-9.995 10.562v.114c0 5.704 4.12 10.674 10.108 10.674 6.042 0 10.05-4.858 10.05-10.56z"/></g><g><path fill="#248ecd" d="M84.451 210.976h18.696c6.044 0 10.222 1.581 12.877 4.292 2.315 2.26 3.503 5.31 3.503 9.206v.114c0 6.042-3.22 10.052-8.133 12.142l9.431 13.781h-12.654l-7.962-11.973h-4.8v11.973H84.45zm18.19 18.977c3.726 0 5.871-1.807 5.871-4.688v-.113c0-3.107-2.259-4.689-5.93-4.689h-7.174v9.49z"/></g><g><path fill="#248ecd" d="M145.563 220.579H133.7v-9.602h34.679v9.602h-11.86v29.933h-10.957z"/></g><g><path fill="#248ecd" d="M173.463 210.976h10.957v14.795h14.063v-14.795h10.956v39.535h-10.957v-15.025H184.42v15.025h-10.957z"/></g><g><path fill="#248ecd" d="M216.723 210.976h31.797v9.317h-20.95v5.988h18.976v8.641H227.57v6.27h21.235v9.32h-32.082z"/></g><g><path fill="#0062a0" d="M.081 258.387h18.151c10.71 0 17.608 5.505 17.608 14.883v.121c0 9.985-7.684 15.247-18.214 15.247H11.82v12.101H.081zm17.304 21.055c4.174 0 6.715-2.178 6.715-5.506v-.119c0-3.63-2.54-5.568-6.775-5.568H11.82v11.193z"/></g><g><path fill="#0062a0" d="M40.797 258.388h11.74v32.065h20.51v10.287h-32.25z"/></g><g><path fill="#0062a0" d="M92.71 258.085h11.316l18.028 42.654H109.47l-3.087-7.561H90.048l-3.025 7.561H74.68zm10.286 25.954l-4.72-12.038-4.781 12.038z"/></g><g><path fill="#0062a0" d="M126.167 258.388h10.951l17.427 22.387v-22.387h11.614v42.352h-10.285l-18.09-23.232v23.232h-11.617z"/></g><g><path fill="#0062a0" d="M173.66 258.388h34.064v9.984h-22.445v6.412h20.325v9.255h-20.325v6.717h22.749v9.984H173.66z"/></g><g><path fill="#0062a0" d="M224.362 268.671h-12.706v-10.284h37.149v10.284h-12.703v32.068h-11.74z"/></g><g><path fill="#0062a0" d="M238.756 297c0-2.019 1.636-3.719 3.697-3.719a3.687 3.687 0 0 1 3.698 3.697V297c0 2.018-1.636 3.72-3.698 3.72a3.686 3.686 0 0 1-3.697-3.699zm6.774-.02c0-1.699-1.318-3.098-3.077-3.098-1.738 0-3.077 1.42-3.077 3.118v.02c0 1.698 1.319 3.097 3.077 3.097 1.739 0 3.077-1.419 3.077-3.117zm-4.595-1.879h1.758c.899 0 1.539.38 1.539 1.24 0 .578-.3.978-.76 1.16l.879 1.277h-1.198l-.74-1.099h-.44v1.1h-1.038zm1.698 1.76c.36 0 .56-.18.56-.44 0-.28-.2-.44-.56-.44h-.66v.88z"/></g></g></svg>