<svg xmlns="http://www.w3.org/2000/svg" width="183" height="69" viewBox="0 0 366 138"><g><g><path d="M334.397 119.016h28.015v6.83h-28.015zm-22.024-50.982l16.983-47.19 36.589 13.033-3.762 10.449-24.526-8.74-2.891 8.024 22.226 7.919-3.47 9.644-22.224-7.92-3.104 8.626 24.593 8.765-3.758 10.449-36.653-13.06zM104.4 107.38v30.099h-6.57v-19.737h-.085l-10.462 19.737h-2.677l-10.461-19.737h-.083v19.737h-6.614v-30.1h7.65l10.759 20.984h.09L96.79 107.38zm33.396 0l13.65 30.099h-7.173l-1.986-4.644h-15.17l-1.985 4.644h-7.13l13.61-30.1zm-3.11 7.699l-5.101 11.992h10.283l-5.1-11.992zm49.384 11.266l7.387 11.134h-7.517l-7.002-10.88h-5.363v10.88h-6.611v-30.1h15.946c6.614 0 10.802 3.743 10.802 9.59 0 4.86-2.852 8.256-7.648 9.288v.085zm-3.803-5.55c3.023 0 4.838-1.375 4.838-3.915 0-2.534-1.553-3.74-4.924-3.74h-8.6v7.655zm45.41-13.415h9.034l-12.531 12.899 12.655 17.2h-8.033l-8.944-12.86h-.09l-4.582 4.906v7.954h-6.611v-30.1h6.61v13.244h.087l12.403-13.24zm45.587 0v5.76h-16.251v6.325h14.692v5.458h-14.692v6.795h16.207v5.76H248.4V107.38zm41.653 0v5.805h-10.761v24.294h-6.614v-24.294h-10.757v-5.805zM9.07 125.842v-6.823h28.014v6.827H9.067zM-.071 40.959l44.718-17.55 4.096 10.328-16.47 6.46 14.392 36.31-11.916 4.679-14.393-36.31-16.333 6.41zM70.013 15.77l12.518-2.712L86.54 31.4l20.822-4.51-4.01-18.34 12.52-2.707 10.71 48.995-12.517 2.709-4.211-19.247-20.818 4.507 4.207 19.249-12.521 2.712L70.01 15.77zm144.783 35.28l3.607-50.013 12.784.91-3.602 50.014-12.782-.914zM252.41 3.368l13.766 2.705 8.1 37.209.139.032 21.7-31.363 13.769 2.706-32.21 44.77-12.568-2.468-12.702-53.591zM193.886 49.74l-14.233.742L168.21 34.44l-8.34.439.879 16.595-12.794.668-2.65-50.064L172.33.662c11.143-.585 19.087 5.169 19.647 15.68.42 8.013-3.813 13.83-10.815 16.348l.007.07 12.718 16.977zM172.45 23.32c4.312-.226 6.935-2.444 6.73-6.305-.212-4.007-2.75-5.665-7.351-5.426l-13.154.69.624 11.728z"/></g></g></svg>