<svg xmlns="http://www.w3.org/2000/svg" width="104" height="144" viewBox="0 0 208 288"><g><g><path fill="#d1d1d3" d="M18.212 287.46c-9.855.113-17.935-7.787-18.046-17.64V17.81C.287 7.964 8.364.075 18.212.188h171.697c9.849-.113 17.925 7.776 18.047 17.624V269.78c-.122 9.849-8.198 17.737-18.047 17.624z"/></g><g><path fill="#fff" d="M199.923 269.78c-.111 5.408-4.583 9.703-9.992 9.594l-.022-.001H18.212c-5.407.123-9.891-4.162-10.013-9.57l-.001-.021V17.81c.11-5.408 4.583-9.703 9.991-9.592h171.72c5.407-.124 9.891 4.16 10.013 9.568l.001.023z"/></g><g><path fill="#93d73b" d="M104.244 198.384c48.112.03 87.138-38.947 87.17-87.058.03-48.112-38.949-87.14-87.06-87.17-48.112-.03-87.139 38.948-87.169 87.06v.11c.08 48.047 39.012 86.976 87.06 87.058z"/></g><g><path d="M118.053 192.351l-28.462.404L73.084 88.217s6.18-12.837 30.06-12.691c23.877.147 31.086 13.132 31.086 13.132z"/></g><g><path d="M119.924 46.33c-.01 9.338-7.589 16.9-16.928 16.89-9.338-.01-16.9-7.589-16.89-16.928.01-9.332 7.577-16.89 16.91-16.89 9.338 0 16.908 7.57 16.908 16.908z"/></g><g><path d="M102.868 66.209c-32.076 0-58.063 21.788-58.063 48.747 0 19.605 13.772 36.515 33.616 44.254-11.993-6.658-19.917-18.102-19.917-31.177 0-20.578 19.843-37.267 44.327-37.267 24.485 0 44.33 16.689 44.33 37.267 0 13.003-7.906 24.447-19.9 31.177 19.842-7.74 33.616-24.65 33.616-44.253 0-26.96-25.988-48.748-58.009-48.748z"/></g><g><path d="M152.092 152.938c0 23.842-21.714 45.318-48.435 45.318-26.721 0-48.472-21.476-48.472-45.318 0-23.841 21.696-34.846 48.435-34.846 26.74 0 48.472 11.023 48.472 34.846z"/></g><g><path fill="#fff" d="M140.74 139.036c0 7.208-16.597 13.058-37.083 13.058-20.485 0-37.083-5.85-37.083-13.058s16.506-13.039 37.083-13.039c20.578 0 37.083 5.831 37.083 13.04z"/></g><g><path d="M140.319 144.648c0 7.116-16.506 12.838-36.68 12.838-20.172 0-36.678-5.776-36.678-12.838 0-7.06 16.504-12.838 36.678-12.838 20.175 0 36.68 5.704 36.68 12.838z"/></g><g><path fill="#fff" d="M142.024 149.197c0 7.445-17.184 13.497-38.367 13.497-21.182 0-38.367-6.052-38.367-13.497 0-7.447 17.185-13.516 38.367-13.516 21.183 0 38.367 6.052 38.367 13.516z"/></g><g><path d="M24.815 231.542c0 .623-.11.734-.715.734h-3.32c-.586 0-.733-.11-.733-.734v-22.704c0-.643.147-.752.733-.752h11.59c.698 0 .882 0 .882.385a1.43 1.43 0 0 1-.11.495l-.66 2.366a.734.734 0 0 1-.825.568h-6.841v5.833h5.998c.64 0 .75.11.75.733v2.33c0 .642-.145.751-.75.751h-5.998v9.995z"/></g><g><path d="M37.891 231.542c-.147.623-.202.734-.733.734H33.49c-.459 0-.66 0-.698-.312.022-.205.065-.409.13-.605l6.968-22.742c.128-.458.165-.532.77-.532h3.668c.532 0 .605.147.752.57l6.915 22.777c.065.184.114.375.146.568 0 .203-.349.276-.715.276h-3.85c-.368 0-.423-.11-.606-.734l-1.56-5.777h-6.07zm5.19-14.947c-.312-1.376-.605-3.447-.77-4.934a39.491 39.491 0 0 1-.88 4.934l-1.56 6.07h4.658z"/></g><g><path d="M65.107 231.542c0 .623-.147.734-.75.734h-8.64c-.606 0-.752-.11-.752-.734v-1.834c0-.642.147-.75.752-.75h1.944v-17.406h-1.944c-.606 0-.752-.112-.752-.752v-1.834c0-.642.147-.752.752-.752h8.64c.603 0 .75.111.75.752v1.834c0 .641-.147.752-.75.752h-1.835v17.405h1.834c.604 0 .751.11.751.751z"/></g><g><path d="M72.976 232.277h-3.283c-.606 0-.752-.111-.752-.734v-22.704c0-.643.147-.752.752-.752h5.667c2.714 0 8.216.182 8.216 6.822a6.476 6.476 0 0 1-4.016 6.53l5.263 9.426c.145.2.239.434.276.678 0 .202-.35.312-.697.423l-2.971.843a2.275 2.275 0 0 1-.495 0c-.184 0-.46-.422-.808-1.1l-4.768-9.427h-1.651v9.26c0 .624-.128.735-.733.735zm1.65-13.7c2.31 0 4.236-.35 4.236-3.67 0-3.318-2-3.19-3.832-3.19h-1.321v6.787z"/></g><g><path d="M106.298 231.542c0 .623-.146.734-.733.734h-3.283c-.605 0-.752-.11-.752-.734v-19.22h-4.622c-.495 0-.605 0-.605-.587v-3.044c0-.495.111-.605.605-.605h14.543c.716 0 .882 0 .882.385.03.163.03.332 0 .495l-.752 2.787a.68.68 0 0 1-.807.57h-4.475v19.22z"/></g><g><path d="M119.888 231.543c0 .623-.147.734-.752.734h-3.283c-.605 0-.733-.111-.733-.734v-22.704c0-.643.128-.752.733-.752h5.722c2.715 0 8.235.182 8.235 6.822a6.494 6.494 0 0 1-4.035 6.53l5.264 9.426c.15.2.25.432.294.678 0 .202-.368.312-.716.423l-2.971.843a2.276 2.276 0 0 1-.495 0c-.165 0-.46-.422-.807-1.1l-4.77-9.5h-1.686zm.916-12.966c2.292 0 4.237-.35 4.237-3.67 0-3.318-2.017-3.19-3.851-3.19h-1.302v6.787z"/></g><g><path d="M138.631 231.542c-.129.623-.202.734-.734.734h-3.576c-.458 0-.66 0-.697-.312.028-.207.077-.41.148-.605l6.95-22.742c.147-.458.183-.532.771-.532h3.668c.531 0 .587.147.734.57l6.914 22.777c.065.184.115.375.146.568 0 .203-.348.276-.696.276h-3.943c-.349 0-.421-.11-.605-.734l-1.542-5.777h-6.088zm5.209-14.947c-.33-1.376-.605-3.447-.789-4.934a39.542 39.542 0 0 1-.807 4.934l-1.558 6.07h4.658z"/></g><g><path d="M162.729 208.085c6.749 0 10.288 2.182 10.288 11.976 0 10.142-4.107 12.215-10.397 12.215h-5.392c-.606 0-.752-.147-.752-.734v-22.704c0-.643.147-.752.788-.752h5.465zm-.201 20.375c3.979 0 5.503-1.724 5.503-8.472 0-6.328-1.523-8.089-5.503-8.089h-1.283v16.507z"/></g><g><path d="M190.093 231.542c0 .623-.11.734-.715.734h-11.61c-.604 0-.751-.11-.751-.734v-22.704c0-.643.148-.752.752-.752h11.572c.715 0 .88 0 .88.385.022.164.022.33 0 .495l-.678 2.366a.714.714 0 0 1-.807.568h-7.005v5.833h5.997c.642 0 .75.11.75.733v2.33c0 .642-.146.751-.75.751h-5.997v6.914h7.556c.64 0 .75.111.75.752z"/></g><g><path d="M45.337 260.097c.104.16.167.342.184.532 0 .605-2.403 2.256-5.851 2.256-6.199 0-9.171-4.017-9.171-12.49 0-8.124 3.026-12.837 9.171-12.837 2.641 0 5.776 1.944 5.776 2.604a.786.786 0 0 1-.165.532l-1.32 1.981c-.129.22-.276.348-.423.348-.586 0-1.833-1.65-3.668-1.65-3.044 0-4.383 2.073-4.383 8.161 0 6.09.751 9.593 4.383 9.593 1.981 0 3.246-1.302 3.961-1.302.129 0 .239.11.386.348z"/></g><g><path d="M61.97 261.546c0 .642-.11.75-.696.75H49.683c-.605 0-.733-.11-.733-.75V238.84c0-.642.128-.751.733-.751h11.554c.697 0 .88 0 .88.404a1.44 1.44 0 0 1-.11.477l-.678 2.384a.696.696 0 0 1-.807.549H53.68v5.869h5.997c.642 0 .733.11.733.752v2.329c0 .623-.128.733-.733.733H53.68v6.933h7.556c.624 0 .734 0 .734.733v2.293z"/></g><g><path d="M70.48 261.546c0 .642-.146.752-.75.752h-3.284c-.587 0-.733-.111-.733-.752v-22.704c0-.642.147-.752.733-.752h5.722c2.732 0 8.234.183 8.234 6.823a6.438 6.438 0 0 1-4.034 6.529l5.263 9.445c.15.193.25.42.294.66 0 .22-.366.33-.715.42l-2.953.845a2.409 2.409 0 0 1-.495 0c-.184 0-.477-.421-.825-1.081l-4.77-9.5h-1.686zm.918-12.947c2.292 0 4.236-.367 4.236-3.668 0-3.302-2.017-3.174-3.851-3.174H70.48v6.786z"/></g><g><path d="M92.984 261.546c0 .642-.147.75-.752.75h-3.283c-.606 0-.733-.11-.733-.75V242.27h-4.64c-.495 0-.587-.111-.587-.605v-3.045c0-.494.092-.604.587-.604h14.562c.697 0 .88 0 .88.403a1.44 1.44 0 0 1-.11.478l-.734 2.805a.695.695 0 0 1-.804.569h-4.386v19.274z"/></g><g><path d="M111.268 261.546c0 .642-.148.75-.752.75h-8.656c-.587 0-.734-.11-.734-.75v-1.834c0-.643.147-.734.734-.734h1.944v-17.423h-1.944c-.587 0-.734 0-.734-.734v-1.834c0-.641.147-.751.734-.751h8.656c.605 0 .752.11.752.75v1.835c0 .642-.148.734-.752.734h-1.944v17.423h1.944c.605 0 .752.09.752.734z"/></g><g><path d="M119.98 261.546c0 .642-.111.75-.715.75h-3.32c-.586 0-.733-.11-.733-.75V238.84c0-.642.147-.751.733-.751h11.59c.697 0 .882 0 .882.404-.01.163-.047.324-.111.477l-.66 2.384a.715.715 0 0 1-.825.549h-6.841v5.869h5.999c.64 0 .75.11.75.752v2.329c0 .623-.146.733-.75.733h-6v9.959z"/></g><g><path d="M140.942 261.546c0 .642-.147.75-.734.75h-8.657c-.605 0-.75-.11-.75-.75v-1.834c0-.643.145-.734.75-.734h1.944v-17.423h-1.944c-.605 0-.75 0-.75-.734v-1.834c0-.641.145-.751.75-.751h8.657c.587 0 .734.11.734.75v1.835c0 .642-.147.734-.734.734h-1.944v17.423h1.944c.587 0 .734.09.734.734z"/></g><g><path d="M157.888 261.546c0 .642-.11.75-.698.75h-11.72c-.603 0-.732-.11-.732-.75V238.84c0-.642.129-.751.733-.751h11.59c.698 0 .882 0 .882.404-.01.163-.047.324-.111.477l-.66 2.384a.715.715 0 0 1-.825.549h-6.84v5.869h5.997c.642 0 .75.11.75.752v2.329c0 .623-.146.733-.75.733h-5.997v6.933h7.556c.623 0 .734 0 .734.733z"/></g><g><path d="M167.901 238.09c6.731 0 10.27 2.2 10.27 11.976 0 10.142-4.108 12.232-10.38 12.232h-5.503c-.606 0-.733-.147-.733-.751v-22.705c0-.642.127-.751.77-.751h5.576zm-.22 20.394c3.998 0 5.502-1.834 5.502-8.491 0-6.31-1.504-8.09-5.502-8.09h-1.266v16.508z"/></g><g><path d="M181.4 238.787h1.227v-.697h-3.136v.697h1.211v4.089h.697zm6.382-.661h-1.302l-.972 3.76-.99-3.76h-1.284v4.788h.715v-4.31l1.118 4.31h.863l1.117-4.31v4.272h.697z"/></g></g></svg>