<svg xmlns="http://www.w3.org/2000/svg" width="82.5" height="138.5" viewBox="0 0 165 277"><g><g><path fill="#231f20" d="M48.54 79.712h33.836c8.236 0 19.08 0 24.697 3.396 6.142 3.659 10.971 10.321 10.971 19.47 0 9.928-5.219 17.375-13.845 20.9v.262c11.503 2.35 17.77 10.975 17.77 22.476 0 13.711-9.802 26.779-28.352 26.779H48.54zm12.406 40.11h24.836c14.104 0 19.86-5.095 19.86-14.897 0-12.935-9.143-14.761-19.86-14.761H60.946zm0 42.72h31.105c10.71 0 17.508-6.53 17.508-16.721 0-12.152-9.8-15.549-20.258-15.549H60.946z"/></g><g><path fill="#231f20" d="M82.739 197.351c-39.185 0-70.951-31.77-70.951-70.959 0-39.186 31.766-70.948 70.95-70.948 39.2 0 70.965 31.762 70.965 70.948 0 39.19-31.764 70.96-70.964 70.96zM1.012 126.353c0 45.137 36.594 81.732 81.727 81.732 45.148 0 81.743-36.596 81.743-81.733 0-45.139-36.595-81.73-81.743-81.73-45.133 0-81.727 36.591-81.727 81.73z"/></g><g><path fill="#231f20" d="M164.312 236.048H1.18v-10.723h163.132z"/></g><g><path fill="#231f20" d="M158.284 213.518v-1.81h1.172c.152 0 .296.015.449.023.157.03.28.068.4.138a.637.637 0 0 1 .287.26c.076.1.11.26.11.448 0 .233-.034.4-.117.531a.815.815 0 0 1-.337.283 1.339 1.339 0 0 1-.47.107c-.178.01-.368.02-.57.02zm-.896-2.528v5.686h.896v-2.45h.935l1.556 2.45h.942l-1.63-2.502a2.059 2.059 0 0 0 1.08-.426c.279-.25.43-.616.43-1.133 0-.548-.167-.95-.495-1.227-.327-.263-.822-.398-1.502-.398zm-1.798 4.477a4.228 4.228 0 0 1-.308-1.64c0-.598.098-1.13.308-1.636.19-.51.472-.943.838-1.316a3.971 3.971 0 0 1 1.278-.868 4.062 4.062 0 0 1 1.584-.32c.574 0 1.104.115 1.582.32.487.215.91.505 1.278.868.349.373.637.807.837 1.316a4.18 4.18 0 0 1 .313 1.636 4.23 4.23 0 0 1-.313 1.64c-.2.517-.488.96-.837 1.333a4.14 4.14 0 0 1-1.278.881c-.478.21-1.008.306-1.582.306a3.966 3.966 0 0 1-1.584-.305 3.896 3.896 0 0 1-1.278-.881 3.718 3.718 0 0 1-.838-1.333zm-.808-3.573c-.271.593-.381 1.238-.381 1.932 0 .701.11 1.341.38 1.93a4.923 4.923 0 0 0 1.059 1.55c.444.451.97.78 1.567 1.031a4.967 4.967 0 0 0 1.883.36c.679 0 1.307-.119 1.91-.36a4.651 4.651 0 0 0 1.53-1.03c.443-.44.809-.947 1.059-1.552.269-.588.393-1.228.393-1.929 0-.694-.124-1.339-.393-1.932-.25-.587-.616-1.085-1.058-1.53a4.86 4.86 0 0 0-1.531-1.02 4.882 4.882 0 0 0-1.91-.366c-.654 0-1.294.115-1.883.366-.596.254-1.123.581-1.567 1.02a5.119 5.119 0 0 0-1.058 1.53z"/></g><g><path fill="#231f20" d="M20.95 8.684a6.567 6.567 0 0 0-1.446-1.631 6.694 6.694 0 0 0-1.963-1.096 6.784 6.784 0 0 0-2.294-.392c-1.458 0-2.698.282-3.717.847a7.032 7.032 0 0 0-2.48 2.272c-.633.95-1.094 2.03-1.383 3.244a16.053 16.053 0 0 0-.434 3.76c0 1.238.143 2.444.434 3.614a9.739 9.739 0 0 0 1.384 3.16 7.1 7.1 0 0 0 2.479 2.253c1.019.564 2.259.846 3.717.846 1.985 0 3.534-.605 4.649-1.816 1.115-1.213 1.798-2.81 2.044-4.792h6.28c-.165 1.844-.591 3.51-1.28 4.997-.69 1.488-1.598 2.756-2.726 3.8a11.544 11.544 0 0 1-3.967 2.398c-1.515.55-3.181.827-5 .827-2.26 0-4.29-.393-6.094-1.18-1.802-.783-3.327-1.864-4.564-3.242-1.238-1.376-2.191-2.994-2.851-4.853-.663-1.86-.992-3.864-.992-6.012 0-2.204.329-4.25.992-6.137.66-1.887 1.613-3.532 2.85-4.936 1.238-1.406 2.763-2.506 4.565-3.306C10.958.51 12.988.11 15.247.11c1.626 0 3.162.236 4.608.702a12.481 12.481 0 0 1 3.883 2.047 11.038 11.038 0 0 1 2.829 3.325c.746 1.32 1.214 2.837 1.406 4.544h-6.28a5.34 5.34 0 0 0-.742-2.045z"/></g><g><path fill="#231f20" d="M40.48 26.47c1.185 0 2.204-.296 3.058-.89.853-.59 1.375-1.216 1.57-1.878h5.165c-.828 2.562-2.095 4.395-3.802 5.496-1.708 1.1-3.774 1.65-6.198 1.65-1.68 0-3.195-.266-4.544-.803-1.35-.537-2.492-1.301-3.43-2.295-.936-.99-1.66-2.175-2.17-3.551-.51-1.377-.764-2.893-.764-4.545 0-1.597.263-3.086.786-4.463a10.462 10.462 0 0 1 2.23-3.573 10.512 10.512 0 0 1 3.452-2.375c1.335-.58 2.814-.868 4.44-.868 1.818 0 3.402.35 4.75 1.053 1.35.703 2.46 1.646 3.327 2.83.868 1.185 1.495 2.535 1.88 4.049.384 1.515.523 3.1.412 4.75h-15.41c.083 1.902.564 3.279 1.448 4.134.879.852 2.148 1.279 3.8 1.279zm-.372-13.675c-.936 0-1.715.159-2.334.475-.62.317-1.116.709-1.488 1.177-.372.47-.633.965-.785 1.489-.151.524-.242.99-.268 1.404h9.545c-.276-1.49-.766-2.617-1.467-3.388-.703-.77-1.773-1.157-3.203-1.157z"/></g><g><path fill="#231f20" d="M58.864 8.953v3.966h.083a7.25 7.25 0 0 1 1.116-1.839 7.332 7.332 0 0 1 1.611-1.446 7.914 7.914 0 0 1 1.943-.93 7.009 7.009 0 0 1 2.148-.329c.385 0 .81.07 1.281.206v5.452a12.102 12.102 0 0 0-2.108-.205c-1.075 0-1.983.18-2.727.538a4.702 4.702 0 0 0-1.798 1.465 5.894 5.894 0 0 0-.97 2.17 11.86 11.86 0 0 0-.288 2.684v9.627h-5.869V8.953z"/></g><g><path fill="#231f20" d="M82.747 8.953v3.923h-4.3v10.577c0 .994.167 1.654.498 1.984.331.331.992.496 1.981.496.331 0 .65-.014.951-.04.303-.028.592-.069.87-.125v4.544c-.496.084-1.05.138-1.655.165a38.39 38.39 0 0 1-1.777.043 17.01 17.01 0 0 1-2.583-.187c-.812-.123-1.526-.363-2.146-.723a3.838 3.838 0 0 1-1.469-1.529c-.358-.66-.534-1.528-.534-2.6V12.875H69.03V8.953h3.554V2.548h5.864v6.405z"/></g><g><path fill="#231f20" d="M86.164 5.647h5.867V.812h-5.867zm5.867 3.306h-5.867v21.359h5.867z"/></g><g><path fill="#231f20" d="M94.356 12.876V8.953h3.511V7.3c0-1.899.592-3.456 1.778-4.667 1.182-1.213 2.974-1.82 5.371-1.82.521 0 1.047.022 1.571.063.52.042 1.03.077 1.525.104v4.38a17.926 17.926 0 0 0-2.147-.126c-.799 0-1.37.186-1.713.558-.344.372-.516 1-.516 1.881v1.281h4.047v3.923h-4.047v17.436h-5.869V12.876z"/></g><g><path fill="#231f20" d="M111.76 5.647h5.867V.812h-5.867zm5.867 3.306h-5.867v21.359h5.867z"/></g><g><path fill="#231f20" d="M130.68 26.47c1.186 0 2.204-.296 3.06-.89.853-.59 1.377-1.216 1.57-1.878h5.162c-.824 2.562-2.093 4.395-3.798 5.496-1.713 1.1-3.775 1.65-6.199 1.65-1.682 0-3.197-.266-4.545-.803-1.349-.537-2.493-1.301-3.429-2.295-.936-.99-1.659-2.175-2.17-3.551-.508-1.377-.764-2.893-.764-4.545 0-1.597.264-3.086.785-4.463.525-1.377 1.266-2.568 2.233-3.573a10.468 10.468 0 0 1 3.448-2.375c1.336-.58 2.816-.868 4.442-.868 1.817 0 3.403.35 4.753 1.053a9.503 9.503 0 0 1 3.326 2.83c.867 1.185 1.493 2.535 1.876 4.049.388 1.515.525 3.1.415 4.75h-15.409c.081 1.902.564 3.279 1.444 4.134.883.852 2.151 1.279 3.8 1.279zm-.37-13.675c-.938 0-1.714.159-2.334.475-.622.317-1.116.709-1.488 1.177-.372.47-.634.965-.786 1.489-.15.524-.24.99-.266 1.404h9.54c-.27-1.49-.76-2.617-1.465-3.388-.7-.77-1.77-1.157-3.202-1.157z"/></g><g><path fill="#231f20" d="M158.653 27.585c-.69 1.158-1.592 1.991-2.708 2.5-1.114.51-2.373.764-3.778.764-1.6 0-3.004-.308-4.213-.929a8.436 8.436 0 0 1-2.998-2.52c-.787-1.059-1.378-2.279-1.778-3.656a15.395 15.395 0 0 1-.596-4.297c0-1.432.198-2.816.596-4.152.4-1.336.991-2.513 1.778-3.534a8.902 8.902 0 0 1 2.954-2.458c1.183-.62 2.562-.928 4.133-.928 1.267 0 2.473.267 3.611.804a6.292 6.292 0 0 1 2.71 2.376h.082V.812h5.866v29.5h-5.576v-2.727zm-1.096-12.704a4.773 4.773 0 0 0-1.549-1.509c-.634-.385-1.43-.577-2.397-.577-.962 0-1.776.192-2.436.577a4.583 4.583 0 0 0-1.594 1.53 6.773 6.773 0 0 0-.864 2.168c-.182.813-.267 1.66-.267 2.542 0 .825.093 1.652.284 2.48.195.826.505 1.562.932 2.21a5.113 5.113 0 0 0 1.612 1.568c.647.402 1.426.6 2.333.6.966 0 1.77-.19 2.42-.578a4.39 4.39 0 0 0 1.548-1.55c.384-.647.66-1.384.823-2.21.168-.827.251-1.68.251-2.56 0-.882-.083-1.73-.25-2.543-.164-.812-.446-1.528-.846-2.148z"/></g><g><path fill="#231f20" d="M15.492 257.1c-.296-2.066-2.274-3.636-4.543-3.636-4.099 0-5.644 3.492-5.644 7.131 0 3.458 1.545 6.95 5.644 6.95 2.792 0 4.371-1.92 4.712-4.657h4.43c-.468 5.182-4.048 8.498-9.142 8.498-6.428 0-10.208-4.8-10.208-10.79 0-6.172 3.78-10.974 10.208-10.974 4.569 0 8.408 2.68 8.963 7.478z"/></g><g><path fill="#231f20" d="M37.423 263.386c0 4.772-3.054 7.913-7.797 7.913-4.715 0-7.768-3.141-7.768-7.913 0-4.804 3.053-7.94 7.768-7.94 4.743 0 7.797 3.136 7.797 7.94zm-4.134 0c0-2.415-.842-4.828-3.663-4.828-2.792 0-3.64 2.413-3.64 4.828 0 2.382.848 4.799 3.64 4.799 2.821 0 3.663-2.417 3.663-4.799z"/></g><g><path fill="#231f20" d="M39.972 255.823h3.923v2.792h.06c.753-1.888 2.792-3.197 4.805-3.197.289 0 .635.054.903.143v3.84a7.735 7.735 0 0 0-1.485-.142c-3.03 0-4.08 2.183-4.08 4.826v6.78h-4.126z"/></g><g><path fill="#231f20" d="M51.275 255.85h3.93v1.92h.055c.988-1.6 2.617-2.324 4.477-2.324 4.718 0 6.836 3.807 6.836 8.082 0 4.016-2.206 7.771-6.6 7.771-1.804 0-3.519-.787-4.508-2.27h-.06v7.158h-4.13zm7.562 2.708c-2.705 0-3.577 2.413-3.577 4.858 0 2.44.931 4.77 3.607 4.77 2.71 0 3.577-2.33 3.577-4.77 0-2.39-.96-4.858-3.607-4.858z"/></g><g><path fill="#231f20" d="M83.445 263.386c0 4.772-3.059 7.913-7.804 7.913-4.71 0-7.764-3.141-7.764-7.913 0-4.804 3.054-7.94 7.764-7.94 4.745 0 7.804 3.136 7.804 7.94zm-4.136 0c0-2.415-.845-4.828-3.668-4.828-2.788 0-3.635 2.413-3.635 4.828 0 2.382.847 4.799 3.635 4.799 2.823 0 3.668-2.417 3.668-4.799z"/></g><g><path fill="#231f20" d="M85.993 255.823h3.928v2.792h.062c.751-1.888 2.79-3.197 4.796-3.197.29 0 .642.054.903.143v3.84c-.379-.086-.99-.142-1.483-.142-3.026 0-4.075 2.183-4.075 4.826v6.78h-4.13z"/></g><g><path fill="#231f20" d="M96.894 260.475c.237-3.87 3.696-5.03 7.072-5.03 2.995 0 6.606.666 6.606 4.271v7.83c0 1.37.142 2.732.528 3.347h-4.196c-.14-.47-.263-.962-.294-1.46-1.305 1.371-3.223 1.866-5.057 1.866-2.853 0-5.12-1.426-5.12-4.513 0-3.4 2.565-4.213 5.12-4.564 2.532-.38 4.89-.29 4.89-1.98 0-1.772-1.229-2.035-2.679-2.035-1.573 0-2.588.637-2.737 2.268zm9.55 3.053c-.704.615-2.156.638-3.437.875-1.28.256-2.445.7-2.445 2.21 0 1.545 1.194 1.917 2.536 1.917 3.224 0 3.345-2.555 3.345-3.46z"/></g><g><path fill="#231f20" d="M118.916 255.85h3.028v2.765h-3.028v7.442c0 1.4.352 1.749 1.745 1.749.438 0 .846-.03 1.283-.113v3.229c-.703.117-1.606.144-2.42.144-2.523 0-4.736-.584-4.736-3.58v-8.871h-2.505v-2.764h2.505v-4.511h4.128z"/></g><g><path fill="#231f20" d="M129.192 250.117h-4.133v3.405h4.133zm-4.133 20.776h4.133v-15.042h-4.133z"/></g><g><path fill="#231f20" d="M147.534 263.386c0 4.772-3.06 7.913-7.805 7.913-4.71 0-7.76-3.141-7.76-7.913 0-4.804 3.05-7.94 7.76-7.94 4.745 0 7.805 3.136 7.805 7.94zm-4.137 0c0-2.415-.84-4.828-3.668-4.828-2.79 0-3.636 2.413-3.636 4.828 0 2.382.845 4.799 3.636 4.799 2.828 0 3.668-2.417 3.668-4.799z"/></g><g><path fill="#231f20" d="M150.203 255.85h3.929v2.096h.086c1.048-1.69 2.85-2.5 4.599-2.5 4.39 0 5.495 2.47 5.495 6.195v9.252h-4.13v-8.497c0-2.473-.728-3.697-2.645-3.697-2.244 0-3.204 1.253-3.204 4.31v7.884h-4.13z"/></g></g></svg>