<svg xmlns="http://www.w3.org/2000/svg" width="188.5" height="124.5" viewBox="0 0 377 249"><g><g><path fill="#ea0029" d="M126.543 119.331h25.61v-4.47c0-8.547-5.359-13.846-12.803-13.846-7.045 0-12.807 4.891-12.807 13.846zm50.263 29.231c-.453 21.291-15.785 33.517-37.789 33.517-22.737 0-38.433-14.048-38.433-38.906v-24.681c0-26.592 16.702-40.333 38.836-40.333 21.732 0 37.429 14.295 37.429 40.124v18.547h-50.306v8.955c0 8.347 4.223 12.409 12.877 12.409 8.925 0 12.113-4.345 12.611-9.632zm5.439 33.517V159.77c2.354-.042 2.934.018 6.592-.5 3.452-.48 7.921-2.383 7.921-10.15V79.248h26.161v71.901c0 20.762-9.455 30.93-30.182 30.93zM242.124 79.25h26.161v101.743h-26.161zm-45.363-39.635h71.526v23.503h-71.526zm0-39.633h71.526v23.503h-71.526z"/></g><g><path d="M370.398 230.942c-.198-2.316-1.093-3.456-2.718-3.456-1.693 0-2.552 1.207-2.752 3.69h5.504zm-11.97 2.078c0-5.666 3.483-9.422 9.25-9.422 6.6 0 9.349 3.956 9.349 9.656v1.311H364.96c.198 2.917 1.226 3.821 2.95 3.821 1.625 0 2.255-.672 2.587-1.777h6.432c-.498 3.921-3.646 6.034-9.25 6.034-5.936 0-9.251-3.59-9.251-9.623zm-19.763-8.988h6.5l2.355 7.881c.663 2.245 1.094 4.628 1.094 4.628h.066s.397-2.383 1.062-4.628l2.289-7.88h6.263l-6.498 18.141h-6.662zm-8.487 0h6.497v18.142h-6.497zm0-8.362h6.497v5.666h-6.497zm-6.568 3.367v4.995h3.78v4.46h-3.68v6.572c0 1.811.599 2.616 2.323 2.616.532 0 1.26-.1 1.26-.1v4.594c-1.03.134-2.42.234-3.878.234-3.55 0-6.101-1.443-6.101-6.069v-7.847h-2.355v-4.46h.662c2.19 0 2.52-.435 2.52-3.585v-1.41zm-16.942 15.155c-2.255.135-3.214.335-3.878.771-.563.37-.797.973-.797 1.611 0 1.038.73 1.911 1.957 1.911 1.59 0 2.718-1.41 2.718-3.655zm-10.378-4.56v.001zm8.223-6.002c6.499 0 8.388 2.683 8.388 7.512v5.7c0 .704.333.971 1.327.971v4.36h-2.486c-2.421 0-3.811-.235-4.508-2.147h-.1c-1.227 1.442-2.721 2.314-5.24 2.314-3.813 0-6.266-2.045-6.266-5.499 0-2.146.96-3.589 2.718-4.527 1.923-1.039 4.577-1.106 8.257-1.273v-1.072c0-1.344-.63-2.283-2.024-2.283-1.293 0-2.023.705-2.088 1.946h-6.201c.232-3.823 3.35-6.002 8.223-6.002zm-17.805.402h6.498v18.142h-6.498zm0-8.362h6.498v5.666h-6.498zm-6.564 3.367v4.995h3.779v4.46h-3.681v6.572c0 1.811.597 2.616 2.322 2.616.53 0 1.259-.1 1.259-.1v4.594a31.34 31.34 0 0 1-3.88.234c-3.547 0-6.1-1.443-6.1-6.069v-7.847h-2.354v-4.46h.664c2.188 0 2.518-.435 2.518-3.585v-1.41zm-17.641 4.995h6.5v18.142h-6.5zm0-8.362h6.5v5.666h-6.5zm-9.98 16.21c0-1.277-.1-2.114-.465-2.683-.431-.638-1.127-.938-2.055-.938-1.857 0-2.951 1.173-2.951 3.622v10.293h-6.498v-18.142h6.266v2.954h.066c1.06-1.81 2.685-3.288 5.868-3.288 4.776 0 6.267 2.583 6.267 7.143v11.333h-6.498zm-22.548-15.357h6.73v25.651h-6.73zm-18.545 14.42c-.201-2.314-1.096-3.455-2.721-3.455-1.69 0-2.551 1.208-2.75 3.69h5.503zm-11.971 2.078c0-5.667 3.482-9.422 9.25-9.422 6.599 0 9.35 3.956 9.35 9.656v1.31h-12.066c.196 2.917 1.224 3.822 2.949 3.822 1.624 0 2.254-.673 2.588-1.778h6.429c-.496 3.922-3.646 6.034-9.25 6.034-5.933 0-9.25-3.587-9.25-9.622zm-8.39-1.945c-.13-1.946-.827-3.25-2.551-3.25-2.52 0-2.92 2.814-2.92 5.23 0 2.043.233 5.23 2.92 5.23 1.79 0 2.585-1.309 2.649-3.253h6.367c0 5.03-3.847 7.611-9.017 7.611-6.102 0-9.584-3.555-9.584-9.588 0-6.037 3.714-9.456 9.616-9.456 5.439 0 8.852 2.75 8.919 7.478h-6.398zm-21.186-7.04h6.497v18.138h-6.497zm0-8.283h6.497v5.667h-6.497zm-6.567 8.282h3.78v4.46h-3.68v6.571c0 1.811.597 2.615 2.323 2.615.53 0 1.26-.102 1.26-.102v4.595a31.373 31.373 0 0 1-3.878.234c-3.55 0-6.103-1.44-6.103-6.069v-7.845h-2.355v-4.459h.664c2.19 0 2.52-.437 2.52-3.589v-1.408h5.469zm-15.981 5.331c-.066-.905-.663-1.777-2.054-1.777-1.394 0-1.957.57-1.957 1.375 0 .771.365 1.24 1.759 1.442l3.18.436c3.05.37 5.207 2.012 5.207 5.365 0 4.224-3.414 6.505-8.188 6.505-6.036 0-8.093-2.517-8.323-5.869h5.869c.065 1.174.895 1.877 2.454 1.877 1.358 0 2.288-.503 2.288-1.507 0-.874-.565-1.242-1.825-1.41l-2.917-.369c-3.45-.436-5.438-2.279-5.438-5.633 0-3.117 2.319-6.2 7.892-6.2 5.305 0 7.49 2.48 7.692 5.765zm-24.605 4.995c0 1.275.133 2.013.499 2.582.399.636 1.062.972 2.023.972 1.79 0 2.753-1.308 2.753-3.89v-9.99h6.498v18.14h-6.266v-2.85h-.065c-.998 1.775-2.62 3.15-5.57 3.15-4.778 0-6.367-2.379-6.367-6.638v-11.8h6.497v10.324zm-22.148 2.616h1.492c3.616 0 4.112-1.61 4.112-4.294v-16.158h6.63v17.03c0 6.807-3.746 8.72-9.78 8.72h-2.454zm-26.36-2.784c-2.255.134-3.214.336-3.878.772-.565.37-.796.973-.796 1.61 0 1.038.73 1.91 1.957 1.91 1.589 0 2.718-1.407 2.718-3.654zm10.048-18.44h6.499v26.421h-6.5zm-20.425 13.88c.23-3.82 3.348-6.002 8.222-6.002 6.497 0 8.387 2.684 8.387 7.512v5.7c0 .704.334.972 1.327.972v4.36h-2.487c-2.42 0-3.811-.235-4.506-2.148h-.102c-1.224 1.442-2.718 2.314-5.238 2.314-3.814 0-6.267-2.046-6.267-5.499 0-2.147.96-3.588 2.718-4.525 1.924-1.04 4.576-1.108 8.259-1.275v-1.073c0-1.34-.632-2.279-2.027-2.279-1.29 0-2.021.704-2.087 1.943zm-14.692 4.728c0 1.275.134 2.013.499 2.582.398.636 1.06.972 2.02.972 1.793 0 2.754-1.308 2.754-3.89v-9.99h6.498v18.14h-6.265v-2.85h-.067c-.994 1.775-2.62 3.15-5.57 3.15-4.776 0-6.366-2.379-6.366-6.638v-11.8h6.498v10.324zm-16.314-2.112c0-2.817-1.093-4.258-2.983-4.258-1.79 0-3.25 1.441-3.25 5.23 0 3.453 1.095 5.197 3.183 5.197 2.056 0 3.05-1.643 3.05-3.889zm-.066 16.228v-8.314h-.065c-.631 1.005-2.19 2.48-4.941 2.48-5.24 0-7.758-3.218-7.758-9.253 0-6.47 3.448-9.69 7.89-9.69 2.09 0 4.014.938 5.074 2.647h.065v-2.312h6.234v24.442zM.246 216.525h16.977v4.961H6.977v5.531h9.914v4.83H6.977v5.431h10.61v4.895H.246z"/></g></g></svg>