<svg xmlns="http://www.w3.org/2000/svg" width="152" height="141" viewBox="0 0 304 282"><g><g><path fill="#f26722" d="M174.938 124.804c-2.333-1.304-2.882-5.491-3.637-7.824-.754-2.332-1.715-2.196-2.47-3.5-.412-.48-.618-1.096-.755-1.714l-1.235-.618c-1.235-.686-2.196-1.921-1.647-4.117.344-1.373.344-2.814.07-4.186-.756-.343-1.51-.824-2.059-1.44-.48-.824-.96 0-2.814-3.02-1.853-3.02 3.5-5.56 5.421-7.685 1.166-1.374 1.442-3.294.893-4.943-.686-.275-1.304-.686-1.922-1.098 1.715.893 1.715-.274 1.715-.274s-.686-3.911-2.402-6.107c-1.715-2.196-4.186-4.324-3.98-15.028.274-10.774 15.645-23.812 15.645-23.812.07-.617.206-1.166.55-1.646 4.871-3.705 9.88-.207 8.508-2.196-8.714-8.646-18.595-4.05-27.79-11.254-8.304-6.52-17.43-1.921-17.43-1.921s-2.197-16.057-3.5-19.556c-1.305-3.5-4.048-2.54-6.176 2.606 3.774.96 5.078 15.165 5.078 15.165s-.207 3.569-5.215 2.265c-20.928-5.558-37.74 9.263-35.202 10.087 24.566 7.549 28.546 38.838 28.478 42.065-.069 3.226-2.196 5.558-2.265 6.725-.138 1.579 1.236 1.098 1.166 1.165-.275.343-.754.48-1.235.413 0 0 0 .686-.275 3.02-.137 5.352 8.098 11.527 7.274 15.509-.824 3.909-4.118 3.43-6.725 3.842-.274.686 2.333 2.814 1.785 4.665-.55 1.853-2.882 2.265-2.882 2.265s1.853 1.647 1.853 3.5c-.069 1.85-2.196 1.372-3.363 2.745-1.235 1.372 2.402 8.234-.618 10.704-5.009 4.049-11.32-1.167-7.617 3.225 14.137 17.087 22.164 5.283 33.35 5.283 11.597.002 22.028 10.982 31.428-13.31z"/></g><g><path fill="#f26722" d="M176.332 190.757l22.37-23.262c.342-.343.413-.824.206-1.304-.206-.411-.618-.754-1.098-.754h-15.234c-.343 0-.618.136-.892.41l-20.724 22.44v-21.684c0-.618-.548-1.166-1.166-1.166h-12.42c-.686 0-1.166.548-1.166 1.166v56.542c0 .617.55 1.166 1.166 1.166h12.42c.618 0 1.166-.481 1.166-1.166v-16.812l5.215-5.421 16.676 22.918c.205.276.547.48.96.48h14.957c.413 0 .824-.274 1.03-.616a1.156 1.156 0 0 0-.136-1.236z"/></g><g><path fill="#f26722" d="M211.397 165.505h12.42c.686 0 1.166.548 1.166 1.166v56.474c0 .686-.549 1.166-1.166 1.166h-12.42a1.156 1.156 0 0 1-1.167-1.166V166.67c-.068-.618.48-1.166 1.167-1.166z"/></g><g><path fill="#f26722" d="M262.312 165.505c18.047 0 31.155 12.282 31.223 29.232v.136c0 17.087-13.176 29.438-31.223 29.438h-22.026c-.618 0-1.166-.55-1.166-1.166V166.67c0-.618.48-1.166 1.166-1.166zm-8.439 45.22h8.44c9.47 0 15.852-6.245 15.852-15.645v-.137c0-9.47-6.382-15.852-15.853-15.852h-8.439z"/></g><g><path fill="#a39c92" d="M51.855 165.505H39.64c-.686 0-1.165.548-1.165 1.166v31.29l-24.36-31.976a1.202 1.202 0 0 0-.961-.48H1.764c-.686 0-1.166.48-1.236 1.166v56.474c0 .617.548 1.166 1.166 1.166h12.283c.617 0 1.166-.55 1.166-1.166v-32.39L40.396 223.9c.206.274.549.48.96.48h10.499c.618 0 1.167-.55 1.167-1.167V166.74c0-.687-.55-1.235-1.167-1.235z"/></g><g><path fill="#a39c92" d="M94.469 164.544c17.704 0 31.085 12.968 31.083 30.193v.137c0 17.016-13.725 30.397-31.29 30.397-17.703 0-31.084-12.968-31.084-30.192v-.136c0-17.018 13.725-30.399 31.29-30.399zm-15.92 30.192v.136c0 9.401 6.931 16.537 15.92 16.537s15.784-7.068 15.784-16.4v-.136c0-9.4-6.93-16.538-15.92-16.538-8.992 0-15.785 7.07-15.785 16.401z"/></g><g><path fill="#a39c92" d="M36.828 237.762H27.77c-.617 0-1.165.548-1.165 1.166v15.094h-14.41V238.86c0-.62-.549-1.167-1.166-1.167H1.97c-.618 0-1.165.547-1.165 1.167v41.172c0 .616.481 1.166 1.165 1.166h9.06c.616 0 1.165-.481 1.165-1.166V264.66h14.41v15.372c0 .616.481 1.166 1.165 1.166h9.06c.617 0 1.165-.481 1.165-1.166V238.86c0-.62-.548-1.1-1.166-1.1z"/></g><g><path fill="#a39c92" d="M87.333 237.762h-9.06c-.616 0-1.165.548-1.165 1.166v23.605c0 5.694-2.675 8.714-7.753 8.714-6.382 0-7.754-4.94-7.754-9.057v-23.262c0-.618-.481-1.166-1.167-1.166h-9.058c-.617 0-1.166.548-1.166 1.166v23.467c0 12.352 6.93 19.42 18.94 19.42 12.214 0 19.213-7.206 19.213-19.761V238.79c.067-.55-.414-1.03-1.03-1.03z"/></g><g><path fill="#a39c92" d="M138.522 237.762H129.6c-.616 0-1.165.548-1.165 1.166v21.957l-17.223-22.644c-.206-.275-.548-.48-.894-.48h-8.37c-.617 0-1.167.548-1.167 1.166v41.17c0 .618.48 1.167 1.167 1.167h8.92c.619 0 1.167-.48 1.167-1.166v-22.782l17.909 23.47c.205.274.55.41.893.479h7.685c.619 0 1.167-.48 1.167-1.165v-41.172c-.07-.687-.55-1.166-1.168-1.166z"/></g><g><path fill="#a39c92" d="M190.674 255.19h-17.841c-.617 0-1.166.481-1.166 1.166v7.822c0 .62.48 1.167 1.166 1.167h7.96v4.117c-2.197 1.304-4.803 1.991-7.342 1.923-6.588 0-11.322-5.01-11.322-11.94v-.138c0-6.449 4.803-11.666 10.636-11.666 4.461 0 7.069 1.442 10.02 3.913.274.205.548.274.892.274.275 0 .617-.206.754-.412l5.695-6.862c.412-.48.343-1.235-.136-1.578-4.942-4.186-9.881-5.9-16.95-5.9-12.763 0-22.712 9.88-22.712 22.438v.136c0 12.97 9.606 22.301 22.78 22.301 6.726.07 13.245-2.4 18.323-6.793.274-.205.411-.55.411-.892v-17.91c.066-.617-.482-1.166-1.168-1.166.069 0 0 0 0 0z"/></g><g><path fill="#a39c92" d="M241.315 279.413c.205.343.275.755.068 1.167a1.13 1.13 0 0 1-1.028.616h-10.57c-.41 0-.754-.136-.96-.48l-8.508-12.694h-5.352v12.01c0 .683-.548 1.164-1.166 1.164h-8.99a1.156 1.156 0 0 1-1.165-1.165V238.86c0-.619.548-1.167 1.166-1.167h18.802c5.419 0 9.88 1.578 12.832 4.53 2.608 2.745 3.979 6.45 3.842 10.224v.138c0 6.175-2.882 10.841-8.235 13.312zm-26.35-21.683h8.028c3.568 0 5.764-1.716 5.764-4.666v-.137c0-3.91-3.225-4.735-5.969-4.735h-7.823z"/></g><g><path fill="#a39c92" d="M287.771 238.31c-.206-.343-.618-.618-1.029-.618H276.45c-.412 0-.754.207-.96.549l-8.988 14.89-8.853-14.89a1.095 1.095 0 0 0-.96-.55h-10.637c-.41 0-.823.208-1.029.619a1.182 1.182 0 0 0 0 1.166l15.646 24.634v15.922c0 .616.481 1.165 1.166 1.165h9.06c.617 0 1.165-.48 1.165-1.165v-16.058l15.645-24.498c.272-.342.272-.754.067-1.166z"/></g><g><path fill="#a39c92" d="M291.75 242.908c-.136-3.157 2.334-5.831 5.49-5.901 3.157-.136 5.833 2.333 5.902 5.49v.411c.137 3.156-2.334 5.832-5.49 5.902-3.156.137-5.831-2.333-5.901-5.491zm5.833-5.077h-.136a5.066 5.066 0 0 0-5.08 5.077c0 2.815 2.266 5.078 5.01 5.078 2.883 0 5.148-2.264 5.148-5.078.068-2.744-2.197-5.077-4.942-5.077zm-2.331 2.058h2.607c1.304 0 2.264.617 2.264 1.852 0 .823-.548 1.578-1.372 1.716l1.51 2.196h-1.372l-1.372-1.991h-1.234v1.991h-1.1zm2.469 2.881c.754 0 1.166-.411 1.166-.96 0-.549-.412-.96-1.166-.96h-1.44v1.921h1.44z"/></g></g></svg>