<?xml version="1.0" encoding="utf-8"?>
<!-- Generator: Adobe Illustrator 24.1.2, SVG Export Plug-In . SVG Version: 6.00 Build 0)  -->
<svg version="1.1" id="Слой_1" xmlns="http://www.w3.org/2000/svg" xmlns:xlink="http://www.w3.org/1999/xlink" x="0px" y="0px"
	 viewBox="0 0 511.94 1046.78" style="enable-background:new 0 0 511.94 1046.78;" xml:space="preserve">
<style type="text/css">
	.st0{fill:#EDE9E1;}
	.st1{fill:#FF7729;}
</style>
<g>
	<path class="st0" d="M434.16,0.12c11.41-0.25,23.14-0.45,33.87,3.44c33.57,12.18,41.28,55.47,42.57,91.15
		c2,55.44,1.42,110.93,0.52,166.4c-1.19,73.91-2.95,147.82-5.26,221.71c-4.92,157.15-12.39,314.46-5.13,471.52
		c0.92,19.85,1.06,42.4-13.29,56.15c-5.81,5.57-13.36,8.92-20.92,11.67c-27.47,9.98-56.85,13.27-85.95,15.9
		c-98.34,8.87-197.29,10.99-295.93,6.32c-18.34-0.87-37.63-2.28-52.95-12.4c-29-19.16-31.84-59.86-31.68-94.61
		c1.24-272.23,2.49-544.46,3.73-816.69c0.12-25.72,0.51-52.6,12.55-75.33C46.2-11.09,146.64,6.4,198.04,5.28
		C276.75,3.56,355.45,1.84,434.16,0.12z"/>
	<path class="st1" d="M37.06,918.32c142.26-1.55,284.52-3.1,426.78-4.66c2.27-119.04,4.55-238.07,6.82-357.11
		c2.77-145.06,5.49-294.18-1.85-439.08c-143.8,5.24-259.67-2.61-431.12-2.73C35.59,383.94,37.18,665.48,37.06,918.32z"/>
</g>
</svg>
