<?xml version="1.0" encoding="utf-8"?>
<!-- Generator: Adobe Illustrator 24.1.2, SVG Export Plug-In . SVG Version: 6.00 Build 0)  -->
<svg version="1.1" id="Слой_1" xmlns="http://www.w3.org/2000/svg" xmlns:xlink="http://www.w3.org/1999/xlink" x="0px" y="0px"
	 viewBox="0 0 409.71 409.69" style="enable-background:new 0 0 409.71 409.69;" xml:space="preserve">
<style type="text/css">
	.st0{fill:#4D6C45;}
</style>
<g>
	<g>
		<path class="st0" d="M228.67,0.1c1.65,0.18,3.15,0.58,4.5,1.2c1.35,0.62,2.52,1.36,3.51,2.21c0.99,0.86,1.74,1.75,2.26,2.66
			l-3.21,2.7c-0.99-1.16-2.1-2.15-3.35-2.97c-1.25-0.82-2.64-1.31-4.18-1.47c-1.95-0.21-3.77,0.05-5.44,0.79
			c-1.68,0.74-3.06,1.83-4.13,3.29c-1.08,1.45-1.72,3.17-1.93,5.15c-0.21,1.95,0.08,3.78,0.87,5.47c0.79,1.7,1.94,3.1,3.44,4.21
			c1.51,1.11,3.21,1.76,5.1,1.97c1.37,0.15,2.69,0.02,3.96-0.38c1.27-0.41,2.33-1.03,3.19-1.89c0.86-0.85,1.35-1.88,1.48-3.09
			c0.01-0.14,0.02-0.22,0.03-0.25l-8.2-0.89l0.48-4.41l12.78,1.38c0.01,0.42,0.01,0.84,0.01,1.25c0,0.42-0.03,0.83-0.07,1.24
			c-0.16,1.51-0.55,2.97-1.16,4.38s-1.46,2.59-2.53,3.56c-1.25,1.26-2.79,2.19-4.62,2.82c-1.83,0.62-3.81,0.82-5.92,0.59
			c-2.09-0.23-4-0.81-5.73-1.77s-3.21-2.18-4.44-3.67c-1.23-1.5-2.12-3.18-2.68-5.07c-0.56-1.88-0.73-3.87-0.5-5.96
			c0.23-2.09,0.81-3.98,1.76-5.67c0.95-1.69,2.17-3.13,3.68-4.31c1.5-1.19,3.2-2.05,5.1-2.6C224.59,0.03,226.58-0.13,228.67,0.1z"/>
		<path class="st0" d="M280.1,28.22c-0.68,1.99-1.63,3.73-2.87,5.22c-1.24,1.49-2.68,2.67-4.33,3.54c-1.65,0.87-3.42,1.39-5.3,1.55
			s-3.8-0.09-5.76-0.75s-3.65-1.64-5.05-2.92s-2.49-2.77-3.26-4.46c-0.77-1.69-1.19-3.51-1.26-5.44c-0.07-1.94,0.23-3.9,0.91-5.89
			c0.68-1.99,1.63-3.73,2.87-5.22c1.24-1.49,2.67-2.67,4.31-3.55c1.64-0.87,3.41-1.39,5.3-1.55c1.89-0.16,3.82,0.09,5.79,0.76
			s3.64,1.64,5.03,2.91c1.39,1.28,2.48,2.76,3.26,4.46c0.78,1.7,1.21,3.51,1.28,5.45C281.08,24.26,280.77,26.23,280.1,28.22z
			 M275.78,26.75c0.65-1.91,0.84-3.75,0.56-5.52c-0.27-1.77-0.95-3.33-2.02-4.67c-1.08-1.34-2.5-2.32-4.28-2.92
			c-1.81-0.61-3.54-0.72-5.22-0.31c-1.67,0.41-3.15,1.24-4.43,2.48c-1.28,1.24-2.25,2.82-2.9,4.73c-0.65,1.91-0.84,3.75-0.58,5.52
			c0.26,1.77,0.93,3.32,2,4.67c1.08,1.34,2.52,2.32,4.32,2.94c1.78,0.6,3.51,0.7,5.18,0.29c1.67-0.41,3.16-1.24,4.46-2.49
			C274.17,30.2,275.14,28.63,275.78,26.75z"/>
		<path class="st0" d="M316.68,48.81c-1.09,1.79-2.41,3.28-3.94,4.47c-1.53,1.18-3.2,2.02-5,2.51c-1.8,0.49-3.64,0.6-5.51,0.35
			c-1.87-0.25-3.69-0.92-5.46-2c-1.77-1.08-3.2-2.4-4.29-3.96c-1.09-1.56-1.82-3.24-2.2-5.06c-0.38-1.82-0.39-3.68-0.04-5.59
			c0.35-1.9,1.08-3.75,2.17-5.55c1.1-1.79,2.41-3.28,3.94-4.47c1.53-1.18,3.2-2.02,4.99-2.52c1.79-0.49,3.63-0.61,5.51-0.35
			c1.88,0.26,3.71,0.93,5.48,2.01c1.77,1.08,3.19,2.4,4.27,3.95c1.08,1.55,1.81,3.24,2.2,5.06c0.39,1.83,0.41,3.69,0.05,5.6
			C318.5,45.17,317.77,47.02,316.68,48.81z M312.78,46.44c1.05-1.72,1.64-3.48,1.76-5.27c0.12-1.79-0.2-3.46-0.95-5
			c-0.76-1.55-1.94-2.81-3.54-3.79c-1.63-0.99-3.3-1.47-5.02-1.44c-1.72,0.03-3.34,0.52-4.87,1.45c-1.53,0.93-2.81,2.26-3.87,3.98
			c-1.05,1.72-1.65,3.47-1.78,5.26c-0.13,1.78,0.18,3.45,0.93,4.99c0.76,1.55,1.95,2.82,3.58,3.81c1.6,0.98,3.27,1.45,4.99,1.42
			c1.72-0.03,3.35-0.52,4.9-1.45C310.45,49.45,311.75,48.13,312.78,46.44z"/>
		<path class="st0" d="M346.91,55.77c1.62,1.55,2.78,3.18,3.49,4.91c0.7,1.72,1,3.46,0.9,5.21c-0.11,1.75-0.56,3.46-1.35,5.13
			c-0.79,1.67-1.87,3.21-3.22,4.63c-1.83,1.92-3.88,3.32-6.14,4.2c-2.26,0.88-4.57,1.1-6.94,0.66c-2.37-0.44-4.63-1.7-6.79-3.76
			l-8.22-7.85l20.05-20.99L346.91,55.77z M329.69,73.5c1.58,1.51,3.18,2.4,4.8,2.66c1.62,0.27,3.19,0.06,4.72-0.62
			s2.93-1.69,4.21-3.03c1.26-1.32,2.19-2.76,2.8-4.32s0.75-3.15,0.42-4.76s-1.29-3.18-2.86-4.69l-4.83-4.61l-14.09,14.75
			L329.69,73.5z"/>
		<path class="st0" d="M355.69,112.12l25.44-13.98l9.07,16.5l-3.78,2.08l-6.91-12.57l-7.05,3.87l6.01,10.94l-3.78,2.08l-6.01-10.94
			l-10.83,5.95L355.69,112.12z"/>
		<path class="st0" d="M391.34,160.04c-2,0.64-3.97,0.9-5.91,0.79c-1.94-0.11-3.74-0.57-5.42-1.39c-1.68-0.81-3.14-1.93-4.39-3.35
			c-1.25-1.42-2.18-3.11-2.81-5.09c-0.63-1.98-0.84-3.91-0.64-5.8c0.2-1.89,0.75-3.65,1.66-5.27s2.12-3.04,3.63-4.24
			c1.52-1.21,3.28-2.13,5.28-2.76c2-0.64,3.97-0.9,5.91-0.79c1.93,0.11,3.74,0.57,5.42,1.37s3.14,1.92,4.39,3.35
			c1.25,1.43,2.19,3.13,2.82,5.11s0.84,3.9,0.64,5.78c-0.2,1.88-0.75,3.63-1.66,5.27c-0.9,1.63-2.11,3.06-3.63,4.26
			C395.1,158.48,393.34,159.4,391.34,160.04z M389.96,155.69c1.92-0.61,3.52-1.55,4.78-2.82c1.26-1.27,2.12-2.74,2.56-4.4
			c0.44-1.66,0.38-3.39-0.19-5.18c-0.58-1.82-1.53-3.28-2.85-4.38c-1.32-1.1-2.86-1.8-4.63-2.1s-3.6-0.14-5.53,0.47
			c-1.92,0.61-3.52,1.54-4.79,2.8c-1.27,1.26-2.13,2.72-2.57,4.38s-0.38,3.4,0.2,5.22c0.57,1.79,1.51,3.24,2.83,4.34
			c1.32,1.1,2.87,1.81,4.65,2.11C386.22,156.44,388.06,156.29,389.96,155.69z"/>
		<path class="st0" d="M401.35,196.04c-1.73,0.17-3.39-0.19-4.98-1.07c-1.59-0.89-2.82-2.12-3.7-3.7l-10.94,7.86l-0.49-5.41
			l10.25-7.17l-0.65-6.6L380.01,181l-0.44-4.46l28.89-2.83l1.21,12.3c0.15,1.51-0.08,3-0.69,4.46c-0.61,1.46-1.55,2.71-2.84,3.74
			C404.84,195.24,403.25,195.85,401.35,196.04z M405.3,185.69l-0.7-7.1l-9.45,0.93l0.81,8.25c0.13,1.32,0.7,2.3,1.7,2.94
			c1.01,0.64,2.1,0.9,3.29,0.78c1.51-0.15,2.65-0.79,3.42-1.92C405.13,188.44,405.44,187.15,405.3,185.69z"/>
		<path class="st0" d="M403.31,259.67l-13.56-13.7l-12.66-2.67l0.92-4.38l12.58,2.65l18.18-7.87l-1.11,5.27l-13.49,5.72l10.19,9.94
			L403.31,259.67z"/>
		<path class="st0" d="M375.14,292.08c-1.93-0.82-3.6-1.91-4.99-3.26c-1.39-1.35-2.46-2.88-3.2-4.59s-1.12-3.51-1.14-5.4
			c-0.02-1.89,0.37-3.78,1.19-5.69c0.81-1.91,1.91-3.51,3.29-4.82c1.38-1.3,2.95-2.27,4.69-2.91c1.74-0.64,3.58-0.92,5.52-0.85
			c1.94,0.07,3.87,0.52,5.8,1.35c1.93,0.82,3.6,1.91,4.99,3.26c1.39,1.35,2.46,2.87,3.21,4.57c0.75,1.7,1.13,3.5,1.14,5.4
			c0.02,1.9-0.38,3.8-1.2,5.71c-0.81,1.91-1.91,3.51-3.29,4.8c-1.38,1.29-2.94,2.26-4.69,2.91c-1.75,0.65-3.59,0.94-5.53,0.86
			C379.01,293.35,377.07,292.9,375.14,292.08z M376.93,287.88c1.86,0.79,3.68,1.12,5.46,0.98c1.79-0.14,3.39-0.69,4.81-1.67
			c1.42-0.97,2.5-2.32,3.24-4.05c0.75-1.75,0.98-3.48,0.7-5.18s-0.99-3.23-2.14-4.61c-1.14-1.37-2.64-2.46-4.5-3.25
			c-1.86-0.79-3.68-1.13-5.46-1c-1.78,0.13-3.38,0.68-4.8,1.65c-1.42,0.97-2.51,2.33-3.25,4.09c-0.74,1.73-0.97,3.44-0.68,5.14
			c0.28,1.7,1,3.24,2.15,4.64C373.61,286.01,375.1,287.1,376.93,287.88z"/>
		<path class="st0" d="M365.91,332.5l-14.6-10.37c-1.78-1.26-3.08-2.81-3.91-4.63c-0.82-1.82-1.13-3.73-0.91-5.73
			c0.22-2,0.98-3.92,2.29-5.77c1.3-1.83,2.86-3.18,4.68-4.05c1.82-0.87,3.73-1.22,5.73-1.04c1.99,0.18,3.88,0.9,5.66,2.16
			l14.6,10.37l-2.59,3.65l-14.3-10.16c-1.17-0.83-2.42-1.3-3.73-1.4c-1.32-0.1-2.55,0.11-3.71,0.64c-1.16,0.53-2.1,1.31-2.82,2.32
			c-0.77,1.08-1.22,2.27-1.36,3.56c-0.14,1.29,0.06,2.54,0.59,3.75c0.53,1.21,1.38,2.23,2.56,3.06l14.3,10.16L365.91,332.5z"/>
		<path class="st0" d="M321.27,348.51c0.8-0.64,1.68-1.04,2.66-1.19c0.98-0.15,1.94-0.05,2.87,0.3c0.94,0.35,1.72,0.92,2.37,1.72
			c0.68,0.84,1.08,1.75,1.22,2.74c0.14,0.99,0.03,1.94-0.32,2.87s-0.93,1.71-1.73,2.35c-0.8,0.64-1.68,1.04-2.66,1.19
			s-1.94,0.06-2.89-0.28c-0.95-0.34-1.76-0.93-2.43-1.77c-0.64-0.8-1.03-1.69-1.17-2.68c-0.14-0.99-0.03-1.94,0.32-2.87
			S320.45,349.17,321.27,348.51z"/>
		<path class="st0" d="M283.76,394.14c-1.53,0.64-3.03,1.02-4.52,1.13c-1.48,0.11-2.86,0.03-4.15-0.24
			c-1.28-0.27-2.37-0.68-3.26-1.24l1.5-3.92c1.43,0.54,2.88,0.86,4.37,0.98c1.49,0.11,2.94-0.13,4.37-0.73
			c1.81-0.76,3.27-1.87,4.38-3.33c1.11-1.46,1.79-3.08,2.02-4.88c0.24-1.79-0.03-3.61-0.8-5.44c-0.76-1.81-1.9-3.27-3.41-4.37
			c-1.51-1.1-3.2-1.78-5.05-2.01c-1.86-0.24-3.66,0.01-5.42,0.75c-1.27,0.54-2.37,1.29-3.28,2.26c-0.91,0.97-1.54,2.03-1.87,3.19
			c-0.34,1.16-0.27,2.3,0.2,3.42c0.05,0.13,0.09,0.2,0.1,0.23l7.61-3.2l1.72,4.09l-11.85,4.98c-0.21-0.36-0.42-0.72-0.62-1.09
			c-0.2-0.37-0.38-0.74-0.54-1.12c-0.59-1.4-0.96-2.87-1.1-4.39c-0.15-1.53,0.02-2.98,0.49-4.34c0.48-1.7,1.38-3.27,2.68-4.7
			c1.3-1.43,2.93-2.56,4.9-3.38c1.94-0.81,3.89-1.22,5.87-1.23c1.98-0.01,3.86,0.35,5.66,1.06c1.8,0.71,3.4,1.76,4.8,3.13
			c1.4,1.37,2.51,3.03,3.32,4.97c0.81,1.94,1.22,3.87,1.21,5.81s-0.39,3.79-1.13,5.56c-0.74,1.77-1.81,3.35-3.2,4.74
			C287.37,392.22,285.7,393.33,283.76,394.14z"/>
		<path class="st0" d="M225.14,394.43c-0.37-2.07-0.38-4.05-0.02-5.96c0.36-1.9,1.05-3.64,2.08-5.2c1.03-1.56,2.32-2.87,3.89-3.92
			c1.57-1.05,3.37-1.76,5.41-2.13c2.04-0.37,3.98-0.33,5.83,0.11s3.52,1.21,5.01,2.32c1.49,1.11,2.74,2.49,3.74,4.15
			c1,1.66,1.69,3.52,2.06,5.59c0.37,2.07,0.38,4.05,0.02,5.96c-0.36,1.9-1.05,3.63-2.06,5.19c-1.01,1.56-2.31,2.86-3.89,3.92
			c-1.58,1.06-3.39,1.77-5.43,2.13c-2.04,0.37-3.98,0.33-5.81-0.12c-1.83-0.44-3.5-1.22-5.01-2.32c-1.5-1.11-2.76-2.49-3.76-4.15
			C226.19,398.36,225.51,396.5,225.14,394.43z M229.63,393.62c0.36,1.99,1.08,3.69,2.18,5.11c1.1,1.42,2.44,2.45,4.03,3.11
			s3.31,0.82,5.16,0.48c1.88-0.34,3.45-1.09,4.71-2.26c1.26-1.17,2.16-2.61,2.68-4.31c0.52-1.71,0.61-3.56,0.25-5.54
			c-0.36-1.99-1.08-3.69-2.16-5.11c-1.08-1.42-2.42-2.46-4.01-3.11s-3.33-0.81-5.2-0.48c-1.85,0.33-3.41,1.08-4.67,2.25
			c-1.26,1.17-2.16,2.61-2.7,4.34C229.36,389.82,229.27,391.66,229.63,393.62z"/>
		<path class="st0" d="M183.16,394.18c0.09-2.1,0.51-4.04,1.27-5.82c0.76-1.78,1.82-3.32,3.16-4.62c1.34-1.3,2.89-2.3,4.64-2.99
			c1.76-0.69,3.67-0.99,5.74-0.91c2.07,0.08,3.96,0.54,5.67,1.37c1.71,0.83,3.17,1.95,4.39,3.35c1.22,1.4,2.13,3.03,2.75,4.86
			c0.62,1.84,0.88,3.81,0.8,5.9c-0.09,2.1-0.51,4.04-1.27,5.82c-0.76,1.78-1.81,3.32-3.13,4.62c-1.32,1.3-2.87,2.3-4.64,2.99
			c-1.77,0.69-3.69,0.99-5.76,0.91c-2.07-0.08-3.95-0.54-5.65-1.37c-1.69-0.83-3.16-1.95-4.39-3.35c-1.23-1.41-2.15-3.03-2.77-4.86
			C183.34,398.25,183.08,396.28,183.16,394.18z M187.72,394.37c-0.08,2.02,0.26,3.83,1.02,5.46c0.76,1.62,1.85,2.92,3.26,3.91
			s3.06,1.51,4.94,1.59c1.91,0.08,3.6-0.32,5.09-1.18c1.49-0.87,2.67-2.08,3.55-3.63c0.88-1.56,1.36-3.34,1.44-5.36
			c0.08-2.02-0.25-3.84-1-5.46c-0.75-1.62-1.83-2.92-3.24-3.91c-1.41-0.98-3.07-1.52-4.98-1.59c-1.88-0.08-3.56,0.32-5.05,1.19
			c-1.49,0.87-2.68,2.08-3.57,3.65C188.29,390.6,187.8,392.38,187.72,394.37z"/>
		<path class="st0" d="M153.34,402.8c-2.17-0.57-3.98-1.43-5.43-2.6c-1.45-1.17-2.56-2.54-3.32-4.12c-0.76-1.58-1.2-3.3-1.31-5.14
			c-0.12-1.85,0.07-3.72,0.57-5.62c0.67-2.57,1.78-4.79,3.32-6.65c1.55-1.87,3.46-3.18,5.74-3.94c2.28-0.76,4.87-0.76,7.76-0.01
			l10.99,2.87l-7.34,28.08L153.34,402.8z M159.78,378.94c-2.11-0.55-3.94-0.55-5.49,0c-1.54,0.55-2.82,1.5-3.83,2.84
			c-1.01,1.34-1.74,2.9-2.21,4.69c-0.46,1.77-0.58,3.48-0.36,5.14c0.22,1.66,0.87,3.11,1.95,4.37c1.07,1.25,2.67,2.15,4.78,2.71
			l6.46,1.69l5.16-19.74L159.78,378.94z"/>
		<path class="st0" d="M118.36,357.76l-15.51,24.53l-15.91-10.06l2.3-3.65l12.13,7.67l4.3-6.8l-10.55-6.67l2.3-3.65l10.55,6.67
			l6.6-10.44L118.36,357.76z"/>
		<path class="st0" d="M63.97,333.09c1.44-1.53,3.04-2.71,4.78-3.55c1.75-0.84,3.55-1.31,5.42-1.41s3.69,0.16,5.46,0.8
			c1.78,0.63,3.42,1.66,4.93,3.09s2.63,3.01,3.38,4.76c0.74,1.75,1.11,3.55,1.11,5.41c-0.01,1.86-0.38,3.68-1.12,5.47
			c-0.74,1.79-1.83,3.45-3.28,4.98c-1.44,1.53-3.04,2.71-4.78,3.55c-1.75,0.84-3.55,1.32-5.4,1.43c-1.85,0.11-3.67-0.16-5.46-0.8
			c-1.79-0.64-3.44-1.68-4.94-3.1c-1.51-1.42-2.63-3.01-3.36-4.74c-0.73-1.74-1.1-3.54-1.11-5.41c0-1.87,0.37-3.7,1.11-5.49
			S62.52,334.61,63.97,333.09z M67.28,336.22c-1.39,1.47-2.32,3.06-2.81,4.79c-0.49,1.72-0.52,3.42-0.1,5.09s1.31,3.15,2.68,4.44
			c1.39,1.31,2.92,2.13,4.62,2.45c1.69,0.32,3.38,0.19,5.06-0.41c1.69-0.6,3.22-1.63,4.61-3.09c1.39-1.47,2.33-3.06,2.83-4.77
			c0.5-1.72,0.54-3.41,0.12-5.08s-1.32-3.16-2.71-4.47c-1.37-1.29-2.89-2.1-4.59-2.42c-1.69-0.32-3.39-0.19-5.09,0.41
			C70.19,333.75,68.65,334.77,67.28,336.22z"/>
		<path class="st0" d="M37.72,306.54c1.43-0.99,3.06-1.49,4.87-1.48c1.82,0,3.49,0.48,5.03,1.43l5.73-12.19l3.06,4.49l-5.47,11.25
			l3.78,5.45l8.96-6.21l2.55,3.68l-23.86,16.53l-7.04-10.16c-0.87-1.25-1.39-2.66-1.57-4.23c-0.18-1.57,0.04-3.12,0.66-4.65
			C35.05,308.93,36.15,307.62,37.72,306.54z M39.31,317.49l4.06,5.86l7.8-5.41l-4.72-6.82c-0.76-1.09-1.73-1.67-2.92-1.74
			s-2.27,0.24-3.25,0.92c-1.25,0.87-1.93,1.98-2.05,3.34C38.11,315.01,38.47,316.29,39.31,317.49z"/>
		<path class="st0" d="M38,259.81l-23.56,7.47l2.46,7.75l-4.11,1.3l-6.34-20l4.11-1.3l2.53,7.98l23.56-7.47L38,259.81z"/>
		<path class="st0" d="M2.28,235.43l12.31-1.44l-1.68-14.37L0.6,221.05l-0.52-4.45l28.83-3.36l0.52,4.45l-12.23,1.43l1.68,14.37
			l12.23-1.43l0.52,4.45L2.8,239.87L2.28,235.43z"/>
		<path class="st0" d="M0,196.75l1.42-18.23l4.3,0.33l-1.07,13.77l7.65,0.6l0.9-11.49l4.3,0.33l-0.89,11.49l8.39,0.65l1.07-13.77
			l4.3,0.33L28.94,199L0,196.75z"/>
		<path class="st0" d="M10.86,137.79l6.64-17.04l4.02,1.57l-5.02,12.86l7.15,2.79l4.19-10.74l4.02,1.57l-4.19,10.74l7.84,3.06
			l5.02-12.86l4.02,1.57l-6.64,17.04L10.86,137.79z"/>
		<path class="st0" d="M60.88,102.85l-7.56-1.54l-6.49,10.27l4.64,6.17l-2.44,3.86L30.5,96.59l2.44-3.85l30.49,6.08L60.88,102.85z
			 M40.34,102.91l3.73,4.96l4.74-7.5l-6.27-1.26c-1.01-0.21-2.08-0.47-3.22-0.76c-1.14-0.29-2.28-0.59-3.43-0.89
			c0.77,0.95,1.55,1.89,2.33,2.83C39.01,101.21,39.71,102.09,40.34,102.91z"/>
		<path class="st0" d="M71.01,61.04c1.26,1.2,2.08,2.69,2.44,4.47c0.37,1.78,0.24,3.52-0.38,5.22l13.1,3.14l-3.78,3.91L70.26,74.7
			l-4.57,4.81l7.9,7.52l-3.09,3.24L49.47,70.25l8.52-8.95c1.05-1.1,2.32-1.9,3.83-2.4c1.5-0.5,3.06-0.59,4.69-0.29
			C68.13,58.92,69.63,59.73,71.01,61.04z M60.6,64.82l-4.92,5.17l6.88,6.55l5.72-6.01c0.91-0.96,1.28-2.03,1.11-3.21
			c-0.18-1.18-0.69-2.18-1.55-3c-1.1-1.05-2.33-1.49-3.68-1.33C62.79,63.15,61.61,63.76,60.6,64.82z"/>
		<path class="st0" d="M99.82,63.05L85.28,43.06l-6.57,4.78l-2.54-3.49l16.97-12.34l2.54,3.49l-6.77,4.93l14.54,19.99L99.82,63.05z"
			/>
		<path class="st0" d="M111.58,21.47l5.27,11.22l13.1-6.15l-5.27-11.22l4.05-1.9l12.33,26.27l-4.05,1.9l-5.23-11.15l-13.1,6.15
			l5.23,11.15l-4.05,1.9l-12.33-26.27L111.58,21.47z"/>
		<path class="st0" d="M175.92,21.41c-1.01,0.16-1.98,0.06-2.9-0.29c-0.92-0.36-1.71-0.92-2.35-1.68c-0.64-0.77-1.04-1.65-1.2-2.66
			c-0.17-1.06-0.07-2.06,0.3-2.99c0.37-0.93,0.94-1.7,1.71-2.33c0.77-0.63,1.66-1.02,2.67-1.18c1.01-0.16,1.98-0.06,2.9,0.29
			c0.92,0.36,1.71,0.92,2.37,1.68c0.65,0.76,1.06,1.68,1.23,2.74c0.16,1.01,0.06,1.98-0.31,2.9c-0.37,0.93-0.94,1.7-1.71,2.33
			C177.86,20.85,176.96,21.24,175.92,21.41z"/>
	</g>
</g>
</svg>
