<?xml version="1.0" encoding="utf-8"?>
<!-- Generator: Adobe Illustrator 24.1.2, SVG Export Plug-In . SVG Version: 6.00 Build 0)  -->
<svg version="1.1" id="Слой_1" xmlns="http://www.w3.org/2000/svg" xmlns:xlink="http://www.w3.org/1999/xlink" x="0px" y="0px"
	 viewBox="0 0 255.25 257.45" style="enable-background:new 0 0 255.25 257.45;" xml:space="preserve">
<style type="text/css">
	.st0{fill:#74EFCF;}
	.st1{clip-path:url(#SVGID_2_);}
	.st2{fill:#FF7729;}
</style>
<g>
	<path class="st0" d="M215.11,49.06c15.86,14.9,29.07,32.54,35.86,53.06c26.77,80.9-77.79,172.18-155.24,152.66
		c-4.27-1.18-8.48-2.6-12.62-4.24c-20.66-8.22-39.73-21.91-55.25-38.64C-31.77,147.62,9.29,3.64,103.78,0.08
		c34.28-1.29,67.33,14.18,94.65,34.93C204.19,39.39,209.8,44.07,215.11,49.06z"/>
	<g>
		<defs>
			<path id="SVGID_1_" d="M215.11,49.06c15.86,14.9,29.07,32.54,35.86,53.06c26.77,80.9-77.79,172.18-155.24,152.66
				c-4.27-1.18-8.48-2.6-12.62-4.24c-20.66-8.22-39.73-21.91-55.25-38.64C-31.77,147.62,9.29,3.64,103.78,0.08
				c34.28-1.29,67.33,14.18,94.65,34.93C204.19,39.39,209.8,44.07,215.11,49.06z"/>
		</defs>
		<clipPath id="SVGID_2_">
			<use xlink:href="#SVGID_1_"  style="overflow:visible;"/>
		</clipPath>
		<g class="st1">
			<path class="st2" d="M35.98,31.23c0,0,13.4,2.23,20.65,8.93s10.6,0.56,12.84-4.47s6.14-5.58,17.86-4.47s18-0.33,34.12,5.7
				s22.81,8.82,12.77,17.75s-17.86,24.56-26.79,27.35c-8.93,2.79-7.26-6.7-8.93-18.42s-14.24-7.26-11.02-13.95s3.21-7.26-4.05-5.02
				c-7.26,2.23-10.6,6.15-5.02,12s15.35,10.32,9.07,19.25S68.91,87.6,76.17,89.83s13.11,5.58,11.3,11.16
				c-1.81,5.58-16.32,6.7-21.35,12.84c-5.02,6.14-7.26,10.6-12.28,19.53c-5.02,8.93-8.37-0.91-13.4-4.64s-10.6,5.76-4.47,10.78
				c6.14,5.02,4.47-3.91,6.14,5.02c1.67,8.93,0.56,11.72,9.49,11.72s11.16,0,24.56,7.81s36.28,11.16,29.02,25.67
				c-7.26,14.51-27.35,20.09-29.58,32.37c-2.23,12.28-2.23,27.35-2.23,27.35s-11.16-4.47-11.16-31.81s-17.3-29.58-15.07-41.3
				c2.23-11.72,6.7-14.51,1.12-15.63c-5.58-1.12-14.51-5.58-21.77-14.51c-7.26-8.93-8.93-6.62-11.16-6.1s-8.37-16.22-7.81-53.62
				S35.98,31.23,35.98,31.23z"/>
			<path class="st2" d="M215.11,49.06c0,0-10.57,10.07-10.57,17.33s-11.72,2.23-17.86,6.7c-6.14,4.47-11.72-6.14-23.44,0
				c-11.72,6.14-6.7,20.65-12.28,27.91c-5.58,7.26-4.47-16.19-12-6.7s8.1,3.35,6.42,13.95c-1.67,10.6-6.93,6.14-8.49,12.28
				c-1.56,6.14-13.28,10.05-12.72,21.77c0.56,11.72,5.58,23.44,24.56,24s11.72,12.84,12.28,26.23c0.56,13.4,3.91,34.6,16.74,15.07
				c12.84-19.53,12.84-22.33,21.21-30.7c8.37-8.37,11.16-22.33,5.02-22.33s-1.12-1.12,4.47-6.14c5.58-5.02-0.63-12.84,6.66-12.28
				s29.62,3.35,32.41,34.05s16.19-44.09,0-79.81S215.11,49.06,215.11,49.06z"/>
			<path class="st2" d="M207.89,185.27c0,0-12.28,6.14-12.28,16.19s6,3.21,8.09-3.07S213.89,185.13,207.89,185.27z"/>
		</g>
	</g>
</g>
</svg>
