<svg xmlns="http://www.w3.org/2000/svg" width="250" height="227" viewBox="0 0 250 227">
    <g opacity=".2">
        <path d="M234.97 39.152h-24.915V14.237c0-7.83-6.407-14.237-14.234-14.237H14.293C6.463 0 .056 6.406.056 14.237v227.796c0 7.83 6.406 14.238 14.237 14.238H39.21v24.915c0 7.83 6.403 14.238 14.237 14.238H174.46c7.827 0 18.904-4.393 24.602-9.756l39.772-37.437c5.706-5.364 10.368-16.163 10.368-23.993l.007-170.847c0-7.832-6.407-14.239-14.238-14.239zM39.208 53.39v192.203H14.293c-1.93 0-3.56-1.63-3.56-3.56V14.238c0-1.928 1.63-3.558 3.56-3.558h181.529c1.925 0 3.559 1.63 3.559 3.558v24.916H53.445c-7.834 0-14.237 6.406-14.237 14.237zm192.307 187.066l-39.772 37.434c-.815.766-1.876 1.517-3.047 2.232v-32.75c0-2.445.986-4.645 2.612-6.282 1.641-1.627 3.84-2.616 6.286-2.616h35.611c-.552.75-1.117 1.441-1.69 1.982zm7.007-16.22c0 1.058-.192 2.282-.484 3.56h-40.444c-10.802.02-19.555 8.773-19.577 19.576v36.941c-1.27.257-2.495.431-3.559.431H53.445c-1.933 0-3.559-1.63-3.559-3.558V53.39c0-1.93 1.627-3.56 3.559-3.56H234.97c1.929 0 3.559 1.63 3.559 3.56l-.007 170.846z"/>
        <path d="M195.821 88.982H92.601c-2.95 0-5.339 2.389-5.339 5.34 0 2.95 2.39 5.338 5.34 5.338H195.82c2.947 0 5.339-2.388 5.339-5.339 0-2.95-2.392-5.339-5.339-5.339zM195.821 160.169H92.601c-2.95 0-5.339 2.388-5.339 5.339 0 2.95 2.39 5.339 5.34 5.339H195.82c2.947 0 5.339-2.388 5.339-5.34 0-2.95-2.392-5.338-5.339-5.338zM149.55 195.762H92.602c-2.95 0-5.34 2.388-5.34 5.34 0 2.95 2.39 5.338 5.34 5.338h56.948c2.948 0 5.336-2.388 5.336-5.339 0-2.95-2.388-5.339-5.336-5.339zM195.821 124.576H92.601c-2.95 0-5.339 2.388-5.339 5.339 0 2.95 2.39 5.339 5.34 5.339H195.82c2.947 0 5.339-2.389 5.339-5.34 0-2.95-2.392-5.338-5.339-5.338z"/>
    </g>
</svg>
