<svg xmlns="http://www.w3.org/2000/svg" width="195" height="336" viewBox="0 0 195 336" preserveAspectRatio="none"><g><g clip-path="url(#clip-B959C9D7-4C53-4B10-B72A-6222C88BDBCE)" opacity=".5" transform="matrix(-1 0 0 1 831 0)"><g opacity=".5"><path fill="none" stroke="#fff" stroke-miterlimit="20" stroke-width=".79" d="M365.79 52.672c-18.814-20.442-42.08-39.489-64.56-50.368-22.445-11.155-44.95-14.187-66.507-12.083-21.457 1.9-41.803 8.2-59.41 12.907-17.645 4.852-29.898 11.571-38.975 14.943-9.165 3.588-14.971 4.164-19.67 1.448-4.754-2.64-8.645-8.432-14.499-15.483-5.966-6.992-13.891-15.007-27.931-21.722-13.984-6.892-35.989-10.756-61.884-20.479-25.296-9.423-53.124-30.665-38.132-86.913 11.82-43.76 39.995-92.493 65.93-132.818 26.033-40.793 49.461-74.326 61.973-102.964 12.588-28.586 12.64-54.172 10.257-73.842-2.431-19.499-6.602-34.578-6.762-48.34-.26-13.728 3.51-26.119 12.756-38.03 9.145-11.927 23.672-23.23 40.807-33.741 17.215-10.591 36.42-20.39 54.795-30.334 18.702-9.755 36.264-21.166 57.158-27.618 20.853-6.455 46.26-1.82 76.311 1.58 27.712 2.82 58.442 13.743 88.88 36.393 30.419 22.483 59.773 56.34 82.866 95.61 23.28 39.408 38.02 85.72 46.01 126.117 8.06 40.585 10.748 76.63 10.796 109.964.06 33.333-2.58 65.703-10.805 94.205-8.177 28.565-20.785 52.864-34.609 73.342-13.807 20.538-28.786 37.433-41.902 52.716-13.152 15.267-25.604 26.858-36.96 34.917-11.369 8.032-21.642 13.651-30.491 19.039-8.841 5.371-16.239 10.503-22.605 15.327-6.37 4.807-11.62 9.379-17.046 11.25-5.403 1.885-10.677.557-15.791-5.023z"/></g><g opacity=".5"><path fill="none" stroke="#fff" stroke-miterlimit="20" stroke-width=".8" d="M368.002 58.322c-18.876-20.482-41.787-39.589-64.274-50.838-22.46-11.472-44.926-14.895-66.465-13.072-21.436 1.6-41.791 7.698-59.46 12.289-17.688 4.694-30.56 10.58-39.859 13.728-9.362 3.315-15.344 3.735-19.767.632-4.467-3.032-7.843-9.31-12.914-17.048C100.085-3.665 93.23-12.602 80.621-20.4c-12.577-7.966-32.629-13.204-56.976-23.55-23.698-10.088-51.94-30.075-37.895-84.78 11.077-42.412 38.387-89.947 63.934-129.44 25.63-39.937 49.093-72.887 62.074-101.028 13.073-28.096 13.749-53.393 11.474-73.031-2.32-19.49-6.327-34.61-6.435-48.327-.204-13.704 3.511-25.98 12.573-37.71 8.966-11.744 23.16-22.793 39.907-33.046 16.837-10.33 35.609-19.89 53.749-29.508 18.448-9.417 36.036-20.406 57.051-25.757 20.996-5.346 46.126-.668 75.92 2.76 27.514 2.87 57.939 14.048 87.88 36.933 29.926 22.714 58.587 56.736 80.915 95.878 22.507 39.305 35.672 85.428 43.006 124.957 7.399 39.733 9.814 74.975 9.698 107.89-.104 32.919-3.067 65.138-11.421 93.362-8.31 28.28-20.808 52.393-34.377 72.823-13.557 20.483-28.154 37.442-40.867 52.818-12.737 15.352-25.398 26.612-36.908 34.646-11.513 8.018-21.983 13.74-30.945 19.31-8.954 5.555-16.385 10.986-22.691 16.132-6.319 5.123-11.51 10.137-16.772 12.173-5.231 2-10.426.752-15.513-4.783z"/></g><g opacity=".5"><path fill="none" stroke="#fff" stroke-miterlimit="20" stroke-width=".81" d="M370.207 64.456c-19.021-20.57-41.535-39.706-64.053-51.337C283.664 1.32 261.218-2.464 239.688-.928c-21.43 1.316-41.792 7.23-59.536 11.695-17.737 4.537-31.2 9.626-40.731 12.539-9.579 3.045-15.669 3.237-20.002-.188-4.385-3.325-7.142-10.15-11.483-18.553-4.45-8.338-10.299-18.12-21.542-26.974C75.16-31.4 56.97-37.957 34.196-48.988c-22.082-10.818-50.481-29.755-37.37-82.976 10.347-41.126 36.794-87.517 61.92-126.19 25.2-39.114 48.646-71.506 62.05-99.173 13.495-27.614 14.944-52.636 12.807-72.273-2.168-19.48-5.99-34.665-6.006-48.364-.12-13.687 3.577-25.882 12.464-37.437 8.798-11.583 22.67-22.381 39.042-32.396 16.465-10.07 34.818-19.397 52.735-28.687 18.205-9.082 35.821-19.577 56.947-23.818 21.11-4.193 45.924.272 75.5 3.765 27.344 2.961 57.488 14.42 86.944 37.561 29.4 22.934 57.592 55.91 78.981 96.336 21.47 40.482 33.257 84.8 40.047 123.59 6.798 38.917 8.983 73.398 8.723 105.954-.245 32.571-3.55 64.663-12 92.618-8.406 28.019-20.773 51.997-34.077 72.374-13.295 20.445-27.507 37.477-39.819 52.956C480.761.316 467.785 11.227 456.11 19.257c-11.67 8.018-22.346 13.867-31.416 19.645-9.067 5.773-16.513 11.482-22.75 16.988-6.25 5.473-11.335 10.906-16.437 13.087-5.09 2.156-10.21 1.02-15.3-4.521z"/></g><g opacity=".5"><path fill="none" stroke="#fff" stroke-miterlimit="20" stroke-width=".83" d="M372.616 70.08c-19.24-20.673-41.313-39.816-63.861-51.804C286.234 6.168 263.817 2.024 242.3 3.288c-21.409 1.04-41.785 6.756-59.592 11.116-17.783 4.38-31.78 8.724-41.56 11.36-9.812 2.72-16.026 2.712-20.284-1.04-4.305-3.664-6.602-10.928-10.264-19.96-3.765-8.956-8.671-19.548-18.615-29.38-9.956-9.956-26.35-17.78-47.523-29.511-20.452-11.58-48.687-29.696-36.526-81.376 9.648-39.831 35.186-85.039 59.856-122.878 24.73-38.276 48.102-70.071 61.86-97.251 13.861-27.132 16.174-51.808 14.21-71.443-1.99-19.496-5.583-34.716-5.49-48.392-.013-13.668 3.677-25.76 12.404-37.151 8.64-11.4 22.193-21.98 38.187-31.728 16.09-9.808 34.025-18.892 51.72-27.816 17.963-8.72 35.602-18.668 56.798-21.776 21.189-3.023 45.65 1.008 75.01 4.588 27.178 3.088 57.03 14.836 85.99 38.228 28.922 23.172 56.857 56.455 76.89 96.883 20.127 40.476 30.967 83.851 37.222 121.783 6.25 38.06 8.25 71.79 7.859 103.998-.376 32.232-4.01 64.148-12.53 91.831-8.474 27.748-20.68 51.552-33.696 71.892-13.01 20.4-26.819 37.5-38.735 53.051-11.913 15.548-25.282 26.108-37.127 34.156-11.833 8.044-22.705 14.012-31.868 20.008-9.16 5.987-16.603 12.015-22.753 17.871-6.163 5.82-11.08 11.616-16.027 13.976-4.925 2.348-9.987 1.288-15.101-4.248z"/></g><g opacity=".5"><path fill="none" stroke="#fff" stroke-miterlimit="20" stroke-width=".84" d="M374.74 75.698c-19.53-20.791-41.123-39.946-63.707-52.28C288.48 10.99 266.099 6.508 244.602 7.516c-21.39.76-41.762 6.306-59.615 10.557-17.82 4.231-32.301 7.874-42.338 10.21-10.052 2.407-16.416 2.147-20.632-1.924-4.26-3.98-6.189-11.677-9.225-21.303-3.128-9.553-7.152-20.899-15.852-31.656-8.737-10.873-23.41-19.895-42.966-32.36C35.16-71.32 7.348-88.797 18.596-138.985c8.949-38.586 33.574-82.6 57.747-119.614 24.217-37.43 47.458-68.655 61.518-95.34 14.165-26.666 17.417-50.98 15.649-70.595-1.784-19.503-5.124-34.771-4.9-48.428.12-13.657 3.82-25.658 12.392-36.879 8.493-11.245 21.725-21.57 37.346-31.072 15.716-9.554 33.241-18.376 50.714-26.925 17.72-8.326 35.377-17.724 56.598-19.656 21.221-1.811 45.31 1.54 74.46 5.255 27.013 3.247 56.562 15.32 85.011 38.942 28.433 23.399 55.894 57.118 74.62 97.412 18.824 40.346 28.804 82.7 34.569 119.807 5.752 37.194 7.608 70.218 7.1 102.122-.488 31.916-4.456 63.656-13.009 91.074-8.5 27.509-20.516 51.123-33.229 71.426-12.72 20.339-25.97 37.962-37.622 53.147C485.5 7.419 472.223 17.524 460.2 25.618c-12 8.078-23.053 14.189-32.29 20.415-9.24 6.21-16.656 12.565-22.689 18.8-6.056 6.178-10.748 12.344-15.544 14.856-4.776 2.52-9.789 1.523-14.937-3.991z"/></g><g opacity=".5"><path fill="none" stroke="#fff" stroke-miterlimit="20" stroke-width=".85" d="M377.398 81.813c-19.915-20.935-41.018-40.126-63.657-52.809-22.604-12.738-44.963-17.57-66.45-16.818-21.376.512-41.755 5.865-59.67 10.017a1259.449 1259.449 0 0 1-43.094 9.11c-10.31 2.052-16.85 1.552-21.063-2.84-4.257-4.293-5.91-12.415-8.358-22.609-2.544-10.121-5.732-22.167-13.266-33.83-7.577-11.737-20.623-21.907-38.577-35.137C46.06-76.25 18.916-93.304 29.3-142.07c8.278-37.386 32.001-80.261 55.66-116.475 23.696-36.622 46.776-67.292 61.086-93.508 14.426-26.224 18.659-50.14 17.11-69.76-1.56-19.511-4.628-34.858-4.256-48.5.272-13.638 4.005-25.576 12.434-36.646 8.361-11.106 21.291-21.188 36.554-30.441 15.362-9.302 32.497-17.875 49.763-26.037 17.495-7.941 35.173-16.71 56.4-17.475 21.236-.6 44.968 1.88 73.936 5.765 26.872 3.433 56.132 15.875 84.077 39.731 27.948 23.648 54.768 57.902 72.25 97.957 17.591 40.118 26.789 81.457 32.122 117.775 5.316 36.39 7.053 68.76 6.449 100.401-.588 31.666-4.885 63.231-13.446 90.396-8.506 27.276-20.312 50.74-32.713 71.024-12.422 20.271-24.22 37.706-36.658 53.269-12.446 15.526-25.368 25.604-37.562 33.75-12.174 8.133-23.403 14.406-32.705 20.883-9.305 6.441-16.674 13.178-22.58 19.78-5.92 6.58-10.353 13.041-15.005 15.73-4.63 2.672-9.602 1.776-14.819-3.737z"/></g><g opacity=".5"><path fill="none" stroke="#fff" stroke-miterlimit="20" stroke-width=".87" d="M379.802 87.918c-20.364-21.107-40.98-40.298-63.677-53.34-22.652-13.073-44.988-18.218-66.456-17.718-21.357.24-41.73 5.449-59.698 9.501-17.917 3.993-33.222 6.43-43.796 8.065-10.575 1.669-17.306.905-21.549-3.808-4.283-4.613-5.743-13.122-7.662-23.852-2.004-10.665-4.416-23.403-10.835-35.885-6.474-12.566-17.964-23.827-34.322-37.797-15.609-13.93-41.816-30.749-32.266-78.1 7.635-36.221 30.443-77.935 53.563-113.344 23.144-35.797 46.008-65.906 60.525-91.65 14.634-25.76 19.869-49.23 18.557-68.862-1.316-19.515-4.1-34.92-3.563-48.559.436-13.634 4.207-25.5 12.513-36.405 8.24-10.954 20.869-20.82 35.782-29.82 15.014-9.042 31.767-17.375 48.832-25.108 17.273-7.525 34.942-15.666 56.154-15.218 20.549.648 44.604 2.08 73.38 6.125 26.723 3.648 55.686 16.438 83.105 40.53 27.451 23.883 53.43 58.704 69.732 98.39 16.417 39.754 24.892 80.072 29.843 115.577 4.927 35.549 6.583 67.314 5.883 98.718-.68 31.44-5.295 62.765-13.826 89.693-8.478 27.028-20.048 50.376-32.114 70.606-12.102 20.231-23.412 37.954-35.718 53.336-12.33 15.33-25.42 25.396-37.781 33.617-12.342 8.205-23.736 14.65-33.079 21.383-9.346 6.717-16.649 13.79-22.396 20.791-5.767 6.981-9.89 13.73-14.397 16.587-4.488 2.88-9.435 2.068-14.734-3.453z"/></g><g opacity=".5"><path fill="none" stroke="#fff" stroke-miterlimit="20" stroke-width=".88" d="M382.769 93.533c-20.916-21.279-41.055-40.506-63.83-53.882-22.72-13.371-45.047-18.867-66.51-18.607-21.348 0-41.732 5.032-59.755 8.992-17.972 3.868-33.615 5.876-44.475 7.096-10.856 1.251-17.8.18-22.1-4.836-4.343-4.94-5.703-13.808-7.135-25.063-1.512-11.188-3.2-24.551-8.568-37.835-5.432-13.347-15.447-25.623-30.239-40.346-14.06-14.715-39.107-31.443-30.34-77.425 7.025-35.086 28.936-75.653 51.507-110.255 22.584-34.955 45.215-64.514 59.899-89.789 14.8-25.323 21.051-48.29 19.983-67.913-1.068-19.527-3.552-34.99-2.836-48.606.616-13.631 4.44-25.399 12.632-36.17 8.128-10.784 20.483-20.444 35.067-29.2 14.684-8.779 31.087-16.855 47.967-24.158 17.035-7.124 35.259-13.548 55.79-13.004 20.515.7 44.387 2.144 72.998 6.448 26.595 3.9 55.27 17.06 82.174 41.35 26.959 24.107 51.95 59.49 67.142 98.72 15.32 39.29 23.147 78.569 27.763 113.272 4.584 34.746 6.196 65.909 5.404 97.124-.768 31.234-5.68 62.301-14.16 88.984-8.428 26.779-19.743 49.99-31.47 70.19C527.9-31.179 517.052-13.203 504.84 1.984c-12.244 15.155-25.523 25.247-38.059 33.543-12.516 8.3-24.063 14.919-33.435 21.927-9.376 6.98-16.583 14.423-22.16 21.835-5.587 7.408-9.367 14.395-13.739 17.427-4.348 3.04-9.276 2.328-14.68-3.184z"/></g><g opacity=".5"><path fill="none" stroke="#fff" stroke-miterlimit="20" stroke-width=".89" d="M385.508 100.136c-21.537-21.462-41.219-40.755-64.08-54.478-22.792-13.728-45.101-19.497-66.55-19.51-21.338-.255-41.708 4.638-59.782 8.511-18.014 3.769-33.941 5.433-45.086 6.21-11.144.792-18.306-.569-22.697-5.93-4.426-5.27-5.77-14.5-6.766-26.259-1.067-11.714-2.075-25.67-6.446-39.71-4.442-14.087-13.052-27.33-26.303-42.806-12.54-15.488-36.201-32.309-28.172-76.984 6.438-34.008 27.46-73.474 49.465-107.283 22.005-34.169 44.358-63.168 59.157-87.99 14.92-24.894 22.173-47.336 21.358-66.957-.812-19.541-2.983-35.057-2.084-48.672.804-13.628 4.69-25.339 12.78-35.953 8.026-10.643 20.11-20.102 34.374-28.608 14.367-8.526 30.426-16.332 47.125-23.19 16.799-6.753 34.9-11.61 55.366-10.97 20.43.736 44.17 2.268 72.614 6.857 26.46 4.157 54.822 17.705 81.198 42.215 26.448 24.326 50.292 60.291 64.436 98.977 14.28 38.778 21.525 77 25.852 110.96 4.29 33.96 5.874 64.612 5.002 95.672-.855 31.084-6.038 61.856-14.431 88.327-8.342 26.566-19.382 49.628-30.759 69.821C529.64-27.433 519.24-9.26 507.1 5.784c-12.177 15.008-25.653 25.134-38.353 33.54-12.68 8.418-24.36 15.236-33.733 22.522-9.381 7.278-16.463 15.072-21.837 22.93-5.387 7.822-8.79 15.044-13.024 18.264-4.199 3.217-9.121 2.625-14.644-2.904z"/></g><g opacity=".5"><path fill="none" stroke="#fff" stroke-miterlimit="20" stroke-width=".91" d="M388.823 106.25c-22.25-21.639-41.515-41-64.488-55.088-22.889-14.076-45.198-20.166-66.647-20.406-21.334-.5-41.707 4.245-59.837 8.034-18.074 3.693-34.228 5.158-45.674 5.43-11.447.296-18.846-1.4-23.35-7.094-4.539-5.626-5.942-15.185-6.546-27.432-.664-12.188-1.04-26.74-4.476-41.5-3.507-14.785-10.79-28.949-22.537-45.15-11.079-16.232-33.148-33.293-25.8-76.69 5.895-32.966 26.048-71.321 47.485-104.355 21.426-33.365 43.483-61.83 58.377-86.185 15.01-24.455 23.245-46.33 22.685-65.943-.556-19.55-2.412-35.126-1.316-48.726 1-13.6 4.96-25.268 12.959-35.735 7.943-10.487 19.773-19.757 33.743-28.012 14.07-8.278 29.817-15.829 46.35-22.202 16.598-6.314 34.54-9.851 54.958-9.095 20.357.8 43.994 2.445 72.282 7.358 26.337 4.461 54.398 18.397 80.25 43.065 25.937 24.535 48.514 61.026 61.689 99.093 13.314 38.17 20.045 75.35 24.129 108.571 4.04 33.198 5.627 63.359 4.671 94.304-.944 30.953-6.367 61.406-14.65 87.637-8.24 26.348-18.982 49.27-30.004 69.437C531.98-24.288 521.982-5.951 509.888 8.96c-12.139 14.885-25.817 25.056-38.683 33.59-12.847 8.53-24.645 15.56-34.004 23.15-9.367 7.555-16.306 15.766-21.453 24.048-5.156 8.258-8.16 15.68-12.27 19.086-4.068 3.44-8.992 2.924-14.655-2.585z"/></g><g opacity=".5"><path fill="none" stroke="#fff" stroke-miterlimit="20" stroke-width=".92" d="M392.434 112.358c-23.026-21.814-41.923-41.251-65.006-55.705C304.442 42.22 282.138 35.82 260.7 35.34c-21.32-.74-41.687 3.856-59.864 7.568-18.12 3.605-34.438 5.04-46.19 4.769-11.75-.248-19.396-2.292-24.038-8.341-4.67-5.964-6.213-15.87-6.47-28.59-.311-12.673-.1-27.79-2.646-43.212-2.627-15.441-8.645-30.482-18.925-47.368-9.66-16.953-29.952-34.342-23.226-76.534 5.386-31.974 24.678-69.23 45.537-101.48 20.836-32.558 42.56-60.46 57.505-84.379 15.054-24.01 24.239-45.28 23.939-64.869-.3-19.557-1.84-35.155-.544-48.748 1.2-13.597 5.242-25.182 13.155-35.51 7.865-10.37 19.452-19.414 33.139-27.423 13.786-8.024 29.232-15.277 45.605-21.173 16.406-5.857 34.155-8.245 54.514-7.377 20.288.876 43.819 2.688 71.936 7.929 26.201 4.752 53.942 19.09 79.248 43.907 25.406 24.698 46.59 61.657 58.856 99.044 12.407 37.495 18.693 73.646 22.567 106.137 3.83 32.458 5.43 62.16 4.395 93.02-1.032 30.858-6.654 60.908-14.798 86.922-8.101 26.114-18.529 48.936-29.185 69.054-10.735 20.121-20.364 38.555-32.427 53.368-12.115 14.793-25.997 25.03-39.008 33.687-12.995 8.668-24.89 15.92-34.206 23.817-9.325 7.873-16.082 16.474-20.976 25.194-4.898 8.71-7.49 16.29-11.472 19.886-3.934 3.62-8.864 3.244-14.686-2.28z"/></g><g opacity=".5"><path fill="none" stroke="#fff" stroke-miterlimit="20" stroke-width=".93" d="M396.148 118.98c-23.9-21.968-42.488-41.527-65.715-56.367-23.116-14.813-45.42-21.536-66.868-22.256-21.32-.984-41.688 3.457-59.916 7.118-18.173 3.566-34.597 5.106-46.671 4.246-12.074-.828-19.98-3.241-24.78-9.675-4.822-6.346-6.578-16.586-6.526-29.77 0-13.145.752-28.818-.96-44.875-1.796-16.102-6.619-31.919-15.477-49.505-8.302-17.642-26.659-35.496-20.492-76.55 4.919-31.014 23.384-67.226 43.668-98.732 20.252-31.803 41.636-59.172 56.605-82.636 15.077-23.592 25.179-44.199 25.135-63.781-.048-19.559-1.272-35.212.224-48.789 1.4-13.588 5.53-25.108 13.377-35.307 7.799-10.228 19.169-19.07 32.59-26.85a246.223 246.223 0 0 1 44.923-20.138c16.237-5.382 33.794-6.826 54.106-5.81 20.232 1.012 43.68 2.993 71.634 8.579 26.08 5.097 53.498 19.798 78.265 44.759 24.884 24.868 44.576 62.233 56.018 98.897 11.577 36.78 17.472 71.928 21.184 103.746 3.663 31.767 5.303 61.065 4.179 91.895-1.128 30.834-6.907 60.4-14.885 86.225-7.943 25.9-18.04 48.596-28.33 68.703-10.379 20.09-19.67 38.629-31.727 53.358-12.114 14.7-26.207 25.052-39.36 33.86-13.142 8.822-25.115 16.3-34.362 24.531-9.27 8.179-16.233 17.266-20.324 26.373-4.115 9.067-6.903 16.882-10.754 20.687-3.815 3.833-8.762 3.573-14.76-1.937z"/></g><g opacity=".5"><path fill="none" stroke="#fff" stroke-miterlimit="20" stroke-width=".94" d="M399.97 125.597c-24.932-22.112-44.029-42.919-66.663-57.107-22.603-14.161-45.582-22.184-67.012-23.132-21.334-1.233-41.703 3.069-59.992 6.67-18.233 3.501-34.704 5.39-47.118 3.873-12.414-1.448-20.594-4.29-25.568-11.103-4.999-6.747-7.024-17.302-6.715-30.95.264-13.625 1.516-29.807.588-46.48-1.013-16.694-4.71-33.267-12.198-51.521-7-18.315-23.283-36.705-17.616-76.654 4.494-30.13 22.166-65.302 41.888-96.048 19.677-31.034 40.71-57.847 55.682-80.887 15.043-23.112 24.18-43.106 26.108-62.637 1.873-19.458-.58-35.224 1.137-48.808 1.604-13.573 5.83-25.033 13.622-35.088 7.748-10.103 18.913-18.758 32.1-26.277 13.285-7.518 28.216-14.212 44.308-19.074 16.092-4.878 33.46-5.546 53.73-4.374 20.189 1.145 43.564 3.334 71.369 9.284 25.964 5.425 53.057 20.502 77.292 45.583 24.36 25.004 42.488 62.677 53.173 98.573 10.822 36.04 16.388 70.191 19.97 101.337 3.526 31.083 5.35 59.924 3.998 90.879-1.369 30.898-7.112 59.832-14.895 85.468-7.768 25.7-17.52 48.264-27.45 68.351-10.016 20.063-19.012 38.665-31.086 53.33-12.126 14.653-26.436 25.104-39.73 34.075-13.279 9.003-25.313 16.718-34.473 25.277-9.188 8.503-15.803 18.118-19.573 27.54-3.798 9.38-6.315 17.49-10.037 21.5-3.678 4.021-8.648 3.91-14.839-1.6z"/></g><g opacity=".5"><path fill="none" stroke="#fff" stroke-miterlimit="20" stroke-width=".96" d="M403.812 131.733c-25.948-22.217-45.363-43.323-67.776-57.9-22.381-14.6-45.586-22.789-67.003-23.969-21.318-1.496-41.664 2.684-59.978 6.216-18.267 3.509-34.386 5.909-47.362 3.72-12.992-2.055-21.273-5.42-26.436-12.672-5.19-7.14-6.926-18.161-6.946-32.162-.076-13.937 2.116-30.738 1.94-48.015-.276-17.26-2.9-34.558-9.054-53.427-5.83-18.92-18.266-38.666-14.5-76.872 2.92-28.794 20.89-63.444 40.037-93.393 19.082-30.274 39.72-56.552 54.651-79.145 14.996-22.661 24.42-42.314 26.896-61.475 2.431-19.097.196-35.19 2.103-48.755 1.808-13.545 6.126-24.934 13.856-34.858 7.69-9.96 18.654-18.421 31.603-25.698 13.044-7.268 27.731-13.644 43.67-17.977 15.935-4.352 33.094-4.436 53.3-3.072 20.118 1.3 43.395 3.74 71.006 10.045 25.8 5.78 52.529 21.205 76.19 46.358 23.784 25.11 40.26 62.968 50.244 98.07 10.113 35.238 15.4 68.4 18.882 98.922 3.435 30.461 5.363 59.263 3.835 89.937-1.543 30.614-7.222 59.243-14.795 84.669-7.55 25.477-16.935 47.93-26.484 67.983-9.645 20.034-18.359 38.65-30.443 53.284-12.136 14.608-26.64 25.185-40.032 34.333-13.384 9.169-25.432 17.15-34.457 26.046-9.062 8.836-15.264 18.949-18.707 28.694-3.47 9.704-5.71 18.08-9.305 22.32-3.547 4.25-8.541 4.277-14.935-1.207z"/></g><g opacity=".5"><path fill="none" stroke="#fff" stroke-miterlimit="20" stroke-width=".97" d="M408.731 138.361c-27.069-22.303-46.92-43.723-69.214-58.712-22.272-15.033-45.643-23.452-67.074-24.864-21.335-1.74-41.678 2.285-60.048 5.766-18.318 3.425-34.535 5.842-47.648 3.617-13.116-2.145-21.963-6.542-27.337-14.209-5.402-7.578-7.266-18.982-7.21-33.44.004-14.388 2.569-31.674 3.077-49.524.412-17.826-1.204-35.793-6.082-55.263-4.598-19.51-15.285-39.806-11.336-77.199 3.037-28.081 19.77-61.633 38.36-90.899 18.523-29.538 38.782-55.307 53.666-77.47 14.95-22.252 24.644-41.547 27.63-60.365 2.956-18.742.964-35.1 3.06-48.66 2.01-13.545 6.427-24.857 14.121-34.649 7.659-9.81 18.442-18.114 31.19-25.136 12.837-7.003 27.317-13.08 43.138-16.862 15.818-3.81 32.807-3.425 52.97-1.9 20.078 1.484 43.298 4.177 70.739 10.86 23.696 5.685 47.972 19.446 69.775 41.49 21.9 21.987 37.948 55.194 48.048 87.141 10.207 32.051 15.973 63.098 20.014 91.536 4.018 28.43 6.434 54.806 6.879 82.28.468 27.513-2.273 56.139-7.551 81.38-5.238 25.348-12.592 48.224-20.623 68.795-8.034 20.58-16.765 38.946-25.228 55.695-8.459 16.742-19.526 31.055-32.063 42.123-12.528 11.087-25.908 19.622-37.428 27.785-11.524 8.147-21.135 16.118-28.077 25.009-6.978 8.83-10.896 19.014-13.468 27.853-2.597 8.82-4.63 16.078-8.031 19.591-3.365 3.533-8.147 3.253-14.249-1.769z"/></g><g opacity=".5"><path fill="none" stroke="#fff" stroke-miterlimit="20" stroke-width=".98" d="M413 145.016c-28.235-22.342-48.575-44.056-70.807-59.448-22.208-15.436-45.652-24.118-67.084-25.793-21.336-2.012-41.656 1.883-60.056 5.306-18.344 3.371-34.644 5.803-47.876 3.527-13.232-2.227-22.588-7.55-28.184-15.647-5.616-8.038-7.628-19.831-7.536-34.731.048-14.84 2.904-32.591 4.052-50.966 1.056-18.36.396-36.946-3.252-56.961-3.408-20.063-12.384-40.869-8.14-77.495 3.236-27.413 18.776-59.864 36.8-88.432 17.956-28.805 37.804-54.03 52.608-75.756 14.864-21.822 24.788-40.76 28.252-59.212 3.448-18.387 1.716-34.93 3.996-48.463 2.204-13.496 6.72-24.733 14.372-34.399 7.624-9.689 18.236-17.77 30.784-24.545 12.632-6.746 26.904-12.493 42.596-15.72 15.688-3.247 32.52-2.555 52.62-.84 20.023 1.68 43.155 4.647 70.395 11.705 23.548 6.007 47.484 20.079 68.78 42.173 21.4 22.054 35.88 55.465 45.34 86.673 9.568 31.331 15.044 61.463 18.988 89.26 3.912 27.756 6.392 53.717 6.808 81.11.44 27.412-2.452 55.749-7.6 80.738-5.108 25.093-12.184 47.775-19.88 68.238-7.708 20.482-16.064 38.821-24.248 55.617-8.172 16.791-19.412 30.955-32.056 42.108-12.628 11.185-26.132 19.89-37.652 28.277-11.528 8.393-21.024 16.627-27.74 25.873-6.752 9.193-10.176 19.722-12.456 28.86-2.304 9.097-4.108 16.627-7.412 20.338-3.272 3.711-8.104 3.591-14.412-1.395z"/></g><g opacity=".5"><path fill="none" stroke="#fff" stroke-miterlimit="20" d="M418.008 151.666c-29.461-22.319-50.384-44.393-72.631-60.186-22.23-15.864-45.677-24.83-67.112-26.793-21.343-2.275-41.638 1.456-60.065 4.839-18.372 3.303-34.752 5.77-48.105 3.451-13.353-2.291-23.174-8.438-29.005-17.004-5.85-8.538-8.03-20.727-7.922-36.095.06-15.296 3.131-33.532 4.87-52.415 1.656-18.867 1.892-38.05-.58-58.605-2.267-20.58-9.585-41.918-4.95-77.865 3.511-26.813 17.936-58.25 35.404-86.147 17.407-28.105 36.839-52.799 51.547-74.113 14.765-21.411 24.886-40.002 28.797-58.114 3.907-18.043 2.444-34.727 4.903-48.232 2.392-13.48 7.006-24.642 14.629-34.168 7.594-9.55 18.051-17.463 30.416-23.974 12.45-6.482 26.53-11.893 42.098-14.56 15.565-2.663 32.269-1.82 52.308.116 19.97 1.896 43.013 5.155 70.047 12.593 23.35 6.35 46.96 19.371 67.768 42.865 20.827 23.422 33.72 55.558 42.645 86.07 8.986 30.593 14.237 59.862 18.108 87.063 3.84 27.154 6.403 52.743 6.786 80.1.4 27.374-2.599 55.35-7.586 80.129-4.955 24.85-11.729 47.336-19.083 67.727-7.366 20.387-15.36 38.73-23.295 55.594-7.906 16.872-19.299 30.872-32.052 42.138-12.717 11.297-26.33 20.203-37.823 28.825-11.505 8.625-20.863 17.171-27.321 26.765-6.49 9.542-9.418 20.45-11.406 29.869-2.011 9.393-3.579 17.183-6.798 21.106-3.18 3.94-8.062 3.975-14.592-.98z"/></g><g opacity=".5"><path fill="none" stroke="#fff" stroke-miterlimit="20" stroke-width="1.01" d="M423.632 158.335c-30.77-22.242-52.37-44.684-74.725-60.872-22.344-16.276-45.764-25.61-67.227-27.853-21.367-2.563-41.654 1.016-60.124 4.351-18.41 3.267-34.876 5.73-48.36 3.395-13.485-2.34-23.733-9.17-29.819-18.239-6.102-9.054-8.466-21.694-8.374-37.518.052-15.768 3.26-34.46 5.55-53.858 2.208-19.371 3.289-39.114 1.944-60.169-1.18-21.074-6.902-42.892-1.792-78.24 3.853-26.244 17.257-56.728 34.203-83.97 16.882-27.404 35.916-51.602 50.53-72.504 14.66-20.991 24.964-39.25 29.293-57.026 4.334-17.703 3.15-34.467 5.782-47.94 2.573-13.444 7.295-24.52 14.897-33.926 7.579-9.43 17.902-17.152 30.106-23.402 12.284-6.23 26.205-11.29 41.662-13.385 15.466-2.091 32.087-1.171 52.078.968 19.927 2.124 42.907 5.703 69.74 13.509 23.203 6.69 47.08 20.018 66.706 43.792 19.643 23.718 31.667 55.266 40.086 85.038 8.467 29.868 13.544 58.273 17.378 84.902 3.805 26.569 6.462 51.838 6.806 79.195.356 27.345-2.705 54.942-7.515 79.48-4.785 24.597-11.235 46.931-18.25 67.222-7.026 20.303-14.673 38.642-22.387 55.598-7.679 16.947-19.199 30.792-32.051 42.177-12.813 11.433-26.513 20.534-37.97 29.408-11.467 8.866-20.658 17.72-26.836 27.669-6.21 9.881-8.643 21.142-10.344 30.856-1.724 9.677-3.06 17.74-6.186 21.882-3.1 4.163-8.034 4.347-14.8-.54z"/></g><g opacity=".5"><path fill="none" stroke="#fff" stroke-miterlimit="20" stroke-width="1.02" d="M429.287 165.014c-32.086-22.094-54.421-44.888-76.932-61.496-22.498-16.68-45.829-26.413-67.292-28.972-21.371-2.864-41.623.56-60.103 3.843-18.42 3.21-34.95 5.73-48.54 3.35-13.594-2.359-24.214-9.74-30.551-19.342-6.357-9.598-8.916-22.71-8.868-39.01.012-16.255 3.294-35.41 6.081-55.301 2.711-19.867 4.586-40.117 4.314-61.656-.14-21.542-4.322-43.828 1.324-78.615 4.234-25.753 16.709-55.293 33.122-81.914 16.357-26.76 34.97-50.43 49.443-70.921 14.526-20.583 24.97-38.518 29.688-55.953 4.726-17.364 3.823-34.143 6.613-47.588 2.743-13.396 7.557-24.425 15.134-33.683 7.557-9.293 17.74-16.835 29.784-22.822 12.115-5.954 25.873-10.677 41.199-12.188 15.345-1.504 31.906-.636 51.814 1.731 19.856 2.355 42.73 6.25 69.315 14.444 23.019 7.018 46.92 20.763 65.385 44.692 18.489 23.91 29.696 54.786 37.653 83.826 8 29.108 12.934 56.705 16.76 82.794 3.791 26.03 6.546 51.01 6.85 78.403.3 27.393-2.76 54.482-7.353 78.783-4.574 24.37-10.684 46.496-17.341 66.727-6.677 20.226-13.954 38.625-21.487 55.625-7.489 17-19.136 30.784-32.019 42.273-12.838 11.529-26.577 20.85-37.952 29.976-11.387 9.121-20.368 18.279-26.233 28.58-5.894 10.257-7.849 21.814-9.26 31.82-1.428 9.977-2.531 18.319-5.57 22.67-2.995 4.387-7.98 4.73-14.978-.076z"/></g><g opacity=".5"><path fill="none" stroke="#fff" stroke-miterlimit="20" stroke-width="1.03" d="M435.029 171.703c-33.483-21.89-56.657-45.024-79.416-62.043-22.759-17.068-45.998-27.273-67.496-30.164-21.407-3.171-41.638.1-60.15 3.307-18.446 3.143-35.05 5.695-48.765 3.32C165.487 83.746 154.54 76 147.924 65.815c-6.632-10.193-9.403-23.774-9.423-40.57-.048-16.727 3.247-36.381 6.487-56.752 3.176-20.342 5.8-41.12 6.548-63.083.856-21.966-1.86-44.695 4.376-78.974 4.655-25.285 16.327-53.981 32.242-79.966 15.871-26.105 34.078-49.283 48.43-69.378 14.398-20.19 24.97-37.777 30.054-54.893 5.1-17.03 4.467-33.774 7.411-47.179 2.904-13.352 7.812-24.29 15.375-33.43 7.544-9.158 17.62-16.512 29.527-22.239 11.975-5.678 25.642-9.993 40.81-10.98 14.855-.904 31.818-.18 51.653 2.41 19.807 2.604 42.594 6.863 68.952 15.393 22.847 7.342 46.606 21.55 63.985 45.551 17.41 23.95 27.882 54.145 35.442 82.454 7.596 28.364 12.443 55.16 16.287 80.738 3.8 25.513 6.768 50.15 6.916 77.747.132 27.552-2.76 53.925-7.112 78.018-4.348 24.134-10.095 46.076-16.403 66.242C573.145-22.92 566.314-4.42 558.85 12.55c-7.424 16.988-19.187 30.832-32.11 42.397-12.876 11.62-26.519 21.11-37.782 30.575-11.272 9.478-20.04 18.88-25.567 29.524-5.556 10.59-7.08 22.466-8.2 32.763-1.14 10.278-2.015 18.867-4.967 23.466-2.908 4.61-7.956 5.155-15.195.428z"/></g><g opacity=".5"><path fill="none" stroke="#fff" stroke-miterlimit="20" stroke-width="1.05" d="M441.549 178.902c-34.917-21.595-59.014-45.09-82.103-62.521-23.089-17.479-46.23-28.18-67.773-31.429-21.452-3.484-41.668-.412-60.203 2.745-18.47 3.068-35.145 5.66-48.982 3.288-13.838-2.38-25.054-10.293-31.96-21.107-6.923-10.81-9.92-24.931-10.024-42.226-.132-17.254 3.117-37.405 6.774-58.252 3.594-20.835 6.915-42.086 8.632-64.473 1.8-22.384.488-45.511 7.358-79.348 5.106-24.875 16.082-52.755 31.524-78.16 15.41-25.487 33.22-48.182 47.434-67.893 14.257-19.795 24.945-37.09 30.371-53.872 5.443-16.706 5.09-33.388 8.176-46.738 3.049-13.33 8.05-24.18 15.605-33.185 7.54-9.025 17.507-16.21 29.291-21.655 11.837-5.421 25.518-9.05 40.36-9.83 14.873-.756 31.84.216 51.615 3.08 19.751 2.877 42.448 7.458 68.562 16.355 22.664 7.653 46.097 22.387 62.451 46.363 16.39 23.92 26.198 53.412 33.413 80.98 7.242 27.627 12.048 53.66 15.934 78.783 3.853 25.06 6.898 49.875 6.994 77.207.08 27.3-2.673 53.384-6.77 77.247-4.098 23.891-9.456 45.707-15.438 65.801-6.018 20.103-12.365 38.638-19.791 55.6-7.387 16.97-19.3 30.86-32.28 42.519-12.937 11.733-26.543 21.355-37.55 31.124-11.017 9.773-19.516 19.67-24.666 30.66-5.19 10.926-6.334 23.112-7.167 33.697-.856 10.558-1.508 19.443-4.373 24.28-2.825 4.84-7.927 5.585-15.414.96z"/></g><g opacity=".5"><path fill="none" stroke="#fff" stroke-miterlimit="20" stroke-width="1.06" d="M448.004 185.613c-36.343-21.203-61.41-45.006-84.876-62.846-23.474-17.876-46.497-29.106-68.064-32.737-21.483-3.827-41.658-.952-60.201 2.14-18.472 2.995-35.188 5.642-49.133 3.263-13.94-2.368-25.35-10.234-32.556-21.712-7.222-11.45-10.45-26.118-10.662-43.934-.236-17.784 2.92-38.44 6.939-59.735 3.967-21.292 7.934-42.991 10.565-65.758 2.692-22.747 2.724-46.23 10.246-79.631 5.57-24.467 15.948-51.577 30.929-76.396 14.956-24.866 32.352-47.074 46.417-66.398 14.096-19.391 24.87-36.368 30.604-52.816 5.763-16.373 5.683-32.91 8.894-46.218 3.18-13.261 8.262-24.051 15.804-32.905 7.523-8.882 17.392-15.88 29.046-21.048 11.689-5.159 25.082-8.198 39.938-8.754 14.877-.548 31.809.652 51.508 3.775 19.671 3.144 42.242 8.075 68.076 17.3 22.45 7.943 45.365 23.212 60.73 47.047 15.408 23.794 24.61 52.528 31.524 79.335 6.938 26.862 11.733 52.176 15.676 76.835 3.92 24.619 7.015 49.613 7.09 76.66.069 27.026-2.523 52.792-6.334 76.4-3.815 23.646-8.834 45.293-14.476 65.273C579.993-17.27 574.19 1.35 566.784 18.29c-7.37 16.949-19.46 30.862-32.504 42.603-13.005 11.802-26.566 21.588-37.291 31.633-10.746 10.03-18.644 20.568-23.387 31.878-4.79 11.241-5.635 23.718-6.186 34.584-.58 10.838-1.004 19.992-3.788 25.079-2.739 5.09-7.898 6.054-15.624 1.547z"/></g><g opacity=".5"><path fill="none" stroke="#fff" stroke-miterlimit="20" stroke-width="1.07" d="M455.062 192.825c-37.83-20.726-63.97-44.862-87.911-63.088-23.959-18.255-46.897-30.124-68.53-34.133-21.55-4.2-41.711-1.52-60.272 1.496-18.489 2.913-35.27 5.605-49.329 3.233-14.048-2.292-25.303-9.637-33.117-22.111-7.826-12.394-11.038-27.376-11.375-45.774-.356-18.347 2.67-39.53 7.01-61.3 4.297-21.78 8.87-43.91 12.371-67.05 3.537-23.119 4.842-46.918 13.044-79.934 6.053-24.112 15.956-50.52 30.512-74.782 14.544-24.3 31.56-46.03 45.48-64.985 13.951-19.027 24.798-35.693 30.836-51.82 6.061-16.057 6.265-32.404 9.59-45.677 3.297-13.226 8.459-23.908 15.992-32.64 7.518-8.754 17.305-15.563 28.852-20.452 11.567-4.9 24.75-7.429 39.634-7.765 14.888-.316 31.805 1.085 51.438 4.501 19.605 3.412 42.067 8.721 67.633 18.254 22.25 8.23 44.516 24.008 58.972 47.655 14.508 23.595 23.174 51.583 29.848 77.654 6.693 26.128 11.519 50.743 15.544 75.019 4.013 24.255 7.13 49.466 7.214 76.21.088 26.751-2.305 52.207-5.814 75.598-3.509 23.415-8.278 44.838-13.56 64.753-5.34 19.882-10.598 38.609-18.024 55.523-7.406 16.927-19.71 30.88-32.857 42.714C525.14 75.822 511.6 85.739 501.15 96.08c-10.475 10.334-17.749 21.335-21.822 33.169-4.117 11.777-4.921 24.38-5.21 35.525-.308 11.121-.52 20.55-3.22 25.9-2.653 5.34-7.858 6.528-15.836 2.151z"/></g><g opacity=".5"><path fill="none" stroke="#fff" stroke-miterlimit="20" stroke-width="1.09" d="M462.03 199.554c-39.284-20.155-66.54-44.538-90.996-63.15-24.488-18.623-47.35-31.132-69.035-35.559-21.601-4.587-41.727-2.115-60.29.804-18.486 2.823-35.296 5.55-49.456 3.2-14.144-2.284-25.552-9.634-33.522-22.287-7.981-12.585-11.704-28.714-12.176-47.653-.492-18.911 2.363-40.634 6.982-62.873 4.574-22.23 9.7-44.773 14.015-68.252 4.331-23.442 6.846-47.512 15.72-80.14 6.53-23.727 16.059-49.5 30.202-73.207 14.14-23.734 30.775-44.985 44.53-63.565 13.789-18.644 24.69-34.992 31-50.796 6.333-15.732 6.83-31.868 10.248-45.061 3.391-13.14 8.621-23.762 16.14-32.344 7.505-8.606 17.198-15.217 28.638-19.836 11.445-4.615 24.477-6.726 39.356-6.83 14.876-.108 31.75 1.532 51.289 5.23 19.51 3.7 41.827 9.335 67.087 19.18 22.013 8.482 43.463 24.754 57.059 48.117 13.648 23.322 21.841 50.492 28.311 75.842 6.49 25.382 11.377 49.316 15.5 73.226 4.118 23.878 7.225 49.312 7.361 75.734.144 26.47-1.96 51.624-5.202 74.714-3.247 23.115-7.754 44.35-12.648 64.153-4.959 19.791-9.65 38.587-17.127 55.479-7.47 16.896-20.014 30.888-33.262 42.79-13.204 11.969-26.708 22.034-36.865 32.644-10.177 10.597-16.779 22.138-20.166 34.407-3.435 12.214-3.946 25.07-3.97 36.52-.044 11.405-.056 21.119-2.672 26.705-2.583 5.595-7.833 7.027-16.05 2.808z"/></g><g opacity=".5"><path fill="none" stroke="#fff" stroke-miterlimit="20" stroke-width="1.1" d="M470.102 206.282c-40.78-19.5-69.242-44.083-94.319-63.094-25.112-18.995-47.96-32.21-69.737-37.07-21.696-5.013-41.804-2.776-60.388.052-18.5 2.716-35.354 5.477-49.625 3.16-14.25-2.272-25.825-9.617-33.963-22.455-8.153-12.802-12.342-29.945-12.974-49.448-.648-19.527 2.028-41.822 6.881-64.55C160.794-49.85 166.44-72.81 171.512-96.6c5.085-23.752 8.734-48.108 18.3-80.369 7.009-23.4 16.275-48.583 30.05-71.771 13.786-23.216 30.057-44.023 43.672-62.234 13.638-18.283 24.589-34.33 31.162-49.827 6.593-15.43 7.405-31.293 10.898-44.435 3.473-13.098 8.762-23.624 16.271-32.07 7.498-8.46 17.12-14.89 28.466-19.222 11.35-4.337 24.3-6.085 39.18-5.965 14.866.116 31.713 2.008 51.173 5.98 19.432 3.993 41.612 9.986 66.577 20.096 21.784 8.721 42.32 25.448 55.13 48.483 12.87 23 20.652 49.376 26.978 74.04 6.34 24.688 11.322 47.995 15.563 71.575 4.244 23.58 7.333 49.224 7.549 75.336a521.141 521.141 0 0 1-4.62 73.823c-3.09 22.836-7.186 43.903-11.663 63.622-4.553 19.715-8.69 38.598-16.271 55.48-7.578 16.887-20.42 30.921-33.799 42.903-13.338 12.05-26.82 22.272-36.679 33.153-9.882 10.878-15.847 22.88-18.5 35.638-2.704 12.686-2.664 25.908-2.444 37.618.2 11.678.388 21.671-2.152 27.528-2.493 5.873-7.79 7.545-16.251 3.5z"/></g><g opacity=".5"><path fill="none" stroke="#fff" stroke-miterlimit="20" stroke-width="1.11" d="M477.543 213.024c-42.222-18.694-71.909-43.471-97.646-62.825-25.78-19.338-48.639-33.276-70.498-38.604-21.778-5.451-41.858-3.475-60.434-.756-18.492 2.592-35.364 5.388-49.722 3.096-14.334-2.232-26.061-9.59-34.357-22.57-8.317-12.962-12.93-30.968-13.73-51.078-.824-20.142 1.655-43.063 6.697-66.24 5.005-23.202 11.107-46.571 16.896-70.637 5.782-24.017 10.5-48.606 20.735-80.503 7.47-23.061 16.553-47.686 29.98-70.36 13.442-22.69 29.355-43.063 42.805-60.905 13.478-17.93 24.454-33.66 31.263-48.839 6.829-15.102 7.98-30.668 11.527-43.743 3.522-13.023 8.864-23.473 16.349-31.768 7.476-8.324 17.02-14.575 28.267-18.594 11.252-4.06 24.162-5.496 39.012-5.148 14.837.332 31.63 2.476 50.974 6.74 19.315 4.267 41.33 10.614 65.96 20.97 21.518 8.93 41.01 26.036 53.085 48.682 12.138 22.61 19.563 48.174 25.78 72.144 6.226 23.965 11.336 46.69 15.698 69.964 4.378 23.277 7.432 49.123 7.768 74.9a524.742 524.742 0 0 1-4.082 72.84c-2.879 22.57-6.517 43.415-10.547 63.053-4.123 19.602-7.713 38.583-15.438 55.446-7.728 16.87-20.879 30.96-34.389 42.99-13.474 12.143-26.92 22.466-36.46 33.637-9.564 11.155-14.846 23.605-16.777 36.812-1.987 13.135-.908 26.873-.592 38.756.288 11.842.78 22.205-1.687 28.325-2.415 6.135-7.749 8.043-16.437 4.215z"/></g><g opacity=".5"><path fill="none" stroke="#fff" stroke-miterlimit="20" stroke-width="1.13" d="M486.04 219.755c-43.681-17.787-74.679-42.66-101.165-62.366-26.537-19.67-49.488-34.362-71.466-40.176-21.906-5.91-41.972-4.219-60.559-1.631-18.502 2.459-35.405 5.29-49.856 3.019-14.427-2.212-26.314-9.542-34.785-22.666-8.491-13.112-13.487-31.814-14.475-52.556-1.012-20.798 1.276-44.323 6.46-68.012 5.151-23.697 11.683-47.446 18.134-71.79 6.436-24.297 12.167-49.042 23.062-80.605 7.928-22.75 16.923-46.838 30.038-69.027 13.143-22.206 28.726-42.128 42.037-59.623 13.33-17.563 24.338-32.99 31.377-47.87 7.055-14.815 8.583-29.999 12.167-43.01 3.556-12.965 8.94-23.31 16.407-31.463 7.463-8.178 16.934-14.212 28.101-17.96 11.171-3.762 24.106-4.958 38.925-4.382 14.811.552 31.562 2.951 50.8 7.506 19.215 4.535 41.065 11.225 65.375 21.805 21.262 9.11 39.637 26.537 51.052 48.746 11.479 22.17 18.61 46.942 24.766 70.24 6.16 23.296 11.427 45.442 15.93 68.447 4.524 23.03 7.544 49.021 8.036 74.466.512 25.52-.996 49.55-3.596 71.823-2.624 22.293-5.768 42.943-9.327 62.49-3.668 19.517-6.76 38.556-14.675 55.419-7.931 16.855-21.442 30.979-35.105 43.091-13.635 12.212-27.054 22.681-36.27 34.122-9.243 11.42-13.822 24.345-15.038 37.953-1.28 13.544.492 27.655 1.464 39.932.948 12.244 1.232 22.71-1.164 29.111-2.364 6.382-7.735 8.598-16.65 4.967z"/></g><g opacity=".5"><path fill="none" stroke="#fff" stroke-miterlimit="20" stroke-width="1.14" d="M494.733 225.994c-45.103-16.778-77.452-41.677-104.748-61.71-27.36-19.961-50.46-35.444-72.584-41.786-22.051-6.405-42.11-5.042-60.709-2.575-18.51 2.304-35.433 5.155-49.976 2.911-14.514-2.179-26.556-9.484-35.197-22.736-8.67-13.223-13.99-32.472-15.183-53.869-1.22-21.472.889-45.672 6.165-69.863 5.253-24.22 12.158-48.36 19.227-72.955 7.045-24.539 13.719-49.442 25.26-80.671 8.366-22.428 17.343-46.036 30.185-67.768 12.87-21.733 28.144-41.246 41.314-58.392 13.19-17.206 24.22-32.353 31.473-46.923 7.27-14.52 9.222-29.306 12.814-42.246 3.569-12.903 8.974-23.16 16.419-31.16 7.437-8.026 16.846-13.868 27.932-17.327 11.094-3.466 24.096-4.466 38.874-3.662 14.774.787 31.469 3.443 50.592 8.269 19.103 4.822 40.77 11.832 64.746 22.604 20.991 9.273 38.174 26.918 48.984 48.667 10.877 21.688 17.778 45.688 23.907 68.336 6.137 22.628 11.586 44.248 16.239 67.028 4.676 22.82 7.665 48.935 8.357 74.026.72 25.183-.856 48.78-3.16 70.791-2.325 22.025-4.921 42.461-7.998 61.927-3.192 19.425-5.829 38.55-13.99 55.408-8.177 16.866-22.075 31.013-35.91 43.213-13.806 12.276-27.196 22.904-36.065 34.612-8.901 11.692-12.754 25.071-13.274 39.062-.584 13.931 1.856 28.394 3.472 41.026 1.589 12.607 2.009 23.296-.328 29.993-2.304 6.678-7.709 9.149-16.838 5.77z"/></g><g opacity=".5"><path fill="none" stroke="#fff" stroke-miterlimit="20" stroke-width="1.15" d="M503.593 232.722c-46.48-15.62-80.202-40.518-108.37-60.833-28.231-20.267-51.562-36.515-73.848-43.417-22.214-6.959-42.275-5.887-60.884-3.604-18.513 2.148-35.458 4.98-50.078 2.776-14.592-2.152-26.78-9.43-35.598-22.79-8.842-13.35-14.436-32.889-15.852-55-1.449-22.19.504-47.048 5.833-71.802 5.306-24.75 12.544-49.292 20.174-74.138 7.602-24.778 15.156-49.82 27.32-80.72 8.782-22.135 17.808-45.281 30.396-66.576 12.627-21.315 27.607-40.402 40.639-57.218 13.052-16.872 24.099-31.729 31.553-45.997 7.466-14.217 9.902-28.59 13.487-41.45 3.557-12.837 8.967-22.998 16.38-30.864 7.407-7.867 16.75-13.533 27.752-16.692 11.02-3.172 24.127-4.007 38.847-2.984 14.728 1.016 31.357 3.931 50.35 9.034 18.973 5.103 40.45 12.425 64.077 23.358 20.714 9.41 36.626 27.202 46.901 48.457 10.339 21.19 17.053 44.409 23.203 66.44 6.15 22.006 11.803 43.125 16.616 65.716 4.841 22.622 7.814 48.832 8.734 73.574.973 24.81-.8 47.988-2.772 69.743-1.973 21.759-3.985 42.002-6.558 61.373-2.693 19.347-4.945 38.53-13.404 55.406-8.474 16.888-22.786 31.073-36.798 43.35-13.988 12.365-27.331 23.11-35.842 35.115-8.542 11.973-11.647 25.774-11.479 40.147.1 14.296 3.185 29.069 5.418 42.045 2.204 12.945 3.109 23.975.82 30.945-2.249 6.954-7.682 9.738-17.017 6.606z"/></g><g opacity=".5"><path fill="none" stroke="#fff" stroke-miterlimit="20" stroke-width="1.16" d="M512.426 238.942c-47.772-14.357-82.868-39.155-111.939-59.728-29.146-20.517-52.766-37.558-75.223-45.063-22.392-7.54-42.441-6.828-61.051-4.716-18.51 1.948-35.448 4.788-50.136 2.6-14.655-2.124-26.979-9.356-35.964-22.83-9-13.412-14.59-32.881-16.426-55.887-1.86-23.029.092-48.539 5.418-73.872 5.302-25.346 12.824-50.283 20.961-75.365 8.105-25.017 16.475-50.163 29.222-80.745 9.17-21.83 18.286-44.558 30.65-65.444 12.404-20.901 27.1-39.614 39.999-56.1 12.912-16.544 23.964-31.11 31.605-45.094 7.65-13.933 10.64-27.822 14.188-40.622 3.514-12.79 8.913-22.862 16.278-30.578 7.346-7.74 16.439-13.157 27.663-16.045 11.22-2.9 24.024-3.62 38.687-2.352 14.66 1.244 31.202 4.408 50.043 9.792 18.822 5.372 40.079 13.013 63.327 24.058 20.405 9.512 35.005 27.353 44.79 48.107 9.848 20.673 16.426 43.134 22.624 64.572 6.194 21.397 12.08 42.058 17.05 64.503 4.998 22.51 8.285 48.823 9.081 73.037.832 24.313-.776 47.287-2.335 68.756-1.576 21.486-2.955 41.499-5.015 60.82C613.748.016 611.797 19.272 603 36.177c-8.813 16.901-23.556 31.162-37.744 43.507-14.163 12.445-27.446 23.341-35.568 35.63-8.153 12.253-10.496 26.498-9.66 41.203.76 14.645 4.47 29.714 7.289 42.998 2.795 13.261 4.526 24.686 2.283 31.942-2.203 7.237-7.657 10.353-17.174 7.485z"/></g><g opacity=".5"><path fill="none" stroke="#fff" stroke-miterlimit="20" stroke-width="1.18" d="M521.987 245.149c-49.025-12.938-85.523-37.535-115.567-58.341-30.12-20.73-54.135-38.535-76.81-46.67-22.615-8.151-42.675-7.823-61.296-5.92-18.52 1.736-35.458 4.54-50.216 2.384-14.722-2.104-27.177-9.295-36.337-22.837-9.173-13.495-14.97-33.176-16.942-56.581-2.007-23.446-.316-49.99 4.966-75.911 5.254-25.953 13.015-51.274 21.62-76.587 8.568-25.237 17.689-50.446 31-80.706 9.536-21.546 18.788-43.823 30.967-64.333 12.22-20.513 26.658-38.839 39.44-54.997 12.788-16.214 23.847-30.508 31.672-44.183 7.825-13.65 11.46-26.992 14.943-39.735 3.45-12.722 8.82-22.713 16.137-30.276 7.297-7.587 16.458-12.715 27.625-15.41 11.164-2.696 23.915-3.212 38.513-1.732 14.594 1.472 31.044 4.891 49.733 10.539 18.668 5.635 39.704 13.554 62.583 24.693 20.1 9.574 33.363 27.372 42.723 47.59 9.42 20.137 15.922 41.847 22.2 62.696 6.281 20.822 12.41 41.047 17.549 63.353 5.154 22.397 8.6 48.61 9.304 72.391.732 23.921-.636 46.546-1.747 67.744-1.128 21.205-1.844 40.979-3.375 60.229-1.651 19.205-3.399 38.499-12.591 55.44-9.2 16.943-24.414 31.245-38.785 43.664-14.35 12.53-27.573 23.569-35.282 36.135-7.749 12.547-9.312 27.197-7.837 42.2 1.404 14.945 5.71 30.272 9.093 43.846 3.358 13.546 5.71 25.305 3.922 32.916-1.763 7.583-7.517 10.97-17.205 8.399z"/></g><g opacity=".5"><path fill="none" stroke="#fff" stroke-miterlimit="20" stroke-width="1.19" d="M531.794 251.352c-50.219-11.428-88.135-35.706-119.212-56.697-31.14-20.902-55.55-39.137-78.58-48.233-22.953-9.147-42.975-8.931-61.629-7.247-18.542 1.512-35.48 4.263-50.31 2.12-14.79-2.1-27.378-9.232-36.713-22.843-9.347-13.56-15.358-33.454-17.482-57.24-2.164-23.823-.156-51.21 4.608-77.84 4.727-26.634 13.066-52.332 22.097-77.883 8.983-25.454 18.802-50.709 32.645-80.659 9.879-21.254 19.298-43.133 31.325-63.272 12.066-20.135 26.28-38.105 38.956-53.952 12.682-15.903 23.75-29.915 31.752-43.302 8.02-13.363 13.003-26.234 15.863-38.81 2.86-12.575 8.615-22.55 15.85-29.993 7.24-7.444 16.498-12.296 27.601-14.812 11.099-2.515 23.801-2.827 38.32-1.12 14.522 1.704 30.88 5.38 49.41 11.268 18.515 5.895 39.32 14.075 61.834 25.262 19.798 9.616 31.709 27.27 40.704 46.957 9.059 19.587 15.522 40.558 21.922 60.865 6.399 20.258 12.802 40.093 18.114 62.308 5.323 22.302 8.747 48.285 9.41 71.7.685 23.55-.387 45.844-1 66.74-.635 20.918-.64 40.46-1.639 59.643-1.112 19.12-2.776 38.494-12.419 55.477-9.639 16.995-25.349 31.342-39.907 43.845-14.547 12.615-27.694 23.803-34.973 36.666-7.319 12.84-8.115 27.866-6.007 43.17 2.024 15.226 6.9 30.801 10.819 44.636 3.895 13.796 6.759 25.855 5.487 33.814-1.24 7.956-7 11.684-16.846 9.432z"/></g><g opacity=".5"><path fill="none" stroke="#fff" stroke-miterlimit="20" stroke-width="1.2" d="M541.806 257.03c-51.324-9.794-90.632-33.661-122.78-54.783-32.205-21.01-57.289-39.831-80.505-49.706-23.144-9.979-43.332-10.163-62.012-8.734-18.564 1.248-35.5 3.94-50.393 1.796-14.848-2.088-27.556-9.162-37.068-22.846-9.516-13.616-15.748-33.694-18.032-57.86-2.328-24.191-.556-52.343 4.292-79.627 4.82-27.32 13.06-53.495 22.452-79.27 9.352-25.691 19.808-50.982 34.144-80.623 10.193-20.973 19.793-42.463 31.697-62.273 11.94-19.806 25.952-37.419 38.528-52.97 12.584-15.605 23.66-29.341 31.828-42.445 8.184-13.091 13.492-25.635 16.788-37.89 3.296-12.236 8.404-22.383 15.576-29.685 7.168-7.318 16.54-11.919 27.564-14.244 11.024-2.34 23.66-2.448 38.097-.524 14.432 1.925 30.696 5.842 49.052 11.988 18.348 6.173 39.384 14.348 61.016 25.79 19.032 9.896 30.056 27.06 38.748 46.186 8.748 19.025 15.22 39.299 21.772 59.092 6.552 19.75 13.236 39.215 18.724 61.365 5.496 22.255 8.733 47.922 9.409 70.968.692 23.19-.032 45.129-.092 65.739-.1 20.606.648 39.93.18 59.072-.572 19.07-2.284 38.52-12.417 55.56-10.128 17.045-26.34 31.46-41.088 44.056-14.736 12.716-27.788 24.059-34.604 37.223-6.856 13.127-6.884 28.536-4.176 44.112 2.624 15.496 8.032 31.285 12.456 45.365 4.4 14.048 7.748 26.351 6.968 34.641-.752 8.307-6.136 12.464-16.124 10.527z"/></g><g opacity=".5"><path fill="none" stroke="#fff" stroke-miterlimit="20" stroke-width="1.22" d="M551.896 262.696c-47.102-7.262-84.7-27.007-116.032-46.195-31.352-19.105-56.216-37.717-78.365-50.112-22.125-12.427-41.746-17.2-59.592-17.844-17.77-.792-34.011 1.768-48.877 2.349-14.822.56-28.208-1.045-39.523-7.778-11.298-6.69-20.48-18.48-26.764-35.188-6.295-16.684-9.635-38.161-9.739-62.05-.136-23.927 2.916-50.133 8.455-74.894 5.515-24.806 13.334-48.432 22.381-71.785 9.023-23.306 19.23-46.37 32.528-72.757 10.478-20.693 20.257-41.81 32.06-61.282 11.841-19.477 25.668-36.753 38.158-52.008 12.494-15.308 23.577-28.771 31.907-41.582 8.347-12.807 13.958-25.058 17.678-36.965 3.72-11.898 8.275-22.157 15.366-29.319 7.087-7.161 16.561-11.534 27.496-13.695 10.938-2.168 23.5-2.096 37.839.068 14.338 2.129 30.48 6.318 48.653 12.68 18.165 6.42 39.53 14.79 60.052 26.23 18.073 9.946 28.516 26.73 36.95 45.274 8.487 18.428 15.01 38.037 21.741 57.337 6.727 19.233 13.718 38.345 19.378 60.49 5.67 22.21 8.57 47.427 9.306 70.14.752 22.814.432 44.411.968 64.704.488 20.3 2.016 39.369 2.08 58.461-.032 19.017-1.928 38.513-12.606 55.645-10.65 17.12-27.384 31.588-42.314 44.27-14.922 12.816-27.852 24.306-34.176 37.777-6.359 13.432-5.63 29.187-2.351 44.999 3.195 15.732 9.11 31.735 14.006 46.01 4.871 14.256 8.667 26.783 8.359 35.389-.276 8.59-4.916 13.203-15.022 11.63z"/></g><g opacity=".5"><path fill="none" stroke="#fff" stroke-miterlimit="20" stroke-width="1.23" d="M562.087 267.843c-46.308-5.095-86.65-24.516-118.984-43.653-32.394-18.99-58.106-37.966-80.698-50.913-22.58-12.974-42.373-18.6-60.302-19.66-17.85-1.188-34.09 1.14-48.976 1.631-14.841.468-28.267-1.128-39.681-7.839-11.398-6.659-20.733-18.46-27.192-35.274-6.47-16.782-10.006-38.519-10.238-62.751-.268-24.296 2.844-51.004 8.33-76.365 5.468-25.388 13.322-49.384 22.649-72.889 9.298-23.452 19.972-46.489 33.646-72.589 10.73-20.405 20.685-41.142 32.423-60.31 11.774-19.182 25.435-36.1 37.853-51.07 12.418-15.009 23.516-28.183 32.003-40.725 8.503-12.51 14.41-24.456 18.533-36.03 4.115-11.543 7.975-21.957 15.27-28.896 7.274-6.935 16.509-11.215 27.355-13.182 10.842-2 23.324-1.704 37.558.64 14.233 2.34 30.25 6.75 48.231 13.338 17.977 6.663 39.49 15.177 58.975 26.564 17.169 9.926 27.1 26.304 35.33 44.253 8.274 17.861 14.901 36.802 21.836 55.612 6.93 18.749 14.238 37.546 20.077 59.679 5.855 22.18 8.274 46.869 9.114 69.221.872 22.453 1.012 43.662 2.188 63.615 1.116 19.98 3.467 38.774 4.047 57.831.508 18.977-1.744 38.538-13.002 55.744-11.218 17.19-28.479 31.715-43.584 44.493-15.102 12.902-27.888 24.56-33.679 38.342-5.83 13.734-4.375 29.796-.544 45.826 3.744 15.933 10.13 32.13 15.466 46.577 5.307 14.441 9.518 27.164 9.658 36.042.156 8.87-3.811 13.862-13.662 12.738z"/></g><g opacity=".5"><path fill="none" stroke="#fff" stroke-miterlimit="20" stroke-width="1.24" d="M572.806 272.94c-44.565-2.988-88.17-21.778-121.51-40.777-33.463-18.81-60.091-38.12-83.202-51.61-23.107-13.508-43.133-20.043-61.165-21.563-17.96-1.636-34.216.472-49.135.84-14.875.34-28.345-1.236-39.859-7.94-11.497-6.65-20.986-18.437-27.629-35.356-6.65-16.886-10.393-38.832-10.769-63.426-.412-24.641 2.61-51.847 8.2-77.776 5.579-25.99 13.33-50.296 22.89-74.001 9.541-23.642 20.639-46.62 34.657-72.466 10.965-20.142 21.078-40.512 32.78-59.402 11.737-18.906 25.271-35.509 37.633-50.195 12.366-14.723 23.483-27.646 32.127-39.9 8.66-12.247 14.855-23.882 19.373-35.117 4.514-11.207 8.256-21.57 15.42-28.386 7.15-6.81 16.275-10.939 27.032-12.758 10.753-1.832 23.147-1.36 37.278 1.196 14.13 2.551 30.022 7.195 47.81 13.974 17.788 6.896 39.299 15.543 57.823 26.802 17.705 10.683 27.425 28.441 35.897 47.531 8.524 18.958 15.863 38.713 23.667 58.823 7.788 20.142 16.556 41.932 21.086 66.97 4.534 25.073 4.99 49.675 5.923 72.72.948 23.058 2.761 44.396 5.334 64.958 2.361 20.55 6.471 41.324 2.121 61.85-4.346 20.519-20.205 39.34-37.51 54.871-17.235 15.75-35.076 28.498-45.453 42.5-10.424 13.983-11.957 30.613-8.888 48.048 2.962 17.322 10.069 35.32 16.58 51.743 6.471 16.39 12.278 31.153 13.578 41.728 1.329 10.563-1.909 16.87-12.09 16.118z"/></g><g opacity=".5"><path fill="none" stroke="#fff" stroke-miterlimit="20" stroke-width="1.25" d="M582.488 277.49c-42.758-1.023-89.073-18.79-123.42-37.575-34.51-18.53-62.085-38.15-85.751-52.154-23.678-14.035-43.963-21.516-62.11-23.52-18.08-2.09-34.343-.275-49.285-.035-14.894.203-28.4-1.38-40.004-8.074-11.585-6.65-21.217-18.417-28.04-35.415-6.827-16.975-10.777-39.091-11.309-64.018-.568-24.956 2.39-52.626 8.011-79.097 5.607-26.51 13.522-51.254 23.17-75.058 9.624-23.756 21.153-46.744 35.47-72.311 11.162-19.865 21.398-39.874 33.083-58.52 11.717-18.634 25.138-34.928 37.455-49.343 12.317-14.451 23.458-27.095 32.25-39.075 8.807-11.947 15.278-23.315 20.176-34.196 4.894-10.856 8.568-21.124 15.599-27.838 7.015-6.698 16.03-10.68 26.679-12.352 10.644-1.66 22.941-1.028 36.951 1.736 14.006 2.755 29.757 7.617 47.332 14.567 17.575 7.07 38.92 15.842 56.544 26.918 16.859 10.553 26.186 27.787 34.586 46.236 8.46 18.338 16.039 37.427 24.142 57.153 8.087 19.793 17.215 41.861 21.44 66.377 4.223 24.611 4.803 48.807 6.208 71.435 1.416 22.636 4.077 43.541 7.479 63.826 3.165 20.273 8.215 41.058 3.309 61.667-4.918 20.589-21.629 39.534-39.38 55.157-17.696 15.834-35.635 28.69-45.64 42.953-10.056 14.247-10.7 31.27-7.046 48.931 3.541 17.542 11.112 35.7 18.035 52.266 6.883 16.534 13.054 31.477 14.766 42.27 1.749 10.776-1.02 17.385-10.7 17.09z"/></g><g opacity=".5"><path fill="none" stroke="#fff" stroke-miterlimit="20" stroke-width="1.27" d="M592.293 281.97c-40.932.824-89.401-15.612-124.753-34.096-35.532-18.18-64.09-38.08-88.357-52.577-24.29-14.492-44.893-23.022-63.17-25.53-18.215-2.603-34.497-1.076-49.462-1-14.918.036-28.451-1.551-40.14-8.258-11.666-6.646-21.439-18.38-28.435-35.472-7.001-17.048-11.165-39.343-11.862-64.578-.736-25.27 2.105-53.36 7.77-80.37 5.64-27.054 13.769-52.26 23.538-76.171 9.749-23.859 21.41-46.754 36.047-72.1 11.374-19.616 21.655-39.308 33.344-57.704 11.717-18.392 25.047-34.412 37.328-48.549 12.281-14.177 23.446-26.578 32.383-38.28 8.95-11.677 15.686-22.743 20.946-33.296 5.257-10.53 8.91-20.66 15.81-27.266 6.885-6.595 15.774-10.474 26.307-11.974 10.529-1.531 22.718-.683 36.592 2.252 13.873 2.935 29.47 8.014 46.817 15.129 17.35 7.25 38.388 16.044 55.177 26.922 16.07 10.401 25.067 27.058 33.448 44.906 8.429 17.724 16.294 36.204 24.718 55.568 8.405 19.455 17.65 41.758 21.63 65.793 3.97 24.17 4.737 47.977 6.677 70.173 1.94 22.223 5.509 42.658 9.765 62.674 3.997 20.003 9.861 40.827 4.325 61.546-5.557 20.704-23.15 39.795-41.34 55.5-18.142 15.932-36.152 28.91-45.75 43.446-9.652 14.51-9.396 31.953-5.184 49.805 4.093 17.76 12.094 36.044 19.386 52.749 7.253 16.676 13.746 31.76 15.838 42.758 2.116 11.002-.204 17.888-9.393 18z"/></g><g opacity=".5"><path fill="none" stroke="#fff" stroke-miterlimit="20" stroke-width="1.28" d="M601.234 286.215c-39.117 2.54-89.173-12.268-125.52-30.364-36.525-17.757-66.098-37.877-91.008-52.842-24.954-14.956-45.922-24.504-64.355-27.58-18.373-3.148-34.679-1.948-49.673-2.06-14.942-.152-28.497-1.788-40.264-8.493-11.74-6.652-21.644-18.384-28.813-35.528-7.173-17.113-11.552-39.565-12.427-65.094-.912-25.548 1.791-54.053 7.477-81.574 5.658-27.576 13.974-53.269 23.85-77.278 9.857-23.952 21.548-46.693 36.335-71.793 11.447-19.393 22.047-38.833 33.762-57.002 11.74-18.164 25.019-33.924 37.27-47.8 12.255-13.913 23.447-26.077 32.527-37.501 9.093-11.425 16.146-22.173 21.724-32.401 5.574-10.208 9.24-20.149 16.01-26.673 6.75-6.508 15.514-10.26 25.926-11.62 10.408-1.384 22.475-.4 36.21 2.748 13.73 3.12 29.157 8.412 46.27 15.652 17.113 7.388 37.725 16.16 53.74 26.809 15.337 10.188 24.062 26.273 32.47 43.549 8.453 17.148 16.626 35.037 25.387 54.061 8.744 19.133 17.865 41.613 21.655 65.202 3.783 23.752 4.802 47.145 7.33 68.897 2.518 21.785 7.06 41.737 12.187 61.494 4.854 19.724 11.375 40.625 5.134 61.477-6.266 20.837-24.75 40.077-43.371 55.89-18.585 16.036-36.63 29.136-45.77 43.972-9.197 14.809-8.054 32.605-3.315 50.658 4.61 17.948 13.003 36.356 20.624 53.177 7.585 16.788 14.35 31.993 16.79 43.193 2.45 11.172.543 18.344-8.162 18.824z"/></g><g opacity=".5"><path fill="none" stroke="#fff" stroke-miterlimit="20" stroke-width="1.29" d="M610.758 290.217c-37.355 4.162-88.499-8.794-125.854-26.404-37.52-17.233-68.163-37.532-93.787-52.94-25.684-15.39-47.104-25.965-65.735-29.646-18.58-3.73-34.936-2.909-49.976-3.225-14.983-.356-28.575-2.065-40.427-8.787-11.824-6.662-21.86-18.37-29.212-35.587-7.352-17.161-11.948-39.764-13.016-65.553-1.104-25.812 1.456-54.7 7.14-82.71 5.656-28.068 14.152-54.265 24.124-78.372 9.956-24.044 21.664-46.599 36.56-71.443 12.951-21.502 25.043-43.345 38.591-62.92 13.596-19.582 28.668-36.035 41.876-50.46 13.22-14.456 24.571-27.088 33.415-39.06 8.864-11.951 15.28-23.315 20.696-33.546 5.404-10.24 12.94-17.157 23.08-20.635 10.12-3.497 22.443-3.785 36.807-1.28 14.368 2.48 30.824 7.766 49.367 15.525 18.548 7.966 41.32 17.601 58.564 29.241 14.688 9.963 23.211 25.468 31.687 42.173 8.524 16.57 17.048 33.911 26.176 52.617 9.112 18.814 17.896 41.42 21.56 64.596 3.66 23.336 4.988 46.303 8.176 67.601 3.164 21.327 8.736 40.777 14.755 60.275 5.74 19.447 12.752 40.437 5.732 61.468-7.04 21.018-26.463 40.416-45.511 56.325-19.028 16.161-37.096 29.39-45.735 44.538-8.7 15.105-6.684 33.255-1.448 51.48 5.108 18.118 13.86 36.632 21.771 53.561 7.88 16.906 14.888 32.215 17.632 43.57 2.76 11.364 1.244 18.782-7.008 19.598z"/></g><g opacity=".5"><path fill="none" stroke="#fff" stroke-miterlimit="20" stroke-width="1.31" d="M619.92 293.996c-35.64 5.652-87.309-5.248-125.636-22.24-38.463-16.593-70.197-37.02-96.573-52.82-26.453-15.777-48.39-27.381-67.245-31.693-18.811-4.372-35.234-3.928-50.325-4.488-15.034-.616-28.657-2.396-40.591-9.132-11.906-6.692-22.068-18.384-29.593-35.625-7.526-17.204-12.347-39.904-13.611-65.924-1.3-26.04 1.088-55.264 6.753-83.713 5.633-28.5 14.29-55.228 24.34-79.392 10.035-24.12 21.733-46.46 36.691-71 12.967-21.185 25.345-42.717 38.88-62.077 13.578-19.36 28.677-35.565 41.98-49.733 13.317-14.176 24.828-26.524 33.901-38.188 9.094-11.64 15.807-22.632 21.544-32.5 5.721-9.852 12.79-16.932 22.796-20.28 9.982-3.369 22.172-3.497 36.379-.82 14.214 2.647 30.493 8.144 48.793 16.028 18.295 8.072 40.467 17.604 57.006 28.904 14.099 9.668 22.472 24.608 31.062 40.752a3064.361 3064.361 0 0 1 27.049 51.205c9.505 18.5 17.73 41.192 21.32 63.936 3.596 22.912 5.305 45.436 9.213 66.229 3.865 20.832 10.53 39.772 17.451 58.984 6.65 19.156 13.947 40.28 6.082 61.493-7.878 21.188-28.238 40.736-47.705 56.764-19.456 16.288-37.499 29.648-45.592 45.108-8.15 15.42-5.293 33.86.408 52.245 5.573 18.26 14.642 36.864 22.804 53.86 8.13 16.988 15.343 32.36 18.355 43.865 3.037 11.488 1.868 19.1-5.937 20.252z"/></g><g opacity=".5"><path fill="none" stroke="#fff" stroke-miterlimit="20" stroke-width="1.32" d="M628.701 297.041c-33.98 7.023-85.62-1.631-124.866-17.915-39.342-15.872-72.183-36.36-99.339-52.507-27.252-16.133-49.767-28.701-68.882-33.716-19.079-5.055-35.573-5.035-50.723-5.863-15.09-.896-28.749-2.763-40.754-9.546-11.978-6.734-22.264-18.395-29.965-35.667-7.697-17.24-12.738-40.022-14.21-66.248-1.508-26.253.696-55.778 6.317-84.635 5.585-28.933 14.39-56.187 24.5-80.4 10.097-24.179 21.763-46.318 36.737-70.528 12.934-20.85 25.576-42.07 39.102-61.22 13.558-19.168 28.692-35.156 42.094-49.057 13.414-13.937 25.092-25.994 34.39-37.359 9.316-11.325 16.321-21.987 22.366-31.5 6.03-9.498 12.726-16.656 22.592-19.9 9.841-3.25 21.887-3.227 35.933-.391 14.05 2.823 30.14 8.494 48.183 16.472 18.035 8.194 39.514 17.511 55.42 28.437 13.562 9.373 21.836 23.738 30.589 39.334 8.797 15.464 18.102 31.74 28.008 49.864 9.921 18.192 17.386 40.906 20.951 63.26 3.605 22.48 5.753 44.546 10.438 64.817 4.628 20.327 12.445 38.71 20.263 57.666 7.56 18.883 14.946 40.174 6.172 61.593-8.773 21.407-30.076 41.094-49.927 57.246-19.855 16.416-37.837 29.925-45.319 45.721-7.54 15.752-3.892 34.472 2.245 52.971 6 18.396 15.346 37.043 23.72 54.12 8.34 17.035 15.702 32.463 18.95 44.1 3.249 11.622 2.392 19.4-4.985 20.851z"/></g><g opacity=".5"><path fill="none" stroke="#fff" stroke-miterlimit="20" stroke-width="1.33" d="M637.135 300.343c-32.387 8.279-83.476 1.957-123.57-13.475-40.159-15.068-74.097-35.558-102.064-52.022-28.083-16.449-51.234-29.972-70.649-35.718-19.383-5.79-35.97-6.238-51.19-7.366-15.155-1.18-28.842-3.197-40.926-10.039-12.051-6.798-22.455-18.425-30.322-35.757-7.864-17.261-13.128-40.155-14.816-66.574-1.72-26.436.28-56.276 5.84-85.544 5.512-29.343 14.448-57.143 24.607-81.446 10.144-24.27 21.755-46.184 36.702-70.079 12.868-20.505 25.727-41.387 39.247-60.384 13.543-19.013 28.714-34.805 42.218-48.477 13.511-13.716 25.359-25.523 34.874-36.594 9.54-11.055 16.823-21.386 23.163-30.56 6.324-9.175 12.748-16.365 22.471-19.505 9.696-3.157 21.591-2.985 35.467.008 13.879 2.968 29.774 8.822 47.545 16.88 17.768 8.242 38.483 17.313 53.818 27.868 13.083 9.042 21.315 22.874 30.259 37.95 8.991 14.948 18.723 30.744 29.042 48.617 10.364 17.889 16.86 40.615 20.463 62.61 3.668 22.073 6.328 43.639 11.852 63.4 5.452 19.81 14.467 37.63 23.187 56.355 8.48 18.625 15.723 40.155 5.983 61.825-9.711 21.642-31.95 41.52-52.17 57.808-20.23 16.552-38.097 30.256-44.91 46.408-6.863 16.105-2.487 35.074 4.045 53.703 6.403 18.529 15.975 37.262 24.519 54.375 8.511 17.088 15.979 32.588 19.419 44.324 3.44 11.727 2.876 19.693-4.104 21.41z"/></g><g opacity=".5"><path fill="none" stroke="#fff" stroke-miterlimit="20" stroke-width="1.35" d="M645.21 303.363c-30.879 9.44-80.913 5.528-121.772-8.928-40.882-14.156-75.923-34.529-104.723-51.28-28.9-16.725-52.085-30.121-72.409-37.445-20.25-7.38-36.536-7.704-51.85-9.152-15.233-1.524-28.955-3.704-41.11-10.596-12.122-6.86-22.634-18.48-30.67-35.832-8.029-17.285-13.515-40.233-15.418-66.809-1.939-26.6-.156-56.693 5.314-86.3 5.418-29.709 14.462-58.037 24.657-82.401 10.18-24.337 21.707-45.993 36.589-69.557 12.766-20.156 25.797-40.628 39.307-59.469 13.526-18.864 28.74-34.436 42.342-47.908 13.618-13.488 25.625-25.044 35.36-35.84 9.756-10.756 17.313-20.78 23.934-29.632 6.605-8.825 12.855-16.037 22.426-19.069 9.548-3.052 21.291-2.776 34.985.372 13.698 3.112 29.388 9.12 46.892 17.213 17.493 8.268 37.384 17 52.222 27.16 12.662 8.7 20.899 21.968 30.07 36.544 9.22 14.42 19.404 29.768 30.156 47.388 10.831 17.573 16.169 40.265 19.86 61.885 3.794 21.644 7.028 42.68 13.453 61.88 6.334 19.26 16.605 36.489 26.205 54.973 9.392 18.376 16.257 40.192 5.498 62.104-10.7 21.9-33.862 41.933-54.413 58.365-20.567 16.708-38.275 30.584-44.345 47.104-6.117 16.464-1.091 35.625 5.798 54.349 6.765 18.632 16.533 37.384 25.193 54.548 8.632 17.148 16.173 32.645 19.763 44.473 3.607 11.804 3.287 19.904-3.314 21.86z"/></g><g opacity=".5"><path fill="none" stroke="#fff" stroke-miterlimit="20" stroke-width="1.36" d="M653.356 306.076c-29.499 10.485-78.044 9.077-119.61-4.326-41.55-13.115-77.704-33.344-107.387-50.294-29.786-16.946-53.653-30.93-74.348-39.058-20.623-8.197-37.222-9.257-52.642-11.088-15.339-1.884-29.106-4.25-41.35-11.232-12.207-6.946-22.83-18.57-31.038-35.931-8.195-17.286-13.903-40.274-16.04-66.997-2.163-26.718-.607-57.043 4.757-86.965 5.303-30.02 14.451-58.903 24.674-83.318 10.212-24.403 21.651-45.811 36.443-69.007 12.643-19.785 25.802-39.814 39.314-58.515 13.519-18.738 28.79-34.132 42.51-47.387 13.735-13.284 25.922-24.608 35.882-35.116 9.98-10.496 17.803-20.209 24.702-28.738 6.884-8.52 13.04-15.658 22.48-18.601 9.407-2.963 21.002-2.563 34.522.7 13.527 3.23 29.01 9.376 46.257 17.481 17.227 8.27 36.27 16.583 50.682 26.335 12.311 8.35 20.607 21.089 30.05 35.156 9.46 13.979 20.915 28.034 31.319 46.279 10.447 18.186 15.35 39.854 19.23 61.054 3.988 21.189 7.868 41.685 15.264 60.29 7.28 18.674 18.863 35.284 29.334 53.562 10.3 18.153 16.54 40.297 4.716 62.477-11.74 22.156-35.826 42.365-56.693 58.951-20.887 16.85-38.394 30.937-43.658 47.84-5.296 16.857.276 36.138 7.496 54.948 7.103 18.721 17.023 37.506 25.77 54.676 8.716 17.146 16.292 32.673 20.003 44.564 3.716 11.864 3.616 20.085-2.64 22.26z"/></g><g opacity=".5"><path fill="none" stroke="#fff" stroke-miterlimit="20" stroke-width="1.37" d="M661.13 308.976c-28.218 11.438-74.83 12.506-116.992.3-42.115-11.987-79.35-31.944-109.923-49.102-30.69-17.126-55.276-31.656-76.385-40.583-21.046-8.967-37.983-10.915-53.52-13.147-15.457-2.295-29.278-4.855-41.607-11.962-12.284-7.051-23.025-18.694-31.394-36.08-8.356-17.346-14.289-40.343-16.657-67.187-2.396-26.845-1.076-57.377 4.157-87.606 5.168-30.356 14.388-59.752 24.637-84.25 10.233-24.48 21.566-45.662 36.226-68.487 12.49-19.414 25.718-38.96 39.227-57.565 13.505-18.646 28.83-33.88 42.67-46.95 13.854-13.094 26.215-24.21 36.395-34.452 10.2-10.227 18.285-19.661 25.45-27.892 7.152-8.215 13.3-15.246 22.601-18.126 9.269-2.896 20.71-2.376 34.047.992 13.344 3.34 28.621 9.603 45.603 17.694 16.96 8.219 35.11 16.086 49.167 25.424 12.013 7.983 20.405 20.194 30.158 33.812 9.756 13.563 22.185 27.585 32.282 45.387 10.124 17.813 14.64 39.335 18.773 60.088 4.244 20.754 8.845 40.667 17.265 58.665 8.285 18.078 21.23 34.076 32.538 52.17C717.03-21.928 722.39.646 709.465 23.115c-12.805 22.445-37.803 42.87-58.936 59.609-21.166 17.045-38.41 31.336-42.787 48.654-4.4 17.27 1.604 36.643 9.113 55.537 7.4 18.801 17.433 37.627 26.221 54.805 8.76 17.158 16.317 32.696 20.11 44.638 3.796 11.923 3.868 20.238-2.057 22.618z"/></g><g opacity=".5"><path fill="none" stroke="#fff" stroke-miterlimit="20" stroke-width="1.38" d="M668.524 311.046c-27.05 12.295-71.312 15.847-113.948 4.92-42.56-10.744-80.827-30.366-112.296-47.645-31.588-17.243-56.934-32.319-78.503-41.974-21.514-9.728-38.816-12.623-54.486-15.311-15.59-2.732-29.477-5.552-41.884-12.775-12.37-7.188-23.213-18.863-31.748-36.258-8.52-17.347-14.667-40.398-17.27-67.34-2.628-26.967-1.564-57.65 3.519-88.152 5.007-30.638 14.286-60.572 24.55-85.135 10.242-24.578 21.453-45.497 35.952-67.956 12.302-19.035 25.54-38.046 39.031-56.569 13.483-18.567 28.865-33.65 42.82-46.55 13.966-12.922 26.505-23.798 36.896-33.817 10.41-9.996 18.758-19.135 26.173-27.079 7.403-7.927 13.63-14.803 22.785-17.615 9.132-2.835 20.406-2.215 33.56 1.244 13.16 3.432 28.218 9.784 44.932 17.835 16.694 8.148 33.924 15.491 47.679 24.415 11.763 7.62 20.302 19.319 30.389 32.49 10.079 13.16 23.305 27.067 33.104 44.498 9.815 17.49 13.999 38.79 18.446 59.092 4.572 20.263 9.951 39.586 19.462 56.953 9.351 17.463 23.682 32.794 35.792 50.757 12.027 17.803 16.242 40.854 2.196 63.62-13.899 22.775-39.768 43.358-61.125 60.29-21.39 17.222-38.308 31.77-41.712 49.512-3.408 17.703 2.876 37.102 10.63 56.061 7.66 18.891 17.763 37.71 26.55 54.889 8.76 17.163 16.262 32.702 20.09 44.673 3.827 11.992 4.047 20.38-1.584 22.927z"/></g><g opacity=".5"><path fill="none" stroke="#fff" stroke-miterlimit="20" stroke-width="1.4" d="M675.98 313.33c-26.013 13.086-67.62 19.005-110.62 9.498-42.913-9.414-82.2-28.583-114.587-45.92-32.517-17.298-58.674-32.855-80.763-43.233-22.044-10.419-39.767-14.386-55.604-17.566-15.758-3.223-29.724-6.307-42.232-13.681-12.465-7.331-23.425-19.041-32.124-36.47-8.683-17.366-15.054-40.43-17.895-67.454-2.869-27.011-2.065-57.898 2.857-88.606 4.834-30.887 14.153-61.314 24.425-85.97 10.248-24.672 21.344-45.324 35.654-67.413 12.108-18.665 25.293-37.05 38.77-55.523 13.457-18.501 28.91-33.475 42.988-46.193 14.093-12.762 26.814-23.432 37.426-33.21 10.632-9.75 19.231-18.63 26.902-26.292 7.66-7.65 14.037-14.314 23.057-17.081 9-2.796 20.12-2.08 33.092 1.455 12.981 3.512 27.827 9.935 44.289 17.902 16.438 8.034 32.756 14.801 46.273 23.316 11.58 7.239 20.304 18.457 30.768 31.19 10.44 12.775 24.285 26.529 33.808 43.634 9.528 17.217 13.445 38.246 18.279 58.058 4.962 19.777 11.212 38.454 21.872 55.152 10.472 16.813 26.258 31.495 39.115 49.344 12.825 17.68 15.65 41.285.452 64.35-15.022 23.088-41.752 43.864-63.3 60.998-21.584 17.425-38.118 32.222-40.459 50.416-2.325 18.145 4.066 37.514 12.04 56.53 7.892 18.941 18.027 37.766 26.77 54.944 8.72 17.145 16.127 32.658 19.964 44.66 3.822 12.003 4.15 20.461-1.216 23.165z"/></g><g opacity=".5"><path fill="none" stroke="#fff" stroke-miterlimit="20" stroke-width="1.41" d="M683.132 315.862c-25.081 13.784-63.668 21.989-106.845 14-43.073-7.958-83.275-26.595-116.54-43.926-33.397-17.278-60.373-33.296-82.995-44.348-22.59-11.109-40.762-16.179-56.767-19.886-15.937-3.75-29.975-7.141-42.573-14.687-12.555-7.52-23.614-19.269-32.466-36.719-8.836-17.398-15.417-40.438-18.5-67.545-3.106-27.067-2.57-58.056 2.16-88.981 4.633-31.102 13.95-62.003 24.217-86.755 10.24-24.78 21.19-45.16 35.268-66.873 11.87-18.226 24.245-35.644 38.335-54.413 14.054-18.758 28.923-33.297 43.117-45.9 14.198-12.584 27.088-23.1 37.903-32.633 10.835-9.525 19.675-18.142 27.58-25.536 7.896-7.369 14.481-13.799 23.362-16.514 8.86-2.739 19.81-1.967 32.585 1.628 12.782 3.562 27.396 10.044 43.589 17.89 16.169 7.88 31.546 14.039 44.872 22.14 11.427 6.857 20.37 17.618 31.226 29.926 10.823 12.383 25.08 25.955 34.325 42.789 9.24 16.978 12.962 37.695 18.244 56.972 5.413 19.254 12.59 37.244 24.449 53.262 11.639 16.135 28.887 30.15 42.417 47.94 13.554 17.606 14.73 41.806-1.615 65.194-16.141 23.44-43.657 44.404-65.315 61.738-21.695 17.626-38.02 32.617-38.911 51.383-.84 18.737 5.15 37.895 13.274 56.928 8.076 19.002 18.184 37.807 26.836 54.961 8.632 17.13 15.893 32.605 19.691 44.613 3.799 11.988 4.195 20.513-.923 23.352z"/></g><g opacity=".5"><path fill="none" stroke="#fff" stroke-miterlimit="20" stroke-width="1.42" d="M690.274 318.164c-24.31 14.41-59.684 24.808-102.964 18.407-43.168-6.413-84.27-24.404-118.452-41.683-34.314-17.202-62.185-33.649-85.42-45.355-23.214-11.738-41.907-17.99-58.135-22.26-16.165-4.312-30.316-8.04-43.032-15.806-12.671-7.729-23.846-19.55-32.869-37.046-9.002-17.434-15.796-40.518-19.13-67.666-3.352-27.14-3.096-58.234 1.441-89.35 4.43-31.293 13.732-62.71 24.003-87.55 10.239-24.888 21.062-45.047 34.905-66.387 11.647-17.859 23.775-34.893 37.83-53.312 14.028-18.407 29.016-33.206 43.328-45.676 14.328-12.462 27.404-22.78 38.439-32.113 11.055-9.313 20.141-17.69 28.288-24.824 8.138-7.12 15.008-13.246 23.766-15.938 8.734-2.724 19.537-1.876 32.129 1.756 12.603 3.6 27.011 10.106 42.96 17.819 15.932 7.705 30.396 13.214 43.603 20.923 11.34 6.485 20.562 16.799 31.853 28.709 11.25 12.014 25.759 25.372 34.757 42.01 8.99 16.767 12.604 37.11 18.413 55.861 5.942 18.731 14.144 35.998 27.264 51.316 12.883 15.439 31.636 28.801 45.784 46.592 14.22 17.599 13.512 42.487-4 66.206-17.294 23.812-45.597 44.987-67.34 62.554-21.785 17.84-36.901 33.434-37.205 52.429-.248 18.959 6.101 38.226 14.388 57.325 8.234 19.07 18.289 37.874 26.819 54.996 8.51 17.119 15.596 32.545 19.325 44.563 3.725 11.986 4.165 20.56-.748 23.5z"/></g><g opacity=".5"><path fill="none" stroke="#fff" stroke-miterlimit="20" stroke-width="1.44" d="M696.596 319.83c-23.644 14.962-55.56 27.356-98.72 22.661-43.056-4.751-84.924-21.993-119.96-39.13-35.162-17.042-63.915-33.867-87.767-46.166-23.847-12.342-43.084-19.76-59.55-24.648-16.401-4.923-30.668-9.023-43.495-17.022-12.784-7.959-24.063-19.877-33.244-37.402-9.157-17.462-16.162-40.539-19.737-67.723-3.594-27.168-3.618-58.311.696-89.579 4.199-31.455 13.447-63.279 23.707-88.227 10.225-25.017 20.897-44.926 34.464-65.87 11.387-17.474 23.23-34.108 37.19-52.17 13.943-18.037 29.04-33.082 43.444-45.42 14.43-12.335 27.681-22.466 38.913-31.6 11.256-9.119 20.576-17.246 28.941-24.129 8.361-6.879 15.579-12.626 24.195-15.326 8.605-2.711 19.237-1.823 31.637 1.836 12.411 3.62 26.586 10.123 42.284 17.654 15.678 7.479 29.229 12.338 42.356 19.64 11.284 6.136 20.8 15.995 32.552 27.509 11.7 11.61 26.246 24.78 34.995 41.23 8.745 16.582 12.343 36.443 18.741 54.628 6.53 18.146 15.818 34.66 30.245 49.237 14.155 14.706 34.415 27.4 49.074 45.254 14.774 17.67 11.963 43.237-6.686 67.282-18.421 24.177-47.422 45.55-69.162 63.359-21.784 18.057-35.563 34.263-35.291 53.452.32 19.145 7.005 38.515 15.394 57.656 8.345 19.09 18.285 37.879 26.642 54.968 8.333 17.07 15.195 32.451 18.817 44.45 3.615 11.97 4.055 20.557-.675 23.596z"/></g><g opacity=".5"><path fill="none" stroke="#fff" stroke-miterlimit="20" stroke-width="1.45" d="M703.932 321.852c-23.147 15.45-51.496 29.682-94.452 26.765-42.86-3.017-85.456-19.386-121.369-36.324-36.032-16.798-65.738-33.98-90.273-46.856-24.548-12.896-44.41-21.5-61.169-27.053-16.704-5.594-31.118-10.112-44.092-18.367-12.922-8.23-24.336-20.259-33.688-37.845-9.328-17.522-16.548-40.602-20.377-67.827-3.846-27.197-4.158-58.416-.068-89.823 3.961-31.61 13.138-63.814 23.398-88.926 10.221-25.169 20.758-44.852 34.052-65.427 11.13-17.101 22.679-33.379 36.521-51.065 13.835-17.674 29.074-32.983 43.588-45.204 14.551-12.224 27.993-22.2 39.439-31.146 11.469-8.92 21.033-16.83 29.625-23.48 8.596-6.639 16.22-12.016 24.72-14.705 8.488-2.71 18.973-1.797 31.198 1.868 12.242 3.602 26.285 11.02 41.7 17.282 15.423 6.106 28.129 11.536 41.235 18.475 11.293 5.778 21.158 15.225 33.407 26.365 12.178 11.263 27.161 23.884 35.053 40.586 7.827 16.885 12.277 35.716 19.385 53.274 7.199 17.546 17.664 33.271 33.467 47.096 15.5 13.965 37.305 26 52.388 44.011 15.24 17.818 10.121 44.135-9.676 68.527-19.57 24.573-49.259 46.168-70.96 64.25-21.747 18.31-34.109 35.12-33.276 54.547.868 19.335 7.863 38.814 16.331 58.016 8.432 19.143 18.225 37.921 26.376 54.963 8.128 17.038 14.74 32.38 18.217 44.343 3.47 11.972 3.886 20.543-.7 23.68z"/></g><g opacity=".5"><path fill="none" stroke="#fff" stroke-miterlimit="20" stroke-width="1.46" d="M709.968 323.792c-22.747 15.855-47.402 31.714-89.94 30.658-42.447-1.18-85.605-16.563-122.308-33.21-36.818-16.49-67.449-33.93-92.668-47.34-25.247-13.423-45.75-23.145-62.822-29.418-17.023-6.297-31.594-11.262-44.706-19.815-13.063-8.522-24.591-20.676-34.107-38.327-9.487-17.583-16.915-40.652-20.99-67.893-4.089-27.216-4.697-58.458-.857-89.948 3.704-31.71 12.768-64.247 23.011-89.508 10.2-25.34 20.595-44.776 33.583-64.972 10.848-16.735 22.06-32.601 35.73-49.937 13.668-17.323 29.02-32.834 43.619-44.956 14.647-12.122 28.259-21.94 39.898-30.701 11.668-8.73 21.456-16.427 30.263-22.848 8.808-6.41 16.72-11.486 25.251-14.063 8.52-2.596 18.704-1.776 30.743 1.868 12.06 3.593 26.231 10.918 41.01 16.747 14.796 5.717 27.072 10.814 40.2 17.352 11.335 5.413 21.562 14.486 34.322 25.236 12.707 10.854 27.167 23.608 34.875 39.94 7.667 16.486 12.403 34.878 20.255 51.789 7.927 16.927 19.643 31.79 36.846 44.832 16.872 13.186 40.195 24.592 55.558 42.815 15.56 18.072 7.976 45.105-12.923 69.845-20.671 24.965-50.962 46.777-72.522 65.132-21.61 18.567-32.438 35.998-31.07 55.614 1.396 19.52 8.66 39.103 17.155 58.326 8.46 19.184 18.055 37.915 25.947 54.914 7.872 16.983 14.175 32.238 17.475 44.184 3.28 11.914 3.632 20.484-.828 23.684z"/></g><g opacity=".5"><path fill="none" stroke="#fff" stroke-miterlimit="20" stroke-width="1.47" d="M716.62 325.153c-22.492 16.224-43.427 33.452-85.415 34.32-41.895.728-85.51-13.532-122.982-29.816-37.571-16.092-69.151-33.748-95.099-47.644-25.987-13.917-47.171-24.685-64.61-31.72-17.397-7.049-32.156-12.525-45.436-21.393-13.224-8.856-24.888-21.16-34.576-38.884-9.66-17.66-17.291-40.729-21.623-67.965-4.34-27.224-5.244-58.46-1.66-90.021 3.444-31.776 12.356-64.593 22.583-90.037 10.184-25.5 20.44-44.724 33.116-64.552 10.56-16.36 21.428-31.837 34.891-48.817 13.472-16.964 28.924-32.684 43.616-44.704 14.748-12.037 28.523-21.717 40.367-30.293 11.864-8.552 21.884-16.036 30.9-22.244 9.02-6.192 17.128-11.056 25.783-13.452 8.644-2.42 18.512-1.752 30.376 1.864 11.88 3.588 26.092 10.692 40.3 16.104 14.231 5.316 26.127 10.112 39.339 16.24 11.42 5.084 22.056 13.748 35.363 24.14 13.284 10.449 26.996 23.297 34.592 39.277 7.58 16.124 12.676 33.992 21.348 50.236 8.735 16.257 21.783 30.209 40.439 42.465 18.292 12.404 43.127 23.192 58.647 41.724 15.74 18.396 5.552 46.173-16.428 71.265-21.763 25.36-52.603 47.412-73.955 66.057-21.411 18.824-30.631 36.876-28.747 56.696 1.9 19.688 9.404 39.385 17.888 58.629 8.456 19.212 17.807 37.908 25.4 54.852 7.575 16.924 13.543 32.117 16.627 44.005 3.068 11.868 3.324 20.436-1.044 23.668z"/></g><g opacity=".5"><path fill="none" stroke="#fff" stroke-miterlimit="20" stroke-width="1.49" d="M722.98 326.909c-22.364 16.516-39.594 34.883-80.852 37.727-41.162 2.735-85.087-10.318-123.262-26.142-38.251-15.604-70.776-33.412-97.46-47.752-26.742-14.337-48.627-26.106-66.477-33.94-17.81-7.882-32.789-13.86-46.244-23.098-13.404-9.198-25.204-21.7-35.068-39.51-9.829-17.748-17.67-40.815-22.257-68.044-4.586-27.205-5.79-58.442-2.479-90.042 3.167-31.832 11.892-64.868 22.105-90.494 10.164-25.69 20.285-44.717 32.633-64.168 10.26-15.992 20.757-31.097 33.98-47.7 13.236-16.6 28.758-32.485 43.53-44.438 14.83-11.945 28.77-21.499 40.806-29.912 12.055-8.402 22.288-15.669 31.509-21.671 9.225-5.999 17.514-10.638 26.295-12.877 8.761-2.275 18.39-1.68 30.078 1.86 11.7 3.535 25.847 10.381 39.538 15.368 13.716 4.907 25.28 9.397 38.615 15.152 11.544 4.73 22.609 13.049 36.492 23.074 13.891 9.99 26.647 22.947 34.176 38.587 7.554 15.712 13.08 33.096 22.637 48.608 9.609 15.54 24.072 28.557 44.209 39.998 19.745 11.59 46.056 21.815 61.571 40.754 15.747 18.852 2.871 47.333-20.137 72.77-22.82 25.766-54.126 48.045-75.179 67.016-21.117 19.124-28.67 37.779-26.287 57.782 2.383 19.871 10.085 39.646 18.51 58.918 8.405 19.235 17.462 37.898 24.715 54.778 7.234 16.868 12.82 31.968 15.655 43.802 2.827 11.813 2.955 20.335-1.351 23.594z"/></g><g opacity=".5"><path fill="none" stroke="#fff" stroke-miterlimit="20" stroke-width="1.5" d="M728.987 328.436c-22.393 16.78-37.736 35.688-76.46 40.852-38.607 5.156-84.342-6.868-123.154-22.184-38.888-15.044-72.364-32.952-99.813-47.687-27.501-14.756-49.487-26.584-68.337-35.912-18.778-9.34-33.628-15.472-47.311-25.103-13.61-9.612-25.57-22.316-35.62-40.24-10.015-17.876-18.066-40.947-22.91-68.179-4.843-27.191-6.347-58.431-3.311-90.063 2.883-31.863 11.39-65.075 21.585-90.934 10.151-25.932 20.15-44.748 32.165-63.855 9.967-15.656 20.082-30.376 33.04-46.624 12.97-16.255 28.541-32.295 43.392-44.183 14.91-11.904 29.017-21.316 41.243-29.58 12.25-8.231 22.706-15.315 32.129-21.135 9.43-5.792 17.906-10.24 26.809-12.344 8.883-2.128 18.346-1.612 29.873 1.86 11.534 3.484 25.537 9.968 38.772 14.552 13.258 4.532 24.545 8.692 38.055 14.087 11.711 4.424 23.242 12.376 37.74 22.052 14.55 9.552 26.154 22.552 33.673 37.888 7.595 15.307 13.622 32.155 24.157 46.915 10.567 14.796 26.53 26.832 48.195 37.447 21.238 10.78 49.007 20.456 64.349 39.956 15.582 19.4-.036 48.567-24.037 74.387-23.85 26.207-55.566 48.743-76.244 68.043-20.75 19.44-26.581 38.7-23.726 58.907 2.844 20.06 10.7 39.923 19.034 59.235 8.315 19.28 17.034 37.9 23.906 54.723 6.851 16.824 12.026 31.84 14.578 43.604 2.528 11.755 2.504 20.231-1.772 23.515z"/></g><g opacity=".5"><path fill="none" stroke="#fff" stroke-miterlimit="20" stroke-width="1.51" d="M735.367 329.596c-22.593 16.926-36.258 36.663-72.44 43.652-36.066 6.997-82.972-3.239-122.367-17.941-39.43-14.359-73.852-32.32-102.081-47.386-28.29-15.099-50.94-27.602-70.252-37.714-19.25-10.144-34.586-17.17-48.5-27.234-13.844-10.048-25.973-22.987-36.213-41.033-10.209-17.997-18.47-41.076-23.574-68.298-5.1-27.182-6.908-58.362-4.16-90.002 2.592-31.864 10.845-65.148 21.017-91.258 10.133-26.162 20.022-44.811 31.702-63.56 9.665-15.306 19.39-29.633 32.054-45.535 12.677-15.89 28.25-32.064 43.174-43.887 14.977-11.832 29.246-21.148 41.655-29.261 12.437-8.085 23.11-14.987 32.73-20.62 9.628-5.623 18.285-9.861 27.31-11.836 9.008-2.003 18.376-1.512 29.737 1.855 11.373 3.383 25.161 9.457 37.982 13.65 12.845 4.14 23.893 8.018 37.626 13.052 11.917 4.095 23.945 11.732 39.082 21.04 15.253 9.073 25.502 22.128 33.074 37.126 7.709 14.895 14.317 31.136 25.894 45.103 11.592 14.015 29.141 25.007 52.355 34.787 22.565 10.004 54.61 18.573 66.607 39.39 11.973 20.712-2.852 49.669-27.781 75.943-24.83 26.622-56.88 49.405-77.085 69.07-20.28 19.776-24.36 39.601-21.06 59.997 3.275 20.229 11.256 40.193 19.444 59.522 8.177 19.297 16.513 37.882 22.962 54.64 6.424 16.737 11.152 31.672 13.384 43.36 2.205 11.675 1.993 20.096-2.276 23.378z"/></g><g opacity=".5"><path fill="none" stroke="#fff" stroke-miterlimit="20" stroke-width="1.53" d="M740.985 331.469c-25.5 18.77-38.269 42.017-80.749 48.491-42.416 6.398-92.803-8.117-134.831-25.495-42.136-17.034-77.282-36.411-105.548-51.87-28.32-15.507-50.763-27.826-69.236-38.087-18.404-10.26-33.833-20.649-47.315-36.479-13.405-15.767-24.76-37-32.914-64.186-8.126-27.114-12.897-60.027-12.35-94.79.437-34.928 6.995-71.9 18.05-103.36 11.081-31.41 21.975-51.998 34.545-72.52 9.362-14.982 18.676-28.921 31.018-44.484 12.354-15.562 27.883-31.809 42.852-43.593 15.025-11.792 29.439-21.008 42.024-28.986 12.61-7.957 23.492-14.686 33.302-20.145 9.818-5.438 18.649-9.512 27.787-11.368 9.122-1.883 18.465-1.387 29.666 1.836 11.21 3.263 24.724 8.877 37.17 12.687 12.473 3.763 23.323 7.354 37.313 12.048 12.157 3.807 24.695 11.128 40.504 20.057 15.993 8.577 24.7 21.673 32.374 36.336 7.887 14.459 15.141 30.105 27.839 43.204 12.69 13.192 31.91 23.052 56.673 32.045 24.072 9.177 57.578 17.674 68.464 39.035 10.838 21.248-5.675 50.898-31.49 77.58-25.752 27.067-58.03 50.115-77.65 70.172-19.7 20.145-22.02 40.518-18.3 61.115 3.683 20.413 11.733 40.462 19.724 59.84 7.986 19.34 15.885 37.878 21.86 54.572 5.955 16.674 10.19 31.513 12.073 43.121 1.86 11.592 1.432 19.97-2.855 23.224z"/></g><g opacity=".5"><path fill="none" stroke="#fff" stroke-miterlimit="20" stroke-width="1.54" d="M747.337 332.928c-26.057 18.82-37.032 42.856-76.627 51.37-39.524 8.458-91.326-4.155-134.038-21.012-42.789-16.433-78.972-35.989-108.061-51.966a2768.892 2768.892 0 0 1-71.326-40.52c-18.908-11.146-34.61-22.06-48.346-38.24-13.658-16.09-25.236-37.477-33.658-64.712-8.39-27.143-13.487-60.04-13.275-94.765.12-34.854 6.186-71.478 17.188-103.456 11.066-31.878 21.904-52.334 34.098-72.498 10.358-16.737 20.644-32.238 35.283-50.034 14.655-17.797 33.19-34.353 49.938-46.171 16.827-11.814 32.114-20.916 45.173-28.647 13.09-7.694 24.132-13.937 34.726-17.896 10.586-3.96 20.848-5.451 32.467-3.58 11.606 1.868 26.189 8.015 40.223 12.15 14.083 4.007 26.058 7.559 42.377 12.626 12.382 3.655 26.885 10.062 41.836 19.256 15.043 9.006 23.896 21.148 31.842 35.341 8.134 13.997 16.12 28.966 30.026 41.204 13.875 12.322 34.85 21.052 61.192 29.218 25.625 8.347 60.311 16.933 70.01 38.88 9.641 21.84-8.554 52.175-35.216 79.29-26.629 27.502-59.071 50.853-77.999 71.317-19.02 20.536-19.591 41.452-15.483 62.24 4.053 20.596 12.135 40.768 19.896 60.168 7.75 19.38 15.163 37.91 20.632 54.522 5.445 16.613 9.154 31.342 10.658 42.88 1.48 11.513.804 19.796-3.536 23.035z"/></g><g opacity=".5"><path fill="none" stroke="#fff" stroke-miterlimit="20" stroke-width="1.55" d="M753.517 334.401c-26.776 18.778-36.102 43.56-72.876 53.958-36.679 10.37-89.273-.104-132.581-16.31-43.34-15.734-80.539-35.408-110.447-51.838-29.968-16.458-53.443-30.172-73.409-42.747-19.873-12.582-35.521-23.681-49.545-40.227-13.932-16.494-25.74-38.012-34.438-65.312-8.662-27.201-14.076-60.041-14.216-94.733-.196-34.748 5.238-70.924 16.269-103.456 11.135-32.36 21.842-52.714 33.657-72.551 10.023-16.399 19.818-31.473 34.058-48.883 14.26-17.406 32.813-34.22 49.645-45.958 16.917-11.763 32.401-20.734 45.673-28.3 13.304-7.524 24.575-13.571 35.346-17.395 10.763-3.8 21.154-5.163 32.805-3.363 11.66 1.851 25.823 7.443 39.475 11.134 13.704 3.568 25.48 6.823 42.18 11.547 12.655 3.471 28.38 9.83 43.048 18.426 14.728 8.523 23.186 20.617 31.44 34.32 8.455 13.514 17.245 27.784 32.438 39.079 15.132 11.407 37.938 18.93 65.85 26.309 27.18 7.527 62.741 16.338 71.172 38.935 8.378 22.454-11.463 53.51-38.891 81.043-27.428 27.96-59.933 51.606-78.042 72.507-18.213 20.954-17.073 42.371-12.607 63.357 4.4 20.79 12.455 41.063 19.921 60.513 7.462 19.417 14.34 37.915 19.25 54.47 4.885 16.545 8.038 31.187 9.122 42.622 1.068 11.427.12 19.65-4.297 22.853z"/></g><g opacity=".5"><path fill="none" stroke="#fff" stroke-miterlimit="20" stroke-width="1.57" d="M759.528 335.846c-27.642 18.66-35.491 44.095-69.51 56.269-33.902 12.181-86.686 4.023-130.49-11.422-43.766-14.933-81.953-34.637-112.683-51.47-30.799-16.844-54.992-31.326-75.478-44.755-20.401-13.437-36.59-25.439-50.908-42.407-14.225-16.905-26.274-38.637-35.254-65.983-8.94-27.267-14.673-60.048-15.165-94.693-.544-34.698 4.496-70.798 15.293-103.38 10.889-32.421 21.761-53.165 33.222-72.65 9.693-16.06 18.986-30.713 32.807-47.75 13.84-17.032 32.342-34.017 49.243-45.719 16.986-11.705 32.655-20.568 46.128-27.986 13.5-7.387 24.993-13.258 35.934-16.925 10.933-3.683 21.45-4.947 33.143-3.2 11.693 1.764 25.454 6.8 38.77 10.103 13.37 3.135 24.986 6.123 42.104 10.51 12.957 3.303 29.742 9.506 44.143 17.572 14.425 8.079 22.553 20.076 31.182 33.262 8.84 12.997 18.513 26.51 35.067 36.82 16.46 10.442 41.179 16.717 70.633 23.324 28.722 6.73 64.84 15.912 71.933 39.204 7.065 23.131-14.377 54.849-42.495 82.835-28.142 28.427-60.592 52.39-77.754 73.73-17.269 21.387-14.48 43.283-9.708 64.467 4.704 20.98 12.685 41.38 19.801 60.864 7.12 19.456 13.401 37.932 17.71 54.417 4.28 16.473 6.832 31.022 7.476 42.351.616 11.334-.624 19.433-5.144 22.612z"/></g><g opacity=".5"><path fill="none" stroke="#fff" stroke-miterlimit="20" stroke-width="1.58" d="M764.894 337.283c-28.664 18.469-35.185 44.467-66.549 58.301-31.211 13.823-83.622 8.169-127.796-6.381-44.078-14.019-83.202-33.695-114.741-50.86-31.624-17.206-56.554-32.368-77.593-46.626-20.964-14.255-37.725-27.258-52.359-44.671-14.546-17.361-26.849-39.297-36.117-66.738-9.224-27.37-15.278-60.08-16.13-94.663-.9-34.627 3.743-70.645 14.275-103.248 10.611-32.48 21.679-53.644 32.786-72.784 9.368-15.746 18.157-29.993 31.532-46.642 13.386-16.682 31.779-33.795 48.732-45.458 17.029-11.684 32.87-20.416 46.529-27.706 13.694-7.233 25.398-12.939 36.501-16.493 11.104-3.543 21.731-4.738 33.47-3.075 11.736 1.68 25.098 6.142 38.113 9.048 13.075 2.72 24.566 5.442 42.135 9.529 13.287 3.123 30.98 9.088 45.122 16.69 14.138 7.7 22.007 19.504 31.08 32.147 9.295 12.443 19.943 25.15 37.924 34.43 17.86 9.42 44.558 14.415 75.517 20.28 30.252 5.942 66.59 15.702 72.299 39.701 5.71 23.815-17.277 56.246-45.99 84.655-28.764 28.885-61.05 53.16-77.116 74.991-16.178 21.852-11.851 44.175-6.805 65.563 4.97 21.167 12.81 41.704 19.528 61.232 6.717 19.504 12.347 37.953 16.013 54.375 3.63 16.41 5.546 30.844 5.718 42.068.132 11.231-1.44 19.228-6.078 22.335z"/></g></g></g></svg>