<svg xmlns="http://www.w3.org/2000/svg" width="689" height="296" viewBox="0 0 689 296" preserveAspectRatio="none"><g><g><g clip-path="url(#clip-D709DE6C-C416-4879-9703-CA74026D5B2B)" transform="matrix(-1 0 0 1 1785 0)"><g><path fill="none" stroke="#fff" stroke-miterlimit="20" stroke-width="1.58" d="M793.58 390.344c-37.629-40.885-84.158-78.978-129.12-100.736-44.89-22.31-89.9-28.374-133.014-24.166-42.914 3.8-83.605 16.399-118.818 25.814-35.293 9.703-59.797 23.142-77.951 29.886-18.33 7.175-29.943 8.327-39.34 2.895-9.509-5.28-17.29-16.862-28.999-30.965-11.932-13.983-27.783-30.014-55.862-43.445-27.967-13.783-71.977-21.51-123.769-40.957C36.115 189.824-19.539 147.34 10.443 34.844c23.64-87.522 79.99-184.986 131.863-265.636 52.063-81.586 98.92-148.652 123.944-205.928 25.176-57.172 25.28-108.344 20.514-147.685-4.863-38.997-13.204-69.154-13.524-96.68-.52-27.454 7.022-52.236 25.512-76.058 18.29-23.855 47.345-46.46 81.614-67.483 34.43-21.183 72.841-40.781 109.59-60.668 37.404-19.51 72.528-42.332 114.315-55.235 41.707-12.911 92.523-3.64 152.624 3.16 55.422 5.639 116.883 27.485 177.76 72.786 60.836 44.964 119.546 112.68 165.731 191.217 46.561 78.818 76.04 171.443 92.019 252.237 16.123 81.17 21.497 153.26 21.593 219.927.12 66.667-5.158 131.406-21.61 188.41-16.354 57.131-41.57 105.727-69.217 146.684-27.615 41.077-57.574 74.866-83.806 105.432-26.303 30.534-51.207 53.716-73.92 69.835-22.737 16.062-43.283 27.302-60.98 38.077-17.683 10.743-32.479 21.006-45.21 30.653-12.74 9.616-23.241 18.759-34.094 22.503-10.804 3.767-21.353 1.112-31.582-10.048z"/></g><g><path fill="none" stroke="#fff" stroke-miterlimit="20" stroke-width="1.6" d="M798.004 401.644c-37.752-40.964-83.574-79.177-128.548-101.675-44.918-22.946-89.852-29.792-132.93-26.145-42.871 3.2-83.583 15.396-118.919 24.577-35.376 9.39-61.122 21.162-79.718 27.457-18.724 6.63-30.69 7.47-39.536 1.263-8.934-6.062-15.684-18.619-25.826-34.094-10.358-15.356-24.067-33.231-49.285-48.827-25.155-15.931-65.258-26.408-113.951-47.099-47.398-20.178-103.882-60.15-75.792-169.56 22.155-84.825 76.775-179.894 127.868-258.88 51.261-79.874 98.187-145.776 124.15-202.056 26.145-56.192 27.497-106.786 22.946-146.063-4.639-38.982-12.653-69.221-12.87-96.654-.407-27.408 7.023-51.961 25.147-75.419 17.932-23.49 46.318-45.587 79.815-66.093 33.673-20.658 71.216-39.781 107.496-59.016 36.896-18.835 72.073-40.812 114.103-51.513 41.991-10.693 92.252-1.336 151.84 5.518 55.027 5.742 115.878 28.096 175.76 73.867 59.852 45.428 117.175 113.473 161.83 191.755 45.013 78.61 71.344 170.857 86.012 249.915 14.797 79.465 19.628 149.95 19.396 215.78-.208 65.837-6.135 130.275-22.843 186.724-16.62 56.56-41.615 104.786-68.753 145.647-27.114 40.965-56.308 74.883-81.734 105.635-25.474 30.703-50.797 53.225-73.816 69.292-23.027 16.036-43.966 27.48-61.89 38.622-17.908 11.108-32.77 21.97-45.382 32.263-12.638 10.245-23.02 20.274-33.545 24.345-10.462 3.999-20.851 1.503-31.025-9.566z"/></g><g><path fill="none" stroke="#fff" stroke-miterlimit="20" stroke-width="1.63" d="M802.414 413.912c-38.042-41.138-83.07-79.412-128.106-102.673-44.98-23.598-89.873-31.168-132.932-28.095-42.86 2.632-83.583 14.46-119.073 23.39-35.473 9.074-62.4 19.252-81.462 25.078-19.157 6.089-31.336 6.473-40.002-.377-8.77-6.65-14.284-20.3-22.967-37.105-8.898-16.676-20.597-36.24-43.083-53.949-22.47-17.98-58.848-31.095-104.397-53.157-44.164-21.637-100.963-59.51-74.74-165.952C76.346-61.18 129.24-153.962 179.494-231.309c50.397-78.227 97.29-143.01 124.097-198.344 26.992-55.23 29.888-105.274 25.615-144.547-4.337-38.962-11.979-69.33-12.011-96.728-.24-27.374 7.154-51.764 24.927-74.874 17.596-23.166 45.34-44.763 78.085-64.792 32.929-20.14 69.635-38.793 105.468-57.374 36.41-18.164 71.644-39.153 113.895-47.635 42.22-8.386 91.849.544 151.001 7.53 54.687 5.921 114.975 28.839 173.887 75.122 58.8 45.867 115.183 111.819 157.963 192.67 42.94 80.964 66.514 169.602 80.093 247.18 13.596 77.836 17.965 146.796 17.445 211.908-.488 65.144-7.098 129.327-23.998 185.237-16.813 56.038-41.548 103.993-68.155 144.747-26.591 40.89-55.015 74.954-79.637 105.914-24.647 30.927-50.598 52.749-73.948 68.809-23.343 16.035-44.692 27.734-62.833 39.29-18.133 11.546-33.025 22.965-45.5 33.975-12.5 10.947-22.67 21.814-32.874 26.175-10.178 4.313-20.421 2.04-30.6-9.042z"/></g><g><path fill="none" stroke="#fff" stroke-miterlimit="20" stroke-width="1.66" d="M807.231 425.159c-38.479-41.344-82.624-79.632-127.722-103.607-45.041-24.216-89.875-32.504-132.908-29.976-42.816 2.08-83.568 13.512-119.182 22.232-35.566 8.76-63.561 17.448-83.12 22.72-19.624 5.44-32.053 5.423-40.568-2.08-8.612-7.328-13.206-21.856-20.529-39.92-7.53-17.912-17.342-39.096-37.23-58.76-19.912-19.911-52.7-35.56-95.045-59.023-40.904-23.16-97.374-59.391-73.053-162.75 19.296-79.663 70.372-170.078 119.711-245.757 49.46-76.552 96.206-140.143 123.72-194.502 27.723-54.264 32.349-103.615 28.42-142.887-3.978-38.991-11.165-69.43-10.98-96.783-.025-27.335 7.354-51.52 24.809-74.303 17.279-22.8 44.385-43.96 76.374-63.455 32.18-19.616 68.05-37.784 103.44-55.632 35.926-17.44 71.204-37.335 113.596-43.551 42.377-6.048 91.3 2.016 150.02 9.176 54.356 6.176 114.06 29.672 171.978 76.455 57.847 46.344 113.717 112.91 153.78 193.766 40.256 80.951 61.937 167.702 74.445 243.565 12.501 76.12 16.503 143.583 15.719 207.998-.753 64.463-8.02 128.295-25.058 183.662-16.95 55.495-41.36 103.103-67.395 143.782-26.018 40.8-53.637 75-77.47 106.103-23.825 31.096-50.564 52.216-74.253 68.312-23.665 16.087-45.41 28.023-63.737 40.015-18.319 11.976-33.205 24.032-45.506 35.744-12.324 11.64-22.16 23.231-32.052 27.951-9.852 4.696-19.976 2.576-30.204-8.495z"/></g><g><path fill="none" stroke="#fff" stroke-miterlimit="20" stroke-width="1.68" d="M811.478 436.395c-39.057-41.581-82.243-79.892-127.413-104.558-45.106-24.857-89.868-33.823-132.862-31.808-42.777 1.52-83.523 12.613-119.229 21.115-35.641 8.462-64.602 15.748-84.675 20.419-20.105 4.815-32.834 4.295-41.266-3.847-8.52-7.958-12.376-23.354-18.449-42.606-6.256-19.107-14.304-41.797-31.705-63.312-17.473-21.746-46.818-39.79-85.932-64.72-37.625-24.722-93.252-59.673-70.755-160.048 17.897-77.173 67.147-165.199 115.493-239.228 48.434-74.862 94.916-137.31 123.037-190.681 28.33-53.33 34.834-101.959 31.298-141.189-3.568-39.006-10.249-69.543-9.8-96.856.24-27.313 7.64-51.315 24.784-73.758 16.985-22.49 43.45-43.14 74.692-62.144 31.433-19.107 66.482-36.751 101.428-53.85 35.441-16.653 70.755-35.448 113.197-39.311 42.441-3.623 90.62 3.08 148.918 10.51 54.026 6.494 113.125 30.64 170.023 77.884 56.866 46.796 111.789 114.236 149.238 194.824 37.65 80.692 57.61 165.398 69.14 239.612 11.504 74.39 15.216 140.437 14.2 204.245-.976 63.832-8.913 127.313-26.017 182.147-17.001 55.018-41.034 102.247-66.459 142.853-25.441 40.677-51.938 75.925-75.243 106.293-24.121 31.456-50.674 51.667-74.723 67.855-24.001 16.156-46.106 28.377-64.58 40.83-18.48 12.421-33.312 25.13-45.377 37.599-12.113 12.357-21.497 24.69-31.09 29.712-9.552 5.04-19.576 3.048-29.873-7.982z"/></g><g><path fill="none" stroke="#fff" stroke-miterlimit="20" stroke-width="1.71" d="M816.797 448.627c-39.83-41.871-82.037-80.254-127.316-105.618-45.207-25.477-89.925-35.142-132.9-33.638-42.75 1.024-83.509 11.73-119.338 20.035a2518.888 2518.888 0 0 1-86.19 18.22c-20.618 4.104-33.7 3.104-42.126-5.681-8.513-8.586-11.817-24.829-16.714-45.216-5.089-20.244-11.466-44.336-26.532-67.66-15.154-23.475-41.246-43.815-77.156-70.275C154.12 132.5 99.832 98.39 120.603.863c16.554-74.773 64.002-160.523 111.32-232.951 47.392-73.245 93.551-134.583 122.171-187.016 28.853-52.449 37.318-100.281 34.222-139.52-3.12-39.022-9.258-69.715-8.514-97 .544-27.277 8.01-51.153 24.868-73.292 16.723-22.212 42.582-42.376 73.107-60.883 30.725-18.603 64.994-35.75 99.527-52.073 34.99-15.882 70.347-33.421 112.801-34.95 42.47-1.2 89.934 3.761 147.87 11.53 53.745 6.866 112.266 31.75 168.154 79.462 55.897 47.296 109.537 115.804 144.502 195.913 35.182 80.238 53.577 162.916 64.242 235.552 10.634 72.78 14.106 137.52 12.898 200.802-1.176 63.33-9.77 126.461-26.892 180.79-17.01 54.554-40.622 101.482-65.426 142.048-24.844 40.543-48.44 75.413-73.315 106.538-24.892 31.054-50.736 51.209-75.123 67.5-24.348 16.267-46.808 28.813-65.41 41.767-18.611 12.882-33.35 26.356-45.16 39.559-11.841 13.162-20.706 26.084-30.012 31.46-9.257 5.346-19.203 3.553-29.636-7.472z"/></g><g><path fill="none" stroke="#fff" stroke-miterlimit="20" stroke-width="1.73" d="M821.604 460.836c-40.729-42.214-81.962-80.595-127.354-106.68-45.304-26.147-89.976-36.436-132.913-35.436-42.712.48-83.457 10.897-119.395 19.002-35.834 7.986-66.445 12.858-87.593 16.13-21.148 3.337-34.61 1.81-43.097-7.616-8.566-9.226-11.486-26.244-15.325-47.703-4.007-21.331-8.83-46.807-21.668-71.77-12.95-25.132-35.93-47.656-68.644-75.596-31.219-27.86-83.634-61.497-64.533-156.199 15.27-72.442 60.885-155.87 107.125-226.689 46.288-71.594 92.016-131.81 121.051-183.298 29.267-51.52 39.738-98.463 37.114-137.724-2.632-39.03-8.199-69.843-7.127-97.119.872-27.268 8.415-50.999 25.028-72.81 16.477-21.907 41.737-41.638 71.564-59.64 30.026-18.083 63.533-34.75 97.663-50.216 34.546-15.05 69.884-31.333 112.308-30.437 41.097 1.297 89.209 4.161 146.759 12.25 53.447 7.297 111.373 32.877 166.211 81.06 54.903 47.767 106.862 117.41 139.464 196.78 32.835 79.508 49.784 160.144 59.686 231.154 9.854 71.099 13.166 134.628 11.766 197.437-1.36 62.881-10.59 125.53-27.651 179.386-16.957 54.056-40.097 100.751-64.23 141.213-24.203 40.462-46.823 75.907-71.435 106.671-24.66 30.661-50.84 50.792-75.563 67.234-24.684 16.41-47.472 29.3-66.156 42.767-18.693 13.433-33.299 27.58-44.793 41.582-11.534 13.962-19.78 27.46-28.795 33.172-8.974 5.761-18.869 4.137-29.467-6.905z"/></g><g><path fill="none" stroke="#fff" stroke-miterlimit="20" stroke-width="1.76" d="M827.537 472.066c-41.83-42.558-82.11-81.012-127.66-107.763-45.44-26.743-90.094-37.735-133.02-37.215-42.695 0-83.462 10.064-119.51 17.984-35.942 7.735-67.23 11.751-88.949 14.191-21.711 2.504-35.599.36-44.198-9.672-8.688-9.88-11.408-27.614-14.272-50.126-3.024-22.375-6.4-49.101-17.136-75.668-10.863-26.695-30.895-51.246-60.478-80.693-28.12-29.43-78.214-62.886-60.678-154.85 14.047-70.173 57.87-151.306 103.013-220.51 45.167-69.91 90.43-129.028 119.797-179.577 29.599-50.646 42.102-96.58 39.966-135.827-2.136-39.054-7.103-69.981-5.671-97.212 1.232-27.263 8.88-50.798 25.263-72.341 16.255-21.567 40.967-40.886 70.134-58.398 29.367-17.559 62.174-33.71 95.933-48.318 34.071-14.247 70.518-27.094 111.581-26.007 41.03 1.4 88.773 4.288 145.996 12.896 53.19 7.8 110.54 34.119 164.347 82.7 53.919 48.215 103.901 118.98 134.284 197.44 30.64 78.581 46.295 157.138 55.527 226.543 9.168 69.493 12.392 131.819 10.808 194.248-1.536 62.47-11.36 124.603-28.32 177.969-16.855 53.558-39.487 99.98-62.942 140.378-23.551 40.407-45.247 76.357-69.67 106.732-24.487 30.31-51.046 50.494-76.118 67.085-25.031 16.6-48.126 29.839-66.87 43.854-18.751 13.96-33.167 28.847-44.319 43.67-11.175 14.816-18.735 28.791-27.479 34.855-8.696 6.08-18.551 4.656-29.359-6.368z"/></g><g><path fill="none" stroke="#fff" stroke-miterlimit="20" stroke-width="1.78" d="M833.016 485.271c-43.074-42.923-82.438-81.508-128.16-108.955-45.585-27.455-90.203-38.994-133.102-39.018-42.674-.512-83.413 9.274-119.562 17.02-36.029 7.538-67.883 10.867-90.172 12.42-22.289 1.584-36.612-1.137-45.394-11.86-8.853-10.538-11.54-29-13.531-52.517-2.136-23.43-4.151-51.341-12.892-79.42-8.885-28.175-26.104-54.662-52.608-85.614-25.08-30.976-72.401-64.616-56.342-153.967 12.876-68.017 54.919-146.949 98.929-214.566 44.01-68.337 88.716-126.336 118.315-175.98 29.838-49.789 44.346-94.672 42.714-133.914-1.623-39.082-5.966-70.114-4.166-97.345 1.607-27.255 9.38-50.677 25.56-71.906 16.05-21.285 40.22-40.202 68.746-57.214 28.735-17.053 60.853-32.665 94.25-46.38 33.598-13.508 69.803-23.222 110.734-21.942 40.859 1.473 88.34 4.537 145.226 13.716 52.92 8.314 109.646 35.409 162.397 84.43 52.896 48.651 100.585 120.582 128.872 197.953 28.559 77.556 43.05 153.999 51.704 221.92 8.581 67.921 11.748 129.225 10.005 191.345-1.712 62.167-12.077 123.71-28.863 176.652-16.683 53.134-38.764 99.257-61.517 139.643-22.881 40.363-43.682 76.708-67.963 106.795-24.352 30.016-51.304 50.27-76.704 67.081-25.36 16.837-48.72 30.472-67.467 45.044-18.762 14.555-32.925 30.143-43.674 45.86-10.772 15.643-17.578 30.087-26.048 36.529-8.397 6.433-18.242 5.249-29.287-5.81z"/></g><g><path fill="none" stroke="#fff" stroke-miterlimit="20" stroke-width="1.81" d="M839.646 497.5c-44.498-43.277-83.03-82-128.976-110.177-45.778-28.152-90.396-40.331-133.295-40.812-42.667-1-83.413 8.49-119.673 16.07-36.147 7.385-68.455 10.314-91.348 10.858-22.893.592-37.692-2.8-46.698-14.188-9.08-11.251-11.887-30.369-13.095-54.864-1.328-24.375-2.08-53.48-8.95-83-7.016-29.569-21.582-57.897-45.075-90.299-22.157-32.465-66.296-66.587-51.601-153.38 11.79-65.932 52.097-142.642 94.972-208.71 42.85-66.73 86.965-123.66 116.753-172.37 30.02-48.91 46.49-92.659 45.37-131.886-1.112-39.1-4.823-70.253-2.632-97.453 2-27.2 9.92-50.534 25.917-71.468 15.886-20.975 39.547-39.516 67.488-56.025 28.14-16.557 59.632-31.657 92.7-44.405 33.196-12.627 69.08-19.702 109.914-18.19 40.715 1.601 87.99 4.89 144.566 14.717 52.673 8.923 108.794 36.795 160.5 86.13 51.873 49.07 97.028 122.051 123.376 198.185 26.629 76.343 40.091 150.7 48.258 217.144 8.08 66.395 11.255 126.717 9.343 188.607-1.888 61.906-12.734 122.812-29.3 175.275-16.478 52.695-37.964 98.54-60.009 138.872-22.189 40.292-42.186 76.967-66.375 106.792-24.277 29.768-51.634 50.11-77.367 67.18-25.692 17.06-49.29 31.12-68.007 46.3-18.734 15.11-32.612 31.53-42.907 48.095-10.31 16.517-16.318 31.361-24.54 38.171-8.136 6.882-17.982 5.85-29.309-5.17z"/></g><g><path fill="none" stroke="#fff" stroke-miterlimit="20" stroke-width="1.84" d="M846.869 509.716c-46.054-43.628-83.847-82.503-130.012-111.41-45.974-28.866-90.58-41.667-133.459-42.627-42.639-1.48-83.374 7.713-119.728 15.138-36.241 7.208-68.876 10.08-92.379 9.536-23.503-.496-38.792-4.584-48.077-16.681-9.34-11.929-12.427-31.739-12.938-57.18-.624-25.347-.2-55.581-5.294-86.423-5.254-30.883-17.29-60.965-37.85-94.736-19.32-33.907-59.903-68.686-46.453-153.068 10.772-63.95 49.357-138.46 91.076-202.96 41.671-65.118 85.118-120.922 115.01-168.758 30.108-48.02 48.476-90.56 47.877-129.738-.6-39.116-3.679-70.31-1.088-97.496 2.4-27.194 10.484-50.364 26.31-71.022 15.73-20.738 38.904-38.827 66.277-54.844 27.573-16.05 58.465-30.555 91.212-42.348 32.81-11.713 68.308-16.489 109.028-14.753 40.576 1.752 87.637 5.377 143.87 15.857 52.403 9.505 107.885 38.18 158.497 87.815 50.812 49.396 93.179 123.314 117.713 198.088 24.814 74.99 37.385 147.292 45.134 212.273 7.66 64.917 10.86 124.322 8.788 186.04-2.063 61.716-13.306 121.817-29.596 173.845-16.201 52.228-37.057 97.872-58.369 138.107-21.471 40.243-40.727 77.11-64.854 106.737-24.23 29.586-51.995 50.06-78.016 67.373-25.99 17.337-49.78 31.843-68.413 47.636-18.649 15.745-32.163 32.946-41.951 50.388-9.796 17.417-14.978 32.578-22.943 39.771-7.869 7.24-17.729 6.489-29.372-4.56z"/></g><g><path fill="none" stroke="#fff" stroke-miterlimit="20" stroke-width="1.86" d="M854.296 522.959c-47.799-43.935-84.976-83.052-131.43-112.734-46.232-29.626-90.84-43.07-133.735-44.51-42.64-1.97-83.376 6.913-119.833 14.236-36.345 7.13-69.195 10.211-93.342 8.49-24.148-1.656-39.96-6.481-49.559-19.35-9.646-12.692-13.157-33.17-13.053-59.54 0-26.288 1.504-57.635-1.92-89.75-3.591-32.202-13.237-63.837-30.954-99.009-16.605-35.284-53.318-70.991-40.984-153.099 9.838-62.029 46.767-134.453 87.335-197.466 40.504-63.605 83.272-118.343 113.21-165.271 30.155-47.184 50.359-88.398 50.27-127.563-.095-39.117-2.543-70.423.449-97.576 2.8-27.177 11.062-50.217 26.755-70.616 15.597-20.455 38.336-38.14 65.18-53.698 27.042-15.557 57.404-29.506 89.846-40.277 32.474-10.764 67.587-13.653 108.211-11.62 40.464 2.024 87.36 5.986 143.269 17.158 52.158 10.195 106.995 39.597 156.53 89.517 49.766 49.737 89.15 124.466 112.034 197.795 23.156 73.56 34.946 143.856 42.368 207.493 7.327 63.533 10.606 122.129 8.359 183.79-2.256 61.668-13.814 120.8-29.77 172.449-15.886 51.801-36.082 97.192-56.662 137.406-20.756 40.181-39.336 77.258-63.452 106.716-24.227 29.401-52.414 50.104-78.72 67.718-26.284 17.646-50.231 32.603-68.723 49.065-18.54 16.357-32.466 34.531-40.649 52.745-8.23 18.134-13.805 33.763-21.508 41.374-7.63 7.667-17.524 7.146-29.522-3.873z"/></g><g><path fill="none" stroke="#fff" stroke-miterlimit="20" stroke-width="1.89" d="M861.94 536.193c-49.863-44.223-88.057-85.836-133.326-114.214-45.206-28.321-91.163-44.367-134.024-46.263-42.668-2.465-83.407 6.138-119.984 13.34-36.465 7.002-69.409 10.78-94.236 7.747-24.828-2.897-41.188-8.58-51.137-22.208-9.996-13.492-14.046-34.603-13.43-61.9.528-27.25 3.034-59.612 1.177-92.96-2.025-33.387-9.42-66.534-24.396-103.042-13.998-36.628-46.566-73.408-35.232-153.307 8.988-60.26 44.332-130.604 83.775-192.096 39.355-62.069 81.422-115.695 111.365-161.774 30.086-46.223 48.358-86.213 52.216-125.274 3.746-38.917-1.16-70.447 2.273-97.616 3.21-27.146 11.662-50.065 27.245-70.176 15.495-20.207 37.826-37.516 64.198-52.553 26.573-15.037 56.435-28.426 88.618-38.15 32.183-9.754 66.92-11.09 107.459-8.746 40.379 2.289 87.129 6.666 142.739 18.566 51.928 10.852 106.114 41.006 154.585 91.167 48.719 50.008 84.976 125.353 106.346 197.145 21.642 72.08 32.775 140.383 39.939 202.676 7.051 62.165 10.7 119.848 7.995 181.757-2.737 61.796-14.222 119.664-29.79 170.937-15.535 51.4-35.04 96.528-54.897 136.701-20.034 40.126-38.026 77.33-62.174 106.66-24.251 29.306-52.873 50.209-79.461 68.15-26.557 18.007-50.624 33.436-68.945 50.553-18.376 17.006-31.607 36.237-39.146 55.083-7.596 18.758-12.63 34.98-20.074 42.998-7.355 8.043-17.296 7.819-29.678-3.2z"/></g><g><path fill="none" stroke="#fff" stroke-miterlimit="20" stroke-width="1.91" d="M869.623 548.466c-51.896-44.435-90.724-86.645-135.55-115.799-44.763-29.202-91.173-45.579-134.008-47.939-42.635-2.992-83.327 5.369-119.955 12.433-36.533 7.016-68.771 11.817-94.724 7.44-25.984-4.112-42.547-10.84-52.872-25.345-10.38-14.28-13.851-36.322-13.891-64.324-.152-27.873 4.23-61.475 3.878-96.03-.551-34.521-5.798-69.115-18.106-106.853-11.66-37.842-36.533-77.333-29-153.745 5.839-57.587 41.78-126.887 80.072-186.787 38.165-60.547 79.44-113.102 109.303-158.289 29.991-45.322 48.841-84.629 53.792-122.95 4.862-38.195.392-70.38 4.207-97.51 3.615-27.09 12.252-49.867 27.711-69.716 15.38-19.921 37.309-36.842 63.205-51.395 26.088-14.537 55.463-27.29 87.342-35.954 31.87-8.705 66.187-8.873 106.6-6.145 40.235 2.6 86.789 7.48 142.012 20.09 51.6 11.56 105.056 42.41 152.378 92.717 47.57 50.219 80.52 125.935 100.49 196.139 20.225 70.476 30.798 136.8 37.764 197.843 6.87 60.924 10.724 118.527 7.67 179.875-3.088 61.227-14.444 118.486-29.592 169.337-15.1 50.955-33.87 95.862-52.968 135.968-19.29 40.066-36.716 77.3-60.885 106.566-24.273 29.218-53.28 50.37-80.064 68.668-26.768 18.337-50.864 34.298-68.915 52.09-18.122 17.674-30.527 37.9-37.412 57.388-6.942 19.41-11.421 36.162-18.61 44.643-7.095 8.496-17.084 8.552-29.872-2.416z"/></g><g><path fill="none" stroke="#fff" stroke-miterlimit="20" stroke-width="1.94" d="M879.463 561.723c-54.138-44.607-93.84-87.446-138.43-117.424-44.542-30.067-91.286-46.904-134.148-49.73-42.67-3.48-83.355 4.57-120.095 11.533-36.636 6.85-69.07 11.684-95.296 7.234-26.232-4.29-43.926-13.084-54.673-28.418-10.804-15.157-14.533-37.965-14.421-66.879.008-28.778 5.137-63.35 6.154-99.05.824-35.652-2.409-71.584-12.164-110.525-9.195-39.022-30.57-79.612-22.672-154.397 6.074-56.164 39.541-123.267 76.722-181.799 37.044-59.076 77.561-110.613 107.33-154.94 29.899-44.504 49.289-83.093 55.259-120.73 5.914-37.485 1.929-70.2 6.122-97.321 4.017-27.09 12.852-49.713 28.241-69.296 15.317-19.623 36.884-36.228 62.38-50.273 25.673-14.005 54.635-26.161 86.277-33.724 31.634-7.618 65.613-6.85 105.939-3.801 40.157 2.969 86.596 8.355 141.478 21.72 47.392 11.371 95.944 38.893 139.55 82.98 43.798 43.975 75.897 110.39 96.095 174.283 20.415 64.102 31.947 126.196 40.03 183.071 8.034 56.86 12.868 109.614 13.756 164.56.936 55.027-4.545 112.279-15.1 162.76-10.476 50.698-25.185 96.45-41.246 137.591-16.07 41.158-33.531 77.891-50.457 111.39-16.918 33.484-39.053 62.11-64.125 84.245-25.056 22.176-51.817 39.246-74.857 55.571-23.047 16.294-42.27 32.235-56.154 50.018-13.957 17.662-21.791 38.029-26.937 55.707-5.194 17.638-9.259 32.155-16.061 39.181-6.73 7.066-16.293 6.506-28.497-3.537z"/></g><g><path fill="none" stroke="#fff" stroke-miterlimit="20" stroke-width="1.97" d="M888 575.031c-56.471-44.684-97.15-88.112-141.615-118.895-44.416-30.872-91.304-48.236-134.168-51.587-42.671-4.023-83.311 3.767-120.111 10.614-36.688 6.742-69.288 11.604-95.752 7.054-26.464-4.455-45.176-15.1-56.368-31.296-11.232-16.076-15.256-39.661-15.072-69.461.096-29.68 5.808-65.183 8.104-101.933 2.112-36.718.792-73.892-6.504-113.921-6.816-40.125-24.768-81.738-16.28-154.99 6.472-54.825 37.552-119.728 73.6-176.865 35.912-57.608 75.608-108.058 105.216-151.51 29.728-43.645 49.576-81.523 56.504-118.425 6.896-36.774 3.432-69.861 7.992-96.926 4.408-26.992 13.44-49.466 28.744-68.797 15.247-19.379 36.471-35.543 61.567-49.09 25.264-13.493 53.808-24.986 85.192-31.44 31.376-6.495 65.04-5.111 105.24-1.68 40.048 3.36 86.312 9.294 140.792 23.41 47.096 12.012 94.968 40.157 137.56 84.345 42.8 44.108 71.76 110.93 90.68 173.345 19.135 62.663 30.087 122.927 37.975 178.52 7.824 55.513 12.784 107.435 13.616 162.22.88 54.826-4.904 111.498-15.2 161.477-10.216 50.186-24.368 95.55-39.76 136.475-15.416 40.965-32.128 77.643-48.496 111.234-16.344 33.583-38.824 61.911-64.111 84.217-25.256 22.37-52.264 39.782-75.304 56.553-23.056 16.788-42.048 33.255-55.48 51.746-13.504 18.387-20.352 39.446-24.912 57.72-4.608 18.196-8.216 33.256-14.824 40.678-6.544 7.422-16.208 7.182-28.824-2.792z"/></g><g><path fill="none" stroke="#fff" stroke-miterlimit="20" stroke-width="1.99" d="M898.015 588.331c-58.922-44.637-100.768-88.786-145.26-120.37-44.462-31.728-91.355-49.66-134.225-53.587-42.685-4.55-83.276 2.911-120.13 9.678-36.744 6.606-69.504 11.54-96.21 6.902-26.705-4.583-46.349-16.876-58.01-34.008-11.701-17.075-16.06-41.453-15.844-72.19.12-30.592 6.262-67.063 9.742-104.83 3.31-37.734 3.783-76.1-1.16-117.21-4.535-41.158-19.172-83.836-9.902-155.73 7.023-53.627 35.872-116.5 70.807-172.293 34.816-56.21 73.679-105.598 103.096-148.228 29.528-42.821 49.772-80.004 57.594-116.227 7.814-36.087 4.887-69.455 9.805-96.464 4.783-26.961 14.013-49.284 29.257-68.335 15.189-19.1 36.104-34.927 60.834-47.948 24.898-12.965 53.059-23.786 84.196-29.12 31.128-5.328 64.536-3.64 104.614.231 39.943 3.791 86.028 10.31 140.095 25.186 46.7 12.7 93.921 38.742 135.535 85.73 41.654 46.845 67.44 111.117 85.292 172.142 17.971 61.185 28.473 119.722 36.215 174.125 7.678 54.306 12.805 105.486 13.573 160.2.8 54.747-5.199 110.7-15.173 160.256-9.91 49.7-23.458 94.673-38.166 135.455-14.733 40.774-30.721 77.46-46.59 111.188-15.811 33.744-38.598 61.745-64.104 84.275-25.434 22.595-52.66 40.406-75.646 57.65-23.01 17.252-41.726 34.344-54.643 53.53-12.98 19.084-18.835 40.903-22.81 59.738-4.023 18.787-7.158 34.368-13.597 42.214-6.358 7.878-16.124 7.95-29.185-1.96z"/></g><g><path fill="none" stroke="#fff" stroke-miterlimit="20" stroke-width="2.02" d="M909.264 601.67c-61.54-44.484-104.739-89.368-149.45-121.744-44.687-32.552-91.527-51.219-134.454-55.705-42.734-5.127-83.308 2.031-120.248 8.701-36.82 6.535-69.752 11.461-96.721 6.79-26.97-4.678-47.464-18.339-59.636-36.478-12.204-18.107-16.934-43.389-16.75-75.036.104-31.536 6.522-68.919 11.1-107.716 4.417-38.742 6.578-78.228 3.89-120.337-2.362-42.15-13.805-85.786-3.586-156.48 7.707-52.49 34.516-113.458 68.407-167.94 33.764-54.81 71.832-103.205 101.058-145.01 29.322-41.98 49.93-78.5 58.588-114.05 8.667-35.407 6.298-68.934 11.564-95.88 5.146-26.888 14.589-49.042 29.794-67.853 15.157-18.86 35.804-34.304 60.213-46.804 24.568-12.461 52.41-22.578 83.324-26.77 30.93-4.182 64.173-2.343 104.155 1.936 39.853 4.247 85.813 11.405 139.48 27.017 46.407 13.38 94.16 40.038 133.412 87.585 39.286 47.436 63.334 110.532 80.171 170.076 16.934 59.736 27.09 116.546 34.756 169.804 7.61 53.138 12.925 103.677 13.613 158.39.712 54.69-5.41 109.884-15.03 158.96-9.57 49.194-22.47 93.863-36.5 134.444-14.052 40.606-29.346 77.284-44.775 111.195-15.357 33.895-38.397 61.584-64.101 84.354-25.625 22.866-53.026 41.07-75.938 58.817-22.936 17.731-41.318 35.439-53.674 55.337-12.42 19.763-17.286 42.285-20.687 61.712-3.45 19.355-6.122 35.48-12.372 43.765-6.203 8.326-16.07 8.694-29.603-1.08z"/></g><g><path fill="none" stroke="#fff" stroke-miterlimit="20" stroke-width="2.04" d="M920.575 615.027C856.4 570.84 811.732 525.251 766.71 492.036c-44.997-33.36-91.657-52.826-134.584-57.945-42.742-5.726-83.245 1.12-120.206 7.686-36.84 6.423-69.899 11.461-97.08 6.703-27.188-4.72-48.427-19.483-61.102-38.686-12.715-19.195-17.833-45.42-17.737-78.02.024-32.51 6.59-70.82 12.163-110.602 5.422-39.733 9.172-80.235 8.629-123.311-.28-43.085-8.645-87.657 2.647-157.23 8.468-51.507 33.418-110.587 66.244-163.829 32.714-53.522 69.939-100.861 98.887-141.842 29.052-41.165 49.94-77.036 59.375-111.907 9.452-34.726 7.645-68.285 13.227-95.174 5.486-26.793 15.114-48.851 30.267-67.366 15.114-18.588 35.482-33.672 59.568-45.644 24.23-11.91 51.746-21.355 82.397-24.378 30.692-3.007 63.814-1.272 103.63 3.463 39.71 4.711 85.46 12.5 138.63 28.889 46.037 14.036 93.84 41.525 130.77 89.384 36.976 47.82 59.39 109.57 75.304 167.651 16.001 58.217 25.87 113.41 33.522 165.588 7.581 52.058 13.09 102.021 13.699 156.807.6 54.785-5.518 108.963-14.706 157.566-9.149 48.739-21.368 92.991-34.682 133.452-13.354 40.454-27.908 77.252-42.974 111.25-14.978 34-38.272 61.568-64.038 84.546-25.677 23.058-53.153 41.701-75.904 59.952-22.775 18.244-40.735 36.559-52.466 57.161-11.787 20.515-15.698 43.629-18.52 63.64-2.855 19.954-5.062 36.638-11.14 45.34-5.99 8.773-15.961 9.46-29.955-.153z"/></g><g><path fill="none" stroke="#fff" stroke-miterlimit="20" stroke-width="2.07" d="M932.057 628.406c-66.964-43.78-113.314-90.048-158.831-124.086-45.518-34.135-91.995-54.546-134.993-60.328-42.814-6.342-83.276.2-120.298 6.614-36.894 6.287-70.1 11.39-97.53 6.638-27.43-4.75-49.326-20.242-62.557-40.613-13.263-20.386-18.807-47.547-18.847-81.137-.096-33.455 6.496-72.765 12.975-113.506 6.352-40.684 11.6-82.241 13.096-126.165 1.712-43.932-3.72-89.392 8.751-157.95 9.312-50.57 32.654-107.962 64.485-159.932 31.742-52.21 68.156-98.565 96.859-138.754 28.798-40.381 49.94-75.555 60.108-109.786 10.2-34.063 8.936-67.55 14.824-94.358 5.807-26.705 15.623-48.58 30.75-66.862 15.087-18.315 35.238-33.023 59.053-44.476 23.95-11.357 51.285-19.987 81.62-21.962 29.71-1.808 63.636-.36 103.306 4.822 39.614 5.207 85.187 13.725 137.904 30.784 45.694 14.684 93.211 43.1 127.97 91.103 34.822 47.9 55.765 108.29 70.884 164.907 15.191 56.729 24.886 110.322 32.574 161.477 7.6 51.026 13.535 100.3 13.831 155.493.264 55.105-5.52 107.85-14.223 156.038-8.695 48.267-20.19 92.15-32.806 132.484-12.671 40.309-26.335 77.307-41.262 111.25-14.847 33.974-38.374 61.663-64.22 84.792-25.751 23.242-53.038 42.22-75.564 61.152-22.543 18.955-40.078 37.757-51.134 59.048-11.111 21.178-14.159 44.931-16.399 65.526-2.28 20.554-4.032 37.734-9.935 46.931-5.816 9.222-15.911 10.31-30.39.856z"/></g><g><path fill="none" stroke="#fff" stroke-miterlimit="20" stroke-width="2.1" d="M945.098 642.804c-69.834-43.19-118.028-90.181-164.206-125.042-46.177-34.957-92.459-56.36-135.547-62.857-42.904-6.97-83.335-.824-120.405 5.489-36.942 6.136-70.29 11.321-97.965 6.577-27.674-4.761-50.107-20.587-63.92-42.215-13.845-21.619-19.84-49.863-20.047-84.452-.264-34.509 6.234-74.81 13.549-116.504 7.187-41.67 13.83-84.172 17.262-128.947 3.602-44.766.977-91.021 14.718-158.695 10.212-49.75 32.164-105.51 63.048-156.318 30.82-50.975 66.44-96.366 94.867-135.788 28.515-39.59 49.89-74.178 60.743-107.743 10.884-33.413 10.18-66.778 16.35-93.478 6.098-26.66 16.102-48.359 31.212-66.37 15.077-18.05 35.013-32.42 58.582-43.31 23.673-10.84 51.035-18.098 80.718-19.658 29.747-1.512 63.68.432 103.23 6.16 39.504 5.754 84.897 14.915 137.124 32.71 45.33 15.306 92.195 44.774 124.903 92.725 32.78 47.839 52.396 106.823 66.825 161.959 14.486 55.256 24.097 107.32 31.868 157.567 7.707 50.119 13.798 99.75 13.99 154.414.16 54.6-5.346 106.767-13.541 154.494-8.196 47.783-18.912 91.413-30.876 131.603-12.037 40.206-24.73 77.275-39.583 111.2-14.773 33.94-38.598 61.72-64.56 85.036-25.874 23.467-53.084 42.71-75.1 62.25-22.033 19.546-39.031 39.34-49.33 61.32-10.38 21.851-12.67 46.223-14.334 67.394-1.713 21.115-3.017 38.885-8.748 48.559-5.65 9.68-15.854 11.17-30.827 1.92z"/></g><g><path fill="none" stroke="#fff" stroke-miterlimit="20" stroke-width="2.12" d="M958.008 656.227c-72.686-42.407-122.819-90.013-169.752-125.693-46.948-35.753-92.994-58.212-136.127-65.474-42.966-7.655-83.317-1.904-120.404 4.279-36.943 5.99-70.375 11.285-98.265 6.526-27.881-4.735-50.7-20.467-65.112-43.422-14.445-22.9-20.9-52.237-21.323-87.87-.472-35.568 5.838-76.879 13.877-119.47 7.934-42.583 15.868-85.981 21.13-131.516 5.383-45.494 5.447-92.46 20.492-159.261 11.141-48.934 31.896-103.154 61.857-152.792 29.913-49.733 64.705-94.147 92.834-132.795 28.193-38.784 49.74-72.737 61.21-105.633 11.525-32.745 11.365-65.818 17.787-92.437 6.359-26.522 16.525-48.101 31.609-65.81 15.044-17.764 34.784-31.76 58.09-42.094 23.379-10.318 50.164-16.397 79.877-17.509 29.753-1.095 63.617 1.304 103.016 7.55 39.343 6.287 84.484 16.15 136.152 34.601 44.901 15.885 90.73 46.422 121.46 94.092 30.816 47.59 49.22 105.058 63.048 158.67 13.877 53.725 23.467 104.354 31.353 153.671 7.838 49.237 14.028 99.227 14.18 153.32.136 54.052-5.046 105.585-12.669 152.798-7.63 47.294-17.667 90.589-28.953 130.548-11.39 39.952-22.994 77.192-37.807 111.073-14.74 33.896-38.919 61.722-65.008 85.205-26.01 23.603-53.132 43.175-74.583 63.267-21.49 20.06-37.287 41.135-46.773 63.754-9.581 22.483-11.27 47.438-12.373 69.17-1.16 21.675-2.007 39.983-7.574 50.156-5.479 10.182-15.796 12.11-31.249 3.096z"/></g><g><path fill="none" stroke="#fff" stroke-miterlimit="20" stroke-width="2.15" d="M972.123 670.65c-75.66-41.453-127.937-89.723-175.822-126.176-47.916-36.51-93.792-60.248-137.06-68.265-43.099-8.402-83.421-3.04-120.543 2.992-36.978 5.825-70.539 11.21-98.658 6.465-28.095-4.585-50.605-19.275-66.233-44.222-15.652-24.788-22.078-54.752-22.75-91.549-.712-36.692 5.337-79.058 14.02-122.6 8.594-43.558 17.74-87.82 24.742-134.098 7.074-46.238 9.683-93.837 26.087-159.87 12.107-48.222 31.912-101.037 61.024-149.564 29.087-48.598 63.12-92.06 90.96-129.97 27.903-38.053 49.596-71.385 61.672-103.637 12.123-32.117 12.53-64.81 19.18-91.357 6.594-26.451 16.917-47.814 31.985-65.28 15.036-17.507 34.609-31.125 57.703-40.902 23.134-9.801 49.501-14.858 79.269-15.53 29.776-.632 63.608 2.168 102.875 9.001 39.21 6.825 84.134 17.442 135.267 36.509 44.5 16.458 89.031 48.014 117.943 95.309 29.015 47.19 46.348 103.166 59.695 155.309 13.388 52.255 23.038 101.485 31.089 150.036 8.026 48.51 14.26 98.933 14.427 152.42.176 53.504-4.609 104.415-11.627 151.197-7.018 46.83-16.556 89.676-27.119 129.505-10.683 39.766-21.197 77.219-36.05 111.047-14.811 33.853-39.418 61.76-65.712 85.428-26.207 23.795-53.286 43.63-74.188 64.313-20.95 20.666-35.497 42.67-43.643 66.337-8.234 23.555-9.843 48.758-10.419 71.05-.616 22.242-1.04 41.1-6.442 51.798-5.305 10.682-15.716 13.058-31.672 4.305z"/></g><g><path fill="none" stroke="#fff" stroke-miterlimit="20" stroke-width="2.17" d="M986.06 684.107c-78.567-40.31-133.079-89.074-181.992-126.297-48.977-37.248-94.699-62.266-138.07-71.12-43.202-9.173-83.454-4.23-120.579 1.608-36.972 5.647-70.594 11.102-98.913 6.399-28.288-4.567-51.105-19.268-67.044-44.574-15.963-25.17-23.409-57.426-24.352-95.305-.984-37.823 4.726-81.269 13.963-125.746 9.15-44.461 19.403-89.547 28.032-136.503 8.661-46.885 13.692-95.026 31.438-160.282 13.06-47.453 32.118-99 60.406-146.413 28.28-47.469 61.549-89.97 89.06-127.13 27.576-37.287 49.377-69.983 61.998-101.592 12.668-31.464 13.66-63.736 20.497-90.122 6.782-26.282 17.243-47.525 32.278-64.689 15.012-17.212 34.398-30.432 57.279-39.67 22.889-9.23 48.953-13.453 78.712-13.661 29.75-.216 63.5 3.063 102.576 10.461 39.02 7.399 83.655 18.668 134.175 38.36 44.027 16.963 86.926 49.508 114.117 96.232 27.296 46.645 43.683 100.984 56.623 151.684 12.98 50.764 22.753 98.633 30.999 146.453 8.237 47.757 14.451 98.625 14.723 151.468.288 52.94-3.919 103.247-10.405 149.428-6.494 46.23-15.507 88.7-25.296 128.306-9.917 39.582-19.298 77.173-34.253 110.957-14.94 33.792-40.028 61.778-66.524 85.58-26.408 23.938-53.416 44.07-73.73 65.288-20.353 21.195-33.557 44.278-40.331 68.816-6.87 24.426-7.894 50.14-7.942 73.039-.088 22.81-.112 42.237-5.342 53.41-5.167 11.19-15.667 14.053-32.102 5.615z"/></g><g><path fill="none" stroke="#fff" stroke-miterlimit="20" stroke-width="2.2" d="M1002.203 697.563c-81.56-38.998-138.482-88.166-188.636-126.188-50.226-37.99-95.923-64.418-139.475-74.139-43.392-10.026-83.608-5.553-120.775.104-37 5.433-70.71 10.954-99.251 6.321-28.502-4.545-51.65-19.235-67.925-44.911-16.307-25.604-24.685-59.89-25.95-98.895-1.296-39.054 4.057-83.645 13.763-129.1 9.634-45.455 20.924-91.375 31.07-138.958 10.17-47.503 17.468-96.215 36.6-160.737 14.018-46.8 32.55-97.167 60.099-143.542 27.573-46.431 60.116-88.046 87.345-124.467 27.277-36.566 49.177-68.66 62.324-99.656 13.186-30.86 14.81-62.586 21.796-88.87 6.945-26.196 17.523-47.247 32.542-64.138 14.995-16.922 34.239-29.78 56.931-38.446 22.7-8.673 48.602-12.17 78.36-11.93 29.733.233 63.427 4.017 102.347 11.962 38.863 7.986 83.224 19.971 133.154 40.19 43.568 17.443 84.64 50.897 110.26 96.968 25.742 45.999 41.305 98.751 53.955 148.079 12.683 49.375 22.645 95.99 31.126 143.15 8.49 47.16 14.667 98.447 15.099 150.671.448 52.36-3.097 102.016-9.242 147.647-6.177 45.671-14.37 87.806-23.324 127.244-9.106 39.43-17.38 77.196-32.542 110.961-15.155 33.773-40.84 61.842-67.597 85.805-26.678 24.1-53.643 44.543-73.359 66.307-19.763 21.755-31.694 45.759-36.999 71.275-5.409 25.372-5.329 51.816-4.889 75.235.4 23.356.776 43.343-4.304 55.057-4.985 11.746-15.58 15.09-32.503 7.001z"/></g><g><path fill="none" stroke="#fff" stroke-miterlimit="20" stroke-width="2.22" d="M1017.086 711.048c-84.444-37.388-143.818-86.942-195.292-125.65-51.562-38.676-97.278-66.552-140.995-77.207-43.557-10.903-83.716-6.952-120.868-1.512-36.984 5.183-70.73 10.775-99.445 6.191-28.668-4.463-52.122-19.182-68.715-45.139-16.633-25.925-25.86-61.937-27.46-102.157-1.647-40.283 3.31-86.126 13.394-132.48C387.717 186.69 399.92 139.95 411.5 91.82c11.563-48.035 20.999-97.214 41.47-161.006 14.937-46.123 33.106-95.374 59.958-140.72 26.885-45.38 58.71-86.127 85.611-121.811 26.957-35.86 48.907-67.321 62.525-97.678 13.658-30.204 15.961-61.337 23.054-87.486 7.045-26.045 17.729-46.947 32.698-63.537 14.954-16.646 34.042-29.149 56.536-37.188 22.502-8.119 48.323-10.99 78.022-10.295 29.676.664 63.261 4.952 101.949 13.479 38.63 8.535 82.66 21.23 131.919 41.94 43.037 17.861 82.02 52.073 106.17 97.364 24.278 45.22 39.127 96.35 51.562 144.288 12.45 47.931 22.67 93.382 31.394 139.929 8.757 46.555 14.866 98.245 15.538 149.8.695 51.666-2.455 100.588-8.165 145.68-5.757 45.138-13.034 86.83-21.095 126.105-8.244 39.204-15.425 77.168-30.874 110.892-15.458 33.74-41.758 61.921-68.779 85.983-26.948 24.285-53.84 44.93-72.92 67.272-19.128 22.31-29.692 47.211-33.554 73.624-3.974 26.27-1.815 53.746-1.184 77.511.576 23.686 1.56 44.412-3.374 56.65-4.83 12.27-15.497 16.086-32.874 8.431z"/></g><g><path fill="none" stroke="#fff" stroke-miterlimit="20" stroke-width="2.25" d="M1034.079 724.51c-87.361-35.574-149.356-85.32-202.328-124.732-53.076-39.34-98.976-68.723-142.932-80.352-43.813-11.82-83.946-8.437-121.119-3.263-37.005 4.919-70.81 10.581-99.712 6.038-28.853-4.422-52.627-19.082-69.57-45.33-16.983-26.224-26.974-63.63-28.95-105.113-2.023-41.596 2.552-88.646 12.92-136.024 10.303-47.394 23.365-94.892 36.268-143.581C431.527 43.559 442.99-5.93 464.781-69.056c15.854-45.498 33.845-93.676 60.075-138.055 26.286-44.41 57.451-84.255 84.073-119.244 26.662-35.126 48.676-65.98 62.755-95.74 14.11-29.631 17.167-59.998 24.334-86.023 7.111-25.928 17.879-46.618 32.813-62.925 14.927-16.355 33.87-28.424 56.204-35.917 22.342-7.526 48.212-9.917 77.85-8.766 29.621 1.104 63.122 5.903 101.6 15.012 38.428 9.07 82.129 22.45 130.749 43.61 42.524 18.22 79.273 53.073 102.103 97.492 22.958 44.339 37.221 93.884 49.532 140.478 12.32 46.595 22.854 90.886 31.862 136.896 9.047 46.058 15.086 98.043 16.07 148.932 1.024 51.04-1.991 99.098-7.191 143.645-5.248 44.587-11.535 85.887-18.654 124.98-7.336 39.036-13.52 77.112-29.35 110.838-15.863 33.71-42.885 61.958-70.21 86.183-27.27 24.425-54.108 45.363-72.539 68.244-18.486 22.841-27.645 48.69-30.077 75.905-2.56 27.088.984 55.312 2.928 79.865 1.896 24.488 2.463 45.418-2.328 58.222-4.728 12.765-15.47 17.195-33.301 9.933z"/></g><g><path fill="none" stroke="#fff" stroke-miterlimit="20" stroke-width="2.28" d="M1051.466 736.988c-90.206-33.556-154.904-83.354-209.497-123.42-54.72-39.922-100.92-70.887-145.166-83.571-44.103-12.812-84.221-10.084-121.419-5.15-37.022 4.606-70.867 10.308-99.951 5.822-29.029-4.359-53.113-18.97-70.395-45.472-17.339-26.447-27.98-64.945-30.365-107.738-2.44-42.945 1.776-91.344 12.33-139.727 10.505-48.44 24.316-96.718 38.454-145.91 14.09-49.078 27.436-98.884 50.52-161.342 16.73-44.857 34.685-92.072 60.369-135.537 25.74-43.465 56.289-82.49 82.629-116.783 26.38-34.412 48.44-64.705 62.945-93.847 14.539-29.038 18.443-58.611 25.628-84.49 7.138-25.807 17.947-46.32 32.838-62.322 14.874-16.05 33.693-27.735 55.864-34.652 22.188-6.934 48.192-8.933 77.748-7.326 29.549 1.576 62.938 6.886 101.184 16.539 38.206 9.644 81.54 23.663 129.492 45.208 41.982 18.545 76.348 53.837 97.967 97.334 21.755 43.376 35.558 91.375 47.815 136.672 12.274 45.256 23.172 88.496 32.477 134.056 9.354 45.64 15.33 97.87 16.715 148.052 1.44 50.367-1.712 97.558-6.32 141.583-4.65 44.048-9.842 84.922-15.995 123.852-6.385 38.85-11.658 77.101-27.98 110.817-16.355 33.732-44.152 62.027-71.82 86.426-27.612 24.551-54.392 45.808-72.131 69.224-17.803 23.383-25.508 50.142-26.548 78.124-1.168 27.862 3.712 56.788 6.945 82.051 3.176 25.216 4.017 46.592-.656 59.987-4.609 13.356-15.418 18.298-33.677 11.54z"/></g><g><path fill="none" stroke="#fff" stroke-miterlimit="20" stroke-width="2.3" d="M1069.187 750.445c-92.962-31.24-160.404-81.037-216.74-121.667-56.463-40.534-103.124-73.03-147.696-86.835-44.428-13.916-84.551-11.773-121.77-7.206-37.026 4.295-70.915 9.958-100.155 5.55-29.184-4.302-53.559-18.859-71.196-45.58-17.684-26.698-28.871-65.776-31.704-109.998-2.897-44.38 1.008-94.097 11.667-143.605 10.61-49.5 25.087-98.584 40.347-148.276 15.204-49.556 30.312-99.64 54.639-161.44 17.565-44.27 35.618-90.563 60.793-133.152 25.255-42.63 55.215-80.805 81.278-114.436 26.103-33.744 48.197-63.457 63.105-91.994 14.932-28.433 19.806-57.178 26.976-82.9 7.113-25.674 17.932-45.997 32.76-61.729 14.813-15.732 33.498-27.065 55.504-33.384 22.038-6.342 48.253-8.014 77.693-5.966 29.456 2.031 62.713 7.862 100.7 18.067 37.946 10.206 80.902 24.85 128.155 46.717 41.427 18.82 73.252 54.403 93.801 96.912 20.678 42.382 34.106 88.819 46.405 132.88 12.3 44.013 23.606 86.251 33.233 131.432 9.683 45.245 15.628 97.664 17.469 147.148 1.944 49.62-1.6 95.977-5.546 139.487-3.945 43.517-7.97 84.003-13.115 122.746-5.386 38.694-9.89 77.061-26.808 110.813-16.948 33.776-45.572 62.145-73.596 86.699-27.975 24.73-54.663 46.22-71.683 70.23-17.085 23.947-23.295 51.548-22.959 80.293.2 28.593 6.37 58.138 10.835 84.092 4.41 25.89 6.218 47.948 1.64 61.889-4.496 13.908-15.363 19.475-34.033 13.213z"/></g><g><path fill="none" stroke="#fff" stroke-miterlimit="20" stroke-width="2.33" d="M1086.852 762.884c-95.544-28.714-165.737-78.31-223.877-119.456-58.293-41.034-105.533-75.116-150.446-90.125-44.785-15.081-84.884-13.657-122.104-9.433-37.02 3.896-70.896 9.577-100.27 5.2-29.31-4.248-53.958-18.713-71.928-45.658-18.002-26.826-29.182-65.764-32.853-111.775-3.719-46.059.184-97.078 10.836-147.745 10.605-50.691 25.648-100.566 41.922-150.73 16.21-50.035 32.95-100.326 58.445-161.49 18.338-43.658 36.572-89.117 61.3-130.888 24.807-41.802 54.197-79.228 79.997-112.198 25.823-33.09 47.928-62.22 63.21-90.19 15.3-27.866 21.281-55.643 28.375-81.245 7.03-25.578 17.826-45.723 32.557-61.156 14.691-15.48 32.877-26.313 55.326-32.09 22.44-5.8 48.048-7.24 77.374-4.704 29.318 2.488 62.403 8.817 100.087 19.585 37.643 10.745 80.157 26.026 126.653 48.115 40.81 19.025 70.01 54.708 89.579 96.214 19.697 41.347 32.853 86.27 45.248 129.144 12.388 42.795 24.16 84.117 34.101 129.008 9.997 45.019 16.57 97.646 18.162 146.073 1.663 48.627-1.551 94.574-4.67 137.512-3.151 42.971-5.91 82.997-10.03 121.64-4.35 38.538-8.252 77.053-25.846 110.863-17.627 33.802-47.113 62.324-75.487 87.013-28.327 24.89-54.894 46.683-71.137 71.26-16.306 24.506-20.993 52.996-19.321 82.405 1.52 29.29 8.94 59.428 14.579 85.998 5.59 26.521 9.053 49.37 4.566 63.884-4.406 14.473-15.314 20.705-34.348 14.969z"/></g><g><path fill="none" stroke="#fff" stroke-miterlimit="20" stroke-width="2.35" d="M1105.974 775.298c-98.05-25.877-171.045-75.07-231.134-116.682-60.24-41.459-108.27-77.07-153.62-93.34-45.23-16.303-85.35-15.647-122.591-11.84-37.041 3.472-70.916 9.08-100.433 4.768-29.444-4.207-54.354-18.59-72.675-45.674-18.345-26.99-29.94-66.352-33.883-113.163-4.014-46.89-.631-99.98 9.932-151.821 10.508-51.906 26.03-102.548 43.24-153.174C461.946 43.898 480.187-6.52 506.808-67.041c19.073-43.09 37.577-87.645 61.936-128.664 24.438-41.027 53.315-77.679 78.88-109.995 25.575-32.428 47.694-61.017 63.344-88.365 15.65-27.301 22.919-53.986 29.884-79.47 6.901-25.446 17.641-45.427 32.275-60.554 14.595-15.174 32.915-25.428 55.25-30.82 22.328-5.391 47.83-6.423 77.026-3.463 29.189 2.943 62.088 9.782 99.465 21.077 37.338 11.27 79.409 27.109 125.167 49.386 40.2 19.15 66.726 54.746 85.446 95.18 18.841 40.276 31.844 83.695 44.399 125.394 12.563 41.643 24.822 82.094 35.098 126.704 10.308 44.795 17.201 97.22 18.609 144.783 1.463 47.842-1.272 93.093-3.495 135.488-2.255 42.41-3.686 81.958-6.75 120.457-3.302 38.412-6.796 76.999-25.181 110.883-18.401 33.884-48.829 62.488-77.57 87.325-28.7 25.061-55.146 47.139-70.564 72.272-15.498 25.093-18.625 54.393-15.674 84.398 2.807 29.892 11.42 60.544 18.185 87.693 6.717 27.093 11.42 50.61 7.845 65.832-3.527 15.166-15.034 21.941-34.41 16.798z"/></g><g><path fill="none" stroke="#fff" stroke-miterlimit="20" stroke-width="2.38" d="M1125.588 787.704c-100.438-22.855-176.27-71.412-238.423-113.393-62.282-41.806-111.1-78.276-157.16-96.466-45.907-18.295-85.95-17.863-123.259-14.496-37.084 3.024-70.96 8.528-100.62 4.24-29.582-4.2-54.755-18.463-73.425-45.685-18.694-27.118-30.717-66.908-34.965-114.48-4.327-47.646-.311-102.418 9.216-155.68 9.455-53.268 26.133-104.665 44.195-155.765C469.113 45.069 488.75-5.44 516.436-65.34c19.758-42.51 38.596-86.267 62.65-126.545 24.133-40.269 52.562-76.21 77.911-107.905 25.366-31.806 47.5-59.828 63.505-86.602 16.039-26.727 26.006-52.47 31.725-77.62 5.72-25.15 17.23-45.1 31.7-59.988 14.48-14.887 32.997-24.59 55.203-29.622 22.198-5.032 47.603-5.656 76.64-2.24 29.045 3.408 61.761 10.76 98.822 22.535 37.028 11.791 78.64 28.15 123.666 50.525 39.596 19.23 63.418 54.54 81.408 93.914 18.118 39.173 31.045 81.115 43.843 121.728 12.799 40.518 25.606 80.187 36.228 124.616 10.647 44.606 17.495 96.57 18.823 143.4 1.367 47.1-.776 91.69-2 133.48-1.272 41.837-1.28 80.922-3.28 119.288-2.224 38.237-5.551 76.987-24.837 110.953-19.278 33.99-50.699 62.684-79.816 87.69-29.093 25.23-55.386 47.605-69.945 73.332-14.638 25.678-16.23 55.732-12.014 86.338 4.047 30.455 13.798 61.605 21.637 89.275 7.792 27.59 13.519 51.709 10.975 67.628-2.48 15.91-13.998 23.366-33.692 18.863z"/></g><g><path fill="none" stroke="#fff" stroke-miterlimit="20" stroke-width="2.41" d="M1145.612 799.06c-102.648-19.589-181.265-67.322-245.561-109.566-64.408-42.02-114.577-79.662-161.009-99.412-46.288-19.957-86.664-20.326-124.025-17.469-37.128 2.497-71 7.882-100.784 3.593-29.696-4.177-55.112-18.325-74.136-45.693-19.033-27.231-31.497-67.386-36.065-115.72-4.656-48.382-1.112-104.685 8.584-159.253 9.64-54.639 26.12-106.99 44.905-158.54 18.704-51.382 39.616-101.965 68.288-161.245 20.384-41.948 39.584-84.928 63.392-124.547 23.88-39.611 51.905-74.837 77.057-105.942 25.168-31.208 47.32-58.68 63.656-84.888 16.368-26.183 26.984-51.27 33.576-75.78 6.592-24.472 16.808-44.765 31.152-59.37 14.336-14.635 33.08-23.838 55.129-28.487 22.048-4.682 47.32-4.898 76.192-1.049 28.864 3.85 61.392 11.684 98.105 23.975 36.696 12.348 78.768 28.696 122.032 51.582 38.064 19.79 60.112 54.12 77.497 92.37 17.496 38.051 30.44 78.598 43.544 118.185 13.104 39.5 26.472 78.43 37.448 122.73 10.992 44.51 17.464 95.844 18.816 141.937 1.384 46.38-.064 90.257-.184 131.476-.2 41.212 1.296 79.863.36 118.146-1.144 38.138-4.568 77.037-24.832 111.119-20.256 34.09-52.68 62.921-82.177 88.112-29.472 25.431-55.576 48.118-69.208 74.445-13.712 26.256-13.768 57.072-8.352 88.225 5.248 30.993 16.064 62.57 24.912 90.73 8.8 28.095 15.496 52.702 13.936 69.283-1.504 16.612-12.272 24.927-32.248 21.054z"/></g><g><path fill="none" stroke="#fff" stroke-miterlimit="20" stroke-width="2.43" d="M1165.791 810.391c-94.203-14.523-169.4-54.013-232.063-92.39-62.704-38.208-112.433-75.433-156.73-100.223-44.25-24.854-83.493-34.4-119.184-35.688-35.54-1.584-68.023 3.537-97.754 4.697-29.644 1.12-56.417-2.088-79.045-15.556-22.597-13.379-40.963-36.96-53.529-70.376-12.59-33.368-19.27-76.322-19.477-124.1-.272-47.852 5.83-100.264 16.91-149.788 11.03-49.611 26.668-96.862 44.761-143.57 18.046-46.61 38.459-92.74 65.055-145.513 20.957-41.386 40.514-83.62 64.12-122.565 23.684-38.953 51.336-73.505 76.317-104.016 24.988-30.615 47.153-57.541 63.815-83.163 16.693-25.614 27.916-50.116 35.355-73.93 7.439-23.797 16.55-44.314 30.732-58.637 14.174-14.323 33.123-23.07 54.992-27.39 21.877-4.337 47.001-4.193 75.677.136 28.676 4.257 60.96 12.635 97.307 25.358 36.33 12.843 79.06 29.582 120.103 52.46 36.147 19.892 57.032 53.46 73.902 90.549 16.974 36.856 30.02 76.074 43.482 114.675 13.454 38.464 27.436 76.69 38.754 120.98 11.343 44.418 17.142 94.854 18.614 140.28 1.504 45.627.864 88.821 1.936 129.406.975 40.602 4.031 78.739 4.159 116.924-.064 38.033-3.855 77.026-25.213 111.29-21.3 34.24-54.768 63.174-84.628 88.54-29.844 25.63-55.704 48.612-68.35 75.554-12.718 26.862-11.263 58.373-4.704 89.997 6.392 31.463 18.222 63.47 28.013 92.021 9.742 28.51 17.333 53.565 16.717 70.777-.552 17.18-9.83 26.406-30.044 23.261z"/></g><g><path fill="none" stroke="#fff" stroke-miterlimit="20" stroke-width="2.46" d="M1186.175 820.687c-92.617-10.19-173.3-49.033-237.968-87.307-64.79-37.979-116.213-75.933-161.397-101.825-45.16-25.948-84.746-37.202-120.604-39.322-35.698-2.376-68.18 2.28-97.952 3.263-29.683.936-56.534-2.255-79.363-15.677-22.796-13.318-41.465-36.923-54.382-70.55-12.942-33.563-20.013-77.036-20.477-125.501-.536-48.593 5.687-102.009 16.661-152.73 10.934-50.776 26.644-98.768 45.297-145.777 18.597-46.905 39.945-92.978 67.292-145.179 21.46-40.81 41.37-82.283 64.846-120.622 23.548-38.362 50.871-72.197 75.707-102.136 24.836-30.02 47.032-56.368 64.005-81.452 17.005-25.02 28.82-48.913 37.066-72.061 8.23-23.085 15.95-43.914 30.539-57.792 14.55-13.87 33.018-22.428 54.71-26.364 21.685-4 46.649-3.407 75.116 1.28 28.467 4.68 60.502 13.502 96.464 26.676 35.954 13.326 78.979 30.356 117.948 53.128 34.338 19.853 54.2 52.608 70.66 88.507 16.55 35.723 29.803 73.605 43.673 111.223 13.862 37.499 28.475 75.093 40.153 119.358 11.71 44.362 16.55 93.738 18.23 138.444 1.743 44.905 2.023 87.323 4.375 127.229 2.231 39.962 6.934 77.548 8.094 115.662 1.016 37.955-3.487 77.077-26.003 111.488-22.437 34.379-56.959 63.43-87.17 88.986-30.203 25.805-55.774 49.121-67.357 76.685-11.662 27.468-8.75 59.591-1.087 91.65 7.486 31.867 20.26 64.263 30.93 93.154 10.615 28.884 19.037 54.328 19.317 72.085.312 17.742-7.622 27.724-27.323 25.477z"/></g><g><path fill="none" stroke="#fff" stroke-miterlimit="20" stroke-width="2.48" d="M1207.611 830.879c-89.13-5.975-176.338-43.556-243.018-81.552-66.927-37.62-120.184-76.241-166.406-103.223-46.213-27.013-86.264-40.084-122.329-43.124-35.92-3.271-68.432.944-98.27 1.68-29.75.68-56.69-2.471-79.717-15.878-22.995-13.303-41.972-36.877-55.258-70.714-13.303-33.772-20.786-77.664-21.538-126.852-.825-49.283 5.218-103.694 16.4-155.553 11.157-51.979 26.66-100.59 45.78-148.002 19.082-47.283 41.276-93.24 69.313-144.93 21.93-40.284 42.156-81.025 65.559-118.805 23.475-37.812 50.544-71.017 75.267-100.39 24.732-29.446 46.966-55.291 64.254-79.801 17.32-24.494 29.71-47.764 38.747-70.233 9.028-22.414 16.511-43.14 30.838-56.771 14.303-13.623 32.551-21.878 54.065-25.518 21.506-3.663 46.294-2.72 74.555 2.392 28.262 5.104 60.045 14.39 95.621 27.95 35.577 13.79 78.597 31.085 115.646 53.602 35.409 21.366 54.85 56.883 71.794 95.063 17.048 37.917 31.727 77.425 47.334 117.645 15.576 40.285 33.112 83.864 42.172 133.94 9.068 50.147 9.98 99.35 11.846 145.442 1.896 46.116 5.522 88.792 10.669 129.916 4.722 41.1 12.942 82.648 4.242 123.7-8.692 41.036-40.411 78.68-75.02 109.742-34.472 31.5-70.152 56.994-90.906 85-20.85 27.965-23.915 61.226-17.777 96.095 5.923 34.644 20.138 70.641 33.16 103.486 12.942 32.78 24.556 62.306 27.157 83.456 2.657 21.126-3.818 33.74-24.18 32.237z"/></g><g><path fill="none" stroke="#fff" stroke-miterlimit="20" stroke-width="2.51" d="M1226.976 839.98c-85.516-2.046-178.147-37.578-246.84-75.15-69.02-37.058-124.171-76.3-171.503-104.307-47.355-28.07-87.924-43.033-124.22-47.04-36.159-4.182-68.684-.552-98.569-.072-29.788.408-56.8-2.759-80.009-16.146-23.17-13.3-42.434-36.836-56.08-70.832-13.653-33.948-21.552-78.18-22.617-128.036-1.136-49.91 4.778-105.251 16.023-158.193 11.213-53.022 27.043-102.509 46.34-150.116C508.747 42.576 531.805-3.4 560.44-54.534c22.322-39.73 42.795-79.749 66.164-117.04 23.434-37.267 50.277-69.856 74.912-98.686 24.634-28.902 46.915-54.19 64.499-78.15 17.615-23.895 30.556-46.631 40.352-68.391 9.788-21.713 17.136-42.25 31.197-55.677 14.03-13.396 32.062-21.36 53.359-24.704 21.288-3.319 45.883-2.055 73.902 3.471 28.012 5.51 59.513 15.235 94.664 29.134 35.15 14.14 77.84 31.685 113.087 53.837 33.718 21.105 52.374 55.573 69.173 92.473 16.919 36.675 32.077 74.854 48.284 114.304 16.175 39.586 34.43 83.723 42.882 132.754 8.443 49.223 9.604 97.615 12.413 142.871 2.833 45.272 8.155 87.082 14.958 127.652 6.33 40.546 16.431 82.116 6.619 123.333-9.836 41.178-43.258 79.07-78.76 110.314-35.392 31.67-71.27 57.38-91.279 85.907-20.112 28.494-21.4 62.538-14.094 97.862 7.083 35.084 22.226 71.4 36.071 104.532 13.766 33.068 26.107 62.954 29.533 84.539 3.497 21.552-2.041 34.772-21.401 34.18z"/></g><g><path fill="none" stroke="#fff" stroke-miterlimit="20" stroke-width="2.54" d="M1246.586 848.94c-81.865 1.648-178.803-31.225-249.506-68.192-71.064-36.36-128.182-76.16-176.715-105.153-48.58-28.986-89.785-46.046-126.34-51.06-36.429-5.208-68.992-2.152-98.923-2-29.835.072-56.902-3.104-80.28-16.517-23.331-13.293-42.877-36.76-56.87-70.944-14.002-34.097-22.33-78.687-23.723-129.156-1.472-50.54 4.208-106.72 15.538-160.74 11.28-54.108 27.538-104.521 47.076-152.343 19.498-47.717 42.82-93.507 72.096-144.2 22.746-39.231 43.309-78.614 66.687-115.406 23.434-36.784 50.093-68.825 74.656-97.099 24.562-28.354 46.893-53.156 64.767-76.559 17.897-23.355 31.37-45.486 41.892-66.593 10.513-21.06 17.818-41.32 31.62-54.532 13.769-13.19 31.547-20.948 52.613-23.947 21.058-3.063 45.437-1.368 73.183 4.503 27.747 5.87 58.943 16.028 93.634 30.257 34.7 14.501 76.776 32.09 110.356 53.844 32.14 20.804 50.133 54.116 66.895 89.813 16.858 35.448 32.587 72.408 49.437 111.135 16.81 38.912 35.3 83.518 43.26 131.587 7.937 48.341 9.473 95.955 13.354 140.345 3.88 44.446 11.017 85.317 19.53 125.348 7.993 40.008 19.722 81.654 8.649 123.093-11.113 41.407-46.301 79.59-82.68 111-36.285 31.865-72.304 57.82-91.498 86.893-19.306 29.017-18.794 63.906-10.37 99.61 8.185 35.52 24.187 72.088 38.773 105.496 14.505 33.353 27.49 63.522 31.675 85.518 4.232 22.003-.408 35.776-18.786 36z"/></g><g><path fill="none" stroke="#fff" stroke-miterlimit="20" stroke-width="2.56" d="M1264.468 857.43c-78.233 5.08-178.347-24.536-251.038-60.729-73.052-35.513-132.197-75.754-182.018-105.682-49.909-29.913-91.844-49.01-128.71-55.162-36.746-6.296-69.357-3.896-99.346-4.12-29.884-.304-56.994-3.576-80.528-16.984-23.48-13.304-43.288-36.769-57.626-71.058-14.347-34.224-23.103-79.13-24.855-130.187-1.823-51.097 3.583-108.106 14.955-163.147 11.315-55.154 27.949-106.539 47.701-154.556C522.716 47.9 546.1 2.419 575.671-47.782c22.895-38.785 44.095-77.666 67.526-114.003 23.479-36.329 50.037-67.85 74.54-95.602 24.51-27.825 46.893-52.153 65.054-75.002 18.185-22.849 32.291-44.345 43.447-64.801 11.148-20.417 18.48-40.297 32.02-53.346 13.498-13.016 31.028-20.52 51.852-23.24 20.816-2.768 44.95-.8 72.42 5.496 27.461 6.24 58.313 16.824 92.54 31.305 34.227 14.776 75.45 32.32 107.478 53.617 30.676 20.376 48.126 52.545 64.943 87.098 16.905 34.297 33.251 70.073 50.772 108.122 17.49 38.265 35.73 83.226 43.312 130.403 7.565 47.505 9.604 94.29 14.658 137.796 5.038 43.569 14.122 83.474 24.374 122.986 9.709 39.45 22.752 81.25 10.269 122.955-12.532 41.673-49.501 80.154-86.743 111.779-37.17 32.073-73.26 58.273-91.54 87.946-18.393 29.617-16.106 65.21-6.63 101.314 9.22 35.897 26.006 72.714 41.248 106.355 15.17 33.577 28.701 63.985 33.58 86.386 4.901 22.344 1.087 36.689-16.323 37.649z"/></g><g><path fill="none" stroke="#fff" stroke-miterlimit="20" stroke-width="2.59" d="M1283.516 865.435c-74.71 8.322-176.997-17.59-251.709-52.81-75.039-34.466-136.326-75.063-187.573-105.88-51.368-30.778-94.207-51.929-131.47-59.291-37.16-7.458-69.872-5.818-99.951-6.45-29.968-.712-57.152-4.13-80.855-17.574-23.648-13.324-43.72-36.74-58.424-71.174-14.703-34.323-23.895-79.529-26.031-131.105-2.208-51.624 2.912-109.402 14.28-165.42 11.311-56.138 28.303-108.53 48.247-156.745C529.942 50.899 553.357 5.788 583.149-43.9c25.904-43.006 50.087-86.691 77.183-125.84 27.192-39.164 57.335-72.07 83.751-100.92 26.44-28.913 49.143-54.177 66.831-78.12 17.728-23.904 30.56-46.63 41.392-67.093 10.808-20.479 25.88-34.315 46.16-41.27 20.239-6.993 44.887-7.57 73.614-2.56 28.736 4.962 61.647 15.533 98.735 31.05 37.096 15.933 82.639 35.203 117.127 58.482 29.375 19.927 46.423 50.936 63.375 84.347 17.048 33.138 34.095 67.821 52.351 105.233 18.224 37.628 35.792 82.842 43.12 129.192 7.32 46.671 9.975 92.606 16.351 135.203 6.328 42.653 17.472 81.554 29.512 120.55 11.48 38.892 25.504 80.873 11.464 122.934-14.08 42.038-52.927 80.834-91.023 112.652-38.056 32.322-74.191 58.778-91.47 89.076-17.4 30.21-13.369 66.509-2.897 102.96 10.216 36.236 27.72 73.263 43.544 107.122 15.76 33.81 29.775 64.428 35.263 87.14 5.52 22.726 2.488 37.563-14.016 39.196z"/></g><g><path fill="none" stroke="#fff" stroke-miterlimit="20" stroke-width="2.61" d="M1301.838 872.991c-71.277 11.304-174.616-10.496-251.27-44.48-76.926-33.184-140.393-74.04-193.147-105.64-52.905-31.553-96.777-54.761-134.488-63.385-37.623-8.744-70.469-7.856-100.65-8.976-30.07-1.232-57.315-4.792-81.183-18.264-23.813-13.385-44.136-36.769-59.187-71.25-15.05-34.407-24.692-79.808-27.22-131.848-2.601-52.08 2.175-110.529 13.506-167.425 11.266-57 28.58-110.457 48.68-158.786 20.068-48.24 43.464-92.92 73.382-142 25.932-42.37 50.689-85.433 77.758-124.154 27.157-38.72 57.354-71.128 83.96-99.465 26.636-28.352 49.656-53.048 67.803-76.376 18.188-23.28 31.614-45.265 43.088-65 11.442-19.705 25.58-33.865 45.593-40.561 19.963-6.736 44.344-6.992 72.757-1.64 28.429 5.296 60.987 16.288 97.586 32.056 36.59 16.144 80.934 35.208 114.012 57.809 28.197 19.336 44.944 49.216 62.124 81.504a6128.797 6128.797 0 0 1 54.097 102.41c19.012 37 35.463 82.384 42.64 127.872 7.193 45.825 10.61 90.873 18.428 132.457 7.729 41.665 21.06 79.545 34.902 117.97 13.298 38.311 27.893 80.56 12.162 122.984-15.755 42.376-56.474 81.473-95.41 113.529-38.91 32.576-74.997 59.296-91.184 90.217-16.299 30.84-10.586 67.72.816 104.489 11.146 36.52 29.286 73.728 45.609 107.72 16.259 33.977 30.685 64.72 36.71 87.73 6.073 22.975 3.737 38.2-11.874 40.503z"/></g><g><path fill="none" stroke="#fff" stroke-miterlimit="20" stroke-width="2.64" d="M1319.403 879.083c-67.962 14.045-171.242-3.263-249.733-35.831-78.684-31.745-144.366-72.719-198.678-105.015-54.504-32.264-99.534-57.402-137.764-67.432-38.158-10.11-71.146-10.07-101.447-11.725-30.18-1.791-57.496-5.526-81.508-19.091-23.955-13.469-44.526-36.791-59.929-71.335-15.394-34.48-25.475-80.044-28.42-132.496-3.016-52.507 1.392-111.557 12.634-169.27 11.17-57.867 28.78-112.373 49-160.802 20.194-48.356 43.526-92.633 73.474-141.054 25.868-41.701 51.152-84.14 78.204-122.442 27.116-38.335 57.384-70.31 84.188-98.112 26.828-27.873 50.183-51.987 68.778-74.718 18.635-22.65 32.645-43.973 44.735-63 12.058-18.996 25.451-33.313 45.182-39.799 19.683-6.502 43.775-6.454 71.867-.784 28.1 5.647 60.28 16.988 96.366 32.944 36.07 16.388 79.028 35.024 110.84 56.874 27.125 18.748 43.671 47.477 61.178 78.67 17.594 30.928 36.205 63.48 56.016 99.727 19.843 36.383 34.773 81.812 41.902 126.521 7.21 44.958 11.506 89.09 20.875 129.633 9.257 40.654 24.892 77.421 40.526 115.332 15.122 37.767 29.893 80.349 12.346 123.186-17.547 42.814-60.153 82.188-99.855 114.493-39.71 32.832-75.675 59.849-90.637 91.441-15.082 31.505-7.785 68.944 4.488 105.943 12.002 36.79 30.693 74.086 47.44 108.237 16.682 34.072 31.404 64.929 37.901 88.203 6.497 23.242 4.785 38.799-9.97 41.702z"/></g><g><path fill="none" stroke="#fff" stroke-miterlimit="20" stroke-width="2.66" d="M1336.27 885.687c-64.773 16.556-166.953 3.913-247.141-26.952-80.316-30.136-148.193-71.115-204.127-104.044-56.165-32.897-102.467-59.944-141.298-71.435-38.766-11.58-71.94-12.475-102.379-14.732-30.31-2.36-57.685-6.394-81.852-20.077-24.103-13.596-44.91-36.85-60.645-71.516-15.728-34.521-26.255-80.31-29.631-133.148-3.44-52.87.56-112.55 11.68-171.086C491.9 214.009 509.77 158.41 530.09 109.805c20.287-48.541 43.51-92.37 73.405-140.158 25.735-41.011 51.453-82.774 78.492-120.769 27.087-38.026 57.43-69.61 84.436-96.954 27.023-27.431 50.718-51.046 69.75-73.188 19.078-22.11 33.646-42.771 46.325-61.12 12.648-18.35 25.495-32.73 44.942-39.01 19.391-6.314 43.182-5.97 70.933.015 27.759 5.938 59.55 17.645 95.092 33.761 35.534 16.485 76.964 34.626 107.635 55.735 26.167 18.085 42.63 45.749 60.517 75.901 17.983 29.896 37.446 61.489 58.086 97.234 20.727 35.778 33.718 81.23 40.926 125.218 7.335 44.148 12.655 87.28 23.703 126.802 10.903 39.62 28.934 75.26 46.374 112.71 16.959 37.251 31.446 80.31 11.967 123.65-19.423 43.284-63.901 83.039-104.34 115.616-40.461 33.105-76.196 60.512-89.82 92.817-13.727 32.208-4.975 70.147 8.088 107.405 12.808 37.058 31.95 74.524 49.038 108.75 17.023 34.176 31.959 65.177 38.838 88.647 6.88 23.454 5.752 39.387-8.207 42.82z"/></g><g><path fill="none" stroke="#fff" stroke-miterlimit="20" stroke-width="2.69" d="M1352.42 891.726c-61.758 18.88-161.827 11.056-243.543-17.857-81.765-28.312-151.847-69.056-209.446-102.56-57.8-33.449-104.172-60.24-144.818-74.889-40.503-14.76-73.073-15.408-103.7-18.304-30.466-3.048-57.91-7.408-82.22-21.192-24.246-13.72-45.269-36.96-61.342-71.665-16.057-34.568-27.028-80.465-30.834-133.617-3.879-53.2-.312-113.385 10.627-172.602 10.835-59.416 28.924-116.073 49.315-164.8 20.359-48.673 43.413-91.986 73.176-139.114 25.533-40.312 51.594-81.257 78.614-118.937 27.053-37.728 57.48-68.873 84.684-95.817 27.236-26.976 51.25-50.088 70.722-71.68 19.511-21.513 34.625-41.56 47.867-59.265 13.21-17.648 25.709-32.072 44.853-38.136 19.096-6.104 42.581-5.552 69.97.744 27.396 6.224 58.774 18.24 93.783 34.424 34.985 16.536 74.768 34 104.443 54.32 25.326 17.4 41.798 43.937 60.143 73.09 18.44 28.84 38.807 59.536 60.31 94.776 21.662 35.144 32.338 80.529 39.718 123.769 7.59 43.288 14.058 85.36 26.909 123.76 12.666 38.521 33.21 72.978 52.41 109.946 18.783 36.752 32.513 80.385 10.995 124.209-21.4 43.8-67.723 83.865-108.826 116.729-41.134 33.416-76.55 61.168-88.69 94.209-12.234 32.928-2.182 71.248 11.596 108.697 13.53 37.264 33.065 74.768 50.386 109.096 17.265 34.297 32.346 65.289 39.527 88.945 7.213 23.608 6.573 39.809-6.63 43.72z"/></g><g><path fill="none" stroke="#fff" stroke-miterlimit="20" stroke-width="2.72" d="M1368.711 897.153c-58.997 20.968-156.088 18.153-239.22-8.653-83.1-26.23-155.408-66.688-214.773-100.588-59.573-33.892-107.307-61.858-148.696-78.116-41.246-16.395-74.445-18.514-105.283-22.177-30.679-3.766-58.213-8.5-82.7-22.464-24.415-13.89-45.662-37.138-62.077-71.862-16.39-34.572-27.806-80.547-32.078-133.992-4.328-53.437-1.216-114.087 9.511-173.93 10.608-60.043 28.903-117.806 49.35-166.637 20.423-48.806 43.302-91.623 72.884-138.014 25.287-39.57 51.606-79.628 78.628-117.03 27.039-37.475 57.581-68.264 85.02-94.775 27.47-26.566 51.845-49.214 71.764-70.23 19.96-20.993 35.606-40.418 49.406-57.476 13.767-17.042 26.078-31.317 44.958-37.203 18.815-5.926 42.005-5.126 69.044 1.4 27.055 6.461 58.021 18.753 92.515 34.963 34.455 16.538 72.54 33.164 101.363 52.67 24.623 16.697 41.214 42.176 60.101 70.31 18.92 27.958 41.83 56.068 62.637 92.56 20.895 36.37 30.702 79.707 38.462 122.108 7.976 42.376 15.735 83.37 30.527 120.58 14.559 37.347 37.726 70.567 58.669 107.122 20.599 36.307 33.078 80.596 9.431 124.956-23.479 44.312-71.652 84.73-113.386 117.902-41.774 33.7-76.788 61.874-87.316 95.678-10.591 33.716.552 72.278 14.991 109.896 14.208 37.443 34.047 75.014 51.542 109.353 17.431 34.292 32.582 65.345 40.006 89.129 7.431 23.727 7.231 40.17-5.28 44.52z"/></g><g><path fill="none" stroke="#fff" stroke-miterlimit="20" stroke-width="2.74" d="M1384.259 902.951c-56.436 22.878-149.658 25.013-233.983.6-84.23-23.973-158.699-63.888-219.847-98.204-61.38-34.251-110.551-63.312-152.77-81.166-42.09-17.933-75.965-21.829-107.039-26.292-30.914-4.592-58.556-9.711-83.213-23.925-24.57-14.103-46.051-37.388-62.788-72.16-16.713-34.691-28.578-80.686-33.314-134.375-4.793-53.69-2.153-114.754 8.312-175.21 10.337-60.713 28.778-119.506 49.275-168.5 20.466-48.962 43.131-91.324 72.453-136.975 24.978-38.827 51.435-77.918 78.453-115.13 27.01-37.291 57.66-67.76 85.342-93.9 27.705-26.189 52.427-48.418 72.788-68.904 20.402-20.453 36.57-39.323 50.9-55.785 14.305-16.43 26.601-30.492 45.203-36.251 18.537-5.792 41.418-4.752 68.092 1.983 26.69 6.68 57.244 19.206 91.206 35.388 33.922 16.438 70.22 32.172 98.335 50.85 24.025 15.966 40.81 40.387 60.315 67.624 19.514 27.124 44.371 55.169 64.565 90.772 20.249 35.628 29.282 78.67 37.546 120.178 8.489 41.506 17.69 81.334 34.53 117.33 16.57 36.155 42.46 68.15 65.077 104.338 22.361 35.908 33.082 81.054 7.232 125.993-25.61 44.89-75.605 85.741-117.872 119.217-42.33 34.092-76.82 62.672-85.573 97.308-8.8 34.54 3.208 73.287 18.225 111.074 14.801 37.604 34.866 75.255 52.443 109.611 17.522 34.316 32.635 65.392 40.219 89.277 7.593 23.845 7.737 40.475-4.112 45.234z"/></g><g><path fill="none" stroke="#fff" stroke-miterlimit="20" stroke-width="2.77" d="M1399.048 907.092c-54.098 24.59-142.625 31.694-227.895 9.84-85.12-21.487-161.655-60.733-224.592-95.29-63.178-34.487-113.868-64.637-157.007-83.948-43.028-19.455-77.632-25.247-108.973-30.622-31.18-5.464-58.953-11.104-83.767-25.551-24.741-14.375-46.427-37.726-63.497-72.516-17.038-34.694-29.333-80.795-34.54-134.68-5.256-53.933-3.128-115.298 7.039-176.302 10.015-61.277 28.573-121.145 49.099-170.27C575.4 78.594 597.822 36.757 626.819-8.16c24.605-38.07 51.083-76.092 78.064-113.137 26.965-37.134 57.73-67.3 85.638-93.1 27.933-25.846 53.01-47.596 73.793-67.635 20.821-19.991 37.515-38.27 52.346-54.157 14.806-15.855 27.261-29.607 45.571-35.23 18.262-5.672 40.812-4.432 67.12 2.488 26.318 6.863 56.435 19.567 89.863 35.67 33.389 16.295 67.849 30.982 95.358 48.829 23.525 15.239 40.604 38.638 60.777 64.98 20.158 26.319 46.611 54.133 66.21 88.995 19.63 34.982 27.996 77.58 36.891 118.185 9.143 40.526 19.902 79.172 38.924 113.906 18.702 34.926 47.363 65.588 71.584 101.514 24.054 35.606 32.485 81.708 4.392 127.241-27.797 45.55-79.536 86.715-122.25 120.577-42.78 34.446-76.617 63.54-83.424 99.026-6.815 35.406 5.751 74.204 21.262 112.122 15.318 37.782 35.524 75.42 53.098 109.778 17.518 34.326 32.525 65.404 40.18 89.347 7.655 23.982 8.095 40.758-3.168 45.853z"/></g><g><path fill="none" stroke="#fff" stroke-miterlimit="20" stroke-width="2.79" d="M1413.961 911.66c-52.027 26.171-135.242 38.01-221.242 18.997-85.824-18.83-164.398-57.167-229.174-91.842-65.032-34.594-117.348-65.71-161.524-86.466-44.089-20.836-79.534-28.771-111.21-35.13-31.516-6.447-59.446-12.614-84.463-27.364-24.93-14.661-46.85-38.082-64.248-72.94-17.367-34.73-30.108-80.86-35.79-134.906-5.738-54.024-4.13-115.798 5.714-177.212 9.668-61.774 28.307-122.628 48.85-171.94 20.496-49.345 42.689-90.65 71.307-134.827 24.217-37.33 50.587-74.1 77.541-111.046 26.914-37.002 57.822-66.95 85.976-92.385 28.187-25.524 53.628-46.865 74.852-66.422 21.264-19.5 38.463-37.258 53.804-52.583 15.318-15.302 28.075-28.628 46.114-34.163 17.998-5.59 40.239-4.159 66.184 2.912 25.962 7.023 55.653 19.869 88.577 35.802 32.877 16.07 65.513 29.603 92.547 46.633 23.16 14.477 40.607 36.914 61.535 62.382 20.88 25.548 48.57 53.055 67.617 87.266 19.055 34.434 26.89 76.491 36.558 116.117 9.924 39.554 22.424 76.908 43.744 110.302 20.944 33.627 52.516 62.99 78.23 98.689 25.65 35.362 31.3 82.57.904 128.699-30.043 46.176-83.503 87.73-126.6 121.996-43.168 34.85-76.236 64.446-80.918 100.832-4.65 36.29 8.131 75.028 24.081 113.062 15.782 37.882 36.054 75.532 53.54 109.886 17.439 34.29 32.252 65.318 39.927 89.322 7.643 24.004 8.3 40.922-2.433 46.329z"/></g><g><path fill="none" stroke="#fff" stroke-miterlimit="20" stroke-width="2.82" d="M1428.264 916.724c-50.162 27.567-127.336 43.977-213.69 27.999-86.145-15.915-166.55-53.19-233.08-87.85-66.795-34.556-120.747-66.593-165.99-88.698-45.18-22.216-81.524-32.357-113.534-39.77-31.874-7.502-59.95-14.283-85.146-29.374-25.11-15.043-47.227-38.539-64.932-73.439-17.672-34.796-30.834-80.876-37-135.09-6.212-54.133-5.14-116.112 4.319-177.963 9.268-62.202 27.9-124.005 48.434-173.508 20.48-49.56 42.382-90.321 70.537-133.747 23.742-36.451 48.49-71.287 76.67-108.826 28.108-37.516 57.846-66.594 86.234-91.8 28.395-25.168 54.176-46.201 75.806-65.267 21.67-19.05 39.35-36.283 55.16-51.07 15.793-14.74 28.963-27.599 46.723-33.029 17.72-5.478 39.622-3.934 65.171 3.255 25.565 7.126 54.792 20.09 87.177 35.78 32.338 15.762 63.092 28.078 89.745 44.28 22.854 13.716 40.742 35.237 62.452 59.852 21.646 24.768 50.162 51.91 68.65 85.579 18.48 33.956 25.924 75.39 36.487 113.945 10.828 38.507 25.181 74.486 48.899 106.523 23.277 32.27 57.774 60.3 84.834 95.88 27.108 35.212 29.459 83.611-3.23 130.387-32.282 46.88-87.314 88.81-130.63 123.478-43.39 35.252-76.039 65.233-77.822 102.765-1.68 37.475 10.3 75.79 26.548 113.857 16.153 38.003 36.368 75.614 53.672 109.922 17.265 34.26 31.786 65.21 39.383 89.225 7.596 23.976 8.388 41.026-1.847 46.704z"/></g><g><path fill="none" stroke="#fff" stroke-miterlimit="20" stroke-width="2.85" d="M1442.548 921.328c-48.621 28.82-119.369 49.616-205.928 36.814-86.336-12.826-168.542-48.808-236.904-83.365-68.627-34.406-124.37-67.299-170.839-90.71-46.429-23.476-83.815-35.982-116.272-44.52-32.328-8.625-60.632-16.082-86.063-31.613-25.343-15.458-47.693-39.102-65.738-74.091-18.005-34.87-31.592-81.037-38.258-135.334-6.706-54.28-6.194-116.466 2.88-178.7 8.859-62.586 27.464-125.42 48.006-175.1 20.477-49.776 42.123-90.094 69.81-132.773 23.295-35.717 47.55-69.787 75.661-106.625 28.056-36.813 58.032-66.41 86.656-91.35 28.656-24.924 54.807-45.56 76.877-64.226 22.11-18.627 40.283-35.382 56.575-49.648 16.276-14.242 30.016-26.492 47.533-31.877 17.469-5.449 39.075-3.753 64.257 3.512 25.207 7.202 54.023 20.212 85.92 35.638 31.864 15.41 60.792 26.428 87.207 41.847 22.679 12.97 41.124 33.597 63.706 57.417 22.502 24.028 51.518 50.744 69.515 84.021 17.98 33.533 25.207 74.22 36.826 111.722 11.883 37.462 28.287 71.995 54.526 102.632 25.767 30.877 63.274 57.601 91.57 93.183 28.44 35.197 27.023 84.973-8.003 132.413-34.585 47.623-91.193 89.974-134.676 125.107-43.572 35.678-73.804 66.867-74.413 104.857-.496 37.918 12.204 76.452 28.776 114.65 16.469 38.142 36.578 75.748 53.639 109.994 17.02 34.237 31.192 65.09 38.65 89.126 7.45 23.971 8.33 41.118-1.496 47z"/></g><g><path fill="none" stroke="#fff" stroke-miterlimit="20" stroke-width="2.87" d="M1455.191 924.66c-47.286 29.924-111.119 54.713-197.439 45.322-86.112-9.502-169.848-43.986-239.918-78.26C947.508 857.637 890 823.986 842.299 799.39c-47.694-24.685-86.168-39.523-119.1-49.297-32.804-9.847-61.337-18.046-86.992-34.043-25.566-15.918-48.126-39.755-66.487-74.806-18.313-34.923-32.324-81.076-39.473-135.444-7.19-54.337-7.238-116.624 1.391-179.159 8.397-62.91 26.894-126.557 47.415-176.454 20.448-50.033 41.792-89.851 68.926-131.741 22.776-34.947 46.463-68.215 74.38-104.337 27.886-36.075 58.083-66.167 86.888-90.843 28.861-24.669 55.364-44.93 77.827-63.2 22.512-18.237 41.153-34.49 57.883-48.256 16.721-13.759 31.156-25.253 48.39-30.652 17.21-5.423 38.473-3.648 63.272 3.671 24.823 7.24 53.172 20.245 84.569 35.307 31.356 14.958 58.458 24.677 84.712 39.283 22.568 12.27 41.6 31.987 65.104 55.016 23.4 23.22 52.493 49.56 69.99 82.46 17.49 33.163 24.687 72.886 37.482 109.256 13.06 36.291 31.636 69.318 60.49 98.474 28.31 29.412 68.83 54.8 98.147 90.507 29.55 35.34 23.927 86.476-13.37 134.565-36.843 48.353-94.846 91.099-138.325 126.718-43.568 36.115-71.126 68.526-70.582 106.904.64 38.291 14.01 77.03 30.788 115.312 16.69 38.178 36.57 75.757 53.285 109.936 16.665 34.14 30.388 64.903 37.634 88.9 7.229 23.94 8.109 41.114-1.352 47.193z"/></g><g><path fill="none" stroke="#fff" stroke-miterlimit="20" stroke-width="2.9" d="M1469.863 928.705c-46.293 30.898-102.992 59.364-188.904 53.53-85.72-6.034-170.91-38.773-242.736-72.649-72.066-33.596-131.477-67.96-180.548-93.712-49.095-25.793-88.817-42.999-122.337-54.107-33.407-11.188-62.237-20.223-88.185-36.732-25.844-16.462-48.67-40.518-67.375-75.69-18.657-35.044-33.095-81.204-40.755-135.655-7.691-54.394-8.316-116.832-.136-179.645 7.924-63.222 26.276-127.628 46.798-177.853 20.441-50.338 41.515-89.703 68.103-130.853C676.047-8.865 699.146-41.42 726.83-76.792c27.67-35.348 58.147-65.967 87.177-90.407 29.101-24.449 55.986-44.4 78.876-62.294 22.939-17.838 42.068-33.66 59.252-46.96 17.192-13.276 32.439-24.032 49.439-29.41 16.976-5.418 37.945-3.593 62.397 3.738 24.483 7.202 52.568 22.04 83.398 34.563 30.847 12.213 56.259 23.072 82.47 36.95 22.587 11.555 42.316 30.45 66.816 52.73 24.355 22.527 54.32 47.768 70.104 81.171 15.656 33.772 24.556 71.432 38.77 106.549 14.399 35.092 35.329 66.542 66.935 94.192 30.999 27.93 74.61 52.002 104.777 88.022 30.478 35.636 20.241 88.27-19.353 137.055-39.138 49.145-98.518 92.336-141.922 128.5-43.492 36.62-68.216 70.24-66.55 109.093 1.736 38.67 15.727 77.627 32.662 116.032 16.864 38.285 36.45 75.842 52.753 109.926 16.255 34.076 29.478 64.758 36.433 88.686 6.939 23.945 7.771 41.086-1.4 47.36z"/></g><g><path fill="none" stroke="#fff" stroke-miterlimit="20" stroke-width="2.92" d="M1481.937 932.585c-45.494 31.71-94.805 63.427-179.881 61.315-84.893-2.36-171.21-33.126-244.615-66.42-73.637-32.982-134.899-67.86-185.337-94.681-50.494-26.845-91.5-46.288-125.643-58.835-34.047-12.594-63.19-22.524-89.413-39.63-26.127-17.044-49.182-41.352-68.213-76.655-18.976-35.166-33.831-81.302-41.983-135.784-8.175-54.434-9.391-116.917-1.712-179.897 7.408-63.419 25.535-128.495 46.023-179.016 20.399-50.68 41.19-89.552 67.165-129.943 21.695-33.47 44.118-65.204 71.461-99.874 27.335-34.646 58.038-65.668 87.237-89.912 29.295-24.245 56.518-43.88 79.797-61.403 23.335-17.46 42.91-32.854 60.526-45.697 17.615-12.818 33.438-22.972 50.502-28.125 17.04-5.193 37.406-3.552 61.485 3.737 24.12 7.185 52.462 21.836 82.021 33.494 29.591 11.434 54.142 21.628 80.397 34.702 22.671 10.826 43.127 28.973 68.646 50.473 25.415 21.708 54.334 47.217 69.749 79.879 15.335 32.974 24.807 69.756 40.51 103.578 15.856 33.854 39.287 63.58 73.694 89.665 33.742 26.372 80.389 49.184 111.116 85.63 31.118 36.143 15.95 90.21-25.848 139.69-41.342 49.93-101.924 93.553-145.042 130.264-43.222 37.134-64.878 71.997-62.142 111.228 2.792 39.039 17.32 78.206 34.311 116.653 16.92 38.367 36.11 75.83 51.894 109.828 15.743 33.966 28.351 64.475 34.95 88.367 6.56 23.829 7.264 40.968-1.655 47.369z"/></g><g><path fill="none" stroke="#fff" stroke-miterlimit="20" stroke-width="2.95" d="M1495.24 935.306c-44.983 32.448-86.855 66.905-170.83 68.64-83.79 1.457-171.021-27.064-245.964-59.632-75.143-32.184-138.302-67.497-190.197-95.289-51.976-27.832-94.343-49.368-129.223-63.44-34.791-14.097-64.31-25.049-90.87-42.785-26.448-17.712-49.776-42.32-69.151-77.769-19.32-35.32-34.584-81.457-43.248-135.93-8.68-54.448-10.487-116.92-3.32-180.04 6.888-63.554 24.712-129.186 45.168-180.075 20.367-51 40.88-89.449 66.23-129.105 21.12-32.72 42.856-63.673 69.784-97.633 26.943-33.928 57.847-65.369 87.23-89.409 29.496-24.072 57.048-43.432 80.735-60.584 23.728-17.105 43.768-32.073 61.8-44.489 18.04-12.384 34.255-22.112 51.567-26.904 17.288-4.84 37.023-3.504 60.751 3.728 23.76 7.176 52.183 21.384 80.599 32.208 28.463 10.632 52.255 20.224 78.679 32.48 22.84 10.169 44.111 27.497 70.727 48.281 26.567 20.896 53.991 46.592 69.183 78.553 15.16 32.248 25.351 67.984 42.695 100.473 17.472 32.512 43.568 60.416 80.88 84.929 36.583 24.808 86.254 46.384 117.293 83.448 31.48 36.793 11.104 92.345-32.855 142.53-43.528 50.72-105.207 94.825-147.91 132.113-42.823 37.649-61.263 73.753-57.495 113.393 3.8 39.377 18.807 78.77 35.775 117.257 16.912 38.425 35.616 75.817 50.8 109.706 15.151 33.848 27.087 64.232 33.255 88.008 6.136 23.737 6.648 40.873-2.088 47.337z"/></g><g><path fill="none" stroke="#fff" stroke-miterlimit="20" stroke-width="2.98" d="M1507.961 938.818c-44.729 33.032-79.189 69.767-161.705 75.453-82.324 5.47-170.174-20.635-246.524-52.283-76.503-31.208-141.553-66.824-194.918-95.505-53.486-28.673-97.256-52.21-132.955-67.879-35.62-15.764-65.578-27.721-92.49-46.197-26.806-18.395-50.406-43.397-70.135-79.02-19.658-35.496-35.34-81.628-44.513-136.087-9.173-54.41-11.58-116.884-4.959-180.084 6.334-63.665 23.784-129.736 44.21-180.988 20.328-51.38 40.57-89.434 65.265-128.337 20.521-31.984 41.514-62.192 67.961-95.4 26.471-33.2 57.517-64.968 87.059-88.875 29.662-23.89 57.54-42.997 81.612-59.825 24.112-16.804 44.577-31.336 63.019-43.341 18.45-11.997 35.028-21.275 52.59-25.754 17.522-4.55 36.78-3.36 60.156 3.72 23.4 7.07 51.694 20.762 79.077 30.736 27.43 9.813 50.559 18.795 77.23 30.304 23.088 9.462 45.216 26.098 72.983 46.149 27.783 19.979 53.294 45.893 68.353 77.173 15.107 31.424 26.159 66.192 45.273 97.216 19.217 31.08 48.143 57.114 88.418 79.997 39.49 23.178 92.112 43.629 123.142 81.508 31.493 37.703 5.742 94.665-40.274 145.54-45.641 51.532-108.252 96.089-150.358 134.031-42.233 38.247-57.34 75.558-52.574 115.564 4.767 39.742 20.17 79.293 37.02 117.835 16.81 38.471 34.924 75.798 49.431 109.558 14.467 33.735 25.64 63.936 31.31 87.602 5.653 23.626 5.91 40.67-2.704 47.189z"/></g><g><path fill="none" stroke="#fff" stroke-miterlimit="20" stroke-width="3" d="M1519.975 941.873c-44.787 33.559-75.472 71.374-152.92 81.702-77.216 10.312-168.686-13.735-246.31-44.367-77.775-30.088-144.728-65.903-199.626-95.375-55.002-29.511-98.973-53.167-136.673-71.823-37.556-18.68-67.257-30.943-94.622-50.207-27.221-19.224-51.139-44.631-71.24-80.479-20.03-35.751-36.132-81.895-45.82-136.358-9.686-54.383-12.694-116.862-6.623-180.125 5.768-63.727 22.782-130.15 43.172-181.87 20.301-51.863 40.3-89.494 64.329-127.71 19.934-31.311 40.163-60.75 66.08-93.246 25.942-32.512 57.082-64.591 86.783-88.367 29.821-23.808 58.034-42.631 82.487-59.16 24.502-16.463 45.412-30.63 64.258-42.27 18.861-11.584 35.812-20.48 53.618-24.688 17.766-4.256 36.692-3.224 59.745 3.72 23.07 6.968 51.075 19.935 77.544 29.103 26.517 9.064 49.09 17.384 76.112 28.176 23.421 8.848 46.483 24.752 75.48 44.103 29.1 19.104 52.306 45.104 67.344 75.775 15.19 30.616 27.246 64.311 48.315 93.83 21.134 29.592 53.059 53.664 96.39 74.896 42.475 21.56 98.013 40.911 128.698 79.91 31.165 38.8-.072 97.135-48.075 148.774-47.699 52.416-111.132 97.487-152.487 136.086-41.5 38.88-53.163 77.4-47.451 117.815 5.687 40.12 21.397 79.847 38.068 118.47 16.63 38.56 34.068 75.799 47.81 109.446 13.703 33.648 24.054 63.68 29.157 87.207 5.056 23.512 5.008 40.464-3.543 47.032z"/></g><g><path fill="none" stroke="#fff" stroke-miterlimit="20" stroke-width="3.03" d="M1532.735 944.193c-45.187 33.851-72.517 73.324-144.88 87.303-72.133 13.995-165.946-6.477-244.734-35.882-78.86-28.718-147.705-64.64-204.164-94.773-56.58-30.197-101.878-55.203-140.504-75.428-38.498-20.288-69.172-34.339-96.997-54.467-27.69-20.097-51.947-45.975-72.428-82.065-20.418-35.995-36.938-82.153-47.147-136.597-10.2-54.364-13.817-116.724-8.32-180.004 5.184-63.728 21.689-130.295 42.034-182.516 20.265-52.324 40.042-89.622 63.403-127.12 19.33-30.613 38.779-59.266 64.108-91.07 25.353-31.78 56.5-64.128 86.349-87.775 29.954-23.663 58.491-42.296 83.309-58.522 24.873-16.17 46.218-29.973 65.46-41.24 19.256-11.244 36.57-19.72 54.618-23.671 18.017-4.007 36.754-3.023 59.476 3.71 22.745 6.766 50.323 18.913 75.964 27.302 25.69 8.277 47.787 16.034 75.252 26.102 23.834 8.189 47.89 23.463 78.165 42.08 30.505 18.145 51.003 44.256 66.147 74.252 15.417 29.79 28.634 62.273 51.787 90.207 23.186 28.029 58.284 50.013 104.71 69.573 45.13 20.009 109.222 37.146 133.216 78.779 23.945 41.424-5.705 99.338-55.563 151.887-49.66 53.244-113.759 98.81-154.17 138.14-40.561 39.553-48.722 79.202-42.121 119.995 6.552 40.457 22.513 80.386 38.89 119.043 16.353 38.594 33.026 75.764 45.922 109.279 12.849 33.475 22.306 63.344 26.77 86.72 4.408 23.35 3.984 40.192-4.552 46.758z"/></g><g><path fill="none" stroke="#fff" stroke-miterlimit="20" stroke-width="3.05" d="M1543.97 947.938c-50.999 37.539-76.538 84.035-161.498 96.982-84.832 12.796-185.606-16.234-269.662-50.99-84.272-34.068-154.563-72.823-211.097-103.74-56.637-31.013-101.525-55.653-138.47-76.173-36.81-20.521-67.668-41.298-94.63-72.959-26.812-31.533-49.52-73.998-65.828-128.371-16.253-54.23-25.796-120.054-24.7-189.582.872-69.856 13.99-143.798 36.098-206.72 22.163-62.818 43.951-103.996 69.09-145.038 18.725-29.965 37.354-57.843 62.037-88.969 24.708-31.125 55.766-63.617 85.704-87.185 30.05-23.584 58.877-42.018 84.049-57.972 25.219-15.915 46.983-29.374 66.603-40.29 19.637-10.876 37.297-19.025 55.574-22.736 18.245-3.767 36.93-2.775 59.333 3.67 22.42 6.526 49.447 17.754 74.338 25.376 24.948 7.525 46.648 14.707 74.626 24.095 24.316 7.614 49.391 22.257 81.01 40.114 31.985 17.154 49.398 43.345 64.747 72.671 15.773 28.918 30.283 60.211 55.678 86.41 25.38 26.383 63.82 46.104 113.347 64.09 48.143 18.353 115.155 35.347 136.927 78.068 21.676 42.498-11.35 101.797-62.98 155.162-51.503 54.134-116.06 100.23-155.3 140.343-39.4 40.29-44.04 81.036-36.601 122.23 7.366 40.826 23.467 80.924 39.449 119.678 15.973 38.683 31.77 75.758 43.72 109.146 11.91 33.349 20.38 63.026 24.147 86.242 3.72 23.184 2.863 39.938-5.711 46.448z"/></g><g><path fill="none" stroke="#fff" stroke-miterlimit="20" stroke-width="3.08" d="M1556.673 950.856c-52.114 37.64-74.062 85.711-153.254 102.74-79.047 16.917-182.651-8.31-268.076-42.024-85.576-32.866-157.942-71.978-216.122-103.932-58.307-32.001-104.724-58.772-142.651-81.04-37.816-22.291-69.222-44.12-96.691-76.48-27.317-32.179-50.474-74.954-67.317-129.424-16.78-54.285-26.973-120.08-26.55-189.53.24-69.707 12.371-142.957 34.375-206.912 22.133-63.756 43.809-104.668 68.198-144.996C709.3 45.785 729.873 14.783 759.15-20.81c29.31-35.593 66.381-68.707 99.876-92.342 33.654-23.628 64.228-41.832 90.345-57.293 26.181-15.39 48.266-27.875 69.454-35.793 21.172-7.919 41.696-10.902 64.932-7.159 23.213 3.735 52.379 16.03 80.448 24.3 28.165 8.014 52.114 15.117 84.752 25.25 24.765 7.311 53.77 20.125 83.673 38.513 30.086 18.012 47.793 42.296 63.684 70.682 16.267 27.995 32.238 57.933 60.052 82.408 27.75 24.643 69.701 42.104 122.383 58.437 51.25 16.692 120.624 33.865 140.02 77.76 19.283 43.68-17.108 104.348-70.43 158.578-53.258 55.005-118.143 101.708-155.998 142.636-38.04 41.072-39.184 82.904-30.966 124.48 8.105 41.191 24.268 81.536 39.791 120.336 15.5 38.76 30.326 75.817 41.264 109.043 10.89 33.225 18.308 62.683 21.317 85.759 2.96 23.027 1.608 39.592-7.074 46.07z"/></g><g><path fill="none" stroke="#fff" stroke-miterlimit="20" stroke-width="3.1" d="M1569.034 953.803c-53.551 37.555-72.204 87.117-145.753 107.915-73.356 20.742-178.546-.208-265.162-32.62-86.68-31.468-161.077-70.816-220.893-103.676-59.937-32.916-106.886-60.345-146.817-85.494-39.747-25.165-71.044-47.362-99.092-80.454-27.863-32.988-51.478-76.023-68.875-130.625-17.325-54.401-28.152-120.082-28.432-189.465-.392-69.496 10.475-141.848 32.537-206.912 22.27-64.72 43.684-105.428 67.315-145.103 20.046-32.796 39.635-62.944 68.115-97.764 28.52-34.812 65.626-68.44 99.292-91.917 33.833-23.526 64.802-41.468 91.345-56.602 26.608-15.046 49.15-27.14 70.692-34.788 21.526-7.599 42.308-10.326 65.61-6.727 23.319 3.704 51.646 14.886 78.95 22.27 27.408 7.135 50.958 13.646 84.36 23.093 25.31 6.943 56.76 19.661 86.096 36.851 29.456 17.046 46.372 41.236 62.881 68.64 16.909 27.03 34.49 55.57 64.874 78.16 30.265 22.812 75.877 37.859 131.7 52.617 54.36 15.054 125.484 32.676 142.344 77.87 16.757 44.907-22.926 107.02-77.781 162.085-54.856 55.922-119.866 103.212-156.084 145.015-36.426 41.907-34.145 84.742-25.215 126.713 8.803 41.58 24.911 82.127 39.843 121.026 14.925 38.836 28.68 75.831 38.5 108.94 9.77 33.091 16.076 62.376 18.244 85.245 2.137 22.853.24 39.3-8.594 45.707z"/></g><g><path fill="none" stroke="#fff" stroke-miterlimit="20" stroke-width="3.13" d="M1581.055 956.692c-55.284 37.32-70.981 88.19-139.018 112.537-67.805 24.364-173.373 8.047-260.98-22.843-87.534-29.866-163.907-69.274-225.368-102.94-61.596-33.689-109.984-62.651-150.955-89.51-40.803-26.874-73.181-50.878-101.815-84.815-28.45-33.81-52.548-77.272-70.51-131.966-17.88-54.533-29.345-120.096-30.33-189.386-1.088-69.394 8.993-141.596 30.587-206.759 21.777-64.843 43.523-106.33 66.445-145.299 19.385-32.121 37.97-61.428 65.612-95.5 27.682-34.066 64.685-68.035 98.488-91.439 33.97-23.41 65.308-41.135 92.254-55.972 27.002-14.773 49.988-26.515 71.87-33.85 21.865-7.366 42.899-9.894 66.284-6.398 23.386 3.527 50.908 13.597 77.542 20.204 26.738 6.27 49.972 12.245 84.206 21.02 25.914 6.606 59.485 19.012 88.287 35.144 28.85 16.157 45.107 40.152 62.364 66.523 17.682 25.995 37.027 53.022 70.133 73.641 32.923 20.884 82.358 33.434 141.267 46.647 57.444 13.462 129.681 31.826 143.866 78.409 14.13 46.262-28.754 109.698-84.99 165.67-56.284 56.853-121.185 104.78-155.507 147.46-34.539 42.775-28.962 86.566-19.418 128.934 9.409 41.96 25.37 82.76 39.603 121.727 14.241 38.913 26.802 75.865 35.419 108.835 8.56 32.945 13.665 62.043 14.953 84.703 1.232 22.667-1.248 38.864-10.289 45.223z"/></g><g><path fill="none" stroke="#fff" stroke-miterlimit="20" stroke-width="3.16" d="M1591.789 959.566c-57.33 36.937-70.372 88.933-133.099 116.602-62.422 27.646-167.244 16.338-255.592-12.763-88.156-28.037-166.405-67.39-229.483-101.72-63.246-34.41-113.106-64.735-155.185-93.252-41.927-28.509-75.45-54.515-104.718-89.341-29.092-34.723-53.698-78.594-72.234-133.476-18.449-54.74-30.556-120.162-32.26-189.327-1.799-69.253 7.486-141.29 28.55-206.496 21.223-64.959 43.358-107.286 65.573-145.567 18.736-31.492 36.313-59.985 63.062-93.284 26.773-33.363 63.558-67.59 97.465-90.917 34.058-23.367 65.74-40.832 93.058-55.41 27.389-14.467 50.795-25.878 73.002-32.987 22.207-7.086 43.463-9.477 66.941-6.15 23.47 3.359 50.196 12.283 76.225 18.097 26.15 5.438 49.132 10.884 84.27 19.056 26.573 6.246 61.959 18.177 90.243 33.38 28.277 15.402 44.015 39.008 62.16 64.295 18.592 24.886 39.887 50.3 75.849 68.86 35.721 18.842 89.115 28.83 151.034 40.561 60.504 11.883 133.178 31.404 144.598 79.401 11.42 47.63-34.554 112.493-91.979 169.31-57.529 57.77-122.103 106.32-154.233 149.982-32.355 43.703-23.703 88.35-13.611 131.125 9.94 42.336 25.622 83.408 39.056 122.465 13.435 39.009 24.694 75.906 32.027 108.75 7.261 32.819 11.092 61.688 11.436 84.135.263 22.463-2.88 38.457-12.155 44.67z"/></g></g><g clip-path="url(#clip-D709DE6C-C416-4879-9703-CA74026D5B2B)"><g><g><g><path fill="#fff" d="M255.06 498.17H387.5v1.925H255.06z"/></g></g></g></g></g></g></svg>