<svg xmlns="http://www.w3.org/2000/svg" width="325" height="453" viewBox="0 0 325 453" preserveAspectRatio="none"><g><g clip-path="url(#clip-8DEED650-256A-4FF9-88DA-1017C35126B0)" transform="matrix(1 0 0 -1 0 365)"><g><path fill="none" stroke="#20b87a" stroke-miterlimit="20" stroke-width=".5" d="M279.556 179.646c.884-1.856 1.025-2.425-.03-4.19-1.056-1.766-1.595-1.864-3.536-1.772-1.94.092-2.467.239-3.351 2.097-.884 1.856-.688 2.409.366 4.175 1.057 1.766 1.465 1.601 3.356 2.091 1.927.498 2.31-.545 3.195-2.401z"/></g><g><path fill="none" stroke="#20b87a" stroke-miterlimit="20" stroke-width=".5" d="M279.745 179.821c1.064-1.807 1.25-2.368.206-4.186-1.045-1.82-1.627-1.945-3.738-1.955-2.111-.01-2.693.11-3.757 1.92-1.065 1.806-.884 2.369.16 4.188 1.045 1.819 1.498 1.676 3.522 2.264 2.066.6 2.543-.422 3.607-2.23z"/></g><g><path fill="none" stroke="#20b87a" stroke-miterlimit="20" stroke-width=".5" d="M279.935 180.004c1.258-1.75 1.493-2.3.46-4.17-1.03-1.87-1.654-2.026-3.945-2.147-2.292-.122-2.929-.032-4.189 1.719-1.258 1.75-1.095 2.32-.064 4.19 1.03 1.87 1.53 1.75 3.694 2.446 2.209.708 2.785-.288 4.044-2.038z"/></g><g><path fill="none" stroke="#20b87a" stroke-miterlimit="20" stroke-width=".5" d="M280.142 180.194c1.466-1.682 1.75-2.219.737-4.14-1.013-1.922-1.682-2.11-4.161-2.35-2.48-.24-3.177-.184-4.643 1.498-1.466 1.681-1.321 2.26-.308 4.182 1.013 1.923 1.562 1.83 3.87 2.637 2.357.817 3.039-.145 4.505-1.827z"/></g><g><path fill="none" stroke="#20b87a" stroke-miterlimit="20" stroke-width=".5" d="M280.348 180.399c1.688-1.604 2.027-2.123 1.037-4.097-.99-1.971-1.705-2.195-4.382-2.565-2.678-.37-3.438-.351-5.126 1.252-1.687 1.603-1.562 2.187-.572 4.16.99 1.971 1.591 1.906 4.053 2.833 2.509.945 3.303.018 4.99-1.583z"/></g><g><path fill="none" stroke="#20b87a" stroke-miterlimit="20" stroke-width=".5" d="M280.566 180.618c1.923-1.51 2.321-2.014 1.359-4.035-.963-2.021-1.725-2.282-4.61-2.791-2.885-.51-3.713-.53-5.635.982-1.923 1.51-1.821 2.103-.857 4.124.963 2.02 1.62 1.989 4.238 3.041 2.67 1.076 3.585.193 5.505-1.32z"/></g><g><path fill="none" stroke="#20b87a" stroke-miterlimit="20" stroke-width=".5" d="M280.796 180.839c2.172-1.41 2.635-1.89 1.704-3.96-.931-2.07-1.743-2.37-4.846-3.028-3.102-.66-4-.723-6.172.686-2.171 1.41-2.095 2.005-1.164 4.073.931 2.07 1.645 2.07 4.428 3.26 2.834 1.213 3.879.38 6.05-1.031z"/></g><g><path fill="none" stroke="#20b87a" stroke-miterlimit="20" stroke-width=".5" d="M281.021 181.079c2.439-1.294 2.968-1.75 2.074-3.865-.892-2.115-1.756-2.458-5.088-3.28-3.33-.82-4.3-.93-6.739.363-2.438 1.294-2.389 1.892-1.495 4.006.892 2.115 1.666 2.154 4.62 3.487 3.01 1.362 4.19.582 6.628-.711z"/></g><g><path fill="none" stroke="#20b87a" stroke-miterlimit="20" stroke-width=".5" d="M281.26 181.328c2.72-1.165 3.32-1.592 2.47-3.752-.848-2.16-1.767-2.546-5.336-3.54-3.57-.993-4.616-1.156-7.337.008-2.72 1.164-2.7 1.764-1.852 3.924.849 2.16 1.686 2.238 4.816 3.724 3.19 1.517 4.518.8 7.238-.364z"/></g><g><path fill="none" stroke="#20b87a" stroke-miterlimit="20" stroke-width=".5" d="M281.497 181.588c3.019-1.021 3.695-1.417 2.897-3.617-.797-2.2-1.773-2.634-5.59-3.814-3.816-1.18-4.943-1.395-7.963-.374-3.02 1.021-3.032 1.62-2.234 3.822.797 2.201 1.703 2.323 5.015 3.97 3.375 1.679 4.855 1.034 7.875.013z"/></g><g><path fill="none" stroke="#20b87a" stroke-miterlimit="20" stroke-width=".5" d="M281.744 181.865c3.336-.86 4.091-1.222 3.35-3.46-.74-2.238-1.776-2.724-5.852-4.102-4.077-1.378-5.287-1.652-8.622-.792-3.336.86-3.383 1.46-2.643 3.699.741 2.238 1.717 2.408 5.22 4.227 3.57 1.854 5.212 1.288 8.547.428z"/></g><g><path fill="none" stroke="#20b87a" stroke-miterlimit="20" stroke-width=".5" d="M281.998 182.149c3.669-.686 4.51-1.006 3.831-3.28-.676-2.275-1.771-2.812-6.119-4.402-4.345-1.59-5.645-1.926-9.314-1.24-3.669.686-3.755 1.282-3.079 3.555.676 2.276 1.727 2.495 5.425 4.496 3.771 2.037 5.586 1.557 9.256.87z"/></g><g><path fill="none" stroke="#20b87a" stroke-miterlimit="20" stroke-width=".5" d="M282.255 182.44c4.022-.491 4.951-.767 4.348-3.074-.604-2.307-1.764-2.903-6.392-4.716-4.628-1.815-6.017-2.219-10.04-1.727-4.021.492-4.148 1.082-3.543 3.389.606 2.307 1.733 2.583 5.633 4.774 3.973 2.233 5.972 1.847 9.994 1.355z"/></g><g><path fill="none" stroke="#20b87a" stroke-miterlimit="20" stroke-width=".5" d="M282.514 182.751c4.395-.28 5.42-.508 4.892-2.842-.527-2.334-1.75-2.99-6.668-5.045-4.92-2.054-6.405-2.532-10.8-2.25-4.393.28-4.564.864-4.039 3.199.526 2.336 1.733 2.67 5.843 5.062 4.187 2.437 6.378 2.158 10.772 1.876z"/></g><g><path fill="none" stroke="#20b87a" stroke-miterlimit="20" stroke-width=".5" d="M282.782 183.075c4.785-.05 5.912-.223 5.473-2.583-.437-2.36-1.729-3.077-6.952-5.386-5.224-2.31-6.81-2.864-11.594-2.813-4.784.051-5.004.623-4.567 2.983.437 2.36 1.73 2.758 6.055 5.36 4.406 2.655 6.801 2.49 11.585 2.44z"/></g><g><path fill="none" stroke="#20b87a" stroke-miterlimit="20" stroke-width=".5" d="M283.054 183.42c5.196.2 6.429.086 6.088-2.294-.341-2.38-1.702-3.163-7.24-5.742-5.54-2.58-7.23-3.217-12.425-3.417-5.196-.2-5.468.36-5.127 2.74.34 2.38 1.72 2.844 6.266 5.67 4.633 2.882 7.242 2.843 12.438 3.043z"/></g><g><path fill="none" stroke="#20b87a" stroke-miterlimit="20" stroke-width=".5" d="M283.33 183.771c5.63.473 6.974.424 6.739-1.972-.236-2.393-1.667-3.247-7.533-6.113-5.866-2.865-7.663-3.589-13.293-4.06-5.629-.473-5.954.074-5.72 2.467.234 2.393 1.704 2.93 6.479 5.99 4.865 3.12 7.697 3.216 13.328 3.688z"/></g><g><path fill="none" stroke="#20b87a" stroke-miterlimit="20" stroke-width=".5" d="M283.606 184.132c6.084.766 7.546.788 7.427-1.615-.12-2.403-1.625-3.332-7.828-6.5-6.204-3.169-8.115-3.986-14.199-4.75-6.083-.767-6.468-.238-6.35 2.165.12 2.403 1.684 3.015 6.691 6.321 5.106 3.367 8.176 3.612 14.26 4.379z"/></g><g><path fill="none" stroke="#20b87a" stroke-miterlimit="20" stroke-width=".5" d="M283.89 184.515c6.56 1.084 8.146 1.182 8.154-1.225.008-2.407-1.574-3.412-8.126-6.9-6.552-3.49-8.581-4.405-15.141-5.489-6.56-1.082-7.01-.576-7.017 1.83-.008 2.408 1.656 3.1 6.905 6.663 5.347 3.634 8.665 4.04 15.225 5.121z"/></g><g><path fill="none" stroke="#20b87a" stroke-miterlimit="20" stroke-width=".5" d="M284.18 184.912c7.06 1.425 8.775 1.605 8.92-.796.145-2.403-1.516-3.489-8.428-7.317-6.915-3.828-9.063-4.847-16.123-6.272-7.06-1.425-7.574-.94-7.72 1.46-.146 2.403 1.622 3.182 7.114 7.015 5.598 3.905 9.177 4.485 16.237 5.91z"/></g><g><path fill="none" stroke="#20b87a" stroke-miterlimit="20" stroke-width=".5" d="M284.461 185.316c7.582 1.792 9.434 2.062 9.728-.33.294-2.39-1.445-3.562-8.732-7.747-7.287-4.185-9.563-5.315-17.144-7.107-7.581-1.791-8.167-1.337-8.463 1.055-.296 2.39 1.58 3.261 7.324 7.377 5.855 4.194 9.706 4.96 17.287 6.752z"/></g><g><path fill="none" stroke="#20b87a" stroke-miterlimit="20" stroke-width=".5" d="M284.752 185.745c8.128 2.188 10.121 2.554 10.578.18.456-2.373-1.366-3.633-9.038-8.194-7.671-4.56-10.076-5.81-18.204-7.995-8.128-2.185-8.79-1.762-9.246.61-.454 2.373 1.53 3.34 7.53 7.751 6.114 4.497 10.252 5.46 18.38 7.648z"/></g><g><path fill="none" stroke="#20b87a" stroke-miterlimit="20" stroke-width=".5" d="M285.037 186.178c8.698 2.61 10.84 3.08 11.471.735.63-2.346-1.275-3.7-9.345-8.655-8.07-4.955-10.607-6.329-19.306-8.938-8.698-2.608-9.441-2.22-10.07.126-.63 2.346 1.47 3.416 7.734 8.134 6.382 4.81 10.82 5.99 19.516 8.598z"/></g><g><path fill="none" stroke="#20b87a" stroke-miterlimit="20" stroke-width=".5" d="M285.332 186.63c9.292 3.062 11.593 3.645 12.409 1.334.817-2.31-1.175-3.764-9.652-9.134-8.477-5.37-11.154-6.876-20.448-9.935-9.293-3.062-10.122-2.71-10.939-.402-.817 2.309 1.401 3.489 7.932 8.528 6.656 5.137 11.403 6.548 20.698 9.61z"/></g><g><path fill="none" stroke="#20b87a" stroke-miterlimit="20" stroke-width=".5" d="M285.62 187.097c9.914 3.544 12.376 4.245 13.395 1.982 1.017-2.264-1.06-3.82-9.957-9.626-8.894-5.805-11.717-7.45-21.63-10.992-9.914-3.541-10.833-3.237-11.85-.974-1.018 2.264 1.322 3.558 8.124 8.932 6.932 5.476 12.005 7.134 21.918 10.678z"/></g><g><path fill="none" stroke="#20b87a" stroke-miterlimit="20" stroke-width=".5" d="M285.9 187.575c10.558 4.057 13.192 4.886 14.425 2.679 1.233-2.207-.935-3.87-10.259-10.133-9.325-6.265-12.295-8.052-22.853-12.11-10.559-4.056-11.574-3.798-12.809-1.59-1.233 2.206 1.235 3.62 8.31 9.345 7.213 5.83 12.627 7.753 23.185 11.809z"/></g><g><path fill="none" stroke="#20b87a" stroke-miterlimit="20" stroke-width=".5" d="M286.185 188.074c11.23 4.605 14.041 5.57 15.507 3.43 1.464-2.14-.794-3.914-10.56-10.656-9.767-6.742-12.887-8.685-24.118-13.289-11.23-4.604-12.348-4.4-13.812-2.26-1.464 2.14 1.133 3.681 8.49 9.767 7.496 6.203 13.262 8.404 24.493 13.008z"/></g><g><path fill="none" stroke="#20b87a" stroke-miterlimit="20" stroke-width=".5" d="M286.469 188.585c11.928 5.186 14.925 6.297 16.636 4.237 1.711-2.06-.639-3.95-10.856-11.195-10.218-7.246-13.495-9.347-25.423-14.532-11.929-5.186-13.152-5.04-14.865-2.98-1.711 2.06 1.021 3.733 8.66 10.197 7.784 6.588 13.92 9.087 25.848 14.273z"/></g><g><path fill="none" stroke="#20b87a" stroke-miterlimit="20" stroke-width=".5" d="M286.734 189.11c12.654 5.8 15.843 7.07 17.819 5.101 1.975-1.968-.469-3.977-11.147-11.748-10.678-7.771-14.116-10.041-26.77-15.843-12.653-5.801-13.99-5.72-15.964-3.753-1.975 1.968.896 3.783 8.82 10.637 8.072 6.985 14.589 9.804 27.242 15.605z"/></g><g><path fill="none" stroke="#20b87a" stroke-miterlimit="20" stroke-width=".5" d="M287.009 189.64c13.404 6.456 16.795 7.888 19.05 6.028 2.257-1.862-.281-3.996-11.432-12.314-11.148-8.319-14.75-10.767-28.155-17.223-13.405-6.456-14.86-6.446-17.117-4.584-2.256 1.862.757 3.824 8.97 11.083 8.366 7.397 15.28 10.553 28.684 17.01z"/></g><g><path fill="none" stroke="#20b87a" stroke-miterlimit="20" stroke-width=".5" d="M287.265 190.19c14.183 7.151 17.781 8.758 20.335 7.018 2.554-1.74-.08-4.007-11.709-12.897s-15.4-11.523-29.582-18.673c-14.183-7.15-15.763-7.215-18.318-5.474-2.554 1.74.603 3.859 9.104 11.538 8.663 7.825 15.988 11.339 30.17 18.489z"/></g><g><path fill="none" stroke="#20b87a" stroke-miterlimit="20" stroke-width=".5" d="M287.51 190.76c14.989 7.881 18.803 9.677 21.676 8.072 2.873-1.606.141-4.005-11.976-13.491-12.116-9.487-16.06-12.313-31.048-20.196-14.988-7.883-16.7-8.03-19.572-6.425-2.872 1.605.437 3.885 9.225 12 8.957 8.267 16.707 12.157 31.695 20.04z"/></g><g><path fill="none" stroke="#20b87a" stroke-miterlimit="20" stroke-width=".5" d="M287.75 191.332c15.82 8.656 19.858 10.647 23.067 9.195 3.208-1.453.38-3.993-12.23-14.1-12.613-10.108-16.733-13.136-32.554-21.792-15.822-8.655-17.672-8.892-20.88-7.44-3.209 1.452.253 3.902 9.331 12.466 9.255 8.724 17.444 13.016 33.265 21.671z"/></g><g><path fill="none" stroke="#20b87a" stroke-miterlimit="20" stroke-width=".5" d="M287.976 191.92c16.682 9.472 20.95 11.672 24.516 10.39 3.565-1.282.64-3.967-12.476-14.72-13.114-10.754-17.414-13.994-34.096-23.465-16.681-9.473-18.675-9.806-22.24-8.524-3.565 1.282.051 3.91 9.422 12.936 9.547 9.196 18.195 13.91 34.874 23.383z"/></g><g><path fill="none" stroke="#20b87a" stroke-miterlimit="20" stroke-width=".5" d="M288.198 192.52c17.567 10.331 22.077 12.752 26.02 11.658 3.944-1.094.922-3.928-12.702-15.353s-18.108-14.886-35.676-25.22c-17.567-10.33-19.714-10.77-23.657-9.674-3.944 1.094-.167 3.909 9.49 13.413 9.84 9.682 18.957 14.843 36.525 25.176z"/></g><g><path fill="none" stroke="#20b87a" stroke-miterlimit="20" stroke-width=".5" d="M288.392 193.129c18.48 11.236 23.24 13.89 27.581 13.004 4.343-.886 1.223-3.873-12.916-15.997-14.14-12.123-18.808-15.814-37.29-27.05-18.48-11.237-20.785-11.786-25.126-10.9-4.342.886-.402 3.895 9.537 13.89 10.13 10.185 19.731 15.816 38.214 27.053z"/></g><g><path fill="none" stroke="#20b87a" stroke-miterlimit="20" stroke-width=".5" d="M288.572 193.738c19.422 12.19 24.435 15.088 29.198 14.43 4.765-.659 1.549-3.804-13.11-16.65-14.659-12.846-19.516-16.776-38.938-28.965-19.421-12.19-21.89-12.858-26.656-12.201-4.764.658-.658 3.867 9.563 14.37 10.418 10.702 20.522 16.83 39.943 29.016z"/></g><g><path fill="none" stroke="#20b87a" stroke-miterlimit="20" stroke-width=".5" d="M288.726 194.365c20.388 13.189 25.664 16.346 30.874 15.938 5.208-.407 1.897-3.718-13.283-17.314-15.18-13.597-20.23-17.775-40.62-30.964-20.389-13.19-23.03-13.987-28.239-13.58-5.208.409-.935 3.829 9.563 14.852 10.698 11.233 21.317 17.879 41.705 31.068z"/></g><g><path fill="none" stroke="#20b87a" stroke-miterlimit="20" stroke-width=".5" d="M288.865 195c21.38 14.237 26.928 17.667 32.606 17.532 5.678-.135 2.27-3.614-13.434-17.985-15.703-14.373-20.948-18.81-42.328-33.047-21.38-14.238-24.204-15.173-29.88-15.04-5.676.134-1.233 3.773 9.535 15.332 10.972 11.78 22.12 18.97 43.5 33.208z"/></g><g><path fill="none" stroke="#20b87a" stroke-miterlimit="20" stroke-width=".5" d="M288.977 195.643c22.397 15.337 28.226 19.051 34.396 19.214 6.17.163 2.67-3.49-13.558-18.663-16.228-15.175-21.667-19.88-44.066-35.218-22.4-15.337-25.41-16.418-31.58-16.581-6.17-.163-1.552 3.704 9.479 15.81 11.238 12.335 22.93 20.101 45.329 35.438z"/></g><g><path fill="none" stroke="#20b87a" stroke-miterlimit="20" stroke-width=".5" d="M289.064 196.293c23.44 16.488 29.555 20.504 36.242 20.988 6.688.486 3.097-3.346-13.655-19.347-16.752-16.004-22.39-20.988-45.829-37.476-23.44-16.487-26.646-17.726-33.333-18.21-6.688-.486-1.896 3.618 9.388 16.284 11.497 12.906 23.747 21.274 47.187 37.761z"/></g><g><path fill="none" stroke="#20b87a" stroke-miterlimit="20" stroke-width=".5" d="M289.127 196.941c24.506 17.693 30.913 22.02 38.146 22.856 7.232.835 3.551-3.18-13.722-20.035-17.274-16.858-23.109-22.13-47.614-39.822-24.506-17.693-27.917-19.096-35.147-19.931-7.233-.835-2.264 3.514 9.265 16.752 11.748 13.49 24.568 22.49 49.072 40.18z"/></g><g><path fill="none" stroke="#20b87a" stroke-miterlimit="20" stroke-width=".5" d="M289.148 197.583c25.594 18.951 32.303 23.608 40.106 24.821 7.802 1.214 4.035-2.989-13.756-20.727-17.79-17.738-23.825-23.308-49.417-42.26-25.592-18.95-29.216-20.53-37.019-21.741-7.802-1.212-2.657 3.39 9.105 17.214 11.985 14.087 25.39 23.744 50.981 42.693z"/></g><g><path fill="none" stroke="#20b87a" stroke-miterlimit="20" stroke-width=".5" d="M289.142 198.238c26.703 20.265 33.72 25.267 42.12 26.888 8.401 1.619 4.552-2.774-13.75-21.42-18.303-18.645-24.536-24.523-51.239-44.787-26.703-20.265-30.545-22.033-38.945-23.652-8.4-1.618-3.077 3.246 8.902 17.668 12.21 14.694 26.211 25.039 52.912 45.303z"/></g><g><path fill="none" stroke="#20b87a" stroke-miterlimit="20" stroke-width=".5" d="M289.089 198.894c27.832 21.634 35.164 26.997 44.192 29.053 9.027 2.056 5.098-2.53-13.709-22.109-18.806-19.576-25.237-25.774-53.069-47.408-27.832-21.635-31.9-23.6-40.926-25.657-9.026-2.056-3.524 3.081 8.659 18.11 12.413 15.314 27.02 26.376 54.853 48.01z"/></g><g><path fill="none" stroke="#20b87a" stroke-miterlimit="20" stroke-width=".5" d="M289.001 199.536c28.98 23.062 36.634 28.8 46.315 31.327 9.68 2.526 5.678-2.262-13.622-22.795-19.3-20.535-25.929-27.06-54.908-50.121-28.98-23.061-33.286-25.237-42.965-27.763-9.68-2.527-4 2.893 8.37 18.537 12.602 15.943 27.831 27.756 56.81 50.815z"/></g><g><path fill="none" stroke="#20b87a" stroke-miterlimit="20" stroke-width=".5" d="M288.867 200.178c30.145 24.545 38.128 30.678 48.492 33.708 10.365 3.03 6.292-1.96-13.488-23.477s-26.605-28.379-56.75-52.926-34.694-26.944-45.059-29.974c-10.364-3.03-4.508 2.679 8.03 18.95 12.774 16.579 28.632 29.172 58.775 53.719z"/></g><g><path fill="none" stroke="#20b87a" stroke-miterlimit="20" stroke-width=".5" d="M288.69 200.814c31.325 26.09 39.642 32.632 50.72 36.2 11.078 3.566 6.94-1.63-13.307-24.152-20.247-22.522-27.263-29.733-58.588-55.823s-36.127-28.723-47.205-32.29c-11.078-3.568-5.045 2.44 7.638 19.345 12.923 17.224 29.418 30.63 60.743 56.72z"/></g><g><path fill="none" stroke="#20b87a" stroke-miterlimit="20" stroke-width=".5" d="M288.464 201.435c32.519 27.693 41.174 34.663 52.995 38.804 11.82 4.142 7.626-1.262-13.07-24.813-20.695-23.552-27.902-31.12-60.42-58.814-32.519-27.695-37.582-30.574-49.402-34.718-11.821-4.141-5.616 2.172 7.189 19.718 13.048 17.88 30.19 32.128 62.708 59.823z"/></g><g><path fill="none" stroke="#20b87a" stroke-miterlimit="20" stroke-width=".5" d="M288.172 202.048c33.722 29.357 42.72 36.77 55.315 41.525 12.597 4.755 8.35-.863-12.775-25.465s-28.518-32.538-62.238-61.895c-33.72-29.356-39.053-32.5-51.65-37.255-12.597-4.755-6.22 1.875 6.682 20.066 13.147 18.538 30.944 33.667 64.666 63.024z"/></g><g><path fill="none" stroke="#20b87a" stroke-miterlimit="20" stroke-width=".5" d="M287.822 202.638c34.933 31.081 44.278 38.955 57.68 44.362 13.403 5.408 9.114-.423-12.418-26.097-21.53-25.674-29.104-33.985-64.037-65.066-34.933-31.082-40.543-34.5-53.945-39.908-13.403-5.407-6.858 1.547 6.111 20.39 13.218 19.198 31.676 35.237 66.609 66.319z"/></g><g><path fill="none" stroke="#20b87a" stroke-miterlimit="20" stroke-width=".5" d="M287.413 203.217c36.15 32.867 45.848 41.219 60.088 47.32 14.24 6.101 9.915.053-11.995-26.713-21.911-26.766-29.66-35.462-65.81-68.33-36.15-32.867-42.045-36.573-56.285-42.674-14.24-6.102-7.53 1.185 5.475 20.681 13.253 19.865 32.377 36.847 68.527 69.716z"/></g><g><path fill="none" stroke="#20b87a" stroke-miterlimit="20" stroke-width=".5" d="M286.94 203.765c37.371 34.716 47.422 43.561 62.532 50.402 15.11 6.838 10.76.572-11.502-27.303-22.261-27.875-30.176-36.966-67.545-71.68-37.37-34.713-43.56-38.723-58.669-45.563-15.11-6.839-8.242.79 4.767 20.938 13.253 20.531 33.045 38.49 70.417 73.206z"/></g><g><path fill="none" stroke="#20b87a" stroke-miterlimit="20" stroke-width=".5" d="M286.39 204.295c38.59 36.622 48.996 45.983 65.008 53.604 16.01 7.62 11.648 1.135-10.931-27.867-22.58-29.003-30.653-38.495-69.241-75.117-38.589-36.623-45.078-40.95-61.09-48.571-16.01-7.62-8.992.358 3.983 21.16 13.218 21.195 33.68 40.168 72.271 76.79z"/></g><g><path fill="none" stroke="#20b87a" stroke-miterlimit="20" stroke-width=".5" d="M285.76 204.789c39.806 38.592 50.569 48.484 67.515 56.932 16.946 8.447 12.579 1.742-10.279-28.403-22.857-30.145-31.081-40.044-70.885-78.637-39.804-38.592-46.6-43.253-63.547-51.7-16.946-8.448-9.78-.114 3.118 21.34 13.142 21.858 34.273 41.875 74.079 80.468z"/></g><g><path fill="none" stroke="#20b87a" stroke-miterlimit="20" stroke-width=".5" d="M285.055 205.25c41.01 40.624 52.132 51.066 70.046 60.388 17.915 9.324 13.556 2.4-9.54-28.9-23.098-31.3-31.46-41.617-72.472-82.24-41.01-40.623-48.124-45.632-66.038-54.956-17.915-9.324-10.61-.625 2.171 21.474 13.023 22.518 34.822 43.614 75.833 84.235z"/></g><g><path fill="none" stroke="#20b87a" stroke-miterlimit="20" stroke-width=".5" d="M284.258 205.686c42.207 42.715 53.683 53.724 72.598 63.973 18.916 10.249 14.577 3.105-8.714-29.36-23.29-32.466-31.781-43.207-73.986-85.921-42.204-42.715-49.64-48.089-68.557-58.338-18.916-10.249-11.481-1.18 1.135 21.558 12.858 23.17 35.32 45.376 77.524 88.088z"/></g><g><path fill="none" stroke="#20b87a" stroke-miterlimit="20" stroke-width=".5" d="M283.362 206.07c43.383 44.864 55.214 56.46 75.164 67.682 19.95 11.225 15.647 3.864-7.787-29.776-23.433-33.64-32.04-44.81-75.422-89.674-43.383-44.864-51.149-50.62-71.097-61.846-19.95-11.225-12.395-1.777.005 21.588 12.637 23.81 35.755 47.161 79.137 92.026z"/></g><g><path fill="none" stroke="#20b87a" stroke-miterlimit="20" stroke-width=".5" d="M282.38 206.4c44.54 47.074 56.72 59.273 77.738 71.525 21.017 12.252 16.764 4.676-6.76-30.143-23.522-34.82-32.229-46.427-76.768-93.498-44.539-47.071-52.64-53.23-73.654-65.482-21.016-12.252-13.354-2.424-1.222 21.558 12.362 24.438 36.127 48.967 80.666 96.04z"/></g><g><path fill="none" stroke="#20b87a" stroke-miterlimit="20" stroke-width=".5" d="M281.294 206.688c45.668 49.339 58.196 62.16 80.313 75.495 22.115 13.336 17.93 5.549-5.623-30.456-23.554-36.004-32.342-48.05-78.01-97.389-45.668-49.339-54.11-55.91-76.225-69.247-22.114-13.336-14.357-3.12-2.552 21.466 12.029 25.051 36.429 50.792 82.097 100.13z"/></g><g><path fill="none" stroke="#20b87a" stroke-miterlimit="20" stroke-width=".5" d="M280.09 206.917c46.764 51.661 59.635 65.119 82.881 79.593 23.246 14.475 19.147 6.478-4.37-30.707-23.519-37.185-32.374-49.676-79.138-101.338-46.763-51.662-55.554-58.667-78.8-73.141-23.245-14.475-15.407-3.867-3.992 21.301 11.633 25.649 36.654 52.63 83.42 104.292z"/></g><g><path fill="none" stroke="#20b87a" stroke-miterlimit="20" stroke-width=".5" d="M278.779 207.08c47.822 54.04 61.026 68.152 85.436 83.824 24.41 15.672 20.415 7.471-2.997-30.896-23.412-38.367-32.314-51.3-80.135-105.34-47.82-54.039-56.963-61.493-81.373-77.165-24.41-15.672-16.503-4.669-5.545 21.064 11.166 26.221 36.791 54.474 84.614 108.514z"/></g><g><path fill="none" stroke="#20b87a" stroke-miterlimit="20" stroke-width=".5" d="M277.338 207.177c48.835 56.467 62.367 71.252 87.97 88.18 25.604 16.929 21.735 8.53-1.495-31.009-23.23-39.54-32.158-52.922-80.991-109.39-48.834-56.467-58.336-64.39-83.94-81.318-25.603-16.928-17.647-5.525-7.216 20.745 10.63 26.767 36.838 56.324 85.672 112.792z"/></g><g><path fill="none" stroke="#20b87a" stroke-miterlimit="20" stroke-width=".5" d="M275.78 207.196c49.795 58.945 63.643 74.419 90.473 92.663 26.83 18.243 23.107 9.655.141-31.045-22.965-40.7-31.895-54.533-81.69-113.478-49.796-58.945-59.66-67.355-86.488-85.599-26.828-18.244-18.843-6.442-9.014 20.339 10.014 27.287 36.782 58.175 86.578 117.12z"/></g><g><path fill="none" stroke="#20b87a" stroke-miterlimit="20" stroke-width=".5" d="M274.08 207.14c50.698 61.47 64.848 77.646 92.932 97.27 28.085 19.623 24.532 10.852 1.92-30.995-22.615-41.848-31.52-56.129-82.219-117.598-50.7-61.47-60.924-70.386-89.01-90.01-28.084-19.623-20.085-7.418-10.94 19.84 9.318 27.775 36.617 60.02 87.316 121.492z"/></g><g><path fill="none" stroke="#20b87a" stroke-miterlimit="20" stroke-width=".5" d="M272.243 206.988c51.534 64.04 65.974 80.934 95.344 102.002 29.37 21.068 26.011 12.121 3.846-30.852-22.166-42.973-31.02-57.7-82.555-121.74C237.34 92.36 226.75 82.923 197.38 61.855c-29.369-21.068-21.382-8.461-13.005 19.24 8.534 28.223 36.33 61.855 87.867 125.894z"/></g><g><path fill="none" stroke="#20b87a" stroke-miterlimit="20" stroke-width=".5" d="M270.248 206.742c52.297 66.65 67.009 84.276 97.69 106.851 30.682 22.576 27.546 13.466 5.93-30.609-21.617-44.075-30.388-59.245-82.685-125.895s-63.257-76.628-93.939-99.203c-30.682-22.575-22.728-9.565-15.212 18.536 7.658 28.631 35.92 63.672 88.216 130.32z"/></g><g><path fill="none" stroke="#20b87a" stroke-miterlimit="20" stroke-width=".5" d="M268.106 206.391c52.975 69.296 67.941 87.67 99.96 111.818 32.019 24.15 29.133 14.889 8.177-30.256-20.956-45.145-29.615-60.754-82.59-130.048-52.975-69.294-64.306-79.833-96.325-103.984-32.018-24.151-24.125-10.745-17.565 17.71 6.687 28.995 35.368 65.465 88.343 134.76z"/></g><g><path fill="none" stroke="#20b87a" stroke-miterlimit="20" stroke-width=".5" d="M265.797 205.932c53.56 71.973 68.76 91.105 102.143 116.896 33.383 25.792 30.776 16.394 10.598-29.786-20.178-46.18-28.69-62.22-82.251-134.193-53.561-71.973-65.26-83.09-98.641-108.882-33.38-25.792-25.576-11.993-20.074 16.766 5.607 29.304 34.664 67.226 88.225 139.2z"/></g><g><path fill="none" stroke="#20b87a" stroke-miterlimit="20" stroke-width=".5" d="M263.312 205.349c54.043 74.678 69.457 94.577 104.223 122.082 34.766 27.505 32.473 17.981 13.197-29.192-19.277-47.173-27.603-63.637-81.646-138.313-54.043-74.676-66.11-86.391-100.877-113.896-34.767-27.505-27.08-13.314-22.744 15.694 4.418 29.557 33.802 68.947 87.847 143.625z"/></g><g><path fill="none" stroke="#20b87a" stroke-miterlimit="20" stroke-width=".5" d="M260.66 204.631c54.415 77.402 70.011 98.082 106.185 127.369 36.174 29.286 34.227 19.657 15.986-28.461-18.242-48.118-26.343-64.994-80.756-142.398-54.414-77.405-66.846-89.733-103.02-119.02-36.174-29.286-28.637-14.713-25.58 14.483 3.117 29.749 32.771 70.625 87.185 148.027z"/></g><g><path fill="none" stroke="#20b87a" stroke-miterlimit="20" stroke-width=".5" d="M257.818 203.783c54.662 80.144 70.414 101.612 108.015 132.75 37.6 31.14 36.035 21.422 18.971-27.584-17.062-49.006-24.896-66.284-79.558-146.428-54.663-80.144-67.456-93.108-105.054-124.246-37.6-31.139-30.247-16.192-28.591 13.124 1.69 29.868 31.554 72.24 86.217 152.384z"/></g><g><path fill="none" stroke="#20b87a" stroke-miterlimit="20" stroke-width=".5" d="M254.776 202.791C309.55 285.688 325.43 307.95 364.47 341.015c39.041 33.065 37.895 23.277 22.162-26.554-15.733-49.832-23.254-67.497-78.028-150.391-54.774-82.895-67.924-96.51-106.965-129.576-39.041-33.065-31.91-17.752-31.78 11.61.136 29.917 30.142 73.791 84.916 156.687z"/></g><g><path fill="none" stroke="#20b87a" stroke-miterlimit="20" stroke-width=".5" d="M251.528 201.631c54.741 85.648 70.71 108.711 111.207 143.774 40.497 35.062 39.81 25.229 25.566-25.359-14.243-50.587-21.401-68.62-76.142-154.27S243.92 65.845 203.424 30.783c-40.498-35.063-33.63-19.398-35.157 9.929-1.554 29.884 28.52 75.27 83.261 160.92z"/></g><g><path fill="none" stroke="#20b87a" stroke-miterlimit="20" stroke-width=".5" d="M248.07 200.314c54.546 88.396 70.567 112.265 112.532 149.397 41.966 37.132 41.778 27.277 29.195-23.986-12.584-51.264-19.326-69.647-73.873-158.043-54.546-88.396-68.384-103.369-110.35-140.5-41.965-37.133-35.4-21.133-38.725 8.076-3.39 29.761 26.673 76.66 81.22 165.056z"/></g><g><path fill="none" stroke="#20b87a" stroke-miterlimit="20" stroke-width=".5" d="M244.4 198.807c54.18 91.13 70.213 115.802 113.653 155.083 43.439 39.28 43.796 29.427 33.053-22.425-10.74-51.852-17.017-70.562-71.195-161.692-54.178-91.13-68.35-106.804-111.789-146.085-43.44-39.28-37.222-22.955-42.494 6.04-5.373 29.542 24.592 77.95 78.772 169.079z"/></g><g><path fill="none" stroke="#20b87a" stroke-miterlimit="20" stroke-width=".5" d="M240.495 197.12c53.625 93.841 69.627 119.32 114.544 160.818 44.917 41.5 45.864 31.678 37.154-20.664-8.71-52.342-14.457-71.356-68.083-165.197-53.625-93.84-68.116-110.236-113.03-151.733-44.916-41.497-39.099-24.873-46.47 3.806-7.513 29.222 22.26 79.13 75.885 172.97z"/></g><g><path fill="none" stroke="#20b87a" stroke-miterlimit="20" stroke-width=".5" d="M236.355 195.22c52.871 96.52 68.79 122.8 115.185 166.593 46.395 43.792 47.983 34.035 41.505-18.69-6.478-52.727-11.632-72.015-64.503-168.535s-67.667-113.65-114.06-157.443c-46.394-43.792-41.027-26.883-50.66 1.37-9.816 28.789 19.66 80.186 72.533 176.706z"/></g><g><path fill="none" stroke="#20b87a" stroke-miterlimit="20" stroke-width=".5" d="M231.962 193.111c51.9 99.155 67.683 126.232 115.552 172.392 47.87 46.16 50.147 36.499 46.117-16.493-4.032-52.993-8.53-72.526-60.429-171.679C281.303 78.18 266.217 60.296 218.35 14.136c-47.867-46.16-43.002-28.995-55.066-1.284-12.293 28.236 16.78 81.105 68.678 180.26z"/></g><g><path fill="none" stroke="#20b87a" stroke-miterlimit="20" stroke-width=".52" d="M227.325 190.774c50.695 101.734 66.287 129.6 115.622 178.203 49.335 48.602 52.358 39.075 50.995-14.057-1.362-53.132-5.133-72.873-55.828-174.607C287.418 78.58 272.062 59.933 222.729 11.33c-49.334-48.602-45.028-31.203-59.7-4.163-14.949 27.554 13.6 81.873 64.296 183.607z"/></g><g><path fill="none" stroke="#20b87a" stroke-miterlimit="20" stroke-width=".54" d="M222.42 188.205c49.24 104.248 64.58 132.892 115.365 184.01 50.786 51.12 54.61 41.762 56.154-11.37 1.545-53.13-1.427-73.04-50.666-177.287S278.425 59.886 227.64 8.767s-47.1-33.52-64.566-7.284c-17.795 26.735 10.105 82.473 59.347 186.722z"/></g><g><path fill="none" stroke="#20b87a" stroke-miterlimit="20" stroke-width=".57" d="M217.238 185.375c47.518 106.681 62.54 136.09 114.758 189.797 52.218 53.706 56.9 44.562 61.6-8.414 4.701-52.977 2.608-73.016-44.91-179.697C301.166 80.38 285.33 60.165 233.111 6.459c-52.218-53.706-49.22-35.941-69.668-10.655-20.837 25.766 6.276 82.888 53.794 189.571z"/></g><g><path fill="none" stroke="#20b87a" stroke-miterlimit="20" stroke-width=".59" d="M211.783 182.285c45.511 109.023 60.143 139.177 113.768 195.541 53.626 56.364 59.23 47.48 67.344-5.178 8.114-52.658 6.983-72.779-38.528-181.802C308.856 81.823 292.815 60.808 239.19 4.442c-53.626-56.365-51.38-38.465-75.015-14.284-24.083 24.639 2.099 83.104 47.608 192.127z"/></g><g><path fill="none" stroke="#20b87a" stroke-miterlimit="20" stroke-width=".62" d="M206.023 178.902c43.199 111.255 57.366 142.133 112.37 201.227 55.003 59.094 61.588 50.513 73.393-1.648 11.805-52.162 11.721-72.314-31.477-183.568C317.11 83.66 300.895 61.831 245.892 2.737c-55.004-59.094-53.585-41.101-80.617-18.19-27.544 23.345-2.45 83.1 40.748 194.355z"/></g><g><path fill="none" stroke="#20b87a" stroke-miterlimit="20" stroke-width=".64" d="M199.973 175.231c40.562 113.363 54.184 144.942 110.524 206.833 56.34 61.89 63.98 53.667 79.76 2.195 15.78-51.471 16.837-71.6-23.726-184.965C325.97 85.93 309.61 63.286 253.267 1.393s-55.827-43.85-86.471-22.385C135.573.88 159.41 61.867 199.973 175.23z"/></g><g><path fill="none" stroke="#20b87a" stroke-miterlimit="20" stroke-width=".67" d="M193.623 171.248c37.579 115.33 50.568 147.578 108.206 212.335 57.637 64.756 66.395 56.942 86.451 6.368 20.057-50.576 22.348-70.623-15.23-185.953C335.47 88.668 318.997 65.195 261.361.438c-57.635-64.756-58.104-46.71-92.588-26.88-35.139 20.208-12.73 82.358 24.849 197.69z"/></g><g><path fill="none" stroke="#20b87a" stroke-miterlimit="20" stroke-width=".7" d="M186.944 166.936c34.23 117.14 46.495 150.022 105.374 217.707 58.878 67.684 68.83 60.338 93.478 10.884 24.649-49.457 28.275-69.357-5.955-186.496C345.611 91.89 329.068 67.59 270.19-.093c-58.878-67.685-60.413-49.688-98.972-31.688-39.29 18.34-18.504 81.577 15.727 198.717z"/></g><g><path fill="none" stroke="#20b87a" stroke-miterlimit="20" stroke-width=".73" d="M179.938 162.275c30.491 118.77 41.934 152.25 101.996 222.922s71.281 63.86 100.85 15.76c29.568-48.098 34.637-67.78 4.145-186.55C356.438 95.637 339.864 70.504 279.802-.168c-60.063-70.672-62.75-52.78-105.629-36.825-43.694 16.259-24.727 80.498 5.765 199.268z"/></g><g><path fill="none" stroke="#20b87a" stroke-miterlimit="20" stroke-width=".76" d="M172.605 157.26c26.342 120.203 36.857 154.236 98.031 227.956 61.174 73.719 73.74 67.502 108.572 21.017 34.833-46.486 41.454-65.876 15.112-186.079C367.977 99.951 351.417 73.985 290.244.266c-61.174-73.72-65.11-55.994-112.56-42.303-48.354 13.951-31.422 79.094-5.08 199.297z"/></g><g><path fill="none" stroke="#20b87a" stroke-miterlimit="20" stroke-width=".79" d="M164.93 151.871c21.756 121.418 31.234 155.955 93.443 232.774 62.208 76.818 76.202 71.267 116.655 26.67 40.452-44.598 48.743-63.616 26.99-185.032C380.262 104.866 363.761 78.067 301.554 1.249 239.35-75.569 234.067-58.074 181.78-46.887c-53.28 11.402-38.606 77.34-16.85 198.758z"/></g><g><path fill="none" stroke="#20b87a" stroke-miterlimit="20" stroke-width=".82" d="M156.91 146.082c16.707 122.39 25.03 157.375 88.186 237.345 63.155 79.97 78.66 75.158 125.109 32.74 46.448-42.419 56.528-60.978 39.821-183.366C393.32 110.41 376.933 82.786 313.778 2.818c-63.155-79.968-69.881-62.775-127.274-54.337-58.479 8.595-46.301 75.213-29.594 197.601z"/></g><g><path fill="none" stroke="#20b87a" stroke-miterlimit="20" stroke-width=".86" d="M148.527 139.884c11.172 123.096 18.218 158.47 82.222 241.635 64.004 83.164 81.109 79.172 133.938 39.24 52.83-39.93 64.83-57.935 53.655-181.03-11.172-123.097-27.387-151.54-91.39-234.707-64.004-83.166-72.283-66.346-135.062-60.924-63.965 5.525-54.537 72.688-43.363 195.786z"/></g><g><path fill="none" stroke="#20b87a" stroke-miterlimit="20" stroke-width=".89" d="M139.78 133.249c5.125 123.511 10.76 159.207 75.503 245.607 64.743 86.401 83.537 83.31 143.155 46.198 59.617-37.111 73.664-54.463 68.539-177.976C421.85 123.564 405.87 94.31 341.127 7.91 276.384-78.49 266.439-62.128 197.988-60c-69.747 2.171-63.333 69.736-58.208 193.248z"/></g><g><path fill="none" stroke="#20b87a" stroke-miterlimit="20" stroke-width=".93" d="M130.66 126.177c-1.463 123.611 2.624 159.552 67.984 249.222 65.36 89.67 85.936 87.567 152.76 53.628 66.825-33.94 83.06-50.533 84.523-174.144 1.463-123.612-14.22-153.66-79.582-243.333C290.983-78.12 279.26-62.3 204.837-63.757c-75.834-1.485-72.716 66.323-74.178 189.934z"/></g><g><path fill="none" stroke="#20b87a" stroke-miterlimit="20" stroke-width=".97" d="M121.172 118.627c-8.62 123.364-6.229 159.47 59.617 252.438 65.846 92.969 88.3 91.944 162.766 61.548 74.467-30.395 93.034-46.117 101.654-169.481 8.62-123.364-6.696-154.195-72.54-247.164C306.825-77 293.197-61.816 212.496-67.165c-82.232-5.451-82.706 62.426-91.324 185.792z"/></g><g><path fill="none" stroke="#20b87a" stroke-miterlimit="20" stroke-width="1.01" d="M111.293 110.594C94.92 233.339 95.46 269.519 161.645 365.806c66.186 96.287 90.617 96.44 173.176 69.981 82.56-26.458 103.608-41.183 119.982-163.928 16.373-122.745 1.505-154.334-64.68-250.621-66.186-96.287-81.84-81.838-169.135-91.403-88.946-9.747-93.321 58.014-109.695 180.759z"/></g><g><path fill="none" stroke="#20b87a" stroke-miterlimit="20" stroke-width="1.06" d="M101.038 102.066C76.28 223.786 74.81 259.944 141.177 359.565c66.365 99.62 92.874 101.05 183.995 78.949 91.12-22.101 114.805-35.706 139.561-157.426 24.757-121.72 10.414-154.044-55.95-253.663-66.363-99.619-84.18-86.008-178.39-100.128-95.996-14.389-104.599 53.05-129.355 174.769z"/></g><g><path fill="none" stroke="#20b87a" stroke-miterlimit="20" stroke-width="1.1" d="M90.38 92.997c-33.796 120.258-37.45 156.29 28.92 259.246 66.37 102.954 95.064 105.771 195.23 88.47 100.165-17.3 126.649-29.649 160.445-149.905 33.797-120.255 20.067-153.287-46.303-256.242-66.37-102.955-86.48-90.295-187.94-109.329C137.352-94.155 124.176-27.26 90.38 92.997z"/></g><g><path fill="none" stroke="#20b87a" stroke-miterlimit="20" stroke-width="1.15" d="M79.337 83.39C35.81 201.712 29.796 237.503 95.98 343.792c66.185 106.289 97.173 110.603 206.884 98.567 109.71-12.037 139.16-22.98 182.685-141.303 43.526-118.323 30.502-152.027-35.683-258.316C383.68-63.548 361.13-51.956 252.083-76.272 140.971-101.048 122.864-34.934 79.336 83.389z"/></g><g><path fill="none" stroke="#20b87a" stroke-miterlimit="20" stroke-width="1.2" d="M67.89 73.22C13.913 189.103 5.348 224.532 71.143 334.139c65.795 109.607 99.186 115.536 218.958 109.26 119.771-6.278 152.36-15.664 206.337-131.55C550.414 195.966 538.194 161.628 472.4 52.02 406.607-57.587 381.468-47.193 264.484-77.183 145.282-107.74 121.866-42.663 67.89 73.22z"/></g><g><path fill="none" stroke="#20b87a" stroke-miterlimit="20" stroke-width="1.25" d="M56.05 62.455c-65.184 112.9-76.495 147.83-11.312 260.73 65.184 112.9 101.091 120.57 231.457 120.57 130.365 0 166.272-7.67 231.456-120.57 65.184-112.9 53.87-147.83-11.311-260.73C431.158-50.445 403.275-41.38 278-77.452 150.35-114.206 121.231-50.445 56.05 62.455z"/></g></g></g></svg>