<svg xmlns="http://www.w3.org/2000/svg" width="40" height="44" viewBox="0 0 40 44"><g><g clip-path="url(#clip-370262A7-9DBC-4263-9971-0C6452FF2640)"><path fill="#e73629" d="M37.936 33.198a7.19 7.19 0 0 1-1.906 4.53 7.198 7.198 0 0 1-4.084 2.215 7.177 7.177 0 0 1-6.12 3.396A7.21 7.21 0 0 1 19.748 40a7.21 7.21 0 0 1-6.078 3.34 7.183 7.183 0 0 1-6.122-3.397 7.183 7.183 0 0 1-4.08-2.214 7.174 7.174 0 0 1-1.908-4.53A7.183 7.183 0 0 1 0 28.722c0-1.448.442-2.87 1.252-4.06a5.594 5.594 0 0 1-.977-3.173 5.633 5.633 0 0 1 2.69-4.81 5.626 5.626 0 0 1-.351-1.962 5.633 5.633 0 0 1 2.692-4.81 5.666 5.666 0 0 1 5.3-7.643A5.678 5.678 0 0 1 15.137 0c1.513 0 2.946.584 4.034 1.647.21.207.404.426.578.654.174-.228.365-.447.577-.654A5.746 5.746 0 0 1 24.358 0c1.792 0 3.468.852 4.529 2.264a5.66 5.66 0 0 1 5.304 7.643 5.635 5.635 0 0 1 2.69 4.811c0 .677-.12 1.34-.35 1.962a5.629 5.629 0 0 1 2.69 4.81 5.594 5.594 0 0 1-.978 3.173 7.235 7.235 0 0 1 1.253 4.06zm-22.557 6.176a3.401 3.401 0 0 1-4.683-3.145c0-1.474.946-2.733 2.265-3.201v-1.325H3.263c.09.118.185.233.286.344.252.276.339.643.271.983.1 2.467 2.052 4.528 4.53 4.733l.014.002c.026.002.05.005.075.01a.273.273 0 0 1 .04.008.388.388 0 0 1 .064.015.228.228 0 0 1 .047.01l.054.02c.017.007.035.012.05.02l.05.023a.415.415 0 0 1 .102.056c.014.007.026.016.038.023.02.012.04.027.06.041.008.009.018.016.027.023.02.014.038.033.057.05.01.007.016.014.025.023a.499.499 0 0 1 .05.054l.023.026c.016.017.03.036.042.054.008.014.019.024.028.038l.03.047.029.052.01.02a4.934 4.934 0 0 0 4.412 2.697zm1.861-1.86l1.386-1.384V20.38h-6.798a1.131 1.131 0 0 1-1.132-1.131v-2.461a3.403 3.403 0 0 1-2.266-3.202 3.401 3.401 0 0 1 3.398-3.396 3.401 3.401 0 0 1 3.4 3.396 3.405 3.405 0 0 1-2.267 3.202v1.327h5.665V5.66c0-1.842-1.594-3.397-3.482-3.397a3.41 3.41 0 0 0-2.96 1.727l-.002.006c-.014.022-.03.043-.044.067-.007.009-.012.02-.019.03l-.036.043c-.098.126-.22.226-.355.298-.01.003-.016.008-.023.012l-.033.014c-.108.05-.226.083-.348.097-.014.002-.026.004-.038.004l-.032.001c-.028.002-.055.004-.085.002h-.009a2.015 2.015 0 0 1-.106-.008h-.002a3.402 3.402 0 0 0-3.839 3.369c0 .651.187 1.277.535 1.824.062.08.115.172.153.273l.005.012c.007.015.014.031.02.048l.003.016a1.136 1.136 0 0 1-.439 1.298 1.125 1.125 0 0 1-.47.18 3.366 3.366 0 0 0-2.14 3.141 3.354 3.354 0 0 0 .572 1.88l.042.072.018.038a.657.657 0 0 1 .048.111c.006.012.01.023.014.037.002.003.004.01.005.017l.016.057c.005.016.01.035.012.054l.009.049c.003.023.007.042.009.064a.98.98 0 0 1 .007.113l-.002.03c0 .026-.002.052-.004.08-.001.009-.003.017-.003.026l-.014.082-.005.03c-.007.024-.012.05-.02.072-.003.014-.008.027-.012.039a.908.908 0 0 1-.022.062l-.021.047a.318.318 0 0 1-.024.049.494.494 0 0 1-.028.052.575.575 0 0 1-.026.044l-.033.048c-.01.012-.021.028-.032.04a.277.277 0 0 1-.035.042l-.038.044c-.012.012-.022.02-.035.03a.425.425 0 0 1-.081.072c-.02.016-.039.031-.06.045a.031.031 0 0 1-.012.009c-.012.009-.024.014-.036.023-.012.005-.021.012-.032.019a.73.73 0 0 1-.09.045c-.005.002-.01.003-.016.007l-.089.035A3.367 3.367 0 0 0 2.54 21.49c0 .853.317 1.66.895 2.285h5.19a3.401 3.401 0 0 1 3.204-2.265 3.401 3.401 0 0 1 3.4 3.397 3.403 3.403 0 0 1-3.4 3.398 3.403 3.403 0 0 1-3.203-2.266H3.056a4.885 4.885 0 0 0-.792 2.683c0 .239.018.479.053.714h11.777c.625 0 1.133.507 1.133 1.132v2.459a3.403 3.403 0 0 1 2.266 3.202c0 .454-.09.888-.253 1.284zm-1.861 1.86a3.417 3.417 0 0 0 1.861-1.86zm-2.424-3.15c0 .624.51 1.13 1.137 1.13s1.137-.506 1.137-1.13c0-.621-.51-1.127-1.137-1.127zM11.823 26.04a1.133 1.133 0 0 0 0-2.264c-.625 0-1.133.507-1.133 1.132zm1.132-12.449c0-.627-.508-1.137-1.132-1.137-.625 0-1.133.51-1.133 1.137s.508 1.137 1.133 1.137zM35.677 33.03a1.13 1.13 0 0 1 .27-.983 4.935 4.935 0 0 0 1.284-3.324c0-1.142-.379-2.217-1.095-3.104-.02-.022-.035-.047-.05-.07a1.132 1.132 0 0 1-.104-1.687c.628-.634.975-1.478.975-2.372a3.368 3.368 0 0 0-2.322-3.208c-.032-.01-.061-.023-.09-.035-.004-.004-.01-.005-.015-.007a.626.626 0 0 1-.09-.045c-.01-.007-.02-.012-.03-.02-.012-.006-.026-.013-.038-.022-.005-.003-.009-.005-.012-.009l-.06-.045c-.01-.009-.022-.016-.032-.024a.597.597 0 0 1-.049-.045c-.012-.013-.024-.021-.035-.033-.014-.014-.026-.03-.038-.044a.383.383 0 0 1-.035-.04c-.012-.016-.02-.03-.031-.042a2.491 2.491 0 0 1-.06-.092l-.027-.052a.34.34 0 0 1-.024-.05l-.021-.046a.898.898 0 0 1-.023-.062l-.012-.039c-.007-.022-.012-.048-.02-.073 0-.01-.004-.02-.006-.03a1.497 1.497 0 0 1-.012-.08l-.004-.027-.005-.08v-.03a.98.98 0 0 1 .004-.073l.001-.04c.002-.022.006-.041.009-.062l.009-.05c.005-.02.008-.037.014-.055a.352.352 0 0 1 .02-.074.314.314 0 0 1 .014-.037.434.434 0 0 1 .02-.05c.008-.021.019-.042.027-.061l.02-.038c.012-.025.027-.047.041-.07l.01-.017a3.355 3.355 0 0 0 .562-1.865 3.366 3.366 0 0 0-2.139-3.14 1.129 1.129 0 0 1-.908-1.477l.004-.018c.007-.017.012-.034.019-.048a1.102 1.102 0 0 1 .158-.285 3.379 3.379 0 0 0 .532-1.825 3.4 3.4 0 0 0-3.834-3.368c-.153.019-.305.008-.45-.032 0 0 0-.002-.002-.002a1.011 1.011 0 0 1-.103-.033V4.49a1.09 1.09 0 0 1-.511-.397l-.02-.03a.9.9 0 0 1-.043-.067l-.002-.004a3.41 3.41 0 0 0-2.96-1.727c-1.885 0-3.478 1.555-3.478 3.397v30.47a4.95 4.95 0 0 0 4.946 4.944 4.932 4.932 0 0 0 4.409-2.698c.003-.007.007-.012.008-.017a.74.74 0 0 1 .061-.1c.009-.015.02-.027.03-.04.012-.018.024-.036.038-.051l.026-.032a.666.666 0 0 1 .049-.05l.028-.026c.017-.016.035-.033.052-.045.01-.01.023-.018.035-.028l.052-.038a.963.963 0 0 1 .043-.027l.05-.03a.476.476 0 0 1 .051-.023l.045-.021c.02-.009.037-.014.056-.021.016-.007.033-.012.049-.018a.29.29 0 0 1 .052-.013c.02-.006.038-.01.06-.014a.324.324 0 0 1 .043-.007.47.47 0 0 1 .07-.01c.006 0 .011-.003.017-.003z"/></g></g></svg>