<svg xmlns="http://www.w3.org/2000/svg" width="56" height="56" viewBox="0 0 56 56"><g><g clip-path="url(#clip-DAC6F019-1D7D-4AD4-89E2-7DA5B92519E7)"><g><g><path fill="#fbbd29" d="M0 6.16A6.16 6.16 0 0 1 6.16 0h43.118a6.16 6.16 0 0 1 6.16 6.16v43.118a6.16 6.16 0 0 1-6.16 6.16H6.16A6.16 6.16 0 0 1 0 49.278z"/></g></g><g opacity=".2"><path fill="#231f20" d="M41.24 18.89l-1.31-1.291v5.866l-.665 1.76-7.979-7.978-1.232 3.266-1.134 1.33-.469 1.212-6.258-6.825-10.188 2.112-.801 5.69 3.07 2.073-3.911-.313 10.344 10.345-2.757 2.444-4.028.802-5.632-.528 16.582 16.582h24.405a6.18 6.18 0 0 0 6.16-6.16v-21.51l-9.524-9.445z"/></g><g><g><path fill="#fff" d="M38.348 20.352v-2.796h1.662l.098 1.7a3.794 3.794 0 0 1 3.422-1.955c1.427 0 3.657.86 3.657 4.4v6.16H45.23v-5.866c0-1.663-.626-3.051-2.386-3.051a2.757 2.757 0 0 0-2.64 2.796v6.2H38.25z"/></g><g><path fill="#fff" d="M31.286 17.27v5.084h4.615V24.8h-4.615v9.542c0 2.19.626 3.442 2.406 3.442a7.098 7.098 0 0 0 1.955-.215l.157 2.425a7.822 7.822 0 0 1-2.855.43 4.458 4.458 0 0 1-3.618-1.31 6.55 6.55 0 0 1-1.252-4.615v-9.68H25.42v-2.464h2.738v-4.243z"/></g><g><path fill="#fff" d="M9.111 36.194a11.263 11.263 0 0 0 5.71 1.604c3.266 0 5.163-1.721 5.163-4.205 0-2.483-1.31-3.617-4.654-4.908-4.029-1.427-6.512-3.52-6.512-6.981 0-3.911 3.187-6.688 7.978-6.688a11.205 11.205 0 0 1 5.456 1.213l-.9 2.58a9.777 9.777 0 0 0-4.673-1.212c-3.363 0-4.654 1.956-4.654 3.696 0 2.308 1.506 3.442 4.908 4.752 4.165 1.604 6.297 3.618 6.297 7.235 0 3.618-2.816 7.099-8.643 7.099a12.73 12.73 0 0 1-6.297-1.565z"/></g></g></g></g></svg>