<svg xmlns="http://www.w3.org/2000/svg" width="56" height="56" viewBox="0 0 56 56"><g><g><g><g><path fill="#6b6f91" d="M0 6.16A6.16 6.16 0 0 1 6.16 0h43.118a6.16 6.16 0 0 1 6.16 6.16v43.118a6.16 6.16 0 0 1-6.16 6.16H6.16A6.16 6.16 0 0 1 0 49.278z"/></g></g><g opacity=".2"><path fill="#231f20" d="M36.097 18.992l3.207 3.207-2.757.274v1.955l-7.548-7.411-12.691-.997-.548 24.267 15.233 15.155h18.284a6.18 6.18 0 0 0 6.16-6.16V32.23L38.99 16z"/></g><g><g><path fill="#fff" d="M36.004 40.355V22.179h3.315v18.176zm3.677-22.752a2.043 2.043 0 0 1-4.087 0 1.955 1.955 0 0 1 1.838-2.073h.235c1.08 0 1.955.876 1.955 1.955z"/></g><g><path fill="#fff" d="M19.026 28.22h2.698c3.56 0 6.532 1.192 6.532 4.888 0 3.696-3.11 4.928-6.493 4.928a17.6 17.6 0 0 1-2.737-.157zm0-10.619a13.972 13.972 0 0 1 2.89-.235c3.301 0 5.547 1.155 5.547 4.131 0 2.448-2.011 4.249-5.469 4.249h-2.968zM15.76 40.382c1.68.21 3.372.307 5.065.294 4.145 0 7-.743 8.76-2.367a6.825 6.825 0 0 0 2.132-5.064 6.531 6.531 0 0 0-5.221-6.531 6.003 6.003 0 0 0 4.282-5.554 5.319 5.319 0 0 0-2.112-4.478 10.462 10.462 0 0 0-6.942-1.838c-2-.013-3.997.164-5.964.528z"/></g></g></g></g></svg>