<svg xmlns="http://www.w3.org/2000/svg" width="56" height="56" viewBox="0 0 56 56"><g><g><g><g><path fill="#325bb9" d="M0 6.19A6.19 6.19 0 0 1 6.19 0h43.326a6.19 6.19 0 0 1 6.19 6.19v43.326a6.19 6.19 0 0 1-6.19 6.19H6.189A6.19 6.19 0 0 1 0 49.515z"/></g></g><g opacity=".2"><path fill="#231f20" d="M38.448 24.46l-2.18-2.18-2.221.294.255 2.26-7.506-7.506L13.75 16.09l-.589 24.385 15.287 15.228h21.064a6.21 6.21 0 0 0 6.19-6.19V35.15L42.534 21.985z"/></g><g><g><path fill="#fff" d="M16.443 28.354h2.714c3.578 0 6.567 1.199 6.567 4.913 0 3.713-3.127 4.951-6.528 4.951-.92.02-1.84-.033-2.753-.157zm0-10.67a14.073 14.073 0 0 1 2.907-.235c3.319 0 5.577 1.16 5.577 4.146 0 2.456-2.023 4.264-5.499 4.264h-2.985zM13.16 40.479c1.686.243 3.386.374 5.09.393 4.165 0 7.034-.747 8.802-2.378a6.858 6.858 0 0 0 2.161-5.089 6.563 6.563 0 0 0-5.246-6.543 6.032 6.032 0 0 0 4.303-5.58 5.345 5.345 0 0 0-2.122-4.5 10.512 10.512 0 0 0-6.975-1.847 31.89 31.89 0 0 0-6.013.51z"/></g><g><path fill="#fff" d="M33.407 27.982c0-2.141 0-3.93-.157-5.698h2.908l.118 3.596h.157a5.482 5.482 0 0 1 5.05-3.93c.318-.002.635.038.943.118v3.124a5.03 5.03 0 0 0-1.14-.118 4.657 4.657 0 0 0-4.342 4.205 9.432 9.432 0 0 0-.157 1.552v9.825h-3.38z"/></g></g></g></g></svg>