<svg xmlns="http://www.w3.org/2000/svg" width="48" height="46" viewBox="0 0 48 46"><g><g><g><path fill="none" stroke="#e73629" stroke-linecap="round" stroke-linejoin="round" stroke-miterlimit="20" stroke-width="2.44" d="M37.473 23.07v17.107H26.43v0"/></g><g><path fill="none" stroke="#e73629" stroke-linecap="round" stroke-linejoin="round" stroke-miterlimit="20" stroke-width="2.44" d="M26.433 37.73v4.886l-2.443-2.443v0z"/></g><g><path fill="none" stroke="#e73629" stroke-linecap="round" stroke-linejoin="round" stroke-miterlimit="20" stroke-width="2.44" d="M10.61 22.055v0V5.97v0h11.043v0"/></g><g><g><path fill="none" stroke="#e73629" stroke-linecap="round" stroke-linejoin="round" stroke-miterlimit="20" stroke-width="2.44" d="M21.66 8.416v0V3.53v0l2.443 2.443v0z"/></g><g><path fill="none" stroke="#e73629" stroke-linejoin="round" stroke-miterlimit="20" stroke-width="2.44" d="M15.185 27.808a4.568 4.568 0 1 0-9.135 0 4.568 4.568 0 0 0 9.135 0z"/></g><g><path fill="none" stroke="#e73629" stroke-linejoin="round" stroke-miterlimit="20" stroke-width="2.44" d="M13.47 34.81h-.236a6.257 6.257 0 0 1-2.62.571 6.257 6.257 0 0 1-2.619-.571H7.76c-5.71 0-5.71 5.71-5.71 5.71v1.141c0 2.284 2.284 2.284 2.284 2.284v0h12.561v0s2.284 0 2.284-2.284V40.52v0s0-5.71-5.71-5.71z"/></g><g><path fill="none" stroke="#e73629" stroke-linejoin="round" stroke-miterlimit="20" stroke-width="2.44" d="M42.005 5.718a4.568 4.568 0 1 0-9.135 0 4.568 4.568 0 0 0 9.135 0z"/></g><g><path fill="none" stroke="#e73629" stroke-linejoin="round" stroke-miterlimit="20" stroke-width="2.44" d="M40.29 12.71h-.236a6.257 6.257 0 0 1-2.62.571 6.258 6.258 0 0 1-2.619-.571h-.235c-5.71 0-5.71 5.71-5.71 5.71v1.142c0 2.283 2.284 2.283 2.284 2.283v0h12.561v0s2.284 0 2.284-2.283V18.42v0s0-5.71-5.71-5.71z"/></g></g></g></g></svg>