<svg xmlns="http://www.w3.org/2000/svg" width="57" height="39" viewBox="0 0 57 39"><g><g><g><path fill="none" stroke="#e73629" stroke-linecap="round" stroke-linejoin="round" stroke-miterlimit="20" stroke-width="2.93" d="M4.99 29.81v0V3.67c0-.89.74-1.61 1.653-1.61h43.524c.912 0 1.652.72 1.652 1.61v26.14"/></g><g><path fill="none" stroke="#e73629" stroke-linecap="round" stroke-linejoin="round" stroke-miterlimit="20" stroke-width="2.93" d="M54.746 29.81v4.335s.34 2.927-2.927 2.927H35.72v0h-5.853v0h-1.456v0h-5.854v0H4.997c-3.267 0-2.927-2.927-2.927-2.927v0-4.335 0H19.63v0l2.926 2.927v0h5.854v0h5.854v0l2.927-2.927v0z"/></g><g><path fill="none" stroke="#e73629" stroke-linecap="round" stroke-linejoin="round" stroke-miterlimit="20" stroke-width="1.46" d="M10.78 8.05v17.179h20.446v0"/></g><g><path fill="none" stroke="#e73629" stroke-linecap="round" stroke-linejoin="round" stroke-miterlimit="20" stroke-width="1.46" d="M34.26 9.08l13.17.02"/></g><g><path fill="none" stroke="#e73629" stroke-linecap="round" stroke-linejoin="round" stroke-miterlimit="20" stroke-width="1.46" d="M34.26 13.41l13.17.02"/></g><g><path fill="none" stroke="#e73629" stroke-linecap="round" stroke-linejoin="round" stroke-miterlimit="20" stroke-width="1.46" d="M34.26 17.85l13.17.02"/></g><g><path fill="none" stroke="#e73629" stroke-linecap="round" stroke-linejoin="round" stroke-miterlimit="20" stroke-width="1.46" d="M34.26 22.24l10.244.02"/></g><g><path fill="none" stroke="#e73629" stroke-linecap="round" stroke-linejoin="round" stroke-miterlimit="20" stroke-width="1.46" d="M13.77 19.657v0l2.922 2.75v0L22.55 7.95v0l5.854 5.854v0"/></g></g></g></svg>