<svg xmlns="http://www.w3.org/2000/svg" width="34" height="42" viewBox="0 0 34 42"><g><g><g><path fill="none" stroke="#e73629" stroke-linecap="round" stroke-linejoin="round" stroke-miterlimit="20" stroke-width="2.21" d="M32.887 40.818v0V34.1v0H17.4v6.718z"/></g><g><path fill="none" stroke="#e73629" stroke-linecap="round" stroke-linejoin="round" stroke-miterlimit="20" stroke-width="2.21" d="M29.57 34.095a4.425 4.425 0 0 0-8.85 0"/></g><g><path fill="none" stroke="#e73629" stroke-linecap="round" stroke-linejoin="round" stroke-miterlimit="20" stroke-width="2.21" d="M30.362 15.36L28.91 31.546"/></g><g><path fill="none" stroke="#e73629" stroke-linecap="round" stroke-linejoin="round" stroke-miterlimit="20" stroke-width="2.21" d="M22.14 30.848l1.445-16.118"/></g><g><path fill="none" stroke="#e73629" stroke-linecap="round" stroke-linejoin="round" stroke-miterlimit="20" stroke-width="2.21" d="M31.586 12.62a4.425 4.425 0 1 0-8.802-.91 4.425 4.425 0 0 0 8.802.91z"/></g><g><path fill="none" stroke="#e73629" stroke-linecap="round" stroke-linejoin="round" stroke-miterlimit="20" stroke-width="2.21" d="M13.457 6.007a4.425 4.425 0 1 0-8.783-1.083 4.425 4.425 0 0 0 8.783 1.083z"/></g><g><path fill="none" stroke="#e73629" stroke-linecap="round" stroke-linejoin="round" stroke-miterlimit="20" stroke-width="2.21" d="M24.126 8.213L13.59 4.89"/></g><g><path fill="none" stroke="#e73629" stroke-linecap="round" stroke-linejoin="round" stroke-miterlimit="20" stroke-width="2.21" d="M22.804 12.434L11.79 8.96"/></g><g><path fill="none" stroke="#e73629" stroke-linecap="round" stroke-linejoin="round" stroke-miterlimit="20" stroke-width="2.21" d="M10.796 9.541v0l-.885 7.175v0l-4.391-.541v0L6.404 9v0"/></g><g><path fill="none" stroke="#e73629" stroke-linecap="round" stroke-linejoin="round" stroke-miterlimit="20" stroke-width="2.21" d="M7.716 16.45l-.366 2.975"/></g><g><path fill="#e73629" d="M4.11 22.65v.782c0 .144.117.26.26.26h5.994a.26.26 0 0 0 .261-.26v-.781a.26.26 0 0 0-.26-.261H4.37a.26.26 0 0 0-.261.26"/></g><g><path fill="none" stroke="#e73629" stroke-miterlimit="20" stroke-width="2.21" d="M12.542 35.29H2.19"/></g><g><path fill="none" stroke="#e73629" stroke-linejoin="round" stroke-miterlimit="20" stroke-width="2.21" d="M8.663 23.04v2.07c0 .182.038.361.111.527l4.22 10.824v0s2.282 4.515-1.725 4.515H3.451c-4.104 0-1.725-4.515-1.725-4.515v0l4.22-10.824c.074-.166.111-.345.111-.526V23.04v0"/></g><g><path fill="none" stroke="#e73629" stroke-linecap="round" stroke-linejoin="round" stroke-miterlimit="20" stroke-width="2.21" d="M17.4 37.5h15.487"/></g></g></g></svg>