<svg xmlns="http://www.w3.org/2000/svg" width="43" height="45" viewBox="0 0 43 45"><g><g><g><path fill="none" stroke="#e73629" stroke-linecap="round" stroke-linejoin="round" stroke-miterlimit="20" stroke-width="2.33" d="M34.987 22.333c0-6.612-5.36-11.973-11.974-11.973-6.612 0-11.973 5.36-11.973 11.973s5.36 11.974 11.973 11.974 11.974-5.36 11.974-11.974z"/></g><g><path fill="none" stroke="#e73629" stroke-linecap="round" stroke-linejoin="round" stroke-miterlimit="20" stroke-width="2.33" d="M29.878 22.333c0-6.612-3.026-11.973-6.76-11.973-3.732 0-6.758 5.36-6.758 11.973s3.026 11.974 6.759 11.974c3.733 0 6.759-5.36 6.759-11.974z"/></g><g><path fill="none" stroke="#e73629" stroke-linecap="round" stroke-linejoin="round" stroke-miterlimit="20" stroke-width="2.33" d="M11.7 18.46h22.616"/></g><g><path fill="none" stroke="#e73629" stroke-linecap="round" stroke-linejoin="round" stroke-miterlimit="20" stroke-width="2.33" d="M11.7 26.33h22.616"/></g><g><path fill="none" stroke="#e73629" stroke-linecap="round" stroke-linejoin="round" stroke-miterlimit="20" stroke-width="2.33" d="M23.12 10.36v23.947"/></g><g><path fill="none" stroke="#e73629" stroke-linecap="round" stroke-linejoin="round" stroke-miterlimit="20" stroke-width="2.33" d="M30.76 13.206l7.02-8.076"/></g><g><path fill="none" stroke="#e73629" stroke-linecap="round" stroke-linejoin="round" stroke-miterlimit="20" stroke-width="2.33" d="M41.636 3.378a2.328 2.328 0 1 0-4.656 0 2.328 2.328 0 0 0 4.656 0z"/></g><g><path fill="none" stroke="#e73629" stroke-linecap="round" stroke-linejoin="round" stroke-miterlimit="20" stroke-width="2.33" d="M13.858 30.05L6.13 36.774"/></g><g><path fill="none" stroke="#e73629" stroke-linecap="round" stroke-linejoin="round" stroke-miterlimit="20" stroke-width="2.33" d="M2.05 38.308a2.328 2.328 0 1 0 4.656 0 2.328 2.328 0 0 0-4.656 0z"/></g><g><path fill="none" stroke="#e73629" stroke-linecap="round" stroke-linejoin="round" stroke-miterlimit="20" stroke-width="2.33" d="M41.636 40.638a2.328 2.328 0 1 0-4.656 0 2.328 2.328 0 0 0 4.656 0z"/></g><g><path fill="none" stroke="#e73629" stroke-linecap="round" stroke-linejoin="round" stroke-miterlimit="20" stroke-width="2.33" d="M6.716 21.998a2.328 2.328 0 1 0-4.656 0 2.328 2.328 0 0 0 4.656 0z"/></g><g><path fill="none" stroke="#e73629" stroke-linecap="round" stroke-linejoin="round" stroke-miterlimit="20" stroke-width="2.33" d="M11.034 22H6.71"/></g><g><path fill="none" stroke="#e73629" stroke-linecap="round" stroke-linejoin="round" stroke-miterlimit="20" stroke-width="2.33" d="M31 31.25l6.762 7.644"/></g></g></g></svg>