<svg xmlns="http://www.w3.org/2000/svg" width="42" height="42" viewBox="0 0 42 42"><defs><clipPath id="6bnma"><path d="M0 41.962h41.851V0H0z"/></clipPath></defs><g><g><g><path fill="none" stroke="#e73629" stroke-linecap="round" stroke-linejoin="round" stroke-miterlimit="20" stroke-width="2.2" d="M26.32 8.69v0-6.992c0-.27.215-.488.48-.488h12.625c.265 0 .48.218.48.488v6.993"/></g><g><path fill="none" stroke="#e73629" stroke-linecap="round" stroke-linejoin="round" stroke-miterlimit="20" stroke-width="2.2" d="M39.905 40.783v0-8.225a.484.484 0 0 0-.48-.488H26.8a.484.484 0 0 0-.48.488v8.225z"/></g><g><path fill="none" stroke="#e73629" stroke-linecap="round" stroke-linejoin="round" stroke-miterlimit="20" stroke-width="2.2" d="M40.744 8.69v2.642s.098.887-.85.887h-4.67v0h-1.697v0h-.423v0h-1.698v0h-5.094c-.948 0-.85-.887-.85-.887v0V8.69v0h5.094v0l.85.887v0h1.698v0h1.698v0l.849-.887v0z"/></g><g/><g clip-path="url(#6bnma)"><path fill="none" stroke="#e73629" stroke-linecap="round" stroke-linejoin="round" stroke-miterlimit="20" stroke-width="2.2" d="M1.1 12.106v0h6.604v0V1.1v0H1.1v0z"/></g><g clip-path="url(#6bnma)"><path fill="none" stroke="#e73629" stroke-linecap="round" stroke-linejoin="round" stroke-miterlimit="20" stroke-width="2.2" d="M1.1 8.81h6.604"/></g><g clip-path="url(#6bnma)"><path fill="none" stroke="#e73629" stroke-linecap="round" stroke-linejoin="round" stroke-miterlimit="20" stroke-width="2.2" d="M36.344 12.22v8.801H29.05v0"/></g><g clip-path="url(#6bnma)"><path fill="none" stroke="#e73629" stroke-linecap="round" stroke-linejoin="round" stroke-miterlimit="20" stroke-width="2.2" d="M3.33 12.34v8.801h8.805v0"/></g><g clip-path="url(#6bnma)"><path fill="none" stroke="#e73629" stroke-linecap="round" stroke-linejoin="round" stroke-miterlimit="20" stroke-width="2.2" d="M36.348 32.072v0-6.582 0H30.96v0"/></g><g clip-path="url(#6bnma)"><path fill="none" stroke="#e73629" stroke-linecap="round" stroke-linejoin="round" stroke-miterlimit="20" stroke-width="2.2" d="M3.33 32.215v0-6.845 0h7.804v0"/></g><g clip-path="url(#6bnma)"><path fill="none" stroke="#e73629" stroke-linecap="round" stroke-linejoin="round" stroke-miterlimit="20" stroke-width="2.2" d="M23.059 20.656c.577-1.062 1.656-1.872 2.893-1.872 1.845 0 3.34 1.592 3.34 3.555 0 .68-.18 1.316-.49 1.856h0c.154-.051.32-.079.49-.079.922 0 1.67.796 1.67 1.778s-.748 1.778-1.67 1.778H14.26c-1.844 0-3.34-1.592-3.34-3.556 0-1.963 1.496-3.555 3.34-3.555.462 0 .9.1 1.3.28l.011.005a4.655 4.655 0 0 1-.476-2.062c0-2.454 1.87-4.444 4.176-4.444s4.175 1.99 4.175 4.444c0 .669-.139 1.303-.387 1.872z"/></g><g clip-path="url(#6bnma)"><path fill="none" stroke="#e73629" stroke-linecap="round" stroke-linejoin="round" stroke-miterlimit="20" stroke-width="2.2" d="M1.1 35.71v0h8.832v0-3.38 0H1.1v0z"/></g><g clip-path="url(#6bnma)"><path fill="none" stroke="#e73629" stroke-linecap="round" stroke-linejoin="round" stroke-miterlimit="20" stroke-width="2.2" d="M1.1 40.862v0h8.832v0-5.052 0H1.1v0z"/></g></g></g></svg>