<svg xmlns="http://www.w3.org/2000/svg" width="91" height="105" viewBox="0 0 91 105"><g><g><g><path fill="none" stroke="#e73629" stroke-linejoin="round" stroke-miterlimit="20" stroke-width="5.5" d="M3.11 79.503v0h55v0V41.05v0h-55v0z"/></g><g><path fill="none" stroke="#e73629" stroke-linejoin="round" stroke-miterlimit="20" stroke-width="5.5" d="M9.61 39.455v0-10.41c0-11.595 9.4-20.995 20.995-20.995 11.596 0 20.996 9.4 20.996 20.996v10.41"/></g><g><path fill="none" stroke="#e73629" stroke-linejoin="round" stroke-miterlimit="20" stroke-width="5.5" d="M20.89 38.799v0-8.215c0-5.37 4.354-9.724 9.724-9.724s9.724 4.354 9.724 9.724v8.214"/></g><g><path fill="none" stroke="#e73629" stroke-linejoin="round" stroke-miterlimit="20" stroke-width="5.5" d="M38.464 55.167a7.857 7.857 0 1 0-11.785 6.804v8.91h7.857v0-8.91a7.852 7.852 0 0 0 3.928-6.804z"/></g><g><path fill="none" stroke="#e73629" stroke-linejoin="round" stroke-miterlimit="20" stroke-width="5.5" d="M30.61 79.547v22.48h39.6v0h8.25v0V13.02v0"/></g><g><path fill="#e73629" d="M77.747.411L66.111 20.565a.823.823 0 0 0 .713 1.234h23.271a.823.823 0 0 0 .713-1.234L79.172.41a.823.823 0 0 0-1.425 0"/></g></g></g></svg>