<svg xmlns="http://www.w3.org/2000/svg" width="46" height="53" viewBox="0 0 46 53"><g><g clip-path="url(#clip-948E858E-920C-4DAB-9213-897DBC91444C)"><g><path fill="none" stroke="#e73629" stroke-linejoin="round" stroke-miterlimit="20" stroke-width="2.75" d="M2.06 39.746v0h27.5v0V20.52v0H2.06v0z"/></g><g><path fill="none" stroke="#e73629" stroke-linejoin="round" stroke-miterlimit="20" stroke-width="2.75" d="M5.31 19.723v0-5.205c0-5.798 4.7-10.498 10.498-10.498 5.798 0 10.497 4.7 10.497 10.498v5.205"/></g><g><path fill="none" stroke="#e73629" stroke-linejoin="round" stroke-miterlimit="20" stroke-width="2.75" d="M10.94 19.4v0-4.108a4.862 4.862 0 0 1 9.724 0v4.107"/></g><g><path fill="none" stroke="#e73629" stroke-linejoin="round" stroke-miterlimit="20" stroke-width="2.75" d="M19.737 27.589a3.928 3.928 0 1 0-5.893 3.401v4.456h3.929v0-4.456a3.926 3.926 0 0 0 1.964-3.401z"/></g><g><path fill="none" stroke="#e73629" stroke-linejoin="round" stroke-miterlimit="20" stroke-width="2.75" d="M15.8 39.774v11.24h19.8v0h4.125v0V6.51v0"/></g><g><path fill="#e73629" d="M39.373.206l-5.817 10.076a.411.411 0 0 0 .356.617h11.636a.411.411 0 0 0 .356-.617L40.086.206a.411.411 0 0 0-.713 0"/></g></g></g></svg>