<svg xmlns="http://www.w3.org/2000/svg" width="94" height="94" viewBox="0 0 94 94"><g><g><g><g><path fill="none" stroke="#e73629" stroke-linecap="round" stroke-linejoin="round" stroke-miterlimit="20" stroke-width="4.88" d="M3.1 47.002v0h34.146v0V3.1v0H3.1v0z"/></g><g><path fill="none" stroke="#e73629" stroke-linecap="round" stroke-linejoin="round" stroke-miterlimit="20" stroke-width="4.88" d="M56.76 90.902v0h34.146v0V47v0H56.76v0z"/></g></g><g><path fill="none" stroke="#e73629" stroke-linecap="round" stroke-linejoin="round" stroke-miterlimit="20" stroke-width="4.88" d="M37.24 12.85v0h39.024v19.512"/></g><g><path fill="none" stroke="#e73629" stroke-linecap="round" stroke-linejoin="round" stroke-miterlimit="20" stroke-width="4.88" d="M71.39 32.37v0h9.756v0l-4.878 4.878v0z"/></g><g><path fill="none" stroke="#e73629" stroke-linecap="round" stroke-linejoin="round" stroke-miterlimit="20" stroke-width="4.88" d="M56.754 81.142v0H17.73v0V61.63v0"/></g><g><path fill="none" stroke="#e73629" stroke-linecap="round" stroke-linejoin="round" stroke-miterlimit="20" stroke-width="4.88" d="M22.606 61.638v0H12.85v0l4.878-4.878v0z"/></g><g><path fill="none" stroke="#e73629" stroke-linecap="round" stroke-linejoin="round" stroke-miterlimit="20" stroke-width="4.88" d="M64.07 59.197h19.512"/></g><g><path fill="none" stroke="#e73629" stroke-linecap="round" stroke-linejoin="round" stroke-miterlimit="20" stroke-width="4.88" d="M64.07 68.948h19.512"/></g><g><path fill="none" stroke="#e73629" stroke-linecap="round" stroke-linejoin="round" stroke-miterlimit="20" stroke-width="4.88" d="M64.07 78.707h12.195"/></g><g><g><path fill="none" stroke="#e73629" stroke-linecap="round" stroke-linejoin="round" stroke-miterlimit="20" stroke-width="4.88" d="M10.41 15.297h19.512"/></g><g><path fill="none" stroke="#e73629" stroke-linecap="round" stroke-linejoin="round" stroke-miterlimit="20" stroke-width="4.88" d="M10.41 25.048h19.512"/></g><g><path fill="none" stroke="#e73629" stroke-linecap="round" stroke-linejoin="round" stroke-miterlimit="20" stroke-width="4.88" d="M10.41 34.807h12.195"/></g></g></g></g></svg>