<svg xmlns="http://www.w3.org/2000/svg" width="101" height="69" viewBox="0 0 101 69"><defs><clipPath id="57z0a"><path d="M0 68.837h100.922V0H0z"/></clipPath></defs><g><g><g><path fill="none" stroke="#e73629" stroke-linecap="round" stroke-linejoin="round" stroke-miterlimit="20" stroke-width="5.31" d="M7.98 53.01v0V5.58c0-1.612 1.343-2.92 2.999-2.92h78.97c1.656 0 2.998 1.308 2.998 2.92v47.43"/></g><g><path fill="none" stroke="#e73629" stroke-linecap="round" stroke-linejoin="round" stroke-miterlimit="20" stroke-width="5.31" d="M98.253 53.01v7.866s.618 5.31-5.31 5.31H63.735v0h-10.62v0h-2.643v0h-10.62v0H7.989c-5.928 0-5.31-5.31-5.31-5.31v0-7.866 0h31.858v0l5.31 5.31v0h10.621v0h10.62v0l5.311-5.31v0z"/></g><g><path fill="none" stroke="#e73629" stroke-linecap="round" stroke-linejoin="round" stroke-miterlimit="20" stroke-width="2.66" d="M18.47 13.96v31.17h37.098v0"/></g><g/><g clip-path="url(#57z0a)"><path fill="none" stroke="#e73629" stroke-linecap="round" stroke-linejoin="round" stroke-miterlimit="20" stroke-width="2.66" d="M23.78 40.273v0h8.861v0V25.38v0H23.78v0z"/></g><g clip-path="url(#57z0a)"><path fill="none" stroke="#e73629" stroke-linecap="round" stroke-linejoin="round" stroke-miterlimit="20" stroke-width="2.66" d="M41.5 40.278v0h8.861v0-7.988 0H41.5v0z"/></g><g clip-path="url(#57z0a)"><path fill="none" stroke="#e73629" stroke-linecap="round" stroke-linejoin="round" stroke-miterlimit="20" stroke-width="2.66" d="M32.64 40.278v0h8.861v0V16.22v0H32.64v0z"/></g><g clip-path="url(#57z0a)"><path fill="none" stroke="#e73629" stroke-linecap="round" stroke-linejoin="round" stroke-miterlimit="20" stroke-width="2.66" d="M61.08 15.827l23.897.038"/></g><g clip-path="url(#57z0a)"><path fill="none" stroke="#e73629" stroke-linecap="round" stroke-linejoin="round" stroke-miterlimit="20" stroke-width="2.66" d="M61.08 23.687l23.897.038"/></g><g clip-path="url(#57z0a)"><path fill="none" stroke="#e73629" stroke-linecap="round" stroke-linejoin="round" stroke-miterlimit="20" stroke-width="2.66" d="M61.08 31.748l23.897.037"/></g><g clip-path="url(#57z0a)"><path fill="none" stroke="#e73629" stroke-linecap="round" stroke-linejoin="round" stroke-miterlimit="20" stroke-width="2.66" d="M61.08 39.707l18.587.038"/></g></g></g></svg>