<?xml version="1.0" encoding="UTF-8" standalone="no"?>
<!DOCTYPE svg PUBLIC "-//W3C//DTD SVG 1.1//EN" "http://www.w3.org/Graphics/SVG/1.1/DTD/svg11.dtd">
<svg version="1.1" xmlns="http://www.w3.org/2000/svg" xmlns:xlink="http://www.w3.org/1999/xlink" preserveAspectRatio="xMidYMid meet" viewBox="0 0 970 250" width="970" height="250"><defs><path d="M880.41 -409.56C895.35 -443.45 883.93 -484.83 855.05 -501.53C843.01 -508.49 746.71 -564.14 734.67 -571.1C705.78 -587.79 646.29 -587.39 602.46 -570.19C584.2 -563.03 438.1 -505.72 419.84 -498.56C376.01 -481.37 327.93 -439.58 312.99 -405.69C306.77 -391.57 256.97 -278.61 250.74 -264.49C235.8 -230.6 247.21 -189.22 276.1 -172.52C288.14 -165.57 384.44 -109.91 396.48 -102.96C425.36 -86.26 484.86 -86.67 528.68 -103.86C546.94 -111.02 693.05 -168.33 711.31 -175.5C755.13 -192.69 803.21 -234.48 818.15 -268.36C830.6 -296.6 867.95 -381.32 880.41 -409.56Z" id="cUI1jZC9q"></path><path d="M889.22 -401.09C905.66 -435.83 895.5 -479.32 866.63 -497.75C854.61 -505.43 758.38 -566.87 746.35 -574.55C717.49 -592.97 656.81 -594.71 611.5 -578.41C592.62 -571.62 441.59 -517.27 422.71 -510.48C377.41 -494.17 326.89 -452.42 310.44 -417.69C303.59 -403.21 248.78 -287.43 241.93 -272.95C225.49 -238.22 235.65 -194.73 264.52 -176.3C276.55 -168.62 372.77 -107.18 384.8 -99.5C413.66 -81.07 474.35 -79.33 519.65 -95.63C538.53 -102.43 689.56 -156.78 708.44 -163.57C753.75 -179.87 804.27 -221.63 820.71 -256.36C834.41 -285.31 875.52 -372.15 889.22 -401.09Z" id="b3r1o0Dqw"></path><path d="M897.91 -391.96C915.91 -427.52 907.09 -473.16 878.31 -493.4C866.32 -501.83 770.38 -569.29 758.39 -577.72C729.61 -597.96 667.79 -601.97 621.01 -586.65C601.51 -580.26 445.55 -529.17 426.06 -522.79C379.27 -507.46 326.27 -465.83 308.27 -430.27C300.76 -415.45 240.74 -296.91 233.24 -282.09C215.24 -246.53 224.05 -200.88 252.83 -180.65C264.83 -172.22 360.77 -104.76 372.76 -96.33C401.54 -76.09 463.36 -72.08 510.14 -87.4C529.64 -93.79 685.6 -144.87 705.09 -151.26C751.87 -166.58 804.88 -208.22 822.88 -243.78C837.89 -273.41 882.9 -362.32 897.91 -391.96Z" id="hARAqgojz"></path><path d="M906.44 -382.12C926.07 -418.49 918.7 -466.33 890.07 -488.44C878.14 -497.66 782.71 -571.37 770.78 -580.58C742.15 -602.7 679.25 -609.12 630.99 -594.87C610.89 -588.93 450.02 -541.42 429.91 -535.48C381.66 -521.23 326.12 -479.81 306.5 -443.45C298.32 -428.3 232.89 -307.07 224.71 -291.91C205.09 -255.55 212.45 -207.7 241.08 -185.59C253.01 -176.38 348.45 -102.67 360.38 -93.45C389.01 -71.34 451.91 -64.91 500.16 -79.16C520.27 -85.1 681.13 -132.62 701.24 -138.56C749.49 -152.81 805.03 -194.22 824.66 -230.59C841.01 -260.9 890.09 -351.82 906.44 -382.12Z" id="a1hTdlyqPU"></path><path d="M914.79 -371.59C936.1 -408.73 930.3 -458.81 901.89 -482.87C890.05 -492.89 795.35 -573.1 783.52 -583.13C755.11 -607.19 691.19 -616.17 641.48 -603.08C620.76 -597.63 455.02 -554.01 434.3 -548.56C384.59 -535.48 326.48 -494.38 305.17 -457.24C296.29 -441.76 225.25 -317.94 216.37 -302.46C195.06 -265.32 200.86 -215.25 229.27 -191.19C241.11 -181.16 335.81 -100.95 347.64 -90.93C376.05 -66.87 439.97 -57.89 489.68 -70.97C510.4 -76.42 676.14 -120.04 696.86 -125.49C746.57 -138.57 804.68 -179.67 825.99 -216.81C843.75 -247.77 897.03 -340.63 914.79 -371.59Z" id="fVSD2qVyt"></path><path d="M922.93 -360.32C945.98 -398.21 941.85 -450.55 913.74 -476.63C902.02 -487.5 808.31 -574.44 796.59 -585.31C768.48 -611.39 703.62 -623.06 652.45 -611.25C631.13 -606.32 460.56 -566.94 439.24 -562.02C388.08 -550.21 327.35 -509.54 304.3 -471.65C294.69 -455.86 217.83 -329.53 208.22 -313.74C185.17 -275.85 189.31 -223.51 217.42 -197.43C229.13 -186.56 322.85 -99.62 334.56 -88.75C362.68 -62.67 427.54 -51 478.7 -62.81C500.03 -67.74 670.59 -107.12 691.92 -112.04C743.08 -123.85 803.81 -164.52 826.86 -202.41C846.07 -233.99 903.72 -328.74 922.93 -360.32Z" id="a5zkMCpD2w"></path><path d="M930.83 -348.28C955.69 -386.88 953.33 -441.52 925.59 -469.7C914.03 -481.44 821.56 -575.35 810 -587.09C782.26 -615.26 716.52 -629.77 663.93 -619.33C642.01 -614.98 466.66 -580.19 444.74 -575.84C392.14 -565.4 328.77 -525.27 303.91 -486.66C293.55 -470.57 210.68 -341.86 200.32 -325.77C175.46 -287.16 177.82 -232.52 205.56 -204.35C217.12 -192.61 309.59 -98.7 321.15 -86.96C348.89 -58.79 414.62 -44.28 467.22 -54.72C489.13 -59.07 664.48 -93.86 686.4 -98.21C739 -108.65 802.37 -148.78 827.23 -187.39C847.95 -219.57 910.11 -316.1 930.83 -348.28Z" id="f68bo8ShoZ"></path><path d="M938.46 -335.46C965.19 -374.75 964.73 -431.72 937.44 -462.06C926.07 -474.7 835.11 -575.83 823.74 -588.47C796.46 -618.8 729.94 -636.3 675.93 -627.34C653.42 -623.61 473.37 -593.76 450.86 -590.03C396.85 -581.08 330.79 -541.61 304.06 -502.32C292.92 -485.94 203.83 -354.96 192.69 -338.59C165.96 -299.3 166.42 -242.34 193.71 -212C205.08 -199.36 296.04 -98.23 307.41 -85.59C334.69 -55.25 401.21 -37.76 455.22 -46.71C477.73 -50.44 657.78 -80.29 680.29 -84.02C734.3 -92.98 800.36 -132.45 827.09 -171.74C849.36 -204.48 916.18 -302.72 938.46 -335.46Z" id="c3X2JRIdD"></path><path d="M945.78 -321.84C974.44 -361.77 976 -421.09 949.25 -453.66C938.11 -467.24 848.95 -575.82 837.81 -589.39C811.06 -621.97 743.85 -642.6 688.45 -635.24C665.37 -632.17 480.69 -607.64 457.6 -604.58C402.2 -597.22 333.43 -558.53 304.78 -518.6C292.84 -501.96 197.31 -368.85 185.37 -352.21C156.72 -312.27 155.16 -252.95 181.9 -220.38C193.05 -206.81 282.21 -98.22 293.35 -84.65C320.09 -52.08 387.3 -31.45 442.7 -38.81C465.79 -41.87 650.47 -66.4 673.55 -69.47C728.95 -76.82 797.72 -115.51 826.38 -155.45C850.26 -188.72 921.9 -288.56 945.78 -321.84Z" id="bxrWSTkDo"></path><path d="M952.77 -307.4C983.41 -347.93 987.11 -409.62 961 -444.5C950.12 -459.04 863.06 -575.32 852.18 -589.86C826.07 -624.74 758.26 -648.66 701.51 -643.01C677.86 -640.66 488.65 -621.84 465 -619.48C408.24 -613.84 336.73 -576.06 306.09 -535.53C293.32 -518.64 191.17 -383.54 178.4 -366.65C147.75 -326.12 144.05 -264.43 170.16 -229.55C181.04 -215.01 268.1 -98.73 278.98 -84.2C305.09 -49.32 372.9 -25.4 429.65 -31.04C453.3 -33.39 642.51 -52.22 666.16 -54.57C722.92 -60.21 794.43 -97.99 825.07 -138.52C850.61 -172.3 927.23 -273.62 952.77 -307.4Z" id="a3ZFrg6q7y"></path><path d="M959.37 -292.11C992.06 -333.18 998.04 -397.28 972.65 -434.54C962.07 -450.07 877.43 -574.28 866.85 -589.81C841.47 -627.07 773.17 -654.44 715.09 -650.62C690.89 -649.03 497.26 -636.32 473.06 -634.73C414.98 -630.91 340.71 -594.19 308.02 -553.11C294.39 -535.99 185.41 -399.06 171.79 -381.94C139.09 -340.87 133.12 -276.77 158.51 -239.51C169.09 -223.98 253.72 -99.77 264.3 -84.24C289.69 -46.98 357.98 -19.61 416.07 -23.43C440.27 -25.02 633.89 -37.73 658.09 -39.32C716.17 -43.13 790.45 -79.86 823.14 -120.94C850.38 -155.17 932.12 -257.87 959.37 -292.11Z" id="c1Ni6daii"></path><path d="M965.56 -275.95C1000.36 -317.52 1008.74 -384.03 984.18 -423.74C973.94 -440.29 892.05 -572.68 881.82 -589.23C857.25 -628.94 788.58 -659.91 729.22 -658.06C704.48 -657.28 506.57 -651.09 481.83 -650.31C422.47 -648.45 345.42 -612.91 310.62 -571.34C296.11 -554.02 180.09 -415.43 165.59 -398.1C130.79 -356.53 122.41 -290.02 146.98 -250.31C157.21 -233.76 239.1 -101.37 249.34 -84.82C273.9 -45.11 342.57 -14.13 401.94 -15.99C426.67 -16.77 624.58 -22.96 649.32 -23.74C708.68 -25.6 785.73 -61.13 820.54 -102.71C849.54 -137.35 936.56 -241.3 965.56 -275.95Z" id="f4FiUQDm4c"></path><path d="M971.3 -258.9C1008.27 -300.91 1019.18 -369.84 995.55 -412.08C985.7 -429.68 906.9 -570.48 897.05 -588.08C873.42 -630.32 804.49 -665.06 743.89 -665.28C718.63 -665.37 516.58 -666.11 491.33 -666.21C430.72 -666.43 350.89 -632.24 313.91 -590.22C298.51 -572.72 175.26 -432.65 159.85 -415.15C122.88 -373.13 111.97 -304.2 135.6 -261.97C145.45 -244.37 224.24 -103.56 234.09 -85.96C257.73 -43.73 326.65 -8.99 387.26 -8.77C412.52 -8.67 614.56 -7.93 639.82 -7.84C700.43 -7.61 780.26 -41.81 817.23 -83.82C848.05 -118.84 940.48 -223.88 971.3 -258.9Z" id="a1aSn2ZqVe"></path><path d="M976.54 -240.94C1015.74 -283.33 1029.32 -354.7 1006.72 -399.53C997.31 -418.21 921.97 -567.65 912.55 -586.33C889.95 -631.16 820.9 -669.83 759.1 -672.26C733.35 -673.28 527.34 -681.4 501.58 -682.41C439.78 -684.85 357.15 -652.15 317.95 -609.76C301.62 -592.09 170.94 -450.77 154.6 -433.1C115.4 -390.71 101.82 -319.35 124.42 -274.52C133.84 -255.84 209.18 -106.4 218.6 -87.72C241.2 -42.89 310.25 -4.22 372.04 -1.79C397.8 -0.77 603.81 7.35 629.56 8.36C691.36 10.8 774 -21.89 813.2 -64.29C845.87 -99.62 943.87 -205.61 976.54 -240.94Z" id="co3GLNHVd"></path><path d="M981.26 -222.06C1022.75 -264.77 1039.14 -338.56 1017.69 -386.06C1008.75 -405.85 937.24 -564.16 928.31 -583.95C906.86 -631.44 837.81 -674.2 774.88 -678.99C748.66 -680.98 538.85 -696.92 512.63 -698.91C449.69 -703.69 364.26 -672.66 322.78 -629.96C305.49 -612.16 167.2 -469.78 149.91 -451.99C108.43 -409.28 92.03 -335.48 113.48 -287.99C122.42 -268.2 193.93 -109.89 202.86 -90.1C224.31 -42.61 293.36 0.16 356.29 4.94C382.51 6.93 592.31 22.87 618.54 24.86C681.48 29.64 766.91 -1.38 808.39 -44.09C842.97 -79.69 946.69 -186.47 981.26 -222.06Z" id="i9RBJ8CNf"></path><path d="M985.39 -202.23C1029.22 -245.18 1048.56 -321.41 1028.38 -371.63C1019.97 -392.56 952.68 -559.97 944.27 -580.9C924.09 -631.11 855.2 -678.14 791.2 -685.41C764.52 -688.44 551.14 -712.66 524.46 -715.69C460.46 -722.95 372.23 -693.76 328.4 -650.8C310.14 -632.91 164.03 -489.72 145.77 -471.82C101.94 -428.86 82.6 -352.64 102.78 -302.42C111.19 -281.49 178.47 -114.08 186.88 -93.15C207.07 -42.94 275.95 4.1 339.96 11.36C366.63 14.39 580.02 38.61 606.69 41.64C670.7 48.9 758.93 19.71 802.76 -23.25C839.28 -59.04 948.86 -166.44 985.39 -202.23Z" id="b1A5MEwRV"></path><path d="M988.9 -181.45C1035.12 -224.57 1057.56 -303.22 1038.77 -356.23C1030.94 -378.32 968.28 -555.05 960.45 -577.14C941.66 -630.15 873.09 -681.62 808.07 -691.51C780.98 -695.63 564.23 -728.6 537.14 -732.73C472.12 -742.62 381.1 -715.43 334.88 -672.31C315.62 -654.34 161.53 -510.58 142.27 -492.61C96.05 -449.49 73.61 -370.84 92.4 -317.83C100.23 -295.74 162.88 -119.01 170.71 -96.92C189.51 -43.91 258.08 7.56 323.1 17.45C350.19 21.57 566.94 54.54 594.03 58.67C659.05 68.56 750.06 41.37 796.28 -1.75C834.8 -37.69 950.37 -145.51 988.9 -181.45Z" id="aWQxRhBjy"></path><path d="M991.73 -159.66C1040.4 -202.87 1066.09 -283.94 1048.81 -339.81C1041.61 -363.09 984.01 -549.35 976.81 -572.63C959.53 -628.5 891.44 -684.57 825.49 -697.23C798 -702.51 578.15 -744.71 550.66 -749.99C484.71 -762.65 390.93 -737.65 342.25 -694.44C321.97 -676.44 159.71 -532.39 139.43 -514.38C90.75 -471.17 65.07 -390.11 82.35 -334.23C89.55 -310.95 147.15 -124.7 154.35 -101.41C171.63 -45.54 239.72 10.53 305.67 23.19C333.15 28.46 553.01 70.67 580.49 75.94C646.45 88.6 740.23 63.61 788.9 20.4C829.47 -15.61 951.17 -123.65 991.73 -159.66Z" id="a1C6KfmzVH"></path><path d="M993.85 -136.9C1045.02 -180.11 1074.1 -263.57 1058.47 -322.37C1051.96 -346.86 999.86 -542.86 993.34 -567.35C977.71 -626.15 910.27 -686.99 843.46 -702.57C815.62 -709.06 592.91 -760.99 565.07 -767.48C498.27 -783.06 401.74 -760.45 350.57 -717.23C329.24 -699.23 158.64 -555.16 137.31 -537.15C86.14 -493.94 57.06 -410.48 72.69 -351.69C79.2 -327.19 131.31 -131.2 137.82 -106.7C153.45 -47.91 220.89 12.93 287.7 28.51C315.54 35.01 538.25 86.93 566.09 93.43C632.89 109 729.42 86.39 780.59 43.18C823.25 7.16 951.2 -100.89 993.85 -136.9Z" id="a1RbJ5nvkJ"></path><path d="M995.19 -113.12C1048.92 -156.25 1081.55 -242.07 1067.7 -303.84C1061.93 -329.59 1015.77 -535.51 1010 -561.25C996.16 -623.02 929.54 -688.82 861.97 -707.46C833.81 -715.23 608.55 -777.39 580.39 -785.16C512.82 -803.8 413.57 -783.78 359.85 -740.65C337.46 -722.68 158.35 -578.91 135.96 -560.94C82.23 -517.81 49.61 -431.98 63.45 -370.21C69.22 -344.47 115.38 -138.55 121.15 -112.8C134.99 -51.03 201.61 14.76 269.18 33.41C297.34 41.18 522.6 103.33 550.76 111.1C618.33 129.75 717.58 109.72 771.31 66.59C816.08 30.65 950.41 -77.18 995.19 -113.12Z" id="bsFbQYxz1"></path><path d="M995.73 -88.31C1052.05 -131.25 1088.38 -219.41 1076.46 -284.22C1071.49 -311.23 1031.76 -527.28 1026.79 -554.29C1014.87 -619.1 949.28 -690.02 881.03 -711.88C852.59 -720.99 625.09 -793.89 596.65 -803C528.41 -824.87 426.48 -807.63 370.16 -764.68C346.69 -746.79 158.91 -603.63 135.44 -585.74C79.12 -542.79 42.78 -454.63 54.7 -389.83C59.67 -362.82 99.41 -146.76 104.38 -119.76C116.3 -54.95 181.89 15.97 250.13 37.83C278.57 46.95 506.08 119.84 534.52 128.95C602.76 150.82 704.69 133.58 761.01 90.63C807.95 54.85 948.78 -52.52 995.73 -88.31Z" id="a2ncuTikY8"></path><path d="M995.38 -62.47C1054.34 -105.13 1094.54 -195.59 1084.69 -263.49C1080.58 -291.78 1047.75 -518.15 1043.65 -546.44C1033.8 -614.35 969.44 -690.56 900.62 -715.8C871.95 -726.32 642.53 -810.48 613.86 -821C545.04 -846.24 440.49 -832 381.52 -789.34C356.94 -771.56 160.36 -629.36 135.79 -611.58C76.82 -568.93 36.63 -478.47 46.48 -410.57C50.58 -382.27 83.41 -155.91 87.51 -127.61C97.36 -59.71 161.72 16.5 230.54 41.74C259.21 52.26 488.63 136.42 517.31 146.94C586.12 172.18 690.67 157.94 749.65 115.28C798.79 79.73 946.23 -26.92 995.38 -62.47Z" id="c1VRuAeiMU"></path><path d="M994.1 -35.58C1055.75 -77.84 1099.96 -170.55 1092.33 -241.6C1089.15 -271.2 1063.74 -508.05 1060.56 -537.65C1052.94 -608.7 990.01 -690.38 920.74 -719.16C891.87 -731.15 660.91 -827.11 632.04 -839.1C562.76 -867.88 455.63 -856.85 393.97 -814.59C368.28 -796.98 162.74 -656.08 137.05 -638.47C75.4 -596.2 31.19 -503.5 38.82 -432.45C41.99 -402.85 67.41 -166 70.59 -136.4C78.21 -65.35 141.14 16.33 210.41 45.11C239.28 57.11 470.24 153.06 499.11 165.05C568.39 193.84 675.52 182.8 737.17 140.54C788.56 105.32 942.71 -0.35 994.1 -35.58Z" id="d4w9Vm8FIt"></path><path d="M991.85 -7.63C1056.23 -49.38 1104.61 -144.29 1099.36 -218.53C1097.18 -249.46 1079.69 -496.95 1077.5 -527.89C1072.26 -602.13 1011 -689.44 941.38 -721.92C912.36 -735.46 680.25 -843.74 651.24 -857.28C581.62 -889.76 471.97 -882.17 407.6 -840.42C380.77 -823.02 166.14 -683.82 139.32 -666.42C74.94 -624.66 26.55 -529.76 31.8 -455.52C33.99 -424.58 51.47 -177.09 53.66 -146.16C58.9 -71.92 120.16 15.4 189.79 47.88C218.8 61.42 450.91 169.7 479.92 183.24C549.55 215.72 659.19 208.13 723.57 166.37C777.22 131.57 938.19 27.17 991.85 -7.63Z" id="c1Wu53xs7"></path><path d="M988.55 21.38C1055.69 -19.74 1108.41 -116.79 1105.7 -194.26C1104.57 -226.54 1095.55 -484.82 1094.43 -517.11C1091.72 -594.58 1032.36 -687.71 962.51 -724.06C933.41 -739.2 700.56 -860.37 671.46 -875.51C601.61 -911.86 489.53 -907.94 422.39 -866.82C394.41 -849.68 170.58 -712.57 142.61 -695.43C75.47 -654.3 22.75 -557.26 25.45 -479.78C26.58 -447.5 35.6 -189.22 36.73 -156.94C39.43 -79.46 98.79 13.66 168.64 50.01C197.74 65.16 430.59 186.32 459.69 201.47C529.54 237.81 641.62 233.9 708.76 192.77C764.72 158.49 932.59 55.66 988.55 21.38Z" id="apGWjhTeN"></path><path d="M984.15 51.46C1054.09 11.09 1111.31 -88.02 1111.31 -168.77C1111.31 -202.42 1111.31 -471.63 1111.31 -505.28C1111.31 -586.03 1054.09 -685.14 984.15 -725.52C955.01 -742.34 721.88 -876.94 692.73 -893.77C622.8 -934.14 508.36 -934.14 438.43 -893.77C409.29 -876.94 176.15 -742.34 147.01 -725.51C77.07 -685.14 19.85 -586.03 19.85 -505.28C19.85 -471.63 19.85 -202.42 19.85 -168.77C19.85 -88.02 77.07 11.09 147 51.47C176.14 68.29 409.28 202.89 438.43 219.72C508.36 260.09 622.8 260.09 692.73 219.72C751.01 186.07 925.87 85.11 984.15 51.46Z" id="d8EwjmQTbo"></path></defs><g><g><g><use xlink:href="#cUI1jZC9q" opacity="1" fill="#f5f1eb" fill-opacity="0"></use><g><use xlink:href="#cUI1jZC9q" opacity="1" fill-opacity="0" stroke="#f5f1eb" stroke-width="1" stroke-opacity="1"></use></g></g><g><use xlink:href="#b3r1o0Dqw" opacity="1" fill="#f5f1eb" fill-opacity="0"></use><g><use xlink:href="#b3r1o0Dqw" opacity="1" fill-opacity="0" stroke="#f5f1eb" stroke-width="1" stroke-opacity="1"></use></g></g><g><use xlink:href="#hARAqgojz" opacity="1" fill="#f5f1eb" fill-opacity="0"></use><g><use xlink:href="#hARAqgojz" opacity="1" fill-opacity="0" stroke="#f5f1eb" stroke-width="1" stroke-opacity="1"></use></g></g><g><use xlink:href="#a1hTdlyqPU" opacity="1" fill="#f5f1eb" fill-opacity="0"></use><g><use xlink:href="#a1hTdlyqPU" opacity="1" fill-opacity="0" stroke="#f5f1eb" stroke-width="1" stroke-opacity="1"></use></g></g><g><use xlink:href="#fVSD2qVyt" opacity="1" fill="#f5f1eb" fill-opacity="0"></use><g><use xlink:href="#fVSD2qVyt" opacity="1" fill-opacity="0" stroke="#f5f1eb" stroke-width="1" stroke-opacity="1"></use></g></g><g><use xlink:href="#a5zkMCpD2w" opacity="1" fill="#f5f1eb" fill-opacity="0"></use><g><use xlink:href="#a5zkMCpD2w" opacity="1" fill-opacity="0" stroke="#f5f1eb" stroke-width="1" stroke-opacity="1"></use></g></g><g><use xlink:href="#f68bo8ShoZ" opacity="1" fill="#f5f1eb" fill-opacity="0"></use><g><use xlink:href="#f68bo8ShoZ" opacity="1" fill-opacity="0" stroke="#f5f1eb" stroke-width="1" stroke-opacity="1"></use></g></g><g><use xlink:href="#c3X2JRIdD" opacity="1" fill="#f5f1eb" fill-opacity="0"></use><g><use xlink:href="#c3X2JRIdD" opacity="1" fill-opacity="0" stroke="#f5f1eb" stroke-width="1" stroke-opacity="1"></use></g></g><g><use xlink:href="#bxrWSTkDo" opacity="1" fill="#f5f1eb" fill-opacity="0"></use><g><use xlink:href="#bxrWSTkDo" opacity="1" fill-opacity="0" stroke="#f5f1eb" stroke-width="1.01" stroke-opacity="1"></use></g></g><g><use xlink:href="#a3ZFrg6q7y" opacity="1" fill="#f5f1eb" fill-opacity="0"></use><g><use xlink:href="#a3ZFrg6q7y" opacity="1" fill-opacity="0" stroke="#f5f1eb" stroke-width="1.04" stroke-opacity="1"></use></g></g><g><use xlink:href="#c1Ni6daii" opacity="1" fill="#f5f1eb" fill-opacity="0"></use><g><use xlink:href="#c1Ni6daii" opacity="1" fill-opacity="0" stroke="#f5f1eb" stroke-width="1.08" stroke-opacity="1"></use></g></g><g><use xlink:href="#f4FiUQDm4c" opacity="1" fill="#f5f1eb" fill-opacity="0"></use><g><use xlink:href="#f4FiUQDm4c" opacity="1" fill-opacity="0" stroke="#f5f1eb" stroke-width="1.11" stroke-opacity="1"></use></g></g><g><use xlink:href="#a1aSn2ZqVe" opacity="1" fill="#f5f1eb" fill-opacity="0"></use><g><use xlink:href="#a1aSn2ZqVe" opacity="1" fill-opacity="0" stroke="#f5f1eb" stroke-width="1.14" stroke-opacity="1"></use></g></g><g><use xlink:href="#co3GLNHVd" opacity="1" fill="#f5f1eb" fill-opacity="0"></use><g><use xlink:href="#co3GLNHVd" opacity="1" fill-opacity="0" stroke="#f5f1eb" stroke-width="1.18" stroke-opacity="1"></use></g></g><g><use xlink:href="#i9RBJ8CNf" opacity="1" fill="#f5f1eb" fill-opacity="0"></use><g><use xlink:href="#i9RBJ8CNf" opacity="1" fill-opacity="0" stroke="#f5f1eb" stroke-width="1.22" stroke-opacity="1"></use></g></g><g><use xlink:href="#b1A5MEwRV" opacity="1" fill="#f5f1eb" fill-opacity="0"></use><g><use xlink:href="#b1A5MEwRV" opacity="1" fill-opacity="0" stroke="#f5f1eb" stroke-width="1.25" stroke-opacity="1"></use></g></g><g><use xlink:href="#aWQxRhBjy" opacity="1" fill="#f5f1eb" fill-opacity="0"></use><g><use xlink:href="#aWQxRhBjy" opacity="1" fill-opacity="0" stroke="#f5f1eb" stroke-width="1.29" stroke-opacity="1"></use></g></g><g><use xlink:href="#a1C6KfmzVH" opacity="1" fill="#f5f1eb" fill-opacity="0"></use><g><use xlink:href="#a1C6KfmzVH" opacity="1" fill-opacity="0" stroke="#f5f1eb" stroke-width="1.33" stroke-opacity="1"></use></g></g><g><use xlink:href="#a1RbJ5nvkJ" opacity="1" fill="#f5f1eb" fill-opacity="0"></use><g><use xlink:href="#a1RbJ5nvkJ" opacity="1" fill-opacity="0" stroke="#f5f1eb" stroke-width="1.37" stroke-opacity="1"></use></g></g><g><use xlink:href="#bsFbQYxz1" opacity="1" fill="#f5f1eb" fill-opacity="0"></use><g><use xlink:href="#bsFbQYxz1" opacity="1" fill-opacity="0" stroke="#f5f1eb" stroke-width="1.42" stroke-opacity="1"></use></g></g><g><use xlink:href="#a2ncuTikY8" opacity="1" fill="#f5f1eb" fill-opacity="0"></use><g><use xlink:href="#a2ncuTikY8" opacity="1" fill-opacity="0" stroke="#f5f1eb" stroke-width="1.46" stroke-opacity="1"></use></g></g><g><use xlink:href="#c1VRuAeiMU" opacity="1" fill="#f5f1eb" fill-opacity="0"></use><g><use xlink:href="#c1VRuAeiMU" opacity="1" fill-opacity="0" stroke="#f5f1eb" stroke-width="1.5" stroke-opacity="1"></use></g></g><g><use xlink:href="#d4w9Vm8FIt" opacity="1" fill="#f5f1eb" fill-opacity="0"></use><g><use xlink:href="#d4w9Vm8FIt" opacity="1" fill-opacity="0" stroke="#f5f1eb" stroke-width="1.55" stroke-opacity="1"></use></g></g><g><use xlink:href="#c1Wu53xs7" opacity="1" fill="#f5f1eb" fill-opacity="0"></use><g><use xlink:href="#c1Wu53xs7" opacity="1" fill-opacity="0" stroke="#f5f1eb" stroke-width="1.6" stroke-opacity="1"></use></g></g><g><use xlink:href="#apGWjhTeN" opacity="1" fill="#f5f1eb" fill-opacity="0"></use><g><use xlink:href="#apGWjhTeN" opacity="1" fill-opacity="0" stroke="#f5f1eb" stroke-width="1.65" stroke-opacity="1"></use></g></g><g><use xlink:href="#d8EwjmQTbo" opacity="1" fill="#f5f1eb" fill-opacity="0"></use><g><use xlink:href="#d8EwjmQTbo" opacity="1" fill-opacity="0" stroke="#f5f1eb" stroke-width="1.7" stroke-opacity="1"></use></g></g></g></g></svg>