<svg xmlns="http://www.w3.org/2000/svg" width="1095" height="1176" viewBox="0 0 1095 1176"><g><g><g><path fill="none" stroke="#f5f1eb" stroke-miterlimit="20" d="M862.405 515.333c14.94-33.884 3.528-75.268-25.36-91.964L716.669 353.8c-28.888-16.696-88.38-16.288-132.204.904L401.837 426.34c-43.824 17.192-91.908 58.98-106.844 92.864L232.74 660.409c-14.94 33.884-3.528 75.268 25.36 91.964l120.376 69.568c28.888 16.696 88.38 16.288 132.204-.904L693.309 749.4c43.824-17.192 91.904-58.98 106.844-92.864z"/></g><g><path fill="none" stroke="#f5f1eb" stroke-miterlimit="20" d="M871.222 523.804c16.44-34.732 6.276-78.228-22.588-96.656l-120.28-76.796c-28.864-18.428-89.548-20.168-134.852-3.868L404.71 414.42c-45.304 16.304-95.824 58.06-112.268 92.792L223.93 651.944c-16.44 34.732-6.276 78.228 22.588 96.656l120.28 76.796c28.864 18.428 89.548 20.168 134.852 3.868l188.792-67.936c45.304-16.304 95.824-58.06 112.268-92.792z"/></g><g><path fill="none" stroke="#f5f1eb" stroke-miterlimit="20" d="M879.906 532.942c18.004-35.56 9.188-81.208-19.592-101.444l-119.924-84.32c-28.78-20.236-90.6-24.252-137.384-8.928l-194.948 63.86c-46.784 15.324-99.788 56.956-117.792 92.516l-75.024 148.18c-18.004 35.56-9.188 81.212 19.592 101.444l119.924 84.32c28.78 20.236 90.6 24.252 137.384 8.928l194.948-63.86c46.784-15.324 99.788-56.956 117.792-92.516z"/></g><g><path fill="none" stroke="#f5f1eb" stroke-miterlimit="20" d="M888.442 542.773c19.628-36.364 12.26-84.208-16.368-106.32l-119.296-92.14c-28.628-22.112-91.532-28.54-139.784-14.288l-201.08 59.392c-48.252 14.252-103.792 55.668-123.416 92.032l-81.784 151.536c-19.624 36.364-12.26 84.208 16.368 106.32l119.296 92.14c28.628 22.112 91.532 28.54 139.784 14.288l201.08-59.392c48.252-14.252 103.792-55.668 123.416-92.032z"/></g><g><path fill="none" stroke="#f5f1eb" stroke-miterlimit="20" d="M896.792 553.307c21.308-37.144 15.504-87.216-12.904-111.276l-118.372-100.26c-28.408-24.06-92.324-33.04-142.04-19.956l-207.172 54.52c-49.716 13.084-107.828 54.18-129.136 91.32l-88.8 154.78c-21.308 37.144-15.504 87.216 12.904 111.276l118.372 100.26c28.408 24.06 92.324 33.04 142.04 19.956l207.172-54.52c49.716-13.084 107.828-54.18 129.136-91.32z"/></g><g><path fill="none" stroke="#f5f1eb" stroke-miterlimit="20" d="M904.931 564.58c23.052-37.892 18.916-90.232-9.196-116.312L778.591 339.592c-28.112-26.08-92.976-37.752-144.14-25.94L421.24 362.88c-51.164 11.812-111.892 52.48-134.944 90.372l-96.072 157.904c-23.052 37.892-18.916 90.232 9.196 116.312l117.144 108.676c28.112 26.08 92.976 37.752 144.14 25.94l213.212-49.228c51.164-11.812 111.892-52.48 134.944-90.372z"/></g><g><path fill="none" stroke="#f5f1eb" stroke-miterlimit="20" d="M912.828 576.622c24.86-38.608 22.504-93.248-5.236-121.42L791.996 337.81c-27.74-28.172-93.472-42.68-146.068-32.244l-219.184 43.496c-52.6 10.436-115.972 50.568-140.832 89.176L182.32 599.126c-24.86 38.608-22.504 93.248 5.236 121.42l115.592 117.392c27.74 28.172 93.472 42.68 146.068 32.244L668.4 826.686c52.6-10.436 115.972-50.568 140.832-89.176z"/></g><g><path fill="none" stroke="#f5f1eb" stroke-miterlimit="20" d="M920.458 589.434c26.728-39.288 26.268-96.256-1.016-126.592l-113.7-126.412c-27.284-30.336-93.8-47.828-147.812-38.876l-225.072 37.312c-54.012 8.952-120.068 48.424-146.796 87.716L174.69 586.306c-26.728 39.288-26.268 96.256 1.016 126.592l113.7 126.412c27.284 30.336 93.8 47.828 147.812 38.876l225.072-37.312c54.012-8.952 120.068-48.424 146.796-87.716z"/></g><g><path fill="none" stroke="#f5f1eb" stroke-miterlimit="20" stroke-width="1.01" d="M927.782 603.06c28.656-39.932 30.216-99.252 3.472-131.824L819.806 335.504c-26.744-32.572-93.952-53.204-149.352-45.844l-230.852 30.66c-55.4 7.356-124.168 46.048-152.824 85.98L167.374 572.692c-28.656 39.932-30.216 99.252-3.472 131.824L275.35 840.248c26.744 32.572 93.952 53.204 149.352 45.844l230.852-30.66c55.4-7.356 124.168-46.048 152.824-85.98z"/></g><g><path fill="none" stroke="#f5f1eb" stroke-miterlimit="20" stroke-width="1.04" d="M934.765 617.497c30.644-40.528 34.348-102.224 8.236-137.104L834.18 335.041c-26.112-34.88-93.916-58.8-150.672-53.156l-236.512 23.528c-56.756 5.644-128.264 43.424-158.908 83.952l-127.692 168.88c-30.644 40.528-34.348 102.224-8.236 137.104l108.82 145.352c26.112 34.88 93.916 58.8 150.672 53.156l236.512-23.528c56.756-5.644 128.264-43.424 158.908-83.952z"/></g><g><path fill="none" stroke="#f5f1eb" stroke-miterlimit="20" stroke-width="1.08" d="M941.37 632.791c32.692-41.076 38.668-105.172 13.28-142.432L848.854 335.087c-25.388-37.26-93.68-64.628-151.764-60.812l-242.028 15.892c-58.08 3.816-132.352 40.544-165.044 81.62L153.786 542.955c-32.692 41.076-38.668 105.172-13.28 142.432L246.302 840.66c25.388 37.26 93.68 64.628 151.764 60.812l242.028-15.892c58.08-3.816 132.352-40.544 165.044-81.62z"/></g><g><path fill="none" stroke="#f5f1eb" stroke-miterlimit="20" stroke-width="1.11" d="M947.56 648.951c34.804-41.572 43.18-108.08 18.616-147.792l-102.36-165.492c-24.564-39.712-93.232-70.684-152.6-68.828l-247.384 7.748c-59.364 1.86-136.412 37.396-171.216 78.968l-145.024 173.24c-34.804 41.572-43.18 108.08-18.616 147.792l102.36 165.492c24.564 39.712 93.232 70.684 152.6 68.828l247.384-7.748c59.364-1.86 136.412-37.396 171.216-78.968z"/></g><g><path fill="none" stroke="#f5f1eb" stroke-miterlimit="20" stroke-width="1.14" d="M953.297 666c36.972-42.013 47.884-110.945 24.248-153.18l-98.492-176.005c-23.636-42.236-92.56-76.976-153.168-77.196l-252.556-.928c-60.608-.224-140.444 33.968-177.416 75.984L141.85 509.751c-36.972 42.012-47.884 110.944-24.248 153.18l98.492 176.004c23.636 42.236 92.56 76.976 153.168 77.196l252.556.928c60.608.224 140.444-33.968 177.416-75.984z"/></g><g><path fill="none" stroke="#f5f1eb" stroke-miterlimit="20" stroke-width="1.18" d="M958.544 683.956c39.2-42.392 52.78-113.756 30.18-158.584l-94.172-186.804c-22.6-44.828-91.652-83.5-153.448-85.932l-257.52-10.148c-61.8-2.436-144.432 30.256-183.632 72.652L136.604 491.796c-39.2 42.392-52.78 113.756-30.18 158.584l94.172 186.8c22.6 44.828 91.652 83.5 153.448 85.932l257.52 10.148c61.796 2.436 144.432-30.256 183.632-72.652z"/></g><g><path fill="none" stroke="#f5f1eb" stroke-miterlimit="20" stroke-width="1.22" d="M963.26 702.838c41.485-42.708 57.877-116.504 36.429-163.996L910.305 340.95c-21.448-47.488-90.492-90.256-153.424-95.04l-262.252-19.924c-62.936-4.78-148.368 26.248-189.852 68.956L131.909 472.91C90.425 515.618 74.033 589.414 95.48 636.906l89.384 197.892c21.448 47.488 90.492 90.256 153.424 95.04l262.252 19.924c62.936 4.78 148.368-26.248 189.852-68.956z"/></g><g><path fill="none" stroke="#f5f1eb" stroke-miterlimit="20" stroke-width="1.25" d="M967.388 722.665c43.828-42.952 63.172-119.18 42.988-169.4l-84.104-209.264c-20.184-50.216-89.068-97.248-153.076-104.516l-266.732-30.276c-64.008-7.264-152.236 21.932-196.064 64.884L127.768 453.081c-43.828 42.952-63.172 119.18-42.988 169.4l84.104 209.264c20.184 50.216 89.068 97.248 153.076 104.516l266.732 30.276c64.008 7.264 152.236-21.932 196.064-64.884z"/></g><g><path fill="none" stroke="#f5f1eb" stroke-miterlimit="20" stroke-width="1.29" d="M970.897 743.452c46.224-43.12 68.664-121.776 49.872-174.788l-78.316-220.908c-18.796-53.012-87.368-104.476-152.384-114.368l-270.932-41.216c-65.016-9.892-156.032 17.296-202.252 60.42L124.269 432.284c-46.224 43.12-68.664 121.776-49.872 174.788l78.316 220.908c18.796 53.012 87.368 104.476 152.384 114.368l270.932 41.216c65.016 9.892 156.032-17.296 202.252-60.42z"/></g><g><path fill="none" stroke="#f5f1eb" stroke-miterlimit="20" stroke-width="1.33" d="M973.731 765.235c48.672-43.212 74.36-124.276 57.08-180.148l-72-232.82c-17.28-55.872-85.376-111.94-151.324-124.6l-274.824-52.756c-65.952-12.66-159.736 12.336-208.408 55.544l-202.828 180.06c-48.672 43.212-74.36 124.276-57.08 180.148l72 232.82c17.28 55.872 85.376 111.94 151.324 124.6l274.824 52.756c65.952 12.66 159.736-12.336 208.408-55.544z"/></g><g><path fill="none" stroke="#f5f1eb" stroke-miterlimit="20" stroke-width="1.37" d="M975.847 787.996c51.176-43.212 80.256-126.672 64.628-185.464l-65.132-244.988c-15.632-58.792-83.076-119.636-149.884-135.216l-278.384-64.912c-66.804-15.576-163.336 7.036-214.508 50.248l-213.252 180.08c-51.176 43.212-80.256 126.672-64.628 185.464l65.132 244.988c15.632 58.792 83.076 119.636 149.884 135.216l278.384 64.912c66.804 15.576 163.336-7.036 214.508-50.248z"/></g><g><path fill="none" stroke="#f5f1eb" stroke-miterlimit="20" stroke-width="1.42" d="M977.19 811.777c53.728-43.128 86.356-128.952 72.508-190.724l-57.696-257.408c-13.844-61.772-80.46-127.568-148.032-146.212l-281.58-77.696c-67.572-18.644-166.816 1.384-220.544 44.512L117.962 363.961c-53.728 43.128-86.356 128.952-72.508 190.724l57.696 257.408c13.844 61.772 80.46 127.568 148.032 146.212l281.58 77.696c67.572 18.644 166.816-1.384 220.544-44.512z"/></g><g><path fill="none" stroke="#f5f1eb" stroke-miterlimit="20" stroke-width="1.46" d="M977.725 836.588c56.324-42.944 92.656-131.104 80.736-195.912l-49.672-270.068C996.869 305.8 931.28 234.88 863.033 213.016l-284.384-91.12c-68.244-21.868-170.168-4.624-226.492 38.32L117.44 339.16c-56.324 42.944-92.656 131.104-80.736 195.912L86.377 805.14c11.92 64.808 77.508 135.728 145.756 157.592l284.384 91.12c68.244 21.868 170.168 4.624 226.492-38.32z"/></g><g><path fill="none" stroke="#f5f1eb" stroke-miterlimit="20" stroke-width="1.5" d="M977.375 862.426c58.968-42.656 99.16-133.116 89.312-201.016l-41.036-282.956c-9.848-67.904-74.212-144.112-143.028-169.356L595.855 103.902c-68.816-25.244-173.368-11-232.34 31.66L117.787 313.314C58.819 355.97 18.627 446.43 28.475 514.33L69.51 797.286c9.848 67.904 74.212 144.112 143.028 169.356l286.768 105.196c68.816 25.244 173.368 11 232.34-31.66z"/></g><g><path fill="none" stroke="#f5f1eb" stroke-miterlimit="20" stroke-width="1.55" d="M976.095 889.322c61.656-42.264 105.86-134.972 98.236-206.02l-31.772-296.056c-7.624-71.048-70.548-152.724-139.824-181.508l-288.7-119.94c-69.28-28.784-176.408-17.752-238.064 24.512L119.047 286.43C57.395 328.694 13.191 421.402 20.815 492.446l31.772 296.056c7.624 71.048 70.548 152.724 139.824 181.508l288.696 119.94c69.28 28.784 176.408 17.752 238.064-24.512z"/></g><g><path fill="none" stroke="#f5f1eb" stroke-miterlimit="20" stroke-width="1.6" d="M973.848 917.27c64.38-41.756 112.764-136.66 107.516-210.9l-21.86-309.36C1054.26 322.77 993 235.454 923.376 202.974L633.24 67.618c-69.624-32.48-179.268-24.892-243.644 16.864l-268.28 174C56.936 300.238 8.552 395.142 13.8 469.382l21.86 309.36c5.244 74.24 66.504 161.556 136.128 194.036l290.136 135.356c69.624 32.48 179.268 24.892 243.644-16.864z"/></g><g><path fill="none" stroke="#f5f1eb" stroke-miterlimit="20" stroke-width="1.65" d="M970.546 946.282c67.14-41.128 119.86-138.172 117.156-215.644l-11.276-322.848c-2.704-77.476-62.068-170.6-131.912-206.948L653.458 49.386C583.61 13.042 471.53 16.954 404.39 58.082L124.606 229.47C57.466 270.598 4.746 367.638 7.45 445.114l11.276 322.848c2.704 77.476 62.068 170.6 131.912 206.948l291.056 151.456c69.848 36.344 181.928 32.432 249.068-8.696z"/></g><g><path fill="none" stroke="#f5f1eb" stroke-miterlimit="20" stroke-width="1.7" d="M966.154 976.36c69.932-40.376 127.152-139.484 127.152-220.236V419.616c0-80.752-57.22-179.86-127.152-220.236L674.734 31.132c-69.932-40.376-184.372-40.376-254.304 0L129.006 199.384C59.07 239.76 1.85 338.868 1.85 419.62v336.508c0 80.752 57.22 179.86 127.152 220.236l291.424 168.252c69.932 40.376 184.372 40.376 254.304 0z"/></g></g></g></svg>