<svg xmlns="http://www.w3.org/2000/svg" width="734" height="800" viewBox="0 0 734 800"><g><g clip-path="url(#clip-7152DAA4-D0A6-4F8A-9909-B0D248B9F39B)"><g><path fill="none" stroke="#20a1b8" stroke-miterlimit="20" stroke-width=".5" d="M569.477 366.216c1.804-3.788 2.092-4.948-.06-8.552-2.156-3.604-3.256-3.804-7.216-3.616-3.96.188-5.036.488-6.84 4.28-1.804 3.788-1.404 4.916.748 8.52 2.156 3.604 2.988 3.268 6.848 4.268 3.932 1.016 4.716-1.112 6.52-4.9z"/></g><g><path fill="none" stroke="#20a1b8" stroke-miterlimit="20" stroke-width=".5" d="M569.856 366.563c2.172-3.688 2.552-4.832.42-8.544-2.132-3.712-3.32-3.968-7.628-3.988-4.308-.02-5.496.224-7.668 3.916-2.172 3.688-1.804 4.836.328 8.548 2.132 3.712 3.056 3.42 7.188 4.62 4.216 1.224 5.188-.86 7.36-4.552z"/></g><g><path fill="none" stroke="#20a1b8" stroke-miterlimit="20" stroke-width=".5" d="M570.269 366.947c2.568-3.572 3.048-4.692.94-8.508-2.104-3.816-3.376-4.136-8.052-4.384-4.676-.248-5.976-.064-8.548 3.508-2.568 3.572-2.236 4.736-.132 8.552s3.124 3.572 7.54 4.992c4.508 1.444 5.684-.588 8.252-4.16z"/></g><g><path fill="none" stroke="#20a1b8" stroke-miterlimit="20" stroke-width=".5" d="M570.678 367.337c2.992-3.432 3.572-4.528 1.504-8.448-2.068-3.924-3.432-4.308-8.492-4.796-5.06-.492-6.484-.376-9.476 3.056-2.992 3.432-2.696 4.612-.628 8.536 2.068 3.924 3.188 3.732 7.9 5.38 4.808 1.668 6.2-.296 9.192-3.728z"/></g><g><path fill="none" stroke="#20a1b8" stroke-miterlimit="20" stroke-width=".5" d="M571.105 367.757c3.444-3.272 4.136-4.332 2.116-8.36-2.02-4.024-3.48-4.48-8.944-5.236-5.464-.756-7.016-.716-10.46 2.556-3.444 3.272-3.188 4.464-1.168 8.488 2.02 4.024 3.248 3.892 8.272 5.784 5.12 1.928 6.74.036 10.184-3.232z"/></g><g><path fill="none" stroke="#20a1b8" stroke-miterlimit="20" stroke-width=".5" d="M571.548 368.188c3.924-3.084 4.736-4.112 2.772-8.236-1.964-4.124-3.52-4.656-9.408-5.696s-7.576-1.08-11.5 2.004c-3.924 3.084-3.716 4.292-1.748 8.416 1.964 4.124 3.304 4.06 8.648 6.208 5.448 2.196 7.316.392 11.236-2.696z"/></g><g><path fill="none" stroke="#20a1b8" stroke-miterlimit="20" stroke-width=".5" d="M572.006 368.65c4.432-2.875 5.376-3.855 3.476-8.08-1.9-4.223-3.556-4.835-9.888-6.18-6.332-1.347-8.164-1.475-12.596 1.4-4.432 2.877-4.276 4.093-2.376 8.313 1.9 4.224 3.356 4.224 9.036 6.652 5.784 2.476 7.916.776 12.348-2.104z"/></g><g><path fill="none" stroke="#20a1b8" stroke-miterlimit="20" stroke-width=".5" d="M572.475 369.134c4.976-2.64 6.056-3.572 4.232-7.888-1.82-4.316-3.584-5.016-10.384-6.692-6.796-1.676-8.776-1.9-13.752.74-4.976 2.64-4.876 3.86-3.052 8.176 1.82 4.316 3.4 4.396 9.428 7.116 6.144 2.78 8.552 1.188 13.528-1.452z"/></g><g><path fill="none" stroke="#20a1b8" stroke-miterlimit="20" stroke-width=".5" d="M572.95 369.646c5.553-2.376 6.777-3.248 5.045-7.656-1.732-4.408-3.608-5.196-10.892-7.224-7.284-2.028-9.42-2.36-14.972.016s-5.512 3.6-3.78 8.008c1.732 4.408 3.44 4.568 9.828 7.6 6.512 3.096 9.22 1.632 14.772-.744z"/></g><g><path fill="none" stroke="#20a1b8" stroke-miterlimit="20" stroke-width=".5" d="M573.44 370.18c6.16-2.083 7.54-2.891 5.911-7.38-1.628-4.491-3.62-5.375-11.408-7.783-7.788-2.408-10.088-2.848-16.252-.764-6.164 2.084-6.188 3.308-4.56 7.8 1.628 4.492 3.476 4.74 10.236 8.104 6.888 3.424 9.908 2.108 16.072.024z"/></g><g><path fill="none" stroke="#20a1b8" stroke-miterlimit="20" stroke-width=".5" d="M573.947 370.74c6.808-1.756 8.348-2.492 6.836-7.06-1.512-4.568-3.624-5.56-11.944-8.372-8.32-2.812-10.788-3.372-17.596-1.616-6.808 1.756-6.904 2.98-5.392 7.548 1.512 4.568 3.504 4.916 10.652 8.628 7.284 3.784 10.636 2.628 17.444.872z"/></g><g><path fill="none" stroke="#20a1b8" stroke-miterlimit="20" stroke-width=".5" d="M574.458 371.315c7.488-1.4 9.204-2.052 7.82-6.692-1.38-4.644-3.616-5.74-12.488-8.984-8.868-3.244-11.52-3.932-19.008-2.532-7.488 1.4-7.664 2.616-6.284 7.256 1.38 4.644 3.524 5.092 11.072 9.176 7.696 4.156 11.4 3.176 18.888 1.776z"/></g><g><path fill="none" stroke="#20a1b8" stroke-miterlimit="20" stroke-width=".5" d="M574.99 371.928c8.207-1.004 10.103-1.568 8.871-6.276-1.232-4.708-3.6-5.924-13.044-9.624-9.444-3.704-12.28-4.528-20.488-3.524-8.208 1.004-8.468 2.208-7.232 6.916 1.236 4.708 3.536 5.272 11.496 9.744 8.108 4.556 12.188 3.768 20.396 2.764z"/></g><g><path fill="none" stroke="#20a1b8" stroke-miterlimit="20" stroke-width=".5" d="M575.525 372.559c8.968-.572 11.06-1.036 9.984-5.8-1.076-4.764-3.572-6.104-13.608-10.296-10.04-4.192-13.072-5.168-22.04-4.592-8.968.572-9.316 1.764-8.244 6.528 1.072 4.768 3.536 5.448 11.924 10.332 8.544 4.972 13.016 4.404 21.984 3.828z"/></g><g><path fill="none" stroke="#20a1b8" stroke-miterlimit="20" stroke-width=".5" d="M576.07 373.22c9.765-.104 12.065-.456 11.169-5.272-.892-4.816-3.528-6.28-14.188-10.992-10.66-4.712-13.896-5.844-23.66-5.74-9.764.104-10.212 1.272-9.32 6.088.892 4.816 3.528 5.628 12.356 10.94 8.992 5.416 13.88 5.08 23.644 4.976z"/></g><g><path fill="none" stroke="#20a1b8" stroke-miterlimit="20" stroke-width=".5" d="M576.625 373.908c10.604.408 13.12.176 12.424-4.68-.696-4.856-3.472-6.456-14.776-11.72s-14.752-6.564-25.356-6.972c-10.604-.408-11.16.736-10.464 5.592.696 4.856 3.512 5.804 12.788 11.572 9.456 5.88 14.78 5.8 25.384 6.208z"/></g><g><path fill="none" stroke="#20a1b8" stroke-miterlimit="20" stroke-width=".5" d="M577.19 374.635c11.489.964 14.233.864 13.753-4.024-.48-4.884-3.4-6.628-15.372-12.476-11.972-5.848-15.64-7.324-27.128-8.288-11.488-.964-12.152.152-11.676 5.036.48 4.884 3.48 5.98 13.224 12.224 9.928 6.368 15.708 6.564 27.2 7.528z"/></g><g><path fill="none" stroke="#20a1b8" stroke-miterlimit="20" stroke-width=".5" d="M577.759 375.382c12.416 1.564 15.4 1.608 15.156-3.296-.244-4.904-3.316-6.8-15.976-13.264-12.66-6.468-16.56-8.136-28.976-9.696-12.416-1.564-13.2-.484-12.96 4.42.244 4.904 3.436 6.152 13.656 12.9 10.42 6.872 16.684 7.372 29.1 8.936z"/></g><g><path fill="none" stroke="#20a1b8" stroke-miterlimit="20" stroke-width=".5" d="M578.334 376.148c13.388 2.212 16.624 2.412 16.64-2.5.016-4.912-3.212-6.964-16.584-14.084-13.372-7.12-17.512-8.988-30.9-11.2-13.388-2.208-14.304-1.176-14.32 3.736-.016 4.912 3.38 6.324 14.092 13.596 10.912 7.416 17.684 8.244 31.072 10.452z"/></g><g><path fill="none" stroke="#20a1b8" stroke-miterlimit="20" stroke-width=".5" d="M578.913 376.963c14.408 2.908 17.908 3.276 18.204-1.624.296-4.904-3.092-7.12-17.2-14.932-14.112-7.812-18.496-9.892-32.904-12.8-14.408-2.908-15.456-1.92-15.756 2.98-.296 4.904 3.312 6.492 14.52 14.316 11.424 7.968 18.728 9.152 33.136 12.06z"/></g><g><path fill="none" stroke="#20a1b8" stroke-miterlimit="20" stroke-width=".5" d="M579.499 377.797c15.472 3.656 19.252 4.208 19.852-.672.6-4.88-2.948-7.272-17.82-15.812s-19.516-10.848-34.988-14.504c-15.472-3.656-16.668-2.728-17.272 2.152-.604 4.88 3.224 6.656 14.948 15.056 11.948 8.56 19.808 10.124 35.28 13.78z"/></g><g><path fill="none" stroke="#20a1b8" stroke-miterlimit="20" stroke-width=".5" d="M580.083 378.652c16.588 4.464 20.656 5.212 21.588.368.932-4.844-2.788-7.416-18.444-16.724-15.656-9.304-20.564-11.856-37.152-16.316-16.588-4.46-17.94-3.596-18.868 1.244-.928 4.844 3.12 6.816 15.368 15.82 12.476 9.176 20.92 11.144 37.508 15.608z"/></g><g><path fill="none" stroke="#20a1b8" stroke-miterlimit="20" stroke-width=".5" d="M580.68 379.548c17.752 5.324 22.124 6.284 23.412 1.5 1.284-4.788-2.604-7.552-19.072-17.664-16.468-10.112-21.648-12.916-39.4-18.24-17.752-5.324-19.268-4.532-20.552.256-1.284 4.788 3 6.972 15.784 16.6 13.024 9.816 22.08 12.224 39.828 17.548z"/></g><g><path fill="none" stroke="#20a1b8" stroke-miterlimit="20" stroke-width=".5" d="M581.269 380.476c18.964 6.248 23.66 7.436 25.324 2.72 1.668-4.712-2.396-7.68-19.696-18.64s-22.764-14.032-41.732-20.276c-18.964-6.248-20.656-5.532-22.324-.82-1.668 4.712 2.86 7.12 16.188 17.404 13.584 10.484 23.272 13.364 42.24 19.612z"/></g><g><path fill="none" stroke="#20a1b8" stroke-miterlimit="20" stroke-width=".5" d="M581.856 381.424c20.232 7.232 25.256 8.664 27.336 4.044 2.076-4.62-2.164-7.796-20.32-19.644-18.152-11.848-23.912-15.204-44.144-22.432-20.232-7.228-22.108-6.608-24.184-1.988-2.076 4.62 2.7 7.26 16.58 18.228 14.148 11.176 24.5 14.56 44.732 21.792z"/></g><g><path fill="none" stroke="#20a1b8" stroke-miterlimit="20" stroke-width=".5" d="M582.436 382.407c21.548 8.28 26.924 9.972 29.44 5.468 2.516-4.504-1.908-7.896-20.936-20.68-19.032-12.784-25.092-16.432-46.64-24.712-21.548-8.28-23.62-7.752-26.14-3.248-2.516 4.504 2.52 7.388 16.96 19.072 14.72 11.9 25.768 15.824 47.316 24.1z"/></g><g><path fill="none" stroke="#20a1b8" stroke-miterlimit="20" stroke-width=".5" d="M583.012 383.418c22.92 9.396 28.656 11.368 31.648 7 2.988-4.368-1.62-7.988-21.552-21.748-19.932-13.76-26.3-17.724-49.22-27.12-22.92-9.396-25.2-8.98-28.188-4.612-2.988 4.368 2.312 7.512 17.328 19.932 15.296 12.66 27.064 17.152 49.984 26.548z"/></g><g><path fill="none" stroke="#20a1b8" stroke-miterlimit="20" stroke-width=".5" d="M583.576 384.453c24.344 10.584 30.46 12.852 33.952 8.648 3.492-4.204-1.304-8.06-22.156-22.848-20.852-14.788-27.54-19.076-51.884-29.656-24.344-10.584-26.84-10.288-30.336-6.084-3.492 4.204 2.084 7.62 17.672 20.812 15.888 13.444 28.408 18.544 52.752 29.128z"/></g><g><path fill="none" stroke="#20a1b8" stroke-miterlimit="20" stroke-width=".5" d="M584.135 385.52c25.824 11.84 32.332 14.427 36.364 10.411 4.032-4.016-.956-8.116-22.748-23.976s-28.808-20.492-54.632-32.332c-25.824-11.84-28.552-11.676-32.58-7.66-4.032 4.016 1.828 7.72 18 21.708 16.472 14.256 29.772 20.008 55.596 31.848z"/></g><g><path fill="none" stroke="#20a1b8" stroke-miterlimit="20" stroke-width=".5" d="M584.684 386.62c27.356 13.175 34.276 16.1 38.88 12.303 4.604-3.8-.576-8.156-23.332-25.132-22.752-16.976-30.104-21.972-57.46-35.148-27.356-13.176-30.328-13.156-34.932-9.356-4.604 3.8 1.544 7.804 18.304 22.62 17.076 15.096 31.184 21.536 58.54 34.712z"/></g><g><path fill="none" stroke="#20a1b8" stroke-miterlimit="20" stroke-width=".5" d="M585.208 387.746c28.944 14.592 36.288 17.872 41.5 14.32 5.212-3.552-.164-8.176-23.896-26.32s-31.428-23.516-60.372-38.108c-28.944-14.592-32.168-14.724-37.384-11.172-5.212 3.552 1.232 7.876 18.58 23.548 17.68 15.968 32.628 23.14 61.572 37.732z"/></g><g><path fill="none" stroke="#20a1b8" stroke-miterlimit="20" stroke-width=".5" d="M585.722 388.891c30.588 16.084 38.372 19.748 44.236 16.472 5.864-3.276.288-8.172-24.44-27.532s-32.776-25.128-63.364-41.216c-30.588-16.088-34.08-16.388-39.944-13.112-5.86 3.276.892 7.928 18.828 24.488 18.28 16.872 34.096 24.812 64.684 40.9z"/></g><g><path fill="none" stroke="#20a1b8" stroke-miterlimit="20" stroke-width=".5" d="M586.205 390.066c32.288 17.664 40.528 21.728 47.076 18.764 6.548-2.964.776-8.148-24.96-28.776-25.74-20.628-34.148-26.808-66.436-44.472-32.288-17.664-36.064-18.148-42.612-15.184-6.548 2.964.516 7.964 19.044 25.44 18.888 17.804 35.6 26.564 67.888 44.228z"/></g><g><path fill="none" stroke="#20a1b8" stroke-miterlimit="20" stroke-width=".5" d="M586.675 391.264c34.044 19.332 42.756 23.82 50.032 21.204 7.276-2.616 1.308-8.096-25.46-30.04-26.764-21.948-35.54-28.56-69.584-47.888-34.044-19.332-38.112-20.012-45.388-17.396-7.276 2.616.104 7.98 19.228 26.4 19.484 18.768 37.132 28.388 71.172 47.72z"/></g><g><path fill="none" stroke="#20a1b8" stroke-miterlimit="20" stroke-width=".5" d="M587.107 392.481c35.852 21.084 45.056 26.024 53.104 23.792 8.048-2.232 1.88-8.016-25.924-31.332-27.804-23.315-36.956-30.38-72.808-51.467-35.852-21.084-40.232-21.98-48.28-19.744-8.048 2.232-.34 7.976 19.368 27.372 20.08 19.76 38.688 30.292 74.54 51.38z"/></g><g><path fill="none" stroke="#20a1b8" stroke-miterlimit="20" stroke-width=".5" d="M587.514 393.72c37.716 22.932 47.428 28.348 56.288 26.54 8.864-1.808 2.496-7.904-26.36-32.648-28.856-24.74-38.384-32.272-76.1-55.204-37.716-22.932-42.42-24.052-51.28-22.244-8.86 1.808-.82 7.948 19.464 28.348 20.672 20.784 40.268 32.276 77.988 55.208z"/></g><g><path fill="none" stroke="#20a1b8" stroke-miterlimit="20" stroke-width=".5" d="M587.876 394.985c39.636 24.876 49.868 30.792 59.588 29.448 9.724-1.344 3.16-7.764-26.756-33.98-29.916-26.216-39.828-34.236-79.464-59.112-39.636-24.876-44.676-26.24-54.4-24.9-9.724 1.344-1.344 7.892 19.516 29.328 21.26 21.84 41.88 34.344 81.516 59.216z"/></g><g><path fill="none" stroke="#20a1b8" stroke-miterlimit="20" stroke-width=".5" d="M588.205 396.267c41.608 26.916 52.376 33.36 63.008 32.528 10.628-.832 3.872-7.588-27.108-35.336-30.98-27.748-41.284-36.276-82.896-63.192-41.612-26.916-47-28.544-57.632-27.712-10.628.832-1.908 7.812 19.516 30.308 21.832 22.924 43.504 36.488 85.112 63.404z"/></g><g><path fill="none" stroke="#20a1b8" stroke-miterlimit="20" stroke-width=".5" d="M588.485 397.551c43.632 29.056 54.956 36.056 66.544 35.78 11.588-.276 4.632-7.376-27.416-36.704-32.048-29.332-42.752-38.388-86.384-67.444-43.632-29.056-49.396-30.964-60.98-30.692-11.584.272-2.516 7.7 19.46 31.288 22.392 24.04 45.144 38.716 88.776 67.772z"/></g><g><path fill="none" stroke="#20a1b8" stroke-miterlimit="20" stroke-width=".5" d="M588.713 398.868c45.708 31.3 57.604 38.88 70.196 39.212 12.592.332 5.448-7.124-27.668-38.088-33.12-30.968-44.22-40.572-89.932-71.872-45.712-31.3-51.856-33.508-64.448-33.84-12.592-.332-3.168 7.56 19.344 32.264 22.936 25.176 46.796 41.024 92.508 72.324z"/></g><g><path fill="none" stroke="#20a1b8" stroke-miterlimit="20" stroke-width=".5" d="M588.892 400.184c47.836 33.648 60.316 41.844 73.964 42.832 13.648.992 6.32-6.828-27.868-39.484-34.188-32.66-45.692-42.832-93.528-76.48-47.836-33.648-54.38-36.176-68.028-37.164-13.648-.992-3.868 7.384 19.16 33.232 23.464 26.34 48.464 43.416 96.3 77.064z"/></g><g><path fill="none" stroke="#20a1b8" stroke-miterlimit="20" stroke-width=".5" d="M589.004 401.5c50.012 36.108 63.088 44.94 77.848 46.644 14.76 1.704 7.248-6.488-28.004-40.888-35.252-34.404-47.16-45.164-97.172-81.268-50.012-36.108-56.972-38.972-71.728-40.676-14.76-1.704-4.62 7.172 18.908 34.188 23.976 27.532 50.14 45.896 100.148 82z"/></g><g><path fill="none" stroke="#20a1b8" stroke-miterlimit="20" stroke-width=".5" d="M589.06 402.829c52.233 38.676 65.925 48.18 81.849 50.656 15.924 2.476 8.236-6.1-28.072-42.3-36.308-36.2-48.624-47.568-100.852-86.244s-59.624-41.9-75.548-44.372c-15.924-2.472-5.424 6.92 18.58 35.132 24.46 28.748 51.816 48.456 104.044 87.128z"/></g><g><path fill="none" stroke="#20a1b8" stroke-miterlimit="20" stroke-width=".5" d="M589.044 404.16c54.496 41.355 68.816 51.563 85.96 54.871 17.144 3.304 9.288-5.66-28.064-43.712-37.352-38.052-50.072-50.048-104.568-91.404-54.496-41.356-62.336-44.964-79.48-48.268-17.144-3.304-6.28 6.624 18.168 36.056 24.92 29.988 53.492 51.1 107.984 92.456z"/></g><g><path fill="none" stroke="#20a1b8" stroke-miterlimit="20" stroke-width=".5" d="M588.942 405.494c56.8 44.152 71.764 55.096 90.188 59.292 18.424 4.196 10.404-5.164-27.976-45.12-38.38-39.952-51.504-52.6-108.304-96.752-56.8-44.152-65.104-48.164-83.524-52.36-18.42-4.196-7.192 6.288 17.672 36.96 25.332 31.252 55.144 53.828 111.944 97.98z"/></g><g><path fill="none" stroke="#20a1b8" stroke-miterlimit="20" stroke-width=".5" d="M588.762 406.807c59.144 47.064 74.764 58.776 94.52 63.932 19.756 5.156 11.588-4.616-27.8-46.52-39.388-41.908-52.916-55.224-112.056-102.288-59.144-47.064-67.932-51.504-87.684-56.66-19.756-5.156-8.164 5.904 17.08 37.832 25.72 32.536 56.8 56.644 115.94 103.704z"/></g><g><path fill="none" stroke="#20a1b8" stroke-miterlimit="20" stroke-width=".5" d="M588.488 408.123c61.52 50.092 77.812 62.608 98.964 68.792 21.152 6.184 12.84-4-27.528-47.912-40.368-43.912-54.296-57.916-115.816-108.012-61.52-50.096-70.804-54.988-91.956-61.172-21.152-6.184-9.2 5.468 16.388 38.676 26.068 33.832 58.432 59.532 119.948 109.628z"/></g><g><path fill="none" stroke="#20a1b8" stroke-miterlimit="20" stroke-width=".5" d="M588.12 409.413c63.927 53.244 80.9 66.596 103.507 73.876 22.608 7.28 14.164-3.324-27.156-49.288s-55.64-60.68-119.568-113.924c-63.928-53.244-73.728-58.62-96.336-65.9-22.608-7.28-10.296 4.98 15.588 39.48 26.372 35.152 60.036 62.512 123.964 115.756z"/></g><g><path fill="none" stroke="#20a1b8" stroke-miterlimit="20" stroke-width=".5" d="M587.648 410.687c66.364 56.516 84.028 70.74 108.152 79.192 24.124 8.452 15.564-2.576-26.672-50.64-42.236-48.064-56.944-63.508-123.308-120.028S469.124 256.815 445 248.359c-24.124-8.452-11.46 4.432 14.672 40.24 26.628 36.488 61.612 65.568 127.976 122.088z"/></g><g><path fill="none" stroke="#20a1b8" stroke-miterlimit="20" stroke-width=".5" d="M587.064 411.928c68.82 59.912 87.184 75.04 112.888 84.744 25.708 9.704 17.04-1.76-26.072-51.968-43.112-50.208-58.2-66.404-127.016-126.316-68.816-59.912-79.7-66.328-105.408-76.032-25.708-9.704-12.692 3.828 13.636 40.952 26.832 37.832 63.152 68.708 131.972 128.62z"/></g><g><path fill="none" stroke="#20a1b8" stroke-miterlimit="20" stroke-width=".5" d="M586.353 413.137c71.292 63.432 90.364 79.5 117.716 90.536 27.352 11.036 18.6-.864-25.344-53.26-43.94-52.396-59.396-69.356-130.688-132.788-71.292-63.432-82.74-70.408-110.092-81.444-27.352-11.036-13.996 3.156 12.472 41.612 26.976 39.18 64.644 71.912 135.936 135.344z"/></g><g><path fill="none" stroke="#20a1b8" stroke-miterlimit="20" stroke-width=".5" d="M585.522 414.319c73.776 67.076 93.568 84.12 122.628 96.572 29.06 12.452 20.236.108-24.48-54.516-44.716-54.624-60.528-72.372-134.304-139.448-73.776-67.076-85.808-74.64-114.868-87.092-29.06-12.452-15.368 2.42 11.172 42.208 27.048 40.54 66.076 75.196 139.852 142.276z"/></g><g><path fill="none" stroke="#20a1b8" stroke-miterlimit="20" stroke-width=".5" d="M584.55 415.443c76.267 70.848 96.78 88.9 127.615 102.86 30.836 13.956 21.96 1.168-23.472-55.72S627.11 387.143 550.845 316.3c-76.264-70.844-88.896-79.028-119.732-92.988-30.836-13.956-16.82 1.612 9.728 42.732 27.048 41.9 67.44 78.552 143.708 149.4z"/></g><g><path fill="none" stroke="#20a1b8" stroke-miterlimit="20" stroke-width=".5" d="M583.42 416.523c78.757 74.74 99.993 93.844 132.669 109.396 32.676 15.552 23.772 2.316-22.308-56.872s-62.556-78.56-141.308-153.3c-78.752-74.74-91.996-83.572-124.672-99.124-32.676-15.552-18.352.732 8.128 43.184 26.976 43.256 68.736 81.976 147.492 156.716z"/></g><g><path fill="none" stroke="#20a1b8" stroke-miterlimit="20" stroke-width=".5" d="M582.148 417.535c81.236 78.76 103.2 98.948 137.784 116.188 34.584 17.24 25.672 3.556-20.976-57.964-46.648-61.52-63.432-81.724-144.664-160.484-81.232-78.76-95.104-88.272-129.688-105.512-34.584-17.24-19.96-.232 6.364 43.552 26.82 44.608 69.944 85.46 151.18 164.22z"/></g><g><path fill="none" stroke="#20a1b8" stroke-miterlimit="20" stroke-width=".5" d="M580.7 418.477c83.696 82.904 106.392 104.216 142.952 123.24 36.56 19.028 27.664 4.896-19.472-58.98s-64.204-84.932-147.9-167.836c-83.696-82.904-98.212-93.128-134.772-112.156-36.56-19.028-21.652-1.276 4.432 43.824 26.576 45.956 71.064 89.008 154.76 171.908z"/></g><g><path fill="none" stroke="#20a1b8" stroke-miterlimit="20" stroke-width=".5" d="M579.075 419.35c86.136 87.171 109.556 109.64 148.16 130.555 38.604 20.916 29.748 6.336-17.784-59.92s-64.86-88.176-150.992-175.348c-86.132-87.172-101.308-98.14-139.912-119.056-38.604-20.916-23.432-2.408 2.316 43.996 26.24 47.284 72.08 92.604 158.212 179.772z"/></g><g><path fill="none" stroke="#20a1b8" stroke-miterlimit="20" stroke-width=".5" d="M577.257 420.14c88.536 91.56 112.68 115.223 153.396 138.127 40.712 22.908 31.932 7.884-15.892-60.768s-65.388-91.448-153.924-183.008C472.3 222.931 456.453 211.183 415.74 188.275c-40.712-22.908-25.296-3.628.012 44.056 25.788 48.592 72.968 96.248 161.504 187.808z"/></g><g><path fill="none" stroke="#20a1b8" stroke-miterlimit="20" stroke-width=".5" d="M575.25 420.826c90.896 96.068 115.756 120.964 158.648 145.968 42.892 25.004 34.212 9.544-13.796-61.516-48.004-71.06-65.772-94.748-156.668-190.812-90.896-96.064-107.428-108.632-150.316-133.636-42.888-25.004-27.252-4.948-2.492 43.996 25.228 49.872 73.728 99.932 164.624 196z"/></g><g><path fill="none" stroke="#20a1b8" stroke-miterlimit="20" stroke-width=".5" d="M573.019 421.41c93.2 100.691 118.768 126.855 163.904 154.071 45.132 27.216 36.592 11.324-11.476-62.156-48.068-73.476-66.004-98.06-159.204-198.752-93.2-100.692-110.428-114.104-155.56-141.32-45.132-27.216-29.3-6.368-5.208 43.808 24.548 51.124 74.344 103.656 167.544 204.348z"/></g><g><path fill="none" stroke="#20a1b8" stroke-miterlimit="20" stroke-width=".5" d="M570.576 421.877C666.012 527.309 692.28 554.773 739.72 584.313c47.44 29.54 39.076 13.22-8.92-62.668s-66.068-101.38-161.504-206.812C473.86 209.4 455.92 195.105 408.48 165.565c-47.44-29.54-31.444-7.892-8.148 43.472 23.74 52.344 74.804 107.408 170.244 212.84z"/></g><g><path fill="none" stroke="#20a1b8" stroke-miterlimit="20" stroke-width=".5" d="M567.9 422.206C665.494 532.49 692.442 561.29 742.26 593.274c49.815 31.984 41.663 15.248-6.117-63.052-47.78-78.3-65.948-104.696-163.54-214.98-97.592-110.284-116.252-125.496-166.068-157.48-49.816-31.984-33.68-9.528-11.316 42.988 22.788 53.512 75.084 111.172 172.68 221.456z"/></g><g><path fill="none" stroke="#20a1b8" stroke-miterlimit="20" stroke-width=".52" d="M564.966 422.4c99.664 115.24 127.28 145.412 179.532 179.96 52.252 34.548 44.356 17.408-3.052-63.284-47.408-80.692-65.628-108.004-165.288-223.244-99.66-115.24-119.052-131.408-171.304-165.956-52.252-34.548-36.016-11.276-14.728 42.336 21.692 54.628 75.18 114.948 174.84 230.188z"/></g><g><path fill="none" stroke="#20a1b8" stroke-miterlimit="20" stroke-width=".55" d="M561.77 422.44C663.394 542.738 691.654 574.318 746.41 611.55s47.156 19.704.288-63.356S681.606 436.9 579.982 316.605C478.358 196.309 458.23 179.145 403.478 141.913c-54.752-37.232-38.456-13.148-18.396 41.508 20.436 55.688 75.064 118.724 176.688 239.02z"/></g><g><path fill="none" stroke="#20a1b8" stroke-miterlimit="20" stroke-width=".57" d="M558.31 422.32c103.468 125.452 132.344 158.464 189.66 198.512s50.064 22.148 3.916-63.256c-46.152-85.404-64.324-114.548-167.792-239.996-103.468-125.448-124.336-143.644-181.652-183.692-57.316-40.048-40.992-15.14-22.328 40.488C399.13 231.06 454.842 296.868 558.31 422.32z"/></g><g><path fill="none" stroke="#20a1b8" stroke-miterlimit="20" stroke-width=".59" d="M554.548 422.01c105.172 130.692 134.64 165.172 194.58 208.168 59.94 42.996 53.084 24.736 7.848-62.964-45.236-87.7-63.304-117.756-168.48-248.448C483.32 188.074 461.704 168.814 401.768 125.818c-59.936-42.996-43.636-17.268-26.54 39.264 17.416 57.6 74.144 126.236 179.32 256.928z"/></g><g><path fill="none" stroke="#20a1b8" stroke-miterlimit="20" stroke-width=".62" d="M550.497 421.51C657.225 557.53 687.249 593.5 749.865 639.572c62.616 46.072 56.216 27.48 12.1-62.468-44.116-89.948-62.016-120.908-168.744-256.928-106.728-136.02-129.096-156.384-191.712-202.456-62.616-46.072-46.384-19.52-31.044 37.828 15.628 58.432 73.304 129.944 180.032 265.96z"/></g><g><path fill="none" stroke="#20a1b8" stroke-miterlimit="20" stroke-width=".64" d="M546.11 420.798c108.112 141.42 138.656 178.916 204 228.2 65.344 49.284 59.456 30.384 16.688-61.748s-60.44-123.988-168.552-265.404-131.236-162.924-196.58-212.212c-65.344-49.288-49.236-21.928-35.848 36.144 13.648 59.172 72.18 133.6 180.292 275.02z"/></g><g><path fill="none" stroke="#20a1b8" stroke-miterlimit="20" stroke-width=".67" d="M541.396 419.856C650.704 566.74 681.724 605.784 749.852 658.42c68.128 52.636 62.808 33.456 21.628-60.788s-58.552-126.98-167.86-273.864C494.312 176.884 470.436 154.196 402.312 101.56c-68.124-52.636-52.196-24.476-40.968 34.216 11.444 59.804 70.744 137.196 180.052 284.08z"/></g><g><path fill="none" stroke="#20a1b8" stroke-miterlimit="20" stroke-width=".7" d="M536.338 418.663c110.292 152.404 141.748 193.016 212.7 249.148 70.952 56.132 66.272 36.696 26.932-59.576-39.34-96.272-56.332-129.872-166.624-282.272-110.292-152.4-134.92-176.308-205.872-232.44-70.952-56.132-55.264-27.172-46.416 32.028 9.016 60.32 68.984 140.708 179.28 293.112z"/></g><g><path fill="none" stroke="#20a1b8" stroke-miterlimit="20" stroke-width=".73" d="M530.913 417.208c111.052 157.964 142.88 200.168 216.704 259.936 73.824 59.768 69.852 40.116 32.624-58.084s-53.76-132.64-164.808-290.608C504.385 170.484 479.013 145.324 405.189 85.556c-73.824-59.768-58.444-30.028-52.204 29.556 6.36 60.712 66.88 144.132 177.928 302.096z"/></g><g><path fill="none" stroke="#20a1b8" stroke-miterlimit="20" stroke-width=".76" d="M525.113 415.477c111.556 163.56 143.704 207.372 220.44 270.92 76.736 63.548 73.54 43.716 38.716-56.296-34.82-100.012-50.808-135.272-162.364-298.832C510.349 167.709 484.24 141.253 407.509 77.705S345.78 44.66 349.16 104.489c3.448 60.956 64.396 147.428 175.952 310.988z"/></g><g><path fill="none" stroke="#20a1b8" stroke-miterlimit="20" stroke-width=".79" d="M518.901 413.444C630.685 582.62 663.093 628.052 742.77 695.532c79.676 67.48 77.336 47.504 45.228-54.192s-47.456-137.748-159.24-306.92C516.973 165.248 490.137 137.46 410.461 69.98c-79.676-67.48-65.124-36.228-64.856 23.692.276 61.056 61.512 150.596 173.296 319.772z"/></g><g><path fill="none" stroke="#20a1b8" stroke-miterlimit="20" stroke-width=".83" d="M512.287 411.086c111.716 174.792 144.304 221.86 226.952 293.416 82.648 71.556 81.244 51.488 52.176-51.752-29.068-103.24-43.676-140.04-155.392-314.836-111.716-174.796-139.26-203.944-221.908-275.5-82.648-71.556-68.632-39.588-71.748 20.264-3.172 60.988 58.204 153.612 169.92 328.408z"/></g><g><path fill="none" stroke="#20a1b8" stroke-miterlimit="20" stroke-width=".86" d="M505.234 408.387c111.32 180.4 144.016 229.112 229.66 304.892s85.26 55.668 59.58-48.952c-25.68-104.62-39.44-142.136-150.76-322.536S504.154 130.835 418.51 55.055s-72.244-43.128-79.032 16.484c-6.916 60.736 54.436 156.448 165.756 336.848z"/></g><g><path fill="none" stroke="#20a1b8" stroke-miterlimit="20" stroke-width=".9" d="M497.73 405.32C608.302 591.3 641.022 641.652 729.674 721.816c88.652 80.164 89.38 60.056 67.456-45.764-21.92-105.82-34.728-144.004-145.296-329.984C541.266 160.088 512.346 128.1 423.694 47.936 335.042-32.228 347.73 1.088 336.97 60.26c-10.964 60.292 50.188 159.084 160.76 345.06z"/></g><g><path fill="none" stroke="#20a1b8" stroke-miterlimit="20" stroke-width=".94" d="M489.764 401.864c109.44 191.512 142.096 243.508 233.764 328.2 91.668 84.692 93.6 64.648 75.824-42.172-17.776-106.82-29.504-145.624-138.944-337.136-109.44-191.512-139.012-224.972-230.676-309.66-91.664-84.688-79.792-50.76-94.836 7.768-15.332 59.636 45.428 161.488 154.868 353z"/></g><g><path fill="none" stroke="#20a1b8" stroke-miterlimit="20" stroke-width=".98" d="M481.317 398.002c107.9 196.976 140.388 250.612 235.072 339.984 94.684 89.372 97.924 69.46 84.704-38.144-13.22-107.604-23.74-146.968-131.64-343.948-107.9-196.98-138.096-231.94-232.776-321.312-94.68-89.372-83.728-54.864-103.388 2.796-20.032 58.752 40.124 163.644 148.028 360.624z"/></g><g><path fill="none" stroke="#20a1b8" stroke-miterlimit="20" stroke-width="1.02" d="M472.363 393.697c105.916 202.356 138.128 257.616 235.82 351.82 97.692 94.204 102.34 74.488 94.116-33.66-8.228-108.148-17.408-148.012-123.324-350.364C573.059 159.141 542.27 122.645 444.583 28.441c-97.688-94.204-87.76-59.172-112.38-2.62-25.088 57.624 34.244 165.52 140.16 367.876z"/></g><g><path fill="none" stroke="#20a1b8" stroke-miterlimit="20" stroke-width="1.06" d="M462.886 388.933c103.46 207.62 135.28 264.492 235.964 363.68 100.684 99.188 106.852 79.744 104.072-28.688-2.78-108.432-10.476-148.72-113.936-356.34-103.46-207.62-134.8-245.676-235.48-344.864-100.68-99.188-91.892-63.68-121.836-8.496-30.508 56.232 27.756 167.088 131.216 374.708z"/></g><g><path fill="none" stroke="#20a1b8" stroke-miterlimit="20" stroke-width="1.11" d="M452.872 383.681c100.492 212.752 131.796 271.208 235.44 375.532 103.644 104.324 111.448 85.228 114.6-23.204 3.152-108.428-2.912-149.064-103.4-361.812C599.024 161.45 567.168 121.805 463.524 17.481 359.88-86.843 367.4-50.927 331.756 2.617 295.44 57.177 352.38 170.93 452.872 383.681z"/></g><g><path fill="none" stroke="#20a1b8" stroke-miterlimit="20" stroke-width="1.15" d="M442.302 377.912c96.976 217.716 127.632 277.736 234.2 387.34 106.568 109.604 116.124 90.944 125.716-17.172 9.592-108.116 5.32-149.012-91.656-366.728S581.266 122.38 474.698 12.776C368.13-96.828 374.25-60.572 332.518-8.968c-42.524 52.584 12.808 169.16 109.784 386.88z"/></g><g><path fill="none" stroke="#20a1b8" stroke-miterlimit="20" stroke-width="1.2" d="M431.162 371.593c92.88 222.496 122.74 284.036 232.18 399.064 109.44 115.028 120.876 96.896 137.436-10.568 16.56-107.464 14.252-148.528-78.628-371.024S596.534 123.681 487.094 8.65c-109.44-115.032-104.856-78.5-153.092-29.152-49.148 50.284 4.284 169.6 97.16 392.096z"/></g><g><path fill="none" stroke="#20a1b8" stroke-miterlimit="20" stroke-width="1.26" d="M419.42 364.7C507.58 591.754 536.492 654.77 648.744 775.37c112.252 120.6 125.692 103.088 149.784-3.364s23.92-147.58-64.24-374.628C646.128 170.329 613.036 125.78 500.784 5.18 388.532-115.42 391.428-78.7 336.26-31.943c-56.212 47.644-5 169.592 83.16 396.644z"/></g><g><path fill="none" stroke="#20a1b8" stroke-miterlimit="20" stroke-width="1.31" d="M407.074 357.201c82.78 231.352 110.58 295.8 225.56 422.108 114.98 126.308 130.572 109.524 162.776 4.48 32.204-105.044 34.36-146.124-48.42-377.48C664.21 174.953 630.822 128.741 515.838 2.43 400.854-123.883 401.906-87.059 339.366-43.255c-63.72 44.64-15.072 169.1 67.708 400.456z"/></g><g><path fill="none" stroke="#20a1b8" stroke-miterlimit="20" stroke-width="1.36" d="M394.097 349.075c76.692 235.368 103.2 301.18 220.828 433.336s135.5 116.208 176.432 12.996c40.932-103.216 45.608-144.128-31.084-379.496S649.965 132.64 532.341.483c-117.624-132.156-118.58-95.328-188.956-54.856-71.712 41.24-25.98 168.076 50.712 403.448z"/></g><g><path fill="none" stroke="#20a1b8" stroke-miterlimit="20" stroke-width="1.42" d="M380.48 340.276c69.856 239.06 94.888 306.168 215.048 444.3S736 907.716 786.3 806.788c50.304-100.932 57.704-141.544-12.152-380.604C704.292 187.124 670.528 137.532 550.368-.6S427.076-102.004 348.384-65.268C268.2-27.84 310.62 101.216 380.48 340.276z"/></g><g><path fill="none" stroke="#20a1b8" stroke-miterlimit="20" stroke-width="1.48" d="M366.189 330.764c62.228 242.388 85.58 310.716 208.156 454.944C696.92 929.936 719.817 916.032 780.16 817.872c60.344-98.16 70.688-138.328 8.46-380.716S692.569 143.476 569.993-.752C447.417-144.98 441.933-108.468 354.425-75.904c-89.172 33.18-50.464 164.28 11.764 406.668z"/></g><g><path fill="none" stroke="#20a1b8" stroke-miterlimit="20" stroke-width="1.55" d="M351.216 320.536c53.76 245.312 75.22 314.768 200.064 465.216 124.844 150.448 150.488 137.76 221.576 42.892s84.6-134.44 30.84-379.752C749.936 203.58 716.14 150.588 591.296.14 466.452-150.308 458.42-114.132 361.58-86.192 262.9-57.72 297.456 75.224 351.216 320.536z"/></g><g><path fill="none" stroke="#20a1b8" stroke-miterlimit="20" stroke-width="1.61" d="M335.554 309.524c44.4 247.792 63.744 318.276 190.7 475.048C653.21 941.343 681.77 930.015 764.326 839c82.556-91.016 99.476-129.828 55.08-377.616-44.396-247.788-78.072-302.48-205.024-459.252S476.65-118.936 369.942-96.104c-108.736 23.268-78.788 157.836-34.388 405.627z"/></g><g><path fill="none" stroke="#20a1b8" stroke-miterlimit="20" stroke-width="1.68" d="M319.172 297.72c34.096 249.776 51.084 321.172 179.972 484.376C628.032 945.3 659.676 935.48 754.468 848.912c94.792-86.568 115.364-124.444 81.268-374.216C801.64 224.92 768.2 168.544 639.312 5.344S496.696-122.768 379.568-105.548c-119.344 17.54-94.492 153.496-60.396 403.268z"/></g><g><path fill="none" stroke="#20a1b8" stroke-miterlimit="20" stroke-width="1.75" d="M302.073 285.068c22.8 251.216 37.18 323.408 167.8 493.132S635.4 939.776 743.217 858.284c107.816-81.492 132.304-118.236 109.5-369.452-22.8-251.216-55.892-309.264-186.512-478.992s-147.516-135.4-275.636-124.336c-130.54 11.276-111.3 148.344-88.496 399.564z"/></g><g><path fill="none" stroke="#20a1b8" stroke-miterlimit="20" stroke-width="1.83" d="M284.229 271.531c10.46 252.064 21.96 324.912 154.088 501.24C570.445 949.1 608.8 942.791 730.469 867.051c121.668-75.736 150.336-111.148 139.876-363.216-10.46-252.068-43.076-311.768-175.204-488.096-132.128-176.328-152.424-142.936-292.12-138.592-142.34 4.432-129.252 142.32-118.792 394.384z"/></g><g><path fill="none" stroke="#20a1b8" stroke-miterlimit="20" stroke-width="1.9" d="M265.618 257.097c-2.984 252.268 5.356 325.616 138.744 508.616s175.38 178.708 311.756 109.444c136.376-69.264 169.508-103.128 172.496-355.396 2.984-252.268-29.02-313.592-162.412-496.596-133.392-183.004-157.32-150.716-309.2-153.688-154.764-3.032-148.4 135.352-151.384 387.62z"/></g><g><path fill="none" stroke="#20a1b8" stroke-miterlimit="20" stroke-width="1.99" d="M246.25 241.7c-17.592 251.764-12.712 325.448 121.668 515.18 134.38 189.732 180.204 187.64 332.176 125.608 151.972-62.032 189.864-94.116 207.456-345.88 17.592-251.764-13.664-314.684-148.04-504.416-134.376-189.732-162.188-158.744-326.884-169.66-167.82-11.124-168.788 127.4-186.376 379.168z"/></g><g><path fill="none" stroke="#20a1b8" stroke-miterlimit="20" stroke-width="2.07" d="M226.1 225.304c-33.415 250.5-32.311 324.336 102.76 520.84 135.073 196.504 184.933 196.816 353.42 142.82 168.489-53.996 211.445-84.048 244.86-334.548 33.417-250.5 3.073-314.968-132-511.472C660.07-153.56 628.12-124.072 449.97-143.592 268.445-163.484 259.517-25.196 226.1 225.304z"/></g><g><path fill="none" stroke="#20a1b8" stroke-miterlimit="20" stroke-width="2.16" d="M205.156 207.884c-50.524 248.408-53.524 322.2 81.916 525.508 135.44 203.308 189.54 206.224 375.5 161.12 185.96-45.104 234.296-72.868 284.82-321.276 50.524-248.408 21.252-314.376-114.184-517.68-135.436-203.304-171.796-175.528-364.06-204.344C273.236-178.152 255.68-40.524 205.156 207.884z"/></g><g><path fill="none" stroke="#20a1b8" stroke-miterlimit="20" stroke-width="2.25" d="M183.408 189.387c-68.972 245.424-76.428 318.96 59.02 529.072 135.448 210.112 194.008 215.86 398.428 180.552 204.42-35.308 258.468-60.508 327.44-305.928 68.972-245.42 40.952-312.832-94.496-522.944-135.448-210.112-176.492-184.276-383.552-223.12-210.98-39.576-237.868 96.944-306.84 342.368z"/></g><g><path fill="none" stroke="#20a1b8" stroke-miterlimit="20" stroke-width="2.35" d="M160.867 169.777c-88.828 241.476-101.104 314.52 33.968 531.436 135.072 216.916 198.312 225.72 422.212 201.156 223.9-24.564 284-46.896 372.828-288.372 88.828-241.476 62.248-310.26-72.824-527.176-135.072-216.916-181.096-193.26-403.64-242.884-226.76-50.564-263.712 84.364-352.544 325.84z"/></g><g><path fill="none" stroke="#20a1b8" stroke-miterlimit="20" stroke-width="2.45" d="M137.507 149.015c-110.156 236.496-127.636 308.8 6.64 532.488 134.276 223.688 202.42 235.788 446.852 222.98 244.432-12.812 310.94-31.968 421.096-268.468 110.156-236.5 85.216-306.576-49.056-530.264s-185.576-202.476-424.32-263.68c-243.268-62.364-291.056 70.448-401.212 306.944z"/></g><g><path fill="none" stroke="#20a1b8" stroke-miterlimit="20" stroke-width="2.55" d="M113.34 127.065C-19.688 357.473-42.772 428.76 90.256 659.169c133.028 230.408 206.308 246.06 472.36 246.06s339.332-15.652 472.36-246.06c133.028-230.408 109.94-301.696-23.084-532.104C878.868-103.343 821.964-84.843 566.3-158.46c-260.512-75.008-319.936 55.116-452.96 285.524z"/></g></g></g></svg>