<svg xmlns="http://www.w3.org/2000/svg" width="1600" height="637" viewBox="0 0 1600 637"><defs><clipPath id="v5jwa"><path d="M0 346.12h1599.301v118.357H0z"/></clipPath><clipPath id="v5jwb"><path d="M0 334.13h1599.3v118.343H0z"/></clipPath><clipPath id="v5jwc"><path d="M.12.76h1599.417v160.414H.12z"/></clipPath></defs><g><g opacity=".5"><g opacity=".5"><path fill="#e5e8ee" d="M413.144 636.365c-36.096 0-71.959-4.752-106.747-9.364-26.996-3.575-54.908-7.276-82.69-8.726-59.11-3.088-119.575-.514-178.052 1.974-14.898.634-30.304 1.288-45.415 1.838l-.07-1.899c15.104-.549 30.51-1.202 45.406-1.837 58.518-2.492 119.031-5.069 178.23-1.971 27.856 1.453 55.808 5.157 82.842 8.739 38.205 5.061 77.715 10.3 117.324 9.198 31.4-.873 63.234-3.622 94.02-6.283 30.533-2.636 62.104-5.364 93.275-6.266 46.2-1.337 93.216-.116 138.683 1.062 16.325.424 33.206.86 49.793 1.172 178.682 3.367 360.557 2.37 536.447 1.407 86.236-.473 175.422-.987 263.051-.928v1.899c-87.627-.05-176.81.456-263.041.929-175.892.965-357.783 1.962-536.495-1.408-16.593-.313-33.476-.748-49.803-1.174-45.443-1.175-92.437-2.395-138.578-1.06-31.118.9-62.663 3.626-93.168 6.259-30.813 2.663-62.674 5.415-94.131 6.29-3.63.101-7.258.149-10.881.149"/></g><g opacity=".5"><path fill="#e5e8ee" d="M416.077 624.699c-37.7 0-74.391-7.915-109.974-15.592-26.73-5.764-54.365-11.728-82.241-14.311-57.182-5.301-116.536-.665-173.94 3.825-16.332 1.274-33.22 2.596-49.65 3.647l-.122-1.896c16.418-1.05 33.3-2.37 49.624-3.647 57.48-4.492 116.923-9.135 174.263-3.821 27.99 2.594 55.684 8.568 82.467 14.346 38.796 8.37 78.916 17.014 120.105 15.337 31.168-1.277 62.629-5.518 93.05-9.617 29.968-4.04 60.956-8.216 91.704-9.57 45.957-2.021 92.83.146 138.164 2.243 16.477.761 33.52 1.55 50.236 2.121 180.18 6.175 363.999 4.418 541.762 2.722 84.524-.809 171.966-1.631 257.721-1.612v1.899c-85.844-.03-173.184.803-257.702 1.612-177.792 1.693-361.627 3.452-541.846-2.721-16.73-.574-33.776-1.362-50.26-2.124-45.29-2.097-92.12-4.256-137.991-2.243-30.663 1.35-61.607 5.522-91.533 9.556-30.467 4.106-61.97 8.351-93.227 9.633-3.546.145-7.083.213-10.61.213"/></g><g opacity=".5"><path fill="#e5e8ee" d="M418.093 612.654c-39.108 0-76.194-11.214-112.158-22.088-26.515-8.019-53.93-16.308-82.014-20.099-55.82-7.529-115.168-.613-172.566 6.076-16.868 1.966-34.31 4-51.056 5.573l-.179-1.892c16.726-1.569 34.158-3.603 51.016-5.567 57.508-6.706 116.979-13.639 173.036-6.07 28.237 3.81 55.726 12.124 82.312 20.16 39.014 11.796 79.365 23.979 122.015 21.734 31.018-1.645 62.124-7.341 92.205-12.847 29.57-5.417 60.145-11.015 90.692-12.787 45.825-2.657 92.716.559 138.065 3.664 16.52 1.132 33.603 2.302 50.315 3.164 180.711 9.305 365.806 6.697 544.807 4.177 82.878-1.166 168.563-2.374 252.533-2.374h2.129v1.9h-2.13c-83.96 0-169.63 1.207-252.505 2.373-179.034 2.52-364.165 5.129-544.93-4.18-16.728-.86-33.82-2.032-50.35-3.164-45.29-3.106-92.126-6.31-137.822-3.664-30.431 1.766-60.95 7.352-90.462 12.758-30.14 5.52-61.307 11.227-92.446 12.875-3.518.188-7.022.278-10.507.278"/></g><g opacity=".5"><path fill="#e5e8ee" d="M419.261 600.229c-40.287 0-77.425-14.325-113.436-28.213-26.342-10.161-53.582-20.667-81.943-25.584-54.743-9.487-114.57-.34-172.422 8.509-17.767 2.718-34.548 5.284-51.14 7.32l-.23-1.884c16.564-2.034 33.33-4.598 51.08-7.313 58.003-8.873 117.982-18.05 173.035-8.503 28.547 4.948 55.876 15.49 82.306 25.683 38.917 15.009 79.147 30.545 123.103 27.76 30.967-1.95 61.784-8.976 91.587-15.771 29.316-6.682 59.63-13.594 90.17-15.71 45.75-3.17 92.742 1.073 138.185 5.182 16.511 1.494 33.583 3.037 50.232 4.184 85.032 5.857 171.944 4.619 256 3.422 35.555-.503 72.312-.997 108.4-1.006 96.025.059 192.048.042 288.073.02 48.993-.009 97.973-.005 146.978-.018v1.899c-48.955.034-97.98.01-146.976.019-96.023.02-192.048.036-288.075-.02-36.13-.056-72.826.5-108.373 1.006-84.09 1.198-171.045 2.439-256.158-3.427-16.669-1.15-33.751-2.693-50.27-4.186-45.37-4.104-92.281-8.345-137.884-5.18-30.392 2.105-60.635 9-89.879 15.668-29.877 6.811-60.771 13.854-91.89 15.814-3.514.22-7.009.329-10.473.329"/></g><g opacity=".5"><path fill="#e5e8ee" d="M419.651 587.4c-41.204.001-78.064-16.916-113.806-33.32-26.22-12.033-53.332-24.475-82.08-30.291-54.021-10.935-114.392.129-172.781 10.826-17.668 3.236-34.357 6.294-50.637 8.697l-.277-1.88c16.247-2.397 32.92-5.451 50.572-8.684 58.562-10.731 119.119-21.825 173.497-10.823 28.965 5.862 56.18 18.35 82.498 30.43 38.509 17.671 78.336 35.952 123.303 32.786 31.005-2.18 61.61-10.313 91.21-18.178 29.223-7.767 59.44-15.797 90.15-18.149 45.784-3.515 92.943 1.655 138.542 6.652 16.435 1.8 33.432 3.662 49.964 5.065 84.55 7.167 171.144 5.613 254.886 4.097 35.926-.645 73.088-1.272 109.5-1.284 123.536.11 249.133.063 370.598.018l64.454-.023v1.899l-64.454.023c-121.463.047-247.06.093-370.6-.017-36.387-.055-73.55.636-109.464 1.284-83.795 1.508-170.435 3.07-255.08-4.105-16.554-1.405-33.565-3.267-50.013-5.07-45.512-4.987-92.572-10.143-138.188-6.647-30.536 2.34-60.667 10.348-89.807 18.091-29.685 7.888-60.38 16.046-91.565 18.24-3.502.245-6.98.363-10.422.363"/></g><g opacity=".5"><path fill="#e5e8ee" d="M419.248 574.177c-41.786.002-78.006-18.655-113.129-36.743-26.165-13.476-53.223-27.411-82.566-33.759-53.856-11.645-117.318 1.28-173.313 12.682-17.443 3.552-33.918 6.906-49.879 9.548l-.311-1.873c15.928-2.636 32.386-5.988 49.81-9.536 56.18-11.44 119.858-24.405 174.094-12.676 29.588 6.399 56.76 20.393 83.035 33.926 37.746 19.438 76.783 39.55 122.437 36.155 31.115-2.305 61.605-11.234 91.089-19.87 29.303-8.584 59.603-17.457 90.648-19.898 45.979-3.624 93.305 2.247 139.077 7.918 16.311 2.023 33.181 4.113 49.577 5.71 83.728 8.16 169.654 6.268 252.754 4.44 36.629-.807 74.454-1.67 111.62-1.597 151.3.18 303.893.088 435.05-.013v1.9c-131.151.1-283.746.191-435.053.013-37.077-.037-74.956.79-111.575 1.595-83.153 1.833-169.14 3.723-252.983-4.446-16.416-1.602-33.299-3.693-49.624-5.715-45.677-5.659-92.904-11.51-138.695-7.913-30.847 2.427-61.05 11.274-90.26 19.829-29.583 8.663-60.168 17.62-91.482 19.943-3.478.258-6.92.38-10.321.38"/></g><g opacity=".5"><path fill="#e5e8ee" d="M416.322 560.72c-41.19.002-76.308-19.3-110.37-38.019-26.061-14.323-53.01-29.13-82.66-35.44-54.4-11.57-118.114 1.846-174.323 13.687-16.982 3.578-33.022 6.957-48.602 9.673l-.327-1.869c15.55-2.712 31.573-6.087 48.538-9.662 56.393-11.88 120.31-25.343 175.111-13.686 29.922 6.364 56.996 21.244 83.178 35.631 37.035 20.356 75.31 41.41 121.155 37.258 30.55-2.764 60.365-11.803 89.2-20.545 30.261-9.172 61.547-18.658 93.826-20.96 45.696-3.257 92.591 2.939 137.934 8.933 16.718 2.209 34.006 4.492 50.82 6.237 86.035 8.925 174.637 6.443 260.317 4.04 34.184-.957 69.53-1.946 104.106-2.19 76.333-.539 153.953-.22 229.013.088 67.52.275 137.332.562 205.997.224l.01 1.9c-68.671.337-138.493.05-206.014-.225-75.058-.308-152.67-.627-228.992-.087-34.555.243-69.892 1.232-104.067 2.19-85.742 2.402-174.407 4.89-260.565-4.05-16.841-1.745-34.142-4.032-50.872-6.245-45.254-5.98-92.05-12.173-137.552-8.92-32.067 2.286-63.25 11.74-93.41 20.882-28.925 8.77-58.835 17.837-89.58 20.62-4.011.362-7.971.535-11.87.535"/></g><g opacity=".5"><path fill="#e5e8ee" d="M414.554 547.344c-41.045 0-75.746-19.53-109.4-38.475-25.79-14.515-52.458-29.525-81.976-35.91-55.007-11.894-119.633 1.832-176.661 13.95-16.122 3.424-31.35 6.661-46.139 9.322l-.338-1.87c14.76-2.656 29.975-5.889 46.082-9.311 57.214-12.154 122.059-25.932 177.457-13.947 29.8 6.444 56.595 21.525 82.507 36.112 38.3 21.557 74.464 41.943 120.238 37.685 30.38-2.815 59.901-12.285 88.452-21.444 31.298-10.04 63.662-20.424 97.355-22.125 42.893-2.166 86.767 4.218 129.2 10.393 19.313 2.81 39.28 5.717 58.705 7.734 105.193 10.929 214.728 5.288 320.656-.165 14.667-.754 29.283-1.508 43.828-2.213 81.09-3.94 163.892-1.142 243.968 1.561 62.574 2.112 127.275 4.293 190.74 3.252l.03 1.9c-63.503 1.04-128.236-1.14-190.835-3.254-80.036-2.7-162.803-5.495-243.81-1.563-14.545.708-29.157 1.46-43.822 2.214-106.004 5.459-215.611 11.104-320.95.156-19.465-2.021-39.451-4.929-58.783-7.742-42.344-6.163-86.127-12.53-128.83-10.378-33.446 1.69-65.689 12.034-96.872 22.038-28.648 9.191-58.268 18.695-88.857 21.527-4.042.375-8.025.553-11.945.553"/></g><g opacity=".5"><path fill="#e5e8ee" d="M412.498 534.54c-40.817.002-75.079-19.848-108.315-39.102-25.478-14.758-51.824-30.02-81.125-36.518-55.56-12.329-121.164 1.715-179.041 14.106-15.252 3.267-29.658 6.35-43.641 8.937l-.346-1.866c13.958-2.583 28.351-5.663 43.588-8.927 58.065-12.429 123.88-26.52 179.852-14.106 29.586 6.562 56.061 21.9 81.664 36.731 37.981 22.002 73.852 42.798 119.66 38.236 30.438-3.02 59.872-13.12 88.339-22.89 32.431-11.127 65.964-22.635 101.214-23.782 40.452-1.294 81.742 5.52 121.677 12.127 21.265 3.52 43.256 7.158 64.65 9.468 120.321 12.986 249.919 1.98 364.263-7.738 81.782-6.95 166.076-.803 247.594 5.132 61.37 4.471 124.834 9.088 186.692 8.084l.029 1.9c-61.938 1.015-125.446-3.615-186.861-8.088-81.446-5.934-165.663-12.074-247.294-5.136-114.426 9.723-244.123 20.74-364.626 7.734-21.448-2.315-43.465-5.958-64.756-9.48-39.85-6.594-81.077-13.424-121.304-12.104-34.968 1.136-68.364 12.596-100.66 23.679-28.57 9.802-58.113 19.941-88.768 22.984-4.23.422-8.392.619-12.485.619"/></g><g opacity=".5"><path fill="#e5e8ee" d="M410.327 522.235c-40.545.004-74.368-20.232-107.195-39.864-25.147-15.04-51.149-30.594-80.17-37.232-56.113-12.832-122.719 1.527-181.485 14.195-14.362 3.098-27.928 6.023-41.094 8.52L.03 465.99c13.14-2.496 26.695-5.42 41.047-8.513 58.96-12.71 125.785-27.117 182.306-14.188 29.316 6.704 55.453 22.334 80.726 37.45 37.741 22.574 73.394 43.898 119.331 38.88 30.622-3.344 60.107-14.222 88.62-24.74 33.601-12.4 68.346-25.218 105.23-25.83 38.39-.655 77.627 6.836 115.526 14.065 22.616 4.315 46.004 8.775 68.766 11.396 114.28 13.162 237.336.91 363.88-13.954 53.116-6.242 106.252.093 157.64 6.216 13.613 1.624 27.69 3.3 41.585 4.726 69.117 7.088 151.026 14.218 234.547 13.635l.016 1.9c-83.588.583-165.589-6.551-234.757-13.645-13.91-1.427-27.994-3.106-41.614-4.73-51.277-6.11-104.308-12.43-157.196-6.218-126.659 14.881-249.83 27.143-364.32 13.958-22.831-2.629-46.252-7.096-68.902-11.417-37.804-7.212-76.853-14.686-115.14-14.032-36.562.606-71.153 13.367-104.606 25.71-28.62 10.56-58.213 21.479-89.066 24.848-4.52.494-8.963.728-13.322.728"/></g><g opacity=".5"><path fill="#e5e8ee" d="M408.143 510.325c-40.246.002-73.66-20.667-106.092-40.724-24.817-15.346-50.477-31.217-79.185-38.013-56.642-13.404-124.287 1.282-183.972 14.235-13.46 2.924-26.175 5.683-38.511 8.082L.02 452.04c12.315-2.393 25.02-5.151 38.471-8.072 59.879-12.997 127.746-27.732 184.814-14.228 29.006 6.866 54.8 22.819 79.743 38.245 37.571 23.235 73.058 45.178 119.17 39.586 30.861-3.747 60.464-15.504 89.093-26.876 34.752-13.8 70.688-28.074 109.187-28.157h.532c36.693 0 74.01 8.214 110.109 16.163 23.489 5.172 47.78 10.52 71.44 13.472 120.406 15.016 255.178-4.83 363.467-20.775 53.72-7.915 106.878.952 158.287 9.525 13.24 2.207 26.929 4.488 40.463 6.46 70.772 10.311 153.091 21.362 234.447 21.977l-.015 1.9c-81.476-.616-163.871-11.678-234.707-21.997-13.554-1.975-27.25-4.258-40.5-6.467-51.265-8.549-104.275-17.39-157.696-9.52-108.409 15.964-243.326 35.828-363.98 20.781-23.75-2.963-48.084-8.319-71.617-13.5-35.994-7.926-73.212-16.12-109.7-16.12h-.526c-38.137.084-73.903 14.289-108.49 28.025-28.74 11.415-58.46 23.217-89.564 26.993-4.864.593-9.633.87-14.305.87"/></g><g opacity=".5"><path fill="#e5e8ee" d="M406.053 498.737c-39.935 0-72.974-21.132-105.046-41.641-24.498-15.67-49.832-31.871-78.21-38.825-57.194-14.011-125.903 1.007-186.528 14.26-12.541 2.741-24.384 5.33-35.879 7.615l-.37-1.862c11.476-2.283 23.31-4.87 35.842-7.608 60.827-13.298 129.767-28.37 187.387-14.25 28.684 7.028 54.154 23.317 78.781 39.068 37.444 23.947 72.804 46.553 119.098 40.325 30.939-4.17 60.599-16.883 89.283-29.174 35.931-15.4 73.04-31.272 113.153-30.645 35.57.6 71.57 9.63 106.386 18.364 24.16 6.06 49.141 12.327 73.576 15.643 115.129 15.622 242.588-6.752 355.048-26.496l8.102-1.42c54.272-9.524 107.283 1.985 158.548 13.109 12.982 2.82 26.406 5.732 39.692 8.275 82.62 15.81 157.277 29.058 234.348 31.032l-.049 1.9c-77.212-1.978-151.953-15.24-234.656-31.066-13.307-2.547-26.745-5.465-39.738-8.283-51.08-11.087-103.9-22.55-157.818-13.098l-8.1 1.422C1046.308 465.15 918.69 487.56 803.27 471.888c-24.538-3.33-49.573-9.61-73.782-15.683-34.71-8.707-70.604-17.71-105.958-18.306-39.689-.676-76.622 15.174-112.371 30.49-28.8 12.344-58.583 25.105-89.778 29.31a114.492 114.492 0 0 1-15.328 1.038"/></g><g opacity=".5"><path fill="#e5e8ee" d="M1599.202 491.865c-80.348-3.535-158.766-22.184-234.601-40.217-13.138-3.122-26.388-6.682-39.203-10.123-50.792-13.643-103.316-27.748-157.707-16.707l-13.738 2.796c-57.222 11.664-111.27 22.678-170.728 26.703-14.834 1.005-29.92 2.425-44.513 3.797-44.158 4.157-89.816 8.454-134.734 1.84-25.01-3.683-50.461-10.929-75.077-17.933-33.69-9.592-68.53-19.509-102.923-20.523-40.881-1.198-78.802 16.192-115.434 33.018-28.895 13.271-58.772 26.996-90.124 31.655-47.155 7.022-84.386-17.582-120.386-41.362-24.207-15.993-49.238-32.528-77.286-39.636-57.751-14.625-127.55.741-189.13 14.3-11.61 2.555-22.57 4.97-33.22 7.134l-.378-1.863c10.634-2.161 21.588-4.572 33.187-7.126 61.791-13.603 131.822-29.024 190.008-14.283 28.361 7.183 53.53 23.81 77.867 39.89 37.343 24.67 72.624 47.962 119.06 41.07 31.083-4.622 60.836-18.288 89.608-31.505 36.832-16.918 74.934-34.414 116.283-33.191 34.63 1.022 69.586 10.972 103.389 20.594 24.554 6.99 49.945 14.217 74.836 17.88 44.685 6.584 90.233 2.297 134.275-1.85 14.604-1.372 29.706-2.793 44.563-3.802 59.333-4.015 113.32-15.02 170.479-26.668l13.736-2.796c54.837-11.123 107.576 3.035 158.58 16.733 12.801 3.438 26.04 6.993 39.149 10.112 75.751 18.012 154.078 36.638 234.247 40.166z"/></g><g opacity=".5"><path fill="#e5e8ee" d="M1599.18 487.017c-78.893-4.722-156.654-26.741-231.852-48.035l-2.697-.763c-13.028-3.69-26.158-7.886-38.853-11.941-50.426-16.114-102.568-32.783-157.442-20.1a7147.14 7147.14 0 0 0-26.207 6.13c-52.563 12.372-102.208 24.055-158.086 28.576-15.026 1.217-30.304 2.915-45.083 4.558-44.099 4.904-89.706 9.979-134.655 2.872-25.492-4.03-51.336-12.251-76.331-20.204-32.895-10.461-66.908-21.284-100.585-22.714-41.93-1.817-80.48 17.155-117.767 35.468-28.876 14.181-58.73 28.844-90.095 33.93-47.296 7.676-84.445-17.627-120.38-42.097-23.95-16.307-48.71-33.17-76.436-40.406-58.37-15.233-129.276.507-191.839 14.391-10.642 2.363-20.695 4.595-30.476 6.625l-.386-1.858c9.768-2.028 19.814-4.258 30.45-6.619 62.77-13.933 133.919-29.73 192.73-14.376 28.044 7.32 52.944 24.274 77.026 40.673 37.265 25.377 72.452 49.346 119.007 41.795 31.084-5.045 60.811-19.643 89.56-33.761 37.502-18.42 76.266-37.45 118.687-35.664 33.93 1.443 68.067 12.302 101.08 22.803 24.926 7.93 50.704 16.13 76.05 20.137 44.694 7.068 90.172 2.008 134.151-2.883 14.79-1.645 30.086-3.347 45.14-4.562 55.734-4.511 105.313-16.179 157.805-28.532 8.64-2.034 17.363-4.088 26.214-6.131 55.378-12.794 107.778 3.949 158.443 20.137 12.684 4.053 25.797 8.245 38.794 11.924l2.697.763c75.102 21.267 152.762 43.256 231.452 47.968z"/></g><g opacity=".5"><path fill="#e5e8ee" d="M1599.175 481.244c-79.068-5.567-156.267-30.703-230.926-55.013l-3.58-1.166c-12.975-4.224-26.042-9.033-38.678-13.687-50.006-18.408-101.708-37.445-157.053-23.014-10.53 2.747-20.834 5.508-31.001 8.236-50.435 13.523-98.07 26.296-153.087 31.343-15.347 1.405-30.948 3.375-46.038 5.278-44.099 5.565-89.702 11.322-134.703 3.8-26.097-4.362-52.426-13.559-77.888-22.452-32.295-11.282-65.69-22.948-98.868-24.822-42.582-2.393-81.488 17.988-119.127 37.713-28.682 15.028-58.342 30.566-89.524 36.027-47.324 8.285-84.433-17.672-120.315-42.779-23.729-16.602-48.266-33.77-75.677-41.104-59.076-15.806-131.106.335-194.66 14.574-9.647 2.161-18.758 4.203-27.647 6.09L.01 398.41c8.876-1.884 17.983-3.926 27.624-6.084C91.401 378.04 163.68 361.85 223.2 377.77c27.734 7.42 52.412 24.685 76.275 41.382 37.204 26.033 72.342 50.616 118.903 42.466 30.887-5.411 60.412-20.88 88.967-35.84 37.869-19.841 76.987-40.371 120.116-37.927 33.443 1.89 66.965 13.6 99.387 24.923 25.386 8.868 51.637 18.038 77.572 22.373 44.736 7.474 90.19 1.74 134.155-3.81 15.103-1.905 30.723-3.877 46.1-5.288 54.857-5.03 102.418-17.784 152.77-31.284 10.171-2.728 20.48-5.493 31.014-8.238 55.913-14.577 107.908 4.559 158.189 23.07 12.619 4.646 25.67 9.45 38.61 13.662l3.582 1.166c74.547 24.274 151.634 49.373 230.468 54.923z"/></g><g opacity=".5"><path fill="#e5e8ee" d="M1599.168 473.938c-80.632-5.867-158.731-34.215-234.259-61.628l-.212-.078c-12.978-4.712-26.035-10.097-38.663-15.305-49.55-20.436-100.789-41.567-156.584-25.217-13.38 3.92-26.364 9.086-38.921 14.082-16.604 6.606-33.776 13.436-52.078 17.477-27.096 5.983-55.218 8.707-82.416 11.341-3.48.336-6.956.675-10.43 1.018-15.851 1.565-31.975 3.788-47.568 5.94-44.128 6.083-89.763 12.372-134.817 4.577-26.958-4.667-53.97-14.83-80.096-24.657-31.87-11.989-64.826-24.384-97.711-26.76-42.777-3.107-81.653 18.615-119.25 39.609-28.268 15.785-57.497 32.104-88.255 37.848-47.244 8.836-84.316-17.711-120.152-43.377-23.558-16.868-47.913-34.31-75.026-41.694-59.892-16.308-136.27.985-197.645 14.887-8.481 1.918-16.73 3.787-24.68 5.513L0 385.66c7.949-1.727 16.19-3.592 24.665-5.512C86.243 366.2 162.88 348.846 223.228 365.28c27.445 7.474 51.94 25.018 75.633 41.983 35.514 25.432 72.23 51.73 118.7 43.054 30.45-5.687 59.542-21.93 87.677-37.64 37.84-21.13 76.953-42.98 120.313-39.846 33.16 2.395 66.246 14.842 98.242 26.88 26.042 9.795 52.97 19.926 79.748 24.562 44.773 7.748 90.252 1.476 134.237-4.589 15.61-2.152 31.752-4.378 47.641-5.947 3.474-.345 6.952-.681 10.432-1.018 27.143-2.628 55.208-5.346 82.192-11.306 18.152-4.008 35.25-10.81 51.785-17.387 12.595-5.012 25.622-10.194 39.089-14.139 56.435-16.545 107.987 4.722 157.84 25.283 12.61 5.202 25.647 10.579 38.59 15.276l.21.076c75.406 27.371 153.38 55.673 233.748 61.52z"/></g><g opacity=".5"><g opacity=".5"/><g clip-path="url(#v5jwa)" opacity=".5"><path fill="#e5e8ee" d="M1599.18 464.477c-83.566-5.362-167.226-38.287-234.45-64.745-13.063-5.142-26.176-11.045-38.856-16.754-49.067-22.099-99.81-44.944-156.021-26.445-13.068 4.302-25.61 9.824-37.74 15.163-16.731 7.364-34.032 14.98-52.874 19.451-26.957 6.397-55.05 9.168-82.218 11.844-3.57.352-7.136.705-10.697 1.064-16.631 1.677-33.554 4.137-49.92 6.513-44.162 6.416-89.832 13.054-134.91 5.162-27.954-4.889-55.832-15.996-82.791-26.739-31.805-12.67-64.694-25.774-97.545-28.51-42.52-3.553-80.722 19.122-117.641 41.04-27.601 16.386-56.145 33.332-86.378 39.28a97.162 97.162 0 0 1-18.836 1.86c-38.36.004-70.14-23.19-101.022-45.721-23.43-17.094-47.656-34.767-74.494-42.146-60.863-16.741-138.498 1.077-200.872 15.388-7.368 1.69-14.551 3.337-21.503 4.885L0 373.211a3205.91 3205.91 0 0 0 21.491-4.88c62.583-14.362 140.47-32.235 201.801-15.37 27.17 7.472 51.54 25.251 75.11 42.446 35.462 25.875 72.142 52.625 118.37 43.533 29.913-5.888 58.312-22.746 85.774-39.052 37.176-22.07 75.638-44.897 118.77-41.3 33.134 2.758 66.154 15.917 98.09 28.639 26.87 10.706 54.655 21.778 82.414 26.634 44.78 7.831 90.294 1.221 134.31-5.172 16.387-2.38 33.331-4.841 50.004-6.524 3.56-.359 7.128-.712 10.699-1.064 27.107-2.67 55.134-5.436 81.967-11.802 18.675-4.431 35.894-12.01 52.548-19.343 12.17-5.356 24.756-10.896 37.91-15.225 56.914-18.731 107.997 4.27 157.399 26.515 12.657 5.7 25.747 11.593 38.771 16.72 67.098 26.408 150.606 59.27 233.873 64.615z"/></g></g><g opacity=".5"><g opacity=".5"/><g clip-path="url(#v5jwb)" opacity=".5"><path fill="#e5e8ee" d="M1599.18 452.473c-78.72-5.006-155.816-33.377-234.445-64.526-13.288-5.263-26.612-11.343-39.497-17.221-51.049-23.294-99.267-45.3-155.341-26.58-13.17 4.393-25.807 10.052-38.023 15.524-16.623 7.443-33.814 15.14-52.527 19.724-27.217 6.67-55.608 9.653-83.063 12.538l-9.856 1.043c-16.26 1.74-32.785 4.176-48.764 6.531-45.234 6.67-92.01 13.571-138.32 5.499-28.487-4.963-56.955-16.256-84.484-27.18-32.486-12.889-66.082-26.216-99.56-28.985-41.648-3.434-78.773 19.173-114.664 41.052-26.827 16.353-54.566 33.261-84.084 39.25-46.581 9.45-83.907-17.797-119.999-44.145-23.335-17.037-47.466-34.653-73.777-42.032-60.512-16.97-138.043.786-200.341 15.056a3304.518 3304.518 0 0 1-22.023 4.99L0 361.157c7.105-1.575 14.46-3.26 22.01-4.988 62.505-14.319 140.298-32.135 201.278-15.033 26.642 7.472 50.912 25.193 74.384 42.327 35.761 26.104 72.737 53.107 118.5 43.816 29.193-5.92 56.788-22.741 83.476-39.01 36.15-22.035 73.544-44.81 115.808-41.323 33.761 2.792 67.488 16.175 100.105 29.115 27.44 10.887 55.814 22.144 84.11 27.073 46.016 8.017 92.633 1.145 137.716-5.506 15.998-2.36 32.541-4.798 48.838-6.541l9.861-1.043c27.392-2.88 55.72-5.854 82.808-12.492 18.548-4.547 35.658-12.207 52.203-19.615 12.26-5.49 24.94-11.168 38.2-15.593 56.778-18.946 107.59 4.232 156.73 26.653 12.863 5.87 26.164 11.94 39.41 17.186 78.48 31.088 155.42 59.407 233.862 64.395z"/></g></g><g opacity=".5"><path fill="#e5e8ee" d="M1599.173 438.864c-79.628-5.844-156.337-32.697-234.447-62.076-13.662-5.137-27.377-11.116-40.639-16.902-48.68-21.229-99.027-43.181-154.414-26.114-13.778 4.245-27.113 9.917-40.011 15.4-16.19 6.885-32.931 14.004-50.777 18.416-27.99 6.917-57.146 10.353-85.342 13.677l-7.544.89c-14.509 1.726-29.225 3.906-43.457 6.016-47.248 7.003-96.104 14.25-144.752 5.776-28.173-4.904-56.587-15.71-84.067-26.16-33.698-12.814-68.541-26.064-103.04-28.429-40.641-2.828-76.833 18.859-111.82 39.79-26.312 15.74-53.519 32.015-82.533 37.9-46.059 9.334-83.922-17.665-120.547-43.783-23.305-16.617-47.4-33.8-73.157-41.136-59.303-16.889-135.611.217-196.931 13.962-8.703 1.95-17.157 3.846-25.288 5.588l-.397-1.86c8.123-1.74 16.574-3.633 25.27-5.582 61.528-13.79 138.107-30.955 197.864-13.933 26.075 7.424 50.306 24.705 73.74 41.413 36.297 25.882 73.822 52.654 119.068 43.468 28.697-5.817 55.761-22.01 81.934-37.667 35.24-21.085 71.692-42.867 112.927-40.055 34.779 2.383 69.757 15.686 103.586 28.55 27.396 10.416 55.723 21.19 83.717 26.063 48.342 8.414 97.05 1.195 144.149-5.785 14.245-2.11 28.974-4.293 43.512-6.021l7.544-.89c28.137-3.317 57.233-6.747 85.108-13.636 17.698-4.374 34.368-11.463 50.488-18.32 12.944-5.502 26.325-11.192 40.196-15.466 56.074-17.28 106.735 4.819 155.734 26.188 13.24 5.774 26.93 11.746 40.547 16.866 77.978 29.326 154.542 56.134 233.917 61.957z"/></g><g opacity=".5"><path fill="#e5e8ee" d="M1599.173 424.006c-82.093-6.27-164.067-33.276-234.458-58.097-14.15-4.99-28.354-10.854-42.091-16.528-48.468-20.019-98.584-40.723-153.228-25.187-14.342 4.074-28.342 9.708-41.884 15.155-15.765 6.342-32.067 12.899-49.132 17.111-28.969 7.155-59.092 11.018-88.223 14.758l-4.607.593c-12.603 1.618-25.37 3.52-37.718 5.358-49.293 7.337-100.268 14.93-151.206 6.083-27.87-4.837-56.156-15.145-83.512-25.115-34.7-12.645-70.581-25.72-105.968-27.764-39.484-2.253-74.414 18.108-108.154 37.825-26.24 15.335-53.372 31.193-82.665 36.466-45.938 8.258-83.805-17.643-120.424-42.703-23.38-16-47.561-32.545-73.491-39.87-58.544-16.54-130.563-.852-194.105 12.985-9.742 2.121-18.946 4.127-27.905 5.967l-.382-1.861c8.948-1.839 18.146-3.842 27.884-5.962 60.604-13.199 136.029-29.616 195.023-12.957 26.231 7.409 50.541 24.043 74.05 40.13 36.301 24.844 73.844 50.525 119.014 42.402 28.963-5.214 55.947-20.984 82.042-36.236 33.985-19.861 69.143-40.391 109.225-38.082 35.664 2.06 71.677 15.184 106.506 27.877 27.276 9.94 55.483 20.218 83.189 25.027 50.632 8.794 101.455 1.226 150.602-6.09 12.355-1.841 25.132-3.742 37.753-5.366l4.608-.591c29.077-3.73 59.144-7.59 88.008-14.716 16.936-4.182 33.176-10.714 48.88-17.031 13.585-5.467 27.635-11.12 42.072-15.222 55.276-15.705 105.706 5.12 154.473 25.261 13.715 5.664 27.896 11.522 41.996 16.492 70.278 24.781 152.113 51.744 233.973 57.993z"/></g><g opacity=".5"><path fill="#e5e8ee" d="M1599.167 408.113c-82.596-6.074-164.881-30.108-234.477-52.817-14.746-4.813-29.548-10.547-43.861-16.093-48.164-18.665-97.97-37.962-151.763-23.882-19.495 5.102-38.583 10.744-57.04 16.203-42.144 12.458-81.948 24.226-126.955 30.37-10.519 1.438-21.174 3.032-31.48 4.57-51.402 7.687-104.55 15.632-157.79 6.433-27.574-4.769-55.66-14.571-82.822-24.05-35.514-12.394-72.236-25.215-108.403-27.02-38.684-1.944-73.024 17.228-106.241 35.756-25.99 14.498-52.867 29.49-81.803 34.471-45.537 7.833-83.782-17.035-120.758-41.094-23.51-15.297-47.82-31.111-73.645-38.196-58.131-15.954-129.07-1.056-191.653 12.086-10.503 2.205-20.426 4.289-30.09 6.182l-.366-1.861c9.652-1.896 19.569-3.975 30.065-6.18 62.798-13.188 133.972-28.132 192.55-12.06 26.107 7.163 50.542 23.062 74.174 38.436 36.667 23.86 74.59 48.524 119.4 40.814 28.617-4.924 55.347-19.836 81.2-34.256 33.456-18.66 68.065-37.958 107.262-35.994 36.439 1.82 73.292 14.683 108.935 27.124 27.088 9.453 55.1 19.23 82.519 23.97 52.934 9.149 105.933 1.225 157.187-6.437 10.31-1.544 20.97-3.136 31.503-4.574 44.862-6.127 84.6-17.874 126.67-30.313 18.475-5.46 37.577-11.11 57.098-16.217 54.397-14.235 104.489 5.176 152.931 23.947 14.291 5.537 29.068 11.263 43.765 16.059 69.49 22.674 151.634 46.67 234.029 52.728z"/></g><g opacity=".5"><path fill="#e5e8ee" d="M1599.176 391.406c-68.736-4.526-143.25-19.286-234.502-46.452-15.463-4.604-30.971-10.19-45.966-15.592-47.761-17.204-97.148-34.999-150.005-22.279-21.899 5.265-43.485 11.373-64.359 17.278-38.311 10.84-77.926 22.05-119.757 28.035-8.222 1.175-16.423 2.408-24.61 3.639-53.628 8.06-109.09 16.399-164.68 6.83-27.273-4.695-55.09-13.987-81.995-22.97-36.169-12.079-73.57-24.569-110.423-26.22-37.917-1.667-71.883 16.147-104.747 33.402-25.85 13.573-52.578 27.605-81.212 32.228-45.214 7.307-83.75-16.245-121.02-39.014-23.7-14.477-48.21-29.45-74.088-36.216-57.97-15.163-127.824-1.134-189.451 11.245-11.155 2.24-21.69 4.356-31.983 6.268l-.348-1.865c10.281-1.91 20.81-4.025 31.956-6.264 61.832-12.418 131.91-26.498 190.309-11.221 26.148 6.837 50.778 21.882 74.594 36.431 36.979 22.59 75.227 45.945 119.727 38.764 28.33-4.576 54.92-18.536 80.633-32.036 33.086-17.372 67.26-35.37 105.715-33.617 37.119 1.66 74.648 14.194 110.939 26.314 26.837 8.96 54.587 18.228 81.717 22.896 55.288 9.518 108.131 1.575 164.074-6.834 8.192-1.23 16.397-2.463 24.622-3.64 41.707-5.968 81.26-17.157 119.51-27.982 20.893-5.91 42.498-12.025 64.433-17.299 53.42-12.843 103.071 5.04 151.092 22.34 14.973 5.392 30.453 10.97 45.864 15.558 91.113 27.124 165.495 41.861 234.086 46.378z"/></g><g opacity=".5"><path fill="#e5e8ee" d="M1599.186 374.1c-73.133-3.97-152.039-17.166-234.529-39.225-16.298-4.36-32.625-9.776-48.414-15.013-47.243-15.671-96.094-31.878-147.93-20.465-27.693 6.095-56.18 13.493-83.73 20.65-73.124 18.991-148.191 38.484-223.732 38.488-21.907 0-43.836-1.64-65.789-5.402-26.938-4.621-54.42-13.392-80.995-21.875-36.703-11.717-74.654-23.83-112.126-25.388-37.233-1.556-70.977 14.91-103.626 30.828-25.797 12.577-52.475 25.582-80.867 29.797-44.875 6.668-83.69-15.313-121.217-36.574-23.951-13.567-48.716-27.6-74.774-33.983-57.986-14.209-126.763-1.1-187.445 10.462-11.714 2.233-22.781 4.343-33.645 6.243l-.327-1.871c10.85-1.897 21.909-4.006 33.616-6.237 60.87-11.6 129.858-24.747 188.254-10.441 26.311 6.446 51.192 20.541 75.257 34.175 37.244 21.1 75.751 42.908 120.004 36.35 28.1-4.174 54.642-17.116 80.312-29.629 32.862-16.019 66.843-32.564 104.536-31.02 37.726 1.57 75.802 13.725 112.627 25.478 26.513 8.464 53.93 17.216 80.739 21.812 97.248 16.682 194.59-8.602 288.719-33.052 27.567-7.159 56.074-14.564 83.8-20.667 52.346-11.523 101.452 4.766 148.937 20.519 15.765 5.229 32.063 10.636 48.304 14.978 82.367 22.028 161.142 35.204 234.145 39.166z"/></g><g opacity=".5"><path fill="#e5e8ee" d="M1599.201 356.404c-81.14-3.227-160.059-13.78-234.563-31.362-17.25-4.068-34.516-9.292-51.211-14.344-46.616-14.102-94.815-28.684-145.526-18.524-30.524 6.114-61.793 13.907-92.03 21.442-91.359 22.767-185.823 46.31-280.805 30.06-26.553-4.545-53.616-12.793-79.787-20.77-37.157-11.328-75.58-23.04-113.624-24.557-36.502-1.482-69.925 13.54-102.27 28.042-25.98 11.648-52.844 23.694-81.294 27.303-44.66 5.663-83.537-14.445-121.134-33.894-24.283-12.562-49.394-25.552-75.88-31.533-58.132-13.124-125.85-.982-185.593 9.736-12.205 2.188-23.734 4.256-35.126 6.118l-.308-1.875c11.379-1.86 22.9-3.926 35.098-6.112 59.922-10.748 127.843-22.93 186.348-9.719 26.724 6.034 51.943 19.08 76.334 31.698 37.34 19.317 75.95 39.296 120.024 33.696 28.169-3.574 54.9-15.559 80.752-27.153 32.547-14.588 66.215-29.686 103.123-28.207 38.29 1.53 76.832 13.279 114.103 24.639 26.115 7.962 53.118 16.193 79.553 20.716 94.586 16.184 188.857-7.313 280.026-30.03 30.258-7.541 61.548-15.338 92.116-21.463 51.18-10.257 99.61 4.4 146.448 18.57 16.67 5.042 33.907 10.256 51.1 14.315 74.386 17.554 153.184 28.087 234.2 31.309z"/></g><g opacity=".5"><path fill="#e5e8ee" d="M403.848 341.82c-38.252.003-72.796-16.182-106.332-31.891-24.627-11.535-50.092-23.465-76.838-28.942-58.323-11.95-122.147-1.27-183.866 9.058-12.64 2.116-24.581 4.114-36.465 5.914l-.287-1.876c11.87-1.799 23.804-3.797 36.439-5.911 61.892-10.357 125.884-21.068 184.56-9.049 26.966 5.526 52.534 17.503 77.26 29.087 37.62 17.622 76.526 35.85 120.297 30.881 27.977-3.17 54.782-14.022 80.706-24.522 32.582-13.191 66.31-26.828 102.664-25.406 38.84 1.524 77.804 12.863 115.489 23.826 25.624 7.457 52.122 15.168 78.106 19.612 92.098 15.755 183.583-6.116 272.054-27.269 32.637-7.8 66.386-15.869 99.5-21.863 49.891-9.025 97.534 3.987 143.605 16.574 17.694 4.836 35.994 9.835 54.26 13.56 66.37 13.532 140.81 20.85 234.26 23.034l-.045 1.9c-93.565-2.186-168.11-9.518-234.593-23.073-18.33-3.738-36.66-8.745-54.384-13.588-45.863-12.532-93.288-25.488-142.766-16.536-33.062 5.981-66.782 14.044-99.394 21.84-88.66 21.197-180.34 43.112-272.816 27.294-26.09-4.465-52.644-12.19-78.317-19.662-37.575-10.933-76.428-22.237-115.034-23.75-35.984-1.416-69.481 12.153-101.874 25.27-26.044 10.545-52.973 21.447-81.205 24.647-5.058.572-10.053.842-14.984.842"/></g><g opacity=".5"><path fill="#e5e8ee" d="M861.953 330.932c-22.033 0-44.15-1.63-66.339-5.438-25.52-4.382-51.443-11.582-76.513-18.547-38.006-10.558-77.305-21.478-116.498-22.995-35.584-1.37-69.204 10.75-101.719 22.482-26.15 9.436-53.193 19.193-81.26 21.981-43.948 4.369-83.356-12.163-121.472-28.142-25.002-10.483-50.856-21.322-77.884-26.278-58.5-10.723-121.377-.987-182.187 8.428-13.054 2.02-25.386 3.931-37.749 5.656l-.262-1.882c12.35-1.721 24.674-3.63 37.723-5.65 60.96-9.44 124.004-19.203 182.817-8.42 27.23 4.993 53.181 15.872 78.277 26.396 37.898 15.89 77.087 32.323 120.55 28.002 27.833-2.763 54.761-12.482 80.803-21.878 32.688-11.793 66.458-23.972 102.437-22.595 39.414 1.53 78.821 12.477 116.933 23.064 25.024 6.952 50.899 14.143 76.327 18.503 89.717 15.404 178.563-4.993 264.489-24.71 34.817-7.989 70.82-16.253 106.308-21.989 48.494-7.838 95.183 3.571 140.344 14.604 18.862 4.61 38.367 9.374 57.846 12.716 79.389 13.632 165.294 14.147 234.318 14.557l-.011 1.9c-69.094-.413-155.085-.928-234.63-14.582-19.542-3.356-39.08-8.131-57.973-12.744-44.976-10.99-91.482-22.346-139.59-14.576-35.425 5.727-71.4 13.981-106.187 21.964-64.902 14.895-131.474 30.171-198.898 30.173"/></g><g opacity=".5"><path fill="#e5e8ee" d="M862.81 322.228c-22.143 0-44.386-1.643-66.722-5.503-24.804-4.288-49.953-10.97-74.274-17.43-38.51-10.228-78.329-20.803-118.185-22.325-35.228-1.362-69.052 9.38-101.734 19.753-26.298 8.348-53.493 16.98-81.444 19.368-43.559 3.724-83.244-11.012-121.622-25.26-25.4-9.428-51.664-19.179-78.969-23.604-58.602-9.491-120.562-.682-180.486 7.832-12.884 1.833-26.206 3.725-39.053 5.36l-.241-1.884c12.836-1.631 26.15-3.525 39.024-5.356 60.068-8.537 122.177-17.367 181.06-7.825 27.49 4.452 53.843 14.237 79.326 23.696 38.18 14.175 77.662 28.838 120.798 25.147 27.742-2.368 54.834-10.968 81.034-19.284 32.837-10.423 66.854-21.19 102.38-19.842 40.068 1.53 79.99 12.135 118.598 22.39 24.283 6.448 49.39 13.116 74.11 17.392 87.395 15.1 173.672-3.928 257.112-22.335 36.891-8.139 75.038-16.553 112.814-21.924 46.95-6.669 92.545 3.193 136.64 12.733 20.177 4.363 41.04 8.876 61.871 11.791 64.224 8.982 131.174 7.82 195.928 6.688 12.868-.224 25.695-.446 38.45-.59l.021 1.899c-12.75.144-25.572.366-38.438.59-64.821 1.132-131.853 2.297-196.223-6.706-20.902-2.923-41.8-7.444-62.01-11.816-43.933-9.506-89.362-19.333-135.974-12.707-37.703 5.358-75.814 13.767-112.67 21.898-62.335 13.751-126.265 27.852-191.121 27.854"/></g><g opacity=".5"><path fill="#e5e8ee" d="M863.813 313.741c-22.267 0-44.657-1.666-67.162-5.605-23.905-4.182-48.105-10.346-71.506-16.306-39.136-9.968-79.606-20.275-120.259-21.768-35.012-1.297-68.988 8.085-101.85 17.147-26.479 7.305-53.86 14.857-81.752 16.864-43.187 3.102-83.14-9.9-121.778-22.48-25.798-8.401-52.473-17.087-80.032-20.997-58.523-8.312-119.558-.397-178.586 7.251-13.358 1.73-27.17 3.52-40.57 5.064L.1 271.023c13.388-1.54 27.193-3.33 40.547-5.06 59.151-7.664 120.321-15.595 179.093-7.25 27.722 3.938 54.478 12.65 80.353 21.073 38.466 12.525 78.234 25.48 121.055 22.392 27.703-1.995 54.993-9.522 81.383-16.8 33-9.102 67.132-18.498 102.425-17.216 40.857 1.503 81.425 11.835 120.658 21.828 23.367 5.95 47.529 12.104 71.364 16.275 85.122 14.895 168.843-2.913 249.81-20.139 38.9-8.275 79.127-16.831 119.167-21.724 45.236-5.53 89.542 2.881 132.39 11.014 21.67 4.114 44.077 8.369 66.435 10.802 56.458 6.148 114.94 3.284 171.502.514 20.69-1.012 42.084-2.06 62.935-2.636l.053 1.9c-20.832.575-42.216 1.621-62.894 2.634-56.637 2.773-115.2 5.64-171.801-.524-22.432-2.443-44.878-6.701-66.584-10.823-42.703-8.102-86.853-16.484-131.806-10.995-39.957 4.881-80.141 13.43-119.002 21.696-59.78 12.718-121.065 25.755-183.37 25.757"/></g><g opacity=".5"><path fill="#e5e8ee" d="M864.855 305.437c-22.388.002-44.923-1.696-67.613-5.738-22.786-4.06-45.814-9.713-68.084-15.177-39.948-9.803-81.255-19.94-122.908-21.358-34.786-1.212-68.953 6.91-101.989 14.737-26.687 6.324-54.289 12.864-82.182 14.53-42.851 2.564-83.085-8.855-122.002-19.892-26.168-7.421-53.222-15.094-80.98-18.538-58.183-7.22-118.214-.154-176.269 6.67-13.977 1.645-28.433 3.343-42.522 4.798l-.196-1.888c14.078-1.454 28.524-3.152 42.496-4.795 58.169-6.84 118.32-13.913 176.724-6.669 27.903 3.46 55.03 11.155 81.263 18.595 38.764 10.993 78.846 22.359 121.372 19.823 27.732-1.656 55.248-8.175 81.86-14.483 33.158-7.855 67.474-15.958 102.488-14.788 41.852 1.427 83.256 11.588 123.297 21.413 22.242 5.46 45.239 11.1 67.966 15.151 82.893 14.772 164.058-1.96 242.548-18.144 40.876-8.427 83.144-17.142 125.457-21.432 43.341-4.403 86.135 2.672 127.514 9.512 23.37 3.861 47.537 7.855 71.611 9.764 51.76 4.1 104.982-.275 156.453-4.509 25.642-2.11 52.16-4.288 78.045-5.375l.078 1.9c-25.848 1.082-52.344 3.26-77.968 5.369-51.546 4.237-104.85 8.621-156.756 4.507-24.156-1.915-48.363-5.915-71.772-9.783-41.256-6.815-83.92-13.866-127.011-9.497-42.22 4.28-84.437 12.986-125.267 21.405-57.227 11.8-115.885 23.89-175.653 23.892"/></g><g opacity=".5"><path fill="#e5e8ee" d="M865.862 297.32c-22.486 0-45.159-1.738-68.021-5.913-21.42-3.914-43.04-9.064-63.945-14.042-40.988-9.76-83.366-19.852-126.274-21.122-34.585-1.026-68.872 5.893-102.02 12.583-26.943 5.438-54.807 11.062-82.786 12.43-42.6 2.102-83.159-7.912-122.39-17.576-26.452-6.516-53.806-13.253-81.677-16.296-57.478-6.273-116.329-.002-173.248 6.069-14.842 1.582-30.188 3.219-45.206 4.596l-.175-1.892c15.005-1.375 30.344-3.012 45.181-4.592 57.017-6.082 115.972-12.365 173.655-6.069 27.997 3.056 55.412 9.81 81.924 16.338 39.1 9.636 79.537 19.586 121.843 17.526 27.837-1.362 55.628-6.971 82.506-12.394 33.255-6.714 67.635-13.639 102.448-12.623 43.104 1.277 85.579 11.393 126.658 21.174 20.883 4.975 42.476 10.118 63.848 14.02 80.746 14.751 159.347-1.076 235.36-16.379 42.81-8.619 87.077-17.529 131.693-21.08 41.212-3.292 82.198 2.584 121.831 8.26 25.334 3.625 51.527 7.377 77.571 8.716 48.566 2.495 98.11-3.166 146.018-8.644 29.048-3.318 59.088-6.75 88.537-8.317l.1 1.897c-29.391 1.563-59.4 4.992-88.42 8.31-47.986 5.481-97.612 11.154-146.332 8.65-26.13-1.344-52.37-5.099-77.743-8.732-39.531-5.662-80.413-11.504-121.41-8.249-44.502 3.544-88.714 12.445-131.47 21.052-54.713 11.015-110.768 22.299-168.056 22.299"/></g><g opacity=".5"><path fill="#e5e8ee" d="M866.751 289.355c-22.55 0-45.327-1.791-68.35-6.133-19.813-3.734-39.789-8.395-59.103-12.904-42.264-9.867-85.968-20.069-130.407-21.087-34.32-.775-68.629 5.083-101.783 10.758-27.273 4.67-55.474 9.499-83.645 10.625-42.483 1.702-83.494-7.104-123.133-15.62-26.581-5.71-54.068-11.613-81.892-14.346-56.365-5.538-113.79.042-169.322 5.442-16.021 1.555-32.585 3.166-48.834 4.476l-.152-1.891c16.232-1.31 32.788-2.922 48.802-4.477 55.624-5.404 113.141-10.995 169.692-5.442 27.932 2.747 55.473 8.661 82.105 14.382 39.525 8.486 80.378 17.263 122.66 15.577 28.045-1.121 56.186-5.938 83.398-10.597 33.244-5.692 67.603-11.574 102.15-10.786 44.634 1.024 88.433 11.248 130.79 21.136 19.298 4.503 39.252 9.16 59.026 12.889 78.714 14.835 154.785-.27 228.356-14.874 44.68-8.872 90.881-18.044 137.81-20.695 38.781-2.2 77.607 2.626 115.152 7.287 27.614 3.43 56.173 6.977 84.501 7.706 46.188 1.18 92.886-5.504 138.056-11.977 31.616-4.528 64.31-9.214 96.554-11.16l.116 1.895c-32.17 1.943-64.822 6.62-96.399 11.145-45.25 6.486-92.044 13.19-138.376 11.996-28.422-.73-57.024-4.283-84.688-7.717-37.457-4.653-76.2-9.456-114.807-7.28-46.798 2.644-92.933 11.803-137.55 20.661-52.274 10.38-105.819 21.009-160.727 21.01"/></g><g opacity=".5"><path fill="#e5e8ee" d="M867.445 281.532c-22.566 0-45.404-1.859-68.555-6.395-18.017-3.529-36.165-7.732-53.715-11.798-43.751-10.139-88.992-20.621-135.212-21.25-33.88-.492-67.727 4.505-100.528 9.309-27.892 4.081-56.732 8.303-85.436 9.19-42.652 1.302-84.185-6.537-124.344-14.133-26.496-5.01-53.89-10.191-81.475-12.73-54.885-5.06-110.66-.048-164.594 4.795-17.478 1.57-35.552 3.193-53.311 4.446l-.135-1.895c17.742-1.252 35.806-2.874 53.276-4.443 54.022-4.85 109.88-9.867 164.94-4.796 27.67 2.55 55.112 7.738 81.65 12.758 40.06 7.577 81.491 15.415 123.934 14.1 28.596-.884 57.38-5.099 85.22-9.173 32.877-4.81 66.86-9.79 100.828-9.327 46.425.632 91.766 11.14 135.616 21.297 17.533 4.063 35.666 8.264 53.651 11.787 76.85 15.05 150.475.454 221.68-13.666 46.454-9.211 94.488-18.737 143.717-20.302 35.94-1.154 72.15 2.796 107.147 6.608 30.322 3.301 61.678 6.716 92.715 6.8l1.071.002c43.844 0 87.833-7.383 130.388-14.523 33.713-5.658 68.574-11.508 103.21-13.673l.118 1.896c-34.536 2.157-69.347 8-103.013 13.65-42.978 7.21-87.394 14.61-131.778 14.547-31.138-.085-62.545-3.504-92.918-6.81-34.932-3.803-71.044-7.746-106.881-6.597-49.071 1.56-97.03 11.07-143.406 20.266-49.983 9.912-101.16 20.06-153.86 20.06"/></g><g opacity=".5"><path fill="#e5e8ee" d="M867.865 273.809c-22.514 0-45.36-1.94-68.598-6.705-16.133-3.309-32.376-7.102-48.084-10.766-45.375-10.588-92.296-21.54-140.467-21.6h-.483c-33.11 0-66.467 4.229-98.73 8.322-28.467 3.609-57.905 7.343-87.11 8.167-43.325 1.218-85.783-6.1-126.869-13.183-25.915-4.467-52.71-9.085-79.546-11.544-53.191-4.882-107.209-.283-159.444 4.157-19.098 1.624-38.845 3.305-58.268 4.494l-.116-1.895c19.398-1.191 39.136-2.868 58.224-4.49 52.316-4.449 106.41-9.049 159.778-4.158 26.91 2.467 53.744 7.092 79.695 11.565 40.995 7.066 83.356 14.384 126.49 13.155 29.115-.82 58.504-4.549 86.927-8.154 32.48-4.12 65.995-8.336 99.455-8.336 48.386.06 95.416 11.035 140.895 21.65 15.697 3.664 31.926 7.452 48.035 10.753 75.206 15.426 146.513 1.086 215.465-12.78 48.097-9.669 97.829-19.67 149.316-19.933 32.654-.136 65.516 3.062 97.355 6.183 33.601 3.293 68.342 6.718 102.68 6.106 42.39-.727 84.661-8.617 125.543-16.247 35.574-6.64 72.36-13.506 109.18-15.66l.111 1.897c-36.7 2.145-73.428 9.001-108.944 15.63-40.957 7.643-83.309 15.55-125.856 16.28-34.471.573-69.246-2.82-102.899-6.117-31.79-3.116-64.657-6.345-97.158-6.172-51.305.262-100.946 10.243-148.952 19.895-47.885 9.63-96.905 19.486-147.625 19.486"/></g><g opacity=".5"><path fill="#e5e8ee" d="M885.834 268.621c-28.582.002-57.038-3.166-86.34-9.496-14.327-3.096-28.755-6.54-42.703-9.871-47.007-11.223-95.579-22.817-145.74-22.103-32.654.477-65.651 4.22-97.564 7.84-29.066 3.298-59.12 6.71-88.876 7.65-44.47 1.407-88.43-5.868-130.942-12.9-24.752-4.092-50.342-8.326-75.824-10.818-51.54-5.044-103.945-.678-154.625 3.546-20.638 1.72-41.977 3.499-62.96 4.616l-.1-1.896c20.954-1.117 42.277-2.894 62.902-4.613 50.758-4.23 103.252-8.602 154.968-3.544 25.544 2.5 51.168 6.738 75.948 10.837 42.42 7.016 86.274 14.274 130.574 12.872 29.678-.936 59.693-4.344 88.72-7.635 31.959-3.626 65.003-7.375 97.752-7.854 50.313-.762 99.085 10.902 146.207 22.154 13.941 3.327 28.357 6.77 42.663 9.86 60.234 13.015 116.918 12.603 178.384-1.29 11.434-2.587 22.939-5.347 34.061-8.016 51.045-12.247 99.283-23.814 151.928-22.56 28.413.678 57.19 3.341 85.019 5.915 37.68 3.489 76.636 7.105 115.14 5.8 40.585-1.364 80.885-9.37 119.857-17.113 37.364-7.423 75.999-15.1 114.918-16.942l.09 1.896c-38.778 1.838-77.344 9.498-114.64 16.91-39.044 7.758-79.422 15.777-120.163 17.149-38.617 1.3-77.64-2.316-115.375-5.809-27.799-2.571-56.544-5.23-84.891-5.907-52.424-1.265-100.52 10.293-151.438 22.51-11.13 2.67-22.639 5.43-34.086 8.017-31.848 7.2-62.427 10.795-92.864 10.795"/></g><g opacity=".5"><path fill="#e5e8ee" d="M886.625 261.934c-28.724 0-57.434-3.353-87.111-10.05-13.892-3.134-27.882-6.604-41.411-9.958-47.385-11.753-96.403-23.949-147.053-22.868-32.479.661-65.313 4.405-97.062 8.023-29.223 3.331-59.442 6.777-89.353 7.821-44.54 1.535-88.598-5.907-131.221-13.118-24.686-4.177-50.215-8.496-75.592-11.03-52.146-5.214-105.491-.779-157.081 3.504-19.848 1.65-40.374 3.355-60.483 4.477L.15 216.84c20.086-1.123 40.596-2.825 60.433-4.473 51.676-4.29 105.113-8.732 157.429-3.503 25.442 2.54 51.001 6.864 75.719 11.047 42.532 7.196 86.507 14.655 130.838 13.092 29.837-1.04 60.015-4.482 89.202-7.808 31.797-3.624 64.671-7.372 97.241-8.036 50.906-1.049 100.042 11.141 147.546 22.923 13.522 3.352 27.503 6.82 41.374 9.95 60.653 13.683 117.28 13.334 178.21-1.118 11.184-2.656 22.427-5.48 33.3-8.215 51.222-12.877 99.598-25.04 152.783-23.29 27.216.895 54.792 3.465 81.457 5.947 38.85 3.62 79.024 7.372 118.728 5.981 40.612-1.409 80.88-9.546 119.822-17.417 37.363-7.551 75.998-15.358 114.961-17.24l.093 1.896c-38.82 1.876-77.385 9.671-114.68 17.206-39.016 7.886-79.362 16.038-120.13 17.455-39.829 1.375-80.059-2.363-118.97-5.987-26.637-2.483-54.183-5.049-81.344-5.941-52.902-1.742-101.17 10.39-152.258 23.232-10.878 2.734-22.126 5.564-33.326 8.219-31.41 7.451-61.687 11.172-91.953 11.174"/></g><g opacity=".5"><path fill="#e5e8ee" d="M886.686 255.723c-28.536 0-57.077-3.527-87.176-10.576-13.96-3.27-28.015-6.894-41.61-10.398-47.275-12.189-96.107-24.774-146.846-23.72-32.54.688-65.417 4.582-97.212 8.344-29.17 3.455-59.334 7.026-89.203 8.124-44.017 1.624-87.557-5.983-129.664-13.334-25.176-4.39-51.21-8.936-77.115-11.473-53.955-5.292-109.562-.802-163.34 3.542-17.827 1.438-36.262 2.927-54.254 4.023l-.116-1.896c17.975-1.096 36.399-2.583 54.219-4.02 53.865-4.348 109.557-8.844 163.677-3.541 25.975 2.547 52.044 7.096 77.256 11.497 42.011 7.33 85.472 14.928 129.267 13.303 29.791-1.094 59.917-4.66 89.05-8.11 31.841-3.769 64.764-7.668 97.393-8.358 50.973-1.067 99.962 11.558 147.362 23.778 13.584 3.502 27.63 7.125 41.57 10.388 61.471 14.397 116.43 14.038 178.191-1.16 11.267-2.774 22.585-5.73 33.531-8.588 51.085-13.339 99.359-25.941 152.563-24.177 27.554.914 55.463 3.554 82.452 6.107 38.519 3.643 78.369 7.417 117.735 6.203 41.441-1.269 82.478-9.656 122.167-17.768 36.602-7.484 74.452-15.22 112.606-17.383l.108 1.896c-38.017 2.155-75.798 9.88-112.334 17.346-39.767 8.13-80.885 16.534-122.487 17.808-39.508 1.199-79.394-2.562-117.975-6.212-26.961-2.55-54.84-5.187-82.335-6.097-52.969-1.77-101.075 10.81-152.021 24.116-10.952 2.858-22.275 5.815-33.556 8.59-31.829 7.833-61.865 11.746-91.903 11.746"/></g><g opacity=".5"><path fill="#e5e8ee" d="M886.674 249.594c-28.538 0-57.083-3.656-87.178-10.96-14.026-3.402-28.15-7.184-41.806-10.838-47.17-12.622-95.89-25.685-146.642-24.563-32.591.714-65.509 4.754-97.344 8.663-29.124 3.577-59.238 7.273-89.07 8.424-43.559 1.666-86.626-6.057-128.262-13.537-25.608-4.6-52.089-9.358-78.461-11.888-56.363-5.411-114.857-.921-171.429 3.423-15.199 1.164-30.916 2.372-46.219 3.352l-.123-1.895c15.293-.98 31.003-2.187 46.196-3.35 56.653-4.347 115.233-8.844 171.757-3.422 26.448 2.54 52.969 7.303 78.616 11.911 41.536 7.46 84.49 15.195 127.852 13.506 29.751-1.145 59.827-4.837 88.912-8.41 31.88-3.912 64.845-7.96 97.533-8.676 50.974-1.123 99.877 11.972 147.176 24.629 13.645 3.65 27.757 7.426 41.763 10.824 61.456 14.92 116.408 14.545 178.177-1.202 11.346-2.893 22.738-5.977 33.757-8.963 50.944-13.797 99.073-26.845 152.344-25.054 27.892.93 56.139 3.643 83.455 6.267 38.19 3.664 77.694 7.467 116.735 6.424 42.281-1.123 84.093-9.791 124.529-18.173 35.834-7.428 72.89-15.11 110.233-17.546l.122 1.896c-37.208 2.427-74.198 10.095-109.97 17.511-40.517 8.397-82.414 17.083-124.86 18.211-39.188 1.041-78.724-2.763-116.97-6.433-27.29-2.62-55.504-5.331-83.337-6.258-52.97-1.785-100.978 11.229-151.786 24.99-11.023 2.983-22.423 6.072-33.783 8.968-31.837 8.116-61.875 12.17-91.917 12.17"/></g><g opacity=".5"><path fill="#e5e8ee" d="M886.674 243.684c-28.541.002-57.086-3.783-87.185-11.34-14.082-3.537-28.259-7.47-41.968-11.272-47.075-13.058-95.776-26.554-146.472-25.41-32.647.736-65.603 4.93-97.476 8.981-29.077 3.698-59.141 7.52-88.936 8.724-43.182 1.736-85.772-6.124-126.975-13.729-25.996-4.8-52.878-9.762-79.673-12.273-59.85-5.613-122.344-1.132-182.776 3.198-11.72.842-23.38 1.676-34.95 2.433l-.123-1.895c11.565-.756 23.221-1.592 34.938-2.433 60.51-4.336 123.078-8.819 183.09-3.195 26.879 2.52 53.8 7.491 79.838 12.296 41.098 7.586 83.596 15.423 126.553 13.698 29.713-1.198 59.738-5.016 88.775-8.708 31.92-4.06 64.927-8.258 97.67-8.997 50.999-1.166 99.818 12.385 147.024 25.48 13.698 3.8 27.863 7.728 41.924 11.259 61.451 15.432 116.401 15.046 178.162-1.246 11.425-3.015 22.887-6.228 33.975-9.34 50.813-14.254 98.844-27.705 152.134-25.925 28.23.947 56.81 3.736 84.452 6.429 37.865 3.69 77.022 7.506 115.744 6.638 43.136-.97 85.727-9.947 126.916-18.623 35.056-7.388 71.307-15.026 107.83-17.734l.141 1.896c-36.398 2.698-72.585 10.322-107.58 17.698-41.273 8.695-83.953 17.686-127.263 18.663-38.842.873-78.054-2.95-115.974-6.646-27.61-2.694-56.16-5.476-84.329-6.422-53.066-1.793-100.89 11.645-151.558 25.856-11.094 3.113-22.566 6.328-34.004 9.346-31.838 8.4-61.882 12.593-91.924 12.593"/></g><g opacity=".5"><path fill="#e5e8ee" d="M886.663 237.999c-28.544 0-57.087-3.91-87.182-11.721-14.131-3.67-28.355-7.753-42.112-11.702-46.986-13.489-95.579-27.462-146.32-26.25-32.691.763-65.68 5.1-97.584 9.295-29.035 3.82-59.062 7.768-88.826 9.022-42.783 1.795-84.973-6.185-125.775-13.91-26.35-4.989-53.593-10.147-80.779-12.63-65.424-5.979-134.013-1.411-200.346 3.007-5.848.39-11.677.779-17.476 1.157L.14 182.37c5.799-.378 11.624-.767 17.472-1.157 66.403-4.423 135.068-8.993 200.648-3.004 27.273 2.493 54.564 7.661 80.958 12.659 40.693 7.703 82.771 15.673 125.339 13.874 29.683-1.25 59.664-5.19 88.661-9.004 31.953-4.202 64.994-8.548 97.786-9.313 51.052-1.233 99.768 12.796 146.89 26.325 13.743 3.945 27.957 8.027 42.066 11.687 61.436 15.946 116.378 15.548 178.146-1.286 11.491-3.134 23.02-6.479 34.17-9.714 50.683-14.706 98.571-28.575 151.947-26.792 28.568.965 57.485 3.828 85.453 6.597 37.537 3.713 76.327 7.552 114.745 6.843 44-.817 87.362-10.121 129.295-19.12 34.282-7.357 69.729-14.965 105.442-17.936l.156 1.892c-35.59 2.96-70.976 10.556-105.199 17.9-42.023 9.02-85.476 18.343-129.658 19.163-38.483.71-77.38-3.132-114.97-6.852-27.936-2.766-56.824-5.624-85.327-6.587-53.11-1.786-100.819 12.055-151.356 26.718-11.155 3.236-22.69 6.583-34.198 9.719-31.848 8.682-61.898 13.016-91.943 13.016"/></g><g opacity=".5"><path fill="#e5e8ee" d="M886.665 232.535c-28.551.002-57.09-4.036-87.192-12.099-14.18-3.8-28.455-8.036-42.26-12.133-46.893-13.914-95.407-28.347-146.164-27.083-32.742.789-65.764 5.275-97.702 9.613-28.991 3.937-58.974 8.01-88.708 9.316-42.42 1.858-84.232-6.24-124.656-14.08-26.667-5.171-54.241-10.518-81.778-12.964-69.624-6.187-142.819-2.4-217.942 2.397l-.123-1.896c75.204-4.8 148.48-8.589 218.232-2.393 27.634 2.456 55.258 7.812 81.974 12.993 40.311 7.816 82.006 15.907 124.21 14.044 29.648-1.301 59.583-5.368 88.535-9.3 31.989-4.345 65.066-8.839 97.913-9.629 51.02-1.189 99.715 13.206 146.749 27.16 13.794 4.094 28.055 8.327 42.212 12.118 61.429 16.456 116.365 16.048 178.134-1.325 11.56-3.252 23.147-6.726 34.357-10.086 50.558-15.153 98.293-29.436 151.767-27.652 28.906.982 58.158 3.922 86.446 6.763 37.212 3.738 75.706 7.624 113.754 7.049 44.87-.657 88.997-10.32 131.67-19.664 33.506-7.34 68.15-14.927 103.056-18.154l.175 1.892c-34.79 3.215-69.376 10.792-102.823 18.116-42.766 9.365-86.99 19.05-132.048 19.71-38.192.575-76.709-3.315-113.972-7.059-28.26-2.84-57.481-5.776-86.321-6.754-53.159-1.806-100.752 12.462-151.159 27.573-11.217 3.362-22.813 6.84-34.387 10.095-31.849 8.959-61.906 13.432-91.95 13.432"/></g><g opacity=".5"><path fill="#e5e8ee" d="M886.728 227.468c-28.363 0-56.732-4.225-87.254-12.652-14.226-3.928-28.545-8.315-42.393-12.556-46.806-14.34-95.226-29.153-146.025-27.91-32.789.814-65.847 5.444-97.814 9.925-28.952 4.057-58.89 8.25-88.595 9.608-42.093 1.917-83.539-6.29-123.6-14.239-26.96-5.345-54.837-10.874-82.705-13.276-59.975-5.168-129.27-5.056-218.078.35l-.114-1.896c88.9-5.413 158.287-5.526 218.356-.346 27.97 2.41 55.9 7.95 82.91 13.307 39.95 7.924 81.261 16.106 123.145 14.203 29.615-1.356 59.509-5.544 88.418-9.592 32.021-4.488 65.133-9.128 98.03-9.943 51.145-1.267 99.678 13.607 146.628 27.99 13.835 4.24 28.143 8.622 42.34 12.542 62.255 17.193 115.52 16.783 178.119-1.367 11.62-3.368 23.263-6.969 34.522-10.452 50.44-15.6 98.06-30.346 151.61-28.506 29.24 1 58.825 4.017 87.439 6.933 36.887 3.762 74.98 7.677 112.768 7.244 45.732-.49 90.608-10.534 134.008-20.249 32.738-7.326 66.592-14.902 100.703-18.376l.193 1.888c-34 3.462-67.797 11.028-100.482 18.342-43.493 9.736-88.472 19.802-134.403 20.294-37.84.42-76.04-3.487-112.98-7.253-28.582-2.914-58.134-5.928-87.31-6.923-53.193-1.835-100.699 12.87-150.984 28.42-11.267 3.485-22.92 7.09-34.553 10.463-32.27 9.356-62.082 14.025-91.9 14.027"/></g><g opacity=".5"><path fill="#e5e8ee" d="M886.722 222.437c-28.367.002-56.735-4.347-87.26-13.027-14.26-4.055-28.615-8.59-42.497-12.973-46.728-14.762-95.049-30.02-145.913-28.727-32.828.835-65.91 5.612-97.902 10.228-28.917 4.176-58.82 8.492-88.505 9.899-41.79 1.994-82.88-6.338-122.606-14.384-27.225-5.515-55.38-11.22-83.552-13.569-66.93-5.578-142.394-6.252-218.23-1.948L.15 156.04c75.919-4.31 151.474-3.635 218.496 1.953 28.281 2.359 56.49 8.072 83.77 13.599 39.611 8.023 80.557 16.308 122.14 14.35 29.591-1.406 59.449-5.716 88.323-9.883 32.047-4.627 65.183-9.41 98.125-10.249 51.203-1.287 99.657 14.008 146.533 28.813 13.869 4.382 28.21 8.912 42.444 12.961 62.245 17.698 115.508 17.277 178.105-1.41 11.677-3.484 23.373-7.213 34.686-10.82 50.32-16.036 97.839-31.194 151.453-29.346 29.575 1.016 59.493 4.112 88.426 7.105 36.562 3.782 74.395 7.698 111.782 7.436 46.59-.323 92.2-10.771 136.306-20.874 31.987-7.325 65.062-14.902 98.393-18.615l.211 1.888c-33.225 3.702-66.247 11.265-98.179 18.581-44.207 10.126-89.92 20.595-136.716 20.92-37.522.224-75.375-3.657-111.99-7.446-28.903-2.99-58.791-6.083-88.3-7.096-53.242-1.829-100.647 13.27-150.809 29.258-11.32 3.608-23.026 7.34-34.72 10.83-32.273 9.635-62.087 14.442-91.907 14.442"/></g><g opacity=".5"><path fill="#e5e8ee" d="M886.723 217.62c-28.367 0-56.738-4.471-87.264-13.402-14.294-4.179-28.682-8.86-42.596-13.387-46.654-15.173-94.924-30.85-145.807-29.532-32.866.86-65.973 5.777-97.989 10.533-28.885 4.289-58.754 8.726-88.416 10.185-41.523 2.053-82.253-6.38-121.655-14.523-27.473-5.677-55.884-11.548-84.342-13.836-78.03-6.268-153.55-7.814-218.399-4.48l-.095-1.895c64.92-3.348 140.532-1.795 218.646 4.483 28.578 2.296 57.045 8.18 84.576 13.869 39.286 8.118 79.911 16.507 121.176 14.486 29.567-1.455 59.389-5.886 88.23-10.17 32.072-4.763 65.237-9.688 98.22-10.552 51.235-1.37 99.636 14.401 146.44 29.626 13.903 4.522 28.277 9.199 42.545 13.371 62.236 18.206 115.497 17.77 178.092-1.447 11.73-3.603 23.48-7.457 34.84-11.185 50.206-16.47 97.623-32.004 151.304-30.175 29.911 1.033 60.162 4.21 89.421 7.28 36.24 3.805 73.767 7.765 110.79 7.62 47.439-.151 93.756-11.021 138.55-21.53 31.25-7.334 63.565-14.916 96.137-18.859l.228 1.886c-32.47 3.93-64.731 11.499-95.934 18.82-44.895 10.536-91.32 21.43-138.973 21.583-37.2.195-74.706-3.82-110.997-7.632-29.225-3.067-59.444-6.24-89.288-7.269-53.315-1.859-100.604 13.662-150.646 30.08-11.37 3.73-23.127 7.588-34.876 11.195-32.277 9.91-62.095 14.855-91.918 14.857"/></g><g opacity=".5"><path fill="#e5e8ee" d="M886.717 213.021c-28.37.002-56.743-4.594-87.27-13.766-14.32-4.304-28.738-9.129-42.681-13.793-46.578-15.584-94.713-31.714-145.714-30.33-32.906.882-66.03 5.938-98.068 10.831-28.855 4.405-58.694 8.96-88.337 10.465-41.232 2.097-81.654-6.416-120.746-14.647-27.702-5.833-56.352-11.865-85.08-14.084C151.25 142.476 73.067 137.188.245 140.48l-.084-1.896c72.916-3.303 151.18 1.993 218.808 7.218 28.853 2.23 57.56 8.275 85.324 14.121 38.974 8.207 79.28 16.7 120.258 14.61 29.548-1.502 59.338-6.05 88.147-10.45 32.095-4.899 65.28-9.964 98.304-10.851 51.294-1.392 99.634 14.792 146.367 30.43 13.93 4.66 28.332 9.479 42.625 13.775 62.226 18.695 115.484 18.253 178.078-1.487 11.78-3.715 23.571-7.692 34.973-11.539 50.097-16.9 97.396-32.853 151.18-30.997 30.24 1.05 60.82 4.306 90.393 7.453 35.92 3.825 73.064 7.78 109.822 7.797h.161c48.22 0 95.17-11.295 140.58-22.222 30.53-7.345 62.1-14.94 93.934-19.102l.245 1.884c-31.733 4.146-63.252 11.732-93.735 19.066-45.513 10.951-92.581 22.273-141.024 22.273h-.161c-36.859-.017-74.054-3.977-110.023-7.806-29.54-3.145-60.086-6.397-90.259-7.444-53.424-1.867-100.577 14.056-150.505 30.897-11.413 3.848-23.214 7.83-35.01 11.55-32.28 10.18-62.1 15.261-91.925 15.261"/></g><g opacity=".5"><path fill="#e5e8ee" d="M886.94 208.692c-28.378 0-56.825-4.737-87.494-14.195-14.349-4.424-28.795-9.389-42.763-14.192-46.51-15.989-94.536-32.564-145.624-31.115-32.939.906-66.08 6.102-98.134 11.124-28.83 4.519-58.64 9.191-88.271 10.747-40.975 2.152-81.08-6.45-119.875-14.766-27.917-5.983-56.783-12.17-85.765-14.315a7605.496 7605.496 0 0 1-35.425-2.73c-60.722-4.763-123.512-9.697-183.345-7.405l-.074-1.9c59.94-2.279 122.789 2.645 183.567 7.412 11.894.936 23.714 1.863 35.417 2.727 29.112 2.156 58.044 8.357 86.022 14.356 38.674 8.288 78.663 16.854 119.379 14.723 29.533-1.55 59.293-6.214 88.078-10.725 32.11-5.032 65.312-10.238 98.374-11.148 51.358-1.392 99.624 15.174 146.293 31.218 13.956 4.8 28.386 9.759 42.705 14.175 62.5 19.27 115.751 18.817 178.063-1.525 11.379-3.715 22.783-7.676 33.808-11.507 50.452-17.523 98.113-34.064 152.354-32.184 30.574 1.064 61.485 4.4 91.381 7.628 35.597 3.842 72.409 7.816 108.836 7.968l1.273.001c48.651 0 95.892-11.661 141.595-22.945 29.833-7.362 60.682-14.979 91.795-19.349l.264 1.88c-31.016 4.357-61.817 11.96-91.605 19.313-45.81 11.31-93.168 23-142.048 23l-1.282-.001c-36.526-.152-73.386-4.131-109.033-7.98-29.862-3.222-60.737-6.556-91.243-7.616-53.869-1.868-101.383 14.616-151.664 32.08-11.035 3.833-22.446 7.797-33.842 11.518-32.137 10.49-61.888 15.726-91.717 15.728"/></g><g opacity=".5"><path fill="#e5e8ee" d="M886.936 204.5c-28.38.003-56.828-4.854-87.495-14.548-14.37-4.543-28.835-9.647-42.826-14.583-46.446-16.388-94.496-33.343-145.556-31.89-32.967.929-66.125 6.26-98.19 11.415-28.807 4.629-58.595 9.417-88.213 11.018-40.72 2.201-80.52-6.479-119.026-14.87-28.118-6.131-57.197-12.47-86.422-14.532-20.691-1.46-42.09-3.396-62.783-5.265-51.648-4.67-105.043-9.5-156.19-7.947L.18 121.4c51.244-1.552 104.713 3.278 156.418 7.955 20.682 1.868 42.07 3.802 62.745 5.26 29.362 2.075 58.505 8.428 86.692 14.57 38.383 8.365 78.081 17.015 118.518 14.832 29.52-1.597 59.256-6.376 88.014-10.999 32.127-5.164 65.347-10.503 98.44-11.437 51.442-1.44 99.633 15.553 146.24 31.998 13.976 4.93 28.428 10.03 42.764 14.564 62.492 19.755 115.738 19.288 178.052-1.567 11.42-3.82 22.864-7.9 33.93-11.84 50.347-17.942 97.882-34.876 152.237-32.986 30.905 1.08 62.145 4.497 92.358 7.802 35.278 3.861 71.759 7.85 107.863 8.133 49.885.353 98.208-11.852 144.922-23.687 29.158-7.388 59.31-15.027 89.728-19.597l.283 1.877c-30.326 4.556-60.43 12.184-89.544 19.563-46.83 11.865-95.34 24.114-145.404 23.743-36.198-.283-72.73-4.279-108.055-8.144-30.179-3.301-61.385-6.714-92.217-7.791-53.949-1.886-101.364 14.995-151.533 32.876-11.075 3.946-22.528 8.026-33.966 11.855-32.143 10.754-61.898 16.122-91.729 16.122"/></g><g opacity=".5"><path fill="#e5e8ee" d="M886.937 200.525c-28.378 0-56.834-4.972-87.5-14.902-14.39-4.657-28.875-9.898-42.882-14.965-46.382-16.779-94.365-34.12-145.492-32.648-32.999.952-66.17 6.414-98.253 11.696-28.78 4.74-58.543 9.64-88.152 11.288-40.442 2.26-79.977-6.503-118.205-14.969-28.308-6.271-57.579-12.754-87.035-14.729-25.809-1.732-52.424-4.575-78.164-7.328-46.526-4.972-94.621-10.112-141.024-9.096l-.04-1.899c46.496-1.014 94.682 4.13 141.267 9.107 25.721 2.749 52.316 5.592 78.086 7.32 29.601 1.987 58.944 8.485 87.322 14.77 38.099 8.437 77.487 17.16 117.69 14.927 29.505-1.641 59.215-6.534 87.948-11.263 32.142-5.294 65.377-10.766 98.505-11.723 51.53-1.474 99.642 15.922 146.19 32.762 13.997 5.061 28.466 10.296 42.823 14.944 62.48 20.23 115.727 19.747 178.037-1.603 11.462-3.928 22.94-8.12 34.04-12.173 50.247-18.348 97.694-35.662 152.135-33.769 31.23 1.096 62.8 4.595 93.326 7.978 34.963 3.874 71.117 7.882 106.898 8.286 50.656.585 99.602-12.146 146.901-24.45 28.507-7.417 57.985-15.084 87.736-19.846l.3 1.877c-29.662 4.744-59.094 12.404-87.56 19.808-47.418 12.334-96.482 25.092-147.4 24.51-35.872-.406-72.075-4.419-107.084-8.297-30.492-3.38-62.023-6.874-93.184-7.966-54.02-1.911-101.348 15.371-151.415 33.654-11.11 4.055-22.596 8.249-34.078 12.184-32.148 11.017-61.9 16.515-91.736 16.515"/></g><g opacity=".5"><path fill="#e5e8ee" d="M886.927 196.754c-28.382 0-56.837-5.09-87.504-15.246-14.403-4.771-28.906-10.144-42.931-15.34-46.32-17.161-94.245-34.922-145.436-33.391-33.022.974-66.2 6.566-98.284 11.973-28.767 4.85-58.514 9.862-88.12 11.55-40.203 2.302-79.458-6.526-117.41-15.062-28.487-6.404-57.946-13.027-87.623-14.91-11.554-.733-23.02-1.097-34.108-1.45-24.774-.787-48.172-1.53-73.15-6.02C73.398 111.854 38.06 106.046.215 106.585l-.025-1.9c38.046-.457 73.446 5.283 112.51 12.305 24.839 4.465 48.168 5.206 72.87 5.99 11.105.353 22.586.718 34.169 1.453 29.829 1.892 59.36 8.532 87.92 14.954 37.827 8.503 76.923 17.297 116.887 15.018 29.5-1.685 59.195-6.688 87.91-11.527 32.15-5.42 65.392-11.02 98.545-12 51.578-1.505 99.662 16.286 146.152 33.51 14.01 5.189 28.496 10.556 42.866 15.316 63.31 20.969 114.887 20.494 178.025-1.64 11.497-4.03 23.009-8.334 34.141-12.495 50.146-18.747 97.548-36.407 152.04-34.536 31.562 1.111 63.455 4.69 94.3 8.15 34.646 3.888 70.472 7.911 105.929 8.437 51.44.707 100.944-12.452 148.803-25.23 27.88-7.448 56.713-15.15 85.82-20.09l.32 1.873c-29.023 4.927-57.809 12.613-85.65 20.051-47.98 12.815-97.588 26.01-149.324 25.295-35.546-.528-71.419-4.554-106.11-8.446-30.807-3.459-62.665-7.033-94.154-8.14-54.137-1.924-101.343 15.737-151.307 34.416-11.142 4.165-22.663 8.47-34.18 12.509-32.153 11.27-61.908 16.896-91.745 16.896"/></g><g opacity=".5"><path fill="#e5e8ee" d="M886.99 193.395c-28.197 0-56.473-5.275-87.57-15.803-14.418-4.881-28.935-10.382-42.971-15.704-46.264-17.532-94.095-35.68-145.39-34.115-33.046.999-66.227 6.714-98.316 12.243-28.753 4.953-58.483 10.074-88.086 11.806-39.987 2.338-78.952-6.547-116.64-15.143-28.658-6.538-58.291-13.294-88.181-15.081-10.15-.606-20.173-.96-29.865-1.301-26.17-.923-50.886-1.795-77.552-7.27-40.166-8.255-73.917-14.578-111.043-14.578-.39 0-.779 0-1.168.002L.2 96.55c37.685-.1 71.907 6.253 112.602 14.612 26.51 5.447 51.148 6.315 77.237 7.236 9.704.342 19.738.695 29.91 1.303 30.048 1.795 59.758 8.572 88.491 15.125 37.558 8.564 76.4 17.419 116.105 15.1 29.499-1.727 59.176-6.838 87.875-11.784 32.156-5.539 65.404-11.267 98.581-12.27 51.645-1.563 99.685 16.642 146.12 34.241 14.023 5.313 28.523 10.81 42.906 15.678 63.31 21.432 114.884 20.951 178.012-1.674 11.531-4.13 23.068-8.541 34.224-12.809 50.056-19.138 97.334-37.217 151.965-35.288 31.89 1.127 64.112 4.787 95.27 8.325 34.33 3.9 69.83 7.932 104.96 8.578 52.22.936 102.236-12.758 150.621-26.025 27.284-7.482 55.495-15.216 83.993-20.33l.334 1.87c-28.412 5.098-56.581 12.823-83.825 20.29-48.515 13.302-98.728 27.011-151.157 26.094-35.223-.648-70.768-4.686-105.14-8.59-31.123-3.535-63.305-7.19-95.123-8.312-54.258-1.93-101.352 16.097-151.218 35.162-11.166 4.27-22.714 8.684-34.264 12.823-32.562 11.67-62.08 17.487-91.689 17.489"/></g><g opacity=".5"><path fill="#e5e8ee" d="M886.992 190.027c-28.2 0-56.476-5.387-87.576-16.137-14.431-4.988-28.961-10.617-43.015-16.059-46.201-17.896-93.958-36.426-145.339-34.819-33.068 1.018-66.255 6.857-98.35 12.505-28.735 5.057-58.45 10.284-88.051 12.056-39.746 2.38-78.454-6.57-115.885-15.222-28.82-6.664-58.621-13.553-88.72-15.236-8.76-.488-17.38-.811-25.719-1.127-27.52-1.035-53.514-2.015-81.858-8.575C77.081 99.217 40.48 90.744.2 90.499L.211 88.6c40.49.247 77.197 8.745 112.696 16.961 28.167 6.522 54.074 7.499 81.502 8.53 8.346.313 16.977.638 25.755 1.128 30.26 1.69 60.141 8.6 89.04 15.28 37.299 8.625 75.87 17.548 115.34 15.178 29.496-1.764 59.156-6.984 87.842-12.032 32.16-5.658 65.415-11.508 98.615-12.532 51.75-1.578 99.708 16.984 146.086 34.946 14.036 5.438 28.55 11.058 42.948 16.036 63.305 21.882 114.872 21.385 178-1.711 11.562-4.228 23.123-8.745 34.306-13.113 49.959-19.516 97.13-37.945 151.889-36.018 32.22 1.14 64.767 4.878 96.243 8.496 34.013 3.907 69.185 7.949 103.99 8.709 52.962 1.147 103.482-13.07 152.366-26.825 26.71-7.515 54.328-15.287 82.235-20.564l.354 1.867c-27.827 5.26-55.404 13.02-82.073 20.524-49.022 13.793-99.706 28.042-152.923 26.897-34.895-.764-70.11-4.81-104.168-8.722-31.437-3.612-63.945-7.346-96.09-8.482-54.38-1.922-101.361 16.444-151.133 35.888-11.191 4.37-22.764 8.89-34.344 13.128-32.564 11.913-62.084 17.856-91.695 17.858"/></g><g opacity=".5"><path fill="#e5e8ee" d="M886.988 186.856c-28.201 0-56.48-5.497-87.58-16.462-14.437-5.092-28.973-10.84-43.032-16.399-46.15-18.25-93.892-37.11-145.316-35.508-33.081 1.04-66.267 6.997-98.36 12.758-28.727 5.159-58.433 10.49-88.042 12.3-39.52 2.41-77.971-6.585-115.15-15.293-28.974-6.788-58.934-13.805-89.228-15.377-7.413-.384-14.692-.669-21.732-.94-28.813-1.123-56.029-2.183-86.014-9.91C75.344 92.44 40.214 83.386.19 82.75l.028-1.899c40.253.64 75.486 9.723 112.79 19.335 29.788 7.677 56.905 8.733 85.614 9.85 7.046.274 14.332.559 21.755.944 30.463 1.58 60.509 8.618 89.565 15.423 37.045 8.678 75.352 17.647 114.6 15.248 29.497-1.803 59.148-7.127 87.824-12.276 32.158-5.772 65.413-11.741 98.633-12.786 51.85-1.62 99.746 17.318 146.078 35.643 14.04 5.55 28.558 11.293 42.961 16.372 63.3 22.321 114.863 21.812 177.99-1.743 11.583-4.323 23.166-8.94 34.366-13.408 49.875-19.886 96.992-38.657 151.833-36.73 32.555 1.154 65.434 4.971 97.23 8.666 33.694 3.914 68.53 7.962 103.008 8.832 53.636 1.356 104.673-13.38 154.029-27.628 26.161-7.552 53.212-15.362 80.559-20.79l.372 1.86c-27.27 5.416-54.281 13.213-80.405 20.755-49.493 14.289-100.644 29.068-154.604 27.702-34.563-.874-69.444-4.925-103.178-8.843-31.759-3.69-64.6-7.505-97.077-8.654-54.483-1.947-101.381 16.787-151.062 36.595-11.212 4.469-22.804 9.092-34.409 13.422-32.568 12.154-62.09 18.215-91.702 18.217"/></g><g opacity=".5"><path fill="#e5e8ee" d="M886.99 183.875c-28.204.002-56.487-5.601-87.589-16.779-14.446-5.19-28.987-11.056-43.052-16.731-46.097-18.593-93.759-37.808-145.29-36.171-33.094 1.058-66.277 7.13-98.365 13.003-28.722 5.255-58.42 10.69-88.034 12.537-39.319 2.443-77.5-6.604-114.432-15.364-29.122-6.906-59.238-14.047-89.725-15.506a2067.91 2067.91 0 0 0-17.893-.752c-30.057-1.174-58.447-2.281-90.016-11.248C75.254 86.258 39.984 76.241.18 75.22l.047-1.899c40.046 1.03 75.427 11.079 112.888 21.717 31.35 8.906 58.328 9.958 89.569 11.178 5.846.228 11.802.461 17.91.754 30.664 1.464 60.865 8.628 90.073 15.553 36.796 8.728 74.857 17.75 113.873 15.317 29.503-1.84 59.144-7.263 87.812-12.511 32.158-5.884 65.41-11.97 98.646-13.034 51.845-1.644 99.782 17.643 146.063 36.31 14.046 5.666 28.572 11.525 42.982 16.705 63.294 22.744 114.855 22.23 177.978-1.778 11.605-4.412 23.206-9.13 34.424-13.69 49.789-20.242 96.834-39.338 151.782-37.42 32.883 1.163 66.087 5.062 98.2 8.833 33.375 3.918 67.887 7.971 102.041 8.946 54.316 1.55 105.816-13.69 155.615-28.43 25.637-7.59 52.148-15.436 78.963-21.01l.386 1.857c-26.737 5.56-53.208 13.396-78.81 20.975-49.939 14.784-101.603 30.057-156.21 28.507-34.236-.978-68.789-5.035-102.208-8.96-32.074-3.766-65.238-7.66-98.044-8.818-54.566-1.928-101.406 17.117-151 37.28-11.228 4.564-22.839 9.284-34.465 13.708-32.57 12.385-62.091 18.566-91.706 18.566"/></g><g opacity=".5"><path fill="#e5e8ee" d="M886.989 181.093c-28.205.001-56.488-5.704-87.594-17.085-14.448-5.286-28.991-11.267-43.056-17.047-46.048-18.93-93.649-38.528-145.279-36.818-33.109 1.078-66.285 7.26-98.366 13.238-28.718 5.352-58.41 10.885-88.035 12.766-39.094 2.48-77.037-6.622-113.727-15.427-29.267-7.022-59.53-14.285-90.207-15.624-4.856-.213-9.603-.393-14.264-.57-32.587-1.244-60.73-2.315-93.808-12.577l-1.493-.464C74.46 80.1 39.798 69.343.17 67.94l.066-1.899c39.883 1.415 74.665 12.207 111.488 23.632l1.493.463c32.836 10.188 60.862 11.256 93.316 12.492 4.665.179 9.413.359 14.274.572 30.86 1.346 61.214 8.63 90.568 15.675 36.555 8.771 74.346 17.852 113.165 15.377 29.51-1.873 59.143-7.398 87.804-12.737 32.154-5.99 65.402-12.186 98.652-13.27 51.998-1.695 99.83 17.954 146.065 36.96 14.047 5.776 28.575 11.746 42.988 17.019 63.287 23.16 114.847 22.636 177.966-1.809 11.622-4.501 23.233-9.31 34.46-13.96 49.711-20.589 96.682-40.02 151.751-38.091 33.221 1.174 66.762 5.151 99.197 8.997 33.052 3.92 67.229 7.974 101.047 9.052 55.048 1.757 106.916-13.992 157.128-29.227 25.138-7.624 51.134-15.512 77.438-21.223l.405 1.856c-26.23 5.696-52.188 13.57-77.292 21.185-50.36 15.276-102.435 31.052-157.74 29.309-33.9-1.083-68.118-5.142-101.21-9.066-32.395-3.84-65.896-7.814-99.04-8.984-54.69-1.975-101.445 17.44-150.957 37.947-11.238 4.654-22.859 9.467-34.501 13.976-32.572 12.615-62.098 18.906-91.712 18.908"/></g><g opacity=".5"><path fill="#e5e8ee" d="M886.987 178.502c-28.206.002-56.49-5.802-87.598-17.38-14.452-5.381-29-11.469-43.068-17.357-46-19.248-93.536-39.16-145.261-37.436-33.117 1.098-66.285 7.387-98.36 13.467-28.714 5.443-58.404 11.073-88.04 12.985-38.89 2.517-76.583-6.64-113.039-15.487-29.407-7.138-59.816-14.518-90.676-15.734-3.689-.146-7.307-.275-10.866-.406-33.742-1.22-62.883-2.276-97.364-13.87l-2.904-.976C73.733 74.17 39.655 62.705.16 60.928l.085-1.898c39.761 1.791 73.963 13.297 110.172 25.478l2.902.976c34.222 11.506 63.235 12.557 96.83 13.772 3.561.13 7.18.26 10.87.405 31.05 1.225 61.552 8.626 91.05 15.787 36.318 8.815 73.866 17.92 112.468 15.438 29.52-1.905 59.153-7.523 87.81-12.957 32.147-6.095 65.387-12.396 98.648-13.5 52.118-1.746 99.871 18.255 146.06 37.585 14.05 5.88 28.58 11.96 42.997 17.326 63.286 23.557 114.84 23.026 177.957-1.84 11.637-4.586 23.255-9.484 34.49-14.22 49.631-20.922 96.534-40.689 151.727-38.734 33.561 1.185 67.438 5.236 100.197 9.158 32.726 3.917 66.567 7.966 100.05 9.146 55.634 1.986 107.96-14.29 158.566-30.012 24.663-7.662 50.168-15.584 75.99-21.424l.417 1.852c-25.745 5.825-51.214 13.736-75.842 21.388-50.758 15.766-103.231 32.09-159.2 30.095-33.563-1.183-67.441-5.238-100.205-9.159-32.723-3.916-66.558-7.965-100.04-9.145-54.832-1.94-101.487 17.746-150.921 38.585-11.246 4.741-22.876 9.643-34.532 14.236-32.574 12.834-62.101 19.236-91.72 19.236"/></g><g opacity=".5"><path fill="#e5e8ee" d="M886.99 176.093c-28.21 0-56.498-5.897-87.605-17.67-14.454-5.47-29.003-11.657-43.072-17.646-45.947-19.558-93.451-39.827-145.254-38.03-33.118 1.114-66.271 7.504-98.332 13.682-28.718 5.533-58.412 11.256-88.067 13.197-38.676 2.54-76.14-6.657-112.363-15.542-29.544-7.252-60.095-14.747-91.136-15.833l-7.747-.264c-36.244-1.214-64.87-2.173-100.64-15.119l-4.189-1.516C71.546 67.93 39.555 56.336.15 54.196L.254 52.3c39.685 2.156 73.343 14.353 108.979 27.267l4.186 1.518c35.487 12.84 63.983 13.794 100.057 15.002l7.753.264c31.237 1.096 61.883 8.616 91.52 15.886 36.084 8.855 73.406 18.004 111.79 15.493 29.532-1.933 59.17-7.643 87.829-13.166 32.133-6.192 65.36-12.594 98.627-13.717 52.213-1.74 99.922 18.545 146.063 38.18 14.051 5.982 28.581 12.166 42.997 17.62 63.284 23.944 114.836 23.406 177.95-1.87 11.65-4.667 23.278-9.65 34.522-14.47 49.554-21.236 96.36-41.293 151.698-39.352 33.903 1.195 68.122 5.326 101.212 9.32 32.395 3.911 65.894 7.955 99.04 9.231 56.292 2.179 108.959-14.581 159.924-30.78 24.214-7.697 49.253-15.655 74.62-21.617l.432 1.848c-25.291 5.947-50.296 13.894-74.477 21.579-51.122 16.25-103.992 33.046-160.576 30.87-33.221-1.282-66.758-5.33-99.19-9.244-33.053-3.991-67.228-8.116-101.051-9.307-54.946-1.907-101.53 18.045-150.884 39.198-11.254 4.825-22.893 9.812-34.566 14.487-32.574 13.044-62.1 19.551-91.72 19.553"/></g><g opacity=".5"><path fill="#e5e8ee" d="M887 173.88c-28.21 0-56.5-5.99-87.613-17.944-14.454-5.554-29-11.844-43.066-17.928-45.905-19.848-93.423-40.384-145.252-38.598-33.123 1.134-66.259 7.618-98.304 13.89-28.722 5.62-58.422 11.434-88.095 13.401-38.48 2.545-75.706-6.674-111.704-15.601-29.678-7.358-60.365-14.969-91.583-15.922l-4.892-.15c-37.273-1.117-66.713-2-103.657-16.302l-5.371-2.082C70.995 62.494 39.5 50.272.15 47.786l.12-1.896c39.645 2.505 71.265 14.777 107.88 28.984l5.372 2.082C150.16 91.14 179.455 92.017 216.548 93.13l4.894.149c31.419.96 62.207 8.596 91.981 15.979 35.856 8.889 72.924 18.083 111.121 15.548 29.552-1.96 59.193-7.761 87.854-13.37 32.122-6.287 65.332-12.784 98.604-13.926 52.251-1.774 99.976 18.823 146.073 38.754 14.048 6.078 28.576 12.358 42.993 17.898 63.285 24.317 114.84 23.764 177.938-1.9 11.66-4.742 23.29-9.806 34.538-14.702 49.48-21.544 96.222-41.913 151.689-39.945 34.25 1.204 68.81 5.407 102.234 9.476 32.062 3.9 65.217 7.937 98.019 9.304 56.885 2.394 107.556-14.093 161.227-31.532 23.786-7.729 48.378-15.721 73.307-21.795l.448 1.844c-24.858 6.059-49.417 14.04-73.168 21.757-51.47 16.724-104.684 34.013-161.892 31.626-32.878-1.373-66.072-5.413-98.171-9.32-33.383-4.063-67.902-8.26-102.07-9.46-55.059-1.957-101.59 18.33-150.865 39.786-11.26 4.9-22.899 9.97-34.58 14.72-32.573 13.25-62.1 19.858-91.723 19.86"/></g><g opacity=".5"><path fill="#e5e8ee" d="M886.999 171.85c-28.211 0-56.502-6.078-87.617-18.207-14.454-5.635-28.995-12.017-43.056-18.19-45.86-20.133-93.332-40.986-145.258-39.141-33.118 1.152-66.233 7.726-98.262 14.085-28.731 5.704-58.439 11.603-88.137 13.596-38.28 2.577-75.28-6.698-111.056-15.657-29.808-7.468-60.633-15.189-92.021-16.007l-2.39-.063c-39.679-1.031-68.35-1.776-106.313-17.41l-6.479-2.674C70.484 57.34 39.46 44.52.14 41.706l.139-1.896c39.624 2.838 70.779 15.711 106.855 30.617l6.478 2.675c37.64 15.498 66.162 16.24 105.64 17.267l2.387.06c31.601.825 62.526 8.574 92.435 16.063 35.634 8.927 72.47 18.15 110.47 15.605 29.574-1.985 59.221-7.87 87.894-13.563 32.098-6.372 65.293-12.963 98.564-14.122 52.454-1.797 100.034 19.085 146.088 39.301 14.043 6.166 28.566 12.54 42.982 18.16 63.284 24.67 114.834 24.11 177.93-1.928 11.666-4.815 23.293-9.952 34.538-14.923 49.409-21.833 96.066-42.446 151.692-40.513 34.61 1.212 69.524 5.493 103.288 9.632 31.721 3.888 64.52 7.91 96.967 9.371 57.45 2.587 108.458-14.342 162.462-32.264 23.375-7.757 47.548-15.78 72.063-21.96l.464 1.84c-24.447 6.165-48.586 14.175-71.929 21.922-51.789 17.187-105.335 34.973-163.145 32.358-32.52-1.463-65.358-5.488-97.112-9.381-33.724-4.135-68.598-8.41-103.124-9.619-55.187-1.97-101.653 18.604-150.86 40.352-11.255 4.974-22.894 10.118-34.58 14.94-32.574 13.444-62.105 20.148-91.727 20.15"/></g><g opacity=".5"><path fill="#e5e8ee" d="M886.998 169.995c-28.21.002-56.505-6.162-87.622-18.46-14.454-5.713-28.991-12.184-43.05-18.442-45.812-20.396-93.21-41.509-145.26-39.65-33.115 1.169-66.21 7.828-98.213 14.27-28.743 5.784-58.464 11.765-88.184 13.78-38.109 2.564-74.863-6.718-110.422-15.715-29.938-7.57-60.895-15.4-92.458-16.08l-.22-.005c-40.512-.874-69.782-1.507-108.635-18.435l-7.499-3.279C70.024 52.48 39.445 39.09.13 35.972l.154-1.892c39.628 3.143 70.346 16.59 105.913 32.16l7.496 3.278c38.51 16.779 67.623 17.407 107.917 18.277l.219.004c31.78.684 62.843 8.541 92.883 16.14 35.417 8.958 72.05 18.225 109.827 15.659 29.6-2.006 59.258-7.974 87.938-13.746 32.08-6.457 65.252-13.134 98.523-14.307 52.457-1.85 100.09 19.327 146.097 39.812 14.042 6.25 28.56 12.716 42.976 18.414 63.284 25.006 114.83 24.44 177.92-1.957 11.67-4.88 23.292-10.089 34.533-15.126 49.346-22.108 96.013-42.948 151.704-41.052 34.972 1.22 70.247 5.572 104.361 9.783 31.371 3.871 63.808 7.873 95.896 9.42 58.01 2.787 109.33-14.573 163.641-32.964 22.984-7.784 46.752-15.831 70.874-22.112l.479 1.838c-24.055 6.263-47.792 14.3-70.745 22.073-52.09 17.639-105.959 35.897-164.34 33.063-32.158-1.551-64.633-5.559-96.039-9.434-34.072-4.205-69.305-8.552-104.194-9.768-55.29-1.922-101.725 18.87-150.86 40.887-11.252 5.041-22.886 10.255-34.574 15.144-32.576 13.63-62.107 20.427-91.73 20.429"/></g><g opacity=".5"><path fill="#e5e8ee" d="M887.006 168.328c-28.213 0-56.51-6.242-87.63-18.7-14.452-5.783-28.982-12.336-43.03-18.674-45.768-20.647-93.058-42.007-145.276-40.13-33.106 1.18-66.175 7.921-98.156 14.44-28.756 5.861-58.488 11.92-88.242 13.954-37.891 2.593-74.454-6.746-109.8-15.77-30.067-7.677-61.157-15.616-92.891-16.154-40.303-.682-69.421-1.175-108.998-19.34-2.843-1.304-5.652-2.6-8.439-3.889C69.617 47.944 39.456 34.018.13 30.622l.161-1.892c39.659 3.425 69.96 17.415 105.051 33.613a2904.76 2904.76 0 0 0 8.435 3.886c39.214 17.998 68.165 18.488 108.238 19.166 31.954.541 63.155 8.507 93.328 16.21 35.202 8.99 71.605 18.28 109.2 15.718 29.626-2.025 59.298-8.072 87.993-13.92 32.055-6.534 65.202-13.29 98.467-14.48 52.623-1.862 100.156 19.564 146.124 40.3 14.033 6.33 28.542 12.873 42.954 18.645 63.286 25.326 114.826 24.752 177.913-1.981 11.67-4.946 23.284-10.218 34.517-15.318 49.28-22.367 95.838-43.451 151.723-41.56 35.343 1.225 70.986 5.65 105.453 9.93 31.016 3.848 63.086 7.831 94.807 9.46 58.618 3.004 110.166-14.788 164.768-33.637 22.612-7.802 45.99-15.872 69.736-22.243l.494 1.837c-23.683 6.351-47.031 14.41-69.61 22.203-54.781 18.91-106.512 36.771-165.485 33.736-31.79-1.633-63.895-5.618-94.944-9.472-34.427-4.273-70.026-8.693-105.286-9.914-55.451-1.905-101.799 19.118-150.872 41.39-11.242 5.104-22.87 10.38-34.559 15.333-32.573 13.807-62.106 20.694-91.73 20.696"/></g><g opacity=".5"><path fill="#e5e8ee" d="M887.007 166.838c-28.212.002-56.515-6.317-87.639-18.925-14.45-5.852-28.973-12.482-43.014-18.894-45.723-20.88-93.007-42.473-145.288-40.576-33.093 1.195-66.134 8.01-98.084 14.598-28.773 5.934-58.527 12.07-88.314 14.118-37.711 2.593-74.051-6.775-109.191-15.829-30.196-7.782-61.417-15.825-93.318-16.217-40.054-.491-68.99-.849-109.14-20.165a2352.997 2352.997 0 0 1-9.309-4.501C69.24 43.74 39.472 29.313.12 25.672l.173-1.892c39.7 3.673 69.61 18.171 104.243 34.96 3.07 1.485 6.165 2.987 9.307 4.499 39.768 19.132 68.532 19.487 108.338 19.975 32.131.393 63.467 8.47 93.769 16.277 34.997 9.017 71.2 18.337 108.589 15.773 29.658-2.038 59.349-8.162 88.059-14.082 32.029-6.606 65.147-13.436 98.4-14.638 52.757-1.867 100.22 19.778 146.146 40.748 14.024 6.403 28.526 13.024 42.936 18.86 63.284 25.636 114.83 25.059 177.906-2.001 11.665-5.003 23.269-10.335 34.492-15.49 49.217-22.61 95.707-43.96 151.751-42.038 35.727 1.23 71.75 5.723 106.587 10.07 30.646 3.826 62.339 7.78 93.678 9.49 59.13 3.223 110.963-14.984 165.835-34.268 22.255-7.822 45.267-15.909 68.66-22.36l.504 1.834c-23.327 6.433-46.311 14.507-68.535 22.319-55.053 19.345-107.028 37.643-166.569 34.37-31.405-1.713-63.128-5.671-93.808-9.498-34.794-4.344-70.775-8.832-106.418-10.057-55.603-1.943-101.885 19.35-150.891 41.865-11.233 5.159-22.85 10.496-34.536 15.51-32.574 13.97-62.103 20.94-91.729 20.94"/></g><g opacity=".5"><path fill="#e5e8ee" d="M887.005 165.528c-28.215.002-56.517-6.386-87.645-19.132-14.446-5.917-28.956-12.618-42.984-19.098-45.683-21.096-92.927-42.93-145.313-40.994-33.077 1.21-66.082 8.091-98 14.745-28.796 6.004-58.574 12.21-88.4 14.268-37.54 2.583-73.663-6.806-108.605-15.888-30.318-7.883-61.67-16.034-93.735-16.278-43.876-.33-70.583-1.464-109.276-20.898a3256.105 3256.105 0 0 1-10.11-5.11C68.903 39.894 39.51 24.997.11 21.143l.184-1.892c39.755 3.888 69.298 18.862 103.503 36.2 3.326 1.686 6.687 3.39 10.102 5.103 38.316 19.248 64.848 20.37 108.44 20.7 32.3.244 63.766 8.425 94.197 16.337 34.796 9.045 70.764 18.407 107.999 15.831 29.696-2.047 59.405-8.241 88.14-14.232 31.997-6.668 65.081-13.567 98.318-14.784 52.807-1.926 100.294 19.98 146.179 41.17 14.013 6.471 28.5 13.162 42.908 19.062 63.293 25.916 114.832 25.328 177.898-2.027 11.658-5.058 23.246-10.439 34.452-15.645 49.162-22.833 95.58-44.376 151.793-42.486 36.127 1.235 72.544 5.799 107.763 10.213 30.266 3.793 61.561 7.717 92.505 9.502 59.695 3.46 111.744-15.164 166.87-34.866 21.912-7.831 44.569-15.928 67.62-22.454l.514 1.83c-22.988 6.506-45.615 14.592-67.493 22.413-55.315 19.767-107.548 38.431-167.619 34.973-31.01-1.79-62.336-5.717-92.633-9.514-35.175-4.408-71.55-8.967-107.59-10.198-55.806-1.93-101.98 19.575-150.93 42.31-11.216 5.212-22.815 10.598-34.495 15.666-32.573 14.127-62.102 21.174-91.73 21.174"/></g><g opacity=".5"><path fill="#e5e8ee" d="M887.013 164.385c-28.215.002-56.52-6.452-87.651-19.331-14.447-5.975-28.946-12.74-42.967-19.284-45.634-21.295-92.823-43.37-145.328-41.37-33.056 1.222-66.025 8.164-97.907 14.878-28.823 6.066-58.623 12.344-88.492 14.408-37.35 2.585-73.279-6.841-108.023-15.954-30.447-7.985-61.932-16.243-94.162-16.333-43.767-.121-70.426-1.179-109.408-21.538-3.677-1.922-7.291-3.831-10.86-5.715C68.595 36.396 39.557 21.07.11 17.048l.192-1.888C40.118 19.217 69.307 34.626 103.1 52.467c3.567 1.882 7.18 3.789 10.855 5.71C152.543 78.33 179.016 79.38 222.487 79.5c32.475.09 64.076 8.38 94.64 16.395 34.596 9.075 70.35 18.454 107.411 15.896 29.735-2.055 59.47-8.317 88.23-14.372 31.96-6.73 65.01-13.689 98.229-14.918 52.982-1.958 100.363 20.158 146.201 41.548 14.002 6.534 28.48 13.292 42.89 19.25 63.295 26.182 114.832 25.592 177.892-2.048 11.648-5.103 23.215-10.533 34.404-15.781 49.104-23.041 95.488-44.798 151.843-42.9 36.543 1.236 73.379 5.87 109.001 10.35 29.862 3.76 60.74 7.642 91.271 9.501 60.186 3.653 112.487-15.318 167.849-35.417 21.582-7.834 43.9-15.937 66.628-22.528l.53 1.826c-22.668 6.571-44.957 14.664-66.513 22.488-55.552 20.167-108.027 39.215-168.61 35.527-30.59-1.861-61.5-5.75-91.392-9.512-35.58-4.475-72.37-9.105-108.827-10.336-55.916-1.896-102.08 19.78-150.973 42.72-11.2 5.255-22.778 10.69-34.448 15.802-32.572 14.274-62.1 21.394-91.73 21.394"/></g><g opacity=".5"><path fill="#e5e8ee" d="M887.018 163.428c-28.216.002-56.522-6.514-87.656-19.513-14.443-6.029-28.927-12.853-42.935-19.452-45.595-21.477-92.74-43.728-145.358-41.715-33.033 1.237-65.962 8.232-97.805 14.997-28.85 6.131-58.684 12.468-88.595 14.538-37.158 2.56-72.904-6.881-107.457-16.021-30.455-8.057-61.948-16.388-94.21-16.388h-.379c-43.77.105-70.38-.892-109.53-22.074-3.917-2.12-7.761-4.226-11.553-6.302C68.313 33.297 39.618 17.58.11 13.428l.196-1.888c39.888 4.19 68.74 19.994 102.148 38.293 3.787 2.074 7.628 4.18 11.544 6.298C152.741 77.09 179.14 78.078 222.62 77.975H223c32.511 0 64.12 8.361 94.698 16.45 34.402 9.104 69.979 18.526 106.841 15.962 29.778-2.06 59.543-8.383 88.33-14.501 31.921-6.78 64.932-13.793 98.129-15.037 53.109-1.945 100.439 20.323 146.237 41.897 13.989 6.59 28.452 13.404 42.855 19.417 63.296 26.428 114.834 25.826 177.889-2.068 11.633-5.147 23.175-10.614 34.34-15.9 49.052-23.232 95.36-45.162 151.909-43.282 36.97 1.239 74.23 5.94 110.264 10.485 29.451 3.715 59.905 7.56 90.012 9.483 60.724 3.9 113.22-15.447 168.802-35.92 21.263-7.831 43.251-15.928 65.666-22.576l.54 1.82c-22.356 6.63-44.315 14.718-65.553 22.54-55.778 20.539-108.464 39.931-169.579 36.032-30.163-1.928-60.648-5.776-90.125-9.495-35.99-4.54-73.207-9.237-110.09-10.47-56.09-1.874-102.196 19.97-151.035 43.099-11.172 5.291-22.728 10.763-34.384 15.92-32.568 14.408-62.1 21.595-91.729 21.597"/></g><g opacity=".5"><path fill="#e5e8ee" d="M887.024 162.632c-28.213 0-56.528-6.57-87.664-19.679-14.439-6.08-28.908-12.953-42.9-19.601-45.554-21.637-92.66-44.033-145.39-42.023-33.002 1.248-65.885 8.29-97.686 15.102-28.885 6.186-58.75 12.585-88.713 14.653-36.999 2.558-72.535-6.923-106.902-16.093-30.31-8.086-61.641-16.445-93.757-16.445-.422 0-.84 0-1.261.004-45.019.308-70.36-.552-109.65-22.486a2264.165 2264.165 0 0 1-12.184-6.87C68.06 30.588 39.683 14.516.11 10.288L.31 8.4c39.965 4.27 68.503 20.431 101.542 39.142 3.99 2.26 8.04 4.554 12.179 6.864 38.868 21.702 64.02 22.553 108.708 22.245.424-.004.85-.004 1.275-.004 32.364 0 63.816 8.39 94.245 16.51 34.218 9.13 69.61 18.575 106.283 16.031 29.826-2.06 59.624-8.442 88.443-14.615 31.88-6.828 64.847-13.89 98.015-15.143 53.193-1.985 100.52 20.469 146.274 42.207 13.976 6.638 28.424 13.502 42.823 19.565 63.303 26.648 114.838 26.046 177.88-2.088 11.615-5.18 23.129-10.68 34.265-15.996 49.008-23.402 95.312-45.489 151.989-43.628 37.424 1.237 75.138 6.006 111.607 10.616 29.014 3.67 59.016 7.462 88.67 9.45 61.222 4.119 113.93-15.553 169.72-36.373 20.955-7.822 42.625-15.905 64.743-22.602l.549 1.817c-22.057 6.678-43.7 14.754-64.627 22.564-55.991 20.891-108.888 40.631-170.512 36.49-29.71-1.992-59.74-5.789-88.78-9.46-36.428-4.606-74.096-9.37-111.433-10.602-56.196-1.871-102.314 20.142-151.11 43.443-11.145 5.32-22.668 10.825-34.305 16.017-32.572 14.534-62.094 21.782-91.73 21.782"/></g><g opacity=".5"><path fill="#e5e8ee" d="M887.023 162.01c-28.214 0-56.532-6.621-87.673-19.831-14.435-6.124-28.887-13.041-42.866-19.73-45.509-21.782-92.538-44.307-145.421-42.291-32.97 1.255-65.805 8.34-97.562 15.189-28.92 6.24-58.824 12.691-88.838 14.758-36.817 2.52-72.178-6.977-106.368-16.173-30.836-8.295-62.734-16.794-95.446-16.488-45.111.531-70.511-.246-109.757-22.777a2043.78 2043.78 0 0 1-12.773-7.414C67.815 28.29 39.743 11.911.1 7.658L.305 5.77c40.046 4.296 68.28 20.77 100.97 39.844 4.176 2.435 8.419 4.912 12.763 7.406 38.815 22.283 64.005 23.048 108.79 22.524 33.026-.44 65 8.228 95.96 16.555 34.038 9.157 69.24 18.625 105.746 16.11 29.877-2.057 59.712-8.494 88.568-14.718 31.835-6.868 64.754-13.97 97.888-15.233 53.34-2.034 100.599 20.597 146.314 42.477 13.958 6.68 28.392 13.59 42.787 19.696 63.308 26.85 114.84 26.245 177.877-2.104 11.591-5.214 23.073-10.735 34.174-16.074 48.965-23.55 95.247-45.765 152.08-43.94 37.906 1.237 76.098 6.073 113.032 10.749 28.551 3.614 58.073 7.354 87.25 9.4 61.736 4.332 114.62-15.634 170.607-36.774 20.657-7.802 42.019-15.867 63.846-22.602l.56 1.814c-21.772 6.718-43.103 14.775-63.736 22.564-56.188 21.214-109.239 41.252-171.412 36.893-29.227-2.051-58.777-5.793-87.354-9.411-36.89-4.67-75.037-9.5-112.855-10.733-56.388-1.862-102.445 20.306-151.193 43.751-11.113 5.345-22.606 10.872-34.22 16.095-32.567 14.646-62.088 21.95-91.724 21.95"/></g><g opacity=".5"><path fill="#e5e8ee" d="M887.104 161.52c-28.217 0-56.557-6.657-87.748-19.935-14.553-6.198-29.102-13.2-43.17-19.977-45.345-21.835-92.255-44.44-145.113-42.382-32.933 1.265-65.716 8.382-97.418 15.263-28.963 6.289-58.911 12.788-88.984 14.847-36.659 2.501-71.83-7.03-105.846-16.255-30.973-8.4-62.95-17.058-95.88-16.54-42.994.704-68.949 1.137-109.86-22.928-4.542-2.67-8.969-5.322-13.32-7.928C67.599 26.417 39.819 9.776.11 5.558l.2-1.888c40.127 4.262 68.072 21.001 100.429 40.384 4.35 2.604 8.773 5.253 13.31 7.924 40.449 23.795 66.196 23.37 108.867 22.663 33.073-.595 65.307 8.173 96.405 16.608 33.865 9.185 68.877 18.681 105.221 16.191 29.936-2.047 59.814-8.533 88.71-14.807C545.035 85.735 577.902 78.6 611 77.326c53.384-2.028 100.46 20.635 146.011 42.572 14.05 6.764 28.578 13.76 43.09 19.94 63.404 26.993 114.937 26.381 177.874-2.114 11.569-5.24 23.012-10.78 34.078-16.135 48.921-23.68 95.14-46.042 152.177-44.213 38.416 1.238 77.115 6.138 114.54 10.88 28.058 3.555 57.077 7.228 85.743 9.329 62.253 4.564 115.307-15.683 171.482-37.115 20.363-7.77 41.421-15.805 62.967-22.568l.568 1.812c-21.491 6.746-42.52 14.77-62.859 22.53-56.376 21.51-109.637 41.825-172.294 37.236-28.72-2.104-57.761-5.783-85.847-9.34-37.38-4.736-76.034-9.632-114.36-10.865-56.616-1.825-102.584 20.448-151.29 44.023-11.076 5.362-22.533 10.906-34.123 16.154-32.514 14.724-62.015 22.066-91.652 22.068"/></g><g opacity=".5"><path fill="#e5e8ee" d="M887.108 161.226c-28.217 0-56.559-6.693-87.754-20.052-14.553-6.23-29.083-13.266-43.134-20.07-45.301-21.935-92.125-44.612-145.15-42.566-32.888 1.27-65.618 8.416-97.268 15.322-29.007 6.33-59 12.88-89.133 14.925-36.5 2.473-71.489-7.094-105.339-16.35-31.107-8.503-63.261-17.321-96.32-16.592-43.226.915-69.314 1.483-109.952-22.925-4.72-2.838-9.312-5.65-13.821-8.414C67.39 24.988 39.887 8.13.11 4.01l.198-1.89c40.207 4.167 67.878 21.126 99.92 40.764 4.503 2.76 9.092 5.572 13.808 8.404 40.166 24.126 64.59 23.61 108.935 22.656 33.292-.753 65.622 8.117 96.86 16.66 33.693 9.214 68.55 18.741 104.71 16.285 29.992-2.037 59.916-8.567 88.854-14.883 31.733-6.927 64.546-14.087 97.602-15.367 53.504-2.06 100.541 20.718 146.051 42.758 14.03 6.794 28.542 13.82 43.053 20.03 63.411 27.153 114.942 26.536 177.869-2.127 11.537-5.256 22.936-10.802 33.962-16.167 48.887-23.79 95.081-46.274 152.295-44.45 38.952 1.234 78.19 6.203 116.137 11.008 27.54 3.487 56.02 7.094 84.152 9.238 62.762 4.8 115.983-15.698 172.333-37.392 20.074-7.728 40.834-15.72 62.105-22.507l.579 1.81c-21.22 6.767-41.953 14.748-62.004 22.47-56.555 21.771-109.998 42.33-173.16 37.515-28.178-2.15-56.68-5.76-84.244-9.252-37.902-4.798-77.095-9.76-115.957-10.991-56.813-1.816-102.735 20.575-151.406 44.258-11.035 5.37-22.444 10.923-34.006 16.188-32.51 14.81-62.011 22.198-91.648 22.198"/></g><g opacity=".5"><path fill="#e5e8ee" d="M887.113 161.091c-28.218 0-56.562-6.727-87.765-20.15-14.547-6.258-29.056-13.314-43.084-20.14-45.261-22.016-92.126-44.785-145.197-42.711-32.843 1.278-65.51 8.439-97.102 15.364-29.056 6.368-59.102 12.955-89.301 14.984-36.325 2.44-71.16-7.16-104.846-16.445-31.246-8.612-63.563-17.53-96.765-16.648l-1.106.029c-44.275 1.168-68.672 1.808-108.93-22.796-4.89-2.988-9.636-5.955-14.29-8.862C67.19 24.006 39.952 6.986.11 3.03L.3 1.14c40.281 4 67.692 21.13 99.434 40.965 4.65 2.906 9.39 5.867 14.274 8.853 39.776 24.308 63.973 23.673 107.89 22.518l1.107-.03c33.482-.88 65.94 8.066 97.32 16.716 33.53 9.242 68.21 18.804 104.213 16.38 30.056-2.019 60.033-8.589 89.02-14.944 31.674-6.942 64.424-14.122 97.435-15.407 53.601-2.097 100.633 20.784 146.103 42.904 14.01 6.815 28.496 13.861 43.003 20.102 63.424 27.284 114.955 26.665 177.865-2.14 11.5-5.267 22.85-10.813 33.828-16.177 48.854-23.878 94.925-46.443 152.431-44.65 39.539 1.231 79.364 6.268 117.879 11.14 26.974 3.411 54.868 6.94 82.412 9.128 63.282 5.01 116.656-15.686 173.176-37.612 19.79-7.678 40.255-15.615 61.256-22.407l.587 1.806c-20.952 6.775-41.39 14.705-61.155 22.37-56.73 22.008-110.312 42.8-174.014 37.735-27.59-2.19-55.504-5.72-82.501-9.136-38.47-4.866-78.25-9.897-117.699-11.124-56.96-1.78-102.898 20.684-151.54 44.458-10.986 5.369-22.346 10.92-33.87 16.195-32.505 14.885-62.003 22.308-91.64 22.308"/></g><g opacity=".5"><g opacity=".5"/><g clip-path="url(#v5jwc)" opacity=".5"><path fill="#e5e8ee" d="M887.292 161.174c-28.391 0-56.972-6.725-87.945-20.163-14.505-6.296-28.969-13.407-42.957-20.287-44.485-21.874-90.504-44.541-142.75-42.792-33.315 1.08-66.423 8.287-98.436 15.256-27.74 6.038-56.422 12.28-85.203 14.543-37.652 2.967-73.586-6.777-108.334-16.2-32.707-8.868-66.54-18.028-101.394-16.38-43.516 2.07-68.12 1.966-108.717-23.435a1968.528 1968.528 0 0 1-12.73-8.061C67.382 23.615 40.226 6.31.12 2.652L.295.76c40.56 3.7 67.897 21.12 99.554 41.292 4.148 2.644 8.372 5.337 12.716 8.053 40.112 25.098 64.479 25.2 107.62 23.15 35.163-1.684 69.132 7.54 101.98 16.444 34.59 9.38 70.35 19.067 107.688 16.14 28.65-2.254 57.27-8.484 84.946-14.507 32.097-6.986 65.29-14.21 98.777-15.3 52.76-1.684 98.96 21.011 143.651 42.989 13.97 6.868 28.41 13.97 42.878 20.246 62.158 26.975 114.618 26.671 175.408-1.014 12.52-5.702 24.866-11.797 36.807-17.694 46.625-23.02 90.692-44.779 144.952-44.779.574 0 1.151.002 1.728.008 41.613.353 83.547 5.893 124.101 11.251 27.634 3.651 56.213 7.425 84.4 9.518 62.4 4.648 115.044-16.017 170.807-37.879 19.596-7.682 39.858-15.623 60.64-22.423l.59 1.808c-20.73 6.779-40.966 14.712-60.537 22.386-55.97 21.94-108.84 42.665-171.641 38.004-28.24-2.1-56.845-5.877-84.51-9.531-40.497-5.349-82.37-10.882-123.865-11.235-54.611-.524-98.912 21.413-145.823 44.576-11.953 5.9-24.314 12.005-36.863 17.719-31.037 14.133-59.922 21.192-89.007 21.192"/></g></g></g></g></svg>