<svg xmlns="http://www.w3.org/2000/svg" width="487" height="491" viewBox="0 0 487 491"><g><g><g><path fill="none" stroke="#e73629" stroke-miterlimit="20" stroke-width=".5" d="M196.957 207.09c5.618-12.528 25.618-13.742 44.442-2.7 18.824 11.042 45.342 33.716 58.928 50.386 13.586 16.67 13.716 35.312.29 41.428s-40.096 7.772-59.268 3.68c-19.172-4.092-39.3-21.52-44.732-38.73-5.432-17.21-5.28-41.538.34-54.064z"/></g><g><path fill="none" stroke="#e73629" stroke-miterlimit="20" stroke-width=".5" d="M196.757 203.602c6.546-12.532 27.622-12.718 46.836-.414s45.914 36.926 59.334 54.716c13.42 17.79 12.6 36.888-1.82 42.442-14.42 5.554-42.528 5.838-62.462.634-19.934-5.204-40.192-24.118-45.016-42.028-4.826-17.912-3.418-42.818 3.128-55.35z"/></g><g><path fill="none" stroke="#e73629" stroke-miterlimit="20" stroke-width=".5" d="M196.717 200.025c7.52-12.488 29.674-11.564 49.232 2.054 19.558 13.616 46.35 40.244 59.538 59.172 13.188 18.928 11.348 38.442-4.088 43.368-15.436 4.926-44.984 3.73-65.662-2.654-20.678-6.384-40.994-26.824-45.144-45.42-4.15-18.596-1.396-44.032 6.124-56.52z"/></g><g><path fill="none" stroke="#e73629" stroke-miterlimit="20" stroke-width=".5" d="M196.868 196.35c8.542-12.39 31.772-10.273 51.624 4.705 19.852 14.98 46.638 43.664 59.524 63.746 12.886 20.08 9.954 39.97-6.518 44.196-16.472 4.226-47.458 1.44-68.858-6.192-21.4-7.632-41.698-29.638-45.106-48.902-3.408-19.264.794-45.164 9.334-57.554z"/></g><g><path fill="none" stroke="#e73629" stroke-miterlimit="20" stroke-width=".5" d="M197.22 192.6c9.61-12.237 33.91-8.84 54 7.55 20.09 16.39 46.764 47.183 59.276 68.43 12.51 21.247 8.41 41.459-9.114 44.917-17.524 3.458-49.938-1.034-72.032-9.982-22.094-8.948-42.294-32.556-44.886-52.466-2.594-19.908 3.146-46.21 12.756-58.448z"/></g><g><path fill="none" stroke="#e73629" stroke-miterlimit="20" stroke-width=".5" d="M197.775 188.78c10.724-12.024 36.084-7.26 56.352 10.588 20.268 17.848 46.718 50.792 58.774 73.212 12.056 22.42 6.71 42.902-11.878 45.516-18.588 2.614-52.418-3.7-75.174-14.032-22.756-10.332-42.77-35.578-44.474-56.102-1.704-20.528 5.676-47.158 16.4-59.182z"/></g><g><path fill="none" stroke="#e73629" stroke-miterlimit="20" stroke-width=".5" d="M198.558 184.89c11.884-11.745 38.286-5.525 58.668 13.823 20.382 19.348 46.484 54.486 58.002 78.084 11.518 23.598 4.852 44.29-14.814 45.984-19.666 1.694-54.888-6.562-78.268-18.346-23.38-11.784-43.116-38.696-43.854-59.806-.738-21.11 8.382-47.992 20.266-59.738z"/></g><g><path fill="none" stroke="#e73629" stroke-miterlimit="20" stroke-width=".5" d="M199.58 180.957c13.09-11.4 40.51-3.634 60.936 17.258 20.424 20.892 46.048 58.258 56.942 83.032 10.894 24.774 2.828 45.612-17.924 46.308-20.75.694-57.334-9.622-81.298-22.926-23.962-13.304-43.318-41.908-43.012-63.566.306-21.658 11.266-48.706 24.356-60.106z"/></g><g><path fill="none" stroke="#e73629" stroke-miterlimit="20" stroke-width=".5" d="M200.848 176.973c14.338-10.984 42.752-1.58 63.142 20.896s45.398 62.096 55.574 88.042c10.176 25.948.634 46.86-21.206 46.474-21.838-.386-59.75-12.886-84.246-27.778-24.496-14.892-43.368-45.208-41.936-67.37 1.432-22.162 14.334-49.282 28.672-60.264z"/></g><g><path fill="none" stroke="#e73629" stroke-miterlimit="20" stroke-width=".5" d="M202.39 172.97c15.628-10.49 45.002.644 65.272 24.74 20.27 24.096 44.518 65.992 53.878 93.102 9.362 27.11-1.736 48.024-24.664 46.472-22.926-1.55-62.12-16.356-87.094-32.902-24.974-16.546-43.25-48.59-40.608-71.212 2.64-22.622 17.586-49.712 33.216-60.2z"/></g><g><path fill="none" stroke="#e73629" stroke-miterlimit="20" stroke-width=".5" d="M204.217 168.945c16.958-9.916 47.25 3.038 67.316 28.788 20.066 25.75 43.392 69.936 51.84 98.194 8.446 28.258-4.286 49.088-28.298 46.288-24.01-2.8-64.432-20.036-89.826-38.302-25.394-18.266-42.952-52.048-39.018-75.074 3.934-23.026 21.028-49.98 37.986-59.894z"/></g><g><path fill="none" stroke="#e73629" stroke-miterlimit="20" stroke-width=".5" d="M206.34 164.922c18.327-9.258 49.491 5.61 69.253 33.04s42.008 73.914 49.434 103.3c7.426 29.386-7.02 50.044-32.106 45.906-25.084-4.138-66.672-23.926-92.418-43.974-25.746-20.048-42.462-55.574-37.148-78.946s24.658-50.068 42.984-59.326z"/></g><g><path fill="none" stroke="#e73629" stroke-miterlimit="20" stroke-width=".5" d="M208.782 160.917c19.732-8.512 51.714 8.364 71.072 37.498 19.358 29.134 40.35 77.916 46.646 108.404 6.296 30.486-9.942 50.878-36.086 45.314s-68.828-28.028-94.852-49.92c-26.024-21.892-41.768-59.158-34.986-82.812 6.782-23.656 28.476-49.974 48.206-58.484z"/></g><g><path fill="none" stroke="#e73629" stroke-miterlimit="20" stroke-width=".5" d="M211.541 156.934c21.168-7.672 53.908 11.3 72.756 42.16 18.848 30.86 38.402 81.928 43.456 113.48 5.054 31.552-13.054 51.576-40.24 44.496-27.186-7.08-70.882-32.344-97.104-56.14-26.222-23.796-40.854-62.788-32.516-86.654 8.338-23.866 32.48-49.67 53.648-57.342z"/></g><g><path fill="none" stroke="#e73629" stroke-miterlimit="20" stroke-width=".5" d="M214.658 153.011c22.636-6.738 56.064 14.424 74.284 47.024 18.222 32.6 36.15 85.932 39.842 118.512s-16.36 52.128-44.562 43.44c-28.202-8.69-72.82-36.872-99.15-62.626-26.33-25.754-39.706-66.464-29.722-90.464 9.984-24 36.674-49.148 59.308-55.886z"/></g><g><path fill="none" stroke="#e73629" stroke-miterlimit="20" stroke-width=".5" d="M218.123 149.165c24.128-5.702 58.168 17.736 75.642 52.086 17.474 34.35 33.578 89.912 35.788 123.474 2.21 33.562-19.862 52.518-49.048 42.13-29.186-10.39-74.622-41.61-100.97-69.378-26.346-27.768-38.314-70.164-26.592-94.214 11.72-24.052 41.052-48.396 65.18-54.098z"/></g><g><path fill="none" stroke="#e73629" stroke-miterlimit="20" stroke-width=".5" d="M221.966 145.393c25.646-4.564 60.208 21.238 76.808 57.34 16.6 36.102 30.674 93.854 31.274 128.34.602 34.486-23.562 52.734-53.696 40.55-30.134-12.184-76.274-46.558-102.534-76.39-26.26-29.83-36.66-73.882-23.112-97.89 13.548-24.008 45.616-47.386 71.26-51.95z"/></g><g><path fill="none" stroke="#e73629" stroke-miterlimit="20" stroke-width=".5" d="M226.2 141.745c27.18-3.318 62.173 24.934 77.763 62.784 15.59 37.848 27.418 97.736 26.282 133.086-1.136 35.348-27.46 52.758-58.498 38.686-31.038-14.072-77.756-51.714-103.82-83.652-26.064-31.938-34.732-77.6-19.266-101.47 15.466-23.87 50.358-46.116 77.538-49.434z"/></g><g><path fill="none" stroke="#e73629" stroke-miterlimit="20" stroke-width=".5" d="M230.832 138.229c28.728-1.96 64.05 28.824 78.49 68.408 14.44 39.584 23.798 101.54 20.792 137.68-3.006 36.14-31.558 52.576-63.448 36.524-31.892-16.052-79.05-57.072-104.796-91.158-25.746-34.086-32.516-81.306-15.042-104.932 17.474-23.626 55.276-44.562 84.004-46.522z"/></g><g><path fill="none" stroke="#e73629" stroke-miterlimit="20" stroke-width=".5" d="M235.882 134.875c30.286-.488 65.82 32.904 78.966 74.206 13.144 41.302 19.8 105.244 14.79 142.096-5.01 36.85-35.854 52.172-68.54 34.048-32.686-18.124-80.134-62.628-105.44-98.896-25.306-36.268-29.998-84.982-10.426-108.256 19.572-23.274 60.364-42.71 90.65-43.198z"/></g><g><path fill="none" stroke="#e73629" stroke-miterlimit="20" stroke-width=".5" d="M241.357 131.709c31.848 1.102 67.472 37.178 79.166 80.17 11.694 42.992 15.41 108.826 8.256 146.3-7.154 37.474-40.346 51.534-73.762 31.244-33.414-20.29-80.988-68.374-105.718-106.854-24.73-38.48-27.162-88.616-5.406-111.414 21.756-22.798 65.618-40.548 97.464-39.446z"/></g><g><path fill="none" stroke="#e73629" stroke-miterlimit="20" stroke-width=".5" d="M247.28 128.753c33.406 2.812 68.988 41.642 79.072 86.288 10.084 44.646 10.612 112.262 1.174 150.26-9.438 37.998-45.034 50.64-79.104 28.096-34.07-22.546-81.59-74.304-105.602-115.018s-23.998-92.188.032-114.384c24.03-22.196 71.022-38.054 104.428-35.242z"/></g><g><path fill="none" stroke="#e73629" stroke-miterlimit="20" stroke-width=".5" d="M253.648 126.043c34.956 4.646 70.354 46.294 78.66 92.548 8.306 46.254 5.396 115.528-6.468 153.942s-49.914 49.478-84.556 24.588c-34.642-24.89-81.92-80.408-105.062-123.372-23.142-42.964-20.488-95.676 5.896-117.136 26.384-21.46 76.574-35.216 111.53-30.57z"/></g><g><path fill="none" stroke="#e73629" stroke-miterlimit="20" stroke-width=".52" d="M260.479 123.593c36.492 6.608 71.548 51.128 77.906 98.936 6.356 47.808-.254 118.596-14.688 157.308-14.436 38.712-54.982 48.03-90.106 20.708-35.122-27.322-81.952-86.676-104.066-131.9-22.114-45.224-16.624-99.064 12.2-119.646 28.824-20.582 82.264-32.012 118.754-25.406z"/></g><g><path fill="none" stroke="#e73629" stroke-miterlimit="20" stroke-width=".54" d="M267.777 121.46c38.004 8.696 72.556 56.144 76.784 105.44 4.228 49.296-6.346 121.438-23.498 160.318-17.152 38.88-60.234 46.28-95.738 16.442s-81.666-93.098-102.584-140.58c-20.918-47.482-12.388-102.33 18.952-121.882 31.34-19.552 88.082-28.436 126.084-19.738z"/></g><g><path fill="none" stroke="#e73629" stroke-miterlimit="20" stroke-width=".56" d="M275.557 119.651c39.484 10.916 73.358 61.334 75.274 112.04 1.916 50.706-12.892 124.028-32.908 162.938-20.014 38.91-65.662 44.208-101.436 11.776s-81.036-99.66-100.58-149.392c-19.544-49.732-7.77-105.45 26.164-123.816s94.002-24.462 133.486-13.546z"/></g><g><path fill="none" stroke="#e73629" stroke-miterlimit="20" stroke-width=".58" d="M283.825 118.22c40.928 13.269 73.936 66.69 73.35 118.72-.586 52.03-19.904 126.335-42.928 165.123-23.024 38.788-71.258 41.8-107.184 6.694-35.926-35.106-80.038-106.346-98.024-158.31-17.986-51.964-2.76-108.4 33.836-125.414 36.596-17.014 100.022-20.08 140.95-6.812z"/></g><g><path fill="none" stroke="#e73629" stroke-miterlimit="20" stroke-width=".6" d="M292.593 117.185c42.324 15.752 74.266 72.206 70.984 125.458-3.284 53.25-27.39 128.324-53.57 166.828-26.18 38.504-77.014 39.038-112.964 1.186s-78.646-113.14-94.88-167.306c-16.234-54.166 2.656-111.156 41.982-126.644s106.124-15.274 148.448.478z"/></g><g><path fill="none" stroke="#e73629" stroke-miterlimit="20" stroke-width=".63" d="M301.854 116.59c43.664 18.368 74.332 77.874 68.152 132.234-6.18 54.36-35.358 129.966-64.84 168.012-29.482 38.048-82.922 35.906-118.756-4.758s-76.836-120.024-91.116-176.354c-14.28-56.33 8.49-113.692 50.602-127.474 42.112-13.782 112.296-10.028 155.958 8.34z"/></g><g><path fill="none" stroke="#e73629" stroke-miterlimit="20" stroke-width=".65" d="M311.61 116.47c44.937 21.12 74.11 83.68 64.833 139.023-9.28 55.342-43.812 131.226-76.742 168.63-32.93 37.404-88.968 32.386-124.534-11.154-35.566-43.54-74.58-126.978-86.698-185.42-12.118-58.442 14.748-115.982 59.704-127.868 44.956-11.886 118.5-4.33 163.438 16.79z"/></g><g><path fill="none" stroke="#e73629" stroke-miterlimit="20" stroke-width=".68" d="M321.877 116.862c46.132 24.006 73.58 89.616 60.992 145.8-12.586 56.184-52.762 132.068-89.278 168.632-36.516 36.564-95.142 28.46-130.28-18.008-35.138-46.468-71.854-133.98-81.59-194.47-9.736-60.49 21.442-117.996 69.286-127.79 47.844-9.794 124.738 1.83 170.87 25.836z"/></g><g><path fill="none" stroke="#e73629" stroke-miterlimit="20" stroke-width=".7" d="M332.639 117.8c47.242 27.023 72.718 95.663 56.612 152.535s-62.208 132.46-102.45 167.972c-40.242 35.512-101.426 24.114-135.964-25.332s-68.63-141.008-75.76-203.47c-7.13-62.462 28.578-119.704 79.352-127.204s130.968 8.476 178.21 35.498z"/></g><g><path fill="none" stroke="#e73629" stroke-miterlimit="20" stroke-width=".73" d="M343.9 119.343c48.254 30.172 71.502 101.814 51.664 159.204-19.838 57.39-72.154 132.36-116.258 166.6-44.104 34.24-107.806 19.33-141.562-33.134-33.756-52.464-64.882-148.032-69.172-212.376-4.29-64.344 36.164-121.076 89.898-126.07 53.732-4.996 137.176 15.602 185.43 45.776z"/></g><g><path fill="none" stroke="#e73629" stroke-miterlimit="20" stroke-width=".76" d="M355.642 121.517c49.154 33.452 69.91 108.048 46.124 165.77-23.786 57.722-82.598 131.732-130.694 164.464-48.096 32.732-114.266 14.094-147.044-41.418-32.778-55.512-60.584-155.03-61.794-221.15-1.21-66.12 44.204-122.078 100.92-124.352 56.716-2.274 143.334 23.234 192.488 56.686z"/></g><g><path fill="none" stroke="#e73629" stroke-miterlimit="20" stroke-width=".79" d="M367.878 124.356c49.932 36.856 67.916 114.348 39.966 172.202-27.952 57.854-93.54 130.536-145.754 161.514-52.214 30.978-120.784 8.392-152.378-50.192-31.594-58.584-55.71-161.968-53.592-229.744 2.12-67.776 52.704-122.68 112.412-122.01 59.71.67 149.414 31.374 199.346 68.23z"/></g><g><path fill="none" stroke="#e73629" stroke-miterlimit="20" stroke-width=".82" d="M380.598 127.91c50.576 40.385 65.5 120.695 33.166 178.465-32.334 57.77-104.976 128.732-161.426 157.694-56.45 28.962-127.34 2.206-157.534-59.46-30.194-61.666-50.236-168.814-44.534-238.11C55.972 97.203 111.936 43.65 174.64 47.495c62.704 3.844 155.382 40.032 205.958 80.416z"/></g><g><path fill="none" stroke="#e73629" stroke-miterlimit="20" stroke-width=".85" d="M393.771 132.231c51.07 44.032 62.636 127.064 25.7 184.516-36.936 57.452-116.9 126.282-177.698 152.956-60.798 26.674-133.912-4.476-162.476-69.222-28.564-64.746-44.13-175.538-34.588-246.202 9.542-70.664 71.092-122.546 136.778-115.292 65.686 7.254 161.212 49.212 212.284 93.244z"/></g><g><path fill="none" stroke="#e73629" stroke-miterlimit="20" stroke-width=".88" d="M407.39 137.344c51.403 47.794 59.297 133.438 17.543 190.318-41.754 56.88-129.302 123.14-194.552 147.242-65.25 24.102-140.476-11.666-167.17-79.482-26.694-67.816-37.368-182.098-23.718-253.96C53.143 69.6 120.473 19.724 189.12 30.626c68.646 10.902 166.866 58.924 218.27 106.718z"/></g><g><path fill="none" stroke="#e73629" stroke-miterlimit="20" stroke-width=".91" d="M421.44 143.312c51.56 51.664 55.466 139.786 8.678 195.83C383.33 395.186 287.944 458.41 218.15 479.64c-69.794 21.23-147.002-19.376-171.574-90.238-24.572-70.862-29.928-188.46-11.902-261.33C52.7 55.202 126.002 7.686 197.57 22.48c71.568 14.794 172.31 69.168 223.87 120.832z"/></g><g><path fill="none" stroke="#e73629" stroke-miterlimit="20" stroke-width=".95" d="M435.893 150.154c51.528 55.634 51.114 146.088-.92 201.006-52.034 54.918-155.498 114.622-229.922 132.672-74.424 18.05-153.466-27.618-175.65-101.486-22.184-73.868-21.786-194.582.888-268.254C52.963 40.42 132.421-4.364 206.861 14.572c74.44 18.936 177.504 79.948 229.032 135.582z"/></g><g><path fill="none" stroke="#e73629" stroke-miterlimit="20" stroke-width=".99" d="M450.725 157.931c51.29 59.7 46.218 152.308-11.272 205.798-57.49 53.49-169.262 109.158-248.384 123.708-79.122 14.55-159.834-36.398-179.356-113.218C-7.809 297.4-1.203 173.8 26.4 99.551 54.001 25.303 139.783-16.357 217.027 6.971c77.244 23.328 182.408 91.262 233.698 150.96z"/></g></g></g></svg>