<svg xmlns="http://www.w3.org/2000/svg" width="683" height="800" viewBox="0 0 683 800"><g><g clip-path="url(#clip-6FA0233D-C8B2-4638-9E1B-3334329BDDA0)" transform="rotate(180 574 282.5)"><g><path fill="none" stroke="#325bb9" stroke-miterlimit="20" stroke-width="1.34" d="M526.26-301.86c-163.793 0-143.84 61.406-276.355 157.683C117.391-47.901 65.158-85.852 14.543 69.928c-50.614 155.78 13.949 155.78 64.57 311.554 50.62 155.774-1.62 193.731 130.894 290.008 132.514 96.277 152.467 34.87 316.26 34.87 163.794 0 183.746 61.407 316.26-34.87 132.514-96.277 80.281-134.228 130.895-290.008 50.614-155.78 115.183-155.78 64.569-311.554-50.614-155.774-117.18-96.396-233.069-212.146C688.134-258.856 690.056-301.86 526.262-301.86z"/></g><g><path fill="none" stroke="#325bb9" stroke-miterlimit="20" stroke-width="1.41" d="M533.404-288.86c-162.188 0-142.544 60.461-273.754 155.793C128.44-37.736 77.006-75.101 26.884 79.148c-50.123 154.25 13.456 154.25 63.573 308.499 50.116 154.249-1.31 191.62 129.9 286.952 131.216 95.332 150.86 34.87 313.047 34.87S715.24 769.931 846.45 674.6c131.216-95.332 79.783-132.697 129.9-286.952 50.116-154.25 113.689-154.25 63.573-308.499C989.807-75.1 924.23-16.524 809.45-131.114 693.833-246.53 695.597-288.86 533.404-288.86z"/></g><g><path fill="none" stroke="#325bb9" stroke-miterlimit="20" stroke-width="1.49" d="M540.562-275.86c-160.58 0-141.246 59.516-271.158 153.909C139.49-27.558 88.858-64.351 39.24 88.374-10.38 241.1 52.199 241.1 101.817 393.824c49.62 152.724-1.008 189.51 128.911 283.897 129.919 94.386 149.253 34.87 309.834 34.87 160.58 0 179.922 59.516 309.834-34.87 129.912-94.387 79.286-131.173 128.91-283.897 49.626-152.725 112.204-152.725 62.579-305.45C992.259-64.35 927.678-6.579 814-120.004 699.549-234.211 701.143-275.86 540.562-275.86z"/></g><g><path fill="none" stroke="#325bb9" stroke-miterlimit="20" stroke-width="1.56" d="M547.716-262.87c-158.974 0-139.948 58.571-268.562 152.019C150.539-17.403 100.719-53.609 51.59 97.584 2.464 248.778 64.053 248.778 113.18 399.978c49.127 151.2-.7 187.4 127.915 280.842 128.615 93.441 147.647 34.87 306.628 34.87 158.98 0 178.006 58.571 306.627-34.87 128.614-93.442 78.788-129.648 127.915-280.842 49.127-151.194 110.716-151.194 61.589-302.394-49.128-151.2-112.72-94.235-225.288-206.495C705.26-221.895 706.696-262.87 547.716-262.87z"/></g><g><path fill="none" stroke="#325bb9" stroke-miterlimit="20" stroke-width="1.63" d="M554.868-249.87c-157.374 0-138.644 57.632-265.96 150.129C161.59-7.244 112.57-42.858 63.94 106.811 15.31 256.48 75.904 256.48 124.534 406.149c48.63 149.67-.39 185.29 126.926 277.786 127.317 92.503 146.04 34.87 303.414 34.87s176.098 57.633 303.415-34.87c127.316-92.503 78.29-128.117 126.926-277.786 48.63-149.67 109.23-149.67 60.593-299.338-48.63-149.67-111.226-93.517-222.692-204.612C710.963-209.569 712.236-249.87 554.868-249.87z"/></g><g><path fill="none" stroke="#325bb9" stroke-miterlimit="20" stroke-width="1.71" d="M562.026-236.88c-155.768 0-137.346 56.687-263.365 148.245C172.64 2.923 124.42-32.11 76.29 116.027 28.158 264.165 87.762 264.172 135.894 412.31s-.088 183.179 125.93 274.73c126.02 91.558 144.434 34.87 300.202 34.87 155.767 0 174.182 56.688 300.201-34.87 126.019-91.558 77.799-126.592 125.93-274.73 48.133-148.138 107.737-148.145 59.605-296.283S938.022 23.228 827.665-86.7C716.678-197.253 717.793-236.88 562.025-236.88z"/></g><g><path fill="none" stroke="#325bb9" stroke-miterlimit="20" stroke-width="1.78" d="M569.181-223.88c-154.16 0-136.048 55.742-260.763 146.355C183.703 13.088 136.283-21.36 88.643 125.253 41.002 271.867 99.617 271.867 147.25 418.481c47.635 146.613.22 181.068 124.936 271.674 124.715 90.607 142.827 34.871 296.988 34.871s172.274 55.742 296.988-34.87C990.878 599.542 943.464 565.093 991.1 418.48c47.64-146.614 106.25-146.614 58.608-293.228-47.64-146.613-108.252-92.08-217.5-200.844C722.384-184.927 723.341-223.88 569.18-223.88z"/></g><g><path fill="none" stroke="#325bb9" stroke-miterlimit="20" stroke-width="1.85" d="M576.324-210.89c-152.554 0-134.75 54.797-258.167 144.465-123.417 89.668-170.031 55.8-217.174 200.888-47.143 145.09 10.477 145.09 57.62 290.172 47.143 145.083.53 178.958 123.946 268.626 123.417 89.668 141.22 34.87 293.775 34.87 152.555 0 170.359 54.798 293.776-34.87s76.803-123.537 123.946-268.626c47.143-145.089 104.763-145.089 57.62-290.172C1004.523-10.626 944.9 43.101 836.754-64.497 728.085-172.617 728.879-210.89 576.324-210.89z"/></g><g><path fill="none" stroke="#325bb9" stroke-miterlimit="20" stroke-width="1.93" d="M583.484-197.89c-150.948 0-133.446 53.852-255.572 142.582C205.787 33.42 159.98.132 113.334 143.69c-46.645 143.558 9.98 143.558 56.625 287.122 46.645 143.565.831 176.841 122.95 265.57 122.12 88.723 139.621 34.87 290.57 34.87 150.947 0 168.448 53.853 290.568-34.87 122.119-88.723 76.305-122.012 122.95-265.57 46.646-143.558 103.27-143.558 56.625-287.122C1006.977.132 948.342 53.045 841.306-53.387 733.796-160.292 734.432-197.89 583.484-197.89z"/></g><g><path fill="none" stroke="#325bb9" stroke-miterlimit="20" stroke-width="2" d="M590.632-184.89c-149.341 0-132.149 52.914-252.97 140.692s-165.829 55.08-211.976 197.114c-46.148 142.033 9.481 142.033 55.635 284.067 46.154 142.033 1.14 174.73 121.962 262.515 120.821 87.784 138.014 34.87 287.355 34.87 149.342 0 166.535 52.914 287.356-34.87 120.821-87.785 75.814-120.482 121.962-262.515 46.147-142.034 101.783-142.034 55.635-284.067-46.147-142.034-103.786-89.92-209.72-195.193C739.5-147.972 739.973-184.89 590.631-184.89z"/></g><g><path fill="none" stroke="#325bb9" stroke-miterlimit="20" stroke-width="2.08" d="M597.795-171.89c-147.735 0-130.851 51.969-250.375 138.802-119.523 86.833-163.724 54.721-209.38 195.224-45.656 140.503 8.99 140.503 54.64 281.011 45.65 140.51 1.449 172.62 120.966 259.46 119.524 86.839 136.408 34.87 284.143 34.87 147.735 0 164.619 51.969 284.142-34.87 119.524-86.84 75.317-118.957 120.966-259.46 45.657-140.502 100.296-140.502 54.64-281.011-45.656-140.509-102.3-89.202-207.125-193.31C745.215-135.645 745.53-171.89 597.795-171.89z"/></g><g><path fill="none" stroke="#325bb9" stroke-miterlimit="20" stroke-width="2.15" d="M604.94-158.9c-146.128 0-129.552 51.024-247.772 136.918S195.542 32.374 150.39 171.358c-45.153 138.985 8.492 138.979 53.65 277.957 45.159 138.978 1.752 170.51 119.978 256.403 118.225 85.894 134.8 34.87 280.93 34.87 146.128 0 162.71 51.024 280.929-34.87 118.22-85.894 74.819-117.425 119.977-256.403s98.803-138.978 53.65-277.956C1014.347 32.38 958.693 82.875 854.97-20.067 750.919-123.337 751.069-158.9 604.94-158.9z"/></g><g><path fill="none" stroke="#325bb9" stroke-miterlimit="20" stroke-width="2.22" d="M612.096-145.91c-144.522 0-128.256 50.079-245.178 135.028-116.921 84.95-159.522 53.997-204.183 191.45-44.66 137.454 7.995 137.454 52.656 274.901 44.66 137.447 2.06 168.4 118.982 253.348 116.921 84.95 133.194 34.87 277.716 34.87 144.522 0 160.795 50.08 277.717-34.87 116.922-84.949 74.32-115.9 118.982-253.348 44.66-137.453 97.316-137.453 52.655-274.9-44.66-137.454-99.326-87.766-201.94-189.542C756.623-111.014 756.618-145.91 612.096-145.91z"/></g><g><path fill="none" stroke="#325bb9" stroke-miterlimit="20" stroke-width="2.3" d="M619.252-132.91C476.33-132.91 492.3-83.776 376.676.228 261.053 84.232 219.252 53.872 175.09 189.795c-44.163 135.922 7.497 135.922 51.666 271.845 44.17 135.922 2.37 166.288 117.993 250.299 115.624 84.01 131.588 34.87 274.51 34.87s158.886 49.134 274.51-34.87c115.624-84.004 73.83-114.37 117.993-250.3 44.163-135.922 95.829-135.922 51.666-271.844-44.163-135.923-97.84-87.047-199.345-187.658C762.337-98.695 762.173-132.91 619.252-132.91z"/></g><g><path fill="none" stroke="#325bb9" stroke-miterlimit="20" stroke-width="2.37" d="M626.407-119.91c-141.316 0-125.654 48.189-239.98 131.254C272.1 94.41 231.107 64.624 187.435 199.021c-43.671 134.398 7.006 134.398 50.671 268.796s2.671 164.178 116.997 247.243c114.326 83.066 129.982 34.871 271.297 34.871 141.316 0 156.971 48.189 271.297-34.87 114.326-83.06 73.332-112.846 116.997-247.244 43.666-134.398 94.343-134.398 50.671-268.796C1021.7 64.623 969.013 112.692 868.61 13.247 768.043-86.37 767.716-119.91 626.407-119.91z"/></g><g><path fill="none" stroke="#325bb9" stroke-miterlimit="20" stroke-width="2.44" d="M633.554-106.92c-139.709 0-124.356 47.25-237.384 129.364-113.028 82.114-153.216 52.92-196.39 185.787-43.174 132.867 6.508 132.867 49.682 265.74 43.174 132.874 2.98 162.068 116.008 244.188 113.028 82.121 128.375 34.871 268.084 34.871s155.062 47.25 268.084-34.87c113.022-82.121 72.834-111.322 116.008-244.189 43.174-132.867 92.85-132.867 49.682-265.74-43.168-132.873-94.866-85.617-194.16-183.89-99.42-98.4-99.905-131.261-239.614-131.261z"/></g><g><path fill="none" stroke="#325bb9" stroke-miterlimit="20" stroke-width="2.52" d="M640.706-93.92c-138.103 0-123.058 46.305-234.782 127.48-111.725 81.176-151.112 52.555-193.788 183.897-42.677 131.343 6.01 131.343 48.686 262.685 42.676 131.343 3.289 159.957 115.013 241.133 111.724 81.175 126.768 34.87 264.87 34.87 138.103 0 153.147 46.305 264.872-34.87 111.724-81.176 72.336-109.79 115.012-241.133 42.677-131.342 91.363-131.342 48.687-262.685C1026.6 86.115 975.897 132.56 877.712 35.45 779.457-61.733 778.808-93.92 640.706-93.92z"/></g><g><path fill="none" stroke="#325bb9" stroke-miterlimit="20" stroke-width="2.59" d="M647.86-80.92c-136.495 0-121.76 45.36-232.186 125.59-110.426 80.231-149.014 52.196-191.192 182.007-42.179 129.812 5.512 129.818 47.69 259.63 42.18 129.811 3.592 157.846 114.024 238.077 110.427 80.23 125.169 34.87 261.658 34.87 136.49 0 151.232 45.36 261.658-34.87 110.427-80.23 71.84-108.266 114.024-238.077 42.185-129.812 89.876-129.818 47.691-259.63-42.185-129.811-91.892-84.18-188.975-180.13-97.09-95.96-97.896-127.467-234.391-127.467z"/></g><g><path fill="none" stroke="#325bb9" stroke-miterlimit="20" stroke-width="2.66" d="M655.013-67.93c-134.89 0-120.456 44.415-229.585 123.7-109.129 79.286-146.91 51.837-188.59 180.124-41.681 128.287 5.02 128.287 46.701 256.574 41.681 128.286 3.9 155.736 113.029 235.021 109.128 79.286 123.562 34.87 258.451 34.87 134.89 0 149.323 44.416 258.451-34.87 109.129-79.285 71.348-106.735 113.028-235.021 41.681-128.287 88.383-128.287 46.702-256.574-41.68-128.287-90.405-83.463-186.379-178.246C790.872-37.098 789.902-67.93 655.013-67.93z"/></g><g><path fill="none" stroke="#325bb9" stroke-miterlimit="20" stroke-width="2.74" d="M662.172-54.94c-133.283 0-119.158 43.47-226.99 121.817-107.83 78.347-144.805 51.477-185.994 178.233-41.19 126.756 4.523 126.762 45.706 253.518 41.184 126.756 4.209 153.626 112.04 231.973 107.83 78.34 121.955 34.87 255.238 34.87 133.283 0 147.407 43.47 255.238-34.87 107.83-78.34 70.85-105.21 112.04-231.973 41.189-126.762 86.895-126.762 45.706-253.518-41.19-126.756-88.918-82.744-183.784-176.362-94.79-93.53-95.917-123.688-229.2-123.688z"/></g><g><path fill="none" stroke="#325bb9" stroke-miterlimit="20" stroke-width="2.81" d="M669.323-41.94c-131.677 0-117.86 42.525-224.387 119.927-106.527 77.402-142.708 51.112-183.4 176.35-40.691 125.237 4.026 125.23 44.718 250.468 40.691 125.238 4.517 151.515 111.043 228.917 106.527 77.402 120.35 34.87 252.026 34.87 131.676 0 145.498 42.526 252.025-34.87 106.527-77.395 70.352-103.679 111.044-228.917 40.691-125.237 85.409-125.23 44.717-250.469-40.692-125.237-87.431-82.026-181.194-174.478C802.29-12.462 801.005-41.94 669.323-41.94z"/></g><g><path fill="none" stroke="#325bb9" stroke-miterlimit="20" stroke-width="2.89" d="M676.484-28.94c-130.07 0-116.562 41.586-221.791 118.037-105.229 76.45-140.603 50.753-180.797 174.46-40.194 123.706 3.528 123.706 43.722 247.413 40.194 123.707 4.819 149.404 110.048 225.861s118.742 34.87 248.812 34.87 143.583 41.587 248.812-34.87c105.23-76.457 69.855-102.154 110.055-225.861s83.916-123.707 43.722-247.414c-40.194-123.706-85.945-81.307-178.599-172.594C807.997-.143 806.554-28.94 676.484-28.94z"/></g><g><path fill="none" stroke="#325bb9" stroke-miterlimit="20" stroke-width="2.96" d="M683.635-15.94c-128.463 0-115.259 40.641-219.196 116.153s-138.5 50.394-178.202 172.57c-39.702 122.176 3.037 122.176 42.733 244.358s5.128 147.294 109.06 222.806c103.93 75.511 117.135 34.87 245.605 34.87 128.47 0 141.668 40.641 245.605-34.87 103.931-75.512 69.363-100.63 109.06-222.806 39.696-122.176 82.429-122.176 42.733-244.358-39.697-122.183-84.458-80.596-176.01-170.718C813.705 12.183 812.104-15.94 683.635-15.94z"/></g><g><path fill="none" stroke="#325bb9" stroke-miterlimit="20" stroke-width="3.03" d="M690.788-2.95c-126.863 0-113.96 39.696-216.594 114.263C371.561 185.88 337.793 161.341 298.588 282c-39.205 120.658 2.539 120.651 41.738 241.303 39.198 120.65 5.437 145.183 108.064 219.75 102.633 74.567 115.529 34.87 242.392 34.87s139.76 39.697 242.393-34.87c102.633-74.567 68.865-99.1 108.063-219.75 39.199-120.652 80.943-120.652 41.738-241.303s-82.971-79.878-173.414-168.834C819.41 24.493 817.645-2.95 690.788-2.95z"/></g><g><path fill="none" stroke="#325bb9" stroke-miterlimit="20" stroke-width="3.11" d="M697.933 10.05c-125.257 0-112.663 38.751-213.999 112.373C382.6 196.045 349.637 172.1 310.93 291.22c-38.707 119.12 2.041 119.127 40.748 238.247 38.708 119.12 5.74 143.073 107.075 216.695 101.336 73.622 113.923 34.87 239.18 34.87 125.256 0 137.844 38.752 239.18-34.87 101.335-73.622 68.367-97.575 107.074-216.695 38.707-119.12 79.456-119.127 40.748-238.247-38.707-119.12-81.484-79.16-170.824-166.95-89-87.457-90.922-114.219-216.178-114.219z"/></g><g><path fill="none" stroke="#325bb9" stroke-miterlimit="20" stroke-width="3.18" d="M705.09 23.04c-123.65 0-111.364 37.806-211.396 110.49-100.031 72.683-132.193 49.31-170.408 166.905-38.216 117.596 1.543 117.596 39.753 235.192s6.048 140.962 106.079 213.645c100.031 72.684 112.316 34.871 235.966 34.871s135.936 37.806 235.967-34.87c100.031-72.677 67.87-96.044 106.08-213.646 38.209-117.602 77.962-117.596 39.752-235.192s-79.997-78.447-168.229-165.072C830.814 49.128 828.734 23.04 705.091 23.04z"/></g><g><path fill="none" stroke="#325bb9" stroke-miterlimit="20" stroke-width="3.25" d="M712.244 36.04c-122.043 0-110.067 36.868-208.8 108.6-98.734 71.731-130.096 48.95-167.807 165.022-37.712 116.07 1.045 116.07 38.764 232.142 37.718 116.071 6.356 138.852 105.09 210.59 98.733 71.738 110.71 34.87 232.753 34.87 122.044 0 134.02 36.868 232.754-34.87 98.733-71.738 67.378-94.519 105.09-210.59s76.476-116.071 38.764-232.142c-37.712-116.072-78.51-77.73-165.64-163.19C836.524 61.449 834.288 36.04 712.244 36.04z"/></g><g><path fill="none" stroke="#325bb9" stroke-miterlimit="20" stroke-width="3.33" d="M719.403 49.03c-120.437 0-108.763 35.923-206.199 106.71-97.435 70.786-127.99 48.591-165.21 163.132-37.221 114.54.554 114.54 37.768 229.086 37.214 114.547 6.659 136.742 104.095 207.535 97.435 70.793 109.11 34.87 229.546 34.87 120.438 0 132.111 35.923 229.547-34.87s66.881-92.994 104.095-207.535c37.214-114.54 74.99-114.54 37.769-229.086-37.22-114.547-77.024-77.018-163.05-161.306C842.233 73.757 839.84 49.03 719.403 49.03z"/></g><g><path fill="none" stroke="#325bb9" stroke-miterlimit="20" stroke-width="3.4" d="M726.55 62.03c-118.831 0-107.466 34.978-203.604 104.826-96.138 69.848-125.893 48.233-162.61 161.248-36.716 113.016.057 113.016 36.78 226.032 36.723 113.015 6.968 134.63 103.106 204.479 96.138 69.848 107.503 34.87 226.334 34.87 118.83 0 130.195 34.978 226.333-34.87s66.383-91.464 103.106-204.48c36.723-113.015 73.496-113.015 36.78-226.03-36.723-113.017-75.537-76.3-160.455-159.429C847.93 86.077 845.38 62.03 726.55 62.03z"/></g><g><path fill="none" stroke="#325bb9" stroke-miterlimit="20" stroke-width="3.48" d="M733.708 75.03c-117.224 0-106.167 34.033-201.008 102.936-94.84 68.903-123.788 47.867-160.013 159.358-36.225 111.491-.441 111.491 35.784 222.976 36.225 111.491 7.276 132.52 102.11 201.424 94.834 68.903 105.897 34.87 223.12 34.87 117.225 0 128.281 34.033 223.122-34.87 94.84-68.903 65.885-89.94 102.11-201.424 36.225-111.485 72.01-111.491 35.784-222.976-36.225-111.485-74.056-75.58-157.865-157.544-83.21-81.383-85.92-104.75-203.144-104.75z"/></g><g><path fill="none" stroke="#325bb9" stroke-miterlimit="20" stroke-width="3.55" d="M740.863 88.02c-115.618 0-104.87 33.088-198.406 101.046s-121.684 47.508-157.412 157.468c-35.727 109.96-.938 109.96 34.795 219.92 35.734 109.96 7.579 130.41 101.121 198.369 93.543 67.958 104.29 34.87 219.908 34.87 115.618 0 126.372 33.088 219.908-34.87 93.536-67.958 65.394-88.408 101.121-198.368 35.728-109.96 70.523-109.96 34.795-219.92-35.727-109.961-72.57-74.87-155.276-155.667-82.07-80.162-84.936-102.848-200.554-102.848z"/></g><g><path fill="none" stroke="#325bb9" stroke-miterlimit="20" stroke-width="3.62" d="M748.02 101.02c-114.01 0-103.571 32.143-195.81 99.162-92.238 67.02-119.586 47.15-154.816 155.585-35.23 108.435-1.43 108.435 33.8 216.865 35.23 108.435 7.887 128.3 100.126 195.319 92.238 67.013 102.683 34.87 216.694 34.87 114.011 0 124.457 32.143 216.695-34.87 92.238-67.014 64.896-86.884 100.126-195.32 35.23-108.435 69.03-108.435 33.8-216.864-35.23-108.43-71.083-74.158-152.681-153.783-80.898-78.952-83.922-100.964-197.933-100.964z"/></g><g><path fill="none" stroke="#325bb9" stroke-miterlimit="20" stroke-width="3.7" d="M755.167 114.01c-112.41 0-102.268 31.204-193.208 97.272-90.94 66.068-117.482 46.79-152.22 153.695C375 471.88 407.81 471.88 442.541 578.792c34.739 106.905 8.197 126.19 99.137 192.264 90.94 66.074 101.077 34.87 213.488 34.87s122.548 31.204 213.488-34.87c90.941-66.075 64.4-85.353 99.137-192.264 34.738-106.904 67.543-106.904 32.804-213.815-34.738-106.905-69.602-73.44-150.09-151.906-79.753-77.73-82.928-99.061-195.339-99.061z"/></g><g><path fill="none" stroke="#325bb9" stroke-miterlimit="20" stroke-width="3.77" d="M762.313 127.01c-110.805 0-100.97 30.259-190.613 95.388-89.643 65.13-115.378 46.425-149.619 151.805-34.24 105.38-2.425 105.38 31.815 210.76s8.499 124.079 98.142 189.208c89.642 65.13 99.47 34.87 210.275 34.87 110.804 0 120.632 30.26 210.275-34.87s63.9-83.828 98.141-189.208c34.24-105.38 66.056-105.38 31.815-210.76-34.24-105.38-68.115-72.727-147.502-150.022-78.586-76.52-81.925-97.171-192.73-97.171z"/></g><g><path fill="none" stroke="#325bb9" stroke-miterlimit="20" stroke-width="3.84" d="M769.47 140.01c-109.198 0-99.672 29.314-188.011 93.498-88.339 64.185-113.28 46.066-147.023 149.921-33.743 103.85-2.923 103.85 30.82 207.705 33.742 103.856 8.807 121.968 97.152 186.152 88.345 64.185 97.864 34.871 207.062 34.871 109.198 0 118.723 29.314 207.062-34.87 88.339-64.185 63.403-82.304 97.152-186.153 33.743-103.85 64.569-103.85 30.82-207.705-33.75-103.855-66.629-72.015-144.913-148.144-77.433-75.304-80.923-95.275-190.121-95.275z"/></g><g><path fill="none" stroke="#325bb9" stroke-miterlimit="20" stroke-width="3.92" d="M776.627 153c-107.591 0-98.374 28.369-185.415 91.608-87.04 63.24-111.176 45.707-144.421 148.031-33.245 102.325-3.415 102.325 29.83 204.65 33.245 102.324 9.116 119.857 96.157 183.096 87.041 63.24 96.258 34.871 203.85 34.871 107.59 0 116.808 28.369 203.848-34.87 87.041-63.24 62.912-80.773 96.157-183.097 33.245-102.325 63.076-102.325 29.83-204.65-33.244-102.324-65.147-71.297-142.322-146.26C887.866 172.284 884.219 153 776.627 153z"/></g><g><path fill="none" stroke="#325bb9" stroke-miterlimit="20" stroke-width="3.99" d="M783.777 166c-105.985 0-97.07 27.424-182.82 89.725-85.749 62.3-109.071 45.347-141.825 146.14-32.754 100.794-3.912 100.8 28.835 201.594s9.418 117.747 95.161 180.042c85.743 62.294 94.658 34.87 200.643 34.87s114.893 27.424 200.642-34.87c85.743-62.295 62.414-79.248 95.162-180.042 32.753-100.8 61.589-100.8 28.835-201.593-32.754-100.8-63.662-70.586-139.734-144.384C893.567 184.604 889.762 166 783.777 166z"/></g><g><path fill="none" stroke="#325bb9" stroke-miterlimit="20" stroke-width="4.07" d="M790.93 179c-104.378 0-95.772 26.479-180.217 87.835-84.445 61.355-106.974 44.988-139.224 144.257-32.25 99.27-4.41 99.27 27.846 198.538 32.256 99.27 9.727 115.637 94.172 176.992 84.446 61.35 93.051 34.87 197.43 34.87 104.378 0 112.984 26.486 197.43-34.87 84.444-61.349 61.916-77.716 94.172-176.992 32.256-99.269 60.102-99.269 27.846-198.538-32.256-99.27-62.181-69.873-137.145-142.506C899.272 196.917 895.309 179 790.93 179z"/></g><g><path fill="none" stroke="#325bb9" stroke-miterlimit="20" stroke-width="4.14" d="M798.084 191.99c-102.771 0-94.474 25.54-177.622 85.945-83.147 60.404-104.87 44.622-136.628 142.367-31.758 97.744-4.908 97.744 26.85 195.489 31.759 97.744 10.037 113.526 93.178 173.937 83.14 60.41 91.444 34.87 194.216 34.87s111.07 25.54 194.217-34.87c83.147-60.411 61.418-76.193 93.177-173.937 31.758-97.745 58.608-97.745 26.85-195.489-31.758-97.745-60.694-69.161-134.555-140.629-72.797-70.44-76.91-87.683-179.683-87.683z"/></g><g><path fill="none" stroke="#325bb9" stroke-miterlimit="20" stroke-width="4.21" d="M805.241 204.98c-101.165 0-93.177 24.595-175.02 84.06-81.843 59.467-102.766 44.265-134.033 140.478-31.26 96.214-5.405 96.214 25.862 192.434 31.26 96.213 10.338 111.415 92.188 170.881 81.843 59.466 89.838 34.87 191.003 34.87 101.166 0 109.16 24.596 191.004-34.87 81.843-59.466 60.927-74.668 92.188-170.881 31.26-96.214 57.122-96.214 25.861-192.434-31.26-96.213-59.214-68.45-131.966-138.745-71.65-69.23-75.915-85.793-177.087-85.793z"/></g><g><path fill="none" stroke="#325bb9" stroke-miterlimit="20" stroke-width="4.29" d="M812.4 217.98c-99.56 0-91.88 23.65-172.425 82.17-80.546 58.522-100.668 43.906-131.431 138.595-30.763 94.689-5.897 94.689 24.866 189.378 30.77 94.689 10.647 109.305 91.193 167.825 80.545 58.521 88.231 34.87 187.79 34.87s107.245 23.651 187.79-34.87c80.546-58.52 60.43-73.136 91.193-167.825 30.77-94.69 55.635-94.69 24.866-189.378-30.77-94.69-57.727-67.738-129.377-136.868-70.484-68.021-74.907-83.897-174.466-83.897z"/></g><g><path fill="none" stroke="#325bb9" stroke-miterlimit="20" stroke-width="4.36" d="M819.544 230.98c-97.959 0-90.575 22.705-169.823 80.28-79.248 57.577-98.564 43.547-128.835 136.705-30.272 93.164-6.395 93.164 23.877 186.322 30.271 93.164 10.956 107.195 90.203 164.77 79.248 57.576 86.625 34.87 184.584 34.87s105.336 22.706 184.584-34.87c79.247-57.575 59.932-71.612 90.203-164.77 30.272-93.164 54.142-93.164 23.877-186.322-30.265-93.158-56.246-67.026-126.787-134.99-69.35-66.806-73.925-81.995-171.883-81.995z"/></g><g><path fill="none" stroke="#325bb9" stroke-miterlimit="20" stroke-width="4.43" d="M826.698 243.97c-96.352 0-89.277 21.76-167.227 78.397s-96.46 43.18-126.233 134.82c-29.774 91.634-6.892 91.634 22.882 183.267 29.774 91.634 11.264 105.084 89.208 161.715 77.943 56.63 85.018 34.87 181.37 34.87 96.353 0 103.421 21.76 181.371-34.87 77.95-56.63 59.434-70.081 89.208-161.715 29.774-91.633 52.656-91.633 22.882-183.267-29.774-91.633-54.766-66.314-124.198-133.112-68.192-65.602-72.917-80.105-169.263-80.105z"/></g><g><path fill="none" stroke="#325bb9" stroke-miterlimit="20" stroke-width="4.51" d="M833.852 256.97c-94.746 0-87.98 20.822-164.632 76.507-76.652 55.686-94.36 42.821-123.637 132.93-29.276 90.11-7.39 90.11 21.892 180.212 29.277 90.109 11.567 102.973 88.22 158.665 76.651 55.692 83.411 34.87 178.157 34.87 94.746 0 101.506 20.822 178.158-34.87 76.652-55.692 58.943-68.556 88.219-158.665 29.276-90.11 51.168-90.11 21.892-180.212-29.276-90.102-53.285-65.608-121.615-131.235-67.032-64.386-71.908-78.202-166.654-78.202z"/></g><g><path fill="none" stroke="#325bb9" stroke-miterlimit="20" stroke-width="4.58" d="M841.015 269.96c-93.14 0-86.682 19.877-162.03 74.617-75.348 54.74-92.257 42.462-121.035 131.04-28.779 88.578-7.882 88.578 20.897 177.162 28.778 88.578 11.875 100.863 87.223 155.61 75.348 54.747 81.806 34.871 174.945 34.871 93.14 0 99.597 19.876 174.945-34.87 75.348-54.748 58.445-67.026 87.223-155.61 28.779-88.585 49.682-88.579 20.897-177.163-28.784-88.584-51.798-64.896-119.026-129.358-65.872-63.157-70.906-76.299-164.039-76.299z"/></g><g><path fill="none" stroke="#325bb9" stroke-miterlimit="20" stroke-width="4.66" d="M848.158 282.96c-91.533 0-85.384 18.931-159.434 72.734-74.05 53.801-90.153 42.102-118.44 129.156-28.287 87.053-8.38 87.053 19.908 174.107 28.287 87.053 12.184 98.752 86.234 152.554 74.05 53.802 80.206 34.87 171.732 34.87s97.682 18.932 171.732-34.87c74.05-53.802 57.947-65.501 86.234-152.554 28.287-87.054 48.189-87.054 19.908-174.107-28.287-87.054-50.318-64.19-116.443-127.48-64.713-61.955-69.898-74.41-161.431-74.41z"/></g><g><path fill="none" stroke="#325bb9" stroke-miterlimit="20" stroke-width="4.73" d="M855.316 295.96c-89.926 0-84.08 17.986-156.832 70.844-72.753 52.857-88.056 41.743-115.845 127.266-27.79 85.522-8.877 85.522 18.913 171.051 27.79 85.523 12.486 96.642 85.239 149.5 72.752 52.856 78.599 34.87 168.525 34.87s95.772 17.986 168.525-34.87c72.752-52.858 57.45-63.977 85.239-149.5 27.79-85.522 46.702-85.522 18.912-171.051-27.789-85.529-48.837-63.479-113.853-125.61-63.567-60.732-68.897-72.5-158.823-72.5z"/></g><g><path fill="none" stroke="#325bb9" stroke-miterlimit="20" stroke-width="4.8" d="M862.467 308.95c-88.32 0-82.782 17.041-154.236 68.96-71.455 51.918-85.951 41.378-113.243 125.376-27.291 83.998-9.374 83.998 17.918 167.996 27.291 83.998 12.795 94.531 84.25 146.443 71.454 51.912 76.992 34.87 165.311 34.87 88.32 0 93.858 17.042 165.312-34.87 71.455-51.912 56.952-62.445 84.25-146.443 27.298-83.998 45.215-83.998 17.918-167.996-27.292-83.998-47.358-62.773-111.271-123.732-62.402-59.529-67.889-70.604-156.209-70.604z"/></g><g><path fill="none" stroke="#325bb9" stroke-miterlimit="20" stroke-width="4.88" d="M869.622 321.95c-86.714 0-81.485 16.096-151.635 67.07-70.15 50.973-83.847 41.02-110.647 123.492-26.794 82.474-9.866 82.474 16.928 164.94 26.794 82.474 13.104 92.422 83.255 143.389 70.15 50.967 75.385 34.87 162.099 34.87 86.713 0 91.948 16.097 162.099-34.87 70.15-50.967 56.46-60.921 83.254-143.388 26.794-82.474 43.722-82.474 16.928-164.94-26.794-82.474-45.883-62.062-108.681-121.855-61.249-58.32-66.88-68.708-153.6-68.708z"/></g><g><path fill="none" stroke="#325bb9" stroke-miterlimit="20" stroke-width="4.95" d="M876.772 334.95c-85.107 0-80.186 15.158-149.039 65.18-68.853 50.022-81.749 40.66-108.045 121.602-26.296 80.943-10.363 80.943 15.933 161.885 26.302 80.943 13.406 90.31 82.265 140.339 68.853 50.028 73.78 34.87 158.886 34.87 85.107 0 90.033 15.158 158.886-34.87s55.963-59.39 82.266-140.339c26.302-80.942 42.235-80.942 15.932-161.885-26.302-80.942-44.402-61.355-106.098-119.983-60.09-57.097-65.88-66.799-150.986-66.799z"/></g><g><path fill="none" stroke="#325bb9" stroke-miterlimit="20" stroke-width="5.02" d="M883.926 347.94c-83.5 0-78.888 14.213-146.443 63.296s-79.645 40.301-105.45 119.713c-25.804 79.411-10.86 79.418 14.944 158.829 25.805 79.411 13.715 88.2 81.27 137.283 67.555 49.084 72.173 34.87 155.68 34.87 83.5 0 88.117 14.214 155.679-34.87 67.555-49.083 55.465-57.865 81.27-137.283 25.805-79.418 40.748-79.418 14.943-158.83-25.804-79.41-42.922-60.65-103.515-118.105-58.937-55.888-64.871-64.903-148.378-64.903z"/></g><g><path fill="none" stroke="#325bb9" stroke-miterlimit="20" stroke-width="5.1" d="M891.081 360.93c-81.9 0-77.584 13.268-143.842 61.406-66.257 48.138-77.54 39.936-102.847 117.829-25.307 77.887-11.359 77.887 13.948 155.78 25.307 77.887 14.024 86.09 80.281 134.228 66.257 48.138 70.566 34.87 152.466 34.87s86.21 13.268 152.467-34.87c66.257-48.138 54.967-56.341 80.28-134.228 25.308-77.887 39.256-77.887 13.949-155.78-25.307-77.893-41.442-59.944-100.933-116.235-57.79-54.671-63.875-63-145.769-63z"/></g></g></g></svg>