<svg xmlns="http://www.w3.org/2000/svg" width="298" height="392" viewBox="0 0 298 392"><g><g clip-path="url(#clip-773DFE76-4D28-4FAC-A3D8-87D40EC837ED)" transform="matrix(-1 0 0 1 1082 0)"><g><path fill="none" stroke="#ff9e16" stroke-miterlimit="20" stroke-width="1.44" d="M904.69-389.416c-48.816.092-97.46 29.635-144.159 15.428-68.396-20.806-99.954-126.106-170.931-117.515-40.392 4.887-65.011 46.683-77.663 85.353-12.652 38.67-21.627 82.031-53.088 107.821-41.866 34.323-109.414 24.986-147.457 63.5-27.702 28.047-30.008 72.856-21.12 111.26 8.889 38.405 27.016 74.31 34.566 113.001 12.609 64.638-5.114 132.467 8.52 196.895 16.52 78.046 82.378 143.321 160.564 159.138 59.94 12.128 121.668-2.846 180.981-17.744 44.594-11.2 89.187-22.394 133.802-33.6 51.213-12.857 104.198-35.564 143.623-71.463 21.044-19.16 39.577-41.855 48.638-69.314 13.884-42.444-1.884-55.485 28.782-87.901 23.085-24.403 44.34-27.87 51.1-65.61 9.553-53.277-25.677-110.269-37.373-160.753-20.471-88.35-10.066-228.728-138.785-228.496z"/></g><g><path fill="none" stroke="#ff9e16" stroke-miterlimit="20" stroke-width="1.42" d="M898.84-383.566c-48.816.092-97.46 29.635-144.159 15.428-68.396-20.806-99.954-126.106-170.931-117.515-40.392 4.887-65.011 46.683-77.663 85.353-12.652 38.67-21.622 82.031-53.088 107.821-41.866 34.323-109.415 24.986-147.458 63.5-27.701 28.047-30.007 72.856-21.119 111.26 8.889 38.405 27.016 74.31 34.566 113.001 12.609 64.638-5.114 132.468 8.52 196.895 16.52 78.046 82.378 143.321 160.564 159.138 59.94 12.128 121.668-2.851 180.981-17.744 44.594-11.2 89.187-22.394 133.802-33.6 51.213-12.857 104.198-35.564 143.623-71.463 21.044-19.16 39.577-41.855 48.638-69.314 13.884-42.444-1.884-55.485 28.782-87.902 23.085-24.402 44.34-27.869 51.1-65.61 9.553-53.276-25.677-110.268-37.373-160.752-20.466-88.35-10.06-228.733-138.785-228.496z"/></g><g><path fill="none" stroke="#ff9e16" stroke-miterlimit="20" stroke-width="1.4" d="M892.99-377.716c-48.816.092-97.46 29.635-144.159 15.428-68.396-20.806-99.954-126.106-170.931-117.515-40.392 4.887-65.011 46.683-77.663 85.353-12.653 38.67-21.622 82.031-53.088 107.821-41.866 34.323-109.415 24.986-147.458 63.5-27.701 28.047-30.007 72.856-21.119 111.26 8.889 38.405 27.016 74.31 34.566 113.001 12.609 64.638-5.114 132.468 8.52 196.895 16.514 78.04 82.372 143.316 160.559 159.138 59.94 12.128 121.667-2.846 180.98-17.744 44.594-11.2 89.187-22.394 133.802-33.6 51.214-12.857 104.199-35.564 143.624-71.463 21.044-19.16 39.577-41.855 48.638-69.314 13.883-42.444-1.885-55.485 28.782-87.901 23.085-24.403 44.34-27.87 51.1-65.61 9.553-53.277-25.677-110.269-37.373-160.753-20.461-88.35-10.06-228.733-138.78-228.496z"/></g><g><path fill="none" stroke="#ff9e16" stroke-miterlimit="20" stroke-width="1.38" d="M887.14-371.866c-48.816.092-97.46 29.635-144.159 15.428-68.396-20.806-99.954-126.106-170.931-117.515-40.392 4.887-65.011 46.683-77.663 85.353-12.653 38.67-21.627 82.031-53.088 107.821-41.866 34.323-109.415 24.986-147.458 63.5-27.702 28.047-30.007 72.856-21.119 111.26 8.889 38.405 27.016 74.31 34.566 113.001 12.609 64.638-5.114 132.468 8.52 196.895 16.52 78.046 82.378 143.321 160.564 159.138 59.94 12.128 121.668-2.846 180.981-17.744 44.594-11.2 89.187-22.394 133.802-33.6 51.213-12.857 104.198-35.564 143.623-71.463 21.044-19.16 39.577-41.855 48.638-69.314 13.884-42.444-1.884-55.485 28.782-87.901 23.085-24.403 44.334-27.87 51.1-65.61 9.553-53.277-25.677-110.269-37.373-160.753-20.466-88.355-10.066-228.733-138.785-228.496z"/></g><g><path fill="none" stroke="#ff9e16" stroke-miterlimit="20" stroke-width="1.36" d="M881.29-366.016c-48.816.092-97.46 29.635-144.159 15.428-68.396-20.806-99.954-126.106-170.931-117.515-40.392 4.887-65.011 46.683-77.663 85.353-12.652 38.67-21.622 82.031-53.088 107.821-41.866 34.323-109.414 24.986-147.457 63.5-27.702 28.047-30.008 72.856-21.12 111.26 8.889 38.405 27.016 74.31 34.566 113.001 12.609 64.638-5.114 132.468 8.52 196.895 16.52 78.046 82.378 143.321 160.564 159.138 59.94 12.128 121.668-2.851 180.981-17.744 44.594-11.2 89.187-22.394 133.802-33.6 51.213-12.857 104.198-35.564 143.623-71.463 21.044-19.16 39.577-41.855 48.638-69.314 13.884-42.444-1.884-55.485 28.782-87.902 23.085-24.402 44.34-27.869 51.1-65.61 9.553-53.276-25.677-110.268-37.373-160.752-20.466-88.35-10.06-228.728-138.785-228.496z"/></g><g><path fill="none" stroke="#ff9e16" stroke-miterlimit="20" stroke-width="1.34" d="M875.44-360.166c-48.816.092-97.46 29.635-144.159 15.428-68.396-20.806-99.954-126.106-170.931-117.515-40.392 4.887-65.011 46.683-77.663 85.353-12.652 38.67-21.627 82.031-53.088 107.821-41.866 34.323-109.414 24.986-147.457 63.5-27.702 28.047-30.008 72.856-21.12 111.26 8.889 38.405 27.016 74.31 34.566 113.001 12.609 64.638-5.114 132.468 8.52 196.895 16.52 78.046 82.378 143.321 160.564 159.138 59.94 12.128 121.668-2.851 180.981-17.744 44.594-11.2 89.187-22.394 133.802-33.6 51.213-12.857 104.198-35.564 143.623-71.463 21.044-19.16 39.577-41.855 48.638-69.314 13.884-42.444-1.884-55.485 28.782-87.902 23.085-24.402 44.34-27.869 51.1-65.61 9.553-53.276-25.677-110.268-37.373-160.752-20.466-88.35-10.066-228.733-138.785-228.496z"/></g><g><path fill="none" stroke="#ff9e16" stroke-miterlimit="20" stroke-width="1.32" d="M869.59-354.316c-48.816.092-97.46 29.635-144.159 15.428-68.396-20.806-99.954-126.106-170.931-117.515-40.392 4.887-65.011 46.683-77.663 85.353-12.652 38.67-21.622 82.031-53.088 107.821-41.866 34.323-109.415 24.986-147.458 63.5-27.701 28.047-30.007 72.856-21.119 111.26 8.889 38.405 27.016 74.31 34.566 113.001 12.609 64.638-5.114 132.468 8.52 196.895 16.52 78.046 82.378 143.321 160.564 159.138 59.94 12.128 121.668-2.851 180.981-17.744 44.594-11.2 89.187-22.394 133.802-33.6 51.213-12.857 104.198-35.564 143.623-71.463 21.044-19.16 39.577-41.855 48.638-69.314 13.884-42.444-1.884-55.485 28.782-87.902 23.085-24.402 44.34-27.869 51.1-65.61 9.553-53.276-25.677-110.268-37.373-160.752-20.466-88.35-10.066-228.733-138.785-228.496z"/></g><g><path fill="none" stroke="#ff9e16" stroke-miterlimit="20" stroke-width="1.3" d="M863.74-348.466c-48.816.092-97.46 29.635-144.159 15.428-68.396-20.806-99.954-126.106-170.931-117.515-40.392 4.887-65.011 46.683-77.663 85.353-12.653 38.67-21.627 82.031-53.088 107.821-41.866 34.323-109.415 24.986-147.458 63.5-27.701 28.047-30.007 72.856-21.119 111.26 8.889 38.405 27.016 74.31 34.566 113.001 12.609 64.638-5.114 132.468 8.52 196.895 16.52 78.046 82.378 143.321 160.564 159.138 59.94 12.128 121.668-2.851 180.981-17.744 44.594-11.2 89.187-22.394 133.802-33.6 51.213-12.857 104.198-35.564 143.623-71.463 21.044-19.16 39.577-41.855 48.638-69.314 13.884-42.444-1.884-55.485 28.782-87.902 23.085-24.402 44.34-27.869 51.1-65.61 9.553-53.276-25.677-110.268-37.373-160.752-20.471-88.35-10.066-228.728-138.785-228.496z"/></g><g><path fill="none" stroke="#ff9e16" stroke-miterlimit="20" stroke-width="1.28" d="M857.89-342.616c-48.816.092-97.46 29.635-144.159 15.428-68.396-20.806-99.954-126.106-170.931-117.515-40.392 4.887-65.011 46.683-77.663 85.353-12.653 38.67-21.622 82.031-53.088 107.821-41.866 34.323-109.415 24.986-147.458 63.5-27.702 28.047-30.007 72.856-21.119 111.26 8.889 38.405 27.016 74.31 34.566 113.001 12.609 64.638-5.114 132.468 8.52 196.895 16.52 78.046 82.378 143.321 160.564 159.138 59.94 12.128 121.668-2.851 180.981-17.744 44.594-11.2 89.187-22.394 133.802-33.6 51.213-12.857 104.198-35.564 143.623-71.463 21.044-19.16 39.577-41.855 48.638-69.314 13.884-42.444-1.884-55.485 28.782-87.902 23.085-24.402 44.34-27.869 51.1-65.61 9.553-53.276-25.677-110.268-37.373-160.752-20.466-88.35-10.06-228.733-138.785-228.496z"/></g><g><path fill="none" stroke="#ff9e16" stroke-miterlimit="20" stroke-width="1.27" d="M852.04-336.766c-48.816.092-97.46 29.635-144.159 15.428-68.396-20.806-99.954-126.106-170.931-117.515-40.392 4.887-65.011 46.683-77.663 85.353-12.652 38.67-21.627 82.031-53.088 107.821-41.866 34.323-109.414 24.986-147.457 63.5-27.702 28.047-30.008 72.856-21.12 111.26 8.889 38.405 27.016 74.31 34.566 113.001 12.609 64.638-5.114 132.468 8.52 196.895 16.52 78.046 82.378 143.321 160.564 159.138 59.94 12.128 121.668-2.846 180.981-17.744 44.594-11.2 89.187-22.394 133.802-33.6 51.213-12.857 104.198-35.564 143.623-71.463 21.044-19.16 39.577-41.855 48.638-69.314 13.884-42.444-1.884-55.485 28.782-87.901 23.085-24.403 44.34-27.87 51.1-65.61 9.553-53.277-25.677-110.269-37.373-160.753-20.466-88.35-10.066-228.733-138.785-228.496z"/></g><g><path fill="none" stroke="#ff9e16" stroke-miterlimit="20" stroke-width="1.25" d="M846.19-330.916c-48.816.092-97.46 29.635-144.159 15.428-68.396-20.806-99.954-126.106-170.931-117.515-40.392 4.887-65.011 46.683-77.663 85.353-12.652 38.67-21.622 82.031-53.088 107.821-41.866 34.323-109.414 24.986-147.457 63.5-27.702 28.047-30.008 72.856-21.12 111.26 8.889 38.405 27.016 74.31 34.566 113.001 12.609 64.638-5.114 132.467 8.52 196.895 16.52 78.046 82.378 143.321 160.564 159.138 59.94 12.128 121.668-2.851 180.981-17.744 44.594-11.2 89.187-22.394 133.802-33.6 51.213-12.857 104.198-35.564 143.623-71.463 21.044-19.16 39.577-41.855 48.638-69.314 13.884-42.444-1.884-55.485 28.782-87.902 23.085-24.402 44.34-27.869 51.1-65.61 9.553-53.276-25.677-110.268-37.373-160.752-20.471-88.35-10.066-228.728-138.785-228.496z"/></g><g><path fill="none" stroke="#ff9e16" stroke-miterlimit="20" stroke-width="1.23" d="M840.34-325.066c-48.816.092-97.46 29.635-144.159 15.428-68.396-20.806-99.954-126.106-170.931-117.515-40.392 4.887-65.011 46.683-77.663 85.353-12.652 38.67-21.622 82.031-53.088 107.821-41.866 34.323-109.415 24.986-147.458 63.5-27.701 28.047-30.007 72.856-21.119 111.26 8.889 38.405 27.016 74.31 34.566 113.001 12.609 64.638-5.114 132.468 8.52 196.895 16.52 78.046 82.378 143.321 160.564 159.138 59.94 12.128 121.668-2.851 180.981-17.744 44.594-11.2 89.187-22.394 133.802-33.6 51.213-12.857 104.198-35.564 143.623-71.463 21.044-19.16 39.577-41.855 48.638-69.314 13.884-42.444-1.884-55.485 28.782-87.902 23.085-24.402 44.34-27.869 51.1-65.61 9.553-53.276-25.677-110.268-37.373-160.752-20.466-88.35-10.06-228.728-138.785-228.496z"/></g><g><path fill="none" stroke="#ff9e16" stroke-miterlimit="20" stroke-width="1.21" d="M834.49-319.216c-48.816.092-97.46 29.635-144.159 15.428-68.396-20.806-99.954-126.106-170.931-117.515-40.392 4.887-65.011 46.683-77.663 85.353-12.653 38.67-21.627 82.031-53.088 107.821-41.866 34.323-109.415 24.986-147.458 63.5-27.702 28.047-30.007 72.856-21.119 111.26 8.888 38.405 27.016 74.31 34.565 113.001 12.61 64.638-5.113 132.468 8.522 196.895 16.518 78.046 82.377 143.321 160.563 159.138 59.94 12.128 121.668-2.851 180.981-17.744 44.594-11.2 89.187-22.394 133.802-33.6 51.213-12.857 104.198-35.564 143.623-71.463 21.044-19.16 39.577-41.855 48.638-69.314 13.884-42.444-1.884-55.485 28.782-87.902 23.085-24.402 44.334-27.869 51.1-65.61 9.553-53.276-25.677-110.268-37.373-160.752-20.466-88.35-10.066-228.733-138.785-228.496z"/></g><g><path fill="none" stroke="#ff9e16" stroke-miterlimit="20" stroke-width="1.19" d="M828.64-313.366c-48.816.092-97.46 29.635-144.159 15.428-68.396-20.806-99.954-126.106-170.931-117.515-40.392 4.887-65.011 46.683-77.663 85.353-12.653 38.67-21.622 82.031-53.088 107.821-41.866 34.323-109.415 24.986-147.458 63.5-27.702 28.047-30.007 72.856-21.119 111.26 8.888 38.405 27.016 74.31 34.565 113.001 12.61 64.638-5.113 132.468 8.522 196.895 16.518 78.046 82.377 143.321 160.563 159.138 59.94 12.128 121.668-2.851 180.981-17.744 44.594-11.2 89.187-22.394 133.802-33.6 51.213-12.857 104.198-35.564 143.623-71.463 21.044-19.16 39.577-41.855 48.638-69.314 13.884-42.444-1.884-55.485 28.782-87.902 23.085-24.402 44.34-27.869 51.1-65.61 9.553-53.276-25.677-110.268-37.373-160.752-20.466-88.355-10.066-228.733-138.785-228.496z"/></g><g><path fill="none" stroke="#ff9e16" stroke-miterlimit="20" stroke-width="1.17" d="M822.79-307.516c-48.816.092-97.46 29.635-144.159 15.428-68.396-20.806-99.954-126.106-170.931-117.515-40.392 4.887-65.011 46.683-77.663 85.353-12.652 38.67-21.627 82.031-53.088 107.821-41.866 34.323-109.414 24.986-147.457 63.5-27.702 28.047-30.008 72.856-21.12 111.26 8.889 38.405 27.016 74.31 34.566 113.001 12.609 64.638-5.114 132.468 8.52 196.895 16.52 78.046 82.378 143.321 160.564 159.138 59.94 12.128 121.668-2.851 180.981-17.744 44.594-11.2 89.187-22.394 133.802-33.6 51.213-12.857 104.198-35.564 143.623-71.463 21.044-19.16 39.577-41.855 48.638-69.314 13.884-42.444-1.884-55.485 28.782-87.902 23.085-24.402 44.34-27.869 51.1-65.61 9.553-53.276-25.677-110.268-37.373-160.752-20.466-88.35-10.06-228.728-138.785-228.496z"/></g><g><path fill="none" stroke="#ff9e16" stroke-miterlimit="20" stroke-width="1.15" d="M816.94-301.666c-48.816.092-97.46 29.635-144.159 15.428-68.396-20.806-99.954-126.106-170.931-117.515-40.392 4.887-65.011 46.683-77.663 85.353-12.652 38.67-21.622 82.031-53.088 107.821-41.866 34.323-109.414 24.986-147.457 63.5-27.702 28.047-30.008 72.856-21.12 111.26 8.889 38.405 27.016 74.31 34.566 113.001 12.609 64.638-5.114 132.467 8.52 196.895 16.52 78.046 82.378 143.321 160.564 159.138 59.94 12.128 121.668-2.851 180.981-17.744 44.594-11.2 89.187-22.394 133.802-33.6 51.213-12.857 104.198-35.564 143.623-71.463 21.044-19.16 39.577-41.855 48.638-69.314 13.884-42.444-1.884-55.485 28.782-87.902 23.085-24.402 44.34-27.869 51.1-65.61 9.553-53.276-25.677-110.268-37.373-160.752-20.466-88.35-10.06-228.733-138.785-228.496z"/></g><g><path fill="none" stroke="#ff9e16" stroke-miterlimit="20" stroke-width="1.13" d="M811.09-295.816c-48.816.092-97.46 29.635-144.159 15.428C598.535-301.194 566.977-406.494 496-397.903c-40.392 4.887-65.011 46.683-77.663 85.353-12.652 38.67-21.627 82.031-53.088 107.821-41.866 34.323-109.415 24.986-147.458 63.5-27.701 28.047-30.007 72.856-21.119 111.26 8.889 38.405 27.016 74.31 34.566 113.001 12.609 64.638-5.114 132.468 8.52 196.895 16.52 78.046 82.378 143.321 160.564 159.138 59.94 12.128 121.668-2.851 180.981-17.744 44.594-11.2 89.187-22.394 133.802-33.6 51.213-12.857 104.198-35.564 143.623-71.463 21.044-19.16 39.577-41.855 48.638-69.314 13.884-42.444-1.884-55.485 28.782-87.902 23.085-24.402 44.34-27.869 51.1-65.61 9.553-53.276-25.677-110.268-37.373-160.752-20.466-88.35-10.066-228.733-138.785-228.496z"/></g><g><path fill="none" stroke="#ff9e16" stroke-miterlimit="20" stroke-width="1.11" d="M805.25-289.966c-48.816.092-97.46 29.635-144.159 15.428-68.396-20.806-99.954-126.106-170.931-117.515-40.392 4.887-65.011 46.683-77.663 85.353-12.653 38.67-21.622 82.031-53.088 107.821-41.866 34.323-109.415 24.986-147.458 63.5-27.702 28.047-30.007 72.856-21.119 111.26 8.888 38.405 27.016 74.31 34.565 113.001 12.61 64.638-5.113 132.468 8.522 196.895 16.518 78.046 82.377 143.321 160.563 159.138 59.94 12.128 121.668-2.851 180.981-17.744 44.594-11.2 89.187-22.394 133.802-33.6 51.213-12.857 104.198-35.564 143.623-71.463 21.044-19.16 39.577-41.855 48.638-69.314 13.884-42.444-1.884-55.485 28.782-87.902 23.085-24.402 44.34-27.869 51.1-65.61 9.553-53.276-25.677-110.268-37.373-160.752-20.471-88.35-10.066-228.728-138.785-228.496z"/></g><g><path fill="none" stroke="#ff9e16" stroke-miterlimit="20" stroke-width="1.09" d="M799.39-284.116c-48.816.092-97.46 29.635-144.159 15.428-68.396-20.806-99.954-126.106-170.931-117.515-40.392 4.887-65.011 46.683-77.663 85.353-12.653 38.67-21.627 82.031-53.088 107.821-41.866 34.323-109.415 24.986-147.458 63.5-27.702 28.047-30.007 72.856-21.119 111.26 8.888 38.405 27.016 74.31 34.565 113.001 12.61 64.638-5.113 132.468 8.522 196.895 16.518 78.046 82.377 143.321 160.563 159.138 59.94 12.128 121.668-2.851 180.981-17.744 44.594-11.2 89.187-22.394 133.802-33.6 51.213-12.857 104.198-35.564 143.623-71.463 21.044-19.16 39.577-41.855 48.638-69.314 13.884-42.444-1.884-55.485 28.782-87.902 23.085-24.402 44.34-27.869 51.1-65.61 9.553-53.276-25.677-110.268-37.373-160.752-20.466-88.35-10.06-228.733-138.785-228.496z"/></g><g><path fill="none" stroke="#ff9e16" stroke-miterlimit="20" stroke-width="1.07" d="M793.54-278.266c-48.816.092-97.46 29.635-144.159 15.428-68.396-20.806-99.954-126.106-170.931-117.515-40.392 4.887-65.011 46.683-77.663 85.353-12.652 38.67-21.622 82.031-53.088 107.821-41.866 34.323-109.414 24.986-147.457 63.5-27.702 28.047-30.008 72.856-21.12 111.26 8.889 38.405 27.016 74.31 34.566 113.001 12.609 64.638-5.114 132.468 8.52 196.895 16.52 78.046 82.378 143.321 160.564 159.138 59.94 12.128 121.668-2.851 180.981-17.744 44.594-11.2 89.187-22.394 133.802-33.6 51.213-12.857 104.198-35.564 143.623-71.463 21.044-19.16 39.577-41.855 48.638-69.314 13.884-42.444-1.884-55.485 28.782-87.902 23.085-24.402 44.34-27.869 51.1-65.61C979.251 57.706 944.021.714 932.325-49.77c-20.466-88.35-10.066-228.733-138.785-228.496z"/></g><g><path fill="none" stroke="#ff9e16" stroke-miterlimit="20" stroke-width="1.05" d="M787.7-272.426c-48.816.092-97.46 29.635-144.159 15.428-68.396-20.806-99.954-126.106-170.931-117.515-40.392 4.887-65.011 46.683-77.663 85.353-12.652 38.67-21.627 82.031-53.088 107.821-41.866 34.323-109.414 24.986-147.457 63.5-27.702 28.047-30.008 72.856-21.12 111.26 8.889 38.405 27.016 74.31 34.566 113.001 12.609 64.638-5.114 132.468 8.52 196.895 16.52 78.046 82.378 143.321 160.564 159.138 59.94 12.128 121.668-2.851 180.981-17.744 44.594-11.2 89.187-22.394 133.802-33.6 51.213-12.857 104.198-35.564 143.623-71.463 21.044-19.16 39.577-41.855 48.638-69.314 13.884-42.444-1.884-55.485 28.782-87.902 23.085-24.402 44.34-27.869 51.1-65.61 9.553-53.276-25.677-110.268-37.373-160.752-20.466-88.355-10.066-228.733-138.785-228.496z"/></g><g><path fill="none" stroke="#ff9e16" stroke-miterlimit="20" stroke-width="1.03" d="M781.84-266.566c-48.816.092-97.46 29.635-144.159 15.428-68.396-20.806-99.954-126.106-170.931-117.515-40.392 4.887-65.011 46.683-77.663 85.353-12.652 38.67-21.622 82.031-53.088 107.821-41.866 34.323-109.415 24.986-147.458 63.5C160.84-83.933 158.535-39.124 167.423-.72c8.889 38.405 27.016 74.31 34.566 113.001 12.609 64.638-5.114 132.468 8.52 196.895 16.52 78.046 82.378 143.321 160.564 159.138 59.94 12.128 121.668-2.851 180.981-17.744 44.594-11.2 89.187-22.394 133.802-33.6 51.213-12.857 104.198-35.564 143.623-71.463 21.044-19.16 39.577-41.855 48.638-69.314 13.884-42.444-1.884-55.485 28.782-87.902 23.085-24.402 44.334-27.869 51.1-65.61 9.553-53.276-25.677-110.268-37.373-160.752-20.466-88.35-10.06-228.728-138.785-228.496z"/></g><g><path fill="none" stroke="#ff9e16" stroke-miterlimit="20" stroke-width="1.01" d="M775.99-260.716c-48.816.092-97.46 29.635-144.159 15.428-68.396-20.806-99.954-126.106-170.931-117.515-40.392 4.887-65.011 46.683-77.663 85.353-12.653 38.67-21.622 82.031-53.088 107.821-41.866 34.323-109.415 24.986-147.458 63.5-27.702 28.047-30.007 72.856-21.119 111.26 8.888 38.405 27.016 74.31 34.565 113.001 12.61 64.638-5.113 132.468 8.522 196.895 16.518 78.046 82.377 143.321 160.563 159.138 59.94 12.128 121.668-2.851 180.981-17.744 44.594-11.2 89.187-22.394 133.802-33.6 51.213-12.857 104.198-35.564 143.623-71.463 21.044-19.16 39.577-41.855 48.638-69.314 13.884-42.444-1.884-55.485 28.782-87.902 23.085-24.402 44.34-27.869 51.1-65.61 9.553-53.276-25.677-110.268-37.373-160.752-20.466-88.35-10.066-228.733-138.785-228.496z"/></g><g><path fill="none" stroke="#ff9e16" stroke-miterlimit="20" stroke-width=".99" d="M770.15-254.876c-48.816.092-97.46 29.635-144.159 15.428-68.396-20.806-99.954-126.106-170.931-117.515-40.392 4.887-65.011 46.683-77.663 85.353-12.652 38.67-21.627 82.031-53.088 107.821-41.866 34.323-109.414 24.986-147.457 63.5-27.702 28.047-30.008 72.856-21.12 111.26 8.889 38.405 27.016 74.31 34.566 113.001 12.609 64.638-5.114 132.468 8.52 196.895 16.52 78.046 82.378 143.321 160.564 159.138 59.94 12.128 121.668-2.851 180.981-17.744 44.594-11.2 89.187-22.394 133.802-33.6 51.213-12.857 104.198-35.564 143.623-71.463 21.044-19.16 39.577-41.855 48.638-69.314 13.884-42.444-1.884-55.485 28.782-87.902 23.085-24.402 44.34-27.869 51.1-65.61 9.553-53.276-25.677-110.268-37.373-160.752-20.466-88.35-10.066-228.733-138.785-228.496z"/></g><g><path fill="none" stroke="#ff9e16" stroke-miterlimit="20" stroke-width=".98" d="M764.3-249.016c-48.816.092-97.46 29.635-144.159 15.428-68.396-20.806-99.954-126.106-170.931-117.515-40.392 4.887-65.011 46.683-77.663 85.353-12.652 38.67-21.622 82.031-53.088 107.821-41.866 34.323-109.414 24.986-147.457 63.5-27.702 28.047-30.008 72.856-21.12 111.26 8.889 38.405 27.016 74.31 34.566 113.001 12.609 64.638-5.114 132.468 8.52 196.895 16.52 78.046 82.378 143.321 160.564 159.138 59.94 12.128 121.668-2.851 180.981-17.744 44.594-11.2 89.187-22.394 133.802-33.6 51.213-12.857 104.198-35.564 143.623-71.463 21.044-19.16 39.577-41.855 48.638-69.314 13.884-42.444-1.884-55.485 28.782-87.902 23.085-24.402 44.34-27.869 51.1-65.61 9.553-53.276-25.677-110.268-37.373-160.752-20.471-88.35-10.066-228.728-138.785-228.496z"/></g><g><path fill="none" stroke="#ff9e16" stroke-miterlimit="20" stroke-width=".96" d="M758.44-243.166c-48.816.092-97.46 29.635-144.159 15.428-68.396-20.806-99.954-126.106-170.931-117.515-40.392 4.887-65.011 46.683-77.663 85.353-12.652 38.67-21.622 82.031-53.088 107.821-41.866 34.323-109.414 24.986-147.457 63.5-27.702 28.047-30.008 72.856-21.12 111.26 8.889 38.405 27.016 74.31 34.566 113.001 12.609 64.638-5.114 132.468 8.52 196.895 16.52 78.046 82.378 143.321 160.564 159.138 59.94 12.128 121.668-2.851 180.981-17.744 44.594-11.2 89.187-22.394 133.802-33.6 51.213-12.857 104.198-35.564 143.623-71.463 21.044-19.16 39.577-41.855 48.638-69.314 13.884-42.444-1.884-55.485 28.782-87.902 23.085-24.402 44.34-27.869 51.1-65.61 9.553-53.276-25.677-110.268-37.373-160.752-20.466-88.35-10.06-228.733-138.785-228.496z"/></g><g><path fill="none" stroke="#ff9e16" stroke-miterlimit="20" stroke-width=".94" d="M752.6-237.326c-48.816.092-97.46 29.635-144.159 15.428-68.396-20.806-99.954-126.106-170.931-117.515-40.392 4.887-65.011 46.683-77.663 85.353-12.652 38.67-21.622 82.031-53.088 107.821-41.866 34.323-109.415 24.986-147.458 63.5C131.6-54.693 129.294-9.884 138.183 28.52c8.889 38.405 27.016 74.31 34.566 113.001 12.609 64.638-5.114 132.468 8.52 196.895 16.52 78.046 82.378 143.321 160.564 159.138 59.94 12.128 121.668-2.851 180.981-17.744 44.594-11.2 89.187-22.394 133.802-33.6 51.213-12.857 104.198-35.564 143.623-71.463 21.044-19.16 39.577-41.855 48.638-69.314 13.884-42.444-1.884-55.485 28.782-87.902 23.085-24.402 44.34-27.869 51.1-65.61 9.553-53.276-25.677-110.268-37.373-160.752-20.466-88.35-10.066-228.733-138.785-228.496z"/></g><g><path fill="none" stroke="#ff9e16" stroke-miterlimit="20" stroke-width=".92" d="M746.75-231.466c-48.816.092-97.46 29.635-144.159 15.428-68.396-20.806-99.954-126.106-170.931-117.515-40.392 4.887-65.011 46.683-77.663 85.353-12.653 38.67-21.627 82.031-53.088 107.821-41.866 34.323-109.415 24.986-147.458 63.5-27.702 28.047-30.007 72.856-21.119 111.26 8.888 38.405 27.016 74.31 34.565 113.001 12.61 64.638-5.113 132.468 8.522 196.895 16.518 78.046 82.377 143.321 160.563 159.138 59.94 12.128 121.668-2.851 180.981-17.744 44.594-11.2 89.187-22.394 133.802-33.6 51.213-12.857 104.198-35.564 143.623-71.463 21.044-19.16 39.577-41.855 48.638-69.314 13.884-42.444-1.884-55.485 28.782-87.902 23.085-24.402 44.34-27.869 51.1-65.61 9.553-53.276-25.677-110.268-37.373-160.752-20.471-88.35-10.066-228.728-138.785-228.496z"/></g><g><path fill="none" stroke="#ff9e16" stroke-miterlimit="20" stroke-width=".9" d="M740.89-225.616c-48.816.092-97.46 29.635-144.159 15.428-68.396-20.806-99.954-126.106-170.931-117.515-40.392 4.887-65.011 46.683-77.663 85.353-12.653 38.67-21.622 82.031-53.088 107.821-41.866 34.323-109.415 24.986-147.458 63.5-27.702 28.047-30.007 72.856-21.119 111.26 8.888 38.405 27.016 74.31 34.565 113.001 12.61 64.638-5.113 132.468 8.522 196.895 16.518 78.046 82.377 143.321 160.563 159.138 59.94 12.128 121.668-2.851 180.981-17.744 44.594-11.2 89.187-22.394 133.802-33.6 51.213-12.857 104.198-35.564 143.623-71.463 21.044-19.16 39.577-41.855 48.638-69.314 13.884-42.444-1.884-55.485 28.782-87.902 23.085-24.402 44.34-27.869 51.1-65.61 9.553-53.276-25.677-110.268-37.373-160.752-20.466-88.35-10.06-228.733-138.785-228.496z"/></g><g><path fill="none" stroke="#ff9e16" stroke-miterlimit="20" stroke-width=".88" d="M735.05-219.776c-48.816.092-97.46 29.635-144.159 15.428-68.396-20.806-99.954-126.106-170.931-117.515-40.392 4.887-65.011 46.683-77.663 85.353-12.652 38.67-21.622 82.031-53.088 107.821-41.866 34.323-109.414 24.986-147.457 63.5-27.702 28.047-30.008 72.856-21.12 111.26 8.889 38.405 27.016 74.31 34.566 113.001 12.609 64.638-5.114 132.468 8.52 196.895 16.52 78.046 82.378 143.321 160.564 159.138 59.94 12.128 121.668-2.851 180.981-17.744 44.594-11.2 89.187-22.394 133.802-33.6 51.213-12.857 104.198-35.564 143.623-71.463 21.044-19.16 39.577-41.855 48.638-69.314 13.884-42.444-1.884-55.485 28.782-87.902 23.085-24.402 44.34-27.869 51.1-65.61 9.553-53.276-25.677-110.268-37.373-160.752-20.466-88.35-10.066-228.733-138.785-228.496z"/></g><g><path fill="none" stroke="#ff9e16" stroke-miterlimit="20" stroke-width=".86" d="M729.2-213.926c-48.816.092-97.46 29.635-144.159 15.428-68.396-20.806-99.954-126.106-170.931-117.515-40.392 4.887-65.011 46.683-77.663 85.353-12.652 38.67-21.622 82.031-53.088 107.821-41.866 34.323-109.414 24.986-147.457 63.5-27.702 28.047-30.008 72.856-21.12 111.26 8.889 38.405 27.016 74.31 34.566 113.001 12.609 64.638-5.114 132.468 8.52 196.895 16.52 78.046 82.378 143.321 160.564 159.138 59.94 12.128 121.668-2.851 180.981-17.744 44.594-11.2 89.187-22.394 133.802-33.6 51.213-12.857 104.198-35.564 143.623-71.463 21.044-19.16 39.577-41.855 48.638-69.314 13.884-42.444-1.884-55.485 28.782-87.902 23.085-24.402 44.34-27.869 51.1-65.61 9.553-53.276-25.677-110.268-37.373-160.752-20.466-88.355-10.066-228.733-138.785-228.496z"/></g><g><path fill="none" stroke="#ff9e16" stroke-miterlimit="20" stroke-width=".84" d="M723.34-208.066c-48.816.092-97.46 29.635-144.159 15.428-68.396-20.806-99.954-126.106-170.931-117.515-40.392 4.887-65.011 46.683-77.663 85.353-12.652 38.67-21.622 82.031-53.088 107.821-41.866 34.323-109.415 24.986-147.458 63.5-27.701 28.047-30.007 72.856-21.119 111.26 8.889 38.405 27.016 74.31 34.566 113.001 12.609 64.638-5.114 132.468 8.52 196.895 16.52 78.046 82.378 143.321 160.564 159.138 59.94 12.128 121.668-2.851 180.981-17.744 44.594-11.2 89.187-22.394 133.802-33.6 51.213-12.857 104.198-35.564 143.623-71.463 21.044-19.16 39.577-41.855 48.638-69.314 13.884-42.444-1.884-55.485 28.782-87.902 23.085-24.402 44.34-27.869 51.1-65.61 9.553-53.276-25.677-110.268-37.373-160.752-20.466-88.35-10.06-228.728-138.785-228.496z"/></g><g><path fill="none" stroke="#ff9e16" stroke-miterlimit="20" stroke-width=".82" d="M717.5-202.226c-48.816.092-97.46 29.635-144.159 15.428-68.396-20.806-99.954-126.106-170.931-117.515-40.392 4.887-65.011 46.683-77.663 85.353-12.653 38.67-21.622 82.031-53.088 107.821-41.866 34.323-109.415 24.986-147.458 63.5C96.5-19.593 94.194 25.216 103.082 63.62c8.888 38.405 27.016 74.31 34.565 113.001 12.61 64.638-5.113 132.468 8.522 196.895 16.518 78.046 82.377 143.321 160.563 159.138 59.94 12.128 121.668-2.851 180.981-17.744 44.594-11.2 89.187-22.394 133.802-33.6 51.213-12.857 104.198-35.564 143.623-71.463 21.044-19.16 39.577-41.855 48.638-69.314 13.884-42.444-1.884-55.485 28.782-87.902 23.085-24.402 44.34-27.869 51.1-65.61 9.553-53.276-25.677-110.268-37.373-160.752-20.466-88.35-10.06-228.733-138.785-228.496z"/></g><g><path fill="none" stroke="#ff9e16" stroke-miterlimit="20" stroke-width=".8" d="M711.65-196.376c-48.816.092-97.46 29.635-144.159 15.428-68.396-20.806-99.954-126.106-170.931-117.515-40.392 4.887-65.011 46.683-77.663 85.353-12.652 38.67-21.622 82.031-53.088 107.821-41.866 34.323-109.414 24.986-147.457 63.5C90.65-13.743 88.344 31.066 97.232 69.47c8.889 38.405 27.016 74.31 34.566 113.001 12.609 64.638-5.114 132.468 8.52 196.895 16.52 78.046 82.378 143.321 160.564 159.138 59.94 12.128 121.668-2.846 180.981-17.744 44.594-11.2 89.187-22.394 133.802-33.6 51.213-12.857 104.198-35.564 143.623-71.463 21.044-19.16 39.577-41.855 48.638-69.314 13.884-42.444-1.884-55.485 28.782-87.902 23.085-24.402 44.34-27.869 51.1-65.61 9.553-53.276-25.677-110.268-37.373-160.752-20.466-88.35-10.066-228.733-138.785-228.496z"/></g><g><path fill="none" stroke="#ff9e16" stroke-miterlimit="20" stroke-width=".78" d="M705.8-190.516c-48.816.092-97.46 29.635-144.159 15.428-68.396-20.806-99.954-126.106-170.931-117.515-40.392 4.887-65.011 46.683-77.663 85.353-12.652 38.67-21.622 82.031-53.088 107.821-41.866 34.323-109.414 24.986-147.457 63.5C84.8-7.883 82.494 36.926 91.382 75.33c8.889 38.405 27.016 74.31 34.566 113.001 12.609 64.638-5.114 132.468 8.52 196.895 16.52 78.046 82.378 143.321 160.564 159.138 59.94 12.128 121.668-2.851 180.981-17.744 44.594-11.2 89.187-22.394 133.802-33.6 51.213-12.857 104.198-35.564 143.623-71.463 21.044-19.16 39.577-41.855 48.638-69.314 13.884-42.444-1.884-55.485 28.782-87.902 23.085-24.402 44.34-27.869 51.1-65.61 9.553-53.276-25.677-110.268-37.373-160.752-20.471-88.35-10.066-228.728-138.785-228.496z"/></g><g><path fill="none" stroke="#ff9e16" stroke-miterlimit="20" stroke-width=".76" d="M699.95-184.676c-48.816.092-97.46 29.635-144.159 15.428-68.396-20.806-99.954-126.106-170.931-117.515-40.392 4.887-65.011 46.683-77.663 85.353-12.652 38.67-21.622 82.031-53.088 107.821-41.866 34.323-109.414 24.986-147.457 63.5C78.95-2.043 76.644 42.766 85.532 81.17c8.889 38.405 27.016 74.31 34.566 113.001 12.609 64.638-5.114 132.467 8.52 196.895 16.52 78.046 82.378 143.321 160.564 159.138 59.94 12.128 121.668-2.851 180.981-17.745 44.594-11.2 89.187-22.393 133.802-33.598 51.213-12.858 104.198-35.565 143.623-71.464 21.044-19.16 39.577-41.855 48.638-69.314 13.884-42.444-1.884-55.485 28.782-87.902 23.085-24.402 44.34-27.869 51.1-65.61 9.553-53.276-25.677-110.268-37.373-160.752-20.466-88.35-10.06-228.733-138.785-228.496z"/></g><g><path fill="none" stroke="#ff9e16" stroke-miterlimit="20" stroke-width=".74" d="M694.1-178.826c-48.816.092-97.46 29.635-144.159 15.428-68.396-20.806-99.954-126.106-170.931-117.515-40.392 4.887-65.011 46.683-77.663 85.353-12.652 38.67-21.622 82.031-53.088 107.821-41.866 34.323-109.414 24.986-147.457 63.5C73.099 3.807 70.794 48.616 79.681 87.02c8.889 38.405 27.016 74.31 34.566 113.001 12.608 64.638-5.114 132.468 8.52 196.895 16.52 78.046 82.378 143.321 160.564 159.138 59.94 12.128 121.668-2.851 180.981-17.744 44.594-11.2 89.187-22.394 133.802-33.6 51.213-12.857 104.198-35.564 143.623-71.463 21.044-19.16 39.577-41.855 48.638-69.314 13.884-42.444-1.884-55.485 28.782-87.902 23.085-24.402 44.34-27.869 51.1-65.61 9.553-53.276-25.677-110.268-37.373-160.752-20.466-88.35-10.066-228.733-138.785-228.496z"/></g><g><path fill="none" stroke="#ff9e16" stroke-miterlimit="20" stroke-width=".72" d="M688.25-172.976c-48.816.092-97.46 29.635-144.159 15.428-68.396-20.806-99.954-126.106-170.931-117.515-40.392 4.887-65.011 46.683-77.663 85.353-12.653 38.67-21.622 82.031-53.088 107.821-41.866 34.323-109.415 24.986-147.458 63.5C67.25 9.657 64.944 54.466 73.832 92.87c8.888 38.405 27.016 74.31 34.565 113.001 12.61 64.638-5.113 132.468 8.522 196.895 16.518 78.046 82.377 143.321 160.563 159.138 59.94 12.128 121.668-2.851 180.981-17.744 44.594-11.2 89.187-22.394 133.802-33.6 51.213-12.857 104.198-35.564 143.623-71.463 21.044-19.16 39.577-41.855 48.638-69.314 13.884-42.444-1.884-55.485 28.782-87.902 23.085-24.402 44.34-27.869 51.1-65.61 9.553-53.276-25.677-110.268-37.373-160.752-20.466-88.355-10.066-228.733-138.785-228.496z"/></g><g><path fill="none" stroke="#ff9e16" stroke-miterlimit="20" stroke-width=".71" d="M682.4-167.126c-48.816.092-97.46 29.635-144.159 15.428-68.396-20.806-99.954-126.106-170.931-117.515-40.392 4.887-65.011 46.683-77.663 85.353-12.652 38.67-21.622 82.031-53.088 107.821-41.866 34.323-109.414 24.986-147.457 63.5C61.4 15.507 59.094 60.316 67.982 98.72c8.889 38.405 27.016 74.31 34.566 113.001 12.609 64.638-5.114 132.467 8.52 196.895 16.52 78.046 82.378 143.321 160.564 159.138 59.94 12.128 121.668-2.851 180.981-17.744 44.594-11.2 89.187-22.394 133.802-33.6 51.213-12.857 104.198-35.564 143.623-71.463 21.044-19.16 39.577-41.855 48.638-69.314 13.884-42.444-1.884-55.485 28.782-87.902 23.085-24.402 44.34-27.869 51.1-65.61 9.553-53.276-25.677-110.268-37.373-160.752-20.466-88.35-10.06-228.728-138.785-228.496z"/></g><g><path fill="none" stroke="#ff9e16" stroke-miterlimit="20" stroke-width=".69" d="M676.55-161.276c-48.816.092-97.46 29.635-144.159 15.428-68.396-20.806-99.954-126.106-170.931-117.515-40.392 4.887-65.011 46.683-77.663 85.353-12.652 38.67-21.622 82.031-53.088 107.821-41.866 34.323-109.414 24.986-147.457 63.5-27.702 28.047-30.008 72.856-21.12 111.26 8.889 38.405 27.016 74.31 34.566 113.001 12.609 64.638-5.114 132.468 8.52 196.895 16.52 78.046 82.378 143.321 160.564 159.138 59.94 12.128 121.668-2.851 180.981-17.744 44.594-11.2 89.187-22.394 133.802-33.6 51.213-12.857 104.198-35.564 143.623-71.463 21.044-19.16 39.577-41.855 48.638-69.314 13.884-42.444-1.884-55.485 28.782-87.902 23.085-24.402 44.34-27.869 51.1-65.61 9.553-53.276-25.677-110.268-37.373-160.752-20.466-88.35-10.066-228.733-138.785-228.496z"/></g><g><path fill="none" stroke="#ff9e16" stroke-miterlimit="20" stroke-width=".67" d="M670.7-155.426c-48.816.092-97.46 29.635-144.159 15.428-68.396-20.806-99.954-126.106-170.931-117.515-40.392 4.887-65.011 46.683-77.663 85.353-12.652 38.67-21.622 82.031-53.088 107.821-41.866 34.323-109.414 24.986-147.457 63.5C49.7 27.207 47.394 72.016 56.282 110.42c8.889 38.405 27.016 74.31 34.566 113.001 12.609 64.638-5.114 132.467 8.52 196.895 16.52 78.046 82.378 143.321 160.564 159.138 59.94 12.128 121.668-2.851 180.981-17.745 44.594-11.2 89.187-22.393 133.802-33.598 51.213-12.858 104.198-35.565 143.623-71.464 21.044-19.16 39.577-41.855 48.638-69.314 13.884-42.444-1.884-55.485 28.782-87.902 23.085-24.402 44.34-27.869 51.1-65.61 9.553-53.276-25.677-110.268-37.373-160.752-20.466-88.35-10.066-228.733-138.785-228.496z"/></g><g><path fill="none" stroke="#ff9e16" stroke-miterlimit="20" stroke-width=".65" d="M664.85-149.576c-48.816.092-97.46 29.635-144.159 15.428-68.396-20.806-99.954-126.106-170.931-117.515-40.392 4.887-65.011 46.683-77.663 85.353-12.652 38.67-21.622 82.031-53.088 107.821-41.866 34.323-109.414 24.986-147.457 63.5-27.703 28.047-30.008 72.856-21.12 111.26 8.889 38.405 27.016 74.31 34.566 113.001 12.608 64.638-5.114 132.468 8.52 196.895 16.52 78.046 82.378 143.321 160.564 159.138 59.94 12.128 121.668-2.851 180.981-17.744 44.594-11.2 89.187-22.394 133.802-33.6 51.213-12.857 104.198-35.564 143.623-71.463 21.044-19.16 39.577-41.855 48.638-69.314 13.884-42.444-1.884-55.485 28.782-87.902 23.085-24.402 44.34-27.869 51.1-65.61 9.553-53.276-25.677-110.268-37.373-160.752-20.471-88.35-10.066-228.728-138.785-228.496z"/></g><g><path fill="none" stroke="#ff9e16" stroke-miterlimit="20" stroke-width=".63" d="M659-143.726c-48.816.092-97.46 29.635-144.159 15.428-68.396-20.806-99.954-126.106-170.931-117.515-40.392 4.887-65.011 46.683-77.663 85.353-12.653 38.67-21.622 82.031-53.088 107.821-41.866 34.323-109.415 24.986-147.458 63.5C38 38.907 35.694 83.716 44.582 122.12c8.888 38.405 27.016 74.31 34.565 113.001 12.61 64.638-5.113 132.468 8.522 196.895 16.513 78.04 82.371 143.316 160.563 159.138 59.94 12.128 121.668-2.851 180.981-17.744 44.594-11.2 89.187-22.394 133.802-33.6 51.213-12.857 104.198-35.564 143.623-71.463 21.044-19.16 39.577-41.855 48.638-69.314 13.884-42.444-1.884-55.485 28.782-87.902 23.085-24.402 44.34-27.869 51.1-65.61 9.553-53.276-25.677-110.268-37.373-160.752C777.319-3.58 787.725-143.963 659-143.726z"/></g><g><path fill="none" stroke="#ff9e16" stroke-miterlimit="20" stroke-width=".61" d="M653.15-137.876c-48.816.092-97.46 29.635-144.159 15.428-68.396-20.806-99.954-126.106-170.931-117.515-40.392 4.887-65.011 46.683-77.663 85.353-12.652 38.67-21.622 82.031-53.088 107.821-41.866 34.323-109.414 24.986-147.457 63.5-27.702 28.047-30.008 72.856-21.12 111.26 8.889 38.405 27.016 74.31 34.566 113.001 12.609 64.638-5.114 132.467 8.52 196.895 16.52 78.046 82.378 143.321 160.564 159.138 59.94 12.128 121.668-2.851 180.981-17.744 44.594-11.2 89.187-22.394 133.802-33.6 51.213-12.857 104.198-35.564 143.623-71.463 21.044-19.16 39.577-41.855 48.638-69.314 13.884-42.444-1.884-55.485 28.782-87.902 23.085-24.402 44.334-27.869 51.1-65.61 9.553-53.276-25.677-110.268-37.373-160.752-20.466-88.35-10.066-228.733-138.785-228.496z"/></g><g><path fill="none" stroke="#ff9e16" stroke-miterlimit="20" stroke-width=".59" d="M647.3-132.026c-48.816.092-97.46 29.635-144.159 15.428-68.396-20.806-99.954-126.106-170.931-117.515-40.392 4.887-65.011 46.683-77.663 85.353-12.652 38.67-21.622 82.031-53.088 107.821-41.866 34.323-109.414 24.986-147.457 63.5C26.3 50.607 23.994 95.416 32.882 133.82c8.889 38.405 27.016 74.31 34.566 113.001 12.609 64.638-5.114 132.468 8.52 196.895 16.52 78.046 82.378 143.321 160.564 159.138 59.94 12.128 121.668-2.851 180.981-17.744 44.594-11.2 89.187-22.394 133.802-33.6 51.213-12.857 104.198-35.564 143.623-71.463 21.044-19.16 39.577-41.855 48.638-69.314 13.884-42.444-1.884-55.485 28.782-87.902 23.085-24.402 44.34-27.869 51.1-65.61 9.553-53.276-25.677-110.268-37.373-160.752C765.614 8.12 776.019-132.258 647.3-132.026z"/></g><g><path fill="none" stroke="#ff9e16" stroke-miterlimit="20" stroke-width=".57" d="M641.45-126.176c-48.816.092-97.46 29.635-144.159 15.428-68.396-20.806-99.954-126.106-170.931-117.515-40.392 4.887-65.011 46.683-77.663 85.353-12.652 38.67-21.622 82.031-53.088 107.821C153.743-.766 86.195-10.103 48.152 28.411c-27.702 28.047-30.008 72.856-21.12 111.26 8.889 38.405 27.016 74.31 34.566 113.001 12.609 64.638-5.114 132.468 8.52 196.895 16.52 78.046 82.378 143.321 160.564 159.138 59.94 12.128 121.668-2.851 180.981-17.744 44.594-11.2 89.187-22.394 133.802-33.6 51.213-12.857 104.198-35.564 143.623-71.463 21.044-19.16 39.577-41.855 48.638-69.314 13.884-42.444-1.884-55.485 28.782-87.902 23.085-24.402 44.34-27.869 51.1-65.61 9.553-53.276-25.677-110.268-37.373-160.752-20.466-88.35-10.06-228.733-138.785-228.496z"/></g><g><path fill="none" stroke="#ff9e16" stroke-miterlimit="20" stroke-width=".55" d="M635.6-120.326c-48.816.092-97.46 29.635-144.159 15.428-68.396-20.806-99.954-126.106-170.931-117.515-40.392 4.887-65.011 46.683-77.663 85.353-12.653 38.67-21.622 82.031-53.088 107.821C147.893 5.084 80.345-4.253 42.302 34.261 14.6 62.307 12.294 107.116 21.182 145.52c8.889 38.405 27.016 74.31 34.566 113.001 12.609 64.638-5.114 132.468 8.52 196.895 16.52 78.046 82.378 143.321 160.564 159.138 59.94 12.128 121.668-2.851 180.981-17.744 44.594-11.2 89.187-22.394 133.802-33.6 51.213-12.857 104.198-35.564 143.623-71.463 21.044-19.16 39.577-41.855 48.638-69.314 13.884-42.444-1.884-55.485 28.782-87.902 23.085-24.402 44.34-27.869 51.1-65.61 9.553-53.276-25.677-110.268-37.373-160.752-20.466-88.35-10.066-228.733-138.785-228.496z"/></g><g><path fill="none" stroke="#ff9e16" stroke-miterlimit="20" stroke-width=".53" d="M629.75-114.476c-48.816.092-97.46 29.635-144.159 15.428-68.396-20.806-99.954-126.106-170.931-117.515-40.392 4.887-65.011 46.683-77.663 85.353-12.653 38.67-21.622 82.031-53.088 107.821-41.866 34.323-109.415 24.986-147.458 63.5C8.75 68.157 6.444 112.966 15.332 151.37c8.888 38.405 27.016 74.31 34.565 113.001 12.61 64.638-5.113 132.468 8.522 196.895 16.518 78.046 82.377 143.321 160.563 159.138 59.94 12.128 121.668-2.851 180.981-17.744 44.594-11.2 89.187-22.394 133.802-33.6 51.213-12.857 104.198-35.564 143.623-71.463 21.044-19.16 39.577-41.855 48.638-69.314 13.884-42.444-1.884-55.485 28.782-87.902 23.085-24.402 44.34-27.869 51.1-65.61 9.553-53.276-25.677-110.268-37.373-160.752-20.466-88.355-10.066-228.733-138.785-228.496z"/></g><g><path fill="none" stroke="#ff9e16" stroke-miterlimit="20" stroke-width=".51" d="M623.9-108.626c-48.816.092-97.46 29.635-144.159 15.428-68.396-20.806-99.954-126.106-170.931-117.515-40.392 4.887-65.011 46.683-77.663 85.353-12.652 38.67-21.622 82.031-53.088 107.821-41.866 34.323-109.414 24.986-147.457 63.5C2.9 74.007.594 118.816 9.482 157.22c8.889 38.405 27.016 74.31 34.566 113.001 12.609 64.638-5.114 132.468 8.52 196.895 16.514 78.046 82.372 143.321 160.564 159.138 59.94 12.128 121.668-2.851 180.981-17.744 44.594-11.2 89.187-22.394 133.802-33.6 51.213-12.857 104.198-35.564 143.623-71.463 21.044-19.16 39.577-41.855 48.638-69.314 13.884-42.444-1.884-55.485 28.782-87.902 23.085-24.402 44.34-27.869 51.1-65.61 9.553-53.276-25.677-110.268-37.373-160.752-20.466-88.35-10.06-228.728-138.785-228.496z"/></g><g><path fill="none" stroke="#ff9e16" stroke-miterlimit="20" stroke-width=".5" d="M618.05-102.776c-48.816.092-97.46 29.635-144.159 15.428-68.396-20.806-99.954-126.106-170.931-117.515-40.392 4.887-65.011 46.683-77.663 85.353-12.652 38.67-21.622 82.031-53.088 107.821-41.866 34.323-109.414 24.986-147.457 63.5C-2.95 79.857-5.256 124.666 3.632 163.07c8.889 38.405 27.016 74.31 34.566 113.001 12.609 64.638-5.114 132.468 8.52 196.895 16.52 78.046 82.378 143.321 160.564 159.138 59.94 12.128 121.668-2.851 180.981-17.744 44.594-11.2 89.187-22.394 133.802-33.6 51.213-12.857 104.198-35.564 143.623-71.463 21.044-19.16 39.577-41.855 48.638-69.314 13.884-42.444-1.884-55.485 28.782-87.902 23.085-24.402 44.34-27.869 51.1-65.61 9.553-53.276-25.677-110.268-37.373-160.752-20.466-88.35-10.06-228.733-138.785-228.496z"/></g></g></g></svg>