<svg xmlns="http://www.w3.org/2000/svg" width="738" height="800" viewBox="0 0 738 800"><g><g clip-path="url(#clip-1CE65161-29CF-41FA-ADBF-17796F56DE39)"><g><path fill="none" stroke="#ff9e16" stroke-miterlimit="20" stroke-width="4.8" d="M3019.978-972.042c-162.72.306-324.864 98.784-480.528 51.426-227.988-69.354-333.18-420.354-569.772-391.716-134.64 16.29-216.702 155.61-258.876 284.508-42.174 128.898-72.09 273.438-176.958 359.406-139.554 114.408-364.716 83.286-491.526 211.662-92.34 93.492-100.026 242.856-70.398 370.872 29.628 128.016 90.054 247.698 115.218 376.668 42.03 215.46-17.046 441.558 28.404 656.316 55.062 260.154 274.59 477.738 535.212 530.46 199.8 40.428 405.558-9.486 603.27-59.148 148.644-37.332 297.288-74.646 446.004-111.996 170.712-42.858 347.328-118.548 478.746-238.212 70.146-63.864 131.922-139.518 162.126-231.048 46.278-141.48-6.282-184.95 95.94-293.004 76.95-81.342 147.798-92.898 170.334-218.7 31.842-177.588-85.59-367.56-124.578-535.842-68.238-294.498-33.552-762.426-462.618-761.652z"/></g><g><path fill="none" stroke="#ff9e16" stroke-miterlimit="20" stroke-width="4.73" d="M3000.458-952.552c-162.72.306-324.864 98.784-480.528 51.426-227.988-69.354-333.18-420.354-569.772-391.716-134.64 16.29-216.702 155.61-258.876 284.508-42.174 128.898-72.072 273.438-176.958 359.406-139.554 114.408-364.716 83.286-491.526 211.662-92.34 93.492-100.026 242.856-70.398 370.872 29.628 128.016 90.054 247.698 115.218 376.668 42.03 215.46-17.046 441.558 28.404 656.316 55.062 260.154 274.59 477.738 535.212 530.46 199.8 40.428 405.558-9.504 603.27-59.148 148.644-37.332 297.288-74.646 446.004-111.996 170.712-42.858 347.328-118.548 478.746-238.212 70.146-63.864 131.922-139.518 162.126-231.048 46.278-141.48-6.282-184.95 95.94-293.004 76.95-81.342 147.798-92.898 170.334-218.7 31.842-177.588-85.59-367.56-124.578-535.842-68.22-294.498-33.534-762.444-462.618-761.652z"/></g><g><path fill="none" stroke="#ff9e16" stroke-miterlimit="20" stroke-width="4.67" d="M2980.968-933.062c-162.72.306-324.864 98.784-480.528 51.426-227.988-69.354-333.18-420.354-569.772-391.716-134.64 16.29-216.702 155.61-258.876 284.508-42.174 128.898-72.072 273.438-176.958 359.406-139.554 114.408-364.716 83.286-491.526 211.662-92.34 93.492-100.026 242.856-70.398 370.872 29.628 128.016 90.054 247.698 115.218 376.668 42.03 215.46-17.046 441.558 28.404 656.316 55.044 260.136 274.572 477.72 535.194 530.46 199.8 40.428 405.558-9.486 603.27-59.148 148.644-37.332 297.288-74.646 446.004-111.996 170.712-42.858 347.328-118.548 478.746-238.212 70.146-63.864 131.922-139.518 162.126-231.048 46.278-141.48-6.282-184.95 95.94-293.004 76.95-81.342 147.798-92.898 170.334-218.7 31.842-177.588-85.59-367.56-124.578-535.842-68.202-294.498-33.534-762.444-462.6-761.652z"/></g><g><path fill="none" stroke="#ff9e16" stroke-miterlimit="20" stroke-width="4.6" d="M2961.478-913.562c-162.72.306-324.864 98.784-480.528 51.426-227.988-69.354-333.18-420.354-569.772-391.716-134.64 16.29-216.702 155.61-258.876 284.508-42.174 128.898-72.09 273.438-176.958 359.406-139.554 114.408-364.716 83.286-491.526 211.662-92.34 93.492-100.026 242.856-70.398 370.872 29.628 128.016 90.054 247.698 115.218 376.668 42.03 215.46-17.046 441.558 28.404 656.316 55.062 260.154 274.59 477.738 535.212 530.46 199.8 40.428 405.558-9.486 603.27-59.148 148.644-37.332 297.288-74.646 446.004-111.996 170.712-42.858 347.328-118.548 478.746-238.212 70.146-63.864 131.922-139.518 162.126-231.048 46.278-141.48-6.282-184.95 95.94-293.004 76.95-81.342 147.78-92.898 170.334-218.7 31.842-177.588-85.59-367.56-124.578-535.842-68.22-294.516-33.552-762.444-462.618-761.652z"/></g><g><path fill="none" stroke="#ff9e16" stroke-miterlimit="20" stroke-width="4.54" d="M2941.958-894.052c-162.72.306-324.864 98.784-480.528 51.426-227.988-69.354-333.18-420.354-569.772-391.716-134.64 16.29-216.702 155.61-258.876 284.508-42.174 128.898-72.072 273.438-176.958 359.406-139.554 114.408-364.716 83.286-491.526 211.662C871.958-285.274 864.272-135.91 893.9-7.894c29.628 128.016 90.054 247.698 115.218 376.668 42.03 215.46-17.046 441.558 28.404 656.316 55.062 260.154 274.59 477.738 535.212 530.46 199.8 40.428 405.558-9.504 603.27-59.148 148.644-37.332 297.288-74.646 446.004-111.996 170.712-42.858 347.328-118.548 478.746-238.212 70.146-63.864 131.922-139.518 162.126-231.048 46.278-141.48-6.282-184.95 95.94-293.004 76.95-81.342 147.798-92.898 170.334-218.7 31.842-177.588-85.59-367.56-124.578-535.842-68.22-294.498-33.534-762.426-462.618-761.652z"/></g><g><path fill="none" stroke="#ff9e16" stroke-miterlimit="20" stroke-width="4.47" d="M2922.468-874.552c-162.72.306-324.864 98.784-480.528 51.426-227.988-69.354-333.18-420.354-569.772-391.716-134.64 16.29-216.702 155.61-258.876 284.508-42.174 128.898-72.09 273.438-176.958 359.406-139.554 114.408-364.716 83.286-491.526 211.662-92.34 93.492-100.026 242.856-70.398 370.872 29.628 128.016 90.054 247.698 115.218 376.668 42.03 215.46-17.046 441.558 28.404 656.316 55.062 260.154 274.59 477.738 535.212 530.46 199.8 40.428 405.558-9.504 603.27-59.148 148.644-37.332 297.288-74.646 446.004-111.996 170.712-42.858 347.328-118.548 478.746-238.212 70.146-63.864 131.922-139.518 162.126-231.048 46.278-141.48-6.282-184.95 95.94-293.004 76.95-81.342 147.798-92.898 170.334-218.7 31.842-177.588-85.59-367.56-124.578-535.842-68.22-294.498-33.552-762.444-462.618-761.652z"/></g><g><path fill="none" stroke="#ff9e16" stroke-miterlimit="20" stroke-width="4.41" d="M2902.978-855.062c-162.72.306-324.864 98.784-480.528 51.426-227.988-69.354-333.18-420.354-569.772-391.716-134.64 16.29-216.702 155.61-258.876 284.508-42.174 128.898-72.072 273.438-176.958 359.406-139.554 114.408-364.716 83.286-491.526 211.662-92.34 93.492-100.026 242.856-70.398 370.872 29.628 128.016 90.054 247.698 115.218 376.668 42.03 215.46-17.046 441.558 28.404 656.316 55.062 260.154 274.59 477.738 535.212 530.46 199.8 40.428 405.558-9.504 603.27-59.148 148.644-37.332 297.288-74.646 446.004-111.996 170.712-42.858 347.328-118.548 478.746-238.212 70.146-63.864 131.922-139.518 162.126-231.048 46.278-141.48-6.282-184.95 95.94-293.004 76.95-81.342 147.798-92.898 170.334-218.7 31.842-177.588-85.59-367.56-124.578-535.842-68.22-294.498-33.552-762.444-462.618-761.652z"/></g><g><path fill="none" stroke="#ff9e16" stroke-miterlimit="20" stroke-width="4.35" d="M2883.478-835.552c-162.72.306-324.864 98.784-480.528 51.426-227.988-69.354-333.18-420.354-569.772-391.716-134.64 16.29-216.702 155.61-258.876 284.508-42.174 128.898-72.09 273.438-176.958 359.406-139.554 114.408-364.716 83.286-491.526 211.662-92.34 93.492-100.026 242.856-70.398 370.872 29.628 128.016 90.054 247.698 115.218 376.668 42.03 215.46-17.046 441.558 28.404 656.316 55.062 260.154 274.59 477.738 535.212 530.46 199.8 40.428 405.558-9.504 603.27-59.148 148.644-37.332 297.288-74.646 446.004-111.996 170.712-42.858 347.328-118.548 478.746-238.212 70.146-63.864 131.922-139.518 162.126-231.048 46.278-141.48-6.282-184.95 95.94-293.004 76.95-81.342 147.798-92.898 170.334-218.7 31.842-177.588-85.59-367.56-124.578-535.842-68.238-294.498-33.552-762.426-462.618-761.652z"/></g><g><path fill="none" stroke="#ff9e16" stroke-miterlimit="20" stroke-width="4.28" d="M2863.968-816.052c-162.72.306-324.864 98.784-480.528 51.426-227.988-69.354-333.18-420.354-569.772-391.716-134.64 16.29-216.702 155.61-258.876 284.508-42.174 128.898-72.072 273.438-176.958 359.406-139.554 114.408-364.716 83.286-491.526 211.662-92.34 93.492-100.026 242.856-70.398 370.872 29.628 128.016 90.054 247.698 115.218 376.668 42.03 215.46-17.046 441.558 28.404 656.316 55.062 260.154 274.59 477.738 535.212 530.46 199.8 40.428 405.558-9.504 603.27-59.148 148.644-37.332 297.288-74.646 446.004-111.996 170.712-42.858 347.328-118.548 478.746-238.212 70.146-63.864 131.922-139.518 162.126-231.048 46.278-141.48-6.282-184.95 95.94-293.004 76.95-81.342 147.798-92.898 170.334-218.7 31.842-177.588-85.59-367.56-124.578-535.842-68.22-294.498-33.534-762.444-462.618-761.652z"/></g><g><path fill="none" stroke="#ff9e16" stroke-miterlimit="20" stroke-width="4.22" d="M2844.478-796.562c-162.72.306-324.864 98.784-480.528 51.426-227.988-69.354-333.18-420.354-569.772-391.716-134.64 16.29-216.702 155.61-258.876 284.508-42.174 128.898-72.09 273.438-176.958 359.406-139.554 114.408-364.716 83.286-491.526 211.662-92.34 93.492-100.026 242.856-70.398 370.872 29.628 128.016 90.054 247.698 115.218 376.668 42.03 215.46-17.046 441.558 28.404 656.316 55.062 260.154 274.59 477.738 535.212 530.46 199.8 40.428 405.558-9.486 603.27-59.148 148.644-37.332 297.288-74.646 446.004-111.996 170.712-42.858 347.328-118.548 478.746-238.212 70.146-63.864 131.922-139.518 162.126-231.048 46.278-141.48-6.282-184.95 95.94-293.004 76.95-81.342 147.798-92.898 170.334-218.7 31.842-177.588-85.59-367.56-124.578-535.842-68.22-294.498-33.552-762.444-462.618-761.652z"/></g><g><path fill="none" stroke="#ff9e16" stroke-miterlimit="20" stroke-width="4.15" d="M2824.978-777.052c-162.72.306-324.864 98.784-480.528 51.426-227.988-69.354-333.18-420.354-569.772-391.716-134.64 16.29-216.702 155.61-258.876 284.508-42.174 128.898-72.072 273.438-176.958 359.406-139.554 114.408-364.716 83.286-491.526 211.662-92.34 93.492-100.026 242.856-70.398 370.872 29.628 128.016 90.054 247.698 115.218 376.668 42.03 215.46-17.046 441.558 28.404 656.316 55.062 260.154 274.59 477.738 535.212 530.46 199.8 40.428 405.558-9.504 603.27-59.148 148.644-37.332 297.288-74.646 446.004-111.996 170.712-42.858 347.328-118.548 478.746-238.212 70.146-63.864 131.922-139.518 162.126-231.048 46.278-141.48-6.282-184.95 95.94-293.004 76.95-81.342 147.798-92.898 170.334-218.7 31.842-177.588-85.59-367.56-124.578-535.842-68.238-294.498-33.552-762.426-462.618-761.652z"/></g><g><path fill="none" stroke="#ff9e16" stroke-miterlimit="20" stroke-width="4.09" d="M2805.468-757.552c-162.72.306-324.864 98.784-480.528 51.426-227.988-69.354-333.18-420.354-569.772-391.716-134.64 16.29-216.702 155.61-258.876 284.508-42.174 128.898-72.072 273.438-176.958 359.406-139.554 114.408-364.716 83.286-491.526 211.662C735.468-148.774 727.782.59 757.41 128.606c29.628 128.016 90.054 247.698 115.218 376.668 42.03 215.46-17.046 441.558 28.404 656.316 55.062 260.154 274.59 477.738 535.212 530.46 199.8 40.428 405.558-9.504 603.27-59.148 148.644-37.332 297.288-74.646 446.004-111.996 170.712-42.858 347.328-118.548 478.746-238.212 70.146-63.864 131.922-139.518 162.126-231.048 46.278-141.48-6.282-184.95 95.94-293.004 76.95-81.342 147.798-92.898 170.334-218.7 31.842-177.588-85.59-367.56-124.578-535.842-68.22-294.498-33.534-762.426-462.618-761.652z"/></g><g><path fill="none" stroke="#ff9e16" stroke-miterlimit="20" stroke-width="4.02" d="M2785.978-738.062c-162.72.306-324.864 98.784-480.528 51.426-227.988-69.354-333.18-420.354-569.772-391.716-134.64 16.29-216.702 155.61-258.876 284.508-42.174 128.898-72.09 273.438-176.958 359.406-139.554 114.408-364.716 83.286-491.526 211.662-92.34 93.492-100.026 242.856-70.398 370.872 29.628 128.016 90.054 247.698 115.218 376.668 42.03 215.46-17.046 441.558 28.404 656.316 55.062 260.154 274.59 477.738 535.212 530.46 199.8 40.428 405.558-9.504 603.27-59.148 148.644-37.332 297.288-74.646 446.004-111.996 170.712-42.858 347.328-118.548 478.746-238.212 70.146-63.864 131.922-139.518 162.126-231.048 46.278-141.48-6.282-184.95 95.94-293.004 76.95-81.342 147.78-92.898 170.334-218.7 31.842-177.588-85.59-367.56-124.578-535.842-68.22-294.498-33.552-762.444-462.618-761.652z"/></g><g><path fill="none" stroke="#ff9e16" stroke-miterlimit="20" stroke-width="3.96" d="M2766.478-718.572c-162.72.306-324.864 98.784-480.528 51.426-227.988-69.354-333.18-420.354-569.772-391.716-134.64 16.29-216.702 155.61-258.876 284.508-42.174 128.898-72.072 273.438-176.958 359.406-139.554 114.408-364.716 83.286-491.526 211.662-92.34 93.492-100.026 242.856-70.398 370.872 29.628 128.016 90.054 247.698 115.218 376.668 42.03 215.46-17.046 441.558 28.404 656.316 55.062 260.154 274.59 477.738 535.212 530.46 199.8 40.428 405.558-9.504 603.27-59.148 148.644-37.332 297.288-74.646 446.004-111.996 170.712-42.858 347.328-118.548 478.746-238.212 70.146-63.864 131.922-139.518 162.126-231.048 46.278-141.48-6.282-184.95 95.94-293.004 76.95-81.342 147.798-92.898 170.334-218.7 31.842-177.588-85.59-367.56-124.578-535.842-68.22-294.516-33.552-762.444-462.618-761.652z"/></g><g><path fill="none" stroke="#ff9e16" stroke-miterlimit="20" stroke-width="3.9" d="M2746.968-699.052c-162.72.306-324.864 98.784-480.528 51.426-227.988-69.354-333.18-420.354-569.772-391.716-134.64 16.29-216.702 155.61-258.876 284.508-42.174 128.898-72.09 273.438-176.958 359.406-139.554 114.408-364.716 83.286-491.526 211.662-92.34 93.492-100.026 242.856-70.398 370.872 29.628 128.016 90.054 247.698 115.218 376.668 42.03 215.46-17.046 441.558 28.404 656.316 55.062 260.154 274.59 477.738 535.212 530.46 199.8 40.428 405.558-9.504 603.27-59.148 148.644-37.332 297.288-74.646 446.004-111.996 170.712-42.858 347.328-118.548 478.746-238.212 70.146-63.864 131.922-139.518 162.126-231.048 46.278-141.48-6.282-184.95 95.94-293.004 76.95-81.342 147.798-92.898 170.334-218.7 31.842-177.588-85.59-367.56-124.578-535.842-68.22-294.498-33.534-762.426-462.618-761.652z"/></g><g><path fill="none" stroke="#ff9e16" stroke-miterlimit="20" stroke-width="3.83" d="M2727.478-679.562c-162.72.306-324.864 98.784-480.528 51.426-227.988-69.354-333.18-420.354-569.772-391.716-134.64 16.29-216.702 155.61-258.876 284.508-42.174 128.898-72.072 273.438-176.958 359.406-139.554 114.408-364.716 83.286-491.526 211.662-92.34 93.492-100.026 242.856-70.398 370.872 29.628 128.016 90.054 247.698 115.218 376.668 42.03 215.46-17.046 441.558 28.404 656.316 55.062 260.154 274.59 477.738 535.212 530.46 199.8 40.428 405.558-9.504 603.27-59.148 148.644-37.332 297.288-74.646 446.004-111.996 170.712-42.858 347.328-118.548 478.746-238.212 70.146-63.864 131.922-139.518 162.126-231.048 46.278-141.48-6.282-184.95 95.94-293.004 76.95-81.342 147.798-92.898 170.334-218.7 31.842-177.588-85.59-367.56-124.578-535.842-68.22-294.498-33.534-762.444-462.618-761.652z"/></g><g><path fill="none" stroke="#ff9e16" stroke-miterlimit="20" stroke-width="3.77" d="M2707.978-660.072c-162.72.306-324.864 98.784-480.528 51.426C1999.462-678 1894.27-1029 1657.678-1000.362c-134.64 16.29-216.702 155.61-258.876 284.508-42.174 128.898-72.09 273.438-176.958 359.406-139.554 114.408-364.716 83.286-491.526 211.662-92.34 93.492-100.026 242.856-70.398 370.872 29.628 128.016 90.054 247.698 115.218 376.668 42.03 215.46-17.046 441.558 28.404 656.316 55.062 260.154 274.59 477.738 535.212 530.46 199.8 40.428 405.558-9.504 603.27-59.148 148.644-37.332 297.288-74.646 446.004-111.996 170.712-42.858 347.328-118.548 478.746-238.212 70.146-63.864 131.922-139.518 162.126-231.048 46.278-141.48-6.282-184.95 95.94-293.004 76.95-81.342 147.798-92.898 170.334-218.7 31.842-177.588-85.59-367.56-124.578-535.842-68.22-294.498-33.552-762.444-462.618-761.652z"/></g><g><path fill="none" stroke="#ff9e16" stroke-miterlimit="20" stroke-width="3.7" d="M2688.488-640.552c-162.72.306-324.864 98.784-480.528 51.426-227.988-69.354-333.18-420.354-569.772-391.716-134.64 16.29-216.702 155.61-258.876 284.508-42.174 128.898-72.072 273.438-176.958 359.406C1062.8-222.52 837.638-253.642 710.828-125.266c-92.34 93.492-100.026 242.856-70.398 370.872 29.628 128.016 90.054 247.698 115.218 376.668 42.03 215.46-17.046 441.558 28.404 656.316 55.062 260.154 274.59 477.738 535.212 530.46 199.8 40.428 405.558-9.504 603.27-59.148 148.644-37.332 297.288-74.646 446.004-111.996 170.712-42.858 347.328-118.548 478.746-238.212 70.146-63.864 131.922-139.518 162.126-231.048 46.278-141.48-6.282-184.95 95.94-293.004 76.95-81.342 147.798-92.898 170.334-218.7 31.842-177.588-85.59-367.56-124.578-535.842-68.238-294.498-33.552-762.426-462.618-761.652z"/></g><g><path fill="none" stroke="#ff9e16" stroke-miterlimit="20" stroke-width="3.64" d="M2668.978-621.062c-162.72.306-324.864 98.784-480.528 51.426-227.988-69.354-333.18-420.354-569.772-391.716-134.64 16.29-216.702 155.61-258.876 284.508-42.174 128.898-72.09 273.438-176.958 359.406-139.554 114.408-364.716 83.286-491.526 211.662-92.34 93.492-100.026 242.856-70.398 370.872 29.628 128.016 90.054 247.698 115.218 376.668 42.03 215.46-17.046 441.558 28.404 656.316 55.062 260.154 274.59 477.738 535.212 530.46 199.8 40.428 405.558-9.504 603.27-59.148 148.644-37.332 297.288-74.646 446.004-111.996 170.712-42.858 347.328-118.548 478.746-238.212 70.146-63.864 131.922-139.518 162.126-231.048 46.278-141.48-6.282-184.95 95.94-293.004 76.95-81.342 147.798-92.898 170.334-218.7 31.842-177.588-85.59-367.56-124.578-535.842-68.22-294.498-33.534-762.444-462.618-761.652z"/></g><g><path fill="none" stroke="#ff9e16" stroke-miterlimit="20" stroke-width="3.57" d="M2649.478-601.572c-162.72.306-324.864 98.784-480.528 51.426-227.988-69.354-333.18-420.354-569.772-391.716-134.64 16.29-216.702 155.61-258.876 284.508-42.174 128.898-72.072 273.438-176.958 359.406C1023.79-183.54 798.628-214.662 671.818-86.286 579.478 7.206 571.792 156.57 601.42 284.586c29.628 128.016 90.054 247.698 115.218 376.668 42.03 215.46-17.046 441.558 28.404 656.316 55.062 260.154 274.59 477.738 535.212 530.46 199.8 40.428 405.558-9.504 603.27-59.148 148.644-37.332 297.288-74.646 446.004-111.996 170.712-42.858 347.328-118.548 478.746-238.212 70.146-63.864 131.922-139.518 162.126-231.048 46.278-141.48-6.282-184.95 95.94-293.004 76.95-81.342 147.798-92.898 170.334-218.7 31.842-177.588-85.59-367.56-124.578-535.842-68.22-294.498-33.552-762.444-462.618-761.652z"/></g><g><path fill="none" stroke="#ff9e16" stroke-miterlimit="20" stroke-width="3.51" d="M2629.988-582.072c-162.72.306-324.864 98.784-480.528 51.426C1921.472-600 1816.28-951 1579.688-922.362c-134.64 16.29-216.702 155.61-258.876 284.508-42.174 128.898-72.09 273.438-176.958 359.406C1004.3-164.04 779.138-195.162 652.328-66.786c-92.34 93.492-100.026 242.856-70.398 370.872 29.628 128.016 90.054 247.698 115.218 376.668 42.03 215.46-17.046 441.558 28.404 656.316 55.062 260.154 274.59 477.738 535.212 530.46 199.8 40.428 405.558-9.504 603.27-59.148 148.644-37.332 297.288-74.646 446.004-111.996 170.712-42.858 347.328-118.548 478.746-238.212 70.146-63.864 131.922-139.518 162.126-231.048 46.278-141.48-6.282-184.95 95.94-293.004 76.95-81.342 147.798-92.898 170.334-218.7 31.842-177.588-85.59-367.56-124.578-535.842-68.22-294.516-33.552-762.444-462.618-761.652z"/></g><g><path fill="none" stroke="#ff9e16" stroke-miterlimit="20" stroke-width="3.45" d="M2610.478-562.562c-162.72.306-324.864 98.784-480.528 51.426-227.988-69.354-333.18-420.354-569.772-391.716-134.64 16.29-216.702 155.61-258.876 284.508-42.174 128.898-72.072 273.438-176.958 359.406C984.79-144.53 759.628-175.652 632.818-47.276c-92.34 93.492-100.026 242.856-70.398 370.872 29.628 128.016 90.054 247.698 115.218 376.668 42.03 215.46-17.046 441.558 28.404 656.316 55.062 260.154 274.59 477.738 535.212 530.46 199.8 40.428 405.558-9.504 603.27-59.148 148.644-37.332 297.288-74.646 446.004-111.996 170.712-42.858 347.328-118.548 478.746-238.212 70.146-63.864 131.922-139.518 162.126-231.048 46.278-141.48-6.282-184.95 95.94-293.004 76.95-81.342 147.78-92.898 170.334-218.7 31.842-177.588-85.59-367.56-124.578-535.842-68.22-294.498-33.534-762.426-462.618-761.652z"/></g><g><path fill="none" stroke="#ff9e16" stroke-miterlimit="20" stroke-width="3.38" d="M2590.978-543.072c-162.72.306-324.864 98.784-480.528 51.426C1882.462-561 1777.27-912 1540.678-883.362c-134.64 16.29-216.702 155.61-258.876 284.508-42.174 128.898-72.072 273.438-176.958 359.406C965.29-125.04 740.128-156.162 613.318-27.786c-92.34 93.492-100.026 242.856-70.398 370.872 29.628 128.016 90.054 247.698 115.218 376.668 42.03 215.46-17.046 441.558 28.404 656.316 55.062 260.154 274.59 477.738 535.212 530.46 199.8 40.428 405.558-9.504 603.27-59.148 148.644-37.332 297.288-74.646 446.004-111.996 170.712-42.858 347.328-118.548 478.746-238.212 70.146-63.864 131.922-139.518 162.126-231.048 46.278-141.48-6.282-184.95 95.94-293.004 76.95-81.342 147.798-92.898 170.334-218.7 31.842-177.588-85.59-367.56-124.578-535.842-68.22-294.498-33.552-762.444-462.618-761.652z"/></g><g><path fill="none" stroke="#ff9e16" stroke-miterlimit="20" stroke-width="3.32" d="M2571.488-523.572c-162.72.306-324.864 98.784-480.528 51.426-227.988-69.354-333.18-420.354-569.772-391.716-134.64 16.29-216.702 155.61-258.876 284.508-42.174 128.898-72.09 273.438-176.958 359.406C945.8-105.54 720.638-136.662 593.828-8.286c-92.34 93.492-100.026 242.856-70.398 370.872 29.628 128.016 90.054 247.698 115.218 376.668 42.03 215.46-17.046 441.558 28.404 656.316 55.062 260.154 274.59 477.738 535.212 530.46 199.8 40.428 405.558-9.504 603.27-59.148 148.644-37.332 297.288-74.646 446.004-111.996 170.712-42.858 347.328-118.548 478.746-238.212 70.146-63.864 131.922-139.518 162.126-231.048 46.278-141.48-6.282-184.95 95.94-293.004 76.95-81.342 147.798-92.898 170.334-218.7 31.842-177.588-85.59-367.56-124.578-535.842-68.22-294.498-33.552-762.444-462.618-761.652z"/></g><g><path fill="none" stroke="#ff9e16" stroke-miterlimit="20" stroke-width="3.25" d="M2551.988-504.062c-162.72.306-324.864 98.784-480.528 51.426-227.988-69.354-333.18-420.354-569.772-391.716-134.64 16.29-216.702 155.61-258.876 284.508-42.174 128.898-72.072 273.438-176.958 359.406C926.3-86.03 701.138-117.152 574.328 11.224c-92.34 93.492-100.026 242.856-70.398 370.872 29.628 128.016 90.054 247.698 115.218 376.668 42.03 215.46-17.046 441.558 28.404 656.316 55.062 260.154 274.59 477.738 535.212 530.46 199.8 40.428 405.558-9.504 603.27-59.148 148.644-37.332 297.288-74.646 446.004-111.996 170.712-42.858 347.328-118.548 478.746-238.212 70.146-63.864 131.922-139.518 162.126-231.048 46.278-141.48-6.282-184.95 95.94-293.004 76.95-81.342 147.798-92.898 170.334-218.7 31.842-177.588-85.59-367.56-124.578-535.842-68.238-294.498-33.552-762.426-462.618-761.652z"/></g><g><path fill="none" stroke="#ff9e16" stroke-miterlimit="20" stroke-width="3.19" d="M2532.478-484.572c-162.72.306-324.864 98.784-480.528 51.426-227.988-69.354-333.18-420.354-569.772-391.716-134.64 16.29-216.702 155.61-258.876 284.508-42.174 128.898-72.072 273.438-176.958 359.406C906.79-66.54 681.628-97.662 554.818 30.714c-92.34 93.492-100.026 242.856-70.398 370.872 29.628 128.016 90.054 247.698 115.218 376.668 42.03 215.46-17.046 441.558 28.404 656.316 55.062 260.154 274.59 477.738 535.212 530.46 199.8 40.428 405.558-9.504 603.27-59.148 148.644-37.332 297.288-74.646 446.004-111.996 170.712-42.858 347.328-118.548 478.746-238.212 70.146-63.864 131.922-139.518 162.126-231.048 46.278-141.48-6.282-184.95 95.94-293.004 76.95-81.342 147.798-92.898 170.334-218.7 31.842-177.588-85.59-367.56-124.578-535.842-68.22-294.498-33.534-762.444-462.618-761.652z"/></g><g><path fill="none" stroke="#ff9e16" stroke-miterlimit="20" stroke-width="3.12" d="M2512.988-465.072c-162.72.306-324.864 98.784-480.528 51.426C1804.472-483 1699.28-834 1462.688-805.362c-134.64 16.29-216.702 155.61-258.876 284.508-42.174 128.898-72.072 273.438-176.958 359.406C887.3-47.04 662.138-78.162 535.328 50.214c-92.34 93.492-100.026 242.856-70.398 370.872 29.628 128.016 90.054 247.698 115.218 376.668 42.03 215.46-17.046 441.558 28.404 656.316 55.062 260.154 274.59 477.738 535.212 530.46 199.8 40.428 405.558-9.504 603.27-59.148 148.644-37.332 297.288-74.646 446.004-111.996 170.712-42.858 347.328-118.548 478.746-238.212 70.146-63.864 131.922-139.518 162.126-231.048 46.278-141.48-6.282-184.95 95.94-293.004 76.95-81.342 147.798-92.898 170.334-218.7 31.842-177.588-85.59-367.56-124.578-535.842-68.22-294.498-33.552-762.444-462.618-761.652z"/></g><g><path fill="none" stroke="#ff9e16" stroke-miterlimit="20" stroke-width="3.06" d="M2493.488-445.562c-162.72.306-324.864 98.784-480.528 51.426-227.988-69.354-333.18-420.354-569.772-391.716-134.64 16.29-216.702 155.61-258.876 284.508-42.174 128.898-72.09 273.438-176.958 359.406C867.8-27.53 642.638-58.652 515.828 69.724c-92.34 93.492-100.026 242.856-70.398 370.872 29.628 128.016 90.054 247.698 115.218 376.668 42.03 215.46-17.046 441.558 28.404 656.316 55.062 260.154 274.59 477.738 535.212 530.46 199.8 40.428 405.558-9.504 603.27-59.148 148.644-37.332 297.288-74.646 446.004-111.996 170.712-42.858 347.328-118.548 478.746-238.212 70.146-63.864 131.922-139.518 162.126-231.048 46.278-141.48-6.282-184.95 95.94-293.004 76.95-81.342 147.798-92.898 170.334-218.7 31.842-177.588-85.59-367.56-124.578-535.842-68.238-294.498-33.552-762.426-462.618-761.652z"/></g><g><path fill="none" stroke="#ff9e16" stroke-miterlimit="20" stroke-width="3" d="M2473.978-426.072c-162.72.306-324.864 98.784-480.528 51.426C1765.462-444 1660.27-795 1423.678-766.362c-134.64 16.29-216.702 155.61-258.876 284.508-42.174 128.898-72.072 273.438-176.958 359.406C848.29-8.04 623.128-39.162 496.318 89.214c-92.34 93.492-100.026 242.856-70.398 370.872 29.628 128.016 90.054 247.698 115.218 376.668 42.03 215.46-17.046 441.558 28.404 656.316 55.062 260.154 274.59 477.738 535.212 530.46 199.8 40.428 405.558-9.504 603.27-59.148 148.644-37.332 297.288-74.646 446.004-111.996 170.712-42.858 347.328-118.548 478.746-238.212 70.146-63.864 131.922-139.518 162.126-231.048 46.278-141.48-6.282-184.95 95.94-293.004 76.95-81.342 147.798-92.898 170.334-218.7 31.842-177.588-85.59-367.56-124.578-535.842-68.22-294.498-33.534-762.444-462.618-761.652z"/></g><g><path fill="none" stroke="#ff9e16" stroke-miterlimit="20" stroke-width="2.93" d="M2454.488-406.572c-162.72.306-324.864 98.784-480.528 51.426-227.988-69.354-333.18-420.354-569.772-391.716-134.64 16.29-216.702 155.61-258.876 284.508-42.174 128.898-72.072 273.438-176.958 359.406C828.8 11.46 603.638-19.662 476.828 108.714c-92.34 93.492-100.026 242.856-70.398 370.872 29.628 128.016 90.054 247.698 115.218 376.668 42.03 215.46-17.046 441.558 28.404 656.316 55.062 260.154 274.59 477.738 535.212 530.46 199.8 40.428 405.558-9.504 603.27-59.148 148.644-37.332 297.288-74.646 446.004-111.996 170.712-42.858 347.328-118.548 478.746-238.212 70.146-63.864 131.922-139.518 162.126-231.048 46.278-141.48-6.282-184.95 95.94-293.004 76.95-81.342 147.798-92.898 170.334-218.7 31.842-177.588-85.59-367.56-124.578-535.842-68.22-294.498-33.552-762.444-462.618-761.652z"/></g><g><path fill="none" stroke="#ff9e16" stroke-miterlimit="20" stroke-width="2.87" d="M2434.988-387.082c-162.72.306-324.864 98.784-480.528 51.426-227.988-69.354-333.18-420.354-569.772-391.716-134.64 16.29-216.702 155.61-258.876 284.508-42.174 128.898-72.072 273.438-176.958 359.406C809.3 30.95 584.138-.172 457.328 128.204c-92.34 93.492-100.026 242.856-70.398 370.872 29.628 128.016 90.054 247.698 115.218 376.668 42.03 215.46-17.046 441.558 28.404 656.316 55.062 260.154 274.59 477.738 535.212 530.46 199.8 40.428 405.558-9.504 603.27-59.148 148.644-37.332 297.288-74.646 446.004-111.996 170.712-42.858 347.328-118.548 478.746-238.212 70.146-63.864 131.922-139.518 162.126-231.048 46.278-141.48-6.282-184.95 95.94-293.004 76.95-81.342 147.798-92.898 170.334-218.7 31.842-177.588-85.59-367.56-124.578-535.842-68.22-294.516-33.552-762.444-462.618-761.652z"/></g><g><path fill="none" stroke="#ff9e16" stroke-miterlimit="20" stroke-width="2.8" d="M2415.478-367.572c-162.72.306-324.864 98.784-480.528 51.426-227.988-69.354-333.18-420.354-569.772-391.716-134.64 16.29-216.702 155.61-258.876 284.508-42.174 128.898-72.072 273.438-176.958 359.406C789.79 50.46 564.628 19.338 437.818 147.714c-92.34 93.492-100.026 242.856-70.398 370.872 29.628 128.016 90.054 247.698 115.218 376.668 42.03 215.46-17.046 441.558 28.404 656.316 55.062 260.154 274.59 477.738 535.212 530.46 199.8 40.428 405.558-9.504 603.27-59.148 148.644-37.332 297.288-74.646 446.004-111.996 170.712-42.858 347.328-118.548 478.746-238.212 70.146-63.864 131.922-139.518 162.126-231.048 46.278-141.48-6.282-184.95 95.94-293.004 76.95-81.342 147.798-92.898 170.334-218.7 31.842-177.588-85.59-367.56-124.578-535.842-68.22-294.498-33.534-762.426-462.618-761.652z"/></g><g><path fill="none" stroke="#ff9e16" stroke-miterlimit="20" stroke-width="2.74" d="M2395.988-348.072c-162.72.306-324.864 98.784-480.528 51.426C1687.472-366 1582.28-717 1345.688-688.362c-134.64 16.29-216.702 155.61-258.876 284.508-42.174 128.898-72.072 273.438-176.958 359.406C770.3 69.96 545.138 38.838 418.328 167.214c-92.34 93.492-100.026 242.856-70.398 370.872 29.628 128.016 90.054 247.698 115.218 376.668 42.03 215.46-17.046 441.558 28.404 656.316 55.062 260.154 274.59 477.738 535.212 530.46 199.8 40.428 405.558-9.504 603.27-59.148 148.644-37.332 297.288-74.646 446.004-111.996 170.712-42.858 347.328-118.548 478.746-238.212 70.146-63.864 131.922-139.518 162.126-231.048 46.278-141.48-6.282-184.95 95.94-293.004 76.95-81.342 147.798-92.898 170.334-218.7 31.842-177.588-85.59-367.56-124.578-535.842-68.22-294.498-33.534-762.444-462.618-761.652z"/></g><g><path fill="none" stroke="#ff9e16" stroke-miterlimit="20" stroke-width="2.67" d="M2376.488-328.582c-162.72.306-324.864 98.784-480.528 51.426-227.988-69.354-333.18-420.354-569.772-391.716-134.64 16.29-216.702 155.61-258.876 284.508-42.174 128.898-72.072 273.438-176.958 359.406C750.8 89.45 525.638 58.328 398.828 186.704c-92.34 93.492-100.026 242.856-70.398 370.872 29.628 128.016 90.054 247.698 115.218 376.668 42.03 215.46-17.046 441.558 28.404 656.316 55.062 260.154 274.59 477.738 535.212 530.46 199.8 40.428 405.558-9.486 603.27-59.148 148.644-37.332 297.288-74.646 446.004-111.996 170.712-42.858 347.328-118.548 478.746-238.212 70.146-63.864 131.922-139.518 162.126-231.048 46.278-141.48-6.282-184.95 95.94-293.004 76.95-81.342 147.798-92.898 170.334-218.7 31.842-177.588-85.59-367.56-124.578-535.842-68.22-294.498-33.552-762.444-462.618-761.652z"/></g><g><path fill="none" stroke="#ff9e16" stroke-miterlimit="20" stroke-width="2.61" d="M2356.998-309.072c-162.72.306-324.864 98.784-480.528 51.426C1648.482-327 1543.29-678 1306.698-649.362c-134.64 16.29-216.702 155.61-258.876 284.508C1005.648-235.956 975.75-91.416 870.864-5.448 731.31 108.96 506.148 77.838 379.338 206.214c-92.34 93.492-100.026 242.856-70.398 370.872 29.628 128.016 90.054 247.698 115.218 376.668 42.03 215.46-17.046 441.558 28.404 656.316 55.062 260.154 274.59 477.738 535.212 530.46 199.8 40.428 405.558-9.504 603.27-59.148 148.644-37.332 297.288-74.646 446.004-111.996 170.712-42.858 347.328-118.548 478.746-238.212 70.146-63.864 131.922-139.518 162.126-231.048 46.278-141.48-6.282-184.95 95.94-293.004 76.95-81.342 147.798-92.898 170.334-218.7 31.842-177.588-85.59-367.56-124.578-535.842-68.238-294.498-33.552-762.426-462.618-761.652z"/></g><g><path fill="none" stroke="#ff9e16" stroke-miterlimit="20" stroke-width="2.54" d="M2337.488-289.572c-162.72.306-324.864 98.784-480.528 51.426-227.988-69.354-333.18-420.354-569.772-391.716-134.64 16.29-216.702 155.61-258.876 284.508C986.138-216.456 956.24-71.916 851.354 14.052 711.8 128.46 486.638 97.338 359.828 225.714c-92.34 93.492-100.026 242.856-70.398 370.872 29.628 128.016 90.054 247.698 115.218 376.668 42.03 215.46-17.046 441.558 28.404 656.316 55.062 260.154 274.59 477.738 535.212 530.46 199.8 40.428 405.558-9.504 603.27-59.148 148.644-37.332 297.288-74.646 446.004-111.996 170.712-42.858 347.328-118.548 478.746-238.212 70.146-63.864 131.922-139.518 162.126-231.048 46.278-141.48-6.282-184.95 95.94-293.004 76.95-81.342 147.798-92.898 170.334-218.7 31.842-177.588-85.59-367.56-124.578-535.842-68.22-294.498-33.534-762.444-462.618-761.652z"/></g><g><path fill="none" stroke="#ff9e16" stroke-miterlimit="20" stroke-width="2.48" d="M2317.988-270.082c-162.72.306-324.864 98.784-480.528 51.426-227.988-69.354-333.18-420.354-569.772-391.716-134.64 16.29-216.702 155.61-258.876 284.508C966.638-196.966 936.74-52.426 831.854 33.542 692.3 147.95 467.138 116.828 340.328 245.204c-92.34 93.492-100.026 242.856-70.398 370.872 29.628 128.016 90.054 247.698 115.218 376.668 42.03 215.46-17.046 441.558 28.404 656.316 55.062 260.154 274.59 477.738 535.212 530.46 199.8 40.428 405.558-9.504 603.27-59.148 148.644-37.332 297.288-74.646 446.004-111.996 170.712-42.858 347.328-118.548 478.746-238.212 70.146-63.864 131.922-139.518 162.126-231.048 46.278-141.48-6.282-184.95 95.94-293.004 76.95-81.342 147.798-92.898 170.334-218.7 31.842-177.588-85.59-367.56-124.578-535.842-68.22-294.498-33.552-762.444-462.618-761.652z"/></g><g><path fill="none" stroke="#ff9e16" stroke-miterlimit="20" stroke-width="2.42" d="M2298.498-250.582c-162.72.306-324.864 98.784-480.528 51.426-227.988-69.354-333.18-420.354-569.772-391.716-134.64 16.29-216.702 155.61-258.876 284.508C947.148-177.466 917.25-32.926 812.364 53.042 672.81 167.45 447.648 136.328 320.838 264.704c-92.34 93.492-100.026 242.856-70.398 370.872 29.628 128.016 90.054 247.698 115.218 376.668 42.03 215.46-17.046 441.558 28.404 656.316 55.062 260.154 274.59 477.738 535.212 530.46 199.8 40.428 405.558-9.504 603.27-59.148 148.644-37.332 297.288-74.646 446.004-111.996 170.712-42.858 347.328-118.548 478.746-238.212 70.146-63.864 131.922-139.518 162.126-231.048 46.278-141.48-6.282-184.95 95.94-293.004 76.95-81.342 147.798-92.898 170.334-218.7 31.842-177.588-85.59-367.56-124.578-535.842-68.22-294.516-33.552-762.444-462.618-761.652z"/></g><g><path fill="none" stroke="#ff9e16" stroke-miterlimit="20" stroke-width="2.35" d="M2278.988-231.072c-162.72.306-324.864 98.784-480.528 51.426C1570.472-249 1465.28-600 1228.688-571.362c-134.64 16.29-216.702 155.61-258.876 284.508C927.638-157.956 897.74-13.416 792.854 72.552 653.3 186.96 428.138 155.838 301.328 284.214c-92.34 93.492-100.026 242.856-70.398 370.872 29.628 128.016 90.054 247.698 115.218 376.668 42.03 215.46-17.046 441.558 28.404 656.316 55.062 260.154 274.59 477.738 535.212 530.46 199.8 40.428 405.558-9.504 603.27-59.148 148.644-37.332 297.288-74.646 446.004-111.996 170.712-42.858 347.328-118.548 478.746-238.212 70.146-63.864 131.922-139.518 162.126-231.048 46.278-141.48-6.282-184.95 95.94-293.004 76.95-81.342 147.798-92.898 170.334-218.7 31.842-177.588-85.59-367.56-124.578-535.842-68.22-294.498-33.534-762.426-462.618-761.652z"/></g><g><path fill="none" stroke="#ff9e16" stroke-miterlimit="20" stroke-width="2.29" d="M2259.488-211.582c-162.72.306-324.864 98.784-480.528 51.426-227.988-69.354-333.18-420.354-569.772-391.716-134.64 16.29-216.702 155.61-258.876 284.508C908.138-138.466 878.24 6.074 773.354 92.042 633.8 206.45 408.638 175.328 281.828 303.704c-92.34 93.492-100.026 242.856-70.398 370.872 29.628 128.016 90.054 247.698 115.218 376.668 42.03 215.46-17.046 441.558 28.404 656.316 55.062 260.154 274.59 477.738 535.212 530.46 199.8 40.428 405.558-9.504 603.27-59.148 148.644-37.332 297.288-74.646 446.004-111.996 170.712-42.858 347.328-118.548 478.746-238.212 70.146-63.864 131.922-139.518 162.126-231.048 46.278-141.48-6.282-184.95 95.94-293.004 76.95-81.342 147.798-92.898 170.334-218.7 31.842-177.588-85.59-367.56-124.578-535.842-68.22-294.498-33.552-762.444-462.618-761.652z"/></g><g><path fill="none" stroke="#ff9e16" stroke-miterlimit="20" stroke-width="2.22" d="M2239.998-192.082c-162.72.306-324.864 98.784-480.528 51.426-227.988-69.354-333.18-420.354-569.772-391.716-134.64 16.29-216.702 155.61-258.876 284.508-42.174 128.898-72.072 273.438-176.958 359.406C614.31 225.95 389.148 194.828 262.338 323.204c-92.34 93.492-100.026 242.856-70.398 370.872 29.628 128.016 90.054 247.698 115.218 376.668 42.03 215.46-17.046 441.558 28.404 656.316 55.062 260.154 274.59 477.738 535.212 530.46 199.8 40.428 405.558-9.504 603.27-59.148 148.644-37.332 297.288-74.646 446.004-111.996 170.712-42.858 347.328-118.548 478.746-238.212 70.146-63.864 131.922-139.518 162.126-231.048 46.278-141.48-6.282-184.95 95.94-293.004 76.95-81.342 147.798-92.898 170.334-218.7 31.842-177.588-85.59-367.56-124.578-535.842-68.22-294.498-33.552-762.444-462.618-761.652z"/></g><g><path fill="none" stroke="#ff9e16" stroke-miterlimit="20" stroke-width="2.16" d="M2220.508-172.572c-162.72.306-324.864 98.784-480.528 51.426C1511.992-190.5 1406.8-541.5 1170.208-512.862c-134.64 16.29-216.702 155.61-258.876 284.508C869.158-99.456 839.26 45.084 734.374 131.052 594.82 245.46 369.658 214.338 242.848 342.714c-92.34 93.492-100.026 242.856-70.398 370.872 29.628 128.016 90.054 247.698 115.218 376.668 42.03 215.46-17.046 441.558 28.404 656.316 55.062 260.154 274.59 477.738 535.212 530.46 199.8 40.428 405.558-9.504 603.27-59.148 148.644-37.332 297.288-74.646 446.004-111.996 170.712-42.858 347.328-118.548 478.746-238.212 70.146-63.864 131.922-139.518 162.126-231.048 46.278-141.48-6.282-184.95 95.94-293.004 76.95-81.342 147.798-92.898 170.334-218.7 31.842-177.588-85.59-367.56-124.578-535.842-68.238-294.498-33.552-762.426-462.618-761.652z"/></g><g><path fill="none" stroke="#ff9e16" stroke-miterlimit="20" stroke-width="2.09" d="M2200.988-153.082c-162.72.306-324.864 98.784-480.528 51.426-227.988-69.354-333.18-420.354-569.772-391.716-134.64 16.29-216.702 155.61-258.876 284.508C849.638-79.966 819.74 64.574 714.854 150.542 575.3 264.95 350.138 233.828 223.328 362.204c-92.34 93.492-100.026 242.856-70.398 370.872 29.628 128.016 90.054 247.698 115.218 376.668 42.03 215.46-17.046 441.558 28.404 656.316 55.044 260.136 274.572 477.72 535.212 530.46 199.8 40.428 405.558-9.504 603.27-59.148 148.644-37.332 297.288-74.646 446.004-111.996 170.712-42.858 347.328-118.548 478.746-238.212 70.146-63.864 131.922-139.518 162.126-231.048 46.278-141.48-6.282-184.95 95.94-293.004 76.95-81.342 147.798-92.898 170.334-218.7 31.842-177.588-85.59-367.56-124.578-535.842-68.22-294.498-33.534-762.444-462.618-761.652z"/></g><g><path fill="none" stroke="#ff9e16" stroke-miterlimit="20" stroke-width="2.03" d="M2181.498-133.582c-162.72.306-324.864 98.784-480.528 51.426-227.988-69.354-333.18-420.354-569.772-391.716-134.64 16.29-216.702 155.61-258.876 284.508C830.148-60.466 800.25 84.074 695.364 170.042 555.81 284.45 330.648 253.328 203.838 381.704c-92.34 93.492-100.026 242.856-70.398 370.872 29.628 128.016 90.054 247.698 115.218 376.668 42.03 215.46-17.046 441.558 28.404 656.316 55.062 260.154 274.59 477.738 535.212 530.46 199.8 40.428 405.558-9.504 603.27-59.148 148.644-37.332 297.288-74.646 446.004-111.996 170.712-42.858 347.328-118.548 478.746-238.212 70.146-63.864 131.922-139.518 162.126-231.048 46.278-141.48-6.282-184.95 95.94-293.004 76.95-81.342 147.78-92.898 170.334-218.7 31.842-177.588-85.59-367.56-124.578-535.842-68.22-294.498-33.552-762.444-462.618-761.652z"/></g><g><path fill="none" stroke="#ff9e16" stroke-miterlimit="20" stroke-width="1.96" d="M2162.008-114.072c-162.72.306-324.864 98.784-480.528 51.426C1453.492-132 1348.3-483 1111.708-454.362c-134.64 16.29-216.702 155.61-258.876 284.508-42.174 128.898-72.072 273.438-176.958 359.406C536.32 303.96 311.158 272.838 184.348 401.214 92.008 494.706 84.322 644.07 113.95 772.086c29.628 128.016 90.054 247.698 115.218 376.668 42.03 215.46-17.046 441.558 28.404 656.316 55.062 260.154 274.59 477.738 535.212 530.46 199.8 40.428 405.558-9.504 603.27-59.148 148.644-37.332 297.288-74.646 446.004-111.996 170.712-42.858 347.328-118.548 478.746-238.212 70.146-63.864 131.922-139.518 162.126-231.048 46.278-141.48-6.282-184.95 95.94-293.004 76.95-81.342 147.798-92.898 170.334-218.7 31.842-177.588-85.59-367.56-124.578-535.842-68.238-294.498-33.552-762.426-462.618-761.652z"/></g><g><path fill="none" stroke="#ff9e16" stroke-miterlimit="20" stroke-width="1.9" d="M2142.488-94.582c-162.72.306-324.864 98.784-480.528 51.426-227.988-69.354-333.18-420.354-569.772-391.716-134.64 16.29-216.702 155.61-258.876 284.508-42.174 128.898-72.072 273.438-176.958 359.406C516.8 323.45 291.638 292.328 164.828 420.704 72.488 514.196 64.802 663.56 94.43 791.576c29.628 128.016 90.054 247.698 115.218 376.668 42.03 215.46-17.046 441.558 28.404 656.316 55.062 260.154 274.59 477.738 535.212 530.46 199.8 40.428 405.558-9.504 603.27-59.148 148.644-37.332 297.288-74.646 446.004-111.996 170.712-42.858 347.328-118.548 478.746-238.212 70.146-63.864 131.922-139.518 162.126-231.048 46.278-141.48-6.282-184.95 95.94-293.004 76.95-81.342 147.798-92.898 170.334-218.7 31.842-177.588-85.59-367.56-124.578-535.842-68.22-294.498-33.534-762.444-462.618-761.652z"/></g><g><path fill="none" stroke="#ff9e16" stroke-miterlimit="20" stroke-width="1.84" d="M2122.998-75.082c-162.72.306-324.864 98.784-480.528 51.426-227.988-69.354-333.18-420.354-569.772-391.716-134.64 16.29-216.702 155.61-258.876 284.508C771.648-1.966 741.75 142.574 636.864 228.542 497.31 342.95 272.148 311.828 145.338 440.204 52.998 533.696 45.312 683.06 74.94 811.076c29.628 128.016 90.054 247.698 115.218 376.668 42.03 215.46-17.046 441.558 28.404 656.316 55.062 260.154 274.59 477.738 535.212 530.46 199.8 40.428 405.558-9.504 603.27-59.148 148.644-37.332 297.288-74.646 446.004-111.996 170.712-42.858 347.328-118.548 478.746-238.212 70.146-63.864 131.922-139.518 162.126-231.048 46.278-141.48-6.282-184.95 95.94-293.004 76.95-81.342 147.798-92.898 170.334-218.7 31.842-177.588-85.59-367.56-124.578-535.842-68.22-294.498-33.552-762.444-462.618-761.652z"/></g><g><path fill="none" stroke="#ff9e16" stroke-miterlimit="20" stroke-width="1.77" d="M2103.508-55.592c-162.72.306-324.864 98.784-480.528 51.426-227.988-69.354-333.18-420.354-569.772-391.716-134.64 16.29-216.702 155.61-258.876 284.508-42.174 128.898-72.072 273.438-176.958 359.406C477.82 362.44 252.658 331.318 125.848 459.694 33.508 553.186 25.822 702.55 55.45 830.566c29.628 128.016 90.054 247.698 115.218 376.668 42.03 215.46-17.046 441.558 28.404 656.316 55.062 260.154 274.59 477.738 535.212 530.46 199.8 40.428 405.558-9.504 603.27-59.148 148.644-37.332 297.288-74.646 446.004-111.996 170.712-42.858 347.328-118.548 478.746-238.212 70.146-63.864 131.922-139.518 162.126-231.048 46.278-141.48-6.282-184.95 95.94-293.004 76.95-81.342 147.798-92.898 170.334-218.7 31.842-177.588-85.59-367.56-124.578-535.842-68.22-294.516-33.552-762.444-462.618-761.652z"/></g><g><path fill="none" stroke="#ff9e16" stroke-miterlimit="20" stroke-width="1.71" d="M2083.988-36.082c-162.72.306-324.864 98.784-480.528 51.426-227.988-69.354-333.18-420.354-569.772-391.716-134.64 16.29-216.702 155.61-258.876 284.508-42.174 128.898-72.072 273.438-176.958 359.406C458.3 381.95 233.138 350.828 106.328 479.204 13.988 572.696 6.302 722.06 35.93 850.076c29.628 128.016 90.054 247.698 115.218 376.668 42.03 215.46-17.046 441.558 28.404 656.316 55.044 260.154 274.572 477.738 535.212 530.46 199.8 40.428 405.558-9.504 603.27-59.148 148.644-37.332 297.288-74.646 446.004-111.996 170.712-42.858 347.328-118.548 478.746-238.212 70.146-63.864 131.922-139.518 162.126-231.048 46.278-141.48-6.282-184.95 95.94-293.004 76.95-81.342 147.798-92.898 170.334-218.7 31.842-177.588-85.59-367.56-124.578-535.842-68.22-294.498-33.534-762.426-462.618-761.652z"/></g><g><path fill="none" stroke="#ff9e16" stroke-miterlimit="20" stroke-width="1.64" d="M2064.498-16.582c-162.72.306-324.864 98.784-480.528 51.426-227.988-69.354-333.18-420.354-569.772-391.716-134.64 16.29-216.702 155.61-258.876 284.508-42.174 128.898-72.072 273.438-176.958 359.406C438.81 401.45 213.648 370.328 86.838 498.704-5.502 592.196-13.188 741.56 16.44 869.576c29.628 128.016 90.054 247.698 115.218 376.668 42.03 215.46-17.046 441.558 28.404 656.316 55.062 260.154 274.59 477.738 535.212 530.46 199.8 40.428 405.558-9.504 603.27-59.148 148.644-37.332 297.288-74.646 446.004-111.996 170.712-42.858 347.328-118.548 478.746-238.212 70.146-63.864 131.922-139.518 162.126-231.048 46.278-141.48-6.282-184.95 95.94-293.004 76.95-81.342 147.798-92.898 170.334-218.7 31.842-177.588-85.59-367.56-124.578-535.842-68.22-294.498-33.534-762.444-462.618-761.652z"/></g></g></g></svg>