<svg xmlns="http://www.w3.org/2000/svg" width="24" height="24" viewBox="0 0 24 24"><g><g><g><g><path fill="#0052b4" d="M2.4 4.54a11.57 11.57 0 0 0-2 4.04h6.041z"/></g><g><path fill="#0052b4" d="M22.821 8.58a11.571 11.571 0 0 0-2-4.04L16.78 8.58z"/></g><g><path fill="#0052b4" d="M.4 14.64a11.572 11.572 0 0 0 2 4.04l4.041-4.04H.4z"/></g><g><path fill="#0052b4" d="M18.68 2.4a11.571 11.571 0 0 0-4.04-2v6.041z"/></g><g><path fill="#0052b4" d="M4.54 20.82c1.187.913 2.555 1.6 4.04 2.001V16.78z"/></g><g><path fill="#0052b4" d="M8.58.4a11.572 11.572 0 0 0-4.04 2l4.04 4.041z"/></g><g><path fill="#0052b4" d="M14.64 22.821a11.572 11.572 0 0 0 4.04-2l-4.04-4.041z"/></g><g><path fill="#0052b4" d="M16.78 14.64l4.04 4.04a11.571 11.571 0 0 0 2.001-4.04z"/></g></g><g><g><path fill="#d80027" d="M23.128 10.098h-10v-10a11.729 11.729 0 0 0-3.03 0v10h-10a11.729 11.729 0 0 0 0 3.03h10v10a11.728 11.728 0 0 0 3.03 0v-10h10a11.728 11.728 0 0 0 0-3.03z"/></g><g><path fill="#d80027" d="M14.64 14.64l5.182 5.182c.238-.238.466-.487.683-.745l-4.437-4.437H14.64z"/></g><g><path fill="#d80027" d="M8.582 14.64L3.4 19.822c.238.238.487.466.746.683l4.436-4.437z"/></g><g><path fill="#d80027" d="M8.585 8.582L3.403 3.4c-.239.238-.466.487-.683.746l4.437 4.436h1.428z"/></g><g><path fill="#d80027" d="M14.64 8.585l5.182-5.182a11.624 11.624 0 0 0-.745-.683L14.64 7.157v1.428z"/></g></g></g></g></svg>