<svg xmlns="http://www.w3.org/2000/svg" width="23" height="23" viewBox="0 0 23 23"><g><g><g><path fill="#f0f0f0" d="M11.52 23.04c6.362 0 11.52-5.158 11.52-11.52C23.04 5.158 17.882 0 11.52 0 5.158 0 0 5.158 0 11.52c0 6.362 5.158 11.52 11.52 11.52z"/></g><g><g><path fill="#d80027" d="M11.02 11.515h12.02c0-1.04-.138-2.047-.396-3.005H11.02z"/></g><g><path fill="#d80027" d="M11.02 5.505h10.33A11.58 11.58 0 0 0 18.692 2.5H11.02z"/></g><g><path fill="#d80027" d="M11.521 23.044a11.47 11.47 0 0 0 7.171-2.504H4.35a11.47 11.47 0 0 0 7.171 2.504z"/></g><g><path fill="#d80027" d="M1.694 17.535h19.658a11.451 11.451 0 0 0 1.294-3.005H.4a11.451 11.451 0 0 0 1.294 3.005z"/></g></g><g><path fill="#0052b4" d="M9.542 2.508l.373 1.148-.977-.71-.976.71.373-1.148-.977-.709h1.207L8.938.651 9.311 1.8h1.207zm0 3.35l.373 1.144-.977-.707-.976.707.373-1.144-.977-.707h1.207l.373-1.144.373 1.144h1.207zm.373 4.51l-.977-.71-.976.71.373-1.148-.977-.71h1.207l.373-1.147.373 1.148h1.207l-.976.71zM5.41 5.858l.373 1.144-.977-.707-.976.707.373-1.144-.977-.707h1.207l.373-1.144.373 1.144h1.207zm.373 4.51l-.977-.71-.976.71.373-1.148-.977-.71h1.207l.373-1.147.373 1.148h1.207l-.976.71zm-.447-8.569h1.05l-.976.71.373 1.147-.977-.71-.976.71.322-.991a11.583 11.583 0 0 0-2.234 2.49h.336l-.622.451c-.097.162-.19.326-.278.493l.296.913-.553-.402C.959 6.9.833 7.2.72 7.504l.327 1.007h1.207l-.977.71.373 1.147-.976-.71-.585.426c-.058.47-.089.95-.089 1.436h11.52V0C9.244 0 7.123.66 5.336 1.799z"/></g></g></g></svg>