<svg xmlns="http://www.w3.org/2000/svg" width="32" height="25" viewBox="0 0 32 25"><g><g><path fill="#e73629" d="M32 2.17c-1.424.409-2.77.975-4.036 1.698-1.266.723-2.358 1.564-3.276 2.524a12.246 12.246 0 0 0-2.184 3.09c-.538 1.1-.807 2.232-.807 3.395 0 .692.135 1.298.404 1.816.269.52.61.779 1.02.779.412 0 .752-.079 1.021-.236.27-.157.539-.33.808-.519a5.34 5.34 0 0 1 .95-.519c.363-.157.846-.236 1.447-.236.633 0 1.227.134 1.78.401a4.77 4.77 0 0 1 1.472 1.109 5.353 5.353 0 0 1 1.021 1.698c.253.66.38 1.368.38 2.122a5.16 5.16 0 0 1-.499 2.265 5.452 5.452 0 0 1-1.376 1.792 6.845 6.845 0 0 1-2.066 1.203 7.064 7.064 0 0 1-2.516.448 7.082 7.082 0 0 1-3.276-.778 8.603 8.603 0 0 1-2.659-2.123 10.455 10.455 0 0 1-1.804-3.113c-.443-1.18-.665-2.445-.665-3.797 0-2.139.404-4.104 1.211-5.897A15.334 15.334 0 0 1 21.602 4.6a16.056 16.056 0 0 1 4.724-3.207A16.252 16.252 0 0 1 32 0zm-17.14 0c-1.455.409-2.809.975-4.059 1.698a15.066 15.066 0 0 0-3.276 2.524c-.934.959-1.67 1.988-2.207 3.09-.539 1.1-.808 2.232-.808 3.395 0 .692.143 1.298.428 1.816.285.52.617.779.997.779.411 0 .751-.079 1.02-.236.27-.157.546-.33.831-.519.285-.189.61-.362.974-.519.364-.157.846-.236 1.448-.236.633 0 1.226.134 1.78.401a4.77 4.77 0 0 1 1.472 1.109 5.353 5.353 0 0 1 1.02 1.698c.254.66.38 1.368.38 2.122 0 .818-.174 1.573-.522 2.265a5.745 5.745 0 0 1-1.4 1.792 6.917 6.917 0 0 1-2.042 1.203A6.874 6.874 0 0 1 8.404 25a7.082 7.082 0 0 1-3.276-.778 8.603 8.603 0 0 1-2.66-2.123 10.455 10.455 0 0 1-1.803-3.113C.222 17.806 0 16.54 0 15.189c0-2.139.404-4.104 1.21-5.897A15.545 15.545 0 0 1 4.44 4.6a15.654 15.654 0 0 1 4.723-3.207A16.467 16.467 0 0 1 14.861 0z"/></g></g></svg>