<svg xmlns="http://www.w3.org/2000/svg" width="24" height="24" viewBox="0 0 24 24"><defs><clipPath id="vpaqa"><path fill="#fff" d="M12 24c6.627 0 12-5.373 12-12S18.627 0 12 0 0 5.373 0 12s5.373 12 12 12z"/></clipPath></defs><g><g><g><path fill="#f0f0f0" d="M12 24c6.627 0 12-5.373 12-12S18.627 0 12 0 0 5.373 0 12s5.373 12 12 12z"/><path fill="none" stroke="#000" stroke-miterlimit="20" stroke-width="2" d="M12 24c6.627 0 12-5.373 12-12S18.627 0 12 0 0 5.373 0 12s5.373 12 12 12z" clip-path="url(&quot;#vpaqa&quot;)"/></g><g><path fill="#d80027" d="M11.997 17.215a5.217 5.217 0 1 0 0-10.435 5.217 5.217 0 0 0 0 10.435z"/></g></g></g></svg>