<svg xmlns="http://www.w3.org/2000/svg" width="375" height="490" viewBox="0 0 375 490" preserveAspectRatio="none"><g><g clip-path="url(#clip-3F156674-C991-4E5C-8CDC-23655938CB0D)" transform="matrix(1 0 0 -1 0 -557)"><g><path fill="none" stroke="#e73629" stroke-miterlimit="20" stroke-width=".7" d="M611.86-284.297c2.525-5.303 2.928-6.927-.085-11.973-3.018-5.046-4.558-5.326-10.102-5.062-5.544.263-7.05.683-9.576 5.992-2.526 5.303-1.966 6.882 1.047 11.928 3.018 5.045 4.183 4.575 9.587 5.975 5.505 1.422 6.603-1.557 9.128-6.86z"/></g><g><path fill="none" stroke="#e73629" stroke-miterlimit="20" stroke-width=".7" d="M612.401-283.804c3.04-5.163 3.573-6.765.588-11.961-2.985-5.197-4.648-5.556-10.68-5.584-6.03-.028-7.693.314-10.734 5.483-3.041 5.163-2.526 6.77.459 11.967 2.985 5.197 4.278 4.788 10.063 6.468 5.903 1.714 7.263-1.204 10.304-6.373z"/></g><g><path fill="none" stroke="#e73629" stroke-miterlimit="20" stroke-width=".7" d="M612.97-283.277c3.596-5 4.268-6.568 1.316-11.91-2.945-5.343-4.726-5.791-11.272-6.138-6.547-.348-8.367-.09-11.968 4.91-3.595 5.002-3.13 6.631-.184 11.974 2.945 5.342 4.373 5 10.556 6.988 6.31 2.022 7.957-.823 11.552-5.824z"/></g><g><path fill="none" stroke="#e73629" stroke-miterlimit="20" stroke-width=".7" d="M613.549-282.72c4.188-4.805 5-6.34 2.105-11.828-2.895-5.493-4.805-6.03-11.889-6.714-7.084-.689-9.077-.526-13.266 4.278-4.189 4.805-3.774 6.457-.88 11.95 2.896 5.494 4.464 5.226 11.06 7.533 6.732 2.335 8.68-.415 12.87-5.22z"/></g><g><path fill="none" stroke="#e73629" stroke-miterlimit="20" stroke-width=".7" d="M614.15-282.144c4.821-4.58 5.79-6.064 2.962-11.704-2.828-5.633-4.872-6.272-12.522-7.33-7.65-1.058-9.822-1.002-14.644 3.578-4.821 4.581-4.463 6.25-1.635 11.884 2.828 5.633 4.547 5.448 11.581 8.097 7.168 2.7 9.436.05 14.258-4.525z"/></g><g><path fill="none" stroke="#e73629" stroke-miterlimit="20" stroke-width=".7" d="M614.771-281.535c5.494-4.317 6.63-5.756 3.88-11.53-2.749-5.774-4.927-6.518-13.17-7.974-8.244-1.456-10.607-1.512-16.1 2.805-5.494 4.318-5.203 6.009-2.448 11.783 2.75 5.773 4.626 5.684 12.108 8.69 7.627 3.075 10.242.55 15.73-3.774z"/></g><g><path fill="none" stroke="#e73629" stroke-miterlimit="20" stroke-width=".7" d="M615.404-280.887c6.205-4.026 7.526-5.398 4.866-11.312s-4.978-6.77-13.843-8.652c-8.865-1.887-11.43-2.066-17.634 1.96-6.205 4.026-5.987 5.729-3.327 11.637 2.66 5.913 4.699 5.913 12.65 9.313 8.098 3.466 11.083 1.086 17.288-2.946z"/></g><g><path fill="none" stroke="#e73629" stroke-miterlimit="20" stroke-width=".7" d="M616.057-280.212c6.966-3.696 8.478-5 5.925-11.043-2.548-6.043-5.018-7.023-14.538-9.369-9.514-2.346-12.286-2.66-19.253 1.036-6.966 3.696-6.826 5.404-4.273 11.446 2.548 6.043 4.76 6.155 13.2 9.963 8.601 3.892 11.972 1.663 18.939-2.033z"/></g><g><path fill="none" stroke="#e73629" stroke-miterlimit="20" stroke-width=".7" d="M616.733-279.494c7.773-3.327 9.486-4.547 7.062-10.719-2.425-6.17-5.052-7.274-15.25-10.113-10.197-2.84-13.187-3.304-20.96.022-7.773 3.327-7.717 5.04-5.292 11.211 2.425 6.172 4.816 6.396 13.76 10.64 9.116 4.335 12.907 2.285 20.68-1.041z"/></g><g><path fill="none" stroke="#e73629" stroke-miterlimit="20" stroke-width=".7" d="M617.417-278.755c8.624-2.918 10.556-4.049 8.277-10.332-2.28-6.289-5.068-7.527-15.971-10.898-10.904-3.371-14.124-3.987-22.753-1.07-8.63 2.918-8.663 4.632-6.384 10.92 2.279 6.29 4.866 6.637 14.33 11.346 9.643 4.794 13.871 2.951 22.501.034z"/></g><g><path fill="none" stroke="#e73629" stroke-miterlimit="20" stroke-width=".7" d="M618.131-277.97c9.532-2.458 11.688-3.489 9.57-9.884-2.116-6.395-5.073-7.784-16.72-11.72-11.649-3.937-15.104-4.721-24.635-2.263-9.531 2.458-9.666 4.172-7.55 10.567 2.118 6.395 4.907 6.882 14.914 12.08 10.197 5.297 14.89 3.679 24.421 1.22z"/></g><g><path fill="none" stroke="#e73629" stroke-miterlimit="20" stroke-width=".7" d="M618.849-277.157c10.483-1.96 12.885-2.872 10.948-9.368-1.932-6.502-5.063-8.036-17.483-12.578-12.416-4.542-16.128-5.505-26.612-3.545-10.483 1.96-10.73 3.663-8.797 10.159 1.932 6.501 4.933 7.128 15.5 12.846 10.775 5.818 15.96 4.446 26.444 2.486z"/></g><g><path fill="none" stroke="#e73629" stroke-miterlimit="20" stroke-width=".7" d="M619.585-276.305c11.491-1.405 14.146-2.195 12.421-8.786-1.725-6.591-5.04-8.294-18.262-13.474-13.221-5.185-17.192-6.339-28.683-4.933-11.491 1.405-11.855 3.09-10.125 9.682 1.73 6.591 4.95 7.38 16.095 13.642 11.351 6.378 17.063 5.275 28.554 3.87z"/></g><g><path fill="none" stroke="#e73629" stroke-miterlimit="20" stroke-width=".7" d="M620.33-275.415c12.554-.801 15.483-1.45 13.977-8.12-1.507-6.67-5.001-8.546-19.051-14.415-14.056-5.869-18.301-7.235-30.856-6.429-12.556.801-13.043 2.47-11.542 9.14 1.5 6.675 4.95 7.627 16.694 14.464 11.961 6.961 18.222 6.166 30.777 5.36z"/></g><g><path fill="none" stroke="#e73629" stroke-miterlimit="20" stroke-width=".7" d="M621.095-274.485c13.67-.146 16.89-.639 15.636-7.381-1.25-6.743-4.94-8.792-19.864-15.389-14.924-6.597-19.454-8.182-33.124-8.036-13.67.146-14.296 1.78-13.048 8.523 1.25 6.743 4.94 7.88 17.299 15.316 12.589 7.583 19.432 7.112 33.101 6.967z"/></g><g><path fill="none" stroke="#e73629" stroke-miterlimit="20" stroke-width=".7" d="M621.875-273.523c14.846.572 18.368.247 17.394-6.552-.974-6.798-4.86-9.038-20.686-16.408-15.826-7.37-20.653-9.19-35.499-9.76-14.845-.572-15.624 1.03-14.65 7.828.975 6.799 4.917 8.126 17.904 16.201 13.238 8.232 20.692 8.12 35.537 8.691z"/></g><g><path fill="none" stroke="#e73629" stroke-miterlimit="20" stroke-width=".7" d="M622.663-272.514c16.083 1.35 19.925 1.21 19.253-5.633-.672-6.838-4.76-9.28-21.521-17.467-16.76-8.187-21.896-10.253-37.98-11.603-16.082-1.35-17.012.213-16.346 7.05.672 6.838 4.872 8.373 18.514 17.114 13.9 8.915 21.991 9.19 38.08 10.54z"/></g><g><path fill="none" stroke="#e73629" stroke-miterlimit="20" stroke-width=".7" d="M623.454-271.47c17.382 2.19 21.56 2.252 21.218-4.614-.341-6.865-4.642-9.52-22.366-18.57-17.724-9.054-23.184-11.39-40.566-13.574-17.383-2.19-18.48-.677-18.144 6.188.341 6.866 4.81 8.613 19.118 18.06 14.588 9.621 23.358 10.321 40.74 12.51z"/></g><g><path fill="none" stroke="#e73629" stroke-miterlimit="20" stroke-width=".7" d="M624.27-270.386c18.743 3.097 23.273 3.377 23.296-3.5.022-6.877-4.497-9.75-23.218-19.718-18.72-9.968-24.517-12.583-43.26-15.68-18.743-3.091-20.026-1.646-20.048 5.23-.022 6.877 4.732 8.854 19.729 19.035 15.277 10.382 24.757 11.542 43.5 14.633z"/></g><g><path fill="none" stroke="#e73629" stroke-miterlimit="20" stroke-width=".7" d="M625.082-269.254c20.17 4.072 25.07 4.587 25.485-2.273.415-6.866-4.329-9.968-24.08-20.905-19.757-10.937-25.894-13.849-46.065-17.92-20.172-4.071-21.639-2.688-22.059 4.172-.414 6.866 4.637 9.089 20.328 20.042 15.994 11.156 26.22 12.813 46.39 16.884z"/></g><g><path fill="none" stroke="#e73629" stroke-miterlimit="20" stroke-width=".7" d="M625.904-268.087c21.66 5.119 26.953 5.892 27.793-.94.84-6.832-4.127-10.181-24.948-22.137-20.82-11.956-27.322-15.187-48.983-20.306-21.661-5.118-23.335-3.819-24.181 3.013-.846 6.832 4.514 9.318 20.927 21.078 16.727 11.984 27.731 14.174 49.392 19.292z"/></g><g><path fill="none" stroke="#e73629" stroke-miterlimit="20" stroke-width=".7" d="M626.725-266.885c23.223 6.25 28.918 7.297 30.223.515 1.305-6.782-3.903-10.382-25.822-23.414-21.918-13.025-28.79-16.598-52.013-22.842s-25.116-5.034-26.415 1.742c-1.299 6.781 4.368 9.542 21.515 22.148 17.467 12.846 29.288 15.601 52.512 21.85z"/></g><g><path fill="none" stroke="#e73629" stroke-miterlimit="20" stroke-width=".7" d="M627.542-265.63c24.852 7.453 30.973 8.797 32.776 2.1 1.798-6.704-3.645-10.573-26.7-24.73-23.056-14.157-30.308-18.083-55.16-25.536-24.853-7.454-26.976-6.345-28.773.358-1.798 6.703 4.2 9.761 22.097 23.24 18.234 13.743 30.912 17.114 55.76 24.567z"/></g><g><path fill="none" stroke="#e73629" stroke-miterlimit="20" stroke-width=".7" d="M628.372-264.337c26.55 8.747 33.124 10.41 35.454 3.808 2.335-6.597-3.355-10.752-27.575-26.096s-31.87-19.645-58.424-28.387c-26.55-8.747-28.919-7.745-31.254-1.148-2.335 6.597 4.004 9.968 22.663 24.366 19.018 14.677 32.581 18.71 59.136 27.457z"/></g><g><path fill="none" stroke="#e73629" stroke-miterlimit="20" stroke-width=".7" d="M629.197-263.003c28.324 10.125 35.358 12.13 38.27 5.662 2.906-6.468-3.03-10.914-28.448-27.502-25.413-16.587-33.477-21.285-61.802-31.404-28.324-10.12-30.95-9.252-33.857-2.784-2.907 6.468 3.78 10.164 23.212 25.52 19.807 15.646 34.3 20.384 62.625 30.508z"/></g><g><path fill="none" stroke="#e73629" stroke-miterlimit="20" stroke-width=".7" d="M630.015-261.634c30.167 11.592 37.694 13.96 41.216 7.655 3.522-6.306-2.671-11.054-29.31-28.952-26.645-17.898-35.13-23.005-65.296-34.597-30.168-11.592-33.068-10.853-36.596-4.547-3.523 6.306 3.528 10.343 23.744 26.7 20.608 16.66 36.075 22.154 66.242 33.74z"/></g><g><path fill="none" stroke="#e73629" stroke-miterlimit="20" stroke-width=".7" d="M630.816-260.219c32.088 13.155 40.119 15.916 44.308 9.8 4.183-6.115-2.268-11.183-30.173-30.447-27.905-19.264-36.82-24.813-68.908-37.968-32.088-13.154-35.28-12.572-39.463-6.457-4.184 6.116 3.236 10.517 24.259 27.905 21.414 17.724 37.89 24.013 69.977 37.167z"/></g><g><path fill="none" stroke="#e73629" stroke-miterlimit="20" stroke-width=".7" d="M631.616-258.762c34.082 14.818 42.644 17.993 47.533 12.107 4.889-5.885-1.826-11.284-31.018-31.987-29.193-20.703-38.556-26.706-72.638-41.518-34.082-14.818-37.576-14.404-42.47-8.518-4.89 5.886 2.917 10.668 24.74 29.137 22.244 18.821 39.772 25.961 73.853 40.78z"/></g><g><path fill="none" stroke="#e73629" stroke-miterlimit="20" stroke-width=".7" d="M632.395-257.263c36.154 16.576 45.265 20.199 50.91 14.577 5.644-5.623-1.339-11.363-31.848-33.567-30.508-22.204-40.33-28.689-76.484-45.265-36.154-16.576-39.973-16.346-45.612-10.724-5.645 5.623 2.559 10.808 25.2 30.392 23.06 19.958 41.68 28.01 77.834 44.587z"/></g><g><path fill="none" stroke="#e73629" stroke-miterlimit="20" stroke-width=".7" d="M633.154-255.73c38.298 18.447 47.986 22.54 54.432 17.226 6.445-5.32-.807-11.418-32.665-35.184-31.853-23.767-42.146-30.761-80.444-49.208-38.299-18.446-42.46-18.418-48.905-13.098-6.446 5.32 2.162 10.926 25.626 31.668 23.906 21.134 43.657 30.15 81.956 48.597z"/></g><g><path fill="none" stroke="#e73629" stroke-miterlimit="20" stroke-width=".7" d="M633.902-254.162c40.521 20.43 50.803 25.021 58.1 20.048 7.297-4.972-.23-11.446-33.455-36.848-33.224-25.401-43.999-32.922-84.52-53.35-40.522-20.43-45.036-20.614-52.338-15.642-7.297 4.973 1.725 11.027 26.012 32.968 24.752 22.355 45.68 32.396 86.2 52.824z"/></g><g><path fill="none" stroke="#e73629" stroke-miterlimit="20" stroke-width=".7" d="M634.611-252.552c42.823 22.517 53.721 27.647 61.93 23.06 8.21-4.586.404-11.44-34.215-38.544-34.62-27.104-45.887-35.18-88.71-57.703-42.823-22.523-47.712-22.943-55.922-18.356-8.204 4.586 1.25 11.099 26.36 34.283 25.592 23.62 47.734 34.737 90.557 57.26z"/></g><g><path fill="none" stroke="#e73629" stroke-miterlimit="20" stroke-width=".7" d="M635.295-250.906c45.203 24.73 56.74 30.419 65.907 26.27 9.167-4.15 1.086-11.408-34.944-40.287-36.036-28.88-47.808-37.531-93.01-62.26-45.204-24.73-50.49-25.408-59.658-21.258-9.167 4.15.723 11.15 26.662 35.616 26.443 24.925 49.84 37.19 95.043 61.919z"/></g><g><path fill="none" stroke="#e73629" stroke-miterlimit="20" stroke-width=".7" d="M635.938-249.226c47.661 27.064 59.858 33.348 70.044 29.685 10.187-3.662 1.832-11.334-35.644-42.056-37.47-30.727-49.756-39.984-97.417-67.043-47.662-27.065-53.357-28.017-63.543-24.354-10.187 3.662.145 11.172 26.919 36.96 27.277 26.275 51.985 39.743 99.64 66.808z"/></g><g><path fill="none" stroke="#e73629" stroke-miterlimit="20" stroke-width=".7" d="M636.55-247.522c50.192 29.518 63.078 36.434 74.345 33.309 11.267-3.125 2.632-11.223-36.294-43.865-38.925-32.642-51.738-42.532-101.93-72.055-50.194-29.518-56.326-30.772-67.593-27.642-11.267 3.125-.476 11.167 27.115 38.321 28.112 27.664 54.164 42.409 104.356 71.932z"/></g><g><path fill="none" stroke="#e73629" stroke-miterlimit="20" stroke-width=".7" d="M637.114-245.784c52.803 32.105 66.4 39.687 78.803 37.156 12.41-2.531 3.495-11.066-36.904-45.707-40.398-34.636-53.737-45.181-106.54-77.286-52.802-32.105-59.388-33.673-71.792-31.141-12.404 2.53-1.148 11.127 27.25 39.687 28.94 29.097 56.375 45.186 109.183 77.29z"/></g><g><path fill="none" stroke="#e73629" stroke-miterlimit="20" stroke-width=".7" d="M637.622-244.027c55.49 34.826 69.815 43.108 83.423 41.227 13.614-1.882 4.424-10.87-37.458-47.572-41.883-36.703-55.76-47.93-111.25-82.757-55.49-34.826-62.546-36.736-76.16-34.86-13.614 1.882-1.882 11.049 27.322 41.06 29.764 30.575 58.632 48.08 114.123 82.902z"/></g><g><path fill="none" stroke="#e73629" stroke-miterlimit="20" stroke-width=".7" d="M638.087-242.226c58.251 37.682 73.326 46.704 88.211 45.539 14.88-1.165 5.42-10.623-37.951-49.47-43.372-38.848-57.798-50.787-116.054-88.47-58.257-37.682-65.8-39.96-80.685-38.796-14.88 1.165-2.671 10.937 27.322 42.431 30.565 32.094 60.906 51.083 119.157 88.766z"/></g><g><path fill="none" stroke="#e73629" stroke-miterlimit="20" stroke-width=".7" d="M638.473-240.426c61.085 40.678 76.939 50.478 93.162 50.092 16.223-.387 6.485-10.327-38.383-51.386-44.867-41.065-59.852-53.743-120.937-94.421-61.085-40.679-69.155-43.35-85.372-42.97-16.218.382-3.523 10.78 27.244 43.804 31.349 33.656 63.201 54.202 124.286 94.88z"/></g><g><path fill="none" stroke="#e73629" stroke-miterlimit="20" stroke-width=".7" d="M638.806-238.593c63.991 43.82 80.646 54.432 98.274 54.897 17.63.465 7.628-9.974-38.735-53.323-46.368-43.355-61.908-56.801-125.905-100.621-63.996-43.82-72.598-46.911-90.227-47.376-17.629-.465-4.435 10.584 27.082 45.17 32.11 35.246 65.514 57.433 129.511 101.253z"/></g><g><path fill="none" stroke="#e73629" stroke-miterlimit="20" stroke-width=".7" d="M639.053-236.747c66.97 47.107 84.442 58.582 103.55 59.965 19.107 1.389 8.847-9.56-39.016-55.278-47.863-45.724-63.969-59.965-130.939-107.072s-76.132-50.646-95.24-52.03c-19.106-1.388-5.414 10.338 26.825 46.525 32.85 36.876 67.85 60.783 134.82 107.89z"/></g><g><path fill="none" stroke="#e73629" stroke-miterlimit="20" stroke-width=".7" d="M639.215-234.894c70.017 50.551 88.323 62.916 108.987 65.302 20.664 2.385 10.147-9.084-39.205-57.244-49.353-48.165-66.024-63.23-136.041-113.775-70.017-50.55-79.761-54.56-100.42-56.946-20.663-2.386-6.467 10.04 26.472 47.863 33.566 38.545 70.196 64.254 140.207 114.8z"/></g><g><path fill="none" stroke="#e73629" stroke-miterlimit="20" stroke-width=".7" d="M639.279-233.036c73.125 54.147 92.294 67.452 114.587 70.919 22.294 3.466 11.53-8.54-39.3-59.22-50.832-50.68-68.074-66.596-141.193-120.742-73.12-54.146-83.474-58.66-105.768-62.12-22.293-3.462-7.593 9.687 26.012 49.184 34.244 40.247 72.543 67.838 145.662 121.98z"/></g><g><path fill="none" stroke="#e73629" stroke-miterlimit="20" stroke-width=".7" d="M639.252-231.173c76.295 57.898 96.343 72.19 120.344 76.82 24.002 4.626 13.003-7.924-39.29-61.196-52.292-53.273-70.1-70.068-146.395-127.966-76.294-57.898-87.27-62.95-111.272-67.575-24.001-4.626-8.792 9.273 25.436 50.478 34.888 41.983 74.888 71.54 151.177 129.439z"/></g><g><path fill="none" stroke="#e73629" stroke-miterlimit="20" stroke-width=".7" d="M639.123-229.306c79.52 61.812 100.47 77.134 126.263 83.008 25.794 5.875 14.566-7.23-39.166-63.168-53.732-55.932-72.106-73.64-151.626-135.452-79.52-61.813-91.145-67.43-116.933-73.304-25.788-5.875-10.07 8.803 24.74 51.744 35.465 43.752 77.202 75.359 156.722 137.172z"/></g><g><path fill="none" stroke="#e73629" stroke-miterlimit="20" stroke-width=".7" d="M638.873-227.474c82.802 65.89 104.67 82.287 132.328 89.505 27.658 7.219 16.223-6.462-38.92-65.128-55.143-58.671-74.082-77.313-156.878-143.203-82.802-65.89-95.105-72.106-122.758-79.324-27.658-7.218-11.43 8.266 23.912 52.965 36.008 45.55 79.52 79.301 162.316 145.185z"/></g><g><path fill="none" stroke="#e73629" stroke-miterlimit="20" stroke-width=".7" d="M638.486-225.63c86.128 70.13 108.936 87.652 138.55 96.31 29.612 8.657 17.975-5.6-38.54-67.078-56.515-61.476-76.014-81.082-162.142-151.216-86.128-70.135-99.126-76.984-128.739-85.641-29.613-8.658-12.88 7.655 22.943 54.146 36.496 47.365 81.805 83.345 167.928 153.48z"/></g><g><path fill="none" stroke="#e73629" stroke-miterlimit="20" stroke-width=".7" d="M637.975-223.826c89.5 74.542 113.26 93.235 144.911 103.427 31.651 10.192 19.83-4.654-38.018-69.003-57.848-64.35-77.896-84.952-167.395-159.494-89.5-74.542-103.22-82.068-134.87-92.26-31.652-10.192-14.415 6.972 21.822 55.272 36.921 49.213 84.05 87.517 173.55 162.058z"/></g><g><path fill="none" stroke="#e73629" stroke-miterlimit="20" stroke-width=".7" d="M637.318-222.042c92.91 79.122 117.639 99.036 151.412 110.868 33.774 11.833 21.79-3.606-37.34-70.896s-79.722-88.91-172.632-168.039c-92.91-79.128-107.374-87.354-141.148-99.193-33.773-11.832-16.044 6.205 20.541 56.336 37.28 51.084 86.257 91.796 179.167 170.924z"/></g><g><path fill="none" stroke="#e73629" stroke-miterlimit="20" stroke-width=".7" d="M636.488-220.298c96.348 83.876 122.058 105.056 158.043 118.641 35.992 13.586 23.856-2.464-36.5-72.755-60.357-70.291-81.48-92.966-177.823-176.842-96.342-83.877-111.58-92.86-147.571-106.445-35.991-13.586-17.769 5.359 19.09 57.333 37.565 52.964 88.413 96.19 184.761 180.068z"/></g><g><path fill="none" stroke="#e73629" stroke-miterlimit="20" stroke-width=".7" d="M635.502-218.608c99.809 88.804 126.51 111.3 164.802 126.75 38.293 15.45 26.04-1.21-35.481-74.564-61.516-73.354-83.155-97.098-182.964-185.903-99.808-88.805-115.836-98.571-154.128-114.022-38.293-15.45-19.595 4.419 17.46 58.257 37.767 54.852 90.502 100.677 190.31 189.482z"/></g><g><path fill="none" stroke="#e73629" stroke-miterlimit="20" stroke-width=".7" d="M634.329-216.954C737.615-123.047 765.324-99.186 806.008-81.753c40.684 17.433 28.33.151-34.272-76.322-62.602-76.474-84.74-101.321-188.026-195.227-103.286-93.907-120.13-104.496-160.815-121.93-40.684-17.432-21.515 3.389 15.641 59.092 37.867 56.756 92.506 105.274 195.793 199.186z"/></g><g><path fill="none" stroke="#e73629" stroke-miterlimit="20" stroke-width=".7" d="M632.97-215.383C739.747-116.196 768.464-90.923 811.634-71.38c43.17 19.538 30.744 1.635-32.86-78.008-63.605-79.643-86.218-105.616-192.988-204.798-106.77-99.181-124.454-110.639-167.625-130.183-43.17-19.538-23.548 2.257 13.62 59.825 37.867 58.66 94.416 109.973 201.19 209.16z"/></g><g><path fill="none" stroke="#e73629" stroke-miterlimit="20" stroke-width=".7" d="M631.395-213.873C741.654-109.237 771.384-82.492 817.13-60.72c45.747 21.773 33.281 3.242-31.23-79.62-64.513-82.864-87.58-109.985-197.832-214.62-110.253-104.637-128.794-117.002-174.54-138.774-45.747-21.773-25.694 1.024 11.378 60.457 37.767 60.559 96.23 114.767 206.49 219.403z"/></g><g><path fill="none" stroke="#e73629" stroke-miterlimit="20" stroke-width=".7" d="M629.602-212.453C743.332-102.189 774.082-73.926 822.499-49.79c48.418 24.136 35.941 4.979-29.366-81.15-65.307-86.127-88.805-114.413-202.53-224.677S457.458-479.197 409.04-503.334c-48.418-24.136-27.944-.324 8.91 60.973 37.548 62.451 97.921 119.644 211.652 229.908z"/></g><g><path fill="none" stroke="#e73629" stroke-miterlimit="20" stroke-width=".7" d="M627.574-211.128C744.748-95.063 776.523-65.226 827.707-38.592c51.184 26.639 38.73 6.854-27.261-82.572-65.99-89.427-89.886-118.905-207.06-234.97-117.174-116.066-137.497-130.38-188.68-157.019-51.185-26.64-30.314-1.786 6.204 61.354 37.206 64.338 99.49 124.61 216.664 240.67z"/></g><g><path fill="none" stroke="#e73629" stroke-miterlimit="20" stroke-width=".7" d="M625.299-209.903C745.889-87.863 778.677-56.407 832.723-27.125c54.045 29.283 41.647 8.87-24.898-83.888C741.28-203.77 717.021-234.459 596.436-356.5 475.852-478.54 454.606-493.896 400.56-523.178c-54.046-29.283-32.805-3.371 3.242 61.594 36.736 66.198 100.912 129.646 221.497 251.681z"/></g><g><path fill="none" stroke="#e73629" stroke-miterlimit="20" stroke-width=".7" d="M622.766-208.805C746.716-80.621 780.518-47.491 837.52-15.425c56.997 32.07 44.705 11.037-22.249-85.076-66.953-96.113-91.543-128.027-215.493-256.211-123.95-128.184-146.138-144.631-203.135-176.703-56.997-32.07-35.414-5.079.017 61.679 36.103 68.029 102.155 134.747 226.106 262.931z"/></g><g><path fill="none" stroke="#e73629" stroke-miterlimit="20" stroke-width=".7" d="M619.952-207.843C747.206-73.348 782.01-38.493 842.06-3.488c60.05 35.006 47.897 13.362-19.314-86.122-67.206-99.484-92.08-132.648-219.335-267.137-127.255-134.49-150.4-152.085-210.443-187.09-60.043-35.006-38.153-6.928-3.489 61.594 35.32 69.82 103.22 139.905 230.474 274.4z"/></g><g><path fill="none" stroke="#e73629" stroke-miterlimit="20" stroke-width=".7" d="M616.829-207.03C747.309-66.06 783.104-29.43 846.294 8.672c63.185 38.103 51.229 15.854-16.066-87.018C762.933-181.213 737.822-215.63 607.342-356.6S452.743-516.345 389.558-554.448c-63.185-38.102-41.02-8.915-7.291 61.331 34.367 71.574 104.082 145.119 234.562 286.088z"/></g><g><path fill="none" stroke="#e73629" stroke-miterlimit="20" stroke-width=".7" d="M613.407-206.377C747.017-58.772 783.793-20.322 850.21 21.033 916.625 62.39 904.915 39.543 837.72-66.7c-67.195-106.244-92.496-141.932-226.106-289.537S452.89-523.858 386.473-565.213c-66.416-41.356-44.022-11.05-11.408 60.86 33.236 73.282 104.726 150.372 238.342 297.976z"/></g><g><path fill="none" stroke="#e73629" stroke-miterlimit="20" stroke-width=".7" d="M609.657-205.904C746.292-51.506 784.02-11.186 853.761 33.59c69.743 44.778 58.33 21.347-8.562-88.273s-92.327-146.574-228.956-300.972C479.614-510.05 453.49-531.348 383.748-576.126c-69.743-44.777-47.152-13.339-15.843 60.184 31.903 74.916 105.118 155.64 241.752 310.038z"/></g><g><path fill="none" stroke="#e73629" stroke-miterlimit="20" stroke-width=".73" d="M605.549-205.638C745.079-44.302 783.74-2.06 856.894 46.306c73.153 48.367 62.098 24.371-4.273-88.597-66.371-112.97-91.88-151.206-231.403-312.542C481.694-516.169 454.545-538.804 381.392-587.17c-73.153-48.368-50.422-15.787-20.619 59.27 30.369 76.48 105.252 160.927 244.776 322.263z"/></g><g><path fill="none" stroke="#e73629" stroke-miterlimit="20" stroke-width=".76" d="M601.08-205.575C743.354-37.16 782.918 7.051 859.576 59.176c76.658 52.125 66.018 27.586.403-88.698-65.615-116.284-91.129-155.809-233.402-324.223C484.303-522.16 456.124-546.19 379.47-598.315c-76.653-52.124-53.838-18.406-25.754 58.112 28.61 77.963 105.09 166.214 247.363 334.628z"/></g><g><path fill="none" stroke="#e73629" stroke-miterlimit="20" stroke-width=".8" d="M596.227-205.75C741.083-30.117 781.51 16.1 861.751 72.167c80.243 56.067 70.09 31.007 5.483-88.558C802.62-135.957 777.18-176.76 632.325-352.386s-174.07-201.101-254.313-257.169c-80.242-56.067-57.389-21.195-31.259 56.684 26.622 79.357 104.62 171.488 249.474 347.121z"/></g><g><path fill="none" stroke="#e73629" stroke-miterlimit="20" stroke-width=".83" d="M590.975-206.185C738.215-23.217 779.47 25.055 863.387 85.25c83.916 60.194 74.317 34.63 10.987-88.15-63.33-122.78-88.626-164.858-235.872-347.827-147.247-182.969-177.51-209.933-261.42-270.127-83.91-60.195-61.09-24.175-37.155 54.97 24.382 80.64 103.801 176.73 251.048 359.699z"/></g><g><path fill="none" stroke="#e73629" stroke-miterlimit="20" stroke-width=".87" d="M585.293-206.893C734.713-16.465 776.746 33.896 864.408 98.397c87.663 64.5 78.703 38.472 16.94-87.456-61.762-125.927-86.822-169.27-236.241-359.699-149.42-190.428-180.735-218.937-268.397-283.438-87.662-64.5-64.938-27.328-43.462 52.96 21.88 81.804 102.626 181.92 252.045 372.343z"/></g><g><path fill="none" stroke="#e73629" stroke-miterlimit="20" stroke-width=".9" d="M579.161-207.887C730.518-9.9 773.28 42.595 864.761 111.593 956.243 180.59 948 154.13 888.125 25.145c-59.876-128.984-84.616-173.583-235.973-371.565-151.357-197.983-183.73-228.094-275.212-297.097-91.482-69.003-68.93-30.7-50.187 50.602 19.107 82.84 101.052 187.04 252.408 385.028z"/></g><g><path fill="none" stroke="#e73629" stroke-miterlimit="20" stroke-width=".94" d="M572.563-209.21C725.594-3.572 769.023 51.09 864.4 124.78c95.38 73.69 87.932 46.838 30.28-85.103-57.652-131.942-81.973-177.772-235.004-383.41-153.032-205.637-186.458-237.4-281.832-311.091-95.373-73.69-73.074-34.266-57.355 47.902 16.022 83.726 99.042 192.075 252.073 397.712z"/></g><g><path fill="none" stroke="#e73629" stroke-miterlimit="20" stroke-width=".98" d="M565.471-210.874C719.881 2.492 763.92 59.348 863.251 137.933c99.333 78.585 92.781 51.375 37.705-83.406-55.076-134.78-78.865-181.82-233.273-395.18-154.41-213.36-188.888-246.832-288.221-325.417-99.333-78.585-77.37-38.04-64.983 44.84 12.623 84.447 96.578 196.99 250.992 410.356z"/></g><g><path fill="none" stroke="#e73629" stroke-miterlimit="20" stroke-width="1.02" d="M557.876-212.907C713.349 8.243 757.908 67.328 861.26 151.003c103.354 83.676 97.793 56.163 45.674-81.317-52.12-137.48-75.264-185.696-230.731-406.851C520.737-558.32 485.216-593.545 381.862-677.22c-103.353-83.675-81.821-42.039-73.085 41.379 8.904 84.997 93.632 201.785 249.099 422.934z"/></g><g><path fill="none" stroke="#e73629" stroke-miterlimit="20" stroke-width="1.07" d="M549.756-215.324C705.934 13.66 750.94 74.996 858.372 163.964c107.43 88.967 102.956 61.202 54.202-78.815-48.748-140.017-71.131-189.38-227.31-418.365C529.087-562.2 492.536-599.238 385.11-688.206c-107.425-88.966-86.419-46.26-81.687 37.498 4.827 85.339 90.154 206.4 246.333 435.384z"/></g><g><path fill="none" stroke="#e73629" stroke-miterlimit="20" stroke-width="1.11" d="M541.062-218.183C697.56 18.664 742.931 82.268 854.477 176.74c111.547 94.472 108.27 66.506 63.32-75.868C872.844-41.503 851.357-91.976 694.86-328.816 538.363-565.657 500.792-604.56 389.246-699.032c-111.546-94.472-91.174-50.72-90.798 33.168.386 85.479 86.116 210.835 242.614 447.681z"/></g><g><path fill="none" stroke="#e73629" stroke-miterlimit="20" stroke-width="1.16" d="M531.802-221.476C688.204 23.233 733.828 89.128 849.535 189.307c115.707 100.178 113.741 72.083 73.046-72.453-40.695-144.536-61.146-196.056-217.549-440.77-156.402-244.715-194.964-285.522-310.67-385.7-115.708-100.179-96.086-55.424-100.448 28.369-4.44 85.383 81.486 215.057 237.888 459.771z"/></g><g><path fill="none" stroke="#e73629" stroke-miterlimit="20" stroke-width="1.21" d="M521.927-225.262C677.775 27.298 723.55 95.495 843.451 201.588c119.902 106.091 119.364 77.934 83.412-68.534-35.952-146.468-55.216-198.99-211.064-451.55-155.848-252.56-195.384-295.338-315.285-401.43-119.902-106.092-101.142-60.38-110.645 23.077-9.682 85.03 76.21 219.027 232.058 471.587z"/></g><g><path fill="none" stroke="#e73629" stroke-miterlimit="20" stroke-width="1.26" d="M511.428-229.548C666.23 30.824 712.038 101.316 836.15 213.546c124.113 112.23 125.132 84.078 94.438-64.07C899.9 1.328 881.97-52.129 727.174-312.5 572.379-572.873 531.891-617.656 407.778-729.886c-124.113-112.23-106.35-65.587-121.414 17.254-15.35 84.408 70.264 222.717 225.064 483.084z"/></g><g><path fill="none" stroke="#e73629" stroke-miterlimit="20" stroke-width="1.31" d="M500.27-234.388c153.215 268.117 198.934 340.911 327.269 459.48 128.335 118.569 131.04 90.507 106.153-59.041-24.886-149.548-41.305-203.874-194.521-471.99C585.955-574.056 544.554-620.9 416.225-739.463c-128.33-118.564-111.71-71.064-132.77 10.875-21.466 83.49 63.598 226.083 216.814 494.2z"/></g><g><path fill="none" stroke="#e73629" stroke-miterlimit="20" stroke-width="1.37" d="M488.446-239.799c151.06 275.766 196.543 350.857 329.1 475.978 132.558 125.12 137.094 97.244 118.586-53.402C917.624 32.131 902.896-22.978 751.836-298.75S558.502-623.466 425.95-748.587c-132.552-125.12-117.22-76.81-144.743 3.914-28.045 82.253 56.173 229.102 207.239 504.874z"/></g><g><path fill="none" stroke="#e73629" stroke-miterlimit="20" stroke-width="1.43" d="M475.906-245.818C624.188 37.48 669.285 114.844 806.054 246.73c136.768 131.885 143.276 104.283 131.762-47.124-11.52-151.407-24.371-207.217-172.654-490.51C616.88-574.197 573.777-625.29 437.014-757.177c-136.764-131.885-122.864-82.84-157.332-3.668-35.124 80.674 47.941 231.728 196.224 515.027z"/></g><g><path fill="none" stroke="#e73629" stroke-miterlimit="20" stroke-width="1.49" d="M462.642-252.493c144.844 290.668 189.392 370.289 330.35 509.152 140.957 138.863 149.593 111.641 145.7-40.163C934.802 64.69 924.027 8.288 779.183-282.38S590.462-626.327 449.51-765.19c-140.952-138.863-128.649-89.152-170.57-11.894-42.711 78.724 38.858 233.923 183.702 524.59z"/></g><g><path fill="none" stroke="#e73629" stroke-miterlimit="20" stroke-width="1.55" d="M448.63-259.852C589.32 38 633.145 119.839 778.246 265.893c145.102 146.053 156.027 119.319 160.44-32.486 4.413-151.8-4.077-208.69-144.76-506.537S608.645-626.479 463.543-772.532c-145.102-146.054-134.574-95.771-184.475-20.81-50.843 76.384 28.873 235.637 169.562 533.49z"/></g><g><path fill="none" stroke="#e73629" stroke-miterlimit="20" stroke-width="1.62" d="M433.825-267.925C569.59 36.877 612.509 120.905 761.705 274.35 910.9 427.796 924.278 401.672 937.707 250.31c13.429-151.362 7.448-208.617-128.318-513.42-135.767-304.802-181.015-362.56-330.21-516.006-149.195-153.445-140.627-102.687-199.052-30.441-59.534 73.617 17.931 236.824 153.698 541.632z"/></g><g><path fill="none" stroke="#e73629" stroke-miterlimit="20" stroke-width="1.69" d="M418.223-276.77C548.255 34.726 590.059 120.882 743.275 281.92 896.49 442.96 912.5 417.575 935.685 267.125c23.184-150.45 19.953-207.94-110.08-519.433-130.031-311.495-175.861-371.538-329.077-532.583-153.216-161.045-146.799-109.9-214.33-40.813-68.806 70.398 5.998 237.44 136.025 548.935z"/></g><g><path fill="none" stroke="#e73629" stroke-miterlimit="20" stroke-width="1.76" d="M401.793-286.423c123.424 317.873 163.9 406.095 321.053 574.935 157.153 168.84 175.969 144.323 209.698-4.71 33.729-149.032 33.488-206.612-89.936-524.479C719.184-558.544 672.855-620.91 515.702-789.75 358.55-958.591 362.604-907.183 285.37-841.725c-78.697 66.702-7 237.429 116.424 555.302z"/></g><g><path fill="none" stroke="#e73629" stroke-miterlimit="20" stroke-width="1.83" d="M384.503-296.918c115.892 323.892 154.812 414.12 315.784 590.95 160.972 176.832 182.8 153.334 227.887 6.273 45.085-147.062 48.104-204.574-67.788-528.472C744.494-552.066 697.75-616.762 536.773-793.6c-160.978-176.837-159.505-125.283-247.061-63.958-89.208 62.496-21.1 236.74 94.791 560.639z"/></g><g><path fill="none" stroke="#e73629" stroke-miterlimit="20" stroke-width="1.91" d="M366.34-308.3C473.709 21.213 510.82 113.35 675.499 298.37c164.68 185.018 189.7 162.69 247.005 18.194 57.305-144.503 63.851-201.78-43.518-531.295S724.555-611.31 559.881-796.33C395.208-981.348 393.87-929.789 295.343-873.128c-100.397 57.736-36.372 235.306 70.997 564.827z"/></g><g><path fill="none" stroke="#e73629" stroke-miterlimit="20" stroke-width="1.99" d="M347.269-320.618c97.798 334.684 132.843 428.635 301.067 622.02 168.224 193.385 196.66 172.396 267.08 31.097 70.426-141.305 80.786-198.162-17.012-532.846-97.799-334.684-145.068-404.112-313.292-597.497C416.888-991.23 412.502-939.81 302.334-888.38c-112.257 52.399-52.87 233.077 44.935 567.761z"/></g><g><path fill="none" stroke="#e73629" stroke-miterlimit="20" stroke-width="2.08" d="M327.26-333.92C414.38 5.421 447.072 101.081 618.68 303c171.606 201.92 203.66 182.454 288.142 45.03s98.963-193.659 11.844-533.002c-87.12-339.343-134.473-411.152-306.08-613.071-171.606-201.92-179.283-150.802-301.794-105.213-124.841 46.452-70.65 229.992 16.47 569.335z"/></g><g><path fill="none" stroke="#e73629" stroke-miterlimit="20" stroke-width="2.16" d="M306.31-348.25C381.576-4.815 411.62 92.423 586.4 303.05c174.782 210.628 210.683 192.864 310.207 60.05 99.523-132.816 118.44-188.217 43.176-531.654-75.264-343.436-122.579-417.625-297.36-628.252C467.64-1007.433 456.396-956.786 320.82-917.67c-138.152 39.86-89.773 225.982-14.51 569.42z"/></g><g><path fill="none" stroke="#e73629" stroke-miterlimit="20" stroke-width="2.26" d="M284.382-363.661c62.16 346.909 89.241 445.586 266.98 665.067 177.738 219.48 217.722 203.622 333.3 76.2 115.579-127.423 139.267-181.76 77.113-528.663C899.62-497.96 852.474-574.53 674.74-794.01c-177.733-219.48-192.825-169.495-342.216-137.53-152.23 32.575-110.303 220.97-48.143 567.879z"/></g><g><path fill="none" stroke="#e73629" stroke-miterlimit="20" stroke-width="2.35" d="M261.45-380.198C309.183-30.51 332.966 69.443 513.41 297.93c180.443 228.485 224.745 214.737 357.454 93.542 132.708-121.195 161.51-174.221 113.775-523.902-47.735-349.687-94.55-428.613-274.994-657.093-180.443-228.48-199.662-179.357-363.641-155.249-167.082 24.556-132.29 214.895-84.555 564.575z"/></g><g><path fill="none" stroke="#e73629" stroke-miterlimit="20" stroke-width="2.45" d="M237.5-397.907c31.92 351.702 52.052 452.771 234.92 690.385C655.288 530.09 704.159 518.684 855.1 404.595c150.943-114.089 185.226-165.53 153.3-517.233-31.92-351.702-78.248-432.97-261.116-670.588-182.868-237.62-206.523-189.56-385.89-174.07-182.757 15.786-155.82 207.68-123.895 559.389z"/></g><g><path fill="none" stroke="#e73629" stroke-miterlimit="20" stroke-width="2.56" d="M212.514-416.852c14.644 352.89 30.744 454.877 215.723 701.736 184.98 246.859 238.678 238.028 409.013 131.992 170.335-106.03 210.47-155.607 195.827-508.503-14.644-352.895-60.307-436.475-245.286-683.334-184.98-246.86-213.394-200.11-408.968-194.029-199.276 6.205-180.953 199.248-166.309 552.138z"/></g><g><path fill="none" stroke="#e73629" stroke-miterlimit="20" stroke-width="2.67" d="M186.467-437.067c-4.178 353.175 7.498 455.863 194.241 712.063 186.743 256.2 245.532 250.19 436.459 153.221 190.926-96.97 237.31-144.379 241.494-497.554 4.178-353.175-40.628-439.029-227.377-695.235-186.749-256.205-220.248-211.002-432.88-215.163-216.67-4.245-207.76 189.493-211.937 542.668z"/></g><g><path fill="none" stroke="#e73629" stroke-miterlimit="20" stroke-width="2.78" d="M159.344-458.624c-24.629 352.47-17.797 455.627 170.335 721.252C517.811 528.253 581.965 525.324 794.725 438.48c212.761-86.845 265.81-131.762 290.439-484.232 24.629-352.47-19.13-440.557-207.256-706.182C689.78-1017.56 650.845-974.177 420.27-989.46c-234.948-15.574-236.303 178.36-260.926 530.835z"/></g><g><path fill="none" stroke="#e73629" stroke-miterlimit="20" stroke-width="2.9" d="M131.133-481.573c-46.782 350.7-45.237 454.07 143.864 729.176 189.1 275.106 258.905 275.543 494.788 199.948 235.883-75.594 296.022-117.667 342.804-468.367 46.782-350.7 4.3-440.955-184.8-716.06-189.1-275.106-233.828-233.823-483.24-261.151-254.134-27.849-266.634 165.754-313.416 516.454z"/></g><g><path fill="none" stroke="#e73629" stroke-miterlimit="20" stroke-width="3.02" d="M101.81-505.973C31.078-158.202 26.878-54.893 216.494 229.738c189.616 284.631 265.356 288.714 525.7 225.568 260.344-63.145 328.014-102.015 398.748-449.786 70.734-347.771 29.753-440.127-159.858-724.752-189.61-284.626-240.514-245.74-509.684-286.082-274.276-41.11-298.855 151.57-369.588 499.341z"/></g><g><path fill="none" stroke="#e73629" stroke-miterlimit="20" stroke-width="3.15" d="M71.373-531.858c-96.56 343.594-106.999 446.544 82.628 740.701C343.63 503 425.613 511.047 711.801 461.616c286.188-49.431 361.855-84.711 458.416-428.3 96.56-343.587 57.332-437.964-132.295-732.121-189.627-294.157-247.089-257.986-536.973-312.368-295.372-55.406-333.015 135.722-429.576 479.315z"/></g><g><path fill="none" stroke="#e73629" stroke-miterlimit="20" stroke-width="3.28" d="M39.807-559.309C-84.552-221.242-101.738-118.98 87.362 184.701 276.463 488.385 365 500.71 678.46 466.322c313.46-34.39 397.6-65.655 521.96-403.722 124.359-338.066 87.147-434.364-101.954-738.046-189.101-303.682-253.535-270.564-565.096-340.038-317.464-70.79-369.197 118.11-493.562 456.176z"/></g><g><path fill="none" stroke="#e73629" stroke-miterlimit="20" stroke-width="3.42" d="M7.112-588.381c-154.219 331.094-178.69 432.32 9.296 745.483C204.394 470.265 299.796 487.205 642 469.274c342.204-17.937 435.316-44.755 589.534-375.855 154.218-331.1 119.302-429.206-68.678-742.37-187.981-313.163-259.807-283.466-594.048-369.152-340.576-87.31-407.479 98.628-561.697 429.722z"/></g><g><path fill="none" stroke="#e73629" stroke-miterlimit="20" stroke-width="3.57" d="M-26.726-619.111c-186.239 322.57-218.556 422.374-32.317 744.945 186.24 322.571 288.831 344.484 661.304 344.484 372.473 0 475.065-21.913 661.304-344.484 186.239-322.57 153.916-422.374-32.318-744.945-186.233-322.571-265.899-296.671-623.829-399.734-364.716-105.011-447.91 77.163-634.144 399.734z"/></g></g></g></svg>