<svg width="69" height="51" viewBox="0 0 69 51" fill="none" xmlns="http://www.w3.org/2000/svg">
<g clip-path="url(#clip0_696_3762)">
<path d="M66.6854 51.0176H2.30877C1.72097 51.0398 1.14828 50.8284 0.715711 50.4294C0.283143 50.0304 0.025828 49.4764 0 48.8882V8.3772C0 7.08436 1.22162 6.62222 2.02823 6.30047C2.67118 6.05477 3.15045 5.82077 3.61804 5.60432L4.06812 5.38788C4.25007 5.32167 4.45023 5.32635 4.62889 5.40098C4.80756 5.47561 4.95165 5.61473 5.03259 5.79074C5.11353 5.96676 5.1254 6.16681 5.06584 6.35117C5.00628 6.53554 4.87964 6.69076 4.71105 6.78603L4.27853 6.99076C3.81093 7.21306 3.28491 7.47048 2.58351 7.73958C1.99901 7.96187 1.53723 8.16075 1.53723 8.3772V48.8707C1.56744 49.0481 1.66404 49.2073 1.80736 49.316C1.95068 49.4246 2.12997 49.4746 2.30877 49.4557H66.6854C66.8642 49.4746 67.0435 49.4246 67.1868 49.316C67.3301 49.2073 67.4267 49.0481 67.4569 48.8707V8.3772C67.4569 8.19 67.1588 8.00868 66.4282 7.74543C65.6976 7.48218 65.1189 7.22477 64.6221 7.00247L64.1954 6.81527C64.1018 6.77417 64.0172 6.71501 63.9464 6.64117C63.8756 6.56733 63.82 6.48025 63.7828 6.38491C63.7456 6.28958 63.7276 6.18788 63.7297 6.08556C63.7318 5.98324 63.754 5.88232 63.7951 5.7886C63.8361 5.69488 63.8952 5.61017 63.969 5.5393C64.0428 5.46844 64.1298 5.41281 64.225 5.3756C64.3203 5.33839 64.422 5.32033 64.5242 5.32243C64.6264 5.32454 64.7272 5.34678 64.8209 5.38788L65.2592 5.58094C65.7561 5.80324 66.2704 6.03139 66.9543 6.27708C67.6382 6.52278 69.0058 7.00833 69.0058 8.35967V48.8531C68.9976 49.1484 68.9308 49.4391 68.8093 49.7083C68.6878 49.9775 68.514 50.2199 68.2981 50.4213C68.0822 50.6227 67.8284 50.7791 67.5516 50.8815C67.2747 50.9839 66.9803 51.0301 66.6854 51.0176Z" fill="#E1AE2E"/>
<path d="M63.2197 45.7116C62.9508 45.7094 62.6864 45.6433 62.4481 45.5186C60.6946 44.5943 56.6032 43.0323 49.1625 43.0323C41.564 43.0323 37.6654 44.3369 35.9996 45.1149C35.5413 45.3261 35.0429 45.4359 34.5383 45.4367C34.0616 45.4394 33.5897 45.3417 33.1531 45.15C31.3411 44.3603 27.1737 43.0323 19.6336 43.0323C12.3333 43.0323 8.30022 44.5826 6.55257 45.5069C6.31325 45.6343 6.04623 45.7005 5.77518 45.6999C5.47215 45.7008 5.1748 45.6178 4.91599 45.4601C4.67089 45.3124 4.46791 45.104 4.32664 44.8551C4.18536 44.6061 4.11054 44.3249 4.10938 44.0386V5.21234C4.11028 4.83659 4.20157 4.46658 4.37555 4.13361C4.54952 3.80064 4.80106 3.5145 5.10888 3.29939C6.86237 2.0709 11.0708 0 19.4291 0C28.6992 0 33.1648 1.75501 34.4799 2.39265C35.7307 1.73161 39.8748 0 49.18 0C57.6552 0 62.039 2.06505 63.8509 3.29939C64.1685 3.51282 64.4288 3.80098 64.6092 4.13857C64.7896 4.47617 64.8844 4.85289 64.8855 5.23573V44.0444C64.8839 44.4861 64.7079 44.9093 64.3959 45.2216C64.0838 45.534 63.661 45.7101 63.2197 45.7116ZM49.1917 41.4938C56.948 41.4938 61.2908 43.1611 63.1904 44.1556C63.2094 44.1658 63.2307 44.1709 63.2522 44.1703C63.2737 44.1698 63.2947 44.1635 63.3131 44.1523C63.3314 44.141 63.3465 44.1251 63.3568 44.1062C63.367 44.0872 63.3722 44.066 63.3716 44.0444V5.23573C63.3715 5.10591 63.3401 4.97804 63.28 4.86296C63.22 4.74789 63.1331 4.64899 63.0268 4.57468C61.659 3.66208 57.5792 1.53854 49.2092 1.53854C38.5363 1.53854 35.0001 3.87853 34.965 3.87853C34.8398 3.9601 34.6936 4.00353 34.5442 4.00353C34.3948 4.00353 34.2486 3.9601 34.1233 3.87853C34.0883 3.87853 30.0319 1.48591 19.4583 1.48591C11.2227 1.48591 7.31243 3.59774 6.01484 4.51034C5.91121 4.58376 5.8268 4.68111 5.76879 4.79416C5.71079 4.9072 5.68091 5.0326 5.68168 5.15967V43.9859C5.6821 44.0069 5.68765 44.0275 5.69784 44.0458C5.70802 44.0642 5.72253 44.0797 5.74011 44.0912C5.758 44.104 5.77949 44.111 5.80151 44.111C5.82353 44.111 5.84498 44.104 5.86287 44.0912C7.73911 43.0967 12.0293 41.4353 19.6629 41.4353C27.4834 41.4353 31.873 42.8393 33.796 43.6817C34.0395 43.7872 34.3022 43.841 34.5676 43.8396C34.8482 43.8375 35.1251 43.7756 35.38 43.6583C37.1277 42.8861 41.2893 41.4938 49.1625 41.4938H49.1917Z" fill="#E1AE2E"/>
<path d="M34.4962 45.4075C34.2925 45.4075 34.0972 45.327 33.9526 45.1834C33.8081 45.0399 33.7262 44.845 33.7246 44.6412V3.27611C33.7246 3.07131 33.8059 2.87488 33.9506 2.73006C34.0953 2.58525 34.2915 2.50391 34.4962 2.50391C34.7008 2.50391 34.897 2.58525 35.0417 2.73006C35.1864 2.87488 35.2677 3.07131 35.2677 3.27611V44.6412C35.2662 44.845 35.1842 45.0399 35.0397 45.1834C34.8951 45.327 34.6998 45.4075 34.4962 45.4075Z" fill="#E1AE2E"/>
<path d="M16.4129 35.0295C12.6487 35.0295 9.58594 32.6895 9.58594 29.7645C9.58594 26.8395 12.6487 24.4995 16.4129 24.4995C20.177 24.4995 23.2398 26.8395 23.2398 29.7645C23.2398 32.6895 20.177 35.0295 16.4129 35.0295ZM16.4129 26.0849C13.4904 26.0849 11.1524 27.7463 11.1524 29.7879C11.1524 31.8295 13.5254 33.4909 16.4129 33.4909C19.3003 33.4909 21.7026 31.8295 21.7026 29.7879C21.7026 27.7463 19.3295 26.0849 16.4129 26.0849Z" fill="#E1AE2E"/>
<path d="M22.4689 30.4256C22.3681 30.4257 22.2684 30.4056 22.1754 30.3667C22.0825 30.3277 21.9982 30.2706 21.9275 30.1988C21.8568 30.1269 21.801 30.0417 21.7635 29.9481C21.726 29.8545 21.7075 29.7543 21.7091 29.6534L21.8201 9.98587C21.8194 9.6518 21.9193 9.3253 22.1068 9.04892C22.2943 8.77255 22.5607 8.55915 22.8712 8.43661C23.1817 8.31407 23.5219 8.28807 23.8474 8.36199C24.1729 8.43591 24.4686 8.6063 24.6959 8.85097L29.9155 14.3851C29.9845 14.4584 30.0385 14.5447 30.0742 14.6389C30.11 14.7332 30.1269 14.8335 30.1239 14.9343C30.1209 15.0351 30.0982 15.1342 30.0569 15.2262C30.0156 15.3182 29.9566 15.4011 29.8833 15.4702C29.81 15.5393 29.7238 15.5934 29.6296 15.6292C29.5355 15.665 29.4352 15.6819 29.3345 15.6789C29.2338 15.6759 29.1347 15.6531 29.0428 15.6117C28.951 15.5704 28.8681 15.5114 28.799 15.438L23.5736 9.90981C23.5579 9.89034 23.5364 9.87643 23.5122 9.87011C23.488 9.86379 23.4624 9.86541 23.4392 9.87472C23.4155 9.88395 23.3952 9.89999 23.3806 9.92081C23.366 9.94163 23.3579 9.96631 23.3574 9.99172L23.2463 29.6652C23.2432 29.8689 23.1598 30.0632 23.0142 30.2057C22.8685 30.3482 22.6725 30.4272 22.4689 30.4256Z" fill="#E1AE2E"/>
<path d="M58.8942 10.4248C58.7938 10.4258 58.6942 10.4059 58.6019 10.3664C52.5479 7.91089 45.7766 7.91089 39.7226 10.3664C39.5334 10.4421 39.3219 10.4404 39.1339 10.3616C38.9458 10.2828 38.7962 10.1333 38.7173 9.94514C38.6783 9.8515 38.6582 9.75105 38.6582 9.64957C38.6583 9.5481 38.6785 9.44765 38.7176 9.35404C38.7568 9.26043 38.8141 9.17553 38.8863 9.10428C38.9585 9.03303 39.0441 8.97684 39.1381 8.93897C45.5654 6.3335 52.7533 6.3335 59.1806 8.93897C59.345 9.00691 59.4809 9.12962 59.5653 9.28634C59.6497 9.44306 59.6774 9.62416 59.6437 9.79896C59.61 9.97377 59.517 10.1315 59.3804 10.2456C59.2438 10.3597 59.072 10.423 58.8942 10.4248Z" fill="#E1AE2E"/>
<path d="M58.8938 19.1119C58.7934 19.1129 58.6939 19.0929 58.6016 19.0534C52.5464 16.6041 45.7775 16.6041 39.7223 19.0534C39.629 19.0918 39.5292 19.1114 39.4283 19.1112C39.3275 19.111 39.2276 19.0909 39.1346 19.052C39.0415 19.0132 38.9569 18.9564 38.8858 18.8848C38.8146 18.8133 38.7582 18.7285 38.7199 18.6351C38.6815 18.5418 38.6619 18.4418 38.6621 18.3408C38.6623 18.2399 38.6824 18.14 38.7212 18.0468C38.76 17.9537 38.8168 17.8691 38.8883 17.7979C38.9598 17.7267 39.0445 17.6702 39.1378 17.6318C45.565 15.0264 52.753 15.0264 59.1802 17.6318C59.2743 17.6697 59.3599 17.7259 59.4321 17.7972C59.5043 17.8684 59.5617 17.9533 59.6008 18.0469C59.64 18.1405 59.6601 18.241 59.6602 18.3424C59.6602 18.4439 59.6401 18.5444 59.6011 18.638C59.5426 18.7777 59.4444 18.8971 59.3187 18.9814C59.1929 19.0656 59.0452 19.111 58.8938 19.1119Z" fill="#E1AE2E"/>
<path d="M58.8942 27.8047C58.7938 27.8057 58.6942 27.7858 58.6019 27.7462C52.5479 25.2907 45.7766 25.2907 39.7226 27.7462C39.5334 27.8219 39.3219 27.8203 39.1339 27.7415C38.9458 27.6627 38.7962 27.5131 38.7173 27.325C38.6783 27.2314 38.6582 27.1309 38.6582 27.0294C38.6583 26.9279 38.6785 26.8275 38.7176 26.7339C38.7568 26.6403 38.8141 26.5554 38.8863 26.4841C38.9585 26.4129 39.0441 26.3567 39.1381 26.3188C45.5654 23.7134 52.7533 23.7134 59.1806 26.3188C59.345 26.3868 59.4809 26.5095 59.5653 26.6662C59.6497 26.8229 59.6774 27.004 59.6437 27.1788C59.61 27.3537 59.517 27.5114 59.3804 27.6255C59.2438 27.7395 59.072 27.8029 58.8942 27.8047Z" fill="#E1AE2E"/>
<path d="M58.8939 36.4922C58.7934 36.4932 58.6939 36.4733 58.6016 36.4337C52.5464 33.9844 45.7775 33.9844 39.7223 36.4337C39.534 36.5113 39.3226 36.5108 39.1346 36.4324C38.9466 36.3539 38.7974 36.204 38.7199 36.0155C38.6424 35.8269 38.6429 35.6154 38.7212 35.4272C38.7996 35.2391 38.9495 35.0898 39.1378 35.0122C45.565 32.4067 52.753 32.4067 59.1803 35.0122C59.2741 35.0495 59.3596 35.1051 59.4318 35.1758C59.5039 35.2465 59.5612 35.3309 59.6004 35.424C59.6396 35.5171 59.6598 35.6172 59.6599 35.7182C59.6601 35.8193 59.6401 35.9193 59.6011 36.0125C59.5435 36.1533 59.4457 36.274 59.3199 36.3593C59.1941 36.4446 59.0458 36.4909 58.8939 36.4922Z" fill="#E1AE2E"/>
</g>
<defs>
<clipPath id="clip0_696_3762">
<rect width="69" height="51" fill="white"/>
</clipPath>
</defs>
</svg>
