<svg width="137" height="35" viewBox="0 0 137 35" fill="none" xmlns="http://www.w3.org/2000/svg">
<path d="M0.729437 17.1993V0.120275H6.90108C8.2885 0.120275 9.5005 0.344788 10.5371 0.793814C11.5896 1.24284 12.4667 1.85223 13.1684 2.62199C13.8701 3.39175 14.3963 4.29782 14.7472 5.34021C15.098 6.36655 15.2735 7.46506 15.2735 8.63574C15.2735 9.93471 15.0741 11.1134 14.6754 12.1718C14.2927 13.2142 13.7345 14.1123 13.001 14.866C12.2674 15.6037 11.3823 16.181 10.3457 16.5979C9.32508 16.9989 8.17687 17.1993 6.90108 17.1993H0.729437ZM11.9484 8.63574C11.9484 7.81787 11.8368 7.06415 11.6135 6.37457C11.3903 5.68499 11.0633 5.09164 10.6328 4.5945C10.2022 4.09737 9.66795 3.71249 9.03005 3.43986C8.4081 3.16724 7.69845 3.03093 6.90108 3.03093H4.03055V14.2887H6.90108C7.71439 14.2887 8.43202 14.1443 9.05397 13.8557C9.69187 13.567 10.2181 13.1741 10.6328 12.677C11.0633 12.1638 11.3903 11.5624 11.6135 10.8729C11.8368 10.1833 11.9484 9.43757 11.9484 8.63574Z" fill="#CFDBD5"/>
<path d="M25.1007 17.3196C23.8568 17.3196 22.7246 17.079 21.7039 16.5979C20.6992 16.1008 19.8301 15.4513 19.0965 14.6495C18.3789 13.8316 17.8207 12.9015 17.4221 11.8591C17.0234 10.8167 16.824 9.75029 16.824 8.65979C16.824 7.52119 17.0313 6.4307 17.446 5.38832C17.8766 4.34593 18.4586 3.42383 19.1922 2.62199C19.9417 1.82016 20.8268 1.18671 21.8475 0.721649C22.8681 0.24055 23.9764 0 25.1725 0C26.4004 0 27.5167 0.256587 28.5214 0.76976C29.5421 1.2669 30.4112 1.9244 31.1288 2.74227C31.8465 3.56014 32.4046 4.49026 32.8033 5.53265C33.202 6.57503 33.4013 7.63345 33.4013 8.7079C33.4013 9.84651 33.194 10.937 32.7794 11.9794C32.3647 13.0057 31.7906 13.9198 31.0571 14.7216C30.3235 15.5074 29.4464 16.1409 28.4257 16.622C27.4051 17.0871 26.2968 17.3196 25.1007 17.3196ZM20.173 8.65979C20.173 9.39748 20.2846 10.1111 20.5079 10.8007C20.7311 11.4903 21.0501 12.0997 21.4647 12.6289C21.8953 13.1581 22.4136 13.583 23.0196 13.9038C23.6415 14.2245 24.3432 14.3849 25.1246 14.3849C25.922 14.3849 26.6237 14.2245 27.2297 13.9038C27.8516 13.567 28.3699 13.126 28.7846 12.5808C29.2151 12.0355 29.5341 11.4261 29.7414 10.7526C29.9647 10.063 30.0763 9.36541 30.0763 8.65979C30.0763 7.92211 29.9567 7.20848 29.7175 6.5189C29.4942 5.82932 29.1673 5.21993 28.7367 4.69072C28.3221 4.16151 27.8038 3.74456 27.1819 3.43986C26.5759 3.11913 25.8901 2.95876 25.1246 2.95876C24.3273 2.95876 23.6176 3.12715 22.9957 3.46392C22.3737 3.78465 21.8554 4.21764 21.4408 4.76289C21.0262 5.2921 20.7072 5.90149 20.4839 6.59107C20.2766 7.2646 20.173 7.95418 20.173 8.65979Z" fill="#CFDBD5"/>
<path d="M49.7839 17.1993V5.89347L45.4063 14.3127H43.6123L39.2347 5.89347V17.1993H35.9336V0.120275H39.4739L44.4973 9.83849L49.5686 0.120275H53.085V17.1993H49.7839Z" fill="#CFDBD5"/>
<path d="M56.6309 17.1993V0.120275H59.932V17.1993H56.6309Z" fill="#CFDBD5"/>
<path d="M66.7766 6.2543V17.1993H63.4755V0.120275H66.0351L74.8859 11.3299V0.144329H78.187V17.1993H75.5078L66.7766 6.2543Z" fill="#CFDBD5"/>
<path d="M81.72 17.1993V0.120275H85.0211V17.1993H81.72Z" fill="#CFDBD5"/>
<path d="M87.536 8.53952C87.536 7.49714 87.7194 6.47079 88.0862 5.46048C88.469 4.43413 89.0191 3.52005 89.7368 2.71821C90.4544 1.91638 91.3315 1.2669 92.3681 0.76976C93.4047 0.272623 94.5848 0.0240547 95.9084 0.0240547C97.4713 0.0240547 98.8188 0.368843 99.9511 1.05842C101.099 1.748 101.952 2.64605 102.511 3.75258L99.975 5.50859C99.7517 5.02749 99.4806 4.62658 99.1617 4.30584C98.8427 3.96907 98.4999 3.70447 98.1331 3.51203C97.7663 3.31959 97.3835 3.18328 96.9849 3.10309C96.5862 3.00687 96.1955 2.95876 95.8127 2.95876C94.9835 2.95876 94.2579 3.12715 93.6359 3.46392C93.0299 3.80069 92.5196 4.2417 92.105 4.78694C91.7063 5.31615 91.4033 5.92554 91.196 6.61512C90.9886 7.28866 90.885 7.9622 90.885 8.63574C90.885 9.38946 91.0046 10.1191 91.2438 10.8247C91.483 11.5143 91.8179 12.1237 92.2485 12.6529C92.695 13.1821 93.2213 13.6071 93.8273 13.9278C94.4492 14.2486 95.127 14.4089 95.8606 14.4089C96.2433 14.4089 96.642 14.3608 97.0566 14.2646C97.4713 14.1684 97.862 14.016 98.2288 13.8076C98.6115 13.5991 98.9623 13.3345 99.2813 13.0137C99.6002 12.677 99.8554 12.2761 100.047 11.811L102.75 13.3746C102.479 14.016 102.088 14.5853 101.578 15.0825C101.083 15.5636 100.517 15.9725 99.8793 16.3093C99.2574 16.646 98.5876 16.9026 97.8699 17.079C97.1523 17.2554 96.4506 17.3436 95.7649 17.3436C94.5529 17.3436 93.4445 17.0871 92.4399 16.5739C91.4352 16.0607 90.566 15.3952 89.8325 14.5773C89.1148 13.7434 88.5487 12.8053 88.1341 11.7629C87.7354 10.7045 87.536 9.63001 87.536 8.53952Z" fill="#CFDBD5"/>
<path d="M109.562 0.120275H112.48L118.939 17.1993H115.542L113.964 12.9416H108.031L106.476 17.1993H103.08L109.562 0.120275ZM113.366 10.6082L111.021 3.89691L108.581 10.6082H113.366Z" fill="#CFDBD5"/>
<path d="M124.103 6.2543V17.1993H120.802V0.120275H123.362L132.212 11.3299V0.144329H135.513V17.1993H132.834L124.103 6.2543Z" fill="#CFDBD5"/>
<path d="M9.52059 23.4536V34.8396H7.3358V29.9805H2.20074V34.8396H0V23.4536H2.20074V28.0561H7.3358V23.4536H9.52059Z" fill="#CFDBD5"/>
<path d="M16.0635 35C15.3831 35 14.7718 34.8824 14.2296 34.6472C13.6873 34.412 13.2249 34.0966 12.8421 33.701C12.47 33.2948 12.183 32.8297 11.981 32.3058C11.779 31.782 11.678 31.2314 11.678 30.6541C11.678 30.0661 11.779 29.5101 11.981 28.9863C12.183 28.4624 12.47 28.0027 12.8421 27.6071C13.2249 27.2008 13.6873 26.8801 14.2296 26.6449C14.7718 26.4097 15.3831 26.2921 16.0635 26.2921C16.7439 26.2921 17.3499 26.4097 17.8815 26.6449C18.4237 26.8801 18.8809 27.2008 19.253 27.6071C19.6357 28.0027 19.9281 28.4624 20.1301 28.9863C20.3321 29.5101 20.4331 30.0661 20.4331 30.6541C20.4331 31.2314 20.3321 31.782 20.1301 32.3058C19.9281 32.8297 19.641 33.2948 19.2689 33.701C18.8968 34.0966 18.4397 34.412 17.8975 34.6472C17.3552 34.8824 16.7439 35 16.0635 35ZM13.8787 30.6541C13.8787 31.0283 13.9319 31.3704 14.0382 31.6804C14.1551 31.9798 14.3093 32.2417 14.5007 32.4662C14.7027 32.6907 14.9366 32.8671 15.2023 32.9954C15.4681 33.113 15.7552 33.1718 16.0635 33.1718C16.3718 33.1718 16.6589 33.113 16.9247 32.9954C17.1905 32.8671 17.419 32.6907 17.6104 32.4662C17.8124 32.2417 17.9666 31.9744 18.0729 31.6644C18.1898 31.3543 18.2483 31.0122 18.2483 30.638C18.2483 30.2745 18.1898 29.9378 18.0729 29.6277C17.9666 29.3177 17.8124 29.0504 17.6104 28.8259C17.419 28.6014 17.1905 28.4303 16.9247 28.3127C16.6589 28.1844 16.3718 28.1203 16.0635 28.1203C15.7552 28.1203 15.4681 28.1844 15.2023 28.3127C14.9366 28.441 14.7027 28.6174 14.5007 28.8419C14.3093 29.0664 14.1551 29.3337 14.0382 29.6438C13.9319 29.9538 13.8787 30.2906 13.8787 30.6541Z" fill="#CFDBD5"/>
<path d="M25.0649 35C24.2038 35 23.5499 34.722 23.1034 34.1661C22.6569 33.6102 22.4336 32.7869 22.4336 31.6964V26.4364H24.5706V31.2314C24.5706 32.525 25.033 33.1718 25.958 33.1718C26.3726 33.1718 26.7713 33.0489 27.154 32.803C27.5474 32.5464 27.8664 32.1615 28.1109 31.6483V26.4364H30.2478V32.37C30.2478 32.5945 30.285 32.7549 30.3595 32.8511C30.4445 32.9473 30.5774 33.0008 30.7581 33.0115V34.8396C30.5455 34.8824 30.3648 34.9091 30.2159 34.9198C30.0777 34.9305 29.9501 34.9359 29.8332 34.9359C29.4505 34.9359 29.1368 34.8503 28.8923 34.6793C28.6584 34.4975 28.5202 34.2516 28.4777 33.9416L28.4298 33.268C28.0577 33.8454 27.5793 34.2784 26.9946 34.567C26.4098 34.8557 25.7666 35 25.0649 35Z" fill="#CFDBD5"/>
<path d="M36.1669 35C35.4652 35 34.7795 34.8877 34.1097 34.6632C33.4399 34.4387 32.8658 34.118 32.3874 33.701L33.1848 32.354C33.6951 32.7174 34.1894 32.9954 34.6679 33.1879C35.1569 33.3696 35.6407 33.4605 36.1191 33.4605C36.5443 33.4605 36.8792 33.3803 37.1238 33.2199C37.3683 33.0596 37.4906 32.8297 37.4906 32.5304C37.4906 32.231 37.347 32.0118 37.06 31.8729C36.7729 31.7339 36.3051 31.5735 35.6566 31.3918C35.1144 31.2421 34.6519 31.0977 34.2692 30.9588C33.8864 30.8198 33.5781 30.6648 33.3442 30.4937C33.1103 30.3119 32.9402 30.1088 32.8339 29.8843C32.7276 29.6491 32.6744 29.3711 32.6744 29.0504C32.6744 28.6228 32.7542 28.2379 32.9137 27.8958C33.0838 27.5536 33.3177 27.265 33.6153 27.0298C33.913 26.7839 34.2586 26.5968 34.6519 26.4685C35.0559 26.3402 35.4918 26.2761 35.9596 26.2761C36.5869 26.2761 37.1716 26.3669 37.7138 26.5487C38.2667 26.7304 38.7717 27.0244 39.2288 27.4307L38.3677 28.7297C37.9424 28.4089 37.5278 28.1737 37.1238 28.0241C36.7304 27.8744 36.337 27.7995 35.9437 27.7995C35.5822 27.7995 35.2792 27.8744 35.0347 28.0241C34.7901 28.1737 34.6679 28.4143 34.6679 28.7457C34.6679 28.8954 34.6945 29.0183 34.7476 29.1145C34.8114 29.2108 34.9071 29.2963 35.0347 29.3711C35.1622 29.446 35.327 29.5208 35.529 29.5956C35.7417 29.6598 36.0021 29.7293 36.3105 29.8041C36.8846 29.9538 37.3736 30.1035 37.7776 30.2531C38.1922 30.4028 38.5271 30.5739 38.7823 30.7663C39.0481 30.9588 39.2395 31.1833 39.3564 31.4399C39.484 31.6858 39.5478 31.9851 39.5478 32.3379C39.5478 33.1611 39.2448 33.8133 38.6388 34.2944C38.0328 34.7648 37.2088 35 36.1669 35Z" fill="#CFDBD5"/>
<path d="M45.4494 35C44.7796 35 44.1736 34.8877 43.6314 34.6632C43.0892 34.428 42.6267 34.1126 42.244 33.7171C41.8613 33.3215 41.5636 32.8618 41.3509 32.3379C41.1489 31.8141 41.0479 31.2635 41.0479 30.6861C41.0479 30.0874 41.1489 29.5262 41.3509 29.0023C41.5529 28.4677 41.8453 28.0027 42.2281 27.6071C42.6108 27.2008 43.0733 26.8801 43.6155 26.6449C44.1683 26.4097 44.785 26.2921 45.4654 26.2921C46.1458 26.2921 46.7518 26.4097 47.2834 26.6449C47.8256 26.8801 48.2827 27.1955 48.6548 27.5911C49.0376 27.9866 49.3246 28.4464 49.516 28.9702C49.718 29.4941 49.819 30.0393 49.819 30.606C49.819 30.7449 49.8137 30.8786 49.8031 31.0069C49.8031 31.1352 49.7924 31.2421 49.7712 31.3276H43.3125C43.3444 31.659 43.4241 31.953 43.5517 32.2096C43.6793 32.4662 43.8441 32.6854 44.0461 32.8671C44.2481 33.0489 44.4766 33.1879 44.7318 33.2841C44.9869 33.3803 45.2527 33.4284 45.5292 33.4284C45.9544 33.4284 46.3531 33.3268 46.7252 33.1237C47.108 32.9099 47.3684 32.6319 47.5066 32.2898L49.3406 32.803C49.0323 33.4444 48.5379 33.9737 47.8575 34.3906C47.1877 34.7969 46.385 35 45.4494 35ZM47.6183 29.9324C47.5651 29.3016 47.3312 28.7992 46.9166 28.425C46.5126 28.0401 46.0182 27.8477 45.4335 27.8477C45.1464 27.8477 44.8753 27.9011 44.6202 28.008C44.3756 28.1042 44.1577 28.2432 43.9663 28.425C43.775 28.6067 43.6155 28.8259 43.4879 29.0825C43.3709 29.3391 43.3018 29.6224 43.2806 29.9324H47.6183Z" fill="#CFDBD5"/>
<path d="M60.087 35C59.4066 35 58.7953 34.8824 58.2531 34.6472C57.7108 34.412 57.2484 34.0966 56.8656 33.701C56.4935 33.2948 56.2065 32.8297 56.0045 32.3058C55.8025 31.782 55.7015 31.2314 55.7015 30.6541C55.7015 30.0661 55.8025 29.5101 56.0045 28.9863C56.2065 28.4624 56.4935 28.0027 56.8656 27.6071C57.2484 27.2008 57.7108 26.8801 58.2531 26.6449C58.7953 26.4097 59.4066 26.2921 60.087 26.2921C60.7674 26.2921 61.3734 26.4097 61.905 26.6449C62.4472 26.8801 62.9044 27.2008 63.2765 27.6071C63.6592 28.0027 63.9516 28.4624 64.1536 28.9863C64.3556 29.5101 64.4566 30.0661 64.4566 30.6541C64.4566 31.2314 64.3556 31.782 64.1536 32.3058C63.9516 32.8297 63.6645 33.2948 63.2924 33.701C62.9203 34.0966 62.4632 34.412 61.921 34.6472C61.3787 34.8824 60.7674 35 60.087 35ZM57.9022 30.6541C57.9022 31.0283 57.9554 31.3704 58.0617 31.6804C58.1786 31.9798 58.3328 32.2417 58.5242 32.4662C58.7262 32.6907 58.9601 32.8671 59.2258 32.9954C59.4916 33.113 59.7787 33.1718 60.087 33.1718C60.3953 33.1718 60.6824 33.113 60.9482 32.9954C61.214 32.8671 61.4425 32.6907 61.6339 32.4662C61.8359 32.2417 61.9901 31.9744 62.0964 31.6644C62.2133 31.3543 62.2718 31.0122 62.2718 30.638C62.2718 30.2745 62.2133 29.9378 62.0964 29.6277C61.9901 29.3177 61.8359 29.0504 61.6339 28.8259C61.4425 28.6014 61.214 28.4303 60.9482 28.3127C60.6824 28.1844 60.3953 28.1203 60.087 28.1203C59.7787 28.1203 59.4916 28.1844 59.2258 28.3127C58.9601 28.441 58.7262 28.6174 58.5242 28.8419C58.3328 29.0664 58.1786 29.3337 58.0617 29.6438C57.9554 29.9538 57.9022 30.2906 57.9022 30.6541Z" fill="#CFDBD5"/>
<path d="M66.9226 34.8396V28.5212H65.8222V26.8855H66.9226V26.3723C66.9226 25.3245 67.1724 24.496 67.6721 23.8866C68.1718 23.2772 68.8522 22.9725 69.7134 22.9725C70.3938 22.9725 71.0795 23.1382 71.7706 23.4696L71.34 25.0893C71.1805 25.0038 70.9892 24.9343 70.7659 24.8809C70.5533 24.8167 70.3566 24.7846 70.1758 24.7846C69.4316 24.7846 69.0595 25.2871 69.0595 26.2921V26.8855H71.1008V28.5212H69.0595V34.8396H66.9226Z" fill="#CFDBD5"/>
<path d="M84.032 26.4364C83.9576 26.3616 83.8194 26.26 83.6174 26.1317C83.426 26.0034 83.1868 25.8805 82.8997 25.7629C82.6233 25.6346 82.3203 25.5277 81.9907 25.4422C81.6611 25.3566 81.3263 25.3139 80.9861 25.3139C80.3801 25.3139 79.9282 25.4261 79.6305 25.6506C79.3328 25.8751 79.184 26.1905 79.184 26.5968C79.184 26.832 79.2372 27.0298 79.3435 27.1901C79.4604 27.3398 79.6252 27.4735 79.8378 27.5911C80.0505 27.7087 80.3163 27.8156 80.6352 27.9118C80.9648 28.008 81.3422 28.1096 81.7675 28.2165C82.3203 28.3662 82.82 28.5265 83.2665 28.6976C83.7237 28.8687 84.1064 29.0825 84.4147 29.3391C84.7337 29.5956 84.9782 29.9057 85.1483 30.2692C85.3184 30.622 85.4035 31.0603 85.4035 31.5842C85.4035 32.1936 85.2865 32.7174 85.0526 33.1558C84.8294 33.5834 84.521 33.9309 84.1277 34.1982C83.7449 34.4654 83.2984 34.6632 82.7881 34.7915C82.2884 34.9091 81.7622 34.9679 81.2093 34.9679C80.3588 34.9679 79.5189 34.8396 78.6896 34.583C77.8604 34.3265 77.1161 33.963 76.457 33.4926L77.4298 31.5842C77.5255 31.6804 77.6956 31.8087 77.9401 31.9691C78.1953 32.1187 78.4929 32.2738 78.8332 32.4341C79.1734 32.5838 79.5508 32.7121 79.9654 32.819C80.3801 32.9259 80.8053 32.9794 81.2412 32.9794C82.4532 32.9794 83.0592 32.5892 83.0592 31.8087C83.0592 31.5628 82.9901 31.3543 82.8519 31.1833C82.7137 31.0122 82.517 30.8625 82.2618 30.7343C82.0067 30.606 81.6984 30.4884 81.3369 30.3814C80.9754 30.2745 80.5714 30.1569 80.1249 30.0286C79.5827 29.879 79.1096 29.7186 78.7056 29.5475C78.3122 29.3658 77.9826 29.1573 77.7168 28.9221C77.451 28.6762 77.249 28.3982 77.1108 28.0882C76.9833 27.7675 76.9195 27.3879 76.9195 26.9496C76.9195 26.3723 77.0258 25.8591 77.2384 25.4101C77.451 24.9611 77.7434 24.5869 78.1155 24.2875C78.4983 23.9882 78.9395 23.7637 79.4391 23.614C79.9388 23.4536 80.4757 23.3734 81.0498 23.3734C81.8472 23.3734 82.5808 23.5017 83.2506 23.7583C83.9204 24.0042 84.5051 24.2982 85.0048 24.6403L84.032 26.4364Z" fill="#CFDBD5"/>
<path d="M92.4111 34.4066C92.1241 34.5349 91.7732 34.6632 91.3586 34.7915C90.9439 34.9198 90.508 34.984 90.0509 34.984C89.7532 34.984 89.4715 34.9465 89.2057 34.8717C88.9505 34.7969 88.7219 34.6793 88.5199 34.5189C88.3286 34.3478 88.1744 34.134 88.0575 33.8774C87.9405 33.6102 87.882 33.2894 87.882 32.9152V28.0882H86.7817V26.4364H87.882V23.7102H90.019V26.4364H91.7732V28.0882H90.019V32.1936C90.019 32.4929 90.0934 32.7068 90.2423 32.8351C90.4017 32.9527 90.5931 33.0115 90.8164 33.0115C91.0396 33.0115 91.2576 32.974 91.4702 32.8992C91.6828 32.8244 91.8529 32.7602 91.9805 32.7068L92.4111 34.4066Z" fill="#CFDBD5"/>
<path d="M96.7135 35C95.8524 35 95.1985 34.722 94.752 34.1661C94.3055 33.6102 94.0822 32.7869 94.0822 31.6964V26.4364H96.2192V31.2314C96.2192 32.525 96.6816 33.1718 97.6066 33.1718C98.0212 33.1718 98.4199 33.0489 98.8026 32.803C99.196 32.5464 99.515 32.1615 99.7595 31.6483V26.4364H101.896V32.37C101.896 32.5945 101.934 32.7549 102.008 32.8511C102.093 32.9473 102.226 33.0008 102.407 33.0115V34.8396C102.194 34.8824 102.013 34.9091 101.865 34.9198C101.726 34.9305 101.599 34.9359 101.482 34.9359C101.099 34.9359 100.785 34.8503 100.541 34.6793C100.307 34.4975 100.169 34.2516 100.126 33.9416L100.078 33.268C99.7063 33.8454 99.2279 34.2784 98.6432 34.567C98.0584 34.8557 97.4152 35 96.7135 35Z" fill="#CFDBD5"/>
<path d="M108.119 35C107.544 35 107.013 34.8877 106.524 34.6632C106.035 34.4387 105.615 34.1287 105.264 33.7331C104.913 33.3375 104.637 32.8778 104.435 32.354C104.243 31.8194 104.148 31.2474 104.148 30.638C104.148 30.0286 104.238 29.462 104.419 28.9381C104.61 28.4143 104.871 27.9546 105.2 27.559C105.53 27.1634 105.923 26.8534 106.38 26.6289C106.837 26.4044 107.337 26.2921 107.879 26.2921C108.496 26.2921 109.049 26.4418 109.538 26.7411C110.038 27.0405 110.426 27.4307 110.702 27.9118V23.1329H112.839V32.37C112.839 32.5945 112.876 32.7549 112.951 32.8511C113.025 32.9473 113.153 33.0008 113.333 33.0115V34.8396C112.961 34.9145 112.658 34.9519 112.424 34.9519C112.042 34.9519 111.728 34.8557 111.483 34.6632C111.239 34.4708 111.101 34.2195 111.069 33.9095L111.021 33.3803C110.713 33.9149 110.293 34.3211 109.761 34.5991C109.24 34.8664 108.693 35 108.119 35ZM108.677 33.1718C108.879 33.1718 109.086 33.1397 109.299 33.0756C109.511 33.0008 109.708 32.8992 109.889 32.7709C110.069 32.6426 110.229 32.4929 110.367 32.3219C110.516 32.1508 110.628 31.9637 110.702 31.7606V29.756C110.617 29.5208 110.495 29.307 110.335 29.1145C110.186 28.9114 110.011 28.7404 109.809 28.6014C109.618 28.4517 109.41 28.3341 109.187 28.2486C108.974 28.163 108.762 28.1203 108.549 28.1203C108.23 28.1203 107.932 28.1898 107.656 28.3288C107.39 28.4677 107.162 28.6602 106.97 28.9061C106.779 29.1413 106.63 29.4139 106.524 29.7239C106.417 30.034 106.364 30.3547 106.364 30.6861C106.364 31.0389 106.423 31.365 106.54 31.6644C106.657 31.9637 106.816 32.2257 107.018 32.4502C107.22 32.6747 107.459 32.8511 107.736 32.9794C108.023 33.1077 108.336 33.1718 108.677 33.1718Z" fill="#CFDBD5"/>
<path d="M115.574 34.8396V26.4364H117.711V34.8396H115.574ZM115.574 25.2658V23.1329H117.711V25.2658H115.574Z" fill="#CFDBD5"/>
<path d="M124.152 35C123.482 35 122.876 34.8877 122.334 34.6632C121.792 34.428 121.33 34.1126 120.947 33.7171C120.564 33.3215 120.266 32.8618 120.054 32.3379C119.852 31.8141 119.751 31.2635 119.751 30.6861C119.751 30.0874 119.852 29.5262 120.054 29.0023C120.256 28.4677 120.548 28.0027 120.931 27.6071C121.314 27.2008 121.776 26.8801 122.318 26.6449C122.871 26.4097 123.488 26.2921 124.168 26.2921C124.849 26.2921 125.455 26.4097 125.986 26.6449C126.528 26.8801 126.986 27.1955 127.358 27.5911C127.74 27.9866 128.027 28.4464 128.219 28.9702C128.421 29.4941 128.522 30.0393 128.522 30.606C128.522 30.7449 128.517 30.8786 128.506 31.0069C128.506 31.1352 128.495 31.2421 128.474 31.3276H122.015C122.047 31.659 122.127 31.953 122.255 32.2096C122.382 32.4662 122.547 32.6854 122.749 32.8671C122.951 33.0489 123.179 33.1879 123.435 33.2841C123.69 33.3803 123.956 33.4284 124.232 33.4284C124.657 33.4284 125.056 33.3268 125.428 33.1237C125.811 32.9099 126.071 32.6319 126.209 32.2898L128.043 32.803C127.735 33.4444 127.241 33.9737 126.56 34.3906C125.891 34.7969 125.088 35 124.152 35ZM126.321 29.9324C126.268 29.3016 126.034 28.7992 125.619 28.425C125.215 28.0401 124.721 27.8477 124.136 27.8477C123.849 27.8477 123.578 27.9011 123.323 28.008C123.078 28.1042 122.861 28.2432 122.669 28.425C122.478 28.6067 122.318 28.8259 122.191 29.0825C122.074 29.3391 122.005 29.6224 121.983 29.9324H126.321Z" fill="#CFDBD5"/>
<path d="M133.619 35C132.917 35 132.232 34.8877 131.562 34.6632C130.892 34.4387 130.318 34.118 129.84 33.701L130.637 32.354C131.147 32.7174 131.642 32.9954 132.12 33.1879C132.609 33.3696 133.093 33.4605 133.571 33.4605C133.997 33.4605 134.331 33.3803 134.576 33.2199C134.821 33.0596 134.943 32.8297 134.943 32.5304C134.943 32.231 134.799 32.0118 134.512 31.8729C134.225 31.7339 133.757 31.5735 133.109 31.3918C132.567 31.2421 132.104 31.0977 131.721 30.9588C131.339 30.8198 131.03 30.6648 130.796 30.4937C130.563 30.3119 130.392 30.1088 130.286 29.8843C130.18 29.6491 130.127 29.3711 130.127 29.0504C130.127 28.6228 130.206 28.2379 130.366 27.8958C130.536 27.5536 130.77 27.265 131.068 27.0298C131.365 26.7839 131.711 26.5968 132.104 26.4685C132.508 26.3402 132.944 26.2761 133.412 26.2761C134.039 26.2761 134.624 26.3669 135.166 26.5487C135.719 26.7304 136.224 27.0244 136.681 27.4307L135.82 28.7297C135.395 28.4089 134.98 28.1737 134.576 28.0241C134.183 27.8744 133.789 27.7995 133.396 27.7995C133.034 27.7995 132.731 27.8744 132.487 28.0241C132.242 28.1737 132.12 28.4143 132.12 28.7457C132.12 28.8954 132.147 29.0183 132.2 29.1145C132.264 29.2108 132.359 29.2963 132.487 29.3711C132.614 29.446 132.779 29.5208 132.981 29.5956C133.194 29.6598 133.454 29.7293 133.763 29.8041C134.337 29.9538 134.826 30.1035 135.23 30.2531C135.644 30.4028 135.979 30.5739 136.235 30.7663C136.5 30.9588 136.692 31.1833 136.809 31.4399C136.936 31.6858 137 31.9851 137 32.3379C137 33.1611 136.697 33.8133 136.091 34.2944C135.485 34.7648 134.661 35 133.619 35Z" fill="#CFDBD5"/>
</svg>
