<svg width="180" height="47" viewBox="0 0 180 47" fill="none" xmlns="http://www.w3.org/2000/svg">
<path d="M0.958385 23.0962V0.161512H9.06711C10.89 0.161512 12.4824 0.463001 13.8443 1.06598C15.2272 1.66896 16.3796 2.48729 17.3015 3.52096C18.2235 4.55464 18.9149 5.77136 19.3759 7.17113C19.8368 8.54937 20.0673 10.0245 20.0673 11.5966C20.0673 13.3409 19.8054 14.9237 19.2816 16.345C18.7787 17.7448 18.0454 18.9507 17.0815 19.9629C16.1177 20.9535 14.9548 21.7288 13.5929 22.2887C12.2519 22.827 10.7433 23.0962 9.06711 23.0962H0.958385ZM15.6987 11.5966C15.6987 10.4983 15.552 9.48614 15.2586 8.56014C14.9653 7.63413 14.5358 6.83734 13.9701 6.16976C13.4043 5.50218 12.7024 4.98534 11.8643 4.61924C11.0471 4.25315 10.1147 4.0701 9.06711 4.0701H5.29561V19.1876H9.06711C10.1357 19.1876 11.0786 18.9938 11.8957 18.6062C12.7338 18.2186 13.4253 17.691 13.9701 17.0234C14.5358 16.3343 14.9653 15.5267 15.2586 14.6007C15.552 13.6747 15.6987 12.6733 15.6987 11.5966Z" fill="#CFDBD5"/>
<path d="M32.979 23.2577C31.3447 23.2577 29.8571 22.9347 28.5161 22.2887C27.1961 21.6211 26.0542 20.7489 25.0903 19.6722C24.1475 18.5739 23.4141 17.3249 22.8903 15.9251C22.3665 14.5253 22.1046 13.0932 22.1046 11.6289C22.1046 10.0999 22.3769 8.63551 22.9217 7.23574C23.4874 5.83597 24.2522 4.59771 25.216 3.52096C26.2008 2.44422 27.3637 1.59359 28.7047 0.969071C30.0457 0.323024 31.5019 0 33.0733 0C34.6867 0 36.1534 0.344559 37.4734 1.03368C38.8144 1.70126 39.9563 2.58419 40.8992 3.68248C41.8421 4.78076 42.5754 6.02978 43.0992 7.42955C43.6231 8.82932 43.885 10.2506 43.885 11.6935C43.885 13.2225 43.6126 14.6868 43.0678 16.0866C42.523 17.4648 41.7687 18.6923 40.8049 19.7691C39.8411 20.8243 38.6887 21.6749 37.3477 22.321C36.0067 22.9455 34.5505 23.2577 32.979 23.2577ZM26.5046 11.6289C26.5046 12.6195 26.6513 13.5778 26.9446 14.5038C27.238 15.4298 27.657 16.2481 28.2018 16.9588C28.7675 17.6694 29.4485 18.2401 30.2447 18.6708C31.0619 19.1015 31.9838 19.3168 33.0105 19.3168C34.0581 19.3168 34.98 19.1015 35.7762 18.6708C36.5934 18.2186 37.2744 17.6263 37.8191 16.8942C38.3849 16.162 38.8039 15.3436 39.0763 14.4392C39.3696 13.5132 39.5163 12.5764 39.5163 11.6289C39.5163 10.6383 39.3592 9.67995 39.0449 8.75395C38.7515 7.82795 38.322 7.00962 37.7563 6.29897C37.2115 5.58832 36.5305 5.02841 35.7134 4.61924C34.9172 4.18855 34.0162 3.9732 33.0105 3.9732C31.9628 3.9732 31.0304 4.19931 30.2133 4.65155C29.3961 5.08225 28.7152 5.66369 28.1704 6.39588C27.6256 7.10653 27.2066 7.92486 26.9132 8.85086C26.6408 9.75533 26.5046 10.6813 26.5046 11.6289Z" fill="#CFDBD5"/>
<path d="M65.4095 23.0962V7.91409L59.658 19.2199H57.3008L51.5493 7.91409V23.0962H47.212V0.161512H51.8635L58.4637 13.2117L65.1266 0.161512H69.7467V23.0962H65.4095Z" fill="#CFDBD5"/>
<path d="M74.4056 23.0962V0.161512H78.7428V23.0962H74.4056Z" fill="#CFDBD5"/>
<path d="M87.7357 8.39863V23.0962H83.3985V0.161512H86.7614L98.3902 15.2144V0.193814H102.727V23.0962H99.2074L87.7357 8.39863Z" fill="#CFDBD5"/>
<path d="M107.369 23.0962V0.161512H111.707V23.0962H107.369Z" fill="#CFDBD5"/>
<path d="M115.011 11.4674C115.011 10.0676 115.252 8.68935 115.734 7.33265C116.237 5.95441 116.959 4.72692 117.902 3.65017C118.845 2.57343 119.998 1.70126 121.36 1.03368C122.721 0.366094 124.272 0.032302 126.011 0.032302C128.064 0.032302 129.835 0.495304 131.323 1.42131C132.831 2.34731 133.952 3.55326 134.686 5.03918L131.354 7.39725C131.061 6.7512 130.704 6.21283 130.285 5.78213C129.866 5.3299 129.416 4.97457 128.934 4.71615C128.452 4.45773 127.949 4.27468 127.425 4.16701C126.902 4.0378 126.388 3.9732 125.885 3.9732C124.796 3.9732 123.842 4.19931 123.025 4.65155C122.229 5.10378 121.559 5.69599 121.014 6.42818C120.49 7.13883 120.092 7.95716 119.82 8.88316C119.547 9.78763 119.411 10.6921 119.411 11.5966C119.411 12.6087 119.568 13.5885 119.882 14.5361C120.197 15.4621 120.637 16.2804 121.202 16.9911C121.789 17.7017 122.481 18.2724 123.277 18.7031C124.094 19.1338 124.984 19.3491 125.948 19.3491C126.451 19.3491 126.975 19.2845 127.52 19.1553C128.064 19.0261 128.578 18.8215 129.06 18.5416C129.563 18.2616 130.024 17.9063 130.443 17.4756C130.862 17.0234 131.197 16.485 131.448 15.8605L135 17.9601C134.644 18.8215 134.13 19.586 133.46 20.2536C132.81 20.8997 132.066 21.4488 131.228 21.901C130.411 22.3533 129.531 22.6978 128.588 22.9347C127.645 23.1716 126.723 23.29 125.822 23.29C124.23 23.29 122.774 22.9455 121.454 22.2564C120.134 21.5672 118.992 20.6735 118.028 19.5753C117.085 18.4554 116.341 17.1956 115.797 15.7959C115.273 14.3746 115.011 12.9317 115.011 11.4674Z" fill="#CFDBD5"/>
<path d="M143.95 0.161512H147.785L156.27 23.0962H151.808L149.733 17.3787H141.939L139.896 23.0962H135.433L143.95 0.161512ZM148.947 14.2454L145.867 5.23299L142.662 14.2454H148.947Z" fill="#CFDBD5"/>
<path d="M163.055 8.39863V23.0962H158.718V0.161512H162.081L173.71 15.2144V0.193814H178.047V23.0962H174.527L163.055 8.39863Z" fill="#CFDBD5"/>
<path d="M12.5088 31.4948V46.7846H9.63827V40.2596H2.89148V46.7846H0V31.4948H2.89148V37.6754H9.63827V31.4948H12.5088Z" fill="#CFDBD5"/>
<path d="M21.1053 47C20.2113 47 19.4082 46.8421 18.6958 46.5262C17.9834 46.2104 17.3757 45.7869 16.8729 45.2557C16.384 44.7101 16.0068 44.0856 15.7414 43.3821C15.476 42.6787 15.3433 41.9393 15.3433 41.164C15.3433 40.3744 15.476 39.6279 15.7414 38.9244C16.0068 38.2209 16.384 37.6036 16.8729 37.0724C17.3757 36.5268 17.9834 36.0961 18.6958 35.7803C19.4082 35.4645 20.2113 35.3065 21.1053 35.3065C21.9993 35.3065 22.7955 35.4645 23.4939 35.7803C24.2063 36.0961 24.807 36.5268 25.2959 37.0724C25.7988 37.6036 26.1829 38.2209 26.4483 38.9244C26.7137 39.6279 26.8464 40.3744 26.8464 41.164C26.8464 41.9393 26.7137 42.6787 26.4483 43.3821C26.1829 44.0856 25.8057 44.7101 25.3168 45.2557C24.8279 45.7869 24.2273 46.2104 23.5149 46.5262C22.8025 46.8421 21.9993 47 21.1053 47ZM18.2348 41.164C18.2348 41.6665 18.3046 42.1259 18.4443 42.5423C18.598 42.9443 18.8005 43.296 19.052 43.5975C19.3174 43.899 19.6247 44.1359 19.9739 44.3081C20.3231 44.4661 20.7002 44.545 21.1053 44.545C21.5104 44.545 21.8876 44.4661 22.2368 44.3081C22.586 44.1359 22.8863 43.899 23.1378 43.5975C23.4032 43.296 23.6057 42.9371 23.7454 42.5207C23.899 42.1044 23.9759 41.645 23.9759 41.1425C23.9759 40.6544 23.899 40.2021 23.7454 39.7858C23.6057 39.3695 23.4032 39.0105 23.1378 38.709C22.8863 38.4076 22.586 38.1779 22.2368 38.0199C21.8876 37.8477 21.5104 37.7615 21.1053 37.7615C20.7002 37.7615 20.3231 37.8477 19.9739 38.0199C19.6247 38.1922 19.3174 38.4291 19.052 38.7306C18.8005 39.0321 18.598 39.391 18.4443 39.8073C18.3046 40.2237 18.2348 40.6759 18.2348 41.164Z" fill="#CFDBD5"/>
<path d="M32.932 47C31.8006 47 30.9415 46.6267 30.3548 45.8802C29.7682 45.1336 29.4748 44.0282 29.4748 42.5638V35.5003H32.2825V41.9393C32.2825 43.6764 32.8901 44.545 34.1054 44.545C34.6502 44.545 35.174 44.3799 35.6768 44.0497C36.1937 43.7052 36.6127 43.1883 36.934 42.4992V35.5003H39.7417V43.4683C39.7417 43.7698 39.7906 43.9851 39.8883 44.1143C40.0001 44.2435 40.1747 44.3153 40.4122 44.3297V46.7846C40.1328 46.8421 39.8953 46.878 39.6998 46.8923C39.5182 46.9067 39.3506 46.9139 39.1969 46.9139C38.694 46.9139 38.282 46.799 37.9607 46.5693C37.6534 46.3252 37.4718 45.995 37.4159 45.5787L37.3531 44.6742C36.8642 45.4495 36.2356 46.0309 35.4673 46.4186C34.699 46.8062 33.8539 47 32.932 47Z" fill="#CFDBD5"/>
<path d="M47.5186 47C46.5967 47 45.6957 46.8493 44.8157 46.5478C43.9357 46.2463 43.1814 45.8156 42.5528 45.2557L43.6004 43.4467C44.2709 43.9349 44.9204 44.3081 45.549 44.5666C46.1916 44.8106 46.8271 44.9326 47.4557 44.9326C48.0145 44.9326 48.4545 44.825 48.7758 44.6096C49.097 44.3943 49.2577 44.0856 49.2577 43.6836C49.2577 43.2816 49.0691 42.9873 48.6919 42.8007C48.3148 42.614 47.7002 42.3987 46.8481 42.1546C46.1357 41.9536 45.5281 41.7598 45.0252 41.5732C44.5223 41.3866 44.1173 41.1784 43.8099 40.9487C43.5026 40.7046 43.2791 40.4318 43.1395 40.1304C42.9998 39.8145 42.9299 39.4412 42.9299 39.0105C42.9299 38.4363 43.0347 37.9194 43.2442 37.46C43.4677 37.0006 43.775 36.613 44.1661 36.2971C44.5573 35.9669 45.0112 35.7157 45.5281 35.5434C46.0589 35.3711 46.6316 35.285 47.2462 35.285C48.0703 35.285 48.8386 35.407 49.551 35.6511C50.2774 35.8951 50.9409 36.29 51.5415 36.8355L50.4101 38.5798C49.8513 38.1491 49.3066 37.8333 48.7758 37.6323C48.2589 37.4313 47.7421 37.3308 47.2253 37.3308C46.7503 37.3308 46.3522 37.4313 46.0309 37.6323C45.7097 37.8333 45.549 38.1563 45.549 38.6014C45.549 38.8024 45.584 38.9675 45.6538 39.0967C45.7376 39.2259 45.8633 39.3407 46.0309 39.4412C46.1986 39.5417 46.4151 39.6422 46.6805 39.7427C46.9599 39.8289 47.3021 39.9222 47.7072 40.0227C48.4615 40.2237 49.104 40.4247 49.6348 40.6257C50.1796 40.8266 50.6196 41.0564 50.9548 41.3148C51.3041 41.5732 51.5555 41.8747 51.7091 42.2192C51.8768 42.5494 51.9606 42.9514 51.9606 43.4252C51.9606 44.5307 51.5625 45.4064 50.7663 46.0525C49.9701 46.6842 48.8875 47 47.5186 47Z" fill="#CFDBD5"/>
<path d="M59.7146 47C58.8346 47 58.0383 46.8493 57.326 46.5478C56.6136 46.2319 56.0059 45.8084 55.5031 45.2772C55.0002 44.746 54.6091 44.1287 54.3297 43.4252C54.0643 42.7217 53.9316 41.9824 53.9316 41.2071C53.9316 40.4031 54.0643 39.6494 54.3297 38.9459C54.5951 38.2281 54.9792 37.6036 55.4821 37.0724C55.985 36.5268 56.5926 36.0961 57.305 35.7803C58.0314 35.4645 58.8415 35.3065 59.7355 35.3065C60.6295 35.3065 61.4257 35.4645 62.1241 35.7803C62.8365 36.0961 63.4372 36.5197 63.9261 37.0509C64.4289 37.5821 64.8061 38.1994 65.0575 38.9029C65.3229 39.6063 65.4556 40.3385 65.4556 41.0994C65.4556 41.2861 65.4486 41.4655 65.4347 41.6378C65.4347 41.8101 65.4207 41.9536 65.3928 42.0685H56.9069C56.9488 42.5136 57.0536 42.9084 57.2212 43.2529C57.3888 43.5975 57.6053 43.8918 57.8707 44.1359C58.1361 44.3799 58.4365 44.5666 58.7717 44.6958C59.1069 44.825 59.4562 44.8896 59.8193 44.8896C60.3781 44.8896 60.9019 44.7532 61.3908 44.4804C61.8937 44.1933 62.2359 43.82 62.4175 43.3606L64.827 44.0497C64.422 44.9111 63.7724 45.6218 62.8784 46.1817C61.9984 46.7272 60.9438 47 59.7146 47ZM62.5641 40.195C62.4943 39.3479 62.187 38.6732 61.6422 38.1707C61.1114 37.6538 60.4619 37.3954 59.6936 37.3954C59.3165 37.3954 58.9603 37.4672 58.625 37.6108C58.3038 37.74 58.0174 37.9266 57.766 38.1707C57.5145 38.4147 57.305 38.709 57.1374 39.0536C56.9837 39.3982 56.8929 39.7786 56.865 40.195H62.5641Z" fill="#CFDBD5"/>
<path d="M78.9464 47C78.0524 47 77.2493 46.8421 76.5369 46.5262C75.8245 46.2104 75.2168 45.7869 74.714 45.2557C74.2251 44.7101 73.8479 44.0856 73.5825 43.3821C73.3171 42.6787 73.1844 41.9393 73.1844 41.164C73.1844 40.3744 73.3171 39.6279 73.5825 38.9244C73.8479 38.2209 74.2251 37.6036 74.714 37.0724C75.2168 36.5268 75.8245 36.0961 76.5369 35.7803C77.2493 35.4645 78.0524 35.3065 78.9464 35.3065C79.8404 35.3065 80.6366 35.4645 81.3351 35.7803C82.0474 36.0961 82.6481 36.5268 83.137 37.0724C83.6398 37.6036 84.024 38.2209 84.2894 38.9244C84.5548 39.6279 84.6875 40.3744 84.6875 41.164C84.6875 41.9393 84.5548 42.6787 84.2894 43.3821C84.024 44.0856 83.6468 44.7101 83.1579 45.2557C82.669 45.7869 82.0684 46.2104 81.356 46.5262C80.6436 46.8421 79.8404 47 78.9464 47ZM76.0759 41.164C76.0759 41.6665 76.1457 42.1259 76.2854 42.5423C76.4391 42.9443 76.6416 43.296 76.8931 43.5975C77.1585 43.899 77.4658 44.1359 77.815 44.3081C78.1642 44.4661 78.5413 44.545 78.9464 44.545C79.3515 44.545 79.7287 44.4661 80.0779 44.3081C80.4271 44.1359 80.7274 43.899 80.9789 43.5975C81.2442 43.296 81.4468 42.9371 81.5865 42.5207C81.7401 42.1044 81.817 41.645 81.817 41.1425C81.817 40.6544 81.7401 40.2021 81.5865 39.7858C81.4468 39.3695 81.2442 39.0105 80.9789 38.709C80.7274 38.4076 80.4271 38.1779 80.0779 38.0199C79.7287 37.8477 79.3515 37.7615 78.9464 37.7615C78.5413 37.7615 78.1642 37.8477 77.815 38.0199C77.4658 38.1922 77.1585 38.4291 76.8931 38.7306C76.6416 39.0321 76.4391 39.391 76.2854 39.8073C76.1457 40.2237 76.0759 40.6759 76.0759 41.164Z" fill="#CFDBD5"/>
<path d="M87.9275 46.7846V38.2999H86.4817V36.1033H87.9275V35.4142C87.9275 34.0073 88.2557 32.8946 88.9123 32.0763C89.5688 31.258 90.4628 30.8488 91.5942 30.8488C92.4882 30.8488 93.3892 31.0713 94.2971 31.5164L93.7314 33.6914C93.5219 33.5766 93.2704 33.4832 92.9771 33.4115C92.6977 33.3253 92.4393 33.2822 92.2018 33.2822C91.224 33.2822 90.7351 33.957 90.7351 35.3065V36.1033H93.4171V38.2999H90.7351V46.7846H87.9275Z" fill="#CFDBD5"/>
<path d="M110.407 35.5003C110.309 35.3998 110.128 35.2635 109.862 35.0912C109.611 34.9189 109.297 34.7538 108.919 34.5959C108.556 34.4236 108.158 34.28 107.725 34.1652C107.292 34.0503 106.852 33.9929 106.405 33.9929C105.609 33.9929 105.015 34.1436 104.624 34.4451C104.233 34.7466 104.037 35.1701 104.037 35.7157C104.037 36.0315 104.107 36.2971 104.247 36.5125C104.401 36.7135 104.617 36.8929 104.896 37.0509C105.176 37.2088 105.525 37.3523 105.944 37.4816C106.377 37.6108 106.873 37.7472 107.432 37.8907C108.158 38.0917 108.815 38.3071 109.401 38.5368C110.002 38.7665 110.505 39.0536 110.91 39.3982C111.329 39.7427 111.65 40.1591 111.874 40.6472C112.097 41.121 112.209 41.7096 112.209 42.4131C112.209 43.2314 112.055 43.9349 111.748 44.5235C111.455 45.0977 111.05 45.5643 110.533 45.9233C110.03 46.2822 109.443 46.5478 108.773 46.72C108.116 46.878 107.425 46.9569 106.698 46.9569C105.581 46.9569 104.477 46.7846 103.388 46.4401C102.298 46.0955 101.32 45.6074 100.454 44.9757L101.733 42.4131C101.858 42.5423 102.082 42.7145 102.403 42.9299C102.738 43.1309 103.129 43.3391 103.576 43.5544C104.023 43.7554 104.519 43.9277 105.064 44.0712C105.609 44.2148 106.168 44.2866 106.74 44.2866C108.333 44.2866 109.129 43.7626 109.129 42.7146C109.129 42.3843 109.038 42.1044 108.856 41.8747C108.675 41.645 108.416 41.444 108.081 41.2717C107.746 41.0994 107.341 40.9415 106.866 40.7979C106.391 40.6544 105.86 40.4964 105.274 40.3242C104.561 40.1232 103.94 39.9078 103.409 39.6781C102.892 39.4341 102.459 39.1541 102.11 38.8383C101.76 38.5081 101.495 38.1348 101.314 37.7184C101.146 37.2877 101.062 36.7781 101.062 36.1895C101.062 35.4142 101.202 34.7251 101.481 34.1221C101.76 33.5191 102.145 33.0166 102.634 32.6147C103.136 32.2127 103.716 31.9112 104.373 31.7102C105.029 31.4948 105.735 31.3872 106.489 31.3872C107.536 31.3872 108.5 31.5594 109.38 31.904C110.26 32.2342 111.029 32.629 111.685 33.0884L110.407 35.5003Z" fill="#CFDBD5"/>
<path d="M121.416 46.2032C121.039 46.3755 120.578 46.5478 120.033 46.72C119.488 46.8923 118.916 46.9785 118.315 46.9785C117.924 46.9785 117.554 46.9282 117.205 46.8277C116.869 46.7272 116.569 46.5693 116.304 46.354C116.052 46.1242 115.85 45.8371 115.696 45.4926C115.542 45.1336 115.465 44.7029 115.465 44.2005V37.7184H114.02V35.5003H115.465V31.8394H118.273V35.5003H120.578V37.7184H118.273V43.2314C118.273 43.6334 118.371 43.9205 118.566 44.0928C118.776 44.2507 119.027 44.3297 119.321 44.3297C119.614 44.3297 119.9 44.2794 120.18 44.1789C120.459 44.0784 120.683 43.9923 120.85 43.9205L121.416 46.2032Z" fill="#CFDBD5"/>
<path d="M127.069 47C125.937 47 125.078 46.6267 124.492 45.8802C123.905 45.1336 123.612 44.0282 123.612 42.5638V35.5003H126.419V41.9393C126.419 43.6764 127.027 44.545 128.242 44.545C128.787 44.545 129.311 44.3799 129.814 44.0497C130.331 43.7052 130.75 43.1883 131.071 42.4992V35.5003H133.879V43.4683C133.879 43.7698 133.927 43.9851 134.025 44.1143C134.137 44.2435 134.312 44.3153 134.549 44.3297V46.7846C134.27 46.8421 134.032 46.878 133.837 46.8923C133.655 46.9067 133.487 46.9139 133.334 46.9139C132.831 46.9139 132.419 46.799 132.098 46.5693C131.79 46.3252 131.609 45.995 131.553 45.5787L131.49 44.6742C131.001 45.4495 130.372 46.0309 129.604 46.4186C128.836 46.8062 127.991 47 127.069 47Z" fill="#CFDBD5"/>
<path d="M142.054 47C141.299 47 140.601 46.8493 139.958 46.5478C139.316 46.2463 138.764 45.8299 138.303 45.2987C137.842 44.7675 137.479 44.1502 137.213 43.4467C136.962 42.7289 136.836 41.9608 136.836 41.1425C136.836 40.3242 136.955 39.5633 137.193 38.8598C137.444 38.1563 137.786 37.539 138.219 37.0078C138.652 36.4766 139.169 36.0602 139.77 35.7588C140.37 35.4573 141.027 35.3065 141.739 35.3065C142.549 35.3065 143.276 35.5075 143.918 35.9095C144.575 36.3115 145.085 36.8355 145.448 37.4816V31.0641H148.256V43.4683C148.256 43.7698 148.304 43.9851 148.402 44.1143C148.5 44.2435 148.668 44.3153 148.905 44.3297V46.7846C148.416 46.8851 148.018 46.9354 147.711 46.9354C147.208 46.9354 146.796 46.8062 146.475 46.5478C146.153 46.2893 145.972 45.952 145.93 45.5356L145.867 44.825C145.462 45.5428 144.91 46.0884 144.212 46.4616C143.527 46.8205 142.808 47 142.054 47ZM142.787 44.545C143.052 44.545 143.325 44.5019 143.604 44.4158C143.883 44.3153 144.142 44.1789 144.379 44.0066C144.617 43.8344 144.826 43.6334 145.008 43.4037C145.203 43.174 145.35 42.9227 145.448 42.6499V39.9581C145.336 39.6422 145.176 39.3551 144.966 39.0967C144.77 38.8239 144.54 38.5942 144.275 38.4076C144.023 38.2066 143.751 38.0486 143.457 37.9338C143.178 37.8189 142.899 37.7615 142.619 37.7615C142.2 37.7615 141.809 37.8548 141.446 38.0415C141.097 38.2281 140.796 38.4865 140.545 38.8167C140.294 39.1326 140.098 39.4987 139.958 39.915C139.819 40.3313 139.749 40.762 139.749 41.2071C139.749 41.6809 139.826 42.1187 139.979 42.5207C140.133 42.9227 140.342 43.2745 140.608 43.5759C140.873 43.8774 141.188 44.1143 141.551 44.2866C141.928 44.4589 142.34 44.545 142.787 44.545Z" fill="#CFDBD5"/>
<path d="M151.85 46.7846V35.5003H154.657V46.7846H151.85ZM151.85 33.9283V31.0641H154.657V33.9283H151.85Z" fill="#CFDBD5"/>
<path d="M163.12 47C162.24 47 161.444 46.8493 160.731 46.5478C160.019 46.2319 159.411 45.8084 158.908 45.2772C158.405 44.746 158.014 44.1287 157.735 43.4252C157.469 42.7217 157.337 41.9824 157.337 41.2071C157.337 40.4031 157.469 39.6494 157.735 38.9459C158 38.2281 158.384 37.6036 158.887 37.0724C159.39 36.5268 159.998 36.0961 160.71 35.7803C161.437 35.4645 162.247 35.3065 163.141 35.3065C164.035 35.3065 164.831 35.4645 165.529 35.7803C166.242 36.0961 166.842 36.5197 167.331 37.0509C167.834 37.5821 168.211 38.1994 168.463 38.9029C168.728 39.6063 168.861 40.3385 168.861 41.0994C168.861 41.2861 168.854 41.4655 168.84 41.6378C168.84 41.8101 168.826 41.9536 168.798 42.0685H160.312C160.354 42.5136 160.459 42.9084 160.626 43.2529C160.794 43.5975 161.011 43.8918 161.276 44.1359C161.541 44.3799 161.842 44.5666 162.177 44.6958C162.512 44.825 162.861 44.8896 163.225 44.8896C163.783 44.8896 164.307 44.7532 164.796 44.4804C165.299 44.1933 165.641 43.82 165.823 43.3606L168.232 44.0497C167.827 44.9111 167.178 45.6218 166.284 46.1817C165.404 46.7272 164.349 47 163.12 47ZM165.969 40.195C165.899 39.3479 165.592 38.6732 165.047 38.1707C164.517 37.6538 163.867 37.3954 163.099 37.3954C162.722 37.3954 162.365 37.4672 162.03 37.6108C161.709 37.74 161.423 37.9266 161.171 38.1707C160.92 38.4147 160.71 38.709 160.543 39.0536C160.389 39.3982 160.298 39.7786 160.27 40.195H165.969Z" fill="#CFDBD5"/>
<path d="M175.558 47C174.636 47 173.735 46.8493 172.855 46.5478C171.975 46.2463 171.221 45.8156 170.592 45.2557L171.64 43.4467C172.31 43.9349 172.96 44.3081 173.588 44.5666C174.231 44.8106 174.867 44.9326 175.495 44.9326C176.054 44.9326 176.494 44.825 176.815 44.6096C177.136 44.3943 177.297 44.0856 177.297 43.6836C177.297 43.2816 177.109 42.9873 176.731 42.8007C176.354 42.614 175.74 42.3987 174.888 42.1546C174.175 41.9536 173.568 41.7598 173.065 41.5732C172.562 41.3866 172.157 41.1784 171.849 40.9487C171.542 40.7046 171.319 40.4318 171.179 40.1304C171.039 39.8145 170.969 39.4412 170.969 39.0105C170.969 38.4363 171.074 37.9194 171.284 37.46C171.507 37.0006 171.814 36.613 172.206 36.2971C172.597 35.9669 173.051 35.7157 173.568 35.5434C174.098 35.3711 174.671 35.285 175.286 35.285C176.11 35.285 176.878 35.407 177.59 35.6511C178.317 35.8951 178.98 36.29 179.581 36.8355L178.449 38.5798C177.891 38.1491 177.346 37.8333 176.815 37.6323C176.298 37.4313 175.782 37.3308 175.265 37.3308C174.79 37.3308 174.392 37.4313 174.07 37.6323C173.749 37.8333 173.588 38.1563 173.588 38.6014C173.588 38.8024 173.623 38.9675 173.693 39.0967C173.777 39.2259 173.903 39.3407 174.07 39.4412C174.238 39.5417 174.454 39.6422 174.72 39.7427C174.999 39.8289 175.342 39.9222 175.747 40.0227C176.501 40.2237 177.143 40.4247 177.674 40.6257C178.219 40.8266 178.659 41.0564 178.994 41.3148C179.343 41.5732 179.595 41.8747 179.749 42.2192C179.916 42.5494 180 42.9514 180 43.4252C180 44.5307 179.602 45.4064 178.806 46.0525C178.009 46.6842 176.927 47 175.558 47Z" fill="#CFDBD5"/>
</svg>
