<svg xmlns="http://www.w3.org/2000/svg" width="375" height="497" viewBox="0 0 375 497"><g><g clip-path="url(#clip-59BD1B88-A84F-4A11-A191-77FD616E583D)" opacity=".5" transform="matrix(-1 0 0 1 2892 0)"><g opacity=".5"><path fill="none" stroke="#949393" stroke-miterlimit="20" stroke-width="4.8" d="M2658.978-1848.042c-162.72.306-324.864 98.784-480.528 51.426-227.988-69.354-333.18-420.354-569.772-391.716-134.64 16.29-216.702 155.61-258.876 284.508-42.174 128.898-72.09 273.438-176.958 359.406-139.554 114.408-364.716 83.286-491.526 211.662-92.34 93.492-100.026 242.856-70.398 370.872 29.628 128.016 90.054 247.698 115.218 376.668 42.03 215.46-17.046 441.558 28.404 656.316 55.062 260.154 274.59 477.738 535.212 530.46 199.8 40.428 405.558-9.486 603.27-59.148 148.644-37.332 297.288-74.646 446.004-111.996 170.712-42.858 347.328-118.548 478.746-238.212C2887.92 128.34 2949.696 52.686 2979.9-38.844c46.278-141.48-6.282-184.95 95.94-293.004 76.95-81.342 147.798-92.898 170.334-218.7 31.842-177.588-85.59-367.56-124.578-535.842-68.238-294.498-33.552-762.426-462.618-761.652z"/></g><g opacity=".5"><path fill="none" stroke="#949393" stroke-miterlimit="20" stroke-width="4.73" d="M2639.458-1828.552c-162.72.306-324.864 98.784-480.528 51.426-227.988-69.354-333.18-420.354-569.772-391.716-134.64 16.29-216.702 155.61-258.876 284.508-42.174 128.898-72.072 273.438-176.958 359.406-139.554 114.408-364.716 83.286-491.526 211.662-92.34 93.492-100.026 242.856-70.398 370.872 29.628 128.016 90.054 247.698 115.218 376.668 42.03 215.46-17.046 441.558 28.404 656.316 55.062 260.154 274.59 477.738 535.212 530.46 199.8 40.428 405.558-9.504 603.27-59.148 148.644-37.332 297.288-74.646 446.004-111.996 170.712-42.858 347.328-118.548 478.746-238.212C2868.4 147.83 2930.176 72.176 2960.38-19.354c46.278-141.48-6.282-184.95 95.94-293.004 76.95-81.342 147.798-92.898 170.334-218.7 31.842-177.588-85.59-367.56-124.578-535.842-68.22-294.498-33.534-762.444-462.618-761.652z"/></g><g opacity=".5"><path fill="none" stroke="#949393" stroke-miterlimit="20" stroke-width="4.67" d="M2619.968-1809.062c-162.72.306-324.864 98.784-480.528 51.426-227.988-69.354-333.18-420.354-569.772-391.716-134.64 16.29-216.702 155.61-258.876 284.508-42.174 128.898-72.072 273.438-176.958 359.406-139.554 114.408-364.716 83.286-491.526 211.662-92.34 93.492-100.026 242.856-70.398 370.872 29.628 128.016 90.054 247.698 115.218 376.668 42.03 215.46-17.046 441.558 28.404 656.316 55.044 260.136 274.572 477.72 535.194 530.46 199.8 40.428 405.558-9.486 603.27-59.148C2002.64 544.06 2151.284 506.746 2300 469.396c170.712-42.858 347.328-118.548 478.746-238.212C2848.892 167.32 2910.668 91.666 2940.872.136c46.278-141.48-6.282-184.95 95.94-293.004 76.95-81.342 147.798-92.898 170.334-218.7 31.842-177.588-85.59-367.56-124.578-535.842-68.202-294.498-33.534-762.444-462.6-761.652z"/></g><g opacity=".5"><path fill="none" stroke="#949393" stroke-miterlimit="20" stroke-width="4.6" d="M2600.478-1789.562c-162.72.306-324.864 98.784-480.528 51.426-227.988-69.354-333.18-420.354-569.772-391.716-134.64 16.29-216.702 155.61-258.876 284.508-42.174 128.898-72.09 273.438-176.958 359.406-139.554 114.408-364.716 83.286-491.526 211.662-92.34 93.492-100.026 242.856-70.398 370.872 29.628 128.016 90.054 247.698 115.218 376.668 42.03 215.46-17.046 441.558 28.404 656.316 55.062 260.154 274.59 477.738 535.212 530.46 199.8 40.428 405.558-9.486 603.27-59.148 148.644-37.332 297.288-74.646 446.004-111.996 170.712-42.858 347.328-118.548 478.746-238.212 70.146-63.864 131.922-139.518 162.126-231.048 46.278-141.48-6.282-184.95 95.94-293.004 76.95-81.342 147.78-92.898 170.334-218.7 31.842-177.588-85.59-367.56-124.578-535.842-68.22-294.516-33.552-762.444-462.618-761.652z"/></g><g opacity=".5"><path fill="none" stroke="#949393" stroke-miterlimit="20" stroke-width="4.54" d="M2580.958-1770.052c-162.72.306-324.864 98.784-480.528 51.426-227.988-69.354-333.18-420.354-569.772-391.716-134.64 16.29-216.702 155.61-258.876 284.508-42.174 128.898-72.072 273.438-176.958 359.406-139.554 114.408-364.716 83.286-491.526 211.662-92.34 93.492-100.026 242.856-70.398 370.872 29.628 128.016 90.054 247.698 115.218 376.668 42.03 215.46-17.046 441.558 28.404 656.316 55.062 260.154 274.59 477.738 535.212 530.46 199.8 40.428 405.558-9.504 603.27-59.148 148.644-37.332 297.288-74.646 446.004-111.996 170.712-42.858 347.328-118.548 478.746-238.212 70.146-63.864 131.922-139.518 162.126-231.048 46.278-141.48-6.282-184.95 95.94-293.004 76.95-81.342 147.798-92.898 170.334-218.7 31.842-177.588-85.59-367.56-124.578-535.842-68.22-294.498-33.534-762.426-462.618-761.652z"/></g><g opacity=".5"><path fill="none" stroke="#949393" stroke-miterlimit="20" stroke-width="4.47" d="M2561.468-1750.552c-162.72.306-324.864 98.784-480.528 51.426-227.988-69.354-333.18-420.354-569.772-391.716-134.64 16.29-216.702 155.61-258.876 284.508-42.174 128.898-72.09 273.438-176.958 359.406-139.554 114.408-364.716 83.286-491.526 211.662-92.34 93.492-100.026 242.856-70.398 370.872 29.628 128.016 90.054 247.698 115.218 376.668 42.03 215.46-17.046 441.558 28.404 656.316 55.062 260.154 274.59 477.738 535.212 530.46 199.8 40.428 405.558-9.504 603.27-59.148 148.644-37.332 297.288-74.646 446.004-111.996 170.712-42.858 347.328-118.548 478.746-238.212 70.146-63.864 131.922-139.518 162.126-231.048 46.278-141.48-6.282-184.95 95.94-293.004 76.95-81.342 147.798-92.898 170.334-218.7 31.842-177.588-85.59-367.56-124.578-535.842-68.22-294.498-33.552-762.444-462.618-761.652z"/></g><g opacity=".5"><path fill="none" stroke="#949393" stroke-miterlimit="20" stroke-width="4.41" d="M2541.978-1731.062c-162.72.306-324.864 98.784-480.528 51.426-227.988-69.354-333.18-420.354-569.772-391.716-134.64 16.29-216.702 155.61-258.876 284.508-42.174 128.898-72.072 273.438-176.958 359.406-139.554 114.408-364.716 83.286-491.526 211.662-92.34 93.492-100.026 242.856-70.398 370.872 29.628 128.016 90.054 247.698 115.218 376.668 42.03 215.46-17.046 441.558 28.404 656.316 55.062 260.154 274.59 477.738 535.212 530.46 199.8 40.428 405.558-9.504 603.27-59.148 148.644-37.332 297.288-74.646 446.004-111.996 170.712-42.858 347.328-118.548 478.746-238.212 70.146-63.864 131.922-139.518 162.126-231.048 46.278-141.48-6.282-184.95 95.94-293.004 76.95-81.342 147.798-92.898 170.334-218.7 31.842-177.588-85.59-367.56-124.578-535.842-68.22-294.498-33.552-762.444-462.618-761.652z"/></g><g opacity=".5"><path fill="none" stroke="#949393" stroke-miterlimit="20" stroke-width="4.35" d="M2522.478-1711.552c-162.72.306-324.864 98.784-480.528 51.426-227.988-69.354-333.18-420.354-569.772-391.716-134.64 16.29-216.702 155.61-258.876 284.508-42.174 128.898-72.09 273.438-176.958 359.406-139.554 114.408-364.716 83.286-491.526 211.662-92.34 93.492-100.026 242.856-70.398 370.872 29.628 128.016 90.054 247.698 115.218 376.668 42.03 215.46-17.046 441.558 28.404 656.316 55.062 260.154 274.59 477.738 535.212 530.46 199.8 40.428 405.558-9.504 603.27-59.148 148.644-37.332 297.288-74.646 446.004-111.996 170.712-42.858 347.328-118.548 478.746-238.212 70.146-63.864 131.922-139.518 162.126-231.048 46.278-141.48-6.282-184.95 95.94-293.004 76.95-81.342 147.798-92.898 170.334-218.7 31.842-177.588-85.59-367.56-124.578-535.842-68.238-294.498-33.552-762.426-462.618-761.652z"/></g><g opacity=".5"><path fill="none" stroke="#949393" stroke-miterlimit="20" stroke-width="4.28" d="M2502.968-1692.052c-162.72.306-324.864 98.784-480.528 51.426-227.988-69.354-333.18-420.354-569.772-391.716-134.64 16.29-216.702 155.61-258.876 284.508-42.174 128.898-72.072 273.438-176.958 359.406-139.554 114.408-364.716 83.286-491.526 211.662-92.34 93.492-100.026 242.856-70.398 370.872 29.628 128.016 90.054 247.698 115.218 376.668 42.03 215.46-17.046 441.558 28.404 656.316 55.062 260.154 274.59 477.738 535.212 530.46 199.8 40.428 405.558-9.504 603.27-59.148 148.644-37.332 297.288-74.646 446.004-111.996 170.712-42.858 347.328-118.548 478.746-238.212 70.146-63.864 131.922-139.518 162.126-231.048 46.278-141.48-6.282-184.95 95.94-293.004 76.95-81.342 147.798-92.898 170.334-218.7 31.842-177.588-85.59-367.56-124.578-535.842-68.22-294.498-33.534-762.444-462.618-761.652z"/></g><g opacity=".5"><path fill="none" stroke="#949393" stroke-miterlimit="20" stroke-width="4.22" d="M2483.478-1672.562c-162.72.306-324.864 98.784-480.528 51.426-227.988-69.354-333.18-420.354-569.772-391.716-134.64 16.29-216.702 155.61-258.876 284.508-42.174 128.898-72.09 273.438-176.958 359.406-139.554 114.408-364.716 83.286-491.526 211.662-92.34 93.492-100.026 242.856-70.398 370.872 29.628 128.016 90.054 247.698 115.218 376.668 42.03 215.46-17.046 441.558 28.404 656.316 55.062 260.154 274.59 477.738 535.212 530.46 199.8 40.428 405.558-9.486 603.27-59.148 148.644-37.332 297.288-74.646 446.004-111.996 170.712-42.858 347.328-118.548 478.746-238.212 70.146-63.864 131.922-139.518 162.126-231.048 46.278-141.48-6.282-184.95 95.94-293.004 76.95-81.342 147.798-92.898 170.334-218.7 31.842-177.588-85.59-367.56-124.578-535.842-68.22-294.498-33.552-762.444-462.618-761.652z"/></g><g opacity=".5"><path fill="none" stroke="#949393" stroke-miterlimit="20" stroke-width="4.15" d="M2463.978-1653.052c-162.72.306-324.864 98.784-480.528 51.426-227.988-69.354-333.18-420.354-569.772-391.716-134.64 16.29-216.702 155.61-258.876 284.508-42.174 128.898-72.072 273.438-176.958 359.406-139.554 114.408-364.716 83.286-491.526 211.662-92.34 93.492-100.026 242.856-70.398 370.872 29.628 128.016 90.054 247.698 115.218 376.668 42.03 215.46-17.046 441.558 28.404 656.316 55.062 260.154 274.59 477.738 535.212 530.46 199.8 40.428 405.558-9.504 603.27-59.148 148.644-37.332 297.288-74.646 446.004-111.996 170.712-42.858 347.328-118.548 478.746-238.212 70.146-63.864 131.922-139.518 162.126-231.048 46.278-141.48-6.282-184.95 95.94-293.004 76.95-81.342 147.798-92.898 170.334-218.7 31.842-177.588-85.59-367.56-124.578-535.842-68.238-294.498-33.552-762.426-462.618-761.652z"/></g><g opacity=".5"><path fill="none" stroke="#949393" stroke-miterlimit="20" stroke-width="4.09" d="M2444.468-1633.552c-162.72.306-324.864 98.784-480.528 51.426-227.988-69.354-333.18-420.354-569.772-391.716-134.64 16.29-216.702 155.61-258.876 284.508-42.174 128.898-72.072 273.438-176.958 359.406-139.554 114.408-364.716 83.286-491.526 211.662-92.34 93.492-100.026 242.856-70.398 370.872 29.628 128.016 90.054 247.698 115.218 376.668 42.03 215.46-17.046 441.558 28.404 656.316 55.062 260.154 274.59 477.738 535.212 530.46 199.8 40.428 405.558-9.504 603.27-59.148 148.644-37.332 297.288-74.646 446.004-111.996 170.712-42.858 347.328-118.548 478.746-238.212 70.146-63.864 131.922-139.518 162.126-231.048 46.278-141.48-6.282-184.95 95.94-293.004 76.95-81.342 147.798-92.898 170.334-218.7 31.842-177.588-85.59-367.56-124.578-535.842-68.22-294.498-33.534-762.426-462.618-761.652z"/></g><g opacity=".5"><path fill="none" stroke="#949393" stroke-miterlimit="20" stroke-width="4.02" d="M2424.978-1614.062c-162.72.306-324.864 98.784-480.528 51.426-227.988-69.354-333.18-420.354-569.772-391.716-134.64 16.29-216.702 155.61-258.876 284.508-42.174 128.898-72.09 273.438-176.958 359.406-139.554 114.408-364.716 83.286-491.526 211.662-92.34 93.492-100.026 242.856-70.398 370.872 29.628 128.016 90.054 247.698 115.218 376.668 42.03 215.46-17.046 441.558 28.404 656.316 55.062 260.154 274.59 477.738 535.212 530.46 199.8 40.428 405.558-9.504 603.27-59.148 148.644-37.332 297.288-74.646 446.004-111.996 170.712-42.858 347.328-118.548 478.746-238.212 70.146-63.864 131.922-139.518 162.126-231.048 46.278-141.48-6.282-184.95 95.94-293.004 76.95-81.342 147.78-92.898 170.334-218.7 31.842-177.588-85.59-367.56-124.578-535.842-68.22-294.498-33.552-762.444-462.618-761.652z"/></g><g opacity=".5"><path fill="none" stroke="#949393" stroke-miterlimit="20" stroke-width="3.96" d="M2405.478-1594.572c-162.72.306-324.864 98.784-480.528 51.426-227.988-69.354-333.18-420.354-569.772-391.716-134.64 16.29-216.702 155.61-258.876 284.508-42.174 128.898-72.072 273.438-176.958 359.406-139.554 114.408-364.716 83.286-491.526 211.662-92.34 93.492-100.026 242.856-70.398 370.872 29.628 128.016 90.054 247.698 115.218 376.668 42.03 215.46-17.046 441.558 28.404 656.316 55.062 260.154 274.59 477.738 535.212 530.46 199.8 40.428 405.558-9.504 603.27-59.148 148.644-37.332 297.288-74.646 446.004-111.996 170.712-42.858 347.328-118.548 478.746-238.212 70.146-63.864 131.922-139.518 162.126-231.048 46.278-141.48-6.282-184.95 95.94-293.004 76.95-81.342 147.798-92.898 170.334-218.7 31.842-177.588-85.59-367.56-124.578-535.842-68.22-294.516-33.552-762.444-462.618-761.652z"/></g><g opacity=".5"><path fill="none" stroke="#949393" stroke-miterlimit="20" stroke-width="3.9" d="M2385.968-1575.052c-162.72.306-324.864 98.784-480.528 51.426-227.988-69.354-333.18-420.354-569.772-391.716-134.64 16.29-216.702 155.61-258.876 284.508-42.174 128.898-72.09 273.438-176.958 359.406-139.554 114.408-364.716 83.286-491.526 211.662-92.34 93.492-100.026 242.856-70.398 370.872 29.628 128.016 90.054 247.698 115.218 376.668 42.03 215.46-17.046 441.558 28.404 656.316 55.062 260.154 274.59 477.738 535.212 530.46 199.8 40.428 405.558-9.504 603.27-59.148 148.644-37.332 297.288-74.646 446.004-111.996 170.712-42.858 347.328-118.548 478.746-238.212 70.146-63.864 131.922-139.518 162.126-231.048 46.278-141.48-6.282-184.95 95.94-293.004 76.95-81.342 147.798-92.898 170.334-218.7 31.842-177.588-85.59-367.56-124.578-535.842-68.22-294.498-33.534-762.426-462.618-761.652z"/></g><g opacity=".5"><path fill="none" stroke="#949393" stroke-miterlimit="20" stroke-width="3.83" d="M2366.478-1555.562c-162.72.306-324.864 98.784-480.528 51.426-227.988-69.354-333.18-420.354-569.772-391.716-134.64 16.29-216.702 155.61-258.876 284.508-42.174 128.898-72.072 273.438-176.958 359.406-139.554 114.408-364.716 83.286-491.526 211.662-92.34 93.492-100.026 242.856-70.398 370.872 29.628 128.016 90.054 247.698 115.218 376.668 42.03 215.46-17.046 441.558 28.404 656.316 55.062 260.154 274.59 477.738 535.212 530.46 199.8 40.428 405.558-9.504 603.27-59.148 148.644-37.332 297.288-74.646 446.004-111.996 170.712-42.858 347.328-118.548 478.746-238.212 70.146-63.864 131.922-139.518 162.126-231.048 46.278-141.48-6.282-184.95 95.94-293.004 76.95-81.342 147.798-92.898 170.334-218.7 31.842-177.588-85.59-367.56-124.578-535.842-68.22-294.498-33.534-762.444-462.618-761.652z"/></g><g opacity=".5"><path fill="none" stroke="#949393" stroke-miterlimit="20" stroke-width="3.77" d="M2346.978-1536.072c-162.72.306-324.864 98.784-480.528 51.426C1638.462-1554 1533.27-1905 1296.678-1876.362c-134.64 16.29-216.702 155.61-258.876 284.508-42.174 128.898-72.09 273.438-176.958 359.406-139.554 114.408-364.716 83.286-491.526 211.662-92.34 93.492-100.026 242.856-70.398 370.872 29.628 128.016 90.054 247.698 115.218 376.668 42.03 215.46-17.046 441.558 28.404 656.316 55.062 260.154 274.59 477.738 535.212 530.46 199.8 40.428 405.558-9.504 603.27-59.148 148.644-37.332 297.288-74.646 446.004-111.996 170.712-42.858 347.328-118.548 478.746-238.212 70.146-63.864 131.922-139.518 162.126-231.048 46.278-141.48-6.282-184.95 95.94-293.004 76.95-81.342 147.798-92.898 170.334-218.7 31.842-177.588-85.59-367.56-124.578-535.842-68.22-294.498-33.552-762.444-462.618-761.652z"/></g><g opacity=".5"><path fill="none" stroke="#949393" stroke-miterlimit="20" stroke-width="3.7" d="M2327.488-1516.552c-162.72.306-324.864 98.784-480.528 51.426-227.988-69.354-333.18-420.354-569.772-391.716-134.64 16.29-216.702 155.61-258.876 284.508-42.174 128.898-72.072 273.438-176.958 359.406-139.554 114.408-364.716 83.286-491.526 211.662-92.34 93.492-100.026 242.856-70.398 370.872 29.628 128.016 90.054 247.698 115.218 376.668 42.03 215.46-17.046 441.558 28.404 656.316 55.062 260.154 274.59 477.738 535.212 530.46 199.8 40.428 405.558-9.504 603.27-59.148 148.644-37.332 297.288-74.646 446.004-111.996 170.712-42.858 347.328-118.548 478.746-238.212 70.146-63.864 131.922-139.518 162.126-231.048 46.278-141.48-6.282-184.95 95.94-293.004 76.95-81.342 147.798-92.898 170.334-218.7 31.842-177.588-85.59-367.56-124.578-535.842-68.238-294.498-33.552-762.426-462.618-761.652z"/></g><g opacity=".5"><path fill="none" stroke="#949393" stroke-miterlimit="20" stroke-width="3.64" d="M2307.978-1497.062c-162.72.306-324.864 98.784-480.528 51.426-227.988-69.354-333.18-420.354-569.772-391.716-134.64 16.29-216.702 155.61-258.876 284.508-42.174 128.898-72.09 273.438-176.958 359.406-139.554 114.408-364.716 83.286-491.526 211.662-92.34 93.492-100.026 242.856-70.398 370.872 29.628 128.016 90.054 247.698 115.218 376.668 42.03 215.46-17.046 441.558 28.404 656.316 55.062 260.154 274.59 477.738 535.212 530.46 199.8 40.428 405.558-9.504 603.27-59.148 148.644-37.332 297.288-74.646 446.004-111.996 170.712-42.858 347.328-118.548 478.746-238.212 70.146-63.864 131.922-139.518 162.126-231.048 46.278-141.48-6.282-184.95 95.94-293.004 76.95-81.342 147.798-92.898 170.334-218.7 31.842-177.588-85.59-367.56-124.578-535.842-68.22-294.498-33.534-762.444-462.618-761.652z"/></g><g opacity=".5"><path fill="none" stroke="#949393" stroke-miterlimit="20" stroke-width="3.57" d="M2288.478-1477.572c-162.72.306-324.864 98.784-480.528 51.426-227.988-69.354-333.18-420.354-569.772-391.716-134.64 16.29-216.702 155.61-258.876 284.508-42.174 128.898-72.072 273.438-176.958 359.406-139.554 114.408-364.716 83.286-491.526 211.662-92.34 93.492-100.026 242.856-70.398 370.872 29.628 128.016 90.054 247.698 115.218 376.668 42.03 215.46-17.046 441.558 28.404 656.316 55.062 260.154 274.59 477.738 535.212 530.46 199.8 40.428 405.558-9.504 603.27-59.148 148.644-37.332 297.288-74.646 446.004-111.996 170.712-42.858 347.328-118.548 478.746-238.212 70.146-63.864 131.922-139.518 162.126-231.048 46.278-141.48-6.282-184.95 95.94-293.004 76.95-81.342 147.798-92.898 170.334-218.7 31.842-177.588-85.59-367.56-124.578-535.842-68.22-294.498-33.552-762.444-462.618-761.652z"/></g><g opacity=".5"><path fill="none" stroke="#949393" stroke-miterlimit="20" stroke-width="3.51" d="M2268.988-1458.072c-162.72.306-324.864 98.784-480.528 51.426C1560.472-1476 1455.28-1827 1218.688-1798.362c-134.64 16.29-216.702 155.61-258.876 284.508-42.174 128.898-72.09 273.438-176.958 359.406-139.554 114.408-364.716 83.286-491.526 211.662-92.34 93.492-100.026 242.856-70.398 370.872 29.628 128.016 90.054 247.698 115.218 376.668 42.03 215.46-17.046 441.558 28.404 656.316 55.062 260.154 274.59 477.738 535.212 530.46 199.8 40.428 405.558-9.504 603.27-59.148 148.644-37.332 297.288-74.646 446.004-111.996 170.712-42.858 347.328-118.548 478.746-238.212 70.146-63.864 131.922-139.518 162.126-231.048 46.278-141.48-6.282-184.95 95.94-293.004 76.95-81.342 147.798-92.898 170.334-218.7 31.842-177.588-85.59-367.56-124.578-535.842-68.22-294.516-33.552-762.444-462.618-761.652z"/></g><g opacity=".5"><path fill="none" stroke="#949393" stroke-miterlimit="20" stroke-width="3.45" d="M2249.478-1438.562c-162.72.306-324.864 98.784-480.528 51.426-227.988-69.354-333.18-420.354-569.772-391.716-134.64 16.29-216.702 155.61-258.876 284.508-42.174 128.898-72.072 273.438-176.958 359.406-139.554 114.408-364.716 83.286-491.526 211.662-92.34 93.492-100.026 242.856-70.398 370.872 29.628 128.016 90.054 247.698 115.218 376.668 42.03 215.46-17.046 441.558 28.404 656.316 55.062 260.154 274.59 477.738 535.212 530.46 199.8 40.428 405.558-9.504 603.27-59.148 148.644-37.332 297.288-74.646 446.004-111.996 170.712-42.858 347.328-118.548 478.746-238.212 70.146-63.864 131.922-139.518 162.126-231.048 46.278-141.48-6.282-184.95 95.94-293.004 76.95-81.342 147.78-92.898 170.334-218.7 31.842-177.588-85.59-367.56-124.578-535.842-68.22-294.498-33.534-762.426-462.618-761.652z"/></g><g opacity=".5"><path fill="none" stroke="#949393" stroke-miterlimit="20" stroke-width="3.38" d="M2229.978-1419.072c-162.72.306-324.864 98.784-480.528 51.426C1521.462-1437 1416.27-1788 1179.678-1759.362c-134.64 16.29-216.702 155.61-258.876 284.508-42.174 128.898-72.072 273.438-176.958 359.406-139.554 114.408-364.716 83.286-491.526 211.662-92.34 93.492-100.026 242.856-70.398 370.872 29.628 128.016 90.054 247.698 115.218 376.668 42.03 215.46-17.046 441.558 28.404 656.316 55.062 260.154 274.59 477.738 535.212 530.46 199.8 40.428 405.558-9.504 603.27-59.148 148.644-37.332 297.288-74.646 446.004-111.996 170.712-42.858 347.328-118.548 478.746-238.212 70.146-63.864 131.922-139.518 162.126-231.048 46.278-141.48-6.282-184.95 95.94-293.004 76.95-81.342 147.798-92.898 170.334-218.7 31.842-177.588-85.59-367.56-124.578-535.842-68.22-294.498-33.552-762.444-462.618-761.652z"/></g><g opacity=".5"><path fill="none" stroke="#949393" stroke-miterlimit="20" stroke-width="3.32" d="M2210.488-1399.572c-162.72.306-324.864 98.784-480.528 51.426-227.988-69.354-333.18-420.354-569.772-391.716-134.64 16.29-216.702 155.61-258.876 284.508-42.174 128.898-72.09 273.438-176.958 359.406C584.8-981.54 359.638-1012.662 232.828-884.286c-92.34 93.492-100.026 242.856-70.398 370.872 29.628 128.016 90.054 247.698 115.218 376.668 42.03 215.46-17.046 441.558 28.404 656.316 55.062 260.154 274.59 477.738 535.212 530.46 199.8 40.428 405.558-9.504 603.27-59.148 148.644-37.332 297.288-74.646 446.004-111.996 170.712-42.858 347.328-118.548 478.746-238.212 70.146-63.864 131.922-139.518 162.126-231.048 46.278-141.48-6.282-184.95 95.94-293.004 76.95-81.342 147.798-92.898 170.334-218.7 31.842-177.588-85.59-367.56-124.578-535.842-68.22-294.498-33.552-762.444-462.618-761.652z"/></g><g opacity=".5"><path fill="none" stroke="#949393" stroke-miterlimit="20" stroke-width="3.25" d="M2190.988-1380.062c-162.72.306-324.864 98.784-480.528 51.426-227.988-69.354-333.18-420.354-569.772-391.716-134.64 16.29-216.702 155.61-258.876 284.508-42.174 128.898-72.072 273.438-176.958 359.406C565.3-962.03 340.138-993.152 213.328-864.776c-92.34 93.492-100.026 242.856-70.398 370.872 29.628 128.016 90.054 247.698 115.218 376.668 42.03 215.46-17.046 441.558 28.404 656.316 55.062 260.154 274.59 477.738 535.212 530.46 199.8 40.428 405.558-9.504 603.27-59.148 148.644-37.332 297.288-74.646 446.004-111.996 170.712-42.858 347.328-118.548 478.746-238.212 70.146-63.864 131.922-139.518 162.126-231.048 46.278-141.48-6.282-184.95 95.94-293.004 76.95-81.342 147.798-92.898 170.334-218.7 31.842-177.588-85.59-367.56-124.578-535.842-68.238-294.498-33.552-762.426-462.618-761.652z"/></g><g opacity=".5"><path fill="none" stroke="#949393" stroke-miterlimit="20" stroke-width="3.19" d="M2171.478-1360.572c-162.72.306-324.864 98.784-480.528 51.426-227.988-69.354-333.18-420.354-569.772-391.716-134.64 16.29-216.702 155.61-258.876 284.508-42.174 128.898-72.072 273.438-176.958 359.406C545.79-942.54 320.628-973.662 193.818-845.286c-92.34 93.492-100.026 242.856-70.398 370.872 29.628 128.016 90.054 247.698 115.218 376.668 42.03 215.46-17.046 441.558 28.404 656.316 55.062 260.154 274.59 477.738 535.212 530.46 199.8 40.428 405.558-9.504 603.27-59.148 148.644-37.332 297.288-74.646 446.004-111.996 170.712-42.858 347.328-118.548 478.746-238.212 70.146-63.864 131.922-139.518 162.126-231.048 46.278-141.48-6.282-184.95 95.94-293.004 76.95-81.342 147.798-92.898 170.334-218.7 31.842-177.588-85.59-367.56-124.578-535.842-68.22-294.498-33.534-762.444-462.618-761.652z"/></g><g opacity=".5"><path fill="none" stroke="#949393" stroke-miterlimit="20" stroke-width="3.12" d="M2151.988-1341.072c-162.72.306-324.864 98.784-480.528 51.426C1443.472-1359 1338.28-1710 1101.688-1681.362c-134.64 16.29-216.702 155.61-258.876 284.508-42.174 128.898-72.072 273.438-176.958 359.406C526.3-923.04 301.138-954.162 174.328-825.786 81.988-732.294 74.302-582.93 103.93-454.914c29.628 128.016 90.054 247.698 115.218 376.668 42.03 215.46-17.046 441.558 28.404 656.316 55.062 260.154 274.59 477.738 535.212 530.46 199.8 40.428 405.558-9.504 603.27-59.148 148.644-37.332 297.288-74.646 446.004-111.996 170.712-42.858 347.328-118.548 478.746-238.212 70.146-63.864 131.922-139.518 162.126-231.048 46.278-141.48-6.282-184.95 95.94-293.004 76.95-81.342 147.798-92.898 170.334-218.7 31.842-177.588-85.59-367.56-124.578-535.842-68.22-294.498-33.552-762.444-462.618-761.652z"/></g><g opacity=".5"><path fill="none" stroke="#949393" stroke-miterlimit="20" stroke-width="3.06" d="M2132.488-1321.562c-162.72.306-324.864 98.784-480.528 51.426-227.988-69.354-333.18-420.354-569.772-391.716-134.64 16.29-216.702 155.61-258.876 284.508-42.174 128.898-72.09 273.438-176.958 359.406C506.8-903.53 281.638-934.652 154.828-806.276 62.488-712.784 54.802-563.42 84.43-435.404c29.628 128.016 90.054 247.698 115.218 376.668 42.03 215.46-17.046 441.558 28.404 656.316 55.062 260.154 274.59 477.738 535.212 530.46 199.8 40.428 405.558-9.504 603.27-59.148 148.644-37.332 297.288-74.646 446.004-111.996 170.712-42.858 347.328-118.548 478.746-238.212 70.146-63.864 131.922-139.518 162.126-231.048 46.278-141.48-6.282-184.95 95.94-293.004 76.95-81.342 147.798-92.898 170.334-218.7 31.842-177.588-85.59-367.56-124.578-535.842-68.238-294.498-33.552-762.426-462.618-761.652z"/></g><g opacity=".5"><path fill="none" stroke="#949393" stroke-miterlimit="20" stroke-width="3" d="M2112.978-1302.072c-162.72.306-324.864 98.784-480.528 51.426C1404.462-1320 1299.27-1671 1062.678-1642.362c-134.64 16.29-216.702 155.61-258.876 284.508-42.174 128.898-72.072 273.438-176.958 359.406C487.29-884.04 262.128-915.162 135.318-786.786 42.978-693.294 35.292-543.93 64.92-415.914c29.628 128.016 90.054 247.698 115.218 376.668 42.03 215.46-17.046 441.558 28.404 656.316 55.062 260.154 274.59 477.738 535.212 530.46 199.8 40.428 405.558-9.504 603.27-59.148 148.644-37.332 297.288-74.646 446.004-111.996 170.712-42.858 347.328-118.548 478.746-238.212 70.146-63.864 131.922-139.518 162.126-231.048 46.278-141.48-6.282-184.95 95.94-293.004 76.95-81.342 147.798-92.898 170.334-218.7 31.842-177.588-85.59-367.56-124.578-535.842-68.22-294.498-33.534-762.444-462.618-761.652z"/></g><g opacity=".5"><path fill="none" stroke="#949393" stroke-miterlimit="20" stroke-width="2.93" d="M2093.488-1282.572c-162.72.306-324.864 98.784-480.528 51.426-227.988-69.354-333.18-420.354-569.772-391.716-134.64 16.29-216.702 155.61-258.876 284.508-42.174 128.898-72.072 273.438-176.958 359.406C467.8-864.54 242.638-895.662 115.828-767.286 23.488-673.794 15.802-524.43 45.43-396.414c29.628 128.016 90.054 247.698 115.218 376.668 42.03 215.46-17.046 441.558 28.404 656.316 55.062 260.154 274.59 477.738 535.212 530.46 199.8 40.428 405.558-9.504 603.27-59.148 148.644-37.332 297.288-74.646 446.004-111.996 170.712-42.858 347.328-118.548 478.746-238.212 70.146-63.864 131.922-139.518 162.126-231.048 46.278-141.48-6.282-184.95 95.94-293.004 76.95-81.342 147.798-92.898 170.334-218.7 31.842-177.588-85.59-367.56-124.578-535.842-68.22-294.498-33.552-762.444-462.618-761.652z"/></g><g opacity=".5"><path fill="none" stroke="#949393" stroke-miterlimit="20" stroke-width="2.87" d="M2073.988-1263.082c-162.72.306-324.864 98.784-480.528 51.426-227.988-69.354-333.18-420.354-569.772-391.716-134.64 16.29-216.702 155.61-258.876 284.508-42.174 128.898-72.072 273.438-176.958 359.406C448.3-845.05 223.138-876.172 96.328-747.796 3.988-654.304-3.698-504.94 25.93-376.924 55.558-248.908 115.984-129.226 141.148-.256c42.03 215.46-17.046 441.558 28.404 656.316 55.062 260.154 274.59 477.738 535.212 530.46 199.8 40.428 405.558-9.504 603.27-59.148 148.644-37.332 297.288-74.646 446.004-111.996 170.712-42.858 347.328-118.548 478.746-238.212 70.146-63.864 131.922-139.518 162.126-231.048 46.278-141.48-6.282-184.95 95.94-293.004 76.95-81.342 147.798-92.898 170.334-218.7 31.842-177.588-85.59-367.56-124.578-535.842-68.22-294.516-33.552-762.444-462.618-761.652z"/></g><g opacity=".5"><path fill="none" stroke="#949393" stroke-miterlimit="20" stroke-width="2.8" d="M2054.478-1243.572c-162.72.306-324.864 98.784-480.528 51.426-227.988-69.354-333.18-420.354-569.772-391.716-134.64 16.29-216.702 155.61-258.876 284.508-42.174 128.898-72.072 273.438-176.958 359.406C428.79-825.54 203.628-856.662 76.818-728.286-15.522-634.794-23.208-485.43 6.42-357.414 36.048-229.398 96.474-109.716 121.638 19.254c42.03 215.46-17.046 441.558 28.404 656.316 55.062 260.154 274.59 477.738 535.212 530.46 199.8 40.428 405.558-9.504 603.27-59.148 148.644-37.332 297.288-74.646 446.004-111.996 170.712-42.858 347.328-118.548 478.746-238.212 70.146-63.864 131.922-139.518 162.126-231.048 46.278-141.48-6.282-184.95 95.94-293.004 76.95-81.342 147.798-92.898 170.334-218.7 31.842-177.588-85.59-367.56-124.578-535.842-68.22-294.498-33.534-762.426-462.618-761.652z"/></g><g opacity=".5"><path fill="none" stroke="#949393" stroke-miterlimit="20" stroke-width="2.74" d="M2034.988-1224.072c-162.72.306-324.864 98.784-480.528 51.426C1326.472-1242 1221.28-1593 984.688-1564.362c-134.64 16.29-216.702 155.61-258.876 284.508-42.174 128.898-72.072 273.438-176.958 359.406C409.3-806.04 184.138-837.162 57.328-708.786-35.012-615.294-42.698-465.93-13.07-337.914 16.558-209.898 76.984-90.216 102.148 38.754c42.03 215.46-17.046 441.558 28.404 656.316 55.062 260.154 274.59 477.738 535.212 530.46 199.8 40.428 405.558-9.504 603.27-59.148 148.644-37.332 297.288-74.646 446.004-111.996 170.712-42.858 347.328-118.548 478.746-238.212 70.146-63.864 131.922-139.518 162.126-231.048 46.278-141.48-6.282-184.95 95.94-293.004 76.95-81.342 147.798-92.898 170.334-218.7 31.842-177.588-85.59-367.56-124.578-535.842-68.22-294.498-33.534-762.444-462.618-761.652z"/></g><g opacity=".5"><path fill="none" stroke="#949393" stroke-miterlimit="20" stroke-width="2.67" d="M2015.488-1204.582c-162.72.306-324.864 98.784-480.528 51.426-227.988-69.354-333.18-420.354-569.772-391.716-134.64 16.29-216.702 155.61-258.876 284.508-42.174 128.898-72.072 273.438-176.958 359.406C389.8-786.55 164.638-817.672 37.828-689.296-54.512-595.804-62.198-446.44-32.57-318.424-2.942-190.408 57.484-70.726 82.648 58.244c42.03 215.46-17.046 441.558 28.404 656.316 55.062 260.154 274.59 477.738 535.212 530.46 199.8 40.428 405.558-9.486 603.27-59.148 148.644-37.332 297.288-74.646 446.004-111.996 170.712-42.858 347.328-118.548 478.746-238.212 70.146-63.864 131.922-139.518 162.126-231.048 46.278-141.48-6.282-184.95 95.94-293.004 76.95-81.342 147.798-92.898 170.334-218.7 31.842-177.588-85.59-367.56-124.578-535.842-68.22-294.498-33.552-762.444-462.618-761.652z"/></g><g opacity=".5"><path fill="none" stroke="#949393" stroke-miterlimit="20" stroke-width="2.61" d="M1995.998-1185.072c-162.72.306-324.864 98.784-480.528 51.426C1287.482-1203 1182.29-1554 945.698-1525.362c-134.64 16.29-216.702 155.61-258.876 284.508-42.174 128.898-72.072 273.438-176.958 359.406C370.31-767.04 145.148-798.162 18.338-669.786-74.002-576.294-81.688-426.93-52.06-298.914-22.432-170.898 37.994-51.216 63.158 77.754c42.03 215.46-17.046 441.558 28.404 656.316 55.062 260.154 274.59 477.738 535.212 530.46 199.8 40.428 405.558-9.504 603.27-59.148 148.644-37.332 297.288-74.646 446.004-111.996 170.712-42.858 347.328-118.548 478.746-238.212 70.146-63.864 131.922-139.518 162.126-231.048 46.278-141.48-6.282-184.95 95.94-293.004 76.95-81.342 147.798-92.898 170.334-218.7 31.842-177.588-85.59-367.56-124.578-535.842-68.238-294.498-33.552-762.426-462.618-761.652z"/></g><g opacity=".5"><path fill="none" stroke="#949393" stroke-miterlimit="20" stroke-width="2.54" d="M1976.488-1165.572c-162.72.306-324.864 98.784-480.528 51.426-227.988-69.354-333.18-420.354-569.772-391.716-134.64 16.29-216.702 155.61-258.876 284.508-42.174 128.898-72.072 273.438-176.958 359.406C350.8-747.54 125.638-778.662-1.172-650.286c-92.34 93.492-100.026 242.856-70.398 370.872C-41.942-151.398 18.484-31.716 43.648 97.254c42.03 215.46-17.046 441.558 28.404 656.316 55.062 260.154 274.59 477.738 535.212 530.46 199.8 40.428 405.558-9.504 603.27-59.148 148.644-37.332 297.288-74.646 446.004-111.996 170.712-42.858 347.328-118.548 478.746-238.212 70.146-63.864 131.922-139.518 162.126-231.048 46.278-141.48-6.282-184.95 95.94-293.004 76.95-81.342 147.798-92.898 170.334-218.7 31.842-177.588-85.59-367.56-124.578-535.842-68.22-294.498-33.534-762.444-462.618-761.652z"/></g><g opacity=".5"><path fill="none" stroke="#949393" stroke-miterlimit="20" stroke-width="2.48" d="M1956.988-1146.082c-162.72.306-324.864 98.784-480.528 51.426-227.988-69.354-333.18-420.354-569.772-391.716-134.64 16.29-216.702 155.61-258.876 284.508-42.174 128.898-72.072 273.438-176.958 359.406C331.3-728.05 106.138-759.172-20.672-630.796c-92.34 93.492-100.026 242.856-70.398 370.872C-61.442-131.908-1.016-12.226 24.148 116.744c42.03 215.46-17.046 441.558 28.404 656.316 55.062 260.154 274.59 477.738 535.212 530.46 199.8 40.428 405.558-9.504 603.27-59.148 148.644-37.332 297.288-74.646 446.004-111.996 170.712-42.858 347.328-118.548 478.746-238.212 70.146-63.864 131.922-139.518 162.126-231.048 46.278-141.48-6.282-184.95 95.94-293.004 76.95-81.342 147.798-92.898 170.334-218.7 31.842-177.588-85.59-367.56-124.578-535.842-68.22-294.498-33.552-762.444-462.618-761.652z"/></g><g opacity=".5"><path fill="none" stroke="#949393" stroke-miterlimit="20" stroke-width="2.42" d="M1937.498-1126.582c-162.72.306-324.864 98.784-480.528 51.426-227.988-69.354-333.18-420.354-569.772-391.716-134.64 16.29-216.702 155.61-258.876 284.508-42.174 128.898-72.072 273.438-176.958 359.406C311.81-708.55 86.648-739.672-40.162-611.296c-92.34 93.492-100.026 242.856-70.398 370.872C-80.932-112.408-20.506 7.274 4.658 136.244c42.03 215.46-17.046 441.558 28.404 656.316 55.062 260.154 274.59 477.738 535.212 530.46 199.8 40.428 405.558-9.504 603.27-59.148 148.644-37.332 297.288-74.646 446.004-111.996 170.712-42.858 347.328-118.548 478.746-238.212 70.146-63.864 131.922-139.518 162.126-231.048 46.278-141.48-6.282-184.95 95.94-293.004 76.95-81.342 147.798-92.898 170.334-218.7 31.842-177.588-85.59-367.56-124.578-535.842-68.22-294.516-33.552-762.444-462.618-761.652z"/></g><g opacity=".5"><path fill="none" stroke="#949393" stroke-miterlimit="20" stroke-width="2.35" d="M1917.988-1107.072c-162.72.306-324.864 98.784-480.528 51.426C1209.472-1125 1104.28-1476 867.688-1447.362c-134.64 16.29-216.702 155.61-258.876 284.508-42.174 128.898-72.072 273.438-176.958 359.406C292.3-689.04 67.138-720.162-59.672-591.786c-92.34 93.492-100.026 242.856-70.398 370.872C-100.442-92.898-40.016 26.784-14.852 155.754c42.03 215.46-17.046 441.558 28.404 656.316 55.062 260.154 274.59 477.738 535.212 530.46 199.8 40.428 405.558-9.504 603.27-59.148 148.644-37.332 297.288-74.646 446.004-111.996 170.712-42.858 347.328-118.548 478.746-238.212 70.146-63.864 131.922-139.518 162.126-231.048 46.278-141.48-6.282-184.95 95.94-293.004 76.95-81.342 147.798-92.898 170.334-218.7 31.842-177.588-85.59-367.56-124.578-535.842-68.22-294.498-33.534-762.426-462.618-761.652z"/></g><g opacity=".5"><path fill="none" stroke="#949393" stroke-miterlimit="20" stroke-width="2.29" d="M1898.488-1087.582c-162.72.306-324.864 98.784-480.528 51.426-227.988-69.354-333.18-420.354-569.772-391.716-134.64 16.29-216.702 155.61-258.876 284.508-42.174 128.898-72.072 273.438-176.958 359.406C272.8-669.55 47.638-700.672-79.172-572.296c-92.34 93.492-100.026 242.856-70.398 370.872C-119.942-73.408-59.516 46.274-34.352 175.244 7.678 390.704-51.398 616.802-5.948 831.56c55.062 260.154 274.59 477.738 535.212 530.46 199.8 40.428 405.558-9.504 603.27-59.148 148.644-37.332 297.288-74.646 446.004-111.996 170.712-42.858 347.328-118.548 478.746-238.212 70.146-63.864 131.922-139.518 162.126-231.048 46.278-141.48-6.282-184.95 95.94-293.004 76.95-81.342 147.798-92.898 170.334-218.7 31.842-177.588-85.59-367.56-124.578-535.842-68.22-294.498-33.552-762.444-462.618-761.652z"/></g><g opacity=".5"><path fill="none" stroke="#949393" stroke-miterlimit="20" stroke-width="2.22" d="M1878.998-1068.082c-162.72.306-324.864 98.784-480.528 51.426-227.988-69.354-333.18-420.354-569.772-391.716-134.64 16.29-216.702 155.61-258.876 284.508-42.174 128.898-72.072 273.438-176.958 359.406C253.31-650.05 28.148-681.172-98.662-552.796c-92.34 93.492-100.026 242.856-70.398 370.872C-139.432-53.908-79.006 65.774-53.842 194.744c42.03 215.46-17.046 441.558 28.404 656.316 55.062 260.154 274.59 477.738 535.212 530.46 199.8 40.428 405.558-9.504 603.27-59.148 148.644-37.332 297.288-74.646 446.004-111.996 170.712-42.858 347.328-118.548 478.746-238.212 70.146-63.864 131.922-139.518 162.126-231.048 46.278-141.48-6.282-184.95 95.94-293.004 76.95-81.342 147.798-92.898 170.334-218.7 31.842-177.588-85.59-367.56-124.578-535.842-68.22-294.498-33.552-762.444-462.618-761.652z"/></g><g opacity=".5"><path fill="none" stroke="#949393" stroke-miterlimit="20" stroke-width="2.16" d="M1859.508-1048.572c-162.72.306-324.864 98.784-480.528 51.426-227.988-69.354-333.18-420.354-569.772-391.716-134.64 16.29-216.702 155.61-258.876 284.508-42.174 128.898-72.072 273.438-176.958 359.406C233.82-630.54 8.658-661.662-118.152-533.286c-92.34 93.492-100.026 242.856-70.398 370.872C-158.922-34.398-98.496 85.284-73.332 214.254c42.03 215.46-17.046 441.558 28.404 656.316 55.062 260.154 274.59 477.738 535.212 530.46 199.8 40.428 405.558-9.504 603.27-59.148 148.644-37.332 297.288-74.646 446.004-111.996 170.712-42.858 347.328-118.548 478.746-238.212 70.146-63.864 131.922-139.518 162.126-231.048 46.278-141.48-6.282-184.95 95.94-293.004 76.95-81.342 147.798-92.898 170.334-218.7 31.842-177.588-85.59-367.56-124.578-535.842-68.238-294.498-33.552-762.426-462.618-761.652z"/></g><g opacity=".5"><path fill="none" stroke="#949393" stroke-miterlimit="20" stroke-width="2.09" d="M1839.988-1029.082c-162.72.306-324.864 98.784-480.528 51.426-227.988-69.354-333.18-420.354-569.772-391.716-134.64 16.29-216.702 155.61-258.876 284.508-42.174 128.898-72.072 273.438-176.958 359.406C214.3-611.05-10.862-642.172-137.672-513.796c-92.34 93.492-100.026 242.856-70.398 370.872 29.628 128.016 90.054 247.698 115.218 376.668 42.03 215.46-17.046 441.558 28.404 656.316 55.044 260.136 274.572 477.72 535.212 530.46 199.8 40.428 405.558-9.504 603.27-59.148 148.644-37.332 297.288-74.646 446.004-111.996 170.712-42.858 347.328-118.548 478.746-238.212 70.146-63.864 131.922-139.518 162.126-231.048 46.278-141.48-6.282-184.95 95.94-293.004 76.95-81.342 147.798-92.898 170.334-218.7 31.842-177.588-85.59-367.56-124.578-535.842-68.22-294.498-33.534-762.444-462.618-761.652z"/></g><g opacity=".5"><path fill="none" stroke="#949393" stroke-miterlimit="20" stroke-width="2.03" d="M1820.498-1009.582c-162.72.306-324.864 98.784-480.528 51.426-227.988-69.354-333.18-420.354-569.772-391.716-134.64 16.29-216.702 155.61-258.876 284.508-42.174 128.898-72.072 273.438-176.958 359.406C194.81-591.55-30.352-622.672-157.162-494.296c-92.34 93.492-100.026 242.856-70.398 370.872 29.628 128.016 90.054 247.698 115.218 376.668 42.03 215.46-17.046 441.558 28.404 656.316 55.062 260.154 274.59 477.738 535.212 530.46 199.8 40.428 405.558-9.504 603.27-59.148 148.644-37.332 297.288-74.646 446.004-111.996 170.712-42.858 347.328-118.548 478.746-238.212 70.146-63.864 131.922-139.518 162.126-231.048 46.278-141.48-6.282-184.95 95.94-293.004 76.95-81.342 147.78-92.898 170.334-218.7 31.842-177.588-85.59-367.56-124.578-535.842-68.22-294.498-33.552-762.444-462.618-761.652z"/></g><g opacity=".5"><path fill="none" stroke="#949393" stroke-miterlimit="20" stroke-width="1.96" d="M1801.008-990.072c-162.72.306-324.864 98.784-480.528 51.426C1092.492-1008 987.3-1359 750.708-1330.362c-134.64 16.29-216.702 155.61-258.876 284.508-42.174 128.898-72.072 273.438-176.958 359.406C175.32-572.04-49.842-603.162-176.652-474.786c-92.34 93.492-100.026 242.856-70.398 370.872 29.628 128.016 90.054 247.698 115.218 376.668 42.03 215.46-17.046 441.558 28.404 656.316 55.062 260.154 274.59 477.738 535.212 530.46 199.8 40.428 405.558-9.504 603.27-59.148 148.644-37.332 297.288-74.646 446.004-111.996 170.712-42.858 347.328-118.548 478.746-238.212 70.146-63.864 131.922-139.518 162.126-231.048 46.278-141.48-6.282-184.95 95.94-293.004 76.95-81.342 147.798-92.898 170.334-218.7 31.842-177.588-85.59-367.56-124.578-535.842-68.238-294.498-33.552-762.426-462.618-761.652z"/></g><g opacity=".5"><path fill="none" stroke="#949393" stroke-miterlimit="20" stroke-width="1.9" d="M1781.488-970.582c-162.72.306-324.864 98.784-480.528 51.426-227.988-69.354-333.18-420.354-569.772-391.716-134.64 16.29-216.702 155.61-258.876 284.508-42.174 128.898-72.072 273.438-176.958 359.406C155.8-552.55-69.362-583.672-196.172-455.296c-92.34 93.492-100.026 242.856-70.398 370.872 29.628 128.016 90.054 247.698 115.218 376.668 42.03 215.46-17.046 441.558 28.404 656.316 55.062 260.154 274.59 477.738 535.212 530.46 199.8 40.428 405.558-9.504 603.27-59.148 148.644-37.332 297.288-74.646 446.004-111.996 170.712-42.858 347.328-118.548 478.746-238.212 70.146-63.864 131.922-139.518 162.126-231.048 46.278-141.48-6.282-184.95 95.94-293.004 76.95-81.342 147.798-92.898 170.334-218.7 31.842-177.588-85.59-367.56-124.578-535.842-68.22-294.498-33.534-762.444-462.618-761.652z"/></g><g opacity=".5"><path fill="none" stroke="#949393" stroke-miterlimit="20" stroke-width="1.84" d="M1761.998-951.082c-162.72.306-324.864 98.784-480.528 51.426-227.988-69.354-333.18-420.354-569.772-391.716-134.64 16.29-216.702 155.61-258.876 284.508-42.174 128.898-72.072 273.438-176.958 359.406C136.31-533.05-88.852-564.172-215.662-435.796c-92.34 93.492-100.026 242.856-70.398 370.872 29.628 128.016 90.054 247.698 115.218 376.668 42.03 215.46-17.046 441.558 28.404 656.316 55.062 260.154 274.59 477.738 535.212 530.46 199.8 40.428 405.558-9.504 603.27-59.148 148.644-37.332 297.288-74.646 446.004-111.996 170.712-42.858 347.328-118.548 478.746-238.212 70.146-63.864 131.922-139.518 162.126-231.048 46.278-141.48-6.282-184.95 95.94-293.004 76.95-81.342 147.798-92.898 170.334-218.7 31.842-177.588-85.59-367.56-124.578-535.842-68.22-294.498-33.552-762.444-462.618-761.652z"/></g><g opacity=".5"><path fill="none" stroke="#949393" stroke-miterlimit="20" stroke-width="1.77" d="M1742.508-931.592c-162.72.306-324.864 98.784-480.528 51.426-227.988-69.354-333.18-420.354-569.772-391.716-134.64 16.29-216.702 155.61-258.876 284.508-42.174 128.898-72.072 273.438-176.958 359.406C116.82-513.56-108.342-544.682-235.152-416.306c-92.34 93.492-100.026 242.856-70.398 370.872 29.628 128.016 90.054 247.698 115.218 376.668 42.03 215.46-17.046 441.558 28.404 656.316 55.062 260.154 274.59 477.738 535.212 530.46 199.8 40.428 405.558-9.504 603.27-59.148 148.644-37.332 297.288-74.646 446.004-111.996 170.712-42.858 347.328-118.548 478.746-238.212 70.146-63.864 131.922-139.518 162.126-231.048 46.278-141.48-6.282-184.95 95.94-293.004 76.95-81.342 147.798-92.898 170.334-218.7 31.842-177.588-85.59-367.56-124.578-535.842-68.22-294.516-33.552-762.444-462.618-761.652z"/></g><g opacity=".5"><path fill="none" stroke="#949393" stroke-miterlimit="20" stroke-width="1.71" d="M1722.988-912.082c-162.72.306-324.864 98.784-480.528 51.426-227.988-69.354-333.18-420.354-569.772-391.716-134.64 16.29-216.702 155.61-258.876 284.508-42.174 128.898-72.072 273.438-176.958 359.406C97.3-494.05-127.862-525.172-254.672-396.796c-92.34 93.492-100.026 242.856-70.398 370.872 29.628 128.016 90.054 247.698 115.218 376.668 42.03 215.46-17.046 441.558 28.404 656.316 55.044 260.154 274.572 477.738 535.212 530.46 199.8 40.428 405.558-9.504 603.27-59.148 148.644-37.332 297.288-74.646 446.004-111.996 170.712-42.858 347.328-118.548 478.746-238.212 70.146-63.864 131.922-139.518 162.126-231.048 46.278-141.48-6.282-184.95 95.94-293.004 76.95-81.342 147.798-92.898 170.334-218.7 31.842-177.588-85.59-367.56-124.578-535.842-68.22-294.498-33.534-762.426-462.618-761.652z"/></g><g opacity=".5"><path fill="none" stroke="#949393" stroke-miterlimit="20" stroke-width="1.64" d="M1703.498-892.582c-162.72.306-324.864 98.784-480.528 51.426-227.988-69.354-333.18-420.354-569.772-391.716-134.64 16.29-216.702 155.61-258.876 284.508-42.174 128.898-72.072 273.438-176.958 359.406C77.81-474.55-147.352-505.672-274.162-377.296c-92.34 93.492-100.026 242.856-70.398 370.872 29.628 128.016 90.054 247.698 115.218 376.668 42.03 215.46-17.046 441.558 28.404 656.316 55.062 260.154 274.59 477.738 535.212 530.46 199.8 40.428 405.558-9.504 603.27-59.148 148.644-37.332 297.288-74.646 446.004-111.996 170.712-42.858 347.328-118.548 478.746-238.212 70.146-63.864 131.922-139.518 162.126-231.048 46.278-141.48-6.282-184.95 95.94-293.004 76.95-81.342 147.798-92.898 170.334-218.7 31.842-177.588-85.59-367.56-124.578-535.842-68.22-294.498-33.534-762.444-462.618-761.652z"/></g></g></g></svg>