<svg xmlns="http://www.w3.org/2000/svg" width="741" height="800" viewBox="0 0 741 800"><g><g clip-path="url(#clip-BD4C0736-1411-4B17-957E-D145324D6ED1)" opacity=".5" transform="matrix(-1 0 0 1 3616 0)"><g opacity=".5"><path fill="none" stroke="#949393" stroke-miterlimit="20" stroke-width="4.8" d="M3020.978-1139.042c-162.72.306-324.864 98.784-480.528 51.426-227.988-69.354-333.18-420.354-569.772-391.716-134.64 16.29-216.702 155.61-258.876 284.508-42.174 128.898-72.09 273.438-176.958 359.406-139.554 114.408-364.716 83.286-491.526 211.662-92.34 93.492-100.026 242.856-70.398 370.872 29.628 128.016 90.054 247.698 115.218 376.668 42.03 215.46-17.046 441.558 28.404 656.316 55.062 260.154 274.59 477.738 535.212 530.46 199.8 40.428 405.558-9.486 603.27-59.148 148.644-37.332 297.288-74.646 446.004-111.996 170.712-42.858 347.328-118.548 478.746-238.212 70.146-63.864 131.922-139.518 162.126-231.048 46.278-141.48-6.282-184.95 95.94-293.004 76.95-81.342 147.798-92.898 170.334-218.7 31.842-177.588-85.59-367.56-124.578-535.842-68.238-294.498-33.552-762.426-462.618-761.652z"/></g><g opacity=".5"><path fill="none" stroke="#949393" stroke-miterlimit="20" stroke-width="4.73" d="M3001.458-1119.552c-162.72.306-324.864 98.784-480.528 51.426-227.988-69.354-333.18-420.354-569.772-391.716-134.64 16.29-216.702 155.61-258.876 284.508-42.174 128.898-72.072 273.438-176.958 359.406-139.554 114.408-364.716 83.286-491.526 211.662-92.34 93.492-100.026 242.856-70.398 370.872 29.628 128.016 90.054 247.698 115.218 376.668 42.03 215.46-17.046 441.558 28.404 656.316 55.062 260.154 274.59 477.738 535.212 530.46 199.8 40.428 405.558-9.504 603.27-59.148 148.644-37.332 297.288-74.646 446.004-111.996 170.712-42.858 347.328-118.548 478.746-238.212 70.146-63.864 131.922-139.518 162.126-231.048 46.278-141.48-6.282-184.95 95.94-293.004 76.95-81.342 147.798-92.898 170.334-218.7 31.842-177.588-85.59-367.56-124.578-535.842-68.22-294.498-33.534-762.444-462.618-761.652z"/></g><g opacity=".5"><path fill="none" stroke="#949393" stroke-miterlimit="20" stroke-width="4.67" d="M2981.968-1100.062c-162.72.306-324.864 98.784-480.528 51.426-227.988-69.354-333.18-420.354-569.772-391.716-134.64 16.29-216.702 155.61-258.876 284.508-42.174 128.898-72.072 273.438-176.958 359.406-139.554 114.408-364.716 83.286-491.526 211.662-92.34 93.492-100.026 242.856-70.398 370.872 29.628 128.016 90.054 247.698 115.218 376.668 42.03 215.46-17.046 441.558 28.404 656.316 55.044 260.136 274.572 477.72 535.194 530.46 199.8 40.428 405.558-9.486 603.27-59.148 148.644-37.332 297.288-74.646 446.004-111.996 170.712-42.858 347.328-118.548 478.746-238.212 70.146-63.864 131.922-139.518 162.126-231.048 46.278-141.48-6.282-184.95 95.94-293.004 76.95-81.342 147.798-92.898 170.334-218.7 31.842-177.588-85.59-367.56-124.578-535.842-68.202-294.498-33.534-762.444-462.6-761.652z"/></g><g opacity=".5"><path fill="none" stroke="#949393" stroke-miterlimit="20" stroke-width="4.6" d="M2962.478-1080.562c-162.72.306-324.864 98.784-480.528 51.426-227.988-69.354-333.18-420.354-569.772-391.716-134.64 16.29-216.702 155.61-258.876 284.508-42.174 128.898-72.09 273.438-176.958 359.406-139.554 114.408-364.716 83.286-491.526 211.662-92.34 93.492-100.026 242.856-70.398 370.872 29.628 128.016 90.054 247.698 115.218 376.668 42.03 215.46-17.046 441.558 28.404 656.316 55.062 260.154 274.59 477.738 535.212 530.46 199.8 40.428 405.558-9.486 603.27-59.148 148.644-37.332 297.288-74.646 446.004-111.996 170.712-42.858 347.328-118.548 478.746-238.212 70.146-63.864 131.922-139.518 162.126-231.048 46.278-141.48-6.282-184.95 95.94-293.004 76.95-81.342 147.78-92.898 170.334-218.7 31.842-177.588-85.59-367.56-124.578-535.842-68.22-294.516-33.552-762.444-462.618-761.652z"/></g><g opacity=".5"><path fill="none" stroke="#949393" stroke-miterlimit="20" stroke-width="4.54" d="M2942.958-1061.052c-162.72.306-324.864 98.784-480.528 51.426-227.988-69.354-333.18-420.354-569.772-391.716-134.64 16.29-216.702 155.61-258.876 284.508-42.174 128.898-72.072 273.438-176.958 359.406-139.554 114.408-364.716 83.286-491.526 211.662-92.34 93.492-100.026 242.856-70.398 370.872 29.628 128.016 90.054 247.698 115.218 376.668 42.03 215.46-17.046 441.558 28.404 656.316 55.062 260.154 274.59 477.738 535.212 530.46 199.8 40.428 405.558-9.504 603.27-59.148 148.644-37.332 297.288-74.646 446.004-111.996 170.712-42.858 347.328-118.548 478.746-238.212 70.146-63.864 131.922-139.518 162.126-231.048 46.278-141.48-6.282-184.95 95.94-293.004 76.95-81.342 147.798-92.898 170.334-218.7 31.842-177.588-85.59-367.56-124.578-535.842-68.22-294.498-33.534-762.426-462.618-761.652z"/></g><g opacity=".5"><path fill="none" stroke="#949393" stroke-miterlimit="20" stroke-width="4.47" d="M2923.468-1041.552c-162.72.306-324.864 98.784-480.528 51.426-227.988-69.354-333.18-420.354-569.772-391.716-134.64 16.29-216.702 155.61-258.876 284.508-42.174 128.898-72.09 273.438-176.958 359.406-139.554 114.408-364.716 83.286-491.526 211.662-92.34 93.492-100.026 242.856-70.398 370.872 29.628 128.016 90.054 247.698 115.218 376.668 42.03 215.46-17.046 441.558 28.404 656.316 55.062 260.154 274.59 477.738 535.212 530.46 199.8 40.428 405.558-9.504 603.27-59.148 148.644-37.332 297.288-74.646 446.004-111.996 170.712-42.858 347.328-118.548 478.746-238.212 70.146-63.864 131.922-139.518 162.126-231.048 46.278-141.48-6.282-184.95 95.94-293.004 76.95-81.342 147.798-92.898 170.334-218.7 31.842-177.588-85.59-367.56-124.578-535.842-68.22-294.498-33.552-762.444-462.618-761.652z"/></g><g opacity=".5"><path fill="none" stroke="#949393" stroke-miterlimit="20" stroke-width="4.41" d="M2903.978-1022.062c-162.72.306-324.864 98.784-480.528 51.426-227.988-69.354-333.18-420.354-569.772-391.716-134.64 16.29-216.702 155.61-258.876 284.508-42.174 128.898-72.072 273.438-176.958 359.406-139.554 114.408-364.716 83.286-491.526 211.662-92.34 93.492-100.026 242.856-70.398 370.872 29.628 128.016 90.054 247.698 115.218 376.668 42.03 215.46-17.046 441.558 28.404 656.316 55.062 260.154 274.59 477.738 535.212 530.46 199.8 40.428 405.558-9.504 603.27-59.148 148.644-37.332 297.288-74.646 446.004-111.996 170.712-42.858 347.328-118.548 478.746-238.212 70.146-63.864 131.922-139.518 162.126-231.048 46.278-141.48-6.282-184.95 95.94-293.004 76.95-81.342 147.798-92.898 170.334-218.7 31.842-177.588-85.59-367.56-124.578-535.842-68.22-294.498-33.552-762.444-462.618-761.652z"/></g><g opacity=".5"><path fill="none" stroke="#949393" stroke-miterlimit="20" stroke-width="4.35" d="M2884.478-1002.552c-162.72.306-324.864 98.784-480.528 51.426-227.988-69.354-333.18-420.354-569.772-391.716-134.64 16.29-216.702 155.61-258.876 284.508-42.174 128.898-72.09 273.438-176.958 359.406-139.554 114.408-364.716 83.286-491.526 211.662-92.34 93.492-100.026 242.856-70.398 370.872 29.628 128.016 90.054 247.698 115.218 376.668 42.03 215.46-17.046 441.558 28.404 656.316 55.062 260.154 274.59 477.738 535.212 530.46 199.8 40.428 405.558-9.504 603.27-59.148 148.644-37.332 297.288-74.646 446.004-111.996 170.712-42.858 347.328-118.548 478.746-238.212 70.146-63.864 131.922-139.518 162.126-231.048 46.278-141.48-6.282-184.95 95.94-293.004 76.95-81.342 147.798-92.898 170.334-218.7 31.842-177.588-85.59-367.56-124.578-535.842-68.238-294.498-33.552-762.426-462.618-761.652z"/></g><g opacity=".5"><path fill="none" stroke="#949393" stroke-miterlimit="20" stroke-width="4.28" d="M2864.968-983.052c-162.72.306-324.864 98.784-480.528 51.426-227.988-69.354-333.18-420.354-569.772-391.716-134.64 16.29-216.702 155.61-258.876 284.508-42.174 128.898-72.072 273.438-176.958 359.406-139.554 114.408-364.716 83.286-491.526 211.662-92.34 93.492-100.026 242.856-70.398 370.872 29.628 128.016 90.054 247.698 115.218 376.668 42.03 215.46-17.046 441.558 28.404 656.316 55.062 260.154 274.59 477.738 535.212 530.46 199.8 40.428 405.558-9.504 603.27-59.148 148.644-37.332 297.288-74.646 446.004-111.996 170.712-42.858 347.328-118.548 478.746-238.212 70.146-63.864 131.922-139.518 162.126-231.048 46.278-141.48-6.282-184.95 95.94-293.004 76.95-81.342 147.798-92.898 170.334-218.7 31.842-177.588-85.59-367.56-124.578-535.842-68.22-294.498-33.534-762.444-462.618-761.652z"/></g><g opacity=".5"><path fill="none" stroke="#949393" stroke-miterlimit="20" stroke-width="4.22" d="M2845.478-963.562c-162.72.306-324.864 98.784-480.528 51.426-227.988-69.354-333.18-420.354-569.772-391.716-134.64 16.29-216.702 155.61-258.876 284.508-42.174 128.898-72.09 273.438-176.958 359.406-139.554 114.408-364.716 83.286-491.526 211.662-92.34 93.492-100.026 242.856-70.398 370.872 29.628 128.016 90.054 247.698 115.218 376.668 42.03 215.46-17.046 441.558 28.404 656.316 55.062 260.154 274.59 477.738 535.212 530.46 199.8 40.428 405.558-9.486 603.27-59.148 148.644-37.332 297.288-74.646 446.004-111.996 170.712-42.858 347.328-118.548 478.746-238.212 70.146-63.864 131.922-139.518 162.126-231.048 46.278-141.48-6.282-184.95 95.94-293.004 76.95-81.342 147.798-92.898 170.334-218.7 31.842-177.588-85.59-367.56-124.578-535.842-68.22-294.498-33.552-762.444-462.618-761.652z"/></g><g opacity=".5"><path fill="none" stroke="#949393" stroke-miterlimit="20" stroke-width="4.15" d="M2825.978-944.052c-162.72.306-324.864 98.784-480.528 51.426-227.988-69.354-333.18-420.354-569.772-391.716-134.64 16.29-216.702 155.61-258.876 284.508-42.174 128.898-72.072 273.438-176.958 359.406-139.554 114.408-364.716 83.286-491.526 211.662-92.34 93.492-100.026 242.856-70.398 370.872 29.628 128.016 90.054 247.698 115.218 376.668 42.03 215.46-17.046 441.558 28.404 656.316 55.062 260.154 274.59 477.738 535.212 530.46 199.8 40.428 405.558-9.504 603.27-59.148 148.644-37.332 297.288-74.646 446.004-111.996 170.712-42.858 347.328-118.548 478.746-238.212 70.146-63.864 131.922-139.518 162.126-231.048 46.278-141.48-6.282-184.95 95.94-293.004 76.95-81.342 147.798-92.898 170.334-218.7 31.842-177.588-85.59-367.56-124.578-535.842-68.238-294.498-33.552-762.426-462.618-761.652z"/></g><g opacity=".5"><path fill="none" stroke="#949393" stroke-miterlimit="20" stroke-width="4.09" d="M2806.468-924.552c-162.72.306-324.864 98.784-480.528 51.426-227.988-69.354-333.18-420.354-569.772-391.716-134.64 16.29-216.702 155.61-258.876 284.508-42.174 128.898-72.072 273.438-176.958 359.406-139.554 114.408-364.716 83.286-491.526 211.662-92.34 93.492-100.026 242.856-70.398 370.872 29.628 128.016 90.054 247.698 115.218 376.668 42.03 215.46-17.046 441.558 28.404 656.316 55.062 260.154 274.59 477.738 535.212 530.46 199.8 40.428 405.558-9.504 603.27-59.148 148.644-37.332 297.288-74.646 446.004-111.996 170.712-42.858 347.328-118.548 478.746-238.212 70.146-63.864 131.922-139.518 162.126-231.048 46.278-141.48-6.282-184.95 95.94-293.004 76.95-81.342 147.798-92.898 170.334-218.7 31.842-177.588-85.59-367.56-124.578-535.842-68.22-294.498-33.534-762.426-462.618-761.652z"/></g><g opacity=".5"><path fill="none" stroke="#949393" stroke-miterlimit="20" stroke-width="4.02" d="M2786.978-905.062c-162.72.306-324.864 98.784-480.528 51.426-227.988-69.354-333.18-420.354-569.772-391.716-134.64 16.29-216.702 155.61-258.876 284.508-42.174 128.898-72.09 273.438-176.958 359.406-139.554 114.408-364.716 83.286-491.526 211.662-92.34 93.492-100.026 242.856-70.398 370.872 29.628 128.016 90.054 247.698 115.218 376.668 42.03 215.46-17.046 441.558 28.404 656.316 55.062 260.154 274.59 477.738 535.212 530.46 199.8 40.428 405.558-9.504 603.27-59.148 148.644-37.332 297.288-74.646 446.004-111.996 170.712-42.858 347.328-118.548 478.746-238.212 70.146-63.864 131.922-139.518 162.126-231.048 46.278-141.48-6.282-184.95 95.94-293.004 76.95-81.342 147.78-92.898 170.334-218.7 31.842-177.588-85.59-367.56-124.578-535.842-68.22-294.498-33.552-762.444-462.618-761.652z"/></g><g opacity=".5"><path fill="none" stroke="#949393" stroke-miterlimit="20" stroke-width="3.96" d="M2767.478-885.572c-162.72.306-324.864 98.784-480.528 51.426-227.988-69.354-333.18-420.354-569.772-391.716-134.64 16.29-216.702 155.61-258.876 284.508-42.174 128.898-72.072 273.438-176.958 359.406-139.554 114.408-364.716 83.286-491.526 211.662C697.478-276.794 689.792-127.43 719.42.586c29.628 128.016 90.054 247.698 115.218 376.668 42.03 215.46-17.046 441.558 28.404 656.316 55.062 260.154 274.59 477.738 535.212 530.46 199.8 40.428 405.558-9.504 603.27-59.148 148.644-37.332 297.288-74.646 446.004-111.996 170.712-42.858 347.328-118.548 478.746-238.212 70.146-63.864 131.922-139.518 162.126-231.048 46.278-141.48-6.282-184.95 95.94-293.004 76.95-81.342 147.798-92.898 170.334-218.7 31.842-177.588-85.59-367.56-124.578-535.842-68.22-294.516-33.552-762.444-462.618-761.652z"/></g><g opacity=".5"><path fill="none" stroke="#949393" stroke-miterlimit="20" stroke-width="3.9" d="M2747.968-866.052c-162.72.306-324.864 98.784-480.528 51.426-227.988-69.354-333.18-420.354-569.772-391.716-134.64 16.29-216.702 155.61-258.876 284.508-42.174 128.898-72.09 273.438-176.958 359.406-139.554 114.408-364.716 83.286-491.526 211.662-92.34 93.492-100.026 242.856-70.398 370.872 29.628 128.016 90.054 247.698 115.218 376.668 42.03 215.46-17.046 441.558 28.404 656.316 55.062 260.154 274.59 477.738 535.212 530.46 199.8 40.428 405.558-9.504 603.27-59.148 148.644-37.332 297.288-74.646 446.004-111.996 170.712-42.858 347.328-118.548 478.746-238.212 70.146-63.864 131.922-139.518 162.126-231.048 46.278-141.48-6.282-184.95 95.94-293.004 76.95-81.342 147.798-92.898 170.334-218.7 31.842-177.588-85.59-367.56-124.578-535.842-68.22-294.498-33.534-762.426-462.618-761.652z"/></g><g opacity=".5"><path fill="none" stroke="#949393" stroke-miterlimit="20" stroke-width="3.83" d="M2728.478-846.562c-162.72.306-324.864 98.784-480.528 51.426-227.988-69.354-333.18-420.354-569.772-391.716-134.64 16.29-216.702 155.61-258.876 284.508-42.174 128.898-72.072 273.438-176.958 359.406-139.554 114.408-364.716 83.286-491.526 211.662-92.34 93.492-100.026 242.856-70.398 370.872 29.628 128.016 90.054 247.698 115.218 376.668 42.03 215.46-17.046 441.558 28.404 656.316 55.062 260.154 274.59 477.738 535.212 530.46 199.8 40.428 405.558-9.504 603.27-59.148 148.644-37.332 297.288-74.646 446.004-111.996 170.712-42.858 347.328-118.548 478.746-238.212 70.146-63.864 131.922-139.518 162.126-231.048 46.278-141.48-6.282-184.95 95.94-293.004 76.95-81.342 147.798-92.898 170.334-218.7 31.842-177.588-85.59-367.56-124.578-535.842-68.22-294.498-33.534-762.444-462.618-761.652z"/></g><g opacity=".5"><path fill="none" stroke="#949393" stroke-miterlimit="20" stroke-width="3.77" d="M2708.978-827.072c-162.72.306-324.864 98.784-480.528 51.426C2000.462-845 1895.27-1196 1658.678-1167.362c-134.64 16.29-216.702 155.61-258.876 284.508-42.174 128.898-72.09 273.438-176.958 359.406-139.554 114.408-364.716 83.286-491.526 211.662-92.34 93.492-100.026 242.856-70.398 370.872 29.628 128.016 90.054 247.698 115.218 376.668 42.03 215.46-17.046 441.558 28.404 656.316 55.062 260.154 274.59 477.738 535.212 530.46 199.8 40.428 405.558-9.504 603.27-59.148 148.644-37.332 297.288-74.646 446.004-111.996 170.712-42.858 347.328-118.548 478.746-238.212 70.146-63.864 131.922-139.518 162.126-231.048 46.278-141.48-6.282-184.95 95.94-293.004 76.95-81.342 147.798-92.898 170.334-218.7 31.842-177.588-85.59-367.56-124.578-535.842-68.22-294.498-33.552-762.444-462.618-761.652z"/></g><g opacity=".5"><path fill="none" stroke="#949393" stroke-miterlimit="20" stroke-width="3.7" d="M2689.488-807.552c-162.72.306-324.864 98.784-480.528 51.426-227.988-69.354-333.18-420.354-569.772-391.716-134.64 16.29-216.702 155.61-258.876 284.508-42.174 128.898-72.072 273.438-176.958 359.406C1063.8-389.52 838.638-420.642 711.828-292.266 619.488-198.774 611.802-49.41 641.43 78.606c29.628 128.016 90.054 247.698 115.218 376.668 42.03 215.46-17.046 441.558 28.404 656.316 55.062 260.154 274.59 477.738 535.212 530.46 199.8 40.428 405.558-9.504 603.27-59.148 148.644-37.332 297.288-74.646 446.004-111.996 170.712-42.858 347.328-118.548 478.746-238.212 70.146-63.864 131.922-139.518 162.126-231.048 46.278-141.48-6.282-184.95 95.94-293.004 76.95-81.342 147.798-92.898 170.334-218.7 31.842-177.588-85.59-367.56-124.578-535.842-68.238-294.498-33.552-762.426-462.618-761.652z"/></g><g opacity=".5"><path fill="none" stroke="#949393" stroke-miterlimit="20" stroke-width="3.64" d="M2669.978-788.062c-162.72.306-324.864 98.784-480.528 51.426-227.988-69.354-333.18-420.354-569.772-391.716-134.64 16.29-216.702 155.61-258.876 284.508-42.174 128.898-72.09 273.438-176.958 359.406-139.554 114.408-364.716 83.286-491.526 211.662-92.34 93.492-100.026 242.856-70.398 370.872 29.628 128.016 90.054 247.698 115.218 376.668 42.03 215.46-17.046 441.558 28.404 656.316 55.062 260.154 274.59 477.738 535.212 530.46 199.8 40.428 405.558-9.504 603.27-59.148 148.644-37.332 297.288-74.646 446.004-111.996 170.712-42.858 347.328-118.548 478.746-238.212 70.146-63.864 131.922-139.518 162.126-231.048 46.278-141.48-6.282-184.95 95.94-293.004 76.95-81.342 147.798-92.898 170.334-218.7 31.842-177.588-85.59-367.56-124.578-535.842-68.22-294.498-33.534-762.444-462.618-761.652z"/></g><g opacity=".5"><path fill="none" stroke="#949393" stroke-miterlimit="20" stroke-width="3.57" d="M2650.478-768.572c-162.72.306-324.864 98.784-480.528 51.426-227.988-69.354-333.18-420.354-569.772-391.716-134.64 16.29-216.702 155.61-258.876 284.508-42.174 128.898-72.072 273.438-176.958 359.406-139.554 114.408-364.716 83.286-491.526 211.662-92.34 93.492-100.026 242.856-70.398 370.872 29.628 128.016 90.054 247.698 115.218 376.668 42.03 215.46-17.046 441.558 28.404 656.316 55.062 260.154 274.59 477.738 535.212 530.46 199.8 40.428 405.558-9.504 603.27-59.148 148.644-37.332 297.288-74.646 446.004-111.996 170.712-42.858 347.328-118.548 478.746-238.212 70.146-63.864 131.922-139.518 162.126-231.048 46.278-141.48-6.282-184.95 95.94-293.004 76.95-81.342 147.798-92.898 170.334-218.7 31.842-177.588-85.59-367.56-124.578-535.842-68.22-294.498-33.552-762.444-462.618-761.652z"/></g><g opacity=".5"><path fill="none" stroke="#949393" stroke-miterlimit="20" stroke-width="3.51" d="M2630.988-749.072c-162.72.306-324.864 98.784-480.528 51.426C1922.472-767 1817.28-1118 1580.688-1089.362c-134.64 16.29-216.702 155.61-258.876 284.508-42.174 128.898-72.09 273.438-176.958 359.406C1005.3-331.04 780.138-362.162 653.328-233.786 560.988-140.294 553.302 9.07 582.93 137.086c29.628 128.016 90.054 247.698 115.218 376.668 42.03 215.46-17.046 441.558 28.404 656.316 55.062 260.154 274.59 477.738 535.212 530.46 199.8 40.428 405.558-9.504 603.27-59.148 148.644-37.332 297.288-74.646 446.004-111.996 170.712-42.858 347.328-118.548 478.746-238.212 70.146-63.864 131.922-139.518 162.126-231.048 46.278-141.48-6.282-184.95 95.94-293.004 76.95-81.342 147.798-92.898 170.334-218.7 31.842-177.588-85.59-367.56-124.578-535.842-68.22-294.516-33.552-762.444-462.618-761.652z"/></g><g opacity=".5"><path fill="none" stroke="#949393" stroke-miterlimit="20" stroke-width="3.45" d="M2611.478-729.562c-162.72.306-324.864 98.784-480.528 51.426-227.988-69.354-333.18-420.354-569.772-391.716-134.64 16.29-216.702 155.61-258.876 284.508-42.174 128.898-72.072 273.438-176.958 359.406C985.79-311.53 760.628-342.652 633.818-214.276c-92.34 93.492-100.026 242.856-70.398 370.872 29.628 128.016 90.054 247.698 115.218 376.668 42.03 215.46-17.046 441.558 28.404 656.316 55.062 260.154 274.59 477.738 535.212 530.46 199.8 40.428 405.558-9.504 603.27-59.148 148.644-37.332 297.288-74.646 446.004-111.996 170.712-42.858 347.328-118.548 478.746-238.212 70.146-63.864 131.922-139.518 162.126-231.048 46.278-141.48-6.282-184.95 95.94-293.004 76.95-81.342 147.78-92.898 170.334-218.7 31.842-177.588-85.59-367.56-124.578-535.842-68.22-294.498-33.534-762.426-462.618-761.652z"/></g><g opacity=".5"><path fill="none" stroke="#949393" stroke-miterlimit="20" stroke-width="3.38" d="M2591.978-710.072c-162.72.306-324.864 98.784-480.528 51.426C1883.462-728 1778.27-1079 1541.678-1050.362c-134.64 16.29-216.702 155.61-258.876 284.508-42.174 128.898-72.072 273.438-176.958 359.406C966.29-292.04 741.128-323.162 614.318-194.786c-92.34 93.492-100.026 242.856-70.398 370.872 29.628 128.016 90.054 247.698 115.218 376.668 42.03 215.46-17.046 441.558 28.404 656.316 55.062 260.154 274.59 477.738 535.212 530.46 199.8 40.428 405.558-9.504 603.27-59.148 148.644-37.332 297.288-74.646 446.004-111.996 170.712-42.858 347.328-118.548 478.746-238.212 70.146-63.864 131.922-139.518 162.126-231.048 46.278-141.48-6.282-184.95 95.94-293.004 76.95-81.342 147.798-92.898 170.334-218.7 31.842-177.588-85.59-367.56-124.578-535.842-68.22-294.498-33.552-762.444-462.618-761.652z"/></g><g opacity=".5"><path fill="none" stroke="#949393" stroke-miterlimit="20" stroke-width="3.32" d="M2572.488-690.572c-162.72.306-324.864 98.784-480.528 51.426-227.988-69.354-333.18-420.354-569.772-391.716-134.64 16.29-216.702 155.61-258.876 284.508-42.174 128.898-72.09 273.438-176.958 359.406C946.8-272.54 721.638-303.662 594.828-175.286 502.488-81.794 494.802 67.57 524.43 195.586c29.628 128.016 90.054 247.698 115.218 376.668 42.03 215.46-17.046 441.558 28.404 656.316 55.062 260.154 274.59 477.738 535.212 530.46 199.8 40.428 405.558-9.504 603.27-59.148 148.644-37.332 297.288-74.646 446.004-111.996 170.712-42.858 347.328-118.548 478.746-238.212 70.146-63.864 131.922-139.518 162.126-231.048 46.278-141.48-6.282-184.95 95.94-293.004 76.95-81.342 147.798-92.898 170.334-218.7 31.842-177.588-85.59-367.56-124.578-535.842-68.22-294.498-33.552-762.444-462.618-761.652z"/></g><g opacity=".5"><path fill="none" stroke="#949393" stroke-miterlimit="20" stroke-width="3.25" d="M2552.988-671.062c-162.72.306-324.864 98.784-480.528 51.426-227.988-69.354-333.18-420.354-569.772-391.716-134.64 16.29-216.702 155.61-258.876 284.508-42.174 128.898-72.072 273.438-176.958 359.406C927.3-253.03 702.138-284.152 575.328-155.776 482.988-62.284 475.302 87.08 504.93 215.096c29.628 128.016 90.054 247.698 115.218 376.668 42.03 215.46-17.046 441.558 28.404 656.316 55.062 260.154 274.59 477.738 535.212 530.46 199.8 40.428 405.558-9.504 603.27-59.148 148.644-37.332 297.288-74.646 446.004-111.996 170.712-42.858 347.328-118.548 478.746-238.212 70.146-63.864 131.922-139.518 162.126-231.048 46.278-141.48-6.282-184.95 95.94-293.004 76.95-81.342 147.798-92.898 170.334-218.7 31.842-177.588-85.59-367.56-124.578-535.842-68.238-294.498-33.552-762.426-462.618-761.652z"/></g><g opacity=".5"><path fill="none" stroke="#949393" stroke-miterlimit="20" stroke-width="3.19" d="M2533.478-651.572c-162.72.306-324.864 98.784-480.528 51.426-227.988-69.354-333.18-420.354-569.772-391.716-134.64 16.29-216.702 155.61-258.876 284.508-42.174 128.898-72.072 273.438-176.958 359.406C907.79-233.54 682.628-264.662 555.818-136.286c-92.34 93.492-100.026 242.856-70.398 370.872 29.628 128.016 90.054 247.698 115.218 376.668 42.03 215.46-17.046 441.558 28.404 656.316 55.062 260.154 274.59 477.738 535.212 530.46 199.8 40.428 405.558-9.504 603.27-59.148 148.644-37.332 297.288-74.646 446.004-111.996 170.712-42.858 347.328-118.548 478.746-238.212 70.146-63.864 131.922-139.518 162.126-231.048 46.278-141.48-6.282-184.95 95.94-293.004 76.95-81.342 147.798-92.898 170.334-218.7 31.842-177.588-85.59-367.56-124.578-535.842-68.22-294.498-33.534-762.444-462.618-761.652z"/></g><g opacity=".5"><path fill="none" stroke="#949393" stroke-miterlimit="20" stroke-width="3.12" d="M2513.988-632.072c-162.72.306-324.864 98.784-480.528 51.426C1805.472-650 1700.28-1001 1463.688-972.362c-134.64 16.29-216.702 155.61-258.876 284.508-42.174 128.898-72.072 273.438-176.958 359.406C888.3-214.04 663.138-245.162 536.328-116.786c-92.34 93.492-100.026 242.856-70.398 370.872 29.628 128.016 90.054 247.698 115.218 376.668 42.03 215.46-17.046 441.558 28.404 656.316 55.062 260.154 274.59 477.738 535.212 530.46 199.8 40.428 405.558-9.504 603.27-59.148 148.644-37.332 297.288-74.646 446.004-111.996 170.712-42.858 347.328-118.548 478.746-238.212 70.146-63.864 131.922-139.518 162.126-231.048 46.278-141.48-6.282-184.95 95.94-293.004 76.95-81.342 147.798-92.898 170.334-218.7 31.842-177.588-85.59-367.56-124.578-535.842-68.22-294.498-33.552-762.444-462.618-761.652z"/></g><g opacity=".5"><path fill="none" stroke="#949393" stroke-miterlimit="20" stroke-width="3.06" d="M2494.488-612.562c-162.72.306-324.864 98.784-480.528 51.426-227.988-69.354-333.18-420.354-569.772-391.716-134.64 16.29-216.702 155.61-258.876 284.508-42.174 128.898-72.09 273.438-176.958 359.406C868.8-194.53 643.638-225.652 516.828-97.276 424.488-3.784 416.802 145.58 446.43 273.596c29.628 128.016 90.054 247.698 115.218 376.668 42.03 215.46-17.046 441.558 28.404 656.316 55.062 260.154 274.59 477.738 535.212 530.46 199.8 40.428 405.558-9.504 603.27-59.148 148.644-37.332 297.288-74.646 446.004-111.996 170.712-42.858 347.328-118.548 478.746-238.212 70.146-63.864 131.922-139.518 162.126-231.048 46.278-141.48-6.282-184.95 95.94-293.004 76.95-81.342 147.798-92.898 170.334-218.7 31.842-177.588-85.59-367.56-124.578-535.842-68.238-294.498-33.552-762.426-462.618-761.652z"/></g><g opacity=".5"><path fill="none" stroke="#949393" stroke-miterlimit="20" stroke-width="3" d="M2474.978-593.072c-162.72.306-324.864 98.784-480.528 51.426C1766.462-611 1661.27-962 1424.678-933.362c-134.64 16.29-216.702 155.61-258.876 284.508-42.174 128.898-72.072 273.438-176.958 359.406C849.29-175.04 624.128-206.162 497.318-77.786c-92.34 93.492-100.026 242.856-70.398 370.872 29.628 128.016 90.054 247.698 115.218 376.668 42.03 215.46-17.046 441.558 28.404 656.316 55.062 260.154 274.59 477.738 535.212 530.46 199.8 40.428 405.558-9.504 603.27-59.148 148.644-37.332 297.288-74.646 446.004-111.996 170.712-42.858 347.328-118.548 478.746-238.212 70.146-63.864 131.922-139.518 162.126-231.048 46.278-141.48-6.282-184.95 95.94-293.004 76.95-81.342 147.798-92.898 170.334-218.7 31.842-177.588-85.59-367.56-124.578-535.842-68.22-294.498-33.534-762.444-462.618-761.652z"/></g><g opacity=".5"><path fill="none" stroke="#949393" stroke-miterlimit="20" stroke-width="2.93" d="M2455.488-573.572c-162.72.306-324.864 98.784-480.528 51.426-227.988-69.354-333.18-420.354-569.772-391.716-134.64 16.29-216.702 155.61-258.876 284.508-42.174 128.898-72.072 273.438-176.958 359.406C829.8-155.54 604.638-186.662 477.828-58.286c-92.34 93.492-100.026 242.856-70.398 370.872 29.628 128.016 90.054 247.698 115.218 376.668 42.03 215.46-17.046 441.558 28.404 656.316 55.062 260.154 274.59 477.738 535.212 530.46 199.8 40.428 405.558-9.504 603.27-59.148 148.644-37.332 297.288-74.646 446.004-111.996 170.712-42.858 347.328-118.548 478.746-238.212 70.146-63.864 131.922-139.518 162.126-231.048 46.278-141.48-6.282-184.95 95.94-293.004 76.95-81.342 147.798-92.898 170.334-218.7 31.842-177.588-85.59-367.56-124.578-535.842-68.22-294.498-33.552-762.444-462.618-761.652z"/></g><g opacity=".5"><path fill="none" stroke="#949393" stroke-miterlimit="20" stroke-width="2.87" d="M2435.988-554.082c-162.72.306-324.864 98.784-480.528 51.426-227.988-69.354-333.18-420.354-569.772-391.716-134.64 16.29-216.702 155.61-258.876 284.508-42.174 128.898-72.072 273.438-176.958 359.406C810.3-136.05 585.138-167.172 458.328-38.796c-92.34 93.492-100.026 242.856-70.398 370.872 29.628 128.016 90.054 247.698 115.218 376.668 42.03 215.46-17.046 441.558 28.404 656.316 55.062 260.154 274.59 477.738 535.212 530.46 199.8 40.428 405.558-9.504 603.27-59.148 148.644-37.332 297.288-74.646 446.004-111.996 170.712-42.858 347.328-118.548 478.746-238.212 70.146-63.864 131.922-139.518 162.126-231.048 46.278-141.48-6.282-184.95 95.94-293.004 76.95-81.342 147.798-92.898 170.334-218.7 31.842-177.588-85.59-367.56-124.578-535.842-68.22-294.516-33.552-762.444-462.618-761.652z"/></g><g opacity=".5"><path fill="none" stroke="#949393" stroke-miterlimit="20" stroke-width="2.8" d="M2416.478-534.572c-162.72.306-324.864 98.784-480.528 51.426-227.988-69.354-333.18-420.354-569.772-391.716-134.64 16.29-216.702 155.61-258.876 284.508-42.174 128.898-72.072 273.438-176.958 359.406C790.79-116.54 565.628-147.662 438.818-19.286c-92.34 93.492-100.026 242.856-70.398 370.872 29.628 128.016 90.054 247.698 115.218 376.668 42.03 215.46-17.046 441.558 28.404 656.316 55.062 260.154 274.59 477.738 535.212 530.46 199.8 40.428 405.558-9.504 603.27-59.148 148.644-37.332 297.288-74.646 446.004-111.996 170.712-42.858 347.328-118.548 478.746-238.212 70.146-63.864 131.922-139.518 162.126-231.048 46.278-141.48-6.282-184.95 95.94-293.004 76.95-81.342 147.798-92.898 170.334-218.7 31.842-177.588-85.59-367.56-124.578-535.842-68.22-294.498-33.534-762.426-462.618-761.652z"/></g><g opacity=".5"><path fill="none" stroke="#949393" stroke-miterlimit="20" stroke-width="2.74" d="M2396.988-515.072c-162.72.306-324.864 98.784-480.528 51.426C1688.472-533 1583.28-884 1346.688-855.362c-134.64 16.29-216.702 155.61-258.876 284.508-42.174 128.898-72.072 273.438-176.958 359.406C771.3-97.04 546.138-128.162 419.328.214c-92.34 93.492-100.026 242.856-70.398 370.872 29.628 128.016 90.054 247.698 115.218 376.668 42.03 215.46-17.046 441.558 28.404 656.316 55.062 260.154 274.59 477.738 535.212 530.46 199.8 40.428 405.558-9.504 603.27-59.148 148.644-37.332 297.288-74.646 446.004-111.996 170.712-42.858 347.328-118.548 478.746-238.212 70.146-63.864 131.922-139.518 162.126-231.048 46.278-141.48-6.282-184.95 95.94-293.004 76.95-81.342 147.798-92.898 170.334-218.7 31.842-177.588-85.59-367.56-124.578-535.842-68.22-294.498-33.534-762.444-462.618-761.652z"/></g><g opacity=".5"><path fill="none" stroke="#949393" stroke-miterlimit="20" stroke-width="2.67" d="M2377.488-495.582c-162.72.306-324.864 98.784-480.528 51.426-227.988-69.354-333.18-420.354-569.772-391.716-134.64 16.29-216.702 155.61-258.876 284.508-42.174 128.898-72.072 273.438-176.958 359.406C751.8-77.55 526.638-108.672 399.828 19.704c-92.34 93.492-100.026 242.856-70.398 370.872 29.628 128.016 90.054 247.698 115.218 376.668 42.03 215.46-17.046 441.558 28.404 656.316 55.062 260.154 274.59 477.738 535.212 530.46 199.8 40.428 405.558-9.486 603.27-59.148 148.644-37.332 297.288-74.646 446.004-111.996 170.712-42.858 347.328-118.548 478.746-238.212 70.146-63.864 131.922-139.518 162.126-231.048 46.278-141.48-6.282-184.95 95.94-293.004 76.95-81.342 147.798-92.898 170.334-218.7 31.842-177.588-85.59-367.56-124.578-535.842-68.22-294.498-33.552-762.444-462.618-761.652z"/></g><g opacity=".5"><path fill="none" stroke="#949393" stroke-miterlimit="20" stroke-width="2.61" d="M2357.998-476.072c-162.72.306-324.864 98.784-480.528 51.426C1649.482-494 1544.29-845 1307.698-816.362c-134.64 16.29-216.702 155.61-258.876 284.508-42.174 128.898-72.072 273.438-176.958 359.406C732.31-58.04 507.148-89.162 380.338 39.214c-92.34 93.492-100.026 242.856-70.398 370.872 29.628 128.016 90.054 247.698 115.218 376.668 42.03 215.46-17.046 441.558 28.404 656.316 55.062 260.154 274.59 477.738 535.212 530.46 199.8 40.428 405.558-9.504 603.27-59.148 148.644-37.332 297.288-74.646 446.004-111.996 170.712-42.858 347.328-118.548 478.746-238.212 70.146-63.864 131.922-139.518 162.126-231.048 46.278-141.48-6.282-184.95 95.94-293.004 76.95-81.342 147.798-92.898 170.334-218.7 31.842-177.588-85.59-367.56-124.578-535.842-68.238-294.498-33.552-762.426-462.618-761.652z"/></g><g opacity=".5"><path fill="none" stroke="#949393" stroke-miterlimit="20" stroke-width="2.54" d="M2338.488-456.572c-162.72.306-324.864 98.784-480.528 51.426-227.988-69.354-333.18-420.354-569.772-391.716-134.64 16.29-216.702 155.61-258.876 284.508-42.174 128.898-72.072 273.438-176.958 359.406C712.8-38.54 487.638-69.662 360.828 58.714c-92.34 93.492-100.026 242.856-70.398 370.872 29.628 128.016 90.054 247.698 115.218 376.668 42.03 215.46-17.046 441.558 28.404 656.316 55.062 260.154 274.59 477.738 535.212 530.46 199.8 40.428 405.558-9.504 603.27-59.148 148.644-37.332 297.288-74.646 446.004-111.996 170.712-42.858 347.328-118.548 478.746-238.212 70.146-63.864 131.922-139.518 162.126-231.048 46.278-141.48-6.282-184.95 95.94-293.004 76.95-81.342 147.798-92.898 170.334-218.7 31.842-177.588-85.59-367.56-124.578-535.842-68.22-294.498-33.534-762.444-462.618-761.652z"/></g><g opacity=".5"><path fill="none" stroke="#949393" stroke-miterlimit="20" stroke-width="2.48" d="M2318.988-437.082c-162.72.306-324.864 98.784-480.528 51.426-227.988-69.354-333.18-420.354-569.772-391.716-134.64 16.29-216.702 155.61-258.876 284.508-42.174 128.898-72.072 273.438-176.958 359.406C693.3-19.05 468.138-50.172 341.328 78.204c-92.34 93.492-100.026 242.856-70.398 370.872 29.628 128.016 90.054 247.698 115.218 376.668 42.03 215.46-17.046 441.558 28.404 656.316 55.062 260.154 274.59 477.738 535.212 530.46 199.8 40.428 405.558-9.504 603.27-59.148 148.644-37.332 297.288-74.646 446.004-111.996 170.712-42.858 347.328-118.548 478.746-238.212 70.146-63.864 131.922-139.518 162.126-231.048 46.278-141.48-6.282-184.95 95.94-293.004 76.95-81.342 147.798-92.898 170.334-218.7 31.842-177.588-85.59-367.56-124.578-535.842-68.22-294.498-33.552-762.444-462.618-761.652z"/></g><g opacity=".5"><path fill="none" stroke="#949393" stroke-miterlimit="20" stroke-width="2.42" d="M2299.498-417.582c-162.72.306-324.864 98.784-480.528 51.426-227.988-69.354-333.18-420.354-569.772-391.716-134.64 16.29-216.702 155.61-258.876 284.508-42.174 128.898-72.072 273.438-176.958 359.406C673.81.45 448.648-30.672 321.838 97.704c-92.34 93.492-100.026 242.856-70.398 370.872 29.628 128.016 90.054 247.698 115.218 376.668 42.03 215.46-17.046 441.558 28.404 656.316 55.062 260.154 274.59 477.738 535.212 530.46 199.8 40.428 405.558-9.504 603.27-59.148 148.644-37.332 297.288-74.646 446.004-111.996 170.712-42.858 347.328-118.548 478.746-238.212 70.146-63.864 131.922-139.518 162.126-231.048 46.278-141.48-6.282-184.95 95.94-293.004 76.95-81.342 147.798-92.898 170.334-218.7 31.842-177.588-85.59-367.56-124.578-535.842-68.22-294.516-33.552-762.444-462.618-761.652z"/></g><g opacity=".5"><path fill="none" stroke="#949393" stroke-miterlimit="20" stroke-width="2.35" d="M2279.988-398.072c-162.72.306-324.864 98.784-480.528 51.426C1571.472-416 1466.28-767 1229.688-738.362c-134.64 16.29-216.702 155.61-258.876 284.508-42.174 128.898-72.072 273.438-176.958 359.406C654.3 19.96 429.138-11.162 302.328 117.214c-92.34 93.492-100.026 242.856-70.398 370.872 29.628 128.016 90.054 247.698 115.218 376.668 42.03 215.46-17.046 441.558 28.404 656.316 55.062 260.154 274.59 477.738 535.212 530.46 199.8 40.428 405.558-9.504 603.27-59.148 148.644-37.332 297.288-74.646 446.004-111.996 170.712-42.858 347.328-118.548 478.746-238.212 70.146-63.864 131.922-139.518 162.126-231.048 46.278-141.48-6.282-184.95 95.94-293.004 76.95-81.342 147.798-92.898 170.334-218.7 31.842-177.588-85.59-367.56-124.578-535.842-68.22-294.498-33.534-762.426-462.618-761.652z"/></g><g opacity=".5"><path fill="none" stroke="#949393" stroke-miterlimit="20" stroke-width="2.29" d="M2260.488-378.582c-162.72.306-324.864 98.784-480.528 51.426-227.988-69.354-333.18-420.354-569.772-391.716-134.64 16.29-216.702 155.61-258.876 284.508-42.174 128.898-72.072 273.438-176.958 359.406C634.8 39.45 409.638 8.328 282.828 136.704c-92.34 93.492-100.026 242.856-70.398 370.872 29.628 128.016 90.054 247.698 115.218 376.668 42.03 215.46-17.046 441.558 28.404 656.316 55.062 260.154 274.59 477.738 535.212 530.46 199.8 40.428 405.558-9.504 603.27-59.148 148.644-37.332 297.288-74.646 446.004-111.996 170.712-42.858 347.328-118.548 478.746-238.212 70.146-63.864 131.922-139.518 162.126-231.048 46.278-141.48-6.282-184.95 95.94-293.004 76.95-81.342 147.798-92.898 170.334-218.7 31.842-177.588-85.59-367.56-124.578-535.842-68.22-294.498-33.552-762.444-462.618-761.652z"/></g><g opacity=".5"><path fill="none" stroke="#949393" stroke-miterlimit="20" stroke-width="2.22" d="M2240.998-359.082c-162.72.306-324.864 98.784-480.528 51.426-227.988-69.354-333.18-420.354-569.772-391.716-134.64 16.29-216.702 155.61-258.876 284.508-42.174 128.898-72.072 273.438-176.958 359.406C615.31 58.95 390.148 27.828 263.338 156.204c-92.34 93.492-100.026 242.856-70.398 370.872 29.628 128.016 90.054 247.698 115.218 376.668 42.03 215.46-17.046 441.558 28.404 656.316 55.062 260.154 274.59 477.738 535.212 530.46 199.8 40.428 405.558-9.504 603.27-59.148 148.644-37.332 297.288-74.646 446.004-111.996 170.712-42.858 347.328-118.548 478.746-238.212 70.146-63.864 131.922-139.518 162.126-231.048 46.278-141.48-6.282-184.95 95.94-293.004 76.95-81.342 147.798-92.898 170.334-218.7 31.842-177.588-85.59-367.56-124.578-535.842-68.22-294.498-33.552-762.444-462.618-761.652z"/></g><g opacity=".5"><path fill="none" stroke="#949393" stroke-miterlimit="20" stroke-width="2.16" d="M2221.508-339.572c-162.72.306-324.864 98.784-480.528 51.426C1512.992-357.5 1407.8-708.5 1171.208-679.862c-134.64 16.29-216.702 155.61-258.876 284.508-42.174 128.898-72.072 273.438-176.958 359.406C595.82 78.46 370.658 47.338 243.848 175.714c-92.34 93.492-100.026 242.856-70.398 370.872 29.628 128.016 90.054 247.698 115.218 376.668 42.03 215.46-17.046 441.558 28.404 656.316 55.062 260.154 274.59 477.738 535.212 530.46 199.8 40.428 405.558-9.504 603.27-59.148 148.644-37.332 297.288-74.646 446.004-111.996 170.712-42.858 347.328-118.548 478.746-238.212 70.146-63.864 131.922-139.518 162.126-231.048 46.278-141.48-6.282-184.95 95.94-293.004 76.95-81.342 147.798-92.898 170.334-218.7 31.842-177.588-85.59-367.56-124.578-535.842-68.238-294.498-33.552-762.426-462.618-761.652z"/></g><g opacity=".5"><path fill="none" stroke="#949393" stroke-miterlimit="20" stroke-width="2.09" d="M2201.988-320.082c-162.72.306-324.864 98.784-480.528 51.426-227.988-69.354-333.18-420.354-569.772-391.716-134.64 16.29-216.702 155.61-258.876 284.508-42.174 128.898-72.072 273.438-176.958 359.406C576.3 97.95 351.138 66.828 224.328 195.204c-92.34 93.492-100.026 242.856-70.398 370.872 29.628 128.016 90.054 247.698 115.218 376.668 42.03 215.46-17.046 441.558 28.404 656.316 55.044 260.136 274.572 477.72 535.212 530.46 199.8 40.428 405.558-9.504 603.27-59.148 148.644-37.332 297.288-74.646 446.004-111.996 170.712-42.858 347.328-118.548 478.746-238.212 70.146-63.864 131.922-139.518 162.126-231.048 46.278-141.48-6.282-184.95 95.94-293.004 76.95-81.342 147.798-92.898 170.334-218.7 31.842-177.588-85.59-367.56-124.578-535.842-68.22-294.498-33.534-762.444-462.618-761.652z"/></g><g opacity=".5"><path fill="none" stroke="#949393" stroke-miterlimit="20" stroke-width="2.03" d="M2182.498-300.582c-162.72.306-324.864 98.784-480.528 51.426-227.988-69.354-333.18-420.354-569.772-391.716-134.64 16.29-216.702 155.61-258.876 284.508C831.148-227.466 801.25-82.926 696.364 3.042 556.81 117.45 331.648 86.328 204.838 214.704c-92.34 93.492-100.026 242.856-70.398 370.872 29.628 128.016 90.054 247.698 115.218 376.668 42.03 215.46-17.046 441.558 28.404 656.316 55.062 260.154 274.59 477.738 535.212 530.46 199.8 40.428 405.558-9.504 603.27-59.148 148.644-37.332 297.288-74.646 446.004-111.996 170.712-42.858 347.328-118.548 478.746-238.212 70.146-63.864 131.922-139.518 162.126-231.048 46.278-141.48-6.282-184.95 95.94-293.004 76.95-81.342 147.78-92.898 170.334-218.7 31.842-177.588-85.59-367.56-124.578-535.842-68.22-294.498-33.552-762.444-462.618-761.652z"/></g><g opacity=".5"><path fill="none" stroke="#949393" stroke-miterlimit="20" stroke-width="1.96" d="M2163.008-281.072c-162.72.306-324.864 98.784-480.528 51.426C1454.492-299 1349.3-650 1112.708-621.362c-134.64 16.29-216.702 155.61-258.876 284.508C811.658-207.956 781.76-63.416 676.874 22.552 537.32 136.96 312.158 105.838 185.348 234.214 93.008 327.706 85.322 477.07 114.95 605.086c29.628 128.016 90.054 247.698 115.218 376.668 42.03 215.46-17.046 441.558 28.404 656.316 55.062 260.154 274.59 477.738 535.212 530.46 199.8 40.428 405.558-9.504 603.27-59.148 148.644-37.332 297.288-74.646 446.004-111.996 170.712-42.858 347.328-118.548 478.746-238.212 70.146-63.864 131.922-139.518 162.126-231.048 46.278-141.48-6.282-184.95 95.94-293.004 76.95-81.342 147.798-92.898 170.334-218.7 31.842-177.588-85.59-367.56-124.578-535.842-68.238-294.498-33.552-762.426-462.618-761.652z"/></g><g opacity=".5"><path fill="none" stroke="#949393" stroke-miterlimit="20" stroke-width="1.9" d="M2143.488-261.582c-162.72.306-324.864 98.784-480.528 51.426-227.988-69.354-333.18-420.354-569.772-391.716-134.64 16.29-216.702 155.61-258.876 284.508C792.138-188.466 762.24-43.926 657.354 42.042 517.8 156.45 292.638 125.328 165.828 253.704 73.488 347.196 65.802 496.56 95.43 624.576c29.628 128.016 90.054 247.698 115.218 376.668 42.03 215.46-17.046 441.558 28.404 656.316 55.062 260.154 274.59 477.738 535.212 530.46 199.8 40.428 405.558-9.504 603.27-59.148 148.644-37.332 297.288-74.646 446.004-111.996 170.712-42.858 347.328-118.548 478.746-238.212 70.146-63.864 131.922-139.518 162.126-231.048 46.278-141.48-6.282-184.95 95.94-293.004 76.95-81.342 147.798-92.898 170.334-218.7 31.842-177.588-85.59-367.56-124.578-535.842-68.22-294.498-33.534-762.444-462.618-761.652z"/></g><g opacity=".5"><path fill="none" stroke="#949393" stroke-miterlimit="20" stroke-width="1.84" d="M2123.998-242.082c-162.72.306-324.864 98.784-480.528 51.426-227.988-69.354-333.18-420.354-569.772-391.716-134.64 16.29-216.702 155.61-258.876 284.508C772.648-168.966 742.75-24.426 637.864 61.542 498.31 175.95 273.148 144.828 146.338 273.204 53.998 366.696 46.312 516.06 75.94 644.076c29.628 128.016 90.054 247.698 115.218 376.668 42.03 215.46-17.046 441.558 28.404 656.316 55.062 260.154 274.59 477.738 535.212 530.46 199.8 40.428 405.558-9.504 603.27-59.148 148.644-37.332 297.288-74.646 446.004-111.996 170.712-42.858 347.328-118.548 478.746-238.212 70.146-63.864 131.922-139.518 162.126-231.048 46.278-141.48-6.282-184.95 95.94-293.004 76.95-81.342 147.798-92.898 170.334-218.7 31.842-177.588-85.59-367.56-124.578-535.842-68.22-294.498-33.552-762.444-462.618-761.652z"/></g><g opacity=".5"><path fill="none" stroke="#949393" stroke-miterlimit="20" stroke-width="1.77" d="M2104.508-222.592c-162.72.306-324.864 98.784-480.528 51.426-227.988-69.354-333.18-420.354-569.772-391.716-134.64 16.29-216.702 155.61-258.876 284.508C753.158-149.476 723.26-4.936 618.374 81.032 478.82 195.44 253.658 164.318 126.848 292.694 34.508 386.186 26.822 535.55 56.45 663.566c29.628 128.016 90.054 247.698 115.218 376.668 42.03 215.46-17.046 441.558 28.404 656.316 55.062 260.154 274.59 477.738 535.212 530.46 199.8 40.428 405.558-9.504 603.27-59.148 148.644-37.332 297.288-74.646 446.004-111.996 170.712-42.858 347.328-118.548 478.746-238.212 70.146-63.864 131.922-139.518 162.126-231.048 46.278-141.48-6.282-184.95 95.94-293.004 76.95-81.342 147.798-92.898 170.334-218.7 31.842-177.588-85.59-367.56-124.578-535.842-68.22-294.516-33.552-762.444-462.618-761.652z"/></g><g opacity=".5"><path fill="none" stroke="#949393" stroke-miterlimit="20" stroke-width="1.71" d="M2084.988-203.082c-162.72.306-324.864 98.784-480.528 51.426-227.988-69.354-333.18-420.354-569.772-391.716-134.64 16.29-216.702 155.61-258.876 284.508-42.174 128.898-72.072 273.438-176.958 359.406C459.3 214.95 234.138 183.828 107.328 312.204 14.988 405.696 7.302 555.06 36.93 683.076c29.628 128.016 90.054 247.698 115.218 376.668 42.03 215.46-17.046 441.558 28.404 656.316 55.044 260.154 274.572 477.738 535.212 530.46 199.8 40.428 405.558-9.504 603.27-59.148 148.644-37.332 297.288-74.646 446.004-111.996 170.712-42.858 347.328-118.548 478.746-238.212 70.146-63.864 131.922-139.518 162.126-231.048 46.278-141.48-6.282-184.95 95.94-293.004 76.95-81.342 147.798-92.898 170.334-218.7 31.842-177.588-85.59-367.56-124.578-535.842-68.22-294.498-33.534-762.426-462.618-761.652z"/></g><g opacity=".5"><path fill="none" stroke="#949393" stroke-miterlimit="20" stroke-width="1.64" d="M2065.498-183.582c-162.72.306-324.864 98.784-480.528 51.426-227.988-69.354-333.18-420.354-569.772-391.716-134.64 16.29-216.702 155.61-258.876 284.508-42.174 128.898-72.072 273.438-176.958 359.406C439.81 234.45 214.648 203.328 87.838 331.704-4.502 425.196-12.188 574.56 17.44 702.576c29.628 128.016 90.054 247.698 115.218 376.668 42.03 215.46-17.046 441.558 28.404 656.316 55.062 260.154 274.59 477.738 535.212 530.46 199.8 40.428 405.558-9.504 603.27-59.148 148.644-37.332 297.288-74.646 446.004-111.996 170.712-42.858 347.328-118.548 478.746-238.212 70.146-63.864 131.922-139.518 162.126-231.048 46.278-141.48-6.282-184.95 95.94-293.004 76.95-81.342 147.798-92.898 170.334-218.7 31.842-177.588-85.59-367.56-124.578-535.842-68.22-294.498-33.534-762.444-462.618-761.652z"/></g></g></g></svg>