<svg xmlns="http://www.w3.org/2000/svg" xmlns:xlink="http://www.w3.org/1999/xlink" width="79" height="47" viewBox="0 0 79 47">
    <defs>
        <path id="0e9nuwsbga" d="M0.168 0.167L30.72 0.167 30.72 39.778 0.168 39.778z"/>
        <path id="gn7jk2eo1c" d="M0 0.294L39.672 0.294 39.672 40.893 0 40.893z"/>
    </defs>
    <g fill="none" fill-rule="evenodd">
        <path fill="#FEFEFE" d="M10.948 20.623h-.923v1.466h.874c.303 0 .534-.057.692-.168.161-.113.24-.3.24-.562 0-.49-.294-.736-.883-.736m-.138-1.908h-.785v1.2h.869c.156 0 .295-.042.412-.13.118-.084.177-.232.177-.44 0-.24-.056-.403-.168-.494-.117-.091-.283-.136-.505-.136m.205 4.115H9.138v-4.858h1.308c.244 0 .453.009.628.027.173.017.34.054.503.103.165.052.297.121.396.21.1.09.18.21.24.359.06.148.09.328.09.538 0 .453-.135.793-.404 1.022.29.113.505.261.644.445.142.185.211.428.211.733 0 .266-.052.497-.154.69-.102.194-.24.34-.413.441-.174.101-.356.175-.551.22-.192.048-.399.07-.62.07M18.141 22.83L17.258 22.83 16.834 19.485 15.556 21.786 14.349 19.583 13.929 22.83 13.011 22.83 13.654 17.972 14.393 17.972 15.597 20.184 16.78 17.972 17.508 17.972zM22.401 18.832L21.026 18.832 21.026 22.83 20.139 22.83 20.139 18.832 18.764 18.832 18.764 17.972 22.401 17.972zM24.372 18.715h-.686v1.48h.651c.377 0 .633-.067.773-.196.137-.13.205-.317.205-.563 0-.245-.066-.427-.2-.545-.135-.117-.38-.176-.743-.176zm2.146 4.115h-.946l-.984-1.804h-.902v1.804h-.89v-4.858h1.775c1.112 0 1.67.468 1.67 1.402 0 .349-.073.631-.218.85-.144.22-.35.41-.614.57l1.11 2.036zM29.319 20.797l-.507-1.434-.511 1.434h1.018zm1.63 2.033h-.911l-.415-1.172h-1.629l-.419 1.172h-.912l1.728-4.858h.84l1.717 4.858zM33.09 18.832h-.93v3.138h.93c.463 0 .815-.138 1.06-.414.242-.276.363-.662.363-1.155s-.121-.877-.363-1.155c-.245-.276-.597-.414-1.06-.414m0 3.998h-1.819v-4.858h1.82c.708 0 1.284.22 1.726.655.445.438.667 1.027.667 1.774 0 .747-.222 1.338-.667 1.776-.442.436-1.018.653-1.726.653M38.064 20.797l-.506-1.434-.512 1.434h1.018zm1.631 2.033h-.914l-.412-1.172h-1.63l-.417 1.172h-.914l1.73-4.858h.837l1.72 4.858zM60.076 44.702c0 .451.054.752.158.902.106.148.238.224.392.224.155 0 .287-.076.39-.226.107-.15.16-.451.16-.9 0-.453-.053-.754-.16-.904-.103-.148-.237-.222-.393-.222-.156 0-.28.066-.372.197-.116.166-.175.476-.175.929m-.347 0c0-.327.034-.587.1-.786.067-.199.166-.352.3-.46.13-.108.297-.161.497-.161.149 0 .278.03.39.089.11.06.203.146.275.258.072.112.13.249.17.409.042.16.062.378.062.65 0 .322-.033.583-.099.782-.067.199-.165.352-.298.46-.13.109-.298.163-.5.163-.265 0-.474-.096-.624-.287-.182-.229-.273-.6-.273-1.117M63.37 46.058h-.338v-2.152c-.081.077-.189.155-.32.232-.132.077-.251.136-.355.175v-.326c.188-.09.353-.197.494-.324.142-.126.243-.249.302-.368h.217v2.763zM66.243 45.733v.325h-1.82c0-.08.01-.16.04-.233.046-.125.12-.248.223-.367.1-.12.25-.26.441-.416.3-.246.502-.441.608-.584.104-.143.156-.278.156-.406 0-.135-.047-.247-.143-.34-.096-.09-.22-.136-.375-.136-.162 0-.293.047-.39.145-.097.097-.147.234-.149.405l-.346-.035c.023-.26.112-.456.269-.592.155-.135.363-.204.624-.204.264 0 .473.074.626.22.155.146.232.329.232.544 0 .11-.023.219-.069.325-.043.106-.12.219-.223.336-.105.118-.278.28-.52.485-.204.17-.334.284-.39.345-.058.06-.107.123-.144.183h1.35zM58.738 10.464l.123-.11c.126-.22.032-.501-.064-.722l.064-.064c.347.596.549 1.194.848 1.806l-.03.032c-.251-.109-.423-.503-.754-.376.062.36.44.469.754.548.298-.017.673-.25.769-.58.015-.206.079-.393-.096-.534-.092-.08-.25 0-.33.047-.109.094.047.22-.062.313-.125-.015-.266-.045-.375-.092-.11-.127-.11-.33-.078-.487.061-.3.423-.33.61-.377-.061-.3-.172-.816.095-1.052.376.125.517.549.581.879.172-.046.343-.11.564-.063.175.11.282.314.3.519-.018.141-.174.266-.3.313-.094-.094-.172-.3-.36-.219-.221.157-.017.424.064.596.235.36.72.407 1.095.392.332-.126.677-.44.662-.816-.11 0-.251-.032-.345.032-.347.077-.283.549-.628.533-.064-.597-.047-1.287-.019-1.868h.129c.201.266.454.722.863.613.092-.456-.441-.643-.692-.894.064-.096.19-.049.27-.111V7.168c-.931 0-1.541-.627-2.496-.565-.568.077-1.162.456-1.352 1.02-.189.566-.095 1.161.203 1.632-.062.394-.298.896-.013 1.21"/>
        <path fill="#FEFEFE" d="M62.675 6.526l-.014 2.007c.047.016.062-.031.108-.048V7.45h.015c-.06-.268.064-.707-.11-.925M63.792 5.71c.108-.346-.333-.126-.46-.284-.122-.11-.122-.282-.107-.439-.296-.362-.143.266-.315.281.08.362-.501.064-.501.394.015.062.079.11.158.094.39-.203.815-.015 1.225-.047M63.508 6.556c-.062.644-.08 1.38.017 1.992l.077-.077V7.372c-.034-.266.064-.628-.094-.816"/>
        <path fill="#FEFEFE" d="M63.446 9.757c.249.047.422-.156.595-.28.155-.112.144-.425.36-.363.031.55.031 1.303 0 1.836-.25.111-.216-.235-.36-.33-.14-.156-.362-.25-.582-.203v.22c.08.36.502.549.835.627.39-.048.846-.172 1.02-.55.029-.17.172-.407-.049-.533-.204-.11-.266.204-.36.268-.111-.032-.253-.174-.268-.298-.03-.236.08-.456.298-.566.205-.032.379-.032.534.08.11-.347.22-.755.565-.911.22.281.172.722.126 1.067.236-.032.408.108.532.281.047.158.111.362.032.471-.126.128-.282.268-.439.158-.015-.047-.046-.126.015-.158-.015-.092-.094-.219-.219-.203-.249 0-.22.267-.297.422.015.362.422.645.705.754.363-.047.722-.203.834-.564-.333-.22-.49.345-.755.408l.597-1.569c.094-.111.08-.33.266-.33.08.189-.141.377-.094.58 0 .157.079.267.204.314.126-.047.063-.204.096-.313.045-.392-.332-.77-.033-1.1.25-.627.22-1.38-.252-1.913-1.067-1.178-2.353.062-3.531.094-.047.502.017 1.052.017 1.522.093.062.313.03.283.173-.329.204-.74.47-.675.91M60.966 34.716c-.053-.072-.119-.13-.198-.168-.078-.04-.162-.06-.254-.06-.098 0-.185.024-.263.075-.078.05-.145.117-.197.202-.054.086-.096.185-.123.301-.028.115-.042.237-.042.367 0 .161.017.3.049.41.034.113.077.203.133.27.056.069.12.118.192.148.074.03.15.045.23.045.086 0 .169-.018.248-.057.079-.039.148-.098.205-.177.06-.079.106-.18.142-.3.035-.124.053-.267.053-.433 0-.133-.015-.251-.047-.356-.03-.104-.072-.193-.128-.267M58.44 34.714c-.017-.053-.044-.094-.079-.12-.035-.028-.083-.046-.138-.055-.057-.006-.125-.012-.204-.012-.005.276-.008.552-.008.83.011.002.023.004.034.004l.03.001c.126 0 .222-.035.29-.108.067-.072.1-.181.1-.328 0-.089-.008-.16-.025-.212M56.496 34.618c-.027-.032-.06-.055-.098-.069-.037-.015-.075-.022-.116-.022h-.095c-.01 0-.018.002-.026.004l-.003.43c-.002.142-.002.284-.002.427.047 0 .097-.006.148-.016.05-.01.098-.032.14-.064.042-.03.075-.075.102-.134.027-.06.04-.138.04-.234 0-.078-.007-.143-.023-.195-.017-.054-.038-.096-.067-.127M56.409 37.576c-.017-.056-.044-.098-.08-.127-.035-.028-.082-.047-.138-.055-.057-.009-.124-.012-.203-.012-.005.288-.009.574-.009.862l.034.005.03.001c.127 0 .223-.038.29-.112.067-.076.1-.189.1-.342 0-.092-.007-.167-.024-.22M61.342 11.861c-.27.126-.69-.126-.754.22-.048.281.267.187.424.236.205-.064.707.045.549-.347-.015-.109-.125-.124-.22-.109M63.082 11.61c-.141.03-.249.141-.264.266-.017.111.03.205.079.283.17.015.28.141.454.062.095-.092.108-.219.095-.36-.034-.172-.221-.22-.364-.25M63.176 7.655c.112-.047.145-.157.157-.251-.045-.126-.187-.173-.296-.126-.14 0-.048.158-.096.22-.012.125.126.187.235.157M66.086 29.596c-.107.25-.21.496-.306.74s-.19.494-.28.748h1.142l-.271-.748c-.09-.244-.185-.49-.285-.74M62.958 6.854c0 .079-.03.205.032.267.077.063.174.048.25 0 .081-.062.063-.109.093-.188-.045-.141-.28-.22-.375-.08M63.067 6.29c-.157.015-.138.204-.11.313.048.094.159.047.22.077.095-.045.156-.14.144-.266-.034-.062-.145-.141-.254-.124M63.225 8.628c.078-.063.126-.174.108-.283-.093-.14-.251-.204-.359-.077-.063.186.016.392.251.36M64.7 12.144c.25.156.58.124.863.156.157-.064.143-.187.143-.33-.22-.188-.535-.094-.818-.14-.189-.033-.235.172-.189.314M59.081 12.506c0 .109.08.14.187.14.064 0 .111-.078.111-.14 0-.174-.298-.174-.298 0M65.644 37.796c-.05.128-.096.252-.142.377l-.13.377h.528l-.125-.377c-.042-.125-.086-.249-.131-.377"/>
        <g transform="translate(47.68 1.306)">
            <mask id="30un1zcywb" fill="#fff">
                <use xlink:href="#0e9nuwsbga"/>
            </mask>
            <path fill="#FEFEFE" d="M26.445 36.416c-.007.155-.01.301-.015.44-.004.138-.005.272-.007.407l-.002.43v.38c-.038-.005-.077-.007-.117-.007-.043 0-.08.002-.113.006-.394-.506-.813-1.016-1.258-1.53-.001.061-.003.122-.003.184l-.001.187v.367l.001.323c0 .09.002.163.003.225.004.061.006.112.007.15l.005.094c-.022-.004-.045-.006-.069-.006h-.065c-.044 0-.088.002-.133.006.005-.016.008-.077.015-.181.005-.103.012-.229.018-.377.007-.15.012-.311.017-.485.005-.175.009-.342.009-.503 0-.145-.004-.268-.007-.367l-.009-.263c.054.01.098.015.13.015s.076-.005.13-.015l.619.754c.205.246.414.498.63.754V36.82l-.002-.304-.003-.278c0-.084-.004-.158-.006-.219-.003-.06-.007-.103-.01-.123.054.01.096.015.13.015.032 0 .076-.005.13-.015-.01.192-.019.366-.024.52zm-2.176-5.305c-.147.123-.32.217-.522.281-.202.064-.43.098-.679.098-.225 0-.425-.025-.602-.072-.177-.048-.311-.108-.404-.179.042-.145.077-.28.106-.399.03-.121.056-.252.076-.394h.12c.015.091.047.179.092.26.045.08.104.153.175.215.07.062.156.111.256.147.1.035.213.053.338.053.25 0 .434-.062.552-.188.12-.125.179-.274.179-.45 0-.158-.046-.287-.138-.387-.091-.1-.206-.188-.344-.266-.136-.077-.286-.151-.45-.225-.162-.073-.312-.16-.449-.265-.137-.104-.252-.232-.343-.385-.093-.151-.138-.347-.138-.584 0-.215.039-.407.116-.574.076-.167.18-.306.308-.419.13-.113.28-.197.448-.256.168-.059.347-.087.533-.087.226 0 .423.027.592.08.168.055.312.13.433.226-.036.096-.07.189-.097.278-.027.09-.06.203-.103.34h-.094c-.133-.357-.384-.537-.756-.537-.192 0-.346.057-.468.168-.12.113-.181.244-.181.394 0 .155.047.281.141.379.093.097.21.186.352.265.143.08.294.155.456.228.163.072.315.163.456.27.143.105.261.233.354.386.094.152.14.347.14.584 0 .209-.04.399-.119.572-.079.172-.192.32-.336.443zm-.17 6.319c-.054.136-.13.255-.228.358-.096.103-.212.184-.346.24-.133.056-.282.085-.443.085-.151 0-.295-.02-.428-.06-.132-.043-.249-.108-.348-.2-.097-.094-.176-.21-.234-.353-.057-.143-.086-.313-.086-.512 0-.156.026-.303.08-.44.052-.137.126-.258.222-.36.096-.105.212-.185.348-.245.136-.059.288-.089.455-.089.152 0 .296.024.429.07.132.046.247.117.345.21.097.092.175.21.232.353.056.141.084.308.084.498 0 .158-.027.307-.082.445zm-2.155-4.047c-.001-.048-.003-.084-.006-.106-.03 0-.064 0-.108.004-.043.001-.086.003-.135.007-.047.003-.096.006-.146.011-.05.005-.096.012-.138.017l.01-.067c.003-.022.003-.044.003-.066 0-.024 0-.045-.003-.067l-.01-.067c.065.001.124.003.176.006.053.002.106.004.162.004.054.001.115.003.179.003.063.002.14.002.23.002s.168 0 .232-.002c.064 0 .123-.002.177-.003.054 0 .106-.002.156-.004.051-.003.106-.005.168-.006-.006.021-.01.045-.011.067-.003.022-.005.043-.005.067 0 .022.002.044.005.066.002.023.005.045.01.067-.039-.005-.082-.012-.13-.017-.048-.005-.095-.008-.142-.011-.047-.004-.091-.006-.134-.007-.043-.004-.079-.004-.107-.004-.002.01-.004.024-.004.042l-.001.064v.925c0 .168.001.317.005.449.005.13.01.259.018.385-.033-.005-.069-.007-.107-.007h-.26c-.037 0-.072.002-.106.007.009-.126.014-.256.017-.385.005-.132.007-.281.007-.45v-.762c0-.059 0-.113-.002-.162zm-.491 4.289c.005.136.01.27.018.4-.033-.004-.069-.006-.108-.006h-.257c-.039 0-.074.002-.108.006.009-.13.014-.264.019-.4.003-.136.005-.293.005-.468v-.43c0-.176-.002-.332-.005-.469-.005-.136-.01-.272-.019-.409l.108.01c.037.004.08.005.128.005.049 0 .093-.001.13-.005l.107-.01c-.008.137-.013.273-.018.41-.003.136-.005.292-.005.467v.43c0 .176.002.333.005.469zm-.504-2.616c-.154.083-.35.125-.585.125-.168 0-.317-.025-.448-.074-.131-.05-.242-.12-.335-.21-.09-.092-.16-.197-.207-.322-.049-.124-.072-.258-.072-.402 0-.212.03-.39.093-.539.062-.146.146-.266.25-.358.104-.093.226-.16.364-.204.138-.042.283-.064.434-.064.05 0 .103.005.158.014.057.008.11.018.162.031.052.014.101.03.148.048.047.018.087.037.12.057-.02.05-.034.102-.044.155-.012.05-.019.102-.022.156h-.04c-.073-.097-.149-.166-.224-.209-.078-.042-.169-.062-.272-.062-.077 0-.154.019-.232.054-.077.037-.148.093-.21.168-.064.074-.115.17-.155.288-.039.116-.059.256-.059.42 0 .156.02.289.06.4.041.11.093.2.157.27.064.071.138.122.22.154.082.034.162.049.245.049.047 0 .094-.005.141-.017.049-.01.095-.025.142-.045.045-.019.089-.042.13-.071.041-.029.077-.06.108-.094l.037.023c-.015.042-.028.086-.04.13-.012.044-.018.087-.024.13zm-.437 1.049c.002.024.005.045.01.07-.039-.008-.083-.013-.13-.018-.048-.005-.095-.01-.142-.013-.048-.004-.092-.005-.134-.007-.043-.004-.079-.004-.107-.004-.002.01-.004.026-.004.044l-.001.068V37.204c0 .175.001.332.005.468.005.136.01.27.018.4-.033-.004-.069-.006-.108-.006h-.259c-.037 0-.072.002-.106.006.009-.13.014-.264.017-.4.005-.136.007-.293.007-.468v-.793c0-.06 0-.116-.002-.166s-.003-.088-.006-.112c-.03 0-.065 0-.108.004-.042.002-.086.003-.135.007-.047.003-.096.008-.146.013-.05.005-.096.01-.138.017l.01-.069c.003-.023.003-.047.003-.07 0-.023 0-.046-.004-.07l-.01-.069.177.005c.053.004.106.005.162.005l.178.004.23.001.233-.001.177-.004c.054 0 .106-.001.156-.005l.167-.005c-.005.022-.008.046-.01.07-.004.023-.005.046-.005.068 0 .024.001.048.005.071zm-1.661 1.96h-.244c-.04 0-.083.003-.122.007l-.096-.316c-.031-.108-.067-.216-.102-.323-.062-.003-.123-.005-.185-.005-.06-.002-.123-.002-.184-.002-.05 0-.1 0-.15.002-.05 0-.099.002-.15.005-.038.107-.073.215-.105.323-.034.108-.062.212-.09.316-.023-.004-.045-.006-.067-.006h-.138c-.022 0-.047.002-.074.006.024-.055.054-.13.093-.228l.126-.33.148-.394.158-.426.155-.424c.05-.14.098-.27.14-.39l.055.011c.017.004.035.005.054.005.019 0 .037-.001.056-.005l.054-.012.196.578c.071.205.142.405.212.602.071.199.14.386.207.562.068.179.129.329.184.451-.045-.004-.09-.006-.131-.006zm-1.858-3.677c0-.08 0-.153.002-.217V33.835c.003-.051.003-.105.003-.159 0-.165 0-.298-.002-.399-.003-.102-.005-.178-.01-.228l.12.01c.038.003.079.005.117.005.037 0 .078-.002.118-.005l.118-.01c-.02.196-.03.38-.035.55-.004.168-.005.341-.005.517 0 .183.011.333.036.447.026.113.063.2.112.263.048.062.11.104.18.124.07.02.153.03.247.03.114 0 .205-.03.27-.092.065-.06.114-.141.147-.242.034-.103.056-.22.063-.35.008-.132.011-.268.011-.41 0-.14-.001-.279-.005-.418-.005-.14-.01-.28-.018-.42l.08.01c.022.004.046.006.068.006.024 0 .049-.002.07-.005l.073-.01c-.003.045-.008.104-.012.18l-.011.26-.01.325c-.002.12-.004.244-.004.377 0 .354-.072.606-.215.76-.145.154-.356.23-.633.23-.123 0-.24-.013-.345-.04-.106-.029-.199-.074-.278-.138-.077-.064-.14-.147-.185-.246-.046-.101-.067-.224-.067-.369zm-1.219 3.045c.04.116.093.21.157.283.064.072.137.126.218.16.083.033.164.05.246.05.047 0 .095-.005.141-.017.05-.011.095-.026.142-.047.045-.02.089-.045.131-.076.04-.028.076-.062.108-.097l.037.025c-.015.044-.029.09-.04.135-.012.045-.02.09-.024.134-.155.086-.35.13-.586.13-.168 0-.316-.025-.448-.077-.13-.053-.242-.125-.334-.22-.091-.093-.16-.204-.207-.333-.05-.13-.073-.269-.073-.419 0-.219.03-.405.093-.558.062-.154.146-.278.25-.374.105-.096.226-.167.364-.21.138-.046.283-.068.434-.068.05 0 .103.005.159.014.057.008.109.018.161.032.052.015.101.03.148.05.047.019.088.039.12.06-.019.053-.034.105-.044.159-.012.054-.019.11-.022.163h-.04c-.073-.1-.148-.173-.224-.217-.078-.042-.168-.064-.271-.064-.078 0-.155.019-.232.057-.078.037-.149.096-.21.174-.065.079-.116.178-.156.3-.039.12-.058.267-.058.435 0 .163.02.301.06.416zm-1.04-2.298h-.13c-.038 0-.074.002-.108.007.009-.126.014-.256.02-.385.002-.132.004-.281.004-.45v-.415c0-.169-.002-.318-.005-.45-.005-.13-.01-.262-.019-.393l.108.01c.037.003.081.005.13.005.062 0 .133-.002.212-.009.079-.005.182-.006.308-.006.165 0 .315.015.45.047s.252.084.35.16c.097.075.173.176.227.302.053.128.08.288.08.48 0 .168-.027.321-.079.458-.052.136-.124.252-.215.348-.091.096-.197.17-.317.22-.12.053-.247.078-.383.078-.145 0-.268-.001-.369-.003-.103-.002-.19-.004-.264-.004zm-.026 2.537c.006.136.01.27.019.4-.034-.004-.069-.006-.108-.006h-.257c-.039 0-.074.002-.108.006.009-.13.013-.264.019-.4.003-.136.005-.293.005-.468v-.43c0-.176-.002-.332-.005-.469-.006-.136-.01-.272-.019-.409l.108.01c.037.004.08.005.128.005.049 0 .093-.001.13-.005l.107-.01c-.008.137-.013.273-.019.41-.003.136-.004.292-.004.467v.43c0 .176 0 .333.004.469zm-.858-3.15c-.054.134-.13.248-.227.347-.096.098-.212.175-.347.23-.133.055-.28.082-.442.082-.152 0-.295-.02-.428-.06-.133-.04-.249-.103-.348-.19-.098-.09-.177-.203-.234-.34-.057-.137-.086-.3-.086-.49 0-.152.025-.293.079-.425.052-.133.126-.247.222-.346.096-.102.212-.179.348-.236.137-.057.288-.086.455-.086.153 0 .296.024.43.068.132.045.247.112.344.201.098.09.175.202.233.34.055.137.083.297.083.48 0 .152-.026.295-.082.426zm-.14 1.586c.004.019.005.04.01.063-.055-.004-.117-.009-.183-.012l-.192-.014-.168-.008c-.05-.004-.086-.004-.108-.004-.006.117-.011.231-.011.345-.002.115-.002.23-.002.346.124-.002.237-.005.338-.01.1-.004.205-.009.315-.016-.007.036-.01.064-.012.083-.002.019-.004.039-.004.06 0 .017.002.034.006.053l.01.077c-.219-.019-.436-.028-.653-.028v.16c0 .176.002.333.005.469.003.136.01.27.017.4-.032-.004-.067-.006-.106-.006h-.26c-.037 0-.074.002-.106.006.009-.13.014-.264.017-.4.005-.136.007-.293.007-.468v-.43c0-.176-.002-.332-.007-.469-.003-.136-.008-.272-.017-.409.086.002.172.005.256.009.084.005.17.006.256.006.143 0 .27-.001.379-.005.111-.003.185-.006.224-.01-.009.034-.012.078-.012.133l.001.08zm-1.743 1.564c.005.136.01.27.018.4-.033-.004-.069-.006-.107-.006h-.258c-.039 0-.074.002-.108.006.009-.13.014-.264.019-.4.003-.136.005-.293.005-.468v-.43c0-.176-.002-.332-.005-.469-.005-.136-.01-.272-.019-.409l.108.01c.037.004.081.005.128.005.049 0 .092-.001.13-.005l.107-.01c-.008.137-.013.273-.018.41-.004.136-.005.292-.005.467v.43c0 .176.001.333.005.469zm-.704-2.537h-.26c-.043 0-.086.002-.132.007l-.513-.96h-.027v.126c0 .168.001.317.007.449.003.13.008.259.017.385-.034-.005-.07-.007-.107-.007H9.99c-.039 0-.074.002-.108.007.009-.126.014-.256.02-.385.002-.132.004-.281.004-.45v-.415c0-.169-.002-.318-.005-.45-.005-.13-.01-.262-.019-.393l.108.01c.037.003.081.005.13.005.05 0 .11-.002.176-.009.066-.005.148-.006.246-.006.072 0 .135.001.187.006.052.004.096.01.135.017.037.008.069.02.097.032.027.013.054.03.08.049.057.043.102.1.136.165.034.065.05.144.05.236 0 .149-.039.269-.116.363-.075.093-.187.16-.33.199.091.171.19.343.296.515.107.171.21.341.317.511-.044-.005-.088-.007-.13-.007zm-.237.97c.001.024.005.045.01.07-.039-.008-.082-.013-.13-.018-.048-.005-.095-.01-.143-.013-.047-.004-.09-.005-.133-.007-.043-.004-.079-.004-.107-.004-.002.01-.004.026-.004.044l-.001.068V37.204c0 .175.001.332.005.468.005.136.01.27.018.4-.034-.004-.069-.006-.107-.006h-.26c-.037 0-.072.002-.106.006.009-.13.014-.264.017-.4.005-.136.007-.293.007-.468v-.793c0-.06 0-.116-.002-.166-.001-.05-.003-.088-.007-.112-.028 0-.064 0-.107.004-.043.002-.086.003-.135.007-.047.003-.096.008-.147.013-.05.005-.096.01-.137.017l.01-.069c.003-.023.003-.047.003-.07 0-.023 0-.046-.003-.07l-.01-.069.176.005c.052.004.106.005.162.005l.178.004.231.001.232-.001.177-.004c.054 0 .106-.001.156-.005l.167-.005c-.005.022-.009.046-.01.07-.003.023-.005.046-.005.068 0 .024.002.048.005.071zM8.074 31.49c-.268 0-.517-.029-.748-.084-.23-.058-.432-.152-.602-.281-.172-.132-.306-.302-.404-.507-.097-.207-.147-.458-.147-.752 0-.167.002-.317.004-.448l.003-.365c0-.113 0-.22.004-.325.001-.105.003-.212.003-.325 0-.338-.003-.611-.007-.818-.005-.209-.01-.365-.018-.47.082.009.168.016.256.022.087.007.173.01.256.01.084 0 .168-.003.255-.01.088-.006.174-.013.256-.021-.04.403-.066.78-.074 1.127-.008.349-.013.702-.013 1.06 0 .38.028.685.082.918.054.234.135.414.24.54.107.128.236.212.391.254.153.04.334.062.537.062.25 0 .446-.062.588-.188.141-.125.249-.291.32-.5.074-.207.119-.446.136-.715.017-.268.025-.549.025-.84 0-.288-.005-.574-.014-.858-.008-.286-.02-.573-.037-.86l.169.021c.053.007.104.01.15.01.053 0 .106-.003.156-.01l.157-.021c-.009.092-.017.215-.026.368-.008.155-.017.333-.025.535s-.015.425-.022.668c-.007.245-.008.5-.008.771 0 .726-.157 1.246-.47 1.559-.311.315-.77.473-1.373.473zm1.233 2.393c-.037.083-.087.152-.154.202-.066.052-.143.091-.234.115-.091.025-.189.036-.297.036h-.146l.003.457c.004.151.01.301.019.45-.032-.006-.067-.008-.106-.008h-.26c-.036 0-.073.002-.105.007.008-.126.013-.256.016-.385.006-.132.007-.281.007-.45v-.415c0-.169-.001-.318-.007-.45-.003-.13-.008-.262-.016-.393l.106.01c.038.003.082.005.13.005.067 0 .136-.002.208-.009.072-.005.143-.006.212-.006.136 0 .242.01.32.031.075.022.136.052.18.093.062.054.108.113.136.177.029.065.042.143.042.235 0 .115-.018.216-.054.298zm-.075 4.183h-.26c-.043 0-.087.002-.133.006l-.513-.997H8.3v.129c0 .175.002.332.007.468.003.136.009.27.017.4-.034-.004-.07-.006-.106-.006h-.26c-.038 0-.074.002-.107.006.008-.13.013-.264.018-.4.004-.136.006-.293.006-.468v-.43c0-.176-.002-.332-.006-.469-.005-.136-.01-.272-.018-.409l.108.01c.037.004.08.005.13.005s.109-.003.176-.008c.066-.005.148-.007.246-.007.072 0 .134.002.187.005.052.005.096.012.134.02.037.009.07.019.098.033.027.015.054.03.079.05.057.046.102.103.136.172.034.069.05.151.05.245 0 .155-.038.28-.116.377-.075.098-.186.167-.33.206.091.18.19.358.297.536.106.18.21.358.316.532-.043-.004-.087-.006-.129-.006zm-1.914-1.958c.003.019.005.04.01.063-.055-.004-.117-.009-.183-.012l-.192-.014-.168-.008c-.051-.004-.086-.004-.108-.004-.007.117-.012.231-.012.345-.002.115-.002.23-.002.346.125-.002.238-.005.339-.01.1-.004.205-.009.314-.016-.007.036-.01.064-.011.083-.002.019-.004.039-.004.06 0 .017.002.034.005.053l.01.077c-.218-.019-.436-.028-.653-.028l-.001.201c-.002.07-.002.137-.002.204 0 .138.003.27.008.396.11 0 .22-.004.329-.009.109-.007.22-.016.331-.032-.005.024-.007.044-.01.063-.002.02-.002.045-.002.079 0 .035 0 .06.002.08.003.019.005.034.01.047-.052-.003-.116-.003-.192-.004-.075-.002-.18-.002-.313-.002H6.37c-.044 0-.078 0-.1.002-.021.001-.04.001-.055.004.007-.13.012-.264.015-.4.004-.136.005-.293.005-.468v-.43c0-.176-.001-.332-.005-.469-.003-.136-.008-.272-.015-.409.086.002.172.005.256.009.084.005.17.006.256.006.143 0 .269-.001.379-.005.11-.003.185-.006.223-.01-.008.034-.012.078-.012.133 0 .034 0 .06.002.08zm-2.77 1.325c.04.116.092.21.156.283.064.072.138.126.22.16.081.033.162.05.245.05.047 0 .094-.005.141-.017.049-.011.094-.026.141-.047.046-.02.09-.045.132-.076.04-.028.076-.062.108-.097l.037.025c-.015.044-.03.09-.041.135-.012.045-.019.09-.023.134-.155.086-.35.13-.586.13-.169 0-.317-.025-.448-.077-.131-.053-.243-.125-.335-.22-.09-.093-.16-.204-.207-.333-.049-.13-.072-.269-.072-.419 0-.219.03-.405.092-.558.063-.154.147-.278.251-.374.105-.096.226-.167.364-.21.138-.046.282-.068.434-.068.05 0 .103.005.158.014.057.008.11.018.162.032.052.015.1.03.148.05.047.019.088.039.12.06-.019.053-.034.105-.045.159-.011.054-.018.11-.022.163h-.04c-.072-.1-.147-.173-.224-.217-.077-.042-.168-.064-.27-.064-.078 0-.156.019-.233.057-.077.037-.148.096-.21.174-.064.079-.115.178-.155.3-.039.12-.059.267-.059.435 0 .163.02.301.06.416zM10.38 6.694c-.141-.015-.28.125-.44.017-.154-.064-.218-.267-.14-.394.015-.141.173-.124.28-.156.172-.062.33.379.442.062.03-.093.094-.172-.03-.25-.174.078-.329-.016-.411-.157-.063-.189 0-.313.143-.424.407-.172.313.392.627.25.048-.094.252-.14.127-.267-.095-.046-.268-.03-.315-.187 0-.142-.032-.377.172-.41.094-.062.188 0 .3.018.17.094.014.36.201.454.113-.11.38-.124.25-.328-.137-.032-.216-.143-.23-.283.014-.111.076-.267.201-.283.158-.032.298.03.377.157.034.173-.047.313.064.454.141-.031.39.096.377-.171-.034-.157-.096-.268-.019-.424.111-.08.254-.142.396-.093.14.108.14.264.124.422-.064.078-.156.125-.124.235.124.031.266.127.39.063.078-.124 0-.36.142-.486.156.015.362-.141.471.08.078.233-.064.374-.237.516.018.205.266.11.378.205.127-.143-.032-.424.204-.58.174.013.315-.033.409.156 0 .204-.079.36-.128.549.08.094.236.047.333.032.061-.157-.067-.425.202-.456-.049-.125-.188-.19-.269-.314-.483-.705.63-1.098.569-1.79-.128-.125-.285 0-.409.032l-.08.064.016-.66c.143.032.284.11.438.047.035-.142-.061-.283-.108-.424.187-.078.456-.015.692-.015-.046.141-.158.314-.114.439.16.08.3-.062.46-.094.06.203.029.47.012.691-.125-.126-.312-.126-.453-.126-.187.738.956.956.55 1.742 0 .189-.52.377-.109.55-.034.125.029.218.093.314.076-.064.36.062.311-.174-.138-.094-.217-.266-.124-.407.017-.126.173-.157.252-.174.127 0 .253.063.283.19.045.14-.094.22-.015.361.156 0 .358-.064.452-.189-.094-.094-.218-.126-.265-.267-.016-.157 0-.33.171-.375.172 0 .408-.032.426.186.03.125-.062.285.079.393.138-.048.298-.048.377-.172-.113-.142-.205-.347-.113-.519.08-.109.238-.141.362-.094.125.032.158.174.172.283-.047.094-.093.234-.032.33.111.032.19.11.317.08.235-.176-.127-.63.314-.644.138-.017.265.045.313.157.251.297-.644.627.046.72.158-.141.064-.41.3-.47.156 0 .327.03.392.189.062.124-.016.25-.08.345-.094.047-.346.124-.236.25.08.048.142.172.267.125.033-.188.205-.298.41-.28.172-.033.217.14.267.25 0 .141-.065.33-.236.345-.11.03-.236-.094-.282.062.027.095.016.189.095.251.217-.062.471-.25.658-.03.08.187 0 .375-.187.47-.143 0-.3-.11-.426.016.063.11-.064.25.078.313.173-.124.392-.156.582-.03.094.11.046.313 0 .422-.126.111-.268.126-.426.064-.077-.048-.138-.173-.249-.094-.064.094-.049.219-.08.313.191.094.473-.047.521.253.014.155-.128.266-.254.311-.266 0-.076.317-.14.456-.282.739-.567 1.491-.895 2.181.062.144.25.332.047.456-.268.063-.36.55-.675.44-2.306-.675-5.006-.596-7.252.079-.187-.127-.187-.424-.453-.424-.08-.095-.111-.268-.017-.377l.047-.03-.926-2.308.047-.33c-.14-.03-.361-.03-.392-.235-.017-.174.08-.33.251-.378.08-.015.187.048.22-.047-.048-.094.03-.314-.175-.266-.06-.032-.06.047-.092.08-.11.045-.281.092-.409.015-.17-.127-.108-.3-.062-.457.205-.361.848.298.612-.392zm2.646 23.94c.005.324.019.583.044.773-.07-.008-.148-.011-.23-.011h-.562c-.085 0-.162.003-.233.011.017-.257.03-.521.038-.79.007-.268.012-.574.012-.921v-.85c0-.345-.005-.651-.012-.92-.008-.27-.021-.54-.038-.81.07.008.148.015.232.021.083.007.177.01.281.01.103 0 .197-.003.281-.01.083-.006.16-.013.231-.021-.02.124-.034.313-.04.562-.007.25-.01.526-.01.831v.6c.14-.167.294-.349.455-.546.164-.199.32-.39.47-.579.15-.187.284-.359.406-.515.12-.157.209-.274.262-.353l.175.021c.06.007.117.01.175.01.058 0 .118-.003.179-.01l.197-.021c-.073.07-.18.184-.325.343-.147.158-.301.33-.466.513-.165.184-.322.36-.471.534-.15.173-.268.31-.35.409.132.205.28.429.442.675.163.246.325.486.485.722.16.235.31.45.446.65.138.198.249.346.331.445-.121-.008-.229-.011-.325-.011h-.552c-.09 0-.18.003-.272.011-.212-.316-.421-.637-.625-.964-.203-.327-.412-.653-.624-.978h-.014c0 .455.004.843.007 1.168zm7.59.773c-.098-.008-.194-.011-.284-.011h-.53c-.09 0-.178.003-.265.011l-.207-.624c-.071-.212-.145-.424-.224-.636-.135-.005-.268-.009-.401-.01-.133-.002-.266-.004-.4-.004-.108 0-.216.002-.326.004-.107.001-.215.005-.324.01-.083.212-.16.424-.23.636-.071.212-.135.42-.194.624-.05-.008-.1-.011-.147-.011h-.298c-.048 0-.103.003-.161.011.05-.107.116-.257.2-.449.082-.192.175-.407.274-.65l.322-.777c.114-.278.229-.558.343-.84.114-.285.227-.562.339-.839.109-.274.21-.53.302-.767l.118.022c.039.005.078.009.12.009.042 0 .08-.004.12-.01l.117-.02.427 1.135c.154.404.307.802.46 1.19.155.39.305.76.45 1.11.146.35.279.646.4.886zm2.553-17.884l-.305.483-4.19 5.912-.289.334-3.834 5.446c-1.54-1.686-2.885-3.447-4.373-5.098 0-1.897-.069-3.863-.016-5.763 1.504 1.783 3.009 3.666 4.482 5.482 1.555-1.75 2.775-3.733 4.245-5.547l4.266-5.63.014 4.38zM.168 39.778H30.72V.168H.168v39.61z" mask="url(#30un1zcywb)"/>
        </g>
        <path fill="#FEFEFE" d="M63.587 35.339c0-.127-.015-.24-.047-.339-.032-.099-.076-.185-.135-.254-.057-.07-.126-.124-.207-.161-.08-.04-.17-.058-.27-.058-.068 0-.125.002-.168.005l-.13.01-.002.095c-.002.049-.002.104-.002.165V36.017c0 .059 0 .113.002.162l.001.094c.029.003.063.005.103.006.04.002.09.004.15.004.217 0 .388-.08.515-.236.126-.155.19-.392.19-.708M71.215 37.579c-.054-.077-.12-.135-.199-.177-.077-.04-.161-.062-.254-.062-.098 0-.185.027-.262.079-.078.05-.145.12-.198.21-.054.088-.095.192-.122.312-.029.12-.042.247-.042.382 0 .168.017.311.048.427.034.117.078.21.133.281.056.071.12.122.192.154.074.032.15.047.23.047.087 0 .17-.02.248-.06.08-.04.149-.102.206-.184.058-.083.106-.187.141-.313.035-.127.054-.276.054-.45 0-.138-.015-.26-.048-.37-.03-.108-.072-.2-.127-.276M19.754 3.036c.357-.006.58-.205.576-.5-.006-.335-.25-.477-.603-.47-.162.002-.273.015-.33.031l.016.945.341-.006zM32.326 9.94c.344.403.91.314 1.357-.068.394-.337.628-.89.266-1.314-.362-.423-.933-.3-1.362.067-.423.362-.605.912-.261 1.315M22.644 36.88c-.288.049-.439.441-.324 1.111.11.64.37.969.672.917.337-.058.431-.483.324-1.111-.105-.606-.324-.977-.672-.917M29.765 5.57c.044-.173.095-.322.145-.469l-.006-.004c-.115.105-.235.219-.365.321l-.621.49.656.427.19-.765zM16.049 36.596c-.542-.128-.93.309-1.059.858-.128.542.05 1.093.565 1.214.515.122.919-.283 1.054-.855.12-.504-.019-1.089-.56-1.217"/>
        <g transform="translate(0 .026)">
            <mask id="f7u5023b3d" fill="#fff">
                <use xlink:href="#gn7jk2eo1c"/>
            </mask>
            <path fill="#FEFEFE" d="M27.019 37.946l-.843-2.01-.007.002-.31.384-.16-.212.39-.48.266-.111.965 2.3-.301.127zm-1.93.722c-.47.136-.918-.209-1.156-1-.235-.807-.013-1.348.474-1.49.501-.145.924.22 1.146.983.237.814.062 1.353-.465 1.507zm-2.072.475c-.48.083-.887-.311-1.034-1.124-.142-.828.14-1.34.64-1.426.514-.088.892.322 1.027 1.105.143.836-.092 1.352-.633 1.445zm-2.36.21l-.348.02.954-2.265V37.1l-1.22.07-.015-.28 1.571-.09.013.222-.954 2.332zm-1.044-.249l-.015.28-1.59-.085.01-.207.279-.243c.668-.571.977-.878.997-1.253.013-.254-.093-.494-.465-.513-.226-.013-.42.092-.54.182l-.094-.243c.176-.133.43-.23.714-.216.537.029.743.41.725.766-.025.46-.379.813-.93 1.291l-.206.174v.008l1.115.06zm-2.657-1.25c-.204.863-.84 1.201-1.483 1.05-.669-.159-1.009-.787-.829-1.55.19-.799.807-1.205 1.479-1.046.69.163 1.01.795.833 1.546zm-2.855-1.866c-.33-.126-.53.024-.594.19-.085.225.02.392.304.648.35.313.48.588.344.944-.142.373-.538.596-1.109.38-.233-.09-.46-.257-.557-.393l.182-.23c.106.143.281.287.496.369.32.121.57.023.663-.221.085-.222.006-.404-.275-.65-.34-.294-.505-.595-.377-.932.143-.377.561-.538 1.032-.36.244.093.405.22.486.32l-.183.223c-.058-.076-.193-.205-.412-.288zm-2.47 1.499l1.112-2.337.305.145-1.113 2.337-.305-.145zm-6.064-24.87l-.191-.224c.16-.076.336-.22.458-.415.18-.29.134-.555-.088-.693-.202-.126-.396-.084-.691.144-.354.277-.681.38-.987.19-.342-.214-.42-.656-.153-1.082.138-.222.294-.355.408-.415l.183.222c-.086.042-.24.15-.363.349-.187.3-.078.525.071.618.205.128.39.058.696-.172.374-.282.67-.356.992-.155.339.212.48.644.158 1.162-.132.212-.342.402-.493.47zm-.823-3.234l.786.159c.213.046.387.08.578.13l.005-.006c-.09-.16-.165-.336-.256-.536l-.328-.736.234-.295.627 1.6.863.686-.21.265-.86-.683-1.678-.283.239-.3zm1.8-2.135c.183-.186.365-.282.49-.315l.129.258c-.093.022-.266.094-.43.26-.25.251-.194.495-.069.62.172.17.367.142.717-.014.429-.192.733-.2 1.004.069.283.28.326.735-.104 1.168-.176.178-.422.318-.586.35l-.136-.26c.173-.038.376-.14.539-.303.24-.243.253-.512.067-.696-.169-.168-.367-.17-.706-.013-.407.192-.75.22-1.006-.034-.286-.284-.264-.732.09-1.09zM8.755 5.38l.18.22-.615.5 1.453 1.79-.262.212-1.453-1.79-.612.497-.18-.221 1.49-1.208zm1.54-1l.152.237-.894.576.443.687.842-.543.15.233-.842.543.505.784.943-.607.152.235-1.227.79L9.117 5.14l1.178-.76zm1.062-.58l.924.953c.23.245.426.468.6.684l.008-.004c-.046-.266-.081-.563-.112-.907l-.103-1.33.387-.178 1.226 2.285-.3.138-.53-1.008c-.168-.32-.372-.708-.505-.998l-.006.003c.04.31.082.651.113 1.03l.108 1.332-.23.106-.898-.944c-.266-.284-.494-.543-.689-.792l-.007.003c.127.297.29.696.432 1.062l.4 1.037-.29.134-.915-2.429.387-.178zm4.526-1.636c.31-.073.528-.053.625-.029l-.02.286c-.134-.032-.32-.036-.53.013-.59.14-.894.61-.739 1.271.146.621.593.93 1.203.787.202-.047.394-.136.51-.23l.126.247c-.102.087-.331.204-.638.276-.71.167-1.347-.157-1.542-.987-.187-.793.223-1.45 1.005-1.634zm2.561-.33l.031.278-1.056.12.092.812.995-.113.03.275-.994.112.104.927 1.113-.126.032.279-1.45.163-.289-2.57 1.392-.157zm1.255-.055c.357-.006.592.06.752.199.129.113.208.288.212.492.005.337-.206.567-.473.664v.011c.197.066.32.248.385.516.09.36.156.608.211.707l-.345.005c-.044-.076-.105-.294-.18-.615-.082-.355-.226-.487-.53-.494l-.314.006.018 1.12-.334.006-.042-2.553c.168-.033.414-.06.64-.064zm1.338.031l1.903.217-.032.282-.786-.09-.26 2.289-.336-.038.26-2.288-.781-.09.032-.282zm2.615.372l-.5 2.54-.331-.065.5-2.54.331.065zm2.015.521l-.076.27-1.016-.287-.234.828.938.265-.075.266-.938-.265-.32 1.127-.325-.092.705-2.491 1.341.38zm.856.32l-.901 2.425-.317-.118.902-2.426.316.118zm1.76.722c.288.137.445.29.505.369l-.193.21c-.085-.109-.228-.228-.423-.321-.547-.261-1.078-.085-1.371.529-.275.575-.12 1.096.446 1.366.187.09.392.14.542.14l-.057.27c-.134.005-.386-.047-.67-.183-.66-.315-.953-.966-.585-1.735.35-.735 1.082-.99 1.806-.645zm1.962 1.196l-.672 2.65-.3-.194.213-.833-.769-.501-.669.535-.29-.188 2.152-1.687.335.218zm.682.45l1.486 1.208-.18.22-.613-.498-1.453 1.787-.262-.213 1.453-1.787-.61-.497.179-.22zm1.998 1.718L31.138 8.98l-.244-.233 1.787-1.873.244.234zm1.239 1.255c.462.54.347 1.24-.24 1.741-.674.576-1.389.474-1.818-.028-.446-.523-.35-1.232.246-1.74.625-.535 1.363-.499 1.812.027zm1.272 1.744l-.67 1.393c-.158.32-.307.595-.468.836l.009.008c.276-.21.539-.383.88-.596l.918-.575.166.267-2.192 1.372-.179-.286.677-1.392c.148-.306.307-.609.477-.865l-.01-.008c-.266.19-.527.358-.891.586l-.937.586-.167-.266 2.192-1.372.195.312zM33.46 25.74c-2.056 5.37-7.22 9.187-13.283 9.187-7.869 0-14.246-6.418-14.246-14.334 0-7.915 6.377-14.333 14.246-14.333 5.94 0 11.025 3.66 13.164 8.857h6.247C37.21 6.57 29.43.294 20.177.294 9.032.294 0 9.384 0 20.594c0 11.212 9.033 20.299 20.176 20.299 9.371 0 17.228-6.439 19.496-15.152h-6.213z" mask="url(#f7u5023b3d)"/>
        </g>
        <path fill="#FEFEFE" d="M24.458 36.461c-.28.082-.386.489-.196 1.141.182.623.477.921.772.835.328-.095.373-.529.195-1.14-.172-.59-.432-.934-.771-.836"/>
    </g>
</svg>
