<svg xmlns="http://www.w3.org/2000/svg" width="112" height="29" viewBox="0 0 112 29"><defs><clipPath id="thu1a"><path d="M66.657 21.935h7.085v6.701h-7.085z"/></clipPath><clipPath id="thu1b"><path d="M.01.11h107.95v27.139H.01z"/></clipPath></defs><g><g><g><g><path fill="#d33c33" d="M46.645 27.183l-1.17-1.862-.578.594v1.268h-.66v-5.248h.66v3.256l1.43-1.729h.77l-1.194 1.414 1.457 2.307h-.715"/></g><g><path fill="#d33c33" d="M50.131 27.183v-2.162c0-.395-.06-.673-.18-.831-.12-.159-.32-.238-.601-.238a.993.993 0 0 0-.475.135c-.165.09-.292.202-.38.334v2.762h-.66v-3.721h.453l.21.48c.217-.365.573-.547 1.068-.547.816 0 1.225.495 1.225 1.486v2.302h-.66"/></g><g><path fill="#d33c33" d="M51.957 23.924c.31-.352.719-.53 1.226-.53.534 0 .95.17 1.244.51.296.338.443.809.443 1.41 0 .6-.15 1.072-.453 1.417-.302.347-.714.52-1.234.52-.533 0-.948-.176-1.245-.525-.298-.35-.447-.82-.447-1.412 0-.574.155-1.037.466-1.39zm.233 1.388c0 .929.331 1.393.995 1.393.31 0 .552-.124.728-.373.176-.25.264-.59.264-1.02 0-.918-.33-1.377-.992-1.377a.856.856 0 0 0-.725.367c-.18.244-.27.58-.27 1.01z"/></g><g><path fill="#d33c33" d="M59.007 27.252h-.173l-1.098-2.53-1.086 2.53h-.173l-1.335-3.8h.71l.795 2.44.992-2.44h.173l1.025 2.44.852-2.44h.653l-1.335 3.8"/></g><g><path fill="#d33c33" d="M60.923 26.128v-4.193h.66v4.082c0 .2.057.356.172.47a.614.614 0 0 0 .453.173v.59c-.857 0-1.285-.374-1.285-1.122"/></g><g><path fill="#d33c33" d="M63.433 25.384c0 .435.12.77.358 1.003.212.204.484.306.816.306.379 0 .695-.11.948-.329l.28.474c-.103.102-.26.19-.471.265-.266.099-.561.147-.886.147-.47 0-.869-.158-1.196-.475-.365-.35-.548-.819-.548-1.41 0-.612.187-1.104.562-1.474.334-.33.73-.496 1.188-.496.533 0 .95.149 1.252.447.292.286.439.666.439 1.14 0 .146-.018.28-.053.402zm1.083-1.432c-.295 0-.543.095-.743.285a1.03 1.03 0 0 0-.324.672h2.067a.935.935 0 0 0-.251-.665c-.184-.195-.433-.292-.75-.292z"/></g><g><g/><g clip-path="url(#thu1a)"><path fill="#d33c33" d="M69.237 26.904c-.23.23-.566.346-1.006.346-.467 0-.847-.166-1.138-.5-.29-.333-.436-.778-.436-1.334 0-.557.167-1.034.502-1.429.335-.395.735-.592 1.198-.592.386 0 .68.09.88.271v-1.73h.659v5.242h-.659zm0-2.577a.786.786 0 0 0-.688-.375c-.356 0-.644.132-.864.396-.22.264-.33.6-.33 1.007 0 .896.41 1.344 1.229 1.344.105 0 .23-.033.377-.1.147-.065.239-.135.276-.21z"/></g><g clip-path="url(#thu1a)"><path fill="#d33c33" d="M71.06 27.675c.387.256.743.385 1.068.385.3 0 .536-.052.71-.155.173-.103.26-.232.26-.385 0-.301-.219-.452-.656-.452-.074 0-.21.019-.404.056a2.613 2.613 0 0 1-.457.055c-.53 0-.796-.199-.796-.597 0-.123.063-.234.186-.333.125-.1.278-.172.462-.216-.525-.245-.787-.67-.787-1.276 0-.389.136-.713.408-.972.271-.259.607-.389 1.007-.389.366 0 .653.076.86.226l.33-.398.433.407-.4.3c.17.22.255.506.255.86 0 .374-.117.689-.352.943-.234.255-.542.4-.923.437l-.546.056a1.091 1.091 0 0 0-.261.075c-.109.042-.163.098-.163.167 0 .095.113.142.341.142.1 0 .256-.017.467-.053.211-.035.368-.053.47-.053.367 0 .654.088.86.263.205.175.308.418.308.729 0 .343-.154.62-.462.831-.308.211-.697.317-1.169.317-.241 0-.496-.043-.763-.129a2.177 2.177 0 0 1-.644-.313zm1.045-3.75a.718.718 0 0 0-.56.244.854.854 0 0 0-.218.59c0 .26.07.474.21.644.14.17.33.255.568.255a.663.663 0 0 0 .549-.248c.132-.165.198-.383.198-.651a.863.863 0 0 0-.214-.59.681.681 0 0 0-.533-.243z"/></g></g><g><path fill="#d33c33" d="M74.875 25.384c0 .435.12.77.36 1.003.21.204.483.306.815.306.379 0 .695-.11.948-.329l.28.474c-.103.102-.26.19-.472.265-.265.099-.56.147-.885.147-.47 0-.868-.158-1.196-.475-.365-.35-.548-.819-.548-1.41 0-.612.187-1.104.562-1.474.334-.33.73-.496 1.188-.496.532 0 .95.149 1.252.447.292.286.439.666.439 1.14 0 .146-.018.28-.053.402zm1.084-1.432c-.296 0-.543.095-.742.285a1.03 1.03 0 0 0-.325.672h2.067a.935.935 0 0 0-.251-.665c-.184-.195-.434-.292-.75-.292z"/></g><g><path fill="#d33c33" d="M80.216 26.958l.233-.627c.369.242.666.362.891.362.409 0 .613-.17.613-.513 0-.245-.198-.455-.593-.63a4.935 4.935 0 0 1-.615-.316 1.367 1.367 0 0 1-.275-.245.942.942 0 0 1-.232-.623c0-.305.112-.543.335-.714.223-.171.515-.257.876-.257.272 0 .615.086 1.029.257l-.189.612c-.262-.208-.526-.312-.791-.312a.692.692 0 0 0-.4.11c-.108.075-.162.169-.162.281 0 .239.136.419.408.541l.474.215c.29.132.502.282.634.451.133.169.199.38.199.635 0 .333-.117.594-.352.783-.234.188-.56.282-.975.282-.393 0-.762-.097-1.108-.292"/></g><g><path fill="#d33c33" d="M83.57 23.924c.31-.352.718-.53 1.225-.53.535 0 .95.17 1.245.51.295.338.443.809.443 1.41 0 .6-.151 1.072-.454 1.417-.301.347-.713.52-1.234.52-.532 0-.947-.176-1.245-.525-.297-.35-.446-.82-.446-1.412 0-.574.155-1.037.466-1.39zm.232 1.388c0 .929.332 1.393.996 1.393.31 0 .552-.124.728-.373.176-.25.264-.59.264-1.02 0-.918-.331-1.377-.992-1.377a.856.856 0 0 0-.725.367c-.18.244-.27.58-.27 1.01z"/></g><g><path fill="#d33c33" d="M87.231 26.128v-4.193h.66v4.082c0 .2.057.356.172.47a.613.613 0 0 0 .453.173v.59c-.857 0-1.285-.374-1.285-1.122"/></g><g><path fill="#d33c33" d="M89.902 23.461v2.371c0 .574.25.86.75.86.218 0 .418-.062.6-.187.18-.125.3-.27.359-.433v-2.61h.659v3.721h-.66v-.514c-.074.146-.223.28-.447.4s-.443.18-.656.18c-.409 0-.722-.116-.939-.35-.217-.234-.325-.566-.325-.996V23.46h.659"/></g><g><path fill="#d33c33" d="M93.414 23.984h-.43v-.523h.43v-.778l.659-.253v1.03h1.022v.524h-1.022v1.845c0 .312.053.533.158.665.105.132.275.198.51.198.169 0 .344-.043.525-.128l.097.58c-.273.07-.573.105-.9.105a.976.976 0 0 1-.745-.328c-.203-.218-.304-.495-.304-.827v-2.11"/></g><g><path fill="#d33c33" d="M96.329 24.02h-.514v-.556h1.173v3.717h-.66zm.36-1.966c.115 0 .213.04.294.12.08.08.121.177.121.288 0 .114-.04.211-.121.291a.401.401 0 0 1-.294.12.398.398 0 0 1-.29-.12.395.395 0 0 1-.12-.291c0-.114.04-.21.119-.29a.4.4 0 0 1 .291-.118z"/></g><g><path fill="#d33c33" d="M98.263 23.924c.31-.352.719-.53 1.226-.53.534 0 .95.17 1.245.51.295.338.443.809.443 1.41 0 .6-.152 1.072-.454 1.417-.302.347-.713.52-1.234.52-.533 0-.948-.176-1.245-.525-.298-.35-.447-.82-.447-1.412 0-.574.155-1.037.466-1.39zm.233 1.388c0 .929.33 1.393.993 1.393a.84.84 0 0 0 .726-.373c.176-.25.263-.59.263-1.02 0-.918-.33-1.377-.99-1.377a.854.854 0 0 0-.722.367c-.18.244-.27.58-.27 1.01z"/></g><g><path fill="#d33c33" d="M104.158 27.183v-2.162c0-.395-.06-.673-.18-.831-.12-.159-.32-.238-.601-.238a.99.99 0 0 0-.475.135 1.05 1.05 0 0 0-.38.334v2.762h-.66v-3.721h.453l.209.48c.218-.365.574-.547 1.069-.547.816 0 1.224.495 1.224 1.486v2.302h-.659"/></g><g><g/><g clip-path="url(#thu1b)"><path fill="#d33c33" d="M105.523 26.958l.233-.627c.37.242.666.362.891.362.409 0 .613-.17.613-.513 0-.245-.198-.455-.592-.63a4.935 4.935 0 0 1-.616-.316 1.367 1.367 0 0 1-.275-.245.942.942 0 0 1-.232-.623c0-.305.112-.543.335-.714.224-.171.515-.257.876-.257.272 0 .615.086 1.03.257l-.19.612c-.262-.208-.526-.312-.791-.312a.693.693 0 0 0-.4.11c-.107.075-.161.169-.161.281 0 .239.135.419.407.541l.474.215c.29.132.502.282.635.451.132.169.198.38.198.635 0 .333-.117.594-.352.783-.234.188-.56.282-.975.282-.393 0-.762-.097-1.108-.292"/></g><g clip-path="url(#thu1b)"><path fill="#d33c33" d="M9.249 17.974c-.826.837-2.028 1.256-3.604 1.256-1.678 0-3.038-.6-4.08-1.801C.52 16.229 0 14.627 0 12.626c0-2.01.6-3.725 1.802-5.147 1.202-1.422 2.633-2.133 4.293-2.133 1.385 0 2.436.326 3.154.976V.109h2.39v18.853H9.25zm0-9.27c-.601-.901-1.423-1.352-2.466-1.352-1.277 0-2.31.476-3.098 1.427-.789.95-1.183 2.16-1.183 3.629 0 3.229 1.469 4.843 4.406 4.843.376 0 .826-.119 1.352-.357.526-.237.855-.49.989-.757z"/></g></g><g><path fill="#d33c33" d="M15.831 7.254c1.114-1.27 2.581-1.906 4.4-1.906 1.92 0 3.41.61 4.47 1.831 1.06 1.22 1.59 2.914 1.59 5.08 0 2.158-.543 3.86-1.628 5.105-1.085 1.245-2.562 1.868-4.432 1.868-1.911 0-3.4-.629-4.469-1.887-1.068-1.258-1.602-2.953-1.602-5.086 0-2.066.557-3.734 1.671-5.005zm.83 5.005c0 3.356 1.19 5.034 3.57 5.034 1.11 0 1.981-.45 2.612-1.349.63-.9.945-2.128.945-3.685 0-3.314-1.185-4.972-3.557-4.972-1.085 0-1.952.442-2.599 1.324-.647.883-.97 2.099-.97 3.648z"/></g><g><path fill="#d33c33" d="M29.673 7.467H28.11V5.595h1.563V2.788l2.39-.915v3.722h3.687v1.872h-3.686v6.649c0 1.124.19 1.924.57 2.399.38.475.991.712 1.835.712.61 0 1.24-.156 1.891-.468l.35 2.097c-.986.251-2.069.377-3.248.377-1.062 0-1.96-.394-2.691-1.181-.732-.788-1.098-1.782-1.098-2.983V7.467"/></g><g><path fill="#d33c33" d="M54.549 18.987v-8.472c0-2.107-.915-3.161-2.742-3.161-.576 0-1.115.177-1.616.531-.5.354-.843.756-1.026 1.206v9.896h-2.39V9.478c0-.658-.25-1.177-.746-1.555-.497-.38-1.154-.569-1.972-.569-.476 0-.983.183-1.521.55-.539.366-.92.77-1.146 1.21v9.873H39V5.594h1.555l.79 1.56c.92-1.204 2.07-1.806 3.45-1.806 1.924 0 3.27.595 4.04 1.783.268-.507.765-.93 1.493-1.271a5.242 5.242 0 0 1 2.245-.512c1.389 0 2.463.411 3.224 1.232.761.821 1.142 1.973 1.142 3.456v8.95h-2.39"/></g><g><path fill="#d33c33" d="M63.5 19.232c-1.053 0-1.966-.382-2.738-1.145-.773-.763-1.159-1.712-1.159-2.847 0-1.36.595-2.509 1.785-3.447 1.19-.939 2.708-1.408 4.554-1.408.501 0 1.069.111 1.704.334 0-2.169-.97-3.254-2.91-3.254-1.489 0-2.634.402-3.437 1.204l-1.003-1.984c.451-.366 1.077-.68 1.876-.943.8-.262 1.563-.394 2.29-.394 1.95 0 3.367.443 4.25 1.327.883.884 1.324 2.29 1.324 4.217v4.806c0 1.177.35 1.96 1.05 2.353v1.18c-.971 0-1.697-.137-2.178-.413-.481-.277-.827-.733-1.036-1.369-.952 1.189-2.41 1.783-4.372 1.783zm4.146-6.82c-.75-.178-1.276-.267-1.576-.267-1.2 0-2.18.31-2.938.928-.76.618-1.138 1.35-1.138 2.194 0 1.395.82 2.093 2.463 2.093 1.2 0 2.263-.572 3.189-1.716z"/></g><g><path fill="#d33c33" d="M74.626 7.467h-1.564V5.595h1.564V2.788l2.39-.915v3.722h3.687v1.872h-3.687v6.649c0 1.124.19 1.924.57 2.399.38.475.992.712 1.835.712.61 0 1.24-.156 1.891-.468l.351 2.097c-.987.251-2.07.377-3.249.377-1.062 0-1.959-.394-2.69-1.181-.732-.788-1.098-1.782-1.098-2.983V7.467"/></g><g><path fill="#d33c33" d="M85.088 7.597h-1.831V5.59h4.222v13.393h-2.39zm1.31-7.065c.409 0 .758.145 1.046.432.288.288.432.633.432 1.033 0 .41-.144.758-.432 1.045a1.426 1.426 0 0 1-1.046.432 1.41 1.41 0 0 1-1.034-.432 1.422 1.422 0 0 1-.432-1.045c0-.409.142-.755.426-1.039.284-.283.63-.426 1.04-.426z"/></g><g><path fill="#d33c33" d="M101.453 6.685l-1.19 1.672c-.244-.24-.677-.466-1.296-.68a5.572 5.572 0 0 0-1.828-.323c-1.308 0-2.346.452-3.113 1.354-.768.903-1.152 2.14-1.152 3.713 0 1.564.389 2.756 1.167 3.576.777.82 1.856 1.23 3.235 1.23 1.07 0 2.15-.417 3.236-1.249l.941 2.006c-1.279.832-2.862 1.248-4.75 1.248-1.831 0-3.343-.612-4.538-1.837-1.196-1.225-1.793-2.882-1.793-4.974 0-2.132.625-3.844 1.874-5.136 1.25-1.29 2.96-1.937 5.13-1.937.699 0 1.456.146 2.272.438.816.292 1.418.591 1.805.9"/></g><g><path fill="#d33c33" d="M103.078 18.182l.84-2.248c1.329.862 2.398 1.292 3.21 1.292 1.47 0 2.205-.615 2.205-1.847 0-.882-.71-1.639-2.13-2.271-1.095-.5-1.832-.879-2.212-1.137a4.922 4.922 0 0 1-.99-.881 3.5 3.5 0 0 1-.627-1.05 3.395 3.395 0 0 1-.206-1.193c0-1.1.4-1.957 1.202-2.574.802-.616 1.85-.925 3.145-.925.977 0 2.208.308 3.695.924l-.677 2.196c-.944-.742-1.893-1.114-2.845-1.114-.569 0-1.047.133-1.435.4-.39.266-.583.603-.583 1.01 0 .858.488 1.507 1.466 1.947l1.704.774c1.045.475 1.805 1.017 2.281 1.624.476.608.715 1.37.715 2.287 0 1.2-.422 2.139-1.266 2.818-.843.679-2.013 1.018-3.508 1.018a8 8 0 0 1-3.984-1.05"/></g><g><path fill="#d33c33" d="M9.377 24.837a2.348 2.348 0 0 1-2.35 2.345 2.348 2.348 0 0 1-2.352-2.345 2.348 2.348 0 0 1 2.352-2.345c1.298 0 2.35 1.05 2.35 2.345"/></g><g><path fill="#d33c33" d="M22.598 24.827a2.348 2.348 0 0 1-2.35 2.346 2.348 2.348 0 0 1-2.352-2.346 2.348 2.348 0 0 1 2.351-2.345 2.348 2.348 0 0 1 2.351 2.345"/></g><g><path fill="#d33c33" d="M35.833 24.827a2.348 2.348 0 0 1-2.35 2.346 2.348 2.348 0 0 1-2.352-2.346 2.348 2.348 0 0 1 2.351-2.345 2.348 2.348 0 0 1 2.351 2.345"/></g></g></g></g></svg>