<svg xmlns="http://www.w3.org/2000/svg" width="188" height="50" viewBox="0 0 188 50"><defs><clipPath id="x2aha"><path d="M111.888 37.82h11.893v11.553h-11.893z"/></clipPath></defs><g><g><g><g><path fill="#fff" d="M78.297 46.868l-1.965-3.211-.97 1.025v2.186h-1.106V37.82h1.106v5.613l2.4-2.981h1.294l-2.005 2.438 2.446 3.978h-1.2"/></g><g><path fill="#fff" d="M84.15 46.868V43.14c0-.682-.102-1.16-.303-1.433-.2-.273-.537-.41-1.01-.41-.253 0-.52.078-.796.233-.278.156-.49.347-.639.575v4.763h-1.106V40.45h.76l.35.827c.366-.628.964-.942 1.793-.942 1.37 0 2.057.854 2.057 2.562v3.97h-1.107"/></g><g><path fill="#fff" d="M87.214 41.249c.52-.608 1.206-.913 2.057-.913.897 0 1.594.292 2.09.877.495.584.743 1.395.743 2.432 0 1.033-.254 1.847-.761 2.444-.507.596-1.198.894-2.072.894-.894 0-1.59-.301-2.09-.903-.5-.603-.749-1.414-.749-2.435 0-.99.26-1.788.782-2.396zm.39 2.392c0 1.602.557 2.402 1.67 2.402.52 0 .928-.214 1.223-.644.295-.429.443-1.015.443-1.758 0-1.582-.555-2.373-1.665-2.373-.508 0-.914.21-1.217.632-.303.421-.454 1.002-.454 1.74z"/></g><g><path fill="#fff" d="M99.048 46.985h-.291l-1.842-4.36-1.824 4.36h-.29l-2.241-6.55h1.19l1.337 4.207 1.664-4.208h.29l1.72 4.208 1.43-4.208h1.097l-2.24 6.551"/></g><g><path fill="#fff" d="M102.264 45.049v-7.23h1.106v7.038c0 .343.097.614.29.812.194.198.447.296.76.296v1.018c-1.437 0-2.156-.644-2.156-1.934"/></g><g><path fill="#fff" d="M106.476 43.765c0 .75.201 1.328.602 1.73.355.352.812.528 1.37.528.635 0 1.166-.189 1.591-.567l.468.816c-.171.177-.435.33-.79.458-.445.17-.94.253-1.487.253a2.742 2.742 0 0 1-2.007-.82c-.612-.602-.919-1.411-.919-2.429 0-1.057.314-1.904.942-2.542.562-.57 1.227-.856 1.995-.856.894 0 1.594.257 2.101.771.491.493.737 1.149.737 1.966 0 .25-.03.48-.088.692zm1.818-2.468c-.495 0-.91.163-1.246.49-.32.31-.501.698-.544 1.16h3.469c0-.458-.14-.84-.421-1.148-.309-.335-.728-.502-1.258-.502z"/></g><g><g/><g clip-path="url(#x2aha)"><path fill="#fff" d="M116.22 46.385c-.387.399-.95.598-1.689.598-.785 0-1.422-.287-1.91-.862-.489-.575-.733-1.341-.733-2.3 0-.961.281-1.783.844-2.463.562-.681 1.233-1.022 2.01-1.022.649 0 1.141.156 1.477.467V37.82h1.106v9.038h-1.106zm0-4.442c-.282-.43-.667-.646-1.156-.646-.597 0-1.08.227-1.45.683-.37.454-.554 1.033-.554 1.736 0 1.544.688 2.316 2.063 2.316.176 0 .387-.057.633-.17.246-.114.4-.235.463-.363z"/></g><g clip-path="url(#x2aha)"><path fill="#fff" d="M119.28 47.716c.649.442 1.246.663 1.792.663.503 0 .9-.09 1.191-.268.291-.177.437-.399.437-.662 0-.52-.367-.78-1.1-.78-.126 0-.352.032-.68.096a4.275 4.275 0 0 1-.767.096c-.89 0-1.335-.343-1.335-1.03 0-.212.105-.403.313-.575.208-.172.466-.295.774-.371-.881-.423-1.321-1.157-1.321-2.201 0-.67.228-1.229.684-1.675.456-.447 1.02-.67 1.69-.67.617 0 1.098.13 1.445.389l.556-.687.725.702-.67.517c.284.379.426.873.426 1.483 0 .646-.197 1.188-.59 1.626-.394.439-.91.69-1.549.753l-.917.098a1.795 1.795 0 0 0-.438.128c-.183.073-.274.17-.274.289 0 .163.19.244.573.244.167 0 .428-.03.784-.091.354-.06.618-.091.79-.091.615 0 1.096.151 1.441.452.345.302.518.721.518 1.257 0 .592-.259 1.07-.775 1.433-.517.364-1.171.546-1.962.546-.406 0-.833-.074-1.281-.221-.449-.149-.81-.328-1.082-.54zm1.754-6.465c-.385 0-.7.14-.942.42-.243.279-.364.618-.364 1.017 0 .447.118.817.352 1.11.235.294.553.44.954.44.392 0 .7-.142.921-.427.221-.286.332-.66.332-1.123 0-.4-.12-.738-.358-1.018-.24-.279-.538-.419-.895-.419z"/></g></g><g><path fill="#fff" d="M125.684 43.765c0 .75.2 1.328.603 1.73.354.352.81.528 1.369.528.635 0 1.166-.189 1.591-.567l.468.816c-.172.177-.435.33-.79.458-.445.17-.94.253-1.486.253-.789 0-1.458-.273-2.008-.82-.613-.602-.919-1.411-.919-2.429 0-1.057.314-1.904.942-2.542.561-.57 1.227-.856 1.995-.856.893 0 1.593.257 2.1.771.492.493.738 1.149.738 1.966 0 .25-.03.48-.088.692zm1.818-2.468c-.496 0-.91.163-1.246.49-.32.31-.501.698-.544 1.16h3.469c0-.458-.14-.84-.422-1.148-.308-.335-.727-.502-1.257-.502z"/></g><g><path fill="#fff" d="M134.648 46.479l.391-1.08c.62.416 1.118.624 1.496.624.686 0 1.029-.295 1.029-.885 0-.422-.332-.784-.995-1.087-.51-.24-.855-.42-1.033-.544a2.317 2.317 0 0 1-.461-.423 1.677 1.677 0 0 1-.293-.501 1.664 1.664 0 0 1-.096-.572c0-.526.187-.937.561-1.232.375-.295.865-.443 1.47-.443.457 0 1.033.148 1.728.444l-.316 1.055c-.441-.359-.884-.538-1.33-.538a1.14 1.14 0 0 0-.67.19c-.18.128-.272.29-.272.485 0 .41.228.721.685.932l.796.37c.487.228.842.486 1.064.778.222.29.334.656.334 1.095 0 .574-.197 1.023-.591 1.349-.394.325-.94.487-1.637.487-.66 0-1.28-.168-1.86-.504"/></g><g><path fill="#fff" d="M140.278 41.249c.52-.608 1.206-.913 2.057-.913.897 0 1.594.292 2.09.877.495.584.743 1.395.743 2.432 0 1.033-.254 1.847-.761 2.444-.507.596-1.198.894-2.072.894-.894 0-1.59-.301-2.09-.903-.5-.603-.749-1.414-.749-2.435 0-.99.26-1.788.782-2.396zm.39 2.392c0 1.602.557 2.402 1.67 2.402.52 0 .928-.214 1.223-.644.295-.429.443-1.015.443-1.758 0-1.582-.555-2.373-1.665-2.373-.508 0-.914.21-1.217.632-.303.421-.454 1.002-.454 1.74z"/></g><g><path fill="#fff" d="M146.424 45.049v-7.23h1.106v7.038c0 .343.097.614.29.812.194.198.447.296.76.296v1.018c-1.438 0-2.156-.644-2.156-1.934"/></g><g><path fill="#fff" d="M150.906 40.45v4.088c0 .99.42 1.484 1.259 1.484.367 0 .702-.107 1.007-.323.304-.216.505-.465.603-.748v-4.5h1.106v6.416h-1.106v-.886c-.125.251-.375.482-.751.69-.376.207-.744.312-1.102.312-.686 0-1.21-.202-1.575-.605-.365-.403-.547-.976-.547-1.718v-4.21h1.106"/></g><g><path fill="#fff" d="M156.802 41.352h-.722v-.903h.722v-1.34l1.106-.437v1.777h1.716v.903h-1.716v3.18c0 .538.089.92.265 1.147.177.228.463.341.856.341.284 0 .578-.073.881-.22l.164 1a5.96 5.96 0 0 1-1.51.18 1.62 1.62 0 0 1-1.252-.565c-.34-.376-.51-.852-.51-1.426v-3.637"/></g><g><path fill="#fff" d="M161.694 41.414h-.862v-.96h1.969v6.41h-1.107zm.606-3.39c.193 0 .357.07.493.208a.684.684 0 0 1 .203.496.69.69 0 0 1-.203.501.665.665 0 0 1-.493.208.659.659 0 0 1-.487-.207.69.69 0 0 1-.203-.502c0-.197.067-.363.2-.5a.662.662 0 0 1 .49-.203z"/></g><g><path fill="#fff" d="M164.942 41.249c.52-.608 1.206-.913 2.057-.913.897 0 1.594.292 2.09.877.495.584.743 1.395.743 2.432 0 1.033-.254 1.847-.761 2.444-.507.596-1.198.894-2.072.894-.894 0-1.59-.301-2.09-.903-.5-.603-.749-1.414-.749-2.435 0-.99.26-1.788.782-2.396zm.39 2.392c0 1.602.555 2.402 1.667 2.402a1.4 1.4 0 0 0 1.22-.644c.294-.429.441-1.015.441-1.758 0-1.582-.554-2.373-1.661-2.373-.507 0-.912.21-1.214.632-.302.421-.453 1.002-.453 1.74z"/></g><g><path fill="#fff" d="M174.837 46.868V43.14c0-.682-.1-1.16-.302-1.433-.2-.273-.538-.41-1.01-.41-.254 0-.52.078-.796.233-.278.156-.49.347-.639.575v4.763h-1.106V40.45h.76l.35.827c.366-.628.964-.942 1.793-.942 1.37 0 2.056.854 2.056 2.562v3.97h-1.106"/></g><g><g><path fill="#fff" d="M177.128 46.479l.391-1.08c.62.416 1.118.624 1.496.624.686 0 1.029-.295 1.029-.885 0-.422-.332-.784-.995-1.087-.51-.24-.855-.42-1.033-.544a2.317 2.317 0 0 1-.461-.423 1.672 1.672 0 0 1-.293-.501 1.664 1.664 0 0 1-.096-.572c0-.526.187-.937.561-1.232.375-.295.865-.443 1.47-.443.457 0 1.033.148 1.728.444l-.316 1.055c-.441-.359-.884-.538-1.33-.538a1.14 1.14 0 0 0-.67.19c-.18.128-.272.29-.272.485 0 .41.228.721.685.932l.795.37c.488.228.842.486 1.065.778.222.29.334.656.334 1.095 0 .574-.197 1.023-.591 1.349-.394.325-.94.487-1.637.487-.66 0-1.28-.168-1.86-.504"/></g><g><path fill="#fff" d="M15.525 30.99c-1.387 1.444-3.404 2.165-6.05 2.165-2.816 0-5.099-1.035-6.85-3.105C.876 27.98 0 25.22 0 21.769c0-3.465 1.008-6.423 3.025-8.874 2.017-2.451 4.419-3.677 7.206-3.677 2.325 0 4.09.56 5.294 1.681V.19h4.013v32.505h-4.013zm0-15.984c-1.009-1.553-2.388-2.33-4.139-2.33-2.143 0-3.877.82-5.2 2.46-1.324 1.64-1.986 3.726-1.986 6.257 0 5.567 2.465 8.35 7.396 8.35.63 0 1.387-.205 2.269-.615.882-.41 1.436-.845 1.66-1.305z"/></g></g><g><path fill="#fff" d="M26.574 12.507c1.87-2.19 4.332-3.286 7.386-3.286 3.222 0 5.723 1.053 7.502 3.157s2.669 5.024 2.669 8.758c0 3.72-.911 6.654-2.733 8.802-1.82 2.147-4.3 3.22-7.438 3.22-3.209 0-5.71-1.084-7.502-3.253-1.793-2.168-2.69-5.091-2.69-8.77 0-3.561.935-6.437 2.806-8.628zm1.394 8.629c0 5.787 1.997 8.68 5.992 8.68 1.864 0 3.325-.775 4.383-2.326 1.059-1.55 1.588-3.669 1.588-6.354 0-5.714-1.99-8.572-5.971-8.572-1.822 0-3.277.761-4.363 2.283-1.086 1.523-1.629 3.619-1.629 6.289z"/></g><g><path fill="#fff" d="M49.809 12.874h-2.625V9.646h2.625v-4.84l4.013-1.576v6.416h6.187v3.228h-6.187v11.463c0 1.94.318 3.318.956 4.137.637.819 1.665 1.228 3.08 1.228 1.023 0 2.081-.268 3.175-.806l.589 3.615c-1.657.433-3.474.65-5.454.65-1.783 0-3.289-.68-4.517-2.037-1.228-1.358-1.842-3.073-1.842-5.142V12.874"/></g><g><path fill="#fff" d="M91.564 32.736V18.13c0-3.633-1.535-5.45-4.603-5.45-.966 0-1.87.305-2.711.915-.841.61-1.415 1.303-1.724 2.079v17.062h-4.012V16.342c0-1.135-.417-2.03-1.251-2.682-.834-.653-1.937-.98-3.31-.98-.799 0-1.65.315-2.554.947-.904.631-1.545 1.328-1.923 2.088v17.02h-4.012V9.646h2.61l1.327 2.689c1.545-2.075 3.475-3.113 5.792-3.113 3.228 0 5.488 1.025 6.78 3.074.45-.874 1.285-1.605 2.506-2.192 1.22-.587 2.477-.882 3.769-.882 2.33 0 4.134.708 5.412 2.124 1.277 1.415 1.917 3.401 1.917 5.959v15.432h-4.013"/></g><g><path fill="#fff" d="M106.589 33.158c-1.767 0-3.299-.658-4.596-1.974-1.297-1.316-1.945-2.952-1.945-4.908 0-2.344.999-4.325 2.997-5.944 1.997-1.618 4.545-2.427 7.643-2.427.842 0 1.795.192 2.86.576 0-3.74-1.628-5.61-4.884-5.61-2.499 0-4.422.692-5.769 2.075l-1.684-3.42c.758-.63 1.808-1.173 3.15-1.626 1.34-.452 2.622-.679 3.845-.679 3.273 0 5.65.763 7.132 2.288 1.481 1.525 2.223 3.948 2.223 7.271v8.286c0 2.028.587 3.38 1.762 4.056v2.036c-1.63 0-2.849-.238-3.656-.714-.808-.476-1.388-1.262-1.739-2.36-1.598 2.05-4.045 3.074-7.339 3.074zm6.959-11.757c-1.26-.307-2.141-.46-2.645-.46-2.015 0-3.659.532-4.932 1.599-1.274 1.066-1.91 2.326-1.91 3.782 0 2.406 1.378 3.609 4.135 3.609 2.015 0 3.799-.986 5.352-2.958z"/></g><g><path fill="#fff" d="M125.265 12.874h-2.625V9.646h2.625v-4.84l4.012-1.576v6.416h6.188v3.228h-6.188v11.463c0 1.94.32 3.318.957 4.137.637.819 1.664 1.228 3.08 1.228 1.023 0 2.081-.268 3.175-.806l.588 3.615c-1.656.433-3.474.65-5.453.65-1.783 0-3.289-.68-4.517-2.037-1.228-1.358-1.842-3.073-1.842-5.142V12.874"/></g><g><path fill="#fff" d="M142.827 13.098h-3.075V9.64h7.087v23.092h-4.012zm2.198-12.18c.687 0 1.272.249 1.756.744.483.497.725 1.09.725 1.781 0 .706-.242 1.307-.725 1.802a2.362 2.362 0 0 1-1.756.745c-.673 0-1.252-.248-1.735-.745a2.486 2.486 0 0 1-.726-1.802c0-.705.239-1.301.715-1.79a2.346 2.346 0 0 1 1.746-.735z"/></g><g><path fill="#fff" d="M170.296 11.527l-1.996 2.881c-.411-.412-1.137-.803-2.178-1.173-1.04-.37-2.063-.556-3.068-.556-2.195 0-3.937.779-5.225 2.335-1.289 1.557-1.933 3.69-1.933 6.402 0 2.697.652 4.752 1.958 6.165 1.305 1.413 3.116 2.12 5.431 2.12 1.797 0 3.607-.717 5.432-2.152l1.579 3.458c-2.146 1.435-4.805 2.151-7.975 2.151-3.072 0-5.61-1.055-7.616-3.166-2.006-2.112-3.009-4.97-3.009-8.576 0-3.677 1.048-6.629 3.146-8.855 2.097-2.226 4.968-3.34 8.612-3.34 1.171 0 2.443.252 3.813.754 1.37.503 2.38 1.02 3.029 1.552"/></g><g><path fill="#fff" d="M173.024 31.349l1.41-3.877c2.23 1.486 4.026 2.228 5.387 2.228 2.469 0 3.703-1.061 3.703-3.184 0-1.52-1.192-2.826-3.576-3.916-1.837-.862-3.075-1.515-3.714-1.96a8.338 8.338 0 0 1-1.661-1.52 6.07 6.07 0 0 1-1.052-1.809 5.997 5.997 0 0 1-.347-2.057c0-1.896.673-3.376 2.019-4.438 1.345-1.063 3.105-1.595 5.278-1.595 1.64 0 3.708.531 6.203 1.593l-1.136 3.786c-1.586-1.28-3.178-1.92-4.777-1.92-.954 0-1.756.23-2.408.688-.653.46-.979 1.04-.979 1.743 0 1.478.82 2.597 2.462 3.357l2.86 1.334c1.753.819 3.03 1.752 3.829 2.8.799 1.049 1.199 2.363 1.199 3.943 0 2.068-.708 3.687-2.124 4.858-1.416 1.17-3.379 1.755-5.889 1.755-2.37 0-4.598-.602-6.687-1.809"/></g><g><path fill="#fff" d="M15.74 42.822c0 2.233-1.766 4.044-3.945 4.044-2.18 0-3.947-1.81-3.947-4.044 0-2.233 1.767-4.043 3.947-4.043 2.179 0 3.946 1.81 3.946 4.043"/></g><g><path fill="#fff" d="M37.933 42.806c0 2.233-1.767 4.044-3.946 4.044-2.18 0-3.947-1.811-3.947-4.044 0-2.233 1.767-4.044 3.947-4.044 2.179 0 3.946 1.81 3.946 4.044"/></g><g><path fill="#fff" d="M60.149 42.806c0 2.233-1.767 4.044-3.947 4.044s-3.946-1.811-3.946-4.044c0-2.233 1.767-4.044 3.946-4.044 2.18 0 3.947 1.81 3.947 4.044"/></g></g></g></g></svg>