<svg xmlns="http://www.w3.org/2000/svg" xmlns:xlink="http://www.w3.org/1999/xlink" width="32" height="47" viewBox="0 0 32 47">
    <defs>
        <path id="e01g00jhaa" d="M0.192 0L2.364 0 2.364 4.147 0.192 4.147z"/>
    </defs>
    <g fill="none" fill-rule="evenodd">
        <path fill="#FEFEFE" d="M27.93 21.676c-.125.447-.295.875-.513 1.284-.275.518-.595 1.007-.967 1.462-.292.357-.595.703-.934 1.015-.603.554-1.248 1.055-1.953 1.476-.262.157-.52.323-.795.456-.718.346-1.464.614-2.245.779-.38.08-.762.136-1.149.177-.456.05-.912.07-1.367.045-.243-.012-.493.005-.741-.07.19-.486.356-.989.562-1.477.245-.584.504-1.161.795-1.724.456-.885.965-1.742 1.538-2.557.362-.516.748-1.017 1.164-1.494.364-.419.744-.82 1.15-1.194.647-.596 1.35-1.121 2.154-1.489.422-.193.861-.33 1.329-.382.352-.04.687-.018 1.02.11.388.151.658.428.851.785.175.322.255.67.295 1.036.066.605-.034 1.185-.194 1.762m-7.265 8.78c.17-.116.338-.233.506-.35.361-.252.715-.511 1.04-.81.246-.227.529-.41.762-.652.056-.058.155-.123.086-.207-.066-.08-.161-.027-.238.027-.358.25-.71.51-1.078.744-.45.286-.894.579-1.366.827-.482.254-.967.504-1.463.728-.403.181-.829.315-1.228.503-.554.262-1.135.443-1.717.62-.492.15-.996.254-1.502.351-.388.076-.776.122-1.171.149-.46.032-.917.012-1.375.017-.206.002-.412-.04-.618-.063.018-.035.05-.046.091-.049.312-.018.625-.026.936-.06.367-.039.737-.06 1.102-.133.247-.05.504-.056.753-.096.403-.064.802-.144 1.186-.286.068-.025.122-.07.168-.132-.074-.063-.145-.063-.241-.053-.286.026-.565.087-.847.128-.314.045-.627.098-.943.138-.176.022-.354.043-.531.06-.615.06-1.232.094-1.85.087-.138-.001-.279-.015-.432-.07.272-.076.528-.11.789-.131.455-.038.913-.051 1.368-.11.312-.041.629-.05.941-.092.263-.035.525-.085.782-.147 1.136-.278 2.262-.586 3.367-.973.09-.033.176-.082.268-.112.069-.023.079-.073.062-.122-.019-.056-.067-.1-.134-.081-.366.098-.733.19-1.095.3-.262.08-.53.131-.797.186-.479.099-.957.193-1.437.282-.312.057-.626.105-.94.15-.42.062-.842.09-1.265.123-.519.04-1.037.066-1.555.047-.384-.014-.767-.047-1.152-.055-.719-.014-1.42-.152-2.12-.307-.43-.096-.86-.187-1.276-.327-.446-.15-.902-.275-1.321-.542.162-.004.294.064.43.1.613.16 1.227.322 1.85.442.508.097 1.019.182 1.53.258.257.038.52.03.777.064.397.055.797.066 1.195.11.476.051.956.05 1.432.024.34-.018.683.006 1.021-.052.093-.015.21-.043.217-.143.006-.079-.107-.095-.181-.125-.049-.019-.093-.017-.138-.017-.5-.002-.998-.002-1.497-.001-.489 0-.972-.085-1.461-.091-.3-.004-.601-.045-.9-.084-.504-.067-1.008-.133-1.51-.22-.798-.138-1.571-.352-2.335-.612-.11-.037-.21-.088-.324-.16.199-.046.354.046.515.084.407.097.821.158 1.23.246.431.093.865.175 1.3.252.24.042.483.063.724.096.26.035.518.076.778.11.169.021.339.006.51.028.355.045.713.072 1.071.096.6.04 1.2.068 1.8.05.388-.013.777-.036 1.165-.061.291-.018.579-.095.867-.147.243-.044.485-.086.727-.136.08-.017.157-.053.232-.088.058-.027.02-.084.026-.127.006-.055-.04-.039-.07-.042-.239-.024-.472.038-.705.065-.213.025-.428.039-.641.076-.467.082-.94.07-1.41.057-.482-.014-.967-.028-1.445-.09-.703-.09-1.396-.236-2.073-.466-.458-.156-.927-.281-1.383-.446-.638-.229-1.277-.456-1.89-.748-.402-.19-.805-.376-1.2-.578-.74-.378-1.44-.823-2.106-1.318-.275-.204-.544-.423-.754-.696l1.394.911c.58.378 1.203.672 1.826.97.483.232.976.442 1.47.648.842.35 1.682.708 2.573.933.506.127 1.006.28 1.514.403.148.035.296.074.446.104.069.014.138-.014.163-.082.026-.068-.021-.114-.081-.147-.198-.105-.413-.156-.628-.212-.684-.178-1.352-.409-2.02-.637-.7-.239-1.382-.518-2.055-.82-.646-.29-1.286-.593-1.914-.92-.643-.336-1.253-.723-1.824-1.172-.19-.15-.38-.299-.563-.46.181.062.33.18.49.274.387.228.772.458 1.164.677.4.223.794.461 1.213.647.733.325 1.441.706 2.205.969.49.169.958.412 1.454.571.931.3 1.865.593 2.803.87.51.15 1.035.256 1.558.356.103.019.207-.002.308-.03.056-.015.104-.055.105-.111 0-.045-.049-.07-.096-.09-.245-.104-.505-.147-.76-.212-.645-.165-1.273-.379-1.9-.6-.514-.183-1.016-.391-1.507-.625-.51-.241-1.002-.52-1.472-.835-.52-.349-1.05-.684-1.566-1.037-.461-.315-.921-.633-1.362-.975-.475-.368-.924-.769-1.39-1.15-.455-.373-.869-.793-1.307-1.183-.683-.608-1.168-1.361-1.664-2.11-.026-.038-.044-.082-.064-.123-.003-.007.002-.018.006-.041.18.204.334.418.5.62.164.2.329.398.494.595.264.316.559.603.857.885.387.368.79.719 1.198 1.063.53.447 1.079.871 1.623 1.3.443.349.887.695 1.365.998.407.257.79.554 1.207.798.344.2.692.392 1.036.592.18.105.363.202.57.243.033.006.064.013.097.015.039.003.08.004.102-.035.027-.049-.024-.065-.047-.09-.152-.178-.354-.295-.552-.404-.544-.299-1.02-.694-1.537-1.031-.452-.294-.9-.597-1.325-.927-.384-.3-.777-.587-1.151-.9-.358-.297-.713-.599-1.069-.898-.16-.134-.303-.287-.465-.42-.407-.334-.753-.73-1.11-1.113-.392-.42-.761-.862-1.132-1.303-.094-.113-.186-.236-.24-.379.041-.02.056 0 .073.017l.55.52c.418.398.832.8 1.253 1.193.21.197.404.407.619.6.458.41.911.826 1.377 1.228.326.28.636.58.97.848.416.332.839.655 1.272.963.478.34.937.709 1.423 1.038.436.296.879.583 1.352.822.318.16.618.354.942.505.439.206.899.36 1.347.541.24.097.485.176.727.266.022.008.04.027.065.024.069-.008.163.036.184-.079.018-.097-.055-.137-.124-.168-.503-.218-1.008-.432-1.493-.688-.763-.403-1.491-.864-2.197-1.36-.428-.302-.839-.624-1.246-.955-.45-.365-.87-.763-1.28-1.17-.29-.285-.59-.559-.874-.848-.344-.35-.686-.702-1.01-1.07-.675-.765-1.34-1.54-1.873-2.415-.273-.446-.563-.881-.803-1.347-.178-.346-.385-.677-.555-1.026-.331-.687-.565-1.412-.786-2.14-.085-.279-.172-.556-.24-.84-.023-.096-.062-.197-.035-.324.187.53.38 1.038.6 1.534.144.33.32.647.49.966.165.31.346.613.508.925.163.312.364.602.538.907.243.427.488.852.763 1.259.401.594.814 1.182 1.267 1.737.325.398.656.791 1.008 1.169.413.444.832.883 1.26 1.313.15.15.267.335.426.474.25.217.497.44.782.615.043.026.09.083.15.03.064-.056.016-.114-.007-.167-.06-.135-.154-.246-.257-.348-.374-.37-.756-.73-1.127-1.103-.377-.378-.713-.79-1.046-1.207-.316-.395-.645-.78-.949-1.186-.493-.659-.97-1.328-1.393-2.035-.434-.727-.827-1.477-1.242-2.215-.404-.72-.706-1.482-1.006-2.247-.091-.232-.197-.458-.272-.696-.009-.03-.013-.053-.005-.086.174.186.261.417.355.641.174.415.401.803.608 1.201.236.456.503.895.772 1.334.26.426.503.863.762 1.29.238.391.481.78.73 1.166.376.588.797 1.145 1.217 1.703.25.33.474.682.741.998.252.299.489.609.745.903.684.786 1.434 1.509 2.165 2.248.31.312.667.568 1.002.85.523.443 1.103.808 1.695 1.146.61.349 1.237.667 1.912.879.612.192 1.213.42 1.842.557.333.072.669.124 1.007.167.475.062.95.06 1.425.05.377-.007.75-.05 1.124-.107.438-.065.869-.151 1.297-.263.582-.15 1.149-.345 1.704-.573.45-.184.893-.384 1.32-.613.776-.418 1.527-.879 2.231-1.413.33-.25.645-.516.957-.787.03-.026.066-.043.11-.073-.55 1.162-5.177 4.869-6.676 5.335M31.52 18.88c-.3-.724-.793-1.264-1.47-1.636-.697-.384-1.465-.53-2.25-.573-.346-.02-.695-.01-1.044.016-.506.038-1.004.107-1.502.205-.755.15-1.485.382-2.198.666-.576.23-1.137.492-1.68.793-.323.18-.646.362-.956.563-.603.389-1.19.799-1.751 1.248-.475.38-.936.777-1.378 1.193-.343.324-.677.66-.996 1.01-.337.371-.666.747-.984 1.134-.388.472-.75.964-1.097 1.467-.424.615-.804 1.256-1.158 1.913-.03.053-.047.079-.115.039-.647-.377-1.267-.792-1.86-1.251-.522-.405-1.018-.838-1.502-1.285-.37-.34-.716-.703-1.05-1.078-.082-.092-.168-.18-.248-.273-.36-.423-.713-.851-1.073-1.273-.301-.352-.569-.73-.85-1.097-.265-.348-.482-.73-.749-1.076-.38-.494-.691-1.032-1.032-1.552-.208-.317-.393-.65-.597-.97-.406-.636-.777-1.292-1.134-1.958-.375-.702-.654-1.455-1.122-2.108-.175-.243-.349-.488-.612-.651-.247-.155-.384-.106-.481.173-.08.229-.097.467-.11.703-.017.34.016.677.078 1.015.075.401.142.803.264 1.194.154.498.344.984.534 1.469.128.327.256.653.425.96.179.324.356.648.549.965.26.427.508.861.771 1.286.279.448.611.857.933 1.273.265.341.548.669.825 1 .224.269.45.536.679.806-.016.003-.03.01-.034.006-.252-.21-.516-.41-.754-.637-.48-.458-.945-.93-1.433-1.38-.558-.516-1.08-1.071-1.63-1.596-.34-.324-.656-.673-1.052-.931-.239-.156-.455-.276-.676-.059v.403c.009.009.025.017.026.026.02.253.118.486.194.723.14.433.365.828.592 1.22.433.745.948 1.433 1.538 2.062.302.323.602.647.933.944.432.386.879.753 1.326 1.121.552.454 1.142.854 1.727 1.26.186.13.381.244.572.365-.209-.034-.39-.133-.573-.224-.538-.269-1.07-.55-1.605-.826-.35-.18-.709-.346-1.049-.544-.736-.429-1.46-.878-2.194-1.308-.138-.08-.265-.186-.424-.231-.158-.046-.317.02-.338.157-.014.096-.023.199.012.296.177.495.426.951.791 1.33.31.323.626.638.969.93.304.258.612.509.942.73.504.34 1.021.655 1.548.957.482.278.96.562 1.48.76.674.259 1.32.588 2.012.804-.162.023-.33.007-.476-.027-.504-.12-1.015-.19-1.522-.281-.566-.102-1.121-.252-1.68-.387-.366-.088-.74-.124-1.118-.128-.155 0-.25.109-.26.258-.014.248.153.392.314.523.473.383.997.69 1.534.974.375.2.762.373 1.163.513.16.057.321.114.49.15.354.073.707.149 1.061.223.332.07.661.152.996.203.319.05.643.066.993.1-.147.038-.263.076-.375.13-.13.062-.195.185-.204.297-.01.112.075.215.208.265.484.181.968.362 1.48.45.074.012.126.033.114.123-.013.093-.029.187-.029.28.002.533-.01 1.066.052 1.598.049.428.115.852.218 1.268.17.692.414 1.36.767 1.983.36.636.796 1.208 1.345 1.698.52.465 1.101.821 1.737 1.1.896.392 1.842.56 2.809.607.653.033 1.306.001 1.957-.104.515-.083 1.02-.2 1.517-.347.898-.267 1.752-.637 2.576-1.08.429-.23.848-.476 1.256-.74.692-.45 1.355-.94 1.992-1.468.438-.362.853-.748 1.268-1.135.227-.21.435-.441.644-.67.129-.142.24-.3.365-.446.046-.055.038-.095-.01-.132-.212-.159-.381-.36-.57-.542-.04-.038-.072-.051-.122-.01-.352.298-.705.594-1.06.888-.314.26-.623.528-.95.772-.472.353-.946.705-1.445 1.023-.61.388-1.244.727-1.917.993-.798.314-1.63.465-2.482.495-.253.01-.509-.024-.763-.049-.391-.037-.771-.12-1.146-.234-.665-.203-1.268-.528-1.787-.99-.437-.39-.771-.86-1.017-1.397-.298-.652-.42-1.338-.456-2.045-.021-.423.01-.845.058-1.266.02-.17.058-.34.082-.51.007-.047.016-.059.065-.068.328-.064.657-.122.981-.204.793-.2 1.584-.408 2.363-.659.575-.185 1.145-.385 1.711-.598.722-.27 1.431-.57 2.128-.898.516-.242 1.022-.503 1.52-.779.47-.26.931-.538 1.379-.834.623-.413 1.224-.856 1.788-1.35.44-.385.86-.791 1.254-1.225.416-.458.796-.944 1.12-1.471.306-.5.612-1.002.853-1.54.28-.624.475-1.274.518-1.953.044-.68.023-1.361-.246-2.015"/>
        <g transform="translate(19.14)">
            <mask id="or7sfccwub" fill="#fff">
                <use xlink:href="#e01g00jhaa"/>
            </mask>
            <path fill="#FEFEFE" d="M1.525 0c0 .264.003.527-.002.79-.002.082.02.108.102.104.129-.007.259.002.388-.003.069-.003.092.017.088.087-.006.129.042.292-.02.377-.059.08-.232.023-.355.025-.201.004-.2.002-.202.203-.002.227-.06.485.293.508.625.339.705 1.209.29 1.664-.333.364-.733.48-1.183.324-.385-.133-.66-.42-.718-.84-.08-.573.17-.996.716-1.22.07-.028.086-.057.085-.119-.003-.167.057-.381-.024-.488-.077-.102-.304-.028-.465-.028-.092 0-.126-.021-.118-.117.009-.1.004-.202.001-.302C.4.89.43.86.503.863.643.866.782.86.92.865c.07.003.089-.02.088-.088C1.004.517 1.006.259 1.006 0h.519z" mask="url(#or7sfccwub)"/>
        </g>
        <path fill="#FEFEFE" d="M19.945 9.127c0-.218-.048-.413-.074-.61-.02-.162-.046-.323-.07-.484-.006-.038.012-.065.04-.086.255-.195.485-.42.728-.634.202.219.434.412.621.65.036.045.055.084.05.138-.029.299-.056.597-.11.892-.008.047-.001.096-.001.166.128-.117.232-.246.38-.319.22-.108.44-.137.672-.036.195.086.258.26.294.443.07.348-.007.686-.113 1.017-.066.207-.149.407-.251.6-.048.09-.1.14-.212.133-.157-.01-.315-.003-.476-.003.08-.227.17-.447.19-.684.01-.123.02-.26-.141-.307-.157-.047-.262.056-.33.16-.23.354-.197.914.238 1.152.322.176.776.144 1.092-.098.3-.232.427-.564.521-.91.062-.228.099-.463.145-.695.011-.054.003-.095-.07-.087-.047.006-.096.001-.144.001-.191 0-.197 0-.185-.186.009-.14.034-.278.057-.417.01-.063.065-.057.114-.06.328-.012.316-.013.348-.341.032-.316.096-.628.138-.942.008-.06.026-.07.077-.07.178.003.355.008.532 0 .094-.006.093.046.083.104-.031.198-.068.395-.101.592-.034.193-.067.386-.099.58-.01.069-.001.124.093.108.023-.004.048 0 .072 0 .291 0 .292 0 .236.285-.003.018-.02.033-.023.05-.013.1.033.238-.062.287-.084.043-.207.018-.312.008-.112-.01-.137.021-.158.14-.024.145-.034.295-.036.434-.007.387.023.786.314 1.084.182.186.433.262.692.24.224-.02.446-.075.63-.226.252-.207.453-.711.26-1.047-.047-.082-.106-.142-.195-.129-.09.013-.179.057-.211.158-.053.161-.038.326-.024.491.001.009.012.016.014.025.063.267.015.329-.255.329-.24 0-.237 0-.318-.242-.12-.357-.165-.726-.137-1.098.02-.265.09-.525.29-.722.305-.303.808-.315 1.105.083.1.132.188.274.289.422.055-.167.051-.335.063-.497.01-.16.03-.292.197-.373.403-.194.8-.4 1.234-.619l-.376 1.088c-.302.881-.603 1.763-.908 2.643-.165.475-.341.946-.503 1.422-.04.117-.098.231-.12.353-.022.132-.08.163-.212.163-3.257-.005-6.513-.005-9.77-.001-.128 0-.181-.036-.227-.163-.309-.859-.63-1.713-.949-2.568-.347-.934-.693-1.867-1.043-2.8-.013-.033.007-.077-.033-.107.18.04.331.137.49.217.306.154.608.315.916.466.082.04.11.086.117.18.014.217.051.431.082.67.11-.175.16-.349.263-.5.166-.242.333-.277.639-.207.426.098.606.419.679.812.086.463.034.913-.17 1.344-.025.056-.059.064-.109.063-.124-.001-.25-.008-.374.002-.112.01-.102-.058-.091-.123.043-.249.045-.493-.027-.74-.034-.118-.12-.155-.213-.17-.09-.015-.135.063-.166.14-.215.523.144 1.214.758 1.27.286.027.53-.02.753-.2.187-.151.274-.358.328-.577.088-.357.068-.718.006-1.078-.011-.062-.047-.049-.081-.05h-.331c-.046.001-.077.002-.082-.063-.012-.159-.027-.319-.06-.474-.018-.085.007-.097.076-.096h.345c-.043-.334-.085-.662-.13-.99-.011-.086-.03-.173-.05-.26-.015-.065-.015-.107.075-.104.167.006.336.004.503 0 .083-.001.098.036.11.112.06.391.135.78.194 1.171.011.071.038.074.09.072.048-.002.096 0 .144 0 .222 0 .225-.001.257.207.011.074.016.148.028.223.032.201.025.202-.182.202h-.246c.04.252.072.492.116.73.065.355.154.699.434.96.272.253.763.299 1.088.113.35-.199.482-.504.462-.89-.011-.235-.205-.407-.44-.394-.13.006-.213.092-.222.223-.018.249.067.477.15.726h-.59c-.065.001-.078-.05-.093-.09-.133-.365-.259-.732-.306-1.123-.027-.227-.04-.447.029-.667.138-.44.627-.447.93-.256.116.073.218.17.341.269"/>
        <path fill="#FEFEFE" d="M26.226 8.177c-.003-.025-.01-.044-.006-.06.077-.375-.141-.584-.404-.801-.513-.424-1.075-.762-1.675-1.04-.613-.286-1.244-.518-1.913-.64-.208-.037-.418-.05-.626-.08-.057-.009-.1-.01-.107.082-.028.327-.073.652-.111.978-.029.242-.059.484-.085.726-.003.032-.01.063-.035.071-.03.01-.047-.026-.067-.046-.176-.176-.358-.347-.526-.53-.079-.086-.117-.068-.188.004-.226.225-.46.442-.708.68-.06-.407-.115-.796-.177-1.183-.04-.254-.091-.506-.113-.762-.007-.086-.073-.051-.108-.048-.38.038-.754.112-1.116.235-.793.268-1.527.658-2.218 1.125-.342.232-.657.5-.963.78-.09.082-.126.167-.116.285.009.09.002.18.002.284-.235-.104-.458-.2-.68-.3-.164-.075-.325-.156-.49-.229-.072-.032-.079-.052-.022-.115.608-.689 1.302-1.275 2.088-1.751.8-.484 1.65-.848 2.56-1.065.41-.097.821-.168 1.241-.204.365-.032.73-.074 1.094-.05.626.039 1.248.097 1.863.248.612.151 1.203.35 1.779.607.63.28 1.212.642 1.757 1.057.43.327.831.69 1.178 1.11.05.06.038.08-.025.112-.355.178-.707.361-1.083.52M24.118 4.215c0 .284-.221.502-.506.506-.257.003-.48-.204-.499-.5-.016-.264.24-.516.507-.507.236.008.513.201.498.5M24.874 4.26c.281-.006.506.239.51.504.003.255-.248.51-.513.499-.245-.012-.492-.186-.497-.502-.004-.264.25-.533.5-.501M13.936 5.67c.284.002.517.227.511.499-.005.28-.247.517-.509.505-.291-.014-.481-.205-.495-.502-.014-.289.257-.518.493-.502M27.63 6.22c.03.264-.246.519-.47.515-.323-.006-.517-.249-.531-.522-.015-.27.238-.48.525-.487.23-.006.51.223.475.495M17.758 4.258c0 .29-.195.496-.475.49-.34-.008-.497-.212-.527-.485-.028-.248.255-.522.521-.52.241.003.526.25.48.515M25.615 5.386c-.052-.245.223-.502.47-.498.24.004.517.205.515.492-.002.271-.245.515-.514.52-.228.006-.517-.26-.471-.514M16.1 4.288c.319-.015.497.23.505.492.007.249-.247.524-.485.51-.278-.015-.532-.244-.523-.532.01-.259.227-.47.502-.47M22.318 3.396c.273-.021.494.209.504.482.01.25-.266.54-.507.515-.283-.028-.496-.214-.5-.528-.004-.233.225-.495.503-.469M15.484 5.471c.003.296-.236.508-.486.512-.255.004-.496-.24-.499-.516-.003-.25.245-.495.496-.495.26 0 .514.25.489.5M19.024 3.865c.015.266-.206.506-.489.506-.28 0-.493-.233-.49-.49.002-.28.191-.484.453-.485.328 0 .525.175.526.47M16.084 44.894c0 .14-.044.27-.126.39-.085.118-.24.247-.464.388-.293.185-.379.276-.414.387h1.001v.3h-1.403c0-.317.15-.575.47-.79.105-.07.211-.144.311-.217.2-.147.29-.294.29-.45 0-.228-.129-.36-.346-.36-.226 0-.34.155-.352.513h-.335c.009-.499.282-.792.708-.792.408 0 .66.264.66.631M17.012 46.121c.25 0 .376-.25.376-.79 0-.537-.132-.79-.38-.79-.246 0-.372.268-.372.79 0 .538.13.79.376.79m.71-.79c0 .676-.243 1.069-.71 1.069-.467 0-.71-.39-.71-1.069 0-.675.24-1.068.71-1.068.473 0 .71.39.71 1.068M18.855 44.304v2.055h-.366v-1.45h-.505v-.265c.346 0 .56-.129.598-.34h.273zM20.253 45.393c.246 0 .373-.206.373-.432s-.135-.42-.376-.42c-.238 0-.355.203-.355.42 0 .218.117.432.358.432m.74-.059c0 .488-.194 1.066-.775 1.066-.326 0-.602-.226-.62-.56h.335c.014.167.129.281.3.281.36 0 .404-.434.425-.704l-.006-.006c-.088.158-.264.246-.443.246-.408 0-.65-.3-.65-.693 0-.422.289-.701.709-.701.625 0 .725.56.725 1.071"/>
    </g>
</svg>
