<svg xmlns="http://www.w3.org/2000/svg" xmlns:xlink="http://www.w3.org/1999/xlink" width="47" height="47" viewBox="0 0 47 47">
    <defs>
        <path id="po4b9ip5pa" d="M0 0L46.4 0 46.4 46.4 0 46.4z"/>
    </defs>
    <g fill="none" fill-rule="evenodd">
        <mask id="y1wv3mrj9b" fill="#fff">
            <use xlink:href="#po4b9ip5pa"/>
        </mask>
        <path fill="#FEFEFE" d="M23.2.78C10.838.78.781 10.839.781 23.2c0 12.362 10.057 22.42 22.419 22.42S45.619 35.561 45.619 23.2C45.619 10.838 35.562.78 23.2.78m0 45.62C10.408 46.4 0 35.993 0 23.2 0 10.408 10.408 0 23.2 0c12.793 0 23.2 10.408 23.2 23.2 0 12.793-10.407 23.2-23.2 23.2" mask="url(#y1wv3mrj9b)"/>
        <path fill="#FEFEFE" d="M20.228 25.74c-.17-.254-.367-.435-.589-.542-.222-.107-.453-.16-.695-.16-.24 0-.472.053-.694.16-.222.107-.419.288-.589.543-.17.255-.305.59-.405 1.008-.1.417-.15.936-.15 1.556s.05 1.14.15 1.556c.1.418.235.753.405 1.005.17.253.367.433.589.54.222.107.453.16.694.16.242 0 .473-.053.695-.16.222-.107.419-.287.589-.54.17-.252.306-.587.408-1.005.101-.417.152-.936.152-1.556s-.05-1.139-.152-1.556c-.102-.417-.238-.753-.408-1.008M12.49 25.454c-.142-.14-.31-.247-.503-.322-.193-.075-.407-.112-.64-.112-.241 0-.462.04-.66.118-.2.078-.37.189-.512.33-.141.142-.25.31-.327.505-.077.196-.115.41-.115.644 0 .509.138.901.414 1.177.275.276.658.413 1.148.413.264 0 .498-.043.701-.129.203-.086.374-.2.514-.344.14-.144.246-.31.318-.5.073-.19.11-.388.11-.594 0-.25-.04-.474-.118-.675-.079-.201-.189-.371-.33-.511M30.481 14.276c-.247-.272-.545-.48-.896-.626-.35-.146-.741-.219-1.174-.219-.433 0-.824.073-1.174.219-.35.145-.65.354-.9.626-.248.272-.44.603-.573.993-.134.39-.201.831-.201 1.321 0 .494.067.935.2 1.324.134.388.326.719.575.99.249.272.548.48.899.623.35.144.741.216 1.174.216.433 0 .824-.072 1.174-.216.35-.143.65-.35.896-.623.247-.271.438-.602.572-.99.134-.389.2-.83.2-1.324 0-.49-.066-.93-.2-1.32-.134-.391-.325-.722-.572-.994M27.808 25.74c-.17-.254-.366-.435-.588-.542-.223-.107-.454-.16-.695-.16-.242 0-.473.053-.695.16-.222.107-.419.288-.589.543-.17.255-.305.59-.405 1.008-.1.417-.149.936-.149 1.556s.05 1.14.15 1.556c.099.418.234.753.404 1.005.17.253.367.433.589.54.222.107.453.16.695.16.24 0 .472-.053.695-.16.222-.107.418-.287.588-.54.17-.252.306-.587.408-1.005.101-.417.152-.936.152-1.556s-.05-1.139-.152-1.556c-.102-.417-.238-.753-.408-1.008"/>
        <path fill="#FEFEFE" d="M36.649 32.428h-4.456v-.855h1.745v-5.404c0-.173.006-.35.018-.534l-1.402 1.188c-.053.042-.107.07-.16.08-.054.012-.105.014-.153.007-.048-.008-.09-.024-.126-.05-.036-.024-.066-.05-.089-.077l-.35-.488 2.47-2.13h.912v7.408h1.591v.855zM30.082 20.49c-.502.207-1.059.31-1.671.31-.609 0-1.165-.103-1.668-.31-.504-.206-.934-.496-1.292-.87-.358-.373-.637-.817-.836-1.332-.2-.515-.299-1.08-.299-1.697 0-.613.1-1.177.299-1.694.199-.517.478-.962.836-1.335.358-.374.788-.664 1.292-.873.503-.209 1.06-.313 1.668-.313.612 0 1.17.104 1.671.313.502.209.932.5 1.292.873s.639.818.836 1.335c.197.517.295 1.081.295 1.694 0 .617-.098 1.182-.295 1.697-.197.515-.476.96-.836 1.332-.36.374-.79.664-1.292.87zm-.786 9.688c-.155.528-.368.966-.638 1.312-.27.347-.588.604-.953.773-.366.168-.76.252-1.18.252-.422 0-.815-.084-1.18-.252-.366-.169-.683-.426-.95-.773-.27-.346-.48-.784-.633-1.312-.153-.528-.23-1.152-.23-1.872 0-.72.077-1.345.23-1.875.153-.53.364-.969.632-1.315.268-.347.585-.604.95-.773.366-.168.76-.252 1.18-.252.422 0 .815.084 1.18.252.366.17.684.426.954.773.27.346.483.785.638 1.315.155.53.232 1.155.232 1.875s-.077 1.344-.232 1.872zm-7.09-10.968c-.124.318-.305.595-.543.832-.237.238-.529.424-.875.56-.347.136-.74.204-1.18.204-.265 0-.521-.026-.77-.077-.249-.052-.485-.125-.706-.219-.223-.093-.43-.206-.623-.338-.194-.132-.367-.28-.52-.445l.35-.586c.035-.046.076-.084.124-.115.047-.03.102-.046.163-.046.08 0 .173.042.279.127.105.084.235.177.39.278.155.101.34.194.557.279.217.084.48.126.79.126.253 0 .478-.034.677-.1.2-.068.367-.163.503-.288.136-.124.24-.274.313-.45.073-.177.11-.372.11-.587 0-.24-.056-.438-.167-.59-.111-.154-.259-.282-.443-.386-.183-.103-.392-.191-.625-.264-.234-.073-.474-.148-.718-.227-.246-.078-.485-.169-.718-.273-.234-.103-.442-.238-.626-.404-.184-.167-.331-.375-.442-.626-.112-.251-.167-.56-.167-.928 0-.295.057-.58.172-.855.115-.276.283-.52.503-.733.22-.212.49-.382.813-.51.321-.129.689-.193 1.102-.193.463 0 .89.074 1.278.221.388.147.726.359 1.013.635l-.298.58c-.039.065-.079.113-.121.143-.042.03-.096.046-.16.046-.07 0-.148-.031-.236-.095-.088-.063-.198-.134-.33-.212-.132-.078-.29-.15-.474-.213s-.404-.094-.66-.094c-.242 0-.453.031-.635.094-.182.064-.334.15-.457.259-.122.109-.215.237-.278.385-.063.147-.095.307-.095.48 0 .221.057.405.17.55.112.146.26.27.445.374.183.103.392.193.625.27.234.076.473.156.718.238.246.082.485.177.718.284.234.107.442.242.626.405.184.163.332.362.445.597.113.236.17.524.17.865 0 .363-.063.704-.187 1.022zm-.49 10.968c-.156.528-.368.966-.638 1.312-.27.347-.588.604-.953.773-.366.168-.76.252-1.18.252-.422 0-.815-.084-1.18-.252-.366-.169-.683-.426-.951-.773-.268-.346-.479-.784-.632-1.312-.153-.528-.23-1.152-.23-1.872 0-.72.077-1.345.23-1.875.153-.53.364-.969.632-1.315.268-.347.585-.604.95-.773.366-.168.76-.252 1.18-.252.421 0 .815.084 1.18.252.366.17.684.426.954.773.27.346.482.785.637 1.315.155.53.233 1.155.233 1.875s-.078 1.344-.233 1.872zm-8.242-9.464h1.23v-8.246h-1.23v8.246zm.477 6.742c-.044.218-.107.43-.19.638-.082.206-.181.41-.298.611-.117.201-.25.407-.4.617l-1.98 2.843c-.054.077-.131.14-.233.19-.101.05-.217.074-.347.074H9.475l2.52-3.262c.15-.195.29-.386.42-.574-.207.157-.437.276-.692.356-.255.08-.526.121-.813.121-.302 0-.592-.052-.87-.155-.277-.104-.522-.256-.735-.457-.212-.2-.382-.449-.508-.743-.126-.295-.19-.634-.19-1.017 0-.36.067-.699.202-1.016.134-.318.322-.595.565-.83.243-.236.534-.421.873-.557.339-.136.711-.204 1.117-.204.402 0 .767.065 1.094.195.327.13.606.313.836.549.23.235.407.517.534.847.126.329.19.69.19 1.085 0 .241-.023.47-.067.689zM23.2 1.905C11.44 1.905 1.905 11.44 1.905 23.2c0 11.76 9.534 21.295 21.295 21.295 11.76 0 21.295-9.534 21.295-21.295 0-11.76-9.534-21.295-21.295-21.295z"/>
    </g>
</svg>
