<svg xmlns="http://www.w3.org/2000/svg" width="1536" height="800" viewBox="0 0 1536 800" preserveAspectRatio="none">
    <g fill="none" fill-rule="evenodd" opacity=".1">
        <g stroke="#FFF" stroke-width=".55">
            <path d="M566.5 236.5l147.4 17.545M653.4 594.55L545.6 515.9l-116.05-42.35-116.05-67.1L165.55 440l140.25 90.75-92.675 63.525L165.55 440 35.2 381.7l164.45-61.05-73.15-84.15 86.625-82.225L105.6 75.9" transform="translate(-58 -124)"/>
            <path d="M126.5 236.5l147.4 17.6 84.15 66.55L475.2 381.7l-161.975 24.475-113.85-85.8M347.05 608.3l-41.25-77.55" transform="translate(-58 -124)"/>
            <path d="M429.55 473.55L461.45 573.65 545.6 515.9 605.55 440 475.2 381.7 429.55 473.55 305.8 530.75 313.5 406.45 358.05 320.65 440 258.5 566.5 236.5 461.175 133.375 347.05 168.3 305.8 90.75 213.125 154.275 273.9 254.1 199.65 320.65 165.55 440 105.6 515.9 213.4 594.55" transform="translate(-58 -124)"/>
            <path d="M429.55 33.55l32.175 100.375L545.6 75.9m-70.4 305.8L440 258.5l-166.1-4.4 73.15-85.8m292.6 152.35L440 258.5m-81.95 62.15h-158.4" transform="translate(-58 -124)"/>
            <path d="M21.45 133.65l191.675 20.625L347.05 168.3 440 258.5l21.175-125.125L653.4 154.55l-86.9 81.95 73.15 84.15L475.2 381.7l70.4 134.2M305.8 90.75l155.375 42.625m.275 440.275l-155.65-42.9M165.55 0l47.85 154.55m-13.75 166.1L0 258.5" transform="translate(-58 -124)"/>
        </g>
        <g fill="#F9F9F9" fill-rule="nonzero" transform="translate(-58 -124) translate(162.8 130.9)">
            <circle cx="403.7" cy="105.6" r="2.75"/>
            <circle cx="277.2" cy="127.6" r="2.75"/>
            <circle cx="312.4" cy="250.8" r="2.75"/>
            <circle cx="382.8" cy="385" r="2.75"/>
            <circle cx="266.75" cy="342.65" r="2.75"/>
            <circle cx="150.7" cy="275.55" r="2.75"/>
            <circle cx="143" cy="399.85" r="2.75"/>
            <circle cx="2.75" cy="309.1" r="2.75"/>
            <circle cx="36.85" cy="189.75" r="2.75"/>
            <circle cx="50.6" cy="23.65" r="2.75"/>
            <circle cx="184.25" cy="37.4" r="2.75"/>
            <circle cx="298.65" cy="2.75" r="2.75"/>
            <circle cx="111.1" cy="123.2" r="2.75"/>
            <circle cx="195.25" cy="189.75" r="2.75"/>
        </g>
        <g>
            <g stroke="#FFF" stroke-width=".55">
                <path d="M566.5 236.5l147.4 17.545M653.4 594.55L545.6 515.9l-116.05-42.35-116.05-67.1L165.55 440l140.25 90.75-92.675 63.525L165.55 440 35.2 381.7l164.45-61.05-73.15-84.15 86.625-82.225L105.6 75.9" transform="translate(-58 -124) translate(0 440)"/>
                <path d="M126.5 236.5l147.4 17.6 84.15 66.55L475.2 381.7l-161.975 24.475-113.85-85.8M347.05 608.3l-41.25-77.55" transform="translate(-58 -124) translate(0 440)"/>
                <path d="M429.55 473.55L461.45 573.65 545.6 515.9 605.55 440 475.2 381.7 429.55 473.55 305.8 530.75 313.5 406.45 358.05 320.65 440 258.5 566.5 236.5 461.175 133.375 347.05 168.3 305.8 90.75 213.125 154.275 273.9 254.1 199.65 320.65 165.55 440 105.6 515.9 213.4 594.55" transform="translate(-58 -124) translate(0 440)"/>
                <path d="M429.55 33.55l32.175 100.375L545.6 75.9m-70.4 305.8L440 258.5l-166.1-4.4 73.15-85.8m292.6 152.35L440 258.5m-81.95 62.15h-158.4" transform="translate(-58 -124) translate(0 440)"/>
                <path d="M21.45 133.65l191.675 20.625L347.05 168.3 440 258.5l21.175-125.125L653.4 154.55l-86.9 81.95 73.15 84.15L475.2 381.7l70.4 134.2M305.8 90.75l155.375 42.625m.275 440.275l-155.65-42.9M165.55 0l47.85 154.55m-13.75 166.1L0 258.5" transform="translate(-58 -124) translate(0 440)"/>
            </g>
            <g fill="#F9F9F9" fill-rule="nonzero" transform="translate(-58 -124) translate(0 440) translate(162.8 130.9)">
                <circle cx="403.7" cy="105.6" r="2.75"/>
                <circle cx="277.2" cy="127.6" r="2.75"/>
                <circle cx="312.4" cy="250.8" r="2.75"/>
                <circle cx="266.75" cy="342.65" r="2.75"/>
                <circle cx="150.7" cy="275.55" r="2.75"/>
                <circle cx="2.75" cy="309.1" r="2.75"/>
                <circle cx="36.85" cy="189.75" r="2.75"/>
                <circle cx="50.6" cy="23.65" r="2.75"/>
                <circle cx="184.25" cy="37.4" r="2.75"/>
                <circle cx="298.65" cy="2.75" r="2.75"/>
                <circle cx="111.1" cy="123.2" r="2.75"/>
                <circle cx="195.25" cy="189.75" r="2.75"/>
            </g>
        </g>
        <g>
            <g stroke="#FFF" stroke-width=".55">
                <path d="M566.5 236.5l147.4 17.545M653.4 594.55L545.6 515.9l-116.05-42.35-116.05-67.1L165.55 440l140.25 90.75-92.675 63.525L165.55 440 35.2 381.7l164.45-61.05-73.15-84.15 86.625-82.225L105.6 75.9" transform="translate(-58 -124) translate(440)"/>
                <path d="M126.5 236.5l147.4 17.6 84.15 66.55L475.2 381.7l-161.975 24.475-113.85-85.8M347.05 608.3l-41.25-77.55" transform="translate(-58 -124) translate(440)"/>
                <path d="M429.55 473.55L461.45 573.65 545.6 515.9 605.55 440 475.2 381.7 429.55 473.55 305.8 530.75 313.5 406.45 358.05 320.65 440 258.5 566.5 236.5 461.175 133.375 347.05 168.3 305.8 90.75 213.125 154.275 273.9 254.1 199.65 320.65 165.55 440 105.6 515.9 213.4 594.55" transform="translate(-58 -124) translate(440)"/>
                <path d="M429.55 33.55l32.175 100.375L545.6 75.9m-70.4 305.8L440 258.5l-166.1-4.4 73.15-85.8m292.6 152.35L440 258.5m-81.95 62.15h-158.4" transform="translate(-58 -124) translate(440)"/>
                <path d="M21.45 133.65l191.675 20.625L347.05 168.3 440 258.5l21.175-125.125L653.4 154.55l-86.9 81.95 73.15 84.15L475.2 381.7l70.4 134.2M305.8 90.75l155.375 42.625m.275 440.275l-155.65-42.9M165.55 0l47.85 154.55m-13.75 166.1L0 258.5" transform="translate(-58 -124) translate(440)"/>
            </g>
            <g fill="#F9F9F9" fill-rule="nonzero" transform="translate(-58 -124) translate(440) translate(162.8 130.9)">
                <circle cx="403.7" cy="105.6" r="2.75"/>
                <circle cx="277.2" cy="127.6" r="2.75"/>
                <circle cx="312.4" cy="250.8" r="2.75"/>
                <circle cx="382.8" cy="385" r="2.75"/>
                <circle cx="266.75" cy="342.65" r="2.75"/>
                <circle cx="150.7" cy="275.55" r="2.75"/>
                <circle cx="143" cy="399.85" r="2.75"/>
                <circle cx="2.75" cy="309.1" r="2.75"/>
                <circle cx="36.85" cy="189.75" r="2.75"/>
                <circle cx="50.6" cy="23.65" r="2.75"/>
                <circle cx="184.25" cy="37.4" r="2.75"/>
                <circle cx="298.65" cy="2.75" r="2.75"/>
                <circle cx="111.1" cy="123.2" r="2.75"/>
                <circle cx="195.25" cy="189.75" r="2.75"/>
            </g>
        </g>
        <g>
            <g stroke="#FFF" stroke-width=".55">
                <path d="M566.5 236.5l147.4 17.545M653.4 594.55L545.6 515.9l-116.05-42.35-116.05-67.1L165.55 440l140.25 90.75-92.675 63.525L165.55 440 35.2 381.7l164.45-61.05-73.15-84.15 86.625-82.225L105.6 75.9" transform="translate(-58 -124) translate(880)"/>
                <path d="M126.5 236.5l147.4 17.6 84.15 66.55L475.2 381.7l-161.975 24.475-113.85-85.8M347.05 608.3l-41.25-77.55" transform="translate(-58 -124) translate(880)"/>
                <path d="M429.55 473.55L461.45 573.65 545.6 515.9 605.55 440 475.2 381.7 429.55 473.55 305.8 530.75 313.5 406.45 358.05 320.65 440 258.5 566.5 236.5 461.175 133.375 347.05 168.3 305.8 90.75 213.125 154.275 273.9 254.1 199.65 320.65 165.55 440 105.6 515.9 213.4 594.55" transform="translate(-58 -124) translate(880)"/>
                <path d="M429.55 33.55l32.175 100.375L545.6 75.9m-70.4 305.8L440 258.5l-166.1-4.4 73.15-85.8m292.6 152.35L440 258.5m-81.95 62.15h-158.4" transform="translate(-58 -124) translate(880)"/>
                <path d="M21.45 133.65l191.675 20.625L347.05 168.3 440 258.5l21.175-125.125L653.4 154.55l-86.9 81.95 73.15 84.15L475.2 381.7l70.4 134.2M305.8 90.75l155.375 42.625m.275 440.275l-155.65-42.9M165.55 0l47.85 154.55m-13.75 166.1L0 258.5" transform="translate(-58 -124) translate(880)"/>
            </g>
            <g fill="#F9F9F9" fill-rule="nonzero" transform="translate(-58 -124) translate(880) translate(162.8 130.9)">
                <circle cx="403.7" cy="105.6" r="2.75"/>
                <circle cx="277.2" cy="127.6" r="2.75"/>
                <circle cx="312.4" cy="250.8" r="2.75"/>
                <circle cx="382.8" cy="385" r="2.75"/>
                <circle cx="266.75" cy="342.65" r="2.75"/>
                <circle cx="150.7" cy="275.55" r="2.75"/>
                <circle cx="143" cy="399.85" r="2.75"/>
                <circle cx="2.75" cy="309.1" r="2.75"/>
                <circle cx="36.85" cy="189.75" r="2.75"/>
                <circle cx="50.6" cy="23.65" r="2.75"/>
                <circle cx="184.25" cy="37.4" r="2.75"/>
                <circle cx="298.65" cy="2.75" r="2.75"/>
                <circle cx="111.1" cy="123.2" r="2.75"/>
                <circle cx="195.25" cy="189.75" r="2.75"/>
            </g>
        </g>
        <g>
            <g stroke="#FFF" stroke-width=".55">
                <path d="M566.5 236.5l147.4 17.545M653.4 594.55L545.6 515.9l-116.05-42.35-116.05-67.1L165.55 440l140.25 90.75-92.675 63.525L165.55 440 35.2 381.7l164.45-61.05-73.15-84.15 86.625-82.225L105.6 75.9" transform="translate(-58 -124) translate(440 440)"/>
                <path d="M126.5 236.5l147.4 17.6 84.15 66.55L475.2 381.7l-161.975 24.475-113.85-85.8M347.05 608.3l-41.25-77.55" transform="translate(-58 -124) translate(440 440)"/>
                <path d="M429.55 473.55L461.45 573.65 545.6 515.9 605.55 440 475.2 381.7 429.55 473.55 305.8 530.75 313.5 406.45 358.05 320.65 440 258.5 566.5 236.5 461.175 133.375 347.05 168.3 305.8 90.75 213.125 154.275 273.9 254.1 199.65 320.65 165.55 440 105.6 515.9 213.4 594.55" transform="translate(-58 -124) translate(440 440)"/>
                <path d="M429.55 33.55l32.175 100.375L545.6 75.9m-70.4 305.8L440 258.5l-166.1-4.4 73.15-85.8m292.6 152.35L440 258.5m-81.95 62.15h-158.4" transform="translate(-58 -124) translate(440 440)"/>
                <path d="M21.45 133.65l191.675 20.625L347.05 168.3 440 258.5l21.175-125.125L653.4 154.55l-86.9 81.95 73.15 84.15L475.2 381.7l70.4 134.2M305.8 90.75l155.375 42.625m.275 440.275l-155.65-42.9M165.55 0l47.85 154.55m-13.75 166.1L0 258.5" transform="translate(-58 -124) translate(440 440)"/>
            </g>
            <g fill="#F9F9F9" fill-rule="nonzero" transform="translate(-58 -124) translate(440 440) translate(162.8 130.9)">
                <circle cx="403.7" cy="105.6" r="2.75"/>
                <circle cx="277.2" cy="127.6" r="2.75"/>
                <circle cx="312.4" cy="250.8" r="2.75"/>
                <circle cx="266.75" cy="342.65" r="2.75"/>
                <circle cx="150.7" cy="275.55" r="2.75"/>
                <circle cx="2.75" cy="309.1" r="2.75"/>
                <circle cx="36.85" cy="189.75" r="2.75"/>
                <circle cx="50.6" cy="23.65" r="2.75"/>
                <circle cx="184.25" cy="37.4" r="2.75"/>
                <circle cx="298.65" cy="2.75" r="2.75"/>
                <circle cx="111.1" cy="123.2" r="2.75"/>
                <circle cx="195.25" cy="189.75" r="2.75"/>
            </g>
        </g>
        <g>
            <g stroke="#FFF" stroke-width=".55">
                <path d="M566.5 236.5l147.4 17.545M653.4 594.55L545.6 515.9l-116.05-42.35-116.05-67.1L165.55 440l140.25 90.75-92.675 63.525L165.55 440 35.2 381.7l164.45-61.05-73.15-84.15 86.625-82.225L105.6 75.9" transform="translate(-58 -124) translate(880 440)"/>
                <path d="M126.5 236.5l147.4 17.6 84.15 66.55L475.2 381.7l-161.975 24.475-113.85-85.8M347.05 608.3l-41.25-77.55" transform="translate(-58 -124) translate(880 440)"/>
                <path d="M429.55 473.55L461.45 573.65 545.6 515.9 605.55 440 475.2 381.7 429.55 473.55 305.8 530.75 313.5 406.45 358.05 320.65 440 258.5 566.5 236.5 461.175 133.375 347.05 168.3 305.8 90.75 213.125 154.275 273.9 254.1 199.65 320.65 165.55 440 105.6 515.9 213.4 594.55" transform="translate(-58 -124) translate(880 440)"/>
                <path d="M429.55 33.55l32.175 100.375L545.6 75.9m-70.4 305.8L440 258.5l-166.1-4.4 73.15-85.8m292.6 152.35L440 258.5m-81.95 62.15h-158.4" transform="translate(-58 -124) translate(880 440)"/>
                <path d="M21.45 133.65l191.675 20.625L347.05 168.3 440 258.5l21.175-125.125L653.4 154.55l-86.9 81.95 73.15 84.15L475.2 381.7l70.4 134.2M305.8 90.75l155.375 42.625m.275 440.275l-155.65-42.9M165.55 0l47.85 154.55m-13.75 166.1L0 258.5" transform="translate(-58 -124) translate(880 440)"/>
            </g>
            <g fill="#F9F9F9" fill-rule="nonzero" transform="translate(-58 -124) translate(880 440) translate(162.8 130.9)">
                <circle cx="403.7" cy="105.6" r="2.75"/>
                <circle cx="277.2" cy="127.6" r="2.75"/>
                <circle cx="312.4" cy="250.8" r="2.75"/>
                <circle cx="266.75" cy="342.65" r="2.75"/>
                <circle cx="150.7" cy="275.55" r="2.75"/>
                <circle cx="2.75" cy="309.1" r="2.75"/>
                <circle cx="36.85" cy="189.75" r="2.75"/>
                <circle cx="50.6" cy="23.65" r="2.75"/>
                <circle cx="184.25" cy="37.4" r="2.75"/>
                <circle cx="298.65" cy="2.75" r="2.75"/>
                <circle cx="111.1" cy="123.2" r="2.75"/>
                <circle cx="195.25" cy="189.75" r="2.75"/>
            </g>
        </g>
    </g>
</svg>
