<svg xmlns="http://www.w3.org/2000/svg" width="305" height="427" viewBox="0 0 305 427" preserveAspectRatio="none"><g><g clip-path="url(#clip-18C6F058-027B-4C5F-BF03-6D6EA5A98327)"><g><path fill="none" stroke="#fff" stroke-miterlimit="20" stroke-width=".5" d="M199.842-11.95c-61.423 0-53.941 23.027-103.634 59.131s-69.28 21.872-88.26 80.29c-18.98 58.417 5.23 58.417 24.213 116.832 18.982 58.415-.607 72.65 49.085 108.753 49.693 36.104 57.175 13.077 118.598 13.077s68.905 23.027 118.597-13.077c49.693-36.103 30.106-50.335 49.086-108.753 18.98-58.417 43.194-58.417 24.213-116.832-18.98-58.416-43.942-36.149-87.4-79.555-43.796-43.74-43.076-59.866-104.498-59.866z"/></g><g><path fill="none" stroke="#fff" stroke-miterlimit="20" stroke-width=".53" d="M202.528-7.07c-60.82 0-53.454 22.673-102.658 58.422-49.204 35.75-68.491 21.738-87.287 79.581-18.796 57.844 5.046 57.844 23.84 115.687 18.793 57.843-.492 71.858 48.712 107.607 49.206 35.75 56.572 13.077 117.393 13.077 60.82 0 68.188 22.672 117.392-13.077 49.206-35.75 29.919-49.761 48.713-107.607 18.793-57.843 42.633-57.843 23.84-115.687-18.794-57.843-43.385-35.877-86.428-78.848C262.69 8.804 263.35-7.07 202.528-7.07z"/></g><g><path fill="none" stroke="#fff" stroke-miterlimit="20" stroke-width=".56" d="M205.212-2.2c-60.218 0-52.967 22.319-101.684 57.716-48.717 35.397-67.705 21.6-86.312 78.872s4.86 57.272 23.467 114.543c18.607 57.272-.378 71.067 48.341 106.462 48.72 35.395 55.97 13.076 116.188 13.076s67.47 22.319 116.188-13.076c48.717-35.395 29.732-49.19 48.341-106.462 18.61-57.271 42.076-57.271 23.467-114.543-18.61-57.272-42.827-35.608-85.456-78.142C264.832 13.418 265.43-2.2 205.212-2.2z"/></g><g><path fill="none" stroke="#fff" stroke-miterlimit="20" stroke-width=".58" d="M207.889 2.68c-59.616 0-52.481 21.964-100.711 57.007S40.264 81.153 21.842 137.85c-18.423 56.698 4.673 56.698 23.096 113.398 18.422 56.7-.263 70.275 47.968 105.316 48.23 35.04 55.367 13.076 114.985 13.076s66.752 21.964 114.985-13.076c48.23-35.041 29.546-48.618 47.968-105.316 18.423-56.698 41.519-56.698 23.096-113.398-18.423-56.7-42.27-35.338-84.483-77.435-42.49-42.37-41.95-57.735-101.568-57.735z"/></g><g><path fill="none" stroke="#fff" stroke-miterlimit="20" stroke-width=".61" d="M210.574 7.55c-59.015 0-51.991 21.612-99.735 56.298-47.744 34.687-66.126 21.331-84.362 77.457-18.237 56.126 4.486 56.126 22.722 112.252s-.146 69.484 47.597 104.17c47.744 34.688 54.765 13.076 113.78 13.076 59.016 0 66.037 21.612 113.781-13.076 47.744-34.689 29.359-48.044 47.597-104.17 18.236-56.126 40.961-56.126 22.723-112.252-18.236-56.126-41.71-35.069-83.51-76.729C269.11 22.663 269.587 7.55 210.574 7.55z"/></g><g><path fill="none" stroke="#fff" stroke-miterlimit="20" stroke-width=".64" d="M213.262 12.42c-58.413 0-51.505 21.258-98.762 55.592S49.16 89.208 31.111 144.76c-18.05 55.552 4.302 55.554 22.352 111.106 18.05 55.552-.033 68.692 47.224 103.024 47.257 34.334 54.162 13.077 112.575 13.077 58.413 0 65.319 21.257 112.576-13.077 47.257-34.334 29.174-47.472 47.224-103.024 18.05-55.552 40.4-55.554 22.351-111.106-18.05-55.552-41.152-34.8-82.536-76.023-41.62-41.457-41.202-56.317-99.615-56.317z"/></g><g><path fill="none" stroke="#fff" stroke-miterlimit="20" stroke-width=".67" d="M215.94 17.29c-57.811 0-51.019 20.903-97.787 54.883-46.768 33.98-64.55 21.062-82.416 76.042-17.865 54.98 4.116 54.98 21.979 109.96 17.862 54.98.082 67.9 46.85 101.878 46.768 33.978 53.56 13.077 111.37 13.077 57.811 0 64.603 20.903 111.371-13.077 46.769-33.98 28.988-46.898 46.851-101.878 17.865-54.98 39.844-54.98 21.979-109.96-17.866-54.98-40.595-34.53-81.563-75.316C273.39 31.897 273.75 17.29 215.939 17.29z"/></g><g><path fill="none" stroke="#fff" stroke-miterlimit="20" stroke-width=".7" d="M218.625 22.17c-57.208 0-50.531 20.549-96.812 54.174C75.53 109.97 58.05 97.27 40.373 151.678c-17.68 54.408 3.928 54.408 21.607 108.814 17.678 54.406.198 67.11 46.48 100.735 46.281 33.625 52.957 13.076 110.165 13.076 57.208 0 63.885 20.549 110.166-13.076 46.282-33.626 28.801-46.327 46.48-100.735s39.286-54.408 21.607-108.814c-17.678-54.409-40.037-34.261-80.592-74.61-40.75-40.546-40.453-54.898-97.66-54.898z"/></g><g><path fill="none" stroke="#fff" stroke-miterlimit="20" stroke-width=".72" d="M221.304 27.04c-56.605 0-50.042 20.195-95.84 53.468-45.796 33.274-62.974 20.79-80.466 74.624-17.492 53.835 3.742 53.835 21.234 107.671 17.492 53.837.312 66.316 46.107 99.59 45.794 33.27 52.357 13.076 108.963 13.076 56.605 0 63.168 20.194 108.963-13.077 45.795-33.27 28.615-45.754 46.107-99.589 17.492-53.834 38.726-53.834 21.234-107.67-17.492-53.835-39.48-33.992-79.619-73.904-40.316-40.09-40.077-54.189-96.683-54.189z"/></g><g><path fill="none" stroke="#fff" stroke-miterlimit="20" stroke-width=".75" d="M223.988 31.92c-56.003 0-49.555 19.843-94.864 52.76-45.308 32.916-62.185 20.655-79.49 73.917-17.306 53.263 3.555 53.263 20.863 106.525 17.307 53.263.427 65.524 45.735 98.443 45.308 32.92 51.756 13.077 107.759 13.077s62.45 19.842 107.758-13.077c45.308-32.919 28.43-45.18 45.736-98.443 17.305-53.262 38.168-53.262 20.863-106.525-17.305-53.262-38.92-33.72-78.645-73.197-39.889-39.636-39.712-53.48-95.715-53.48z"/></g><g><path fill="none" stroke="#fff" stroke-miterlimit="20" stroke-width=".78" d="M226.668 36.79c-55.4 0-49.07 19.488-93.89 52.05-44.822 32.563-61.397 20.521-78.518 73.21-17.121 52.688 3.371 52.688 20.49 105.38 17.119 52.69.543 64.732 45.362 97.296 44.822 32.565 51.153 13.077 106.554 13.077 55.4 0 61.732 19.488 106.553-13.077 44.822-32.564 28.244-44.608 45.363-97.297 17.12-52.688 37.61-52.688 20.49-105.38-17.122-52.69-38.363-33.45-77.672-72.49-39.45-39.178-39.331-52.769-94.732-52.769z"/></g><g><path fill="none" stroke="#fff" stroke-miterlimit="20" stroke-width=".81" d="M229.352 41.66c-54.799 0-48.583 19.134-92.915 51.344-44.333 32.21-60.61 20.384-77.542 72.503-16.932 52.12 3.184 52.117 20.119 104.233 16.934 52.117.657 63.942 44.991 96.152 44.335 32.21 50.55 13.076 105.349 13.076 54.798 0 61.016 19.134 105.349-13.076 44.332-32.21 28.057-44.035 44.991-96.152 16.934-52.116 37.051-52.116 20.119-104.233-16.934-52.117-37.805-33.181-76.7-71.785-39.02-38.726-38.963-52.062-93.761-52.062z"/></g><g><path fill="none" stroke="#fff" stroke-miterlimit="20" stroke-width=".83" d="M232.042 46.53c-54.196 0-48.096 18.78-91.941 50.635-43.846 31.856-59.821 20.25-76.569 71.794-16.748 51.546 2.998 51.546 19.746 103.088 16.748 51.543.772 63.15 44.618 95.006 43.846 31.856 49.948 13.076 104.144 13.076 54.195 0 60.298 18.78 104.143-13.076 43.846-31.856 27.87-43.463 44.619-95.006 16.747-51.545 36.493-51.545 19.745-103.088-16.747-51.545-37.247-32.912-75.727-71.078-38.58-38.265-38.582-51.351-92.778-51.351z"/></g><g><path fill="none" stroke="#fff" stroke-miterlimit="20" stroke-width=".86" d="M234.72 51.41c-53.596 0-47.607 18.425-90.966 49.927-43.36 31.501-59.034 20.116-75.596 71.087-16.56 50.971 2.812 50.971 19.375 101.942 16.564 50.971.889 62.358 44.248 93.862 43.358 31.504 49.345 13.077 102.94 13.077 53.596 0 59.583 18.425 102.942-13.077 43.359-31.501 27.686-42.888 44.247-93.862 16.561-50.97 35.936-50.97 19.375-101.942-16.561-50.97-36.69-32.642-74.754-70.371-38.155-37.812-38.216-50.643-91.812-50.643z"/></g><g><path fill="none" stroke="#fff" stroke-miterlimit="20" stroke-width=".89" d="M237.4 56.28c-52.993 0-47.12 18.07-89.992 49.22-42.873 31.15-58.245 19.98-74.622 70.38-16.377 50.398 2.627 50.398 19.001 100.798 16.375 50.399 1.002 61.566 43.874 92.716 42.873 31.15 48.743 13.076 101.737 13.076 52.993 0 58.864 18.071 101.736-13.076 42.872-31.147 27.5-42.317 43.874-92.716 16.374-50.4 35.378-50.4 19.002-100.799-16.375-50.399-36.133-32.373-73.784-69.665C290.514 68.858 290.391 56.28 237.4 56.28z"/></g><g><path fill="none" stroke="#fff" stroke-miterlimit="20" stroke-width=".92" d="M240.088 61.16c-52.391 0-46.634 17.719-89.02 48.512-42.385 30.792-57.455 19.845-73.646 69.67-16.19 49.825 2.441 49.825 18.631 99.652 16.19 49.828 1.118 60.776 43.503 91.57 42.386 30.796 48.14 13.077 100.532 13.077 52.39 0 58.148 17.719 100.531-13.076s27.313-41.746 43.503-91.57c16.19-49.826 34.819-49.826 18.63-99.653-16.187-49.828-35.574-32.107-72.809-68.96-37.283-36.9-37.465-49.222-89.855-49.222z"/></g><g><path fill="none" stroke="#fff" stroke-miterlimit="20" stroke-width=".94" d="M242.763 66.03c-51.788 0-46.146 17.364-88.043 47.805-41.896 30.441-56.667 19.708-72.67 68.962-16.004 49.253 2.253 49.253 18.257 98.506 16.004 49.254 1.233 59.984 43.13 90.425 41.896 30.44 47.538 13.076 99.326 13.076 51.789 0 57.43 17.365 99.327-13.076 41.897-30.44 27.126-41.171 43.13-90.425 16.003-49.253 34.26-49.253 18.257-98.506-16.003-49.254-35.017-31.837-71.836-68.253C294.795 78.1 294.55 66.03 242.763 66.03z"/></g><g><path fill="none" stroke="#fff" stroke-miterlimit="20" stroke-width=".97" d="M245.454 70.9c-51.186 0-45.66 17.01-87.07 47.096-41.41 30.087-55.88 19.574-71.697 68.253-15.817 48.68 2.067 48.682 17.884 97.361 15.817 48.68 1.347 59.192 42.759 89.279 41.41 30.086 46.938 13.076 98.122 13.076 51.183 0 56.711 17.01 98.121-13.076 41.41-30.087 26.94-40.6 42.76-89.279 15.819-48.68 33.703-48.682 17.883-97.36-15.819-48.68-34.46-31.569-70.865-67.55-36.409-35.985-36.711-47.8-87.897-47.8z"/></g><g><path fill="none" stroke="#fff" stroke-miterlimit="20" d="M248.13 75.78c-50.584 0-45.171 16.656-86.094 46.388-40.924 29.732-55.092 19.438-70.722 67.546-15.63 48.108 1.883 48.108 17.513 96.215 15.63 48.108 1.463 58.401 42.386 88.133 40.923 29.732 46.336 13.077 96.92 13.077 50.583 0 55.995 16.655 96.918-13.077 40.924-29.732 26.756-40.025 42.386-88.133 15.63-48.107 33.143-48.107 17.513-96.215-15.63-48.108-33.902-31.298-69.892-66.842-35.98-35.53-36.345-47.092-86.928-47.092z"/></g><g><path fill="none" stroke="#fff" stroke-miterlimit="20" stroke-width="1.03" d="M250.812 80.65c-49.981 0-44.684 16.301-85.12 45.681-40.437 29.38-54.303 19.304-69.749 66.838-15.446 47.533 1.696 47.536 17.14 95.07 15.444 47.533 1.578 57.609 42.015 86.989 40.436 29.377 45.733 13.076 95.714 13.076s55.278 16.301 95.714-13.076c40.437-29.378 26.569-39.454 42.015-86.99 15.446-47.536 32.586-47.536 17.14-95.07-15.446-47.533-33.344-31.028-68.919-66.135-35.546-35.074-35.969-46.383-85.95-46.383z"/></g><g><path fill="none" stroke="#fff" stroke-miterlimit="20" stroke-width="1.05" d="M253.501 85.52c-49.379 0-44.198 15.947-84.145 44.973-39.948 29.025-53.516 19.167-68.775 66.13-15.26 46.965 1.51 46.962 16.77 93.927 15.259 46.964 1.693 56.818 41.64 85.843 39.948 29.026 45.131 13.077 94.51 13.077 49.379 0 54.562 15.947 94.51-13.077 39.947-29.023 26.381-38.88 41.64-85.843 15.26-46.965 32.03-46.962 16.77-93.926-15.26-46.964-32.787-30.76-67.948-65.43-35.11-34.62-35.591-45.674-84.972-45.674z"/></g><g><path fill="none" stroke="#fff" stroke-miterlimit="20" stroke-width="1.08" d="M256.18 90.4c-48.776 0-43.71 15.595-83.171 44.264-39.461 28.669-52.727 19.032-67.8 65.422-15.072 46.39 1.324 46.39 16.396 92.78 15.073 46.39 1.808 56.027 41.268 84.698 39.461 28.672 44.529 13.077 93.305 13.077s53.844 15.595 93.305-13.077c39.46-28.671 26.195-38.308 41.27-84.698 15.075-46.39 31.469-46.39 16.396-92.78s-32.23-30.49-66.975-64.723C305.498 101.2 304.957 90.4 256.18 90.4z"/></g><g><path fill="none" stroke="#fff" stroke-miterlimit="20" stroke-width="1.11" d="M258.863 95.27c-48.174 0-43.222 15.24-82.198 43.557-38.977 28.317-51.938 18.898-66.826 64.714-14.889 45.816 1.139 45.816 16.025 91.634 14.886 45.819 1.923 55.236 40.897 83.552 38.974 28.317 43.926 13.077 92.102 13.077s53.126 15.24 92.102-13.077c38.974-28.316 26.011-37.736 40.897-83.552 14.886-45.816 30.911-45.816 16.025-91.634-14.886-45.818-31.671-30.223-66.003-64.019-34.245-33.706-34.845-44.252-83.02-44.252z"/></g><g><path fill="none" stroke="#fff" stroke-miterlimit="20" stroke-width="1.14" d="M261.543 100.14c-47.574 0-42.735 14.886-81.223 42.849-38.487 27.962-51.15 18.76-65.852 64.007-14.702 45.246.952 45.244 15.652 90.488 14.7 45.245 2.038 54.444 40.524 82.407 38.487 27.962 43.323 13.076 90.897 13.076 47.573 0 52.41 14.886 90.897-13.076 38.487-27.963 25.824-37.162 40.524-82.407 14.7-45.244 30.353-45.244 15.651-90.488-14.701-45.244-31.114-29.954-65.03-63.313-33.807-33.252-34.469-43.543-82.04-43.543z"/></g><g><path fill="none" stroke="#fff" stroke-miterlimit="20" stroke-width="1.17" d="M264.223 105.02c-46.97 0-42.248 14.532-80.249 42.14-38 27.608-50.361 18.628-64.877 63.298-14.515 44.67.766 44.673 15.281 89.343s2.152 53.652 40.153 81.26c38.001 27.609 42.721 13.077 89.692 13.077 46.972 0 51.692 14.532 89.693-13.076 38-27.609 25.638-36.59 40.153-81.261 14.515-44.67 29.796-44.672 15.28-89.343-14.515-44.67-30.556-29.684-64.059-62.606-33.375-32.796-34.095-42.832-81.067-42.832z"/></g><g><path fill="none" stroke="#fff" stroke-miterlimit="20" stroke-width="1.19" d="M266.915 109.89c-46.368 0-41.762 14.177-79.273 41.434-37.512 27.256-49.573 18.49-63.904 62.59-14.33 44.098.58 44.098 14.908 88.196 14.328 44.099 2.268 52.861 39.78 80.117 37.511 27.256 42.118 13.077 88.487 13.077 46.369 0 50.976 14.177 88.487-13.077 37.512-27.254 25.452-36.016 39.78-80.117 14.329-44.1 29.236-44.098 14.908-88.197-14.329-44.098-30-29.418-63.086-61.902-32.94-32.338-33.72-42.121-80.087-42.121z"/></g><g><path fill="none" stroke="#fff" stroke-miterlimit="20" stroke-width="1.22" d="M269.595 114.76c-45.766 0-41.275 13.825-78.3 40.725-37.025 26.9-48.786 18.356-62.928 61.883-14.141 43.527.393 43.527 14.537 87.053 14.144 43.527 2.384 52.07 39.409 78.972 37.025 26.902 41.516 13.076 87.282 13.076 45.767 0 50.258 13.826 87.283-13.076s25.267-35.445 39.409-78.972c14.142-43.526 28.678-43.526 14.536-87.053-14.142-43.527-29.441-29.148-62.115-61.196-32.508-31.884-33.346-41.412-79.113-41.412z"/></g><g><path fill="none" stroke="#fff" stroke-miterlimit="20" stroke-width="1.25" d="M272.278 119.64c-45.164 0-40.787 13.471-77.325 40.016-36.538 26.545-47.997 18.222-61.954 61.175-13.958 42.952.208 42.952 14.163 85.907s2.497 51.278 39.036 77.826c36.538 26.547 40.916 13.076 86.08 13.076 45.163 0 49.541 13.471 86.08-13.076 36.538-26.548 25.08-34.873 39.035-77.826 13.955-42.952 28.121-42.952 14.163-85.907-13.957-42.955-28.884-28.882-61.143-60.49-32.074-31.428-32.972-40.701-78.135-40.701z"/></g><g><path fill="none" stroke="#fff" stroke-miterlimit="20" stroke-width="1.28" d="M274.958 124.51c-44.561 0-40.3 13.117-76.35 39.31-36.053 26.193-47.21 18.087-60.98 60.468-13.768 42.38.022 42.38 13.793 84.762 13.771 42.38 2.613 50.486 38.665 76.68 36.051 26.192 40.313 13.076 84.875 13.076 44.561 0 48.823 13.116 84.875-13.077 36.052-26.193 24.894-34.299 38.665-76.68 13.77-42.38 27.56-42.38 13.792-84.761-13.771-42.381-28.326-28.612-60.17-59.786-31.646-30.974-32.603-39.992-77.165-39.992z"/></g><g><path fill="none" stroke="#fff" stroke-miterlimit="20" stroke-width="1.3" d="M277.644 129.39c-43.959 0-39.813 12.762-75.378 38.6-35.565 25.84-46.42 17.951-60.005 59.76-13.584 41.81-.165 41.81 13.42 83.616 13.584 41.81 2.728 49.695 38.29 75.534 35.563 25.839 39.712 13.077 83.671 13.077s48.105 12.762 83.67-13.077c35.565-25.839 24.707-33.727 38.292-75.534 13.584-41.807 27.003-41.809 13.419-83.616-13.585-41.806-27.772-28.343-59.2-59.079-31.204-30.518-32.22-39.281-76.179-39.281z"/></g><g><path fill="none" stroke="#fff" stroke-miterlimit="20" stroke-width="1.33" d="M280.325 134.26c-43.357 0-39.326 12.408-74.402 37.892s-45.632 17.816-59.03 59.05c-13.398 41.236-.352 41.236 13.048 82.471 13.4 41.235 2.842 48.904 37.92 74.388 35.08 25.484 39.11 13.076 82.466 13.076 43.357 0 47.39 12.408 82.466-13.076 35.076-25.484 24.522-33.153 37.92-74.388 13.398-41.235 26.446-41.235 13.048-82.47-13.398-41.235-27.213-28.076-58.228-58.375-30.777-30.06-31.852-38.568-75.208-38.568z"/></g><g><path fill="none" stroke="#fff" stroke-miterlimit="20" stroke-width="1.36" d="M283.01 139.13c-42.754 0-38.84 12.053-73.429 37.186-34.589 25.132-44.845 17.68-58.056 58.344-13.21 40.663-.536 40.663 12.675 81.324 13.211 40.664 2.958 48.113 37.547 73.245 34.59 25.13 38.507 13.076 81.26 13.076 42.755 0 46.672 12.054 81.261-13.076 34.59-25.13 24.337-32.581 37.548-73.245 13.21-40.663 25.886-40.663 12.674-81.324-13.21-40.66-26.656-27.809-57.255-57.669-30.337-29.606-31.47-37.861-74.225-37.861z"/></g><g><path fill="none" stroke="#fff" stroke-miterlimit="20" stroke-width="1.39" d="M285.685 144c-42.154 0-38.35 11.701-72.453 36.477-34.103 24.776-44.056 17.546-57.083 57.636-13.026 40.089-.723 40.089 12.302 80.18 13.027 40.09 3.074 47.321 37.176 72.1 34.103 24.777 37.904 13.076 80.058 13.076s45.956 11.701 80.058-13.077c34.103-24.778 24.15-32.007 37.177-72.099 13.026-40.089 25.328-40.089 12.301-80.18-13.027-40.09-26.1-27.54-56.284-56.965C329.03 151.999 327.839 144 285.685 144z"/></g><g><path fill="none" stroke="#fff" stroke-miterlimit="20" stroke-width="1.41" d="M288.37 148.88c-41.552 0-37.864 11.347-71.48 35.77-33.616 24.424-43.267 17.41-56.107 56.927-12.84 39.518-.91 39.518 11.93 79.035 12.84 39.518 3.188 46.53 36.804 70.953 33.616 24.424 37.301 13.077 78.853 13.077 41.551 0 45.237 11.347 78.853-13.077 33.616-24.423 23.963-31.435 36.803-70.953 12.84-39.517 24.77-39.517 11.93-79.035-12.84-39.517-25.543-27.272-55.313-56.258-29.47-28.695-30.722-36.439-72.273-36.439z"/></g><g><path fill="none" stroke="#fff" stroke-miterlimit="20" stroke-width="1.44" d="M291.055 153.75c-40.95 0-37.377 10.993-70.504 35.062-33.127 24.069-42.48 17.274-55.134 56.22-12.653 38.944-1.096 38.944 11.558 77.89 12.653 38.945 3.302 45.738 36.432 69.807 33.129 24.069 36.699 13.076 77.648 13.076 40.95 0 44.521 10.993 77.648-13.076 33.127-24.07 23.776-30.864 36.432-69.807 12.654-38.944 24.214-38.944 11.558-77.89-12.656-38.946-24.986-27.005-54.343-55.554-29.037-28.239-30.346-35.728-71.295-35.728z"/></g><g><path fill="none" stroke="#fff" stroke-miterlimit="20" stroke-width="1.47" d="M293.73 158.63c-40.347 0-36.89 10.638-69.53 34.353-32.64 23.715-41.692 17.14-54.158 55.512-12.467 38.372-1.28 38.372 11.186 76.743 12.467 38.372 3.419 44.947 36.059 68.662 32.64 23.714 36.096 13.076 76.443 13.076s43.803 10.638 76.444-13.076c32.64-23.715 23.592-30.29 36.059-68.662 12.466-38.371 23.653-38.371 11.186-76.743-12.467-38.372-24.43-26.737-53.371-54.848-28.603-27.785-29.971-35.017-70.318-35.017z"/></g><g><path fill="none" stroke="#fff" stroke-miterlimit="20" stroke-width="1.5" d="M296.42 163.5c-39.744 0-36.401 10.284-68.557 33.647-32.156 23.362-40.902 17.005-53.185 54.803-12.282 37.797-1.467 37.8 10.813 75.597 12.28 37.798 3.532 44.155 35.686 67.516 32.154 23.36 35.497 13.076 75.24 13.076 39.745 0 43.086 10.284 75.242-13.076 32.153-23.36 23.405-29.718 35.685-67.516 12.283-37.8 23.096-37.8 10.813-75.597-12.282-37.8-23.873-26.47-52.4-54.144-28.166-27.33-29.592-34.306-69.337-34.306z"/></g><g><path fill="none" stroke="#fff" stroke-miterlimit="20" stroke-width="1.52" d="M299.104 168.37c-39.142 0-35.915 9.93-67.582 32.938-31.667 23.008-40.115 16.87-52.209 54.097-12.093 37.225-1.653 37.225 10.443 74.451 12.096 37.226 3.647 43.364 35.314 66.372 31.667 23.006 34.894 13.077 74.036 13.077s42.37 9.932 74.036-13.077c31.667-23.006 23.219-29.143 35.315-66.372 12.096-37.226 22.538-37.226 10.442-74.452-12.096-37.225-23.318-26.202-51.429-53.44-27.738-26.875-29.224-33.594-68.366-33.594z"/></g><g><path fill="none" stroke="#fff" stroke-miterlimit="20" stroke-width="1.55" d="M301.785 173.25c-38.54 0-35.428 9.578-66.608 32.23-31.18 22.65-39.326 16.733-51.235 53.387-11.91 36.654-1.84 36.654 10.069 73.308 11.909 36.655 3.763 42.573 34.94 65.227 31.179 22.654 34.293 13.076 72.832 13.076 38.54 0 41.65 9.578 72.831-13.076 31.18-22.654 23.032-28.572 34.942-65.227 11.909-36.654 21.978-36.654 10.069-73.308-11.91-36.654-22.76-25.936-50.459-52.736-27.298-26.415-28.841-32.881-67.38-32.881z"/></g><g><path fill="none" stroke="#fff" stroke-miterlimit="20" stroke-width="1.58" d="M304.464 178.12c-37.937 0-34.941 9.223-65.632 31.523-30.692 22.3-38.538 16.599-50.263 52.679-11.722 36.08-2.027 36.08 9.698 72.162 11.723 36.08 3.877 41.781 34.57 64.08 30.692 22.3 33.69 13.077 71.627 13.077s40.935 9.224 71.626-13.076c30.692-22.3 22.848-28 34.571-64.08 11.723-36.08 21.42-36.08 9.698-72.163-11.723-36.08-22.205-25.669-49.487-52.03-26.869-25.961-28.468-32.172-66.408-32.172z"/></g><g><path fill="none" stroke="#fff" stroke-miterlimit="20" stroke-width="1.61" d="M307.153 182.99c-37.334 0-34.454 8.869-64.659 30.814-30.204 21.945-37.75 16.464-49.286 51.973-11.536 35.508-2.212 35.508 9.325 71.016 11.538 35.509 3.992 40.99 34.197 62.935 30.204 21.945 33.087 13.077 70.421 13.077 37.335 0 40.217 8.868 70.422-13.077 30.204-21.945 22.66-27.426 34.197-62.935 11.538-35.508 20.863-35.508 9.324-71.016-11.538-35.509-21.647-25.402-48.516-51.326-26.431-25.507-28.09-31.461-65.425-31.461z"/></g><g><path fill="none" stroke="#fff" stroke-miterlimit="20" stroke-width="1.64" d="M309.825 187.87c-36.734 0-33.965 8.514-63.683 30.105-29.718 21.591-36.962 16.33-48.313 51.264-11.352 34.937-2.398 34.937 8.953 69.871 11.352 34.937 4.109 40.198 33.827 61.789 29.718 21.59 32.484 13.076 69.219 13.076 36.734 0 39.5 8.515 69.218-13.076 29.718-21.59 22.475-26.855 33.827-61.789 11.352-34.936 20.303-34.936 8.954-69.87-11.35-34.935-21.093-25.135-47.546-50.622-26.006-25.052-27.721-30.748-64.456-30.748z"/></g><g><path fill="none" stroke="#fff" stroke-miterlimit="20" stroke-width="1.66" d="M312.517 192.74c-36.132 0-33.48 8.16-62.71 29.399-29.231 21.239-36.173 16.193-47.338 50.557-11.165 34.363-2.584 34.363 8.58 68.726 11.166 34.362 4.225 39.406 33.454 60.643 29.229 21.236 31.882 13.076 68.014 13.076 36.132 0 38.783 8.16 68.014-13.076 29.231-21.237 22.288-26.28 33.453-60.643 11.165-34.363 19.746-34.363 8.58-68.726-11.165-34.362-20.537-24.867-46.574-49.917-25.571-24.6-27.343-30.039-63.473-30.039z"/></g><g><path fill="none" stroke="#fff" stroke-miterlimit="20" stroke-width="1.69" d="M315.192 197.61c-35.53 0-32.992 7.808-61.737 28.69-28.744 20.882-35.385 16.058-46.364 49.849-10.978 33.79-2.771 33.79 8.21 67.58 10.978 33.79 4.337 38.614 33.082 59.499 28.744 20.884 31.28 13.076 66.809 13.076 35.53 0 38.065 7.808 66.81-13.076 28.744-20.885 22.103-25.709 33.081-59.5 10.979-33.79 19.188-33.79 8.21-67.579-10.979-33.789-19.982-24.603-45.606-49.213-25.137-24.145-26.965-29.326-62.495-29.326z"/></g><g><path fill="none" stroke="#fff" stroke-miterlimit="20" stroke-width="1.72" d="M317.883 202.49c-34.927 0-32.505 7.454-60.761 27.981-28.255 20.528-34.596 15.924-45.388 49.14-10.792 33.217-2.956 33.217 7.836 66.436 10.792 33.217 4.453 37.824 32.709 58.354 28.255 20.53 30.677 13.076 65.604 13.076s37.349 7.454 65.604-13.076c28.256-20.53 21.917-25.135 32.71-58.354 10.791-33.219 18.63-33.216 7.836-66.436-10.795-33.219-19.425-24.336-44.635-48.509-24.702-23.684-26.59-28.612-61.515-28.612z"/></g><g><path fill="none" stroke="#fff" stroke-miterlimit="20" stroke-width="1.75" d="M320.562 207.36c-34.325 0-32.02 7.1-59.788 27.275-27.769 20.176-33.807 15.789-44.415 48.434-10.608 32.645-3.142 32.645 7.465 65.29 10.608 32.645 4.57 37.032 32.338 57.208 27.77 20.175 30.077 13.076 64.4 13.076 34.322 0 36.63 7.1 64.4-13.076 27.768-20.176 21.73-24.563 32.337-57.208 10.608-32.645 18.07-32.645 7.466-65.29-10.608-32.645-18.87-24.072-43.667-47.806-24.267-23.232-26.211-27.903-60.536-27.903z"/></g><g><path fill="none" stroke="#fff" stroke-miterlimit="20" stroke-width="1.77" d="M323.248 212.23c-33.722 0-31.53 6.745-58.812 26.566-27.282 19.822-33.02 15.654-43.441 47.725s-3.33 32.071 7.092 64.144c10.42 32.071 4.682 36.241 31.965 56.063 27.282 19.82 29.474 13.076 63.196 13.076 33.723 0 35.915 6.745 63.197-13.076 27.282-19.822 21.544-23.992 31.965-56.063 10.42-32.07 17.513-32.07 7.092-64.144-10.42-32.073-18.314-23.804-42.695-47.103-23.838-22.775-25.836-27.188-59.559-27.188z"/></g><g><path fill="none" stroke="#fff" stroke-miterlimit="20" stroke-width="1.8" d="M325.927 217.11c-33.12 0-31.044 6.39-57.84 25.86-26.795 19.47-32.23 15.517-42.465 47.016-10.234 31.5-3.516 31.5 6.719 62.998 10.234 31.5 4.798 35.45 31.594 54.917 26.795 19.467 28.872 13.076 61.992 13.076s35.196 6.39 61.992-13.076c26.795-19.467 21.357-23.417 31.593-54.917 10.237-31.499 16.956-31.499 6.72-62.998-10.235-31.5-17.76-23.54-41.727-46.4-23.4-22.323-25.459-26.476-58.578-26.476z"/></g><g><path fill="none" stroke="#fff" stroke-miterlimit="20" stroke-width="1.83" d="M328.606 221.98c-32.518 0-30.557 6.036-56.863 25.151-26.307 19.115-31.443 15.382-41.493 46.31-10.048 30.927-3.7 30.927 6.348 61.853 10.048 30.927 4.914 34.657 31.22 53.77 26.307 19.113 28.27 13.076 60.788 13.076 32.517 0 34.48 6.037 60.787-13.076 26.306-19.113 21.172-22.845 31.22-53.77 10.048-30.928 16.396-30.928 6.348-61.853-10.048-30.928-17.206-23.273-40.755-45.696-22.969-21.87-25.08-25.765-57.6-25.765z"/></g><g><path fill="none" stroke="#fff" stroke-miterlimit="20" stroke-width="1.86" d="M331.287 226.86c-31.915 0-30.07 5.684-55.89 24.442-25.82 18.759-30.655 15.248-40.516 45.601-9.862 30.354-3.887 30.354 5.974 60.707 9.864 30.354 5.028 33.867 30.85 52.627 25.82 18.76 27.667 13.077 59.582 13.077s33.763 5.684 59.582-13.077c25.82-18.76 20.986-22.271 30.85-52.627 9.863-30.353 15.838-30.353 5.975-60.707-9.864-30.353-16.651-23.008-39.787-44.993-22.534-21.412-24.705-25.05-56.62-25.05z"/></g><g><path fill="none" stroke="#fff" stroke-miterlimit="20" stroke-width="1.88" d="M333.974 231.73c-31.313 0-29.584 5.33-54.917 23.736-25.333 18.406-29.866 15.113-39.543 44.892-9.677 29.78-4.073 29.782 5.604 59.561 9.676 29.78 5.143 33.075 30.476 51.481 25.333 18.407 27.065 13.077 58.38 13.077 31.312 0 33.044 5.33 58.38-13.077 25.332-18.406 20.799-21.7 30.476-51.48 9.676-29.782 15.28-29.782 5.603-59.562-9.676-29.78-16.095-22.744-38.818-44.29-22.1-20.957-24.326-24.338-55.641-24.338z"/></g><g><path fill="none" stroke="#fff" stroke-miterlimit="20" stroke-width="1.91" d="M336.657 236.6c-30.713 0-29.095 4.975-53.941 23.027-24.846 18.052-29.078 14.976-38.568 44.186-9.49 29.208-4.26 29.208 5.23 58.418 9.491 29.207 5.26 32.283 30.106 50.335 24.847 18.052 26.462 13.077 57.175 13.077 30.712 0 32.328 4.975 57.175-13.077 24.846-18.052 20.613-21.128 30.105-50.335 9.49-29.208 14.72-29.208 5.23-58.418s-15.54-22.48-37.849-43.588c-21.671-20.502-23.953-23.625-54.663-23.625z"/></g></g></g></svg>