<svg xmlns="http://www.w3.org/2000/svg" width="768" height="681" viewBox="0 0 768 681" preserveAspectRatio="none">
    <defs>
        <linearGradient id="62h70arsaa" x1="53.174%" x2="33.476%" y1="75.526%" y2="98.978%">
            <stop offset="0%" stop-color="#F8F8F8" stop-opacity=".25"/>
            <stop offset="100%" stop-color="#F8F8F8"/>
        </linearGradient>
        <linearGradient id="x238pju1nb" x1="53.174%" x2="33.476%" y1="75.527%" y2="98.982%">
            <stop offset="0%" stop-color="#F8F8F8" stop-opacity=".25"/>
            <stop offset="100%" stop-color="#F8F8F8"/>
        </linearGradient>
        <linearGradient id="5pk11ry49c" x1="53.174%" x2="33.476%" y1="75.53%" y2="98.986%">
            <stop offset="0%" stop-color="#F8F8F8" stop-opacity=".25"/>
            <stop offset="100%" stop-color="#F8F8F8"/>
        </linearGradient>
        <linearGradient id="eiaks3axtd" x1="53.174%" x2="33.476%" y1="75.53%" y2="98.987%">
            <stop offset="0%" stop-color="#F8F8F8" stop-opacity=".25"/>
            <stop offset="100%" stop-color="#F8F8F8"/>
        </linearGradient>
        <linearGradient id="0mkk92rg0e" x1="53.174%" x2="33.476%" y1="75.532%" y2="98.991%">
            <stop offset="0%" stop-color="#F8F8F8" stop-opacity=".25"/>
            <stop offset="100%" stop-color="#F8F8F8"/>
        </linearGradient>
        <linearGradient id="mbzmm1yehf" x1="53.174%" x2="33.476%" y1="75.534%" y2="98.995%">
            <stop offset="0%" stop-color="#F8F8F8" stop-opacity=".25"/>
            <stop offset="100%" stop-color="#F8F8F8"/>
        </linearGradient>
        <linearGradient id="m0t4oct1fg" x1="53.174%" x2="33.476%" y1="75.536%" y2="98.999%">
            <stop offset="0%" stop-color="#F8F8F8" stop-opacity=".25"/>
            <stop offset="100%" stop-color="#F8F8F8"/>
        </linearGradient>
        <linearGradient id="7je5qw0zdh" x1="53.174%" x2="33.476%" y1="75.538%" y2="99.002%">
            <stop offset="0%" stop-color="#F8F8F8" stop-opacity=".25"/>
            <stop offset="100%" stop-color="#F8F8F8"/>
        </linearGradient>
        <linearGradient id="zaof1vkvti" x1="53.174%" x2="33.476%" y1="75.54%" y2="99.006%">
            <stop offset="0%" stop-color="#F8F8F8" stop-opacity=".25"/>
            <stop offset="100%" stop-color="#F8F8F8"/>
        </linearGradient>
        <linearGradient id="2bqmkv44bj" x1="53.174%" x2="33.476%" y1="75.542%" y2="99.009%">
            <stop offset="0%" stop-color="#F8F8F8" stop-opacity=".25"/>
            <stop offset="100%" stop-color="#F8F8F8"/>
        </linearGradient>
        <linearGradient id="xaj2qaosek" x1="53.174%" x2="33.476%" y1="75.544%" y2="99.013%">
            <stop offset="0%" stop-color="#F8F8F8" stop-opacity=".25"/>
            <stop offset="100%" stop-color="#F8F8F8"/>
        </linearGradient>
        <linearGradient id="faz4hn11bl" x1="53.174%" x2="33.476%" y1="75.546%" y2="99.017%">
            <stop offset="0%" stop-color="#F8F8F8" stop-opacity=".25"/>
            <stop offset="100%" stop-color="#F8F8F8"/>
        </linearGradient>
        <linearGradient id="zwl2iacizm" x1="53.174%" x2="33.476%" y1="75.548%" y2="99.022%">
            <stop offset="0%" stop-color="#F8F8F8" stop-opacity=".25"/>
            <stop offset="100%" stop-color="#F8F8F8"/>
        </linearGradient>
        <linearGradient id="fd4qiz7qan" x1="53.174%" x2="33.476%" y1="75.55%" y2="99.024%">
            <stop offset="0%" stop-color="#F8F8F8" stop-opacity=".25"/>
            <stop offset="100%" stop-color="#F8F8F8"/>
        </linearGradient>
        <linearGradient id="qcoecao78o" x1="53.174%" x2="33.476%" y1="75.553%" y2="99.03%">
            <stop offset="0%" stop-color="#F8F8F8" stop-opacity=".25"/>
            <stop offset="100%" stop-color="#F8F8F8"/>
        </linearGradient>
        <linearGradient id="9p39e1un6p" x1="53.174%" x2="33.476%" y1="75.554%" y2="99.033%">
            <stop offset="0%" stop-color="#F8F8F8" stop-opacity=".25"/>
            <stop offset="100%" stop-color="#F8F8F8"/>
        </linearGradient>
        <linearGradient id="xperadumgq" x1="53.174%" x2="33.476%" y1="75.557%" y2="99.039%">
            <stop offset="0%" stop-color="#F8F8F8" stop-opacity=".25"/>
            <stop offset="100%" stop-color="#F8F8F8"/>
        </linearGradient>
        <linearGradient id="jhez3thi3r" x1="53.174%" x2="33.476%" y1="75.559%" y2="99.042%">
            <stop offset="0%" stop-color="#F8F8F8" stop-opacity=".25"/>
            <stop offset="100%" stop-color="#F8F8F8"/>
        </linearGradient>
        <linearGradient id="02jmlld02s" x1="53.174%" x2="33.476%" y1="75.561%" y2="99.046%">
            <stop offset="0%" stop-color="#F8F8F8" stop-opacity=".25"/>
            <stop offset="100%" stop-color="#F8F8F8"/>
        </linearGradient>
        <linearGradient id="miqnpr4n2t" x1="53.174%" x2="33.476%" y1="75.564%" y2="99.051%">
            <stop offset="0%" stop-color="#F8F8F8" stop-opacity=".25"/>
            <stop offset="100%" stop-color="#F8F8F8"/>
        </linearGradient>
        <linearGradient id="odwm2jqr2u" x1="53.174%" x2="33.476%" y1="75.567%" y2="99.058%">
            <stop offset="0%" stop-color="#F8F8F8" stop-opacity=".25"/>
            <stop offset="100%" stop-color="#F8F8F8"/>
        </linearGradient>
        <linearGradient id="ejoecvhn2v" x1="53.174%" x2="33.476%" y1="75.57%" y2="99.063%">
            <stop offset="0%" stop-color="#F8F8F8" stop-opacity=".25"/>
            <stop offset="100%" stop-color="#F8F8F8"/>
        </linearGradient>
        <linearGradient id="l8a2fwmq4w" x1="53.174%" x2="33.476%" y1="75.571%" y2="99.066%">
            <stop offset="0%" stop-color="#F8F8F8" stop-opacity=".25"/>
            <stop offset="100%" stop-color="#F8F8F8"/>
        </linearGradient>
        <linearGradient id="tyiqbyntgx" x1="53.174%" x2="33.476%" y1="75.575%" y2="99.072%">
            <stop offset="0%" stop-color="#F8F8F8" stop-opacity=".25"/>
            <stop offset="100%" stop-color="#F8F8F8"/>
        </linearGradient>
        <linearGradient id="ovs3dl7iuy" x1="53.174%" x2="33.476%" y1="75.576%" y2="99.076%">
            <stop offset="0%" stop-color="#F8F8F8" stop-opacity=".25"/>
            <stop offset="100%" stop-color="#F8F8F8"/>
        </linearGradient>
        <linearGradient id="qi1filygiz" x1="53.174%" x2="33.476%" y1="75.581%" y2="99.084%">
            <stop offset="0%" stop-color="#F8F8F8" stop-opacity=".25"/>
            <stop offset="100%" stop-color="#F8F8F8"/>
        </linearGradient>
        <linearGradient id="wl6x2lgqqA" x1="53.174%" x2="33.476%" y1="75.584%" y2="99.09%">
            <stop offset="0%" stop-color="#F8F8F8" stop-opacity=".25"/>
            <stop offset="100%" stop-color="#F8F8F8"/>
        </linearGradient>
        <linearGradient id="pz7bshhrfB" x1="53.174%" x2="33.476%" y1="75.586%" y2="99.094%">
            <stop offset="0%" stop-color="#F8F8F8" stop-opacity=".25"/>
            <stop offset="100%" stop-color="#F8F8F8"/>
        </linearGradient>
        <linearGradient id="jd1ngjiduC" x1="53.174%" x2="33.476%" y1="75.589%" y2="99.1%">
            <stop offset="0%" stop-color="#F8F8F8" stop-opacity=".25"/>
            <stop offset="100%" stop-color="#F8F8F8"/>
        </linearGradient>
        <linearGradient id="p2gnej7vrD" x1="53.174%" x2="33.476%" y1="75.593%" y2="99.107%">
            <stop offset="0%" stop-color="#F8F8F8" stop-opacity=".25"/>
            <stop offset="100%" stop-color="#F8F8F8"/>
        </linearGradient>
        <linearGradient id="x21r6z4atE" x1="53.174%" x2="33.476%" y1="75.595%" y2="99.111%">
            <stop offset="0%" stop-color="#F8F8F8" stop-opacity=".25"/>
            <stop offset="100%" stop-color="#F8F8F8"/>
        </linearGradient>
        <linearGradient id="339iapz47F" x1="53.174%" x2="33.476%" y1="75.6%" y2="99.122%">
            <stop offset="0%" stop-color="#F8F8F8" stop-opacity=".25"/>
            <stop offset="100%" stop-color="#F8F8F8"/>
        </linearGradient>
        <linearGradient id="f2tgrq8ygG" x1="53.174%" x2="33.476%" y1="75.603%" y2="99.126%">
            <stop offset="0%" stop-color="#F8F8F8" stop-opacity=".25"/>
            <stop offset="100%" stop-color="#F8F8F8"/>
        </linearGradient>
        <linearGradient id="dyjiei7vxH" x1="53.174%" x2="33.476%" y1="75.607%" y2="99.134%">
            <stop offset="0%" stop-color="#F8F8F8" stop-opacity=".25"/>
            <stop offset="100%" stop-color="#F8F8F8"/>
        </linearGradient>
        <linearGradient id="wi68gn8nmI" x1="53.174%" x2="33.476%" y1="75.61%" y2="99.141%">
            <stop offset="0%" stop-color="#F8F8F8" stop-opacity=".25"/>
            <stop offset="100%" stop-color="#F8F8F8"/>
        </linearGradient>
        <linearGradient id="v0hlh0so6J" x1="53.174%" x2="33.476%" y1="75.614%" y2="99.148%">
            <stop offset="0%" stop-color="#F8F8F8" stop-opacity=".25"/>
            <stop offset="100%" stop-color="#F8F8F8"/>
        </linearGradient>
        <linearGradient id="otf01i6c0K" x1="53.174%" x2="33.476%" y1="75.618%" y2="99.155%">
            <stop offset="0%" stop-color="#F8F8F8" stop-opacity=".25"/>
            <stop offset="100%" stop-color="#F8F8F8"/>
        </linearGradient>
        <linearGradient id="xeyhwdkmcL" x1="53.174%" x2="33.476%" y1="75.622%" y2="99.163%">
            <stop offset="0%" stop-color="#F8F8F8" stop-opacity=".25"/>
            <stop offset="100%" stop-color="#F8F8F8"/>
        </linearGradient>
        <linearGradient id="57ricrozkM" x1="53.174%" x2="33.476%" y1="75.627%" y2="99.173%">
            <stop offset="0%" stop-color="#F8F8F8" stop-opacity=".25"/>
            <stop offset="100%" stop-color="#F8F8F8"/>
        </linearGradient>
        <linearGradient id="riv36k2h3N" x1="53.174%" x2="33.476%" y1="75.631%" y2="99.18%">
            <stop offset="0%" stop-color="#F8F8F8" stop-opacity=".25"/>
            <stop offset="100%" stop-color="#F8F8F8"/>
        </linearGradient>
        <linearGradient id="qh206grqhO" x1="53.174%" x2="33.476%" y1="75.636%" y2="99.191%">
            <stop offset="0%" stop-color="#F8F8F8" stop-opacity=".25"/>
            <stop offset="100%" stop-color="#F8F8F8"/>
        </linearGradient>
        <linearGradient id="sgre9iba7P" x1="53.174%" x2="33.476%" y1="75.639%" y2="99.195%">
            <stop offset="0%" stop-color="#F8F8F8" stop-opacity=".25"/>
            <stop offset="100%" stop-color="#F8F8F8"/>
        </linearGradient>
        <linearGradient id="rnrm2wbzqQ" x1="53.174%" x2="33.476%" y1="75.645%" y2="99.207%">
            <stop offset="0%" stop-color="#F8F8F8" stop-opacity=".25"/>
            <stop offset="100%" stop-color="#F8F8F8"/>
        </linearGradient>
        <linearGradient id="s54zosxn2R" x1="53.174%" x2="33.476%" y1="75.649%" y2="99.216%">
            <stop offset="0%" stop-color="#F8F8F8" stop-opacity=".25"/>
            <stop offset="100%" stop-color="#F8F8F8"/>
        </linearGradient>
        <linearGradient id="413vbj9rwS" x1="53.174%" x2="33.476%" y1="75.656%" y2="99.228%">
            <stop offset="0%" stop-color="#F8F8F8" stop-opacity=".25"/>
            <stop offset="100%" stop-color="#F8F8F8"/>
        </linearGradient>
        <linearGradient id="cykmwrgsuT" x1="53.174%" x2="33.476%" y1="75.661%" y2="99.237%">
            <stop offset="0%" stop-color="#F8F8F8" stop-opacity=".25"/>
            <stop offset="100%" stop-color="#F8F8F8"/>
        </linearGradient>
        <linearGradient id="149y4n1ccU" x1="53.174%" x2="33.476%" y1="75.666%" y2="99.247%">
            <stop offset="0%" stop-color="#F8F8F8" stop-opacity=".25"/>
            <stop offset="100%" stop-color="#F8F8F8"/>
        </linearGradient>
        <linearGradient id="z5659gggzV" x1="53.174%" x2="33.476%" y1="75.671%" y2="99.257%">
            <stop offset="0%" stop-color="#F8F8F8" stop-opacity=".25"/>
            <stop offset="100%" stop-color="#F8F8F8"/>
        </linearGradient>
        <linearGradient id="uqc36vkiiW" x1="53.174%" x2="33.476%" y1="75.678%" y2="99.27%">
            <stop offset="0%" stop-color="#F8F8F8" stop-opacity=".25"/>
            <stop offset="100%" stop-color="#F8F8F8"/>
        </linearGradient>
        <linearGradient id="m5nvbdet1X" x1="53.174%" x2="33.476%" y1="75.684%" y2="99.282%">
            <stop offset="0%" stop-color="#F8F8F8" stop-opacity=".25"/>
            <stop offset="100%" stop-color="#F8F8F8"/>
        </linearGradient>
        <linearGradient id="3kbn1pk8iY" x1="53.174%" x2="33.476%" y1="75.689%" y2="99.292%">
            <stop offset="0%" stop-color="#F8F8F8" stop-opacity=".25"/>
            <stop offset="100%" stop-color="#F8F8F8"/>
        </linearGradient>
        <linearGradient id="e2k40yptsZ" x1="53.174%" x2="33.476%" y1="75.697%" y2="99.306%">
            <stop offset="0%" stop-color="#F8F8F8" stop-opacity=".25"/>
            <stop offset="100%" stop-color="#F8F8F8"/>
        </linearGradient>
    </defs>
    <g fill="none" fill-rule="evenodd">
        <path stroke="url(#62h70arsaa)" stroke-width="1.339" d="M530.256.143C366.463.143 386.415 61.549 253.9 157.825 121.386 254.102 69.153 216.151 18.54 371.931c-50.614 155.78 13.948 155.78 64.568 311.554 50.621 155.774-1.619 193.731 130.896 290.008 132.514 96.276 152.466 34.87 316.26 34.87 163.793 0 183.745 61.406 316.26-34.87 132.514-96.277 80.28-134.228 130.895-290.008 50.614-155.78 115.183-155.78 64.568-311.554-50.614-155.774-117.18-96.396-233.068-212.146C692.128 43.147 694.05.143 530.256.143z" transform="translate(1 -477)"/>
        <path stroke="url(#x238pju1nb)" stroke-width="1.412" d="M537.407 13.14c-162.187 0-142.544 60.46-273.754 155.792S81.01 226.9 30.887 381.148c-50.123 154.25 13.457 154.25 63.573 308.498 50.117 154.25-1.31 191.621 129.9 286.953 131.216 95.331 150.86 34.87 313.047 34.87s181.837 60.461 313.047-34.87c131.216-95.332 79.783-132.697 129.9-286.953 50.116-154.249 113.69-154.249 63.573-308.498-50.117-154.25-115.693-95.672-230.473-210.263C697.836 55.47 699.6 13.14 537.407 13.14z" transform="translate(1 -477)"/>
        <path stroke="url(#5pk11ry49c)" stroke-width="1.486" d="M544.564 26.137c-160.581 0-141.246 59.516-271.159 153.909-129.912 94.392-180.545 57.6-230.164 210.325s12.96 152.725 62.578 305.45c49.619 152.724-1.008 189.51 128.91 283.896 129.92 94.387 149.254 34.87 309.835 34.87 160.58 0 179.921 59.517 309.834-34.87 129.912-94.386 79.285-131.172 128.91-283.897 49.625-152.724 112.203-152.724 62.578-305.449-49.625-152.725-114.206-94.954-227.884-208.379C703.55 67.786 705.144 26.137 544.564 26.137z" transform="translate(1 -477)"/>
        <path stroke="url(#eiaks3axtd)" stroke-width="1.56" d="M551.714 39.133c-158.974 0-139.948 58.572-268.563 152.02C154.537 284.6 104.716 248.393 55.59 399.587 6.462 550.782 68.05 550.782 117.178 701.982c49.127 151.2-.7 187.4 127.915 280.841 128.615 93.442 147.647 34.87 306.627 34.87 158.98 0 178.007 58.572 306.628-34.87 128.614-93.442 78.787-129.648 127.915-280.841 49.127-151.194 110.716-151.194 61.589-302.394-49.128-151.2-112.72-94.235-225.288-206.495-113.306-112.984-111.87-153.96-270.85-153.96z" transform="translate(1 -477)"/>
        <path stroke="url(#0mkk92rg0e)" stroke-width="1.634" d="M558.87 52.13c-157.373 0-138.643 57.633-265.96 150.13-127.317 92.496-176.337 56.882-224.967 206.551-48.63 149.67 11.964 149.67 60.594 299.338 48.63 149.67-.39 185.29 126.926 277.786 127.317 92.503 146.04 34.87 303.414 34.87s176.098 57.633 303.414-34.87c127.317-92.503 78.29-128.117 126.927-277.786 48.63-149.669 109.229-149.669 60.593-299.338-48.63-149.669-111.227-93.517-222.692-204.611C714.966 92.43 716.239 52.13 558.87 52.13z" transform="translate(1 -477)"/>
        <path stroke="url(#mbzmm1yehf)" stroke-width="1.707" d="M566.021 65.121c-155.767 0-137.346 56.687-263.365 148.245S128.417 269.89 80.286 418.028c-48.133 148.138 11.471 148.145 59.603 296.283 48.132 148.138-.088 183.179 125.931 274.73 126.019 91.558 144.434 34.87 300.201 34.87 155.768 0 174.183 56.688 300.202-34.87 126.019-91.558 77.798-126.592 125.93-274.73 48.132-148.138 107.737-148.145 59.605-296.283S942.018 325.23 831.66 215.3C720.674 104.748 721.789 65.121 566.02 65.121z" transform="translate(1 -477)"/>
        <path stroke="url(#m0t4oct1fg)" stroke-width="1.781" d="M573.178 78.118c-154.16 0-136.048 55.742-260.763 146.355C187.7 315.086 140.28 280.638 92.639 427.251 45 573.865 103.614 573.865 151.25 720.478c47.634 146.614.22 181.069 124.935 271.675 124.714 90.607 142.827 34.87 296.988 34.87 154.16 0 172.273 55.743 296.988-34.87s77.301-125.06 124.935-271.675c47.641-146.613 106.25-146.613 58.61-293.227-47.641-146.613-108.254-92.08-217.502-200.844C726.382 117.071 727.34 78.117 573.178 78.117z" transform="translate(1 -477)"/>
        <path stroke="url(#7je5qw0zdh)" stroke-width="1.855" d="M580.329 91.115c-152.555 0-134.751 54.797-258.168 144.465s-170.03 55.8-217.174 200.888c-47.143 145.09 10.477 145.09 57.62 290.172 47.143 145.083.53 178.958 123.946 268.626 123.417 89.667 141.221 34.87 293.776 34.87 152.554 0 170.358 54.797 293.775-34.87 123.417-89.668 76.803-123.537 123.946-268.626 47.143-145.09 104.763-145.09 57.62-290.172-47.143-145.089-106.766-91.362-214.912-198.96C732.09 129.388 732.883 91.115 580.328 91.115z" transform="translate(1 -477)"/>
        <path stroke="url(#zaof1vkvti)" stroke-width="1.928" d="M587.485 104.112c-150.948 0-133.446 53.852-255.572 142.581-122.125 88.73-167.932 55.44-214.578 198.998-46.645 143.558 9.98 143.558 56.625 287.123 46.645 143.564.831 176.84 122.95 265.57 122.12 88.723 139.621 34.87 290.57 34.87 150.947 0 168.449 53.853 290.568-34.87 122.119-88.723 76.305-122.012 122.95-265.57 46.646-143.558 103.27-143.558 56.625-287.123-46.645-143.558-105.28-90.644-212.316-197.076-107.51-106.905-106.874-144.503-257.822-144.503z" transform="translate(1 -477)"/>
        <path stroke="url(#2bqmkv44bj)" stroke-width="2.002" d="M594.636 117.109c-149.342 0-132.149 52.913-252.97 140.691-120.822 87.778-165.829 55.081-211.976 197.115-46.148 142.033 9.481 142.033 55.635 284.067 46.154 142.033 1.14 174.73 121.962 262.514 120.821 87.784 138.014 34.87 287.355 34.87 149.342 0 166.534 52.914 287.356-34.87 120.821-87.784 75.814-120.48 121.962-262.514 46.147-142.034 101.782-142.034 55.635-284.067-46.148-142.034-103.786-89.92-209.72-195.193-106.37-105.695-105.898-142.613-255.239-142.613z" transform="translate(1 -477)"/>
        <path stroke="url(#xaj2qaosek)" stroke-width="2.076" d="M601.793 130.105c-147.735 0-130.851 51.97-250.375 138.802-119.523 86.833-163.724 54.722-209.38 195.224-45.656 140.503 8.99 140.503 54.64 281.012 45.65 140.509 1.449 172.62 120.966 259.46 119.523 86.838 136.407 34.87 284.142 34.87 147.735 0 164.62 51.968 284.143-34.87 119.524-86.84 75.317-118.957 120.966-259.46 45.656-140.503 100.296-140.503 54.64-281.012-45.656-140.508-102.3-89.201-207.125-193.309C749.213 166.35 749.528 130.105 601.793 130.105z" transform="translate(1 -477)"/>
        <path stroke="url(#faz4hn11bl)" stroke-width="2.149" d="M608.943 143.102c-146.128 0-129.553 51.024-247.772 136.918-118.22 85.894-161.627 54.357-206.779 193.341-45.152 138.984 8.492 138.978 53.65 277.956 45.16 138.978 1.752 170.51 119.978 256.404s134.801 34.87 280.93 34.87c146.128 0 162.71 51.024 280.93-34.87 118.219-85.895 74.818-117.426 119.976-256.404 45.159-138.978 98.803-138.978 53.651-277.956-45.158-138.978-100.812-88.484-204.536-191.426-104.05-103.27-103.9-138.833-250.028-138.833z" transform="translate(1 -477)"/>
        <path stroke="url(#zwl2iacizm)" stroke-width="2.223" d="M616.1 156.093c-144.522 0-128.255 50.079-245.177 135.028-116.922 84.95-159.522 53.997-204.183 191.45-44.66 137.454 7.995 137.454 52.655 274.901 44.661 137.447 2.06 168.4 118.982 253.348 116.922 84.95 133.195 34.87 277.717 34.87s160.795 50.08 277.716-34.87c116.922-84.949 74.321-115.9 118.982-253.348 44.66-137.453 97.316-137.453 52.656-274.9-44.661-137.454-99.326-87.766-201.94-189.542C760.627 190.989 760.621 156.093 616.1 156.093z" transform="translate(1 -477)"/>
        <path stroke="url(#fd4qiz7qan)" stroke-width="2.296" d="M623.25 169.09c-142.921 0-126.95 49.134-242.575 133.138-115.624 84.004-157.424 53.644-201.587 189.567-44.163 135.922 7.497 135.922 51.666 271.845 44.17 135.922 2.37 166.288 117.993 250.299 115.624 84.01 131.588 34.87 274.51 34.87s158.886 49.134 274.51-34.87c115.624-84.004 73.83-114.37 117.992-250.3 44.163-135.922 95.83-135.922 51.667-271.844-44.163-135.923-97.84-87.047-199.345-187.658C766.336 203.305 766.172 169.09 623.251 169.09z" transform="translate(1 -477)"/>
        <path stroke="url(#qcoecao78o)" stroke-width="2.37" d="M630.407 182.087c-141.315 0-125.653 48.188-239.98 131.254-114.325 83.065-155.32 53.28-198.991 187.677-43.672 134.398 7.006 134.398 50.67 268.796 43.666 134.398 2.672 164.178 116.998 247.243 114.326 83.066 129.982 34.87 271.297 34.87 141.315 0 156.97 48.19 271.297-34.87 114.326-83.059 73.332-112.845 116.997-247.243 43.666-134.398 94.343-134.398 50.671-268.796-43.665-134.398-96.352-86.329-196.755-185.774-100.567-99.616-100.895-133.157-242.204-133.157z" transform="translate(1 -477)"/>
        <path stroke="url(#9p39e1un6p)" stroke-width="2.444" d="M637.558 195.084c-139.709 0-124.356 47.25-237.384 129.364-113.028 82.114-153.216 52.92-196.39 185.787-43.174 132.867 6.508 132.867 49.682 265.74 43.174 132.873 2.98 162.068 116.008 244.188 113.028 82.12 128.375 34.87 268.084 34.87s155.062 47.25 268.084-34.87c113.022-82.12 72.834-111.32 116.008-244.188 43.174-132.867 92.85-132.867 49.682-265.74-43.168-132.873-94.866-85.617-194.16-183.89-99.42-98.4-99.905-131.261-239.614-131.261z" transform="translate(1 -477)"/>
        <path stroke="url(#xperadumgq)" stroke-width="2.517" d="M644.708 208.08c-138.102 0-123.058 46.306-234.782 127.481-111.724 81.176-151.112 52.555-193.788 183.897-42.676 131.342 6.01 131.342 48.687 262.685 42.676 131.342 3.288 159.957 115.012 241.132 111.725 81.176 126.77 34.87 264.871 34.87 138.103 0 153.147 46.306 264.871-34.87 111.724-81.175 72.337-109.79 115.013-241.132 42.676-131.343 91.363-131.343 48.686-262.685-42.676-131.342-93.378-84.899-191.564-182.007-98.254-97.184-98.903-129.37-237.006-129.37z" transform="translate(1 -477)"/>
        <path stroke="url(#jhez3thi3r)" stroke-width="2.591" d="M651.865 221.077c-136.496 0-121.76 45.36-232.186 125.591-110.427 80.23-149.014 52.195-191.193 182.007-42.178 129.811 5.513 129.818 47.691 259.63 42.179 129.81 3.591 157.846 114.024 238.076 110.426 80.23 125.168 34.87 261.658 34.87s151.231 45.36 261.658-34.87c110.426-80.23 71.839-108.265 114.023-238.077 42.185-129.811 89.876-129.818 47.691-259.629-42.184-129.812-91.891-84.18-188.974-180.13-97.09-95.961-97.896-127.468-234.392-127.468z" transform="translate(1 -477)"/>
        <path stroke="url(#02jmlld02s)" stroke-width="2.665" d="M659.016 234.068c-134.89 0-120.456 44.415-229.585 123.7-109.129 79.286-146.91 51.837-188.59 180.124-41.681 128.287 5.02 128.287 46.701 256.574s3.9 155.736 113.029 235.021c109.128 79.286 123.562 34.87 258.451 34.87 134.89 0 149.323 44.416 258.451-34.87 109.129-79.285 71.348-106.734 113.028-235.021 41.681-128.287 88.383-128.287 46.702-256.574-41.68-128.287-90.405-83.463-186.379-178.246-95.949-94.746-96.919-125.578-231.808-125.578z" transform="translate(1 -477)"/>
        <path stroke="url(#miqnpr4n2t)" stroke-width="2.739" d="M666.172 247.065c-133.282 0-119.158 43.47-226.989 121.817-107.83 78.347-144.805 51.477-185.994 178.233-41.19 126.756 4.523 126.762 45.706 253.518 41.183 126.756 4.208 153.626 112.04 231.973 107.83 78.34 121.955 34.87 255.237 34.87 133.283 0 147.408 43.47 255.239-34.87 107.83-78.34 70.85-105.21 112.039-231.973 41.19-126.762 86.896-126.762 45.706-253.518-41.189-126.756-88.918-82.744-183.783-176.362-94.79-93.53-95.918-123.688-229.2-123.688z" transform="translate(1 -477)"/>
        <path stroke="url(#odwm2jqr2u)" stroke-width="2.812" d="M673.323 260.062c-131.676 0-117.86 42.525-224.387 119.927-106.527 77.401-142.708 51.112-183.4 176.35-40.691 125.237 4.026 125.23 44.718 250.468 40.692 125.238 4.517 151.515 111.044 228.917 106.526 77.402 120.349 34.87 252.025 34.87s145.498 42.526 252.025-34.87c106.527-77.395 70.352-103.679 111.044-228.917 40.692-125.237 85.41-125.231 44.717-250.469-40.691-125.237-87.431-82.026-181.194-174.478-93.624-92.32-94.91-121.798-226.592-121.798z" transform="translate(1 -477)"/>
        <path stroke="url(#ejoecvhn2v)" stroke-width="2.886" d="M680.48 273.059c-130.07 0-116.563 41.586-221.792 118.037-105.229 76.45-140.603 50.752-180.797 174.46-40.194 123.706 3.528 123.706 43.722 247.413 40.194 123.707 4.82 149.404 110.048 225.861 105.23 76.457 118.743 34.87 248.812 34.87 130.07 0 143.584 41.587 248.813-34.87 105.229-76.457 69.854-102.154 110.054-225.861s83.916-123.707 43.722-247.414c-40.194-123.707-85.944-81.308-178.598-172.595C811.992 301.856 810.55 273.06 680.48 273.06z" transform="translate(1 -477)"/>
        <path stroke="url(#l8a2fwmq4w)" stroke-width="2.96" d="M687.63 286.056c-128.463 0-115.258 40.641-219.196 116.153-103.937 75.512-138.499 50.393-178.201 172.57-39.703 122.175 3.036 122.175 42.732 244.357 39.697 122.183 5.129 147.294 109.06 222.806 103.93 75.512 117.136 34.87 245.605 34.87 128.47 0 141.668 40.642 245.606-34.87 103.93-75.512 69.363-100.63 109.06-222.806 39.695-122.175 82.428-122.175 42.732-244.358-39.696-122.182-84.458-80.596-176.01-170.717C817.7 314.179 816.1 286.056 687.63 286.056z" transform="translate(1 -477)"/>
        <path stroke="url(#tyiqbyntgx)" stroke-width="3.033" d="M694.787 299.053c-126.863 0-113.96 39.696-216.594 114.263-102.633 74.566-136.401 50.028-175.606 170.686-39.205 120.657 2.539 120.65 41.737 241.302 39.199 120.651 5.437 145.184 108.064 219.75 102.634 74.567 115.53 34.871 242.393 34.871s139.759 39.696 242.392-34.87c102.634-74.567 68.866-99.1 108.064-219.75 39.199-120.652 80.943-120.652 41.738-241.303-39.205-120.652-82.971-79.878-173.414-168.834-90.153-88.673-91.917-116.115-218.774-116.115z" transform="translate(1 -477)"/>
        <path stroke="url(#ovs3dl7iuy)" stroke-width="3.107" d="M701.938 312.05c-125.257 0-112.663 38.75-213.999 112.373-101.335 73.621-134.297 49.675-173.004 168.795-38.707 119.12 2.041 119.127 40.748 238.248 38.707 119.12 5.74 143.073 107.075 216.694 101.336 73.622 113.923 34.87 239.18 34.87 125.256 0 137.844 38.752 239.18-34.87 101.335-73.621 68.367-97.574 107.074-216.694 38.707-119.12 79.455-119.127 40.748-238.248-38.707-119.12-81.484-79.159-170.824-166.95-89-87.456-90.922-114.219-216.178-114.219z" transform="translate(1 -477)"/>
        <path stroke="url(#qi1filygiz)" stroke-width="3.181" d="M709.094 325.04c-123.65 0-111.365 37.806-211.396 110.49-100.032 72.683-132.193 49.31-170.409 166.905-38.216 117.596 1.544 117.596 39.753 235.192 38.21 117.596 6.048 140.962 106.08 213.646 100.031 72.683 112.316 34.87 235.966 34.87s135.935 37.806 235.967-34.87c100.031-72.677 67.87-96.044 106.079-213.646 38.21-117.602 77.962-117.596 39.753-235.192-38.21-117.595-79.997-78.447-168.229-165.072-87.84-86.235-89.92-112.323-213.564-112.323z" transform="translate(1 -477)"/>
        <path stroke="url(#wl6x2lgqqA)" stroke-width="3.255" d="M716.245 338.037c-122.044 0-110.067 36.868-208.801 108.6-98.734 71.731-130.095 48.95-167.807 165.022-37.712 116.07 1.046 116.07 38.764 232.142 37.718 116.071 6.357 138.852 105.09 210.59 98.734 71.738 110.71 34.87 232.754 34.87 122.043 0 134.02 36.868 232.753-34.87 98.734-71.738 67.379-94.519 105.09-210.59 37.712-116.071 76.476-116.071 38.765-232.142-37.712-116.072-78.511-77.73-165.64-163.19-86.688-85.024-88.925-110.432-210.968-110.432z" transform="translate(1 -477)"/>
        <path stroke="url(#pz7bshhrfB)" stroke-width="3.328" d="M723.402 351.034c-120.437 0-108.764 35.922-206.2 106.71-97.435 70.786-127.99 48.591-165.21 163.131-37.22 114.54.554 114.54 37.768 229.087 37.214 114.547 6.66 136.742 104.095 207.535 97.436 70.793 109.11 34.87 229.547 34.87s132.11 35.923 229.546-34.87c97.436-70.793 66.881-92.994 104.095-207.535 37.214-114.54 74.99-114.54 37.769-229.087-37.22-114.546-77.024-77.017-163.05-161.305-85.53-83.809-87.923-108.536-208.36-108.536z" transform="translate(1 -477)"/>
        <path stroke="url(#jd1ngjiduC)" stroke-width="3.402" d="M730.552 364.03c-118.83 0-107.465 34.978-203.603 104.826-96.138 69.849-125.893 48.233-162.61 161.249-36.716 113.016.057 113.016 36.78 226.031 36.723 113.016 6.968 134.631 103.106 204.48 96.138 69.848 107.503 34.87 226.333 34.87 118.831 0 130.196 34.978 226.334-34.87 96.138-69.849 66.383-91.464 103.106-204.48 36.723-113.015 73.496-113.015 36.78-226.031-36.723-113.016-75.538-76.3-160.455-159.428-84.389-82.6-86.94-106.646-205.77-106.646z" transform="translate(1 -477)"/>
        <path stroke="url(#p2gnej7vrD)" stroke-width="3.476" d="M737.709 377.028c-117.224 0-106.168 34.032-201.008 102.935s-123.789 47.868-160.014 159.359c-36.225 111.491-.44 111.491 35.784 222.976 36.225 111.49 7.277 132.52 102.11 201.423 94.835 68.903 105.898 34.87 223.122 34.87 117.224 0 128.28 34.033 223.12-34.87 94.84-68.903 65.886-89.938 102.11-201.423 36.226-111.485 72.01-111.491 35.785-222.976-36.225-111.485-74.057-75.581-157.866-157.544-83.21-81.384-85.919-104.75-203.143-104.75z" transform="translate(1 -477)"/>
        <path stroke="url(#x21r6z4atE)" stroke-width="3.549" d="M744.86 390.025c-115.618 0-104.87 33.087-198.406 101.045-93.537 67.958-121.685 47.509-157.412 157.469-35.728 109.96-.939 109.96 34.795 219.92 35.733 109.96 7.579 130.41 101.121 198.368s104.29 34.87 219.908 34.87c115.617 0 126.371 33.088 219.908-34.87 93.536-67.958 65.394-88.408 101.12-198.368 35.728-109.96 70.523-109.96 34.796-219.92-35.728-109.96-72.57-74.87-155.276-155.667-82.07-80.161-84.937-102.847-200.555-102.847z" transform="translate(1 -477)"/>
        <path stroke="url(#339iapz47F)" stroke-width="3.623" d="M752.016 403.015c-114.01 0-103.572 32.143-195.81 99.162-92.238 67.02-119.587 47.15-154.816 155.585-35.23 108.436-1.43 108.436 33.8 216.865 35.229 108.435 7.887 128.3 100.125 195.319 92.238 67.013 102.684 34.87 216.695 34.87s124.456 32.143 216.695-34.87c92.238-67.013 64.896-86.884 100.126-195.32 35.23-108.435 69.029-108.435 33.8-216.864-35.23-108.43-71.084-74.157-152.681-153.783-80.899-78.952-83.923-100.964-197.934-100.964z" transform="translate(1 -477)"/>
        <path stroke="url(#f2tgrq8ygG)" stroke-width="3.697" d="M759.167 416.012c-112.411 0-102.268 31.204-193.209 97.272-90.94 66.068-117.482 46.79-152.22 153.695s-1.928 106.905 32.804 213.816c34.738 106.904 8.196 126.189 99.137 192.263 90.94 66.074 101.077 34.87 213.488 34.87 112.41 0 122.547 31.204 213.488-34.87 90.94-66.074 64.398-85.352 99.137-192.263 34.738-106.905 67.542-106.905 32.804-213.816-34.738-106.905-69.603-73.44-150.091-151.906-79.752-77.73-82.927-99.06-195.338-99.06z" transform="translate(1 -477)"/>
        <path stroke="url(#dyjiei7vxH)" stroke-width="3.771" d="M766.317 429.009c-110.804 0-100.97 30.259-190.613 95.388-89.642 65.13-115.378 46.425-149.618 151.805-34.24 105.38-2.426 105.38 31.815 210.76 34.24 105.38 8.498 124.079 98.141 189.208 89.643 65.13 99.47 34.87 210.275 34.87s120.633 30.26 210.275-34.87c89.643-65.13 63.901-83.828 98.142-189.208 34.24-105.38 66.055-105.38 31.815-210.76-34.24-105.38-68.116-72.727-147.502-150.022-78.586-76.52-81.925-97.171-192.73-97.171z" transform="translate(1 -477)"/>
        <path stroke="url(#wi68gn8nmI)" stroke-width="3.844" d="M773.474 442.006c-109.198 0-99.672 29.314-188.01 93.498-88.34 64.185-113.281 46.066-147.024 149.921-33.743 103.85-2.923 103.85 30.82 207.705 33.742 103.855 8.807 121.968 97.152 186.152 88.345 64.185 97.864 34.87 207.062 34.87 109.198 0 118.724 29.315 207.062-34.87 88.339-64.184 63.403-82.303 97.152-186.152 33.743-103.85 64.57-103.85 30.82-207.705-33.749-103.855-66.629-72.015-144.913-148.144-77.433-75.304-80.923-95.275-190.12-95.275z" transform="translate(1 -477)"/>
        <path stroke="url(#v0hlh0so6J)" stroke-width="3.918" d="M780.625 455.003c-107.592 0-98.375 28.369-185.416 91.608-87.04 63.24-111.176 45.707-144.42 148.031-33.246 102.325-3.416 102.325 29.83 204.65 33.245 102.324 9.116 119.857 96.156 183.096 87.041 63.24 96.258 34.87 203.85 34.87 107.591 0 116.808 28.37 203.849-34.87 87.04-63.24 62.911-80.772 96.157-183.097 33.245-102.324 63.075-102.324 29.83-204.649-33.245-102.324-65.148-71.297-142.323-146.26-76.274-74.095-79.922-93.38-187.513-93.38z" transform="translate(1 -477)"/>
        <path stroke="url(#otf01i6c0K)" stroke-width="3.992" d="M787.781 468c-105.985 0-97.07 27.424-182.82 89.724-85.749 62.301-109.071 45.348-141.825 146.141-32.754 100.794-3.912 100.8 28.835 201.594 32.748 100.794 9.419 117.747 95.162 180.041 85.743 62.295 94.657 34.871 200.642 34.871s114.893 27.424 200.642-34.87c85.743-62.295 62.415-79.248 95.162-180.042 32.754-100.8 61.589-100.8 28.835-201.594-32.754-100.8-63.661-70.585-139.734-144.383C897.571 486.604 893.766 468 787.781 468z" transform="translate(1 -477)"/>
        <path stroke="url(#xeyhwdkmcL)" stroke-width="4.065" d="M794.932 480.997c-104.379 0-95.773 26.478-180.218 87.834S507.74 613.82 475.49 713.09c-32.25 99.269-4.41 99.269 27.846 198.538s9.728 115.636 94.173 176.992c84.445 61.35 93.05 34.87 197.43 34.87 104.378 0 112.983 26.486 197.429-34.87 84.445-61.35 61.916-77.717 94.172-176.992 32.256-99.27 60.102-99.27 27.846-198.538-32.256-99.27-62.181-69.874-137.145-142.506-73.968-71.67-77.93-89.586-182.31-89.586z" transform="translate(1 -477)"/>
        <path stroke="url(#57ricrozkM)" stroke-width="4.139" d="M802.089 493.987c-102.772 0-94.475 25.54-177.623 85.945-83.147 60.404-104.87 44.623-136.628 142.367-31.758 97.745-4.907 97.745 26.851 195.49 31.758 97.744 10.036 113.525 93.177 173.936 83.141 60.41 91.444 34.87 194.216 34.87s111.07 25.54 194.217-34.87c83.147-60.41 61.418-76.192 93.177-173.937 31.758-97.744 58.609-97.744 26.85-195.489-31.758-97.744-60.694-69.161-134.555-140.628-72.797-70.44-76.91-87.684-179.682-87.684z" transform="translate(1 -477)"/>
        <path stroke="url(#riv36k2h3N)" stroke-width="4.213" d="M809.24 506.984c-101.166 0-93.178 24.595-175.021 84.061-81.843 59.466-102.766 44.264-134.033 140.477-31.26 96.214-5.405 96.214 25.862 192.434 31.26 96.213 10.338 111.415 92.188 170.881 81.843 59.466 89.838 34.87 191.003 34.87 101.166 0 109.16 24.596 191.004-34.87 81.843-59.466 60.927-74.668 92.187-170.881 31.261-96.214 57.123-96.214 25.862-192.434-31.26-96.213-59.214-68.45-131.966-138.745-71.65-69.23-75.915-85.793-177.087-85.793z" transform="translate(1 -477)"/>
        <path stroke="url(#qh206grqhO)" stroke-width="4.287" d="M816.396 519.981c-99.559 0-91.88 23.65-172.425 82.17-80.545 58.522-100.667 43.906-131.43 138.595-30.763 94.689-5.897 94.689 24.866 189.378 30.769 94.689 10.647 109.305 91.192 167.825 80.546 58.521 88.232 34.87 187.79 34.87 99.56 0 107.246 23.651 187.791-34.87 80.546-58.52 60.43-73.136 91.193-167.825 30.769-94.69 55.635-94.69 24.866-189.378-30.77-94.69-57.727-67.738-129.377-136.868-70.485-68.021-74.907-83.897-174.466-83.897z" transform="translate(1 -477)"/>
        <path stroke="url(#sgre9iba7P)" stroke-width="4.36" d="M823.546 532.978c-97.958 0-90.575 22.705-169.822 80.28-79.248 57.576-98.564 43.546-128.835 136.704-30.272 93.165-6.395 93.165 23.877 186.323 30.271 93.164 10.955 107.194 90.203 164.77 79.248 57.576 86.625 34.87 184.584 34.87 97.958 0 105.336 22.706 184.583-34.87 79.248-57.576 59.932-71.612 90.204-164.77 30.271-93.164 54.142-93.164 23.877-186.323-30.265-93.158-56.247-67.025-126.788-134.99-69.35-66.805-73.924-81.994-171.883-81.994z" transform="translate(1 -477)"/>
        <path stroke="url(#rnrm2wbzqQ)" stroke-width="4.434" d="M830.703 545.975c-96.352 0-89.277 21.76-167.227 78.397s-96.46 43.18-126.233 134.82c-29.774 91.633-6.892 91.633 22.882 183.267 29.773 91.633 11.264 105.084 89.208 161.715 77.943 56.63 85.018 34.87 181.37 34.87s103.421 21.76 181.371-34.87c77.95-56.631 59.434-70.082 89.208-161.715 29.774-91.634 52.655-91.634 22.882-183.267-29.774-91.634-54.766-66.314-124.199-133.113-68.19-65.602-72.916-80.104-169.262-80.104z" transform="translate(1 -477)"/>
        <path stroke="url(#s54zosxn2R)" stroke-width="4.508" d="M837.854 558.972c-94.746 0-87.98 20.821-164.632 76.507-76.652 55.686-94.361 42.821-123.637 132.93-29.276 90.109-7.39 90.109 21.892 180.211 29.276 90.11 11.567 102.974 88.22 158.666 76.651 55.692 83.411 34.87 178.157 34.87 94.745 0 101.505 20.822 178.157-34.87 76.653-55.692 58.943-68.557 88.22-158.666 29.275-90.109 51.168-90.109 21.892-180.211-29.276-90.103-53.286-65.608-121.615-131.235-67.032-64.386-71.909-78.202-166.654-78.202z" transform="translate(1 -477)"/>
        <path stroke="url(#413vbj9rwS)" stroke-width="4.581" d="M845.01 571.962c-93.139 0-86.681 19.877-162.03 74.617-75.347 54.741-92.256 42.462-121.035 131.04-28.778 88.578-7.881 88.578 20.897 177.163 28.779 88.578 11.876 100.863 87.224 155.61 75.348 54.747 81.805 34.87 174.945 34.87 93.139 0 99.596 19.877 174.944-34.87 75.348-54.747 58.445-67.026 87.224-155.61 28.778-88.585 49.682-88.578 20.897-177.163-28.785-88.584-51.799-64.896-119.026-129.357-65.873-63.158-70.907-76.3-164.04-76.3z" transform="translate(1 -477)"/>
        <path stroke="url(#cykmwrgsuT)" stroke-width="4.655" d="M852.161 584.96c-91.533 0-85.384 18.93-159.434 72.733-74.05 53.802-90.153 42.103-118.44 129.156-28.287 87.053-8.379 87.053 19.908 174.107 28.287 87.053 12.184 98.752 86.234 152.554 74.05 53.802 80.206 34.87 171.732 34.87s97.682 18.932 171.732-34.87c74.05-53.802 57.947-65.5 86.234-152.554 28.287-87.054 48.189-87.054 19.908-174.107-28.287-87.053-50.318-64.19-116.443-127.48-64.713-61.955-69.898-74.41-161.43-74.41z" transform="translate(1 -477)"/>
        <path stroke="url(#149y4n1ccU)" stroke-width="4.729" d="M859.318 597.956c-89.926 0-84.08 17.987-156.832 70.844-72.753 52.857-88.055 41.743-115.845 127.266-27.789 85.522-8.876 85.522 18.913 171.051 27.79 85.523 12.486 96.642 85.239 149.5 72.752 52.856 78.599 34.87 168.525 34.87s95.772 17.986 168.525-34.87c72.752-52.858 57.45-63.977 85.239-149.5 27.79-85.522 46.702-85.522 18.912-171.051-27.789-85.529-48.837-63.479-113.853-125.61-63.567-60.732-68.897-72.5-158.823-72.5z" transform="translate(1 -477)"/>
        <path stroke="url(#z5659gggzV)" stroke-width="4.802" d="M866.468 610.953c-88.32 0-82.782 17.041-154.236 68.96-71.455 51.918-85.951 41.378-113.243 125.376-27.291 83.998-9.374 83.998 17.917 167.996 27.292 83.998 12.796 94.531 84.25 146.443 71.455 51.912 76.993 34.87 165.312 34.87 88.32 0 93.858 17.042 165.312-34.87 71.455-51.912 56.952-62.445 84.25-146.443 27.298-83.998 45.215-83.998 17.917-167.996-27.291-83.998-47.357-62.773-111.27-123.732-62.402-59.529-67.889-70.604-156.209-70.604z" transform="translate(1 -477)"/>
        <path stroke="url(#uqc36vkiiW)" stroke-width="4.876" d="M873.619 623.95c-86.713 0-81.484 16.096-151.635 67.07-70.15 50.973-83.847 41.019-110.647 123.492-26.794 82.474-9.866 82.474 16.928 164.94 26.794 82.474 13.104 92.422 83.255 143.389 70.15 50.967 75.386 34.87 162.099 34.87s91.948 16.097 162.099-34.87c70.15-50.967 56.46-60.921 83.254-143.388 26.794-82.474 43.722-82.474 16.928-164.94-26.793-82.474-45.882-62.062-108.68-121.855-61.25-58.32-66.882-68.708-153.601-68.708z" transform="translate(1 -477)"/>
        <path stroke="url(#m5nvbdet1X)" stroke-width="4.95" d="M880.776 636.947c-85.107 0-80.187 15.158-149.04 65.18-68.852 50.022-81.748 40.66-108.044 121.602-26.297 80.943-10.364 80.943 15.932 161.885 26.303 80.942 13.407 90.31 82.266 140.339 68.852 50.028 73.779 34.87 158.886 34.87 85.106 0 90.033 15.158 158.886-34.87 68.852-50.029 55.963-59.39 82.265-140.339 26.303-80.942 42.235-80.942 15.933-161.885-26.303-80.942-44.403-61.356-106.099-119.983-60.089-57.097-65.879-66.8-150.985-66.8z" transform="translate(1 -477)"/>
        <path stroke="url(#3kbn1pk8iY)" stroke-width="5.024" d="M887.926 649.944c-83.5 0-78.888 14.212-146.443 63.296-67.555 49.083-79.645 40.3-105.45 119.712-25.805 79.412-10.86 79.418 14.944 158.83 25.805 79.411 13.715 88.2 81.27 137.283 67.555 49.083 72.173 34.87 155.68 34.87 83.5 0 88.117 14.213 155.678-34.87 67.555-49.083 55.466-57.866 81.27-137.283 25.805-79.418 40.749-79.418 14.944-158.83-25.805-79.411-42.922-60.65-103.515-118.106-58.937-55.887-64.871-64.902-148.378-64.902z" transform="translate(1 -477)"/>
        <path stroke="url(#e2k40yptsZ)" stroke-width="5.097" d="M895.083 662.934c-81.9 0-77.585 13.268-143.842 61.406-66.257 48.139-77.54 39.936-102.847 117.83-25.307 77.886-11.359 77.886 13.948 155.78 25.307 77.886 14.024 86.089 80.281 134.227 66.257 48.138 70.566 34.87 152.466 34.87s86.21 13.268 152.467-34.87c66.257-48.138 54.967-56.34 80.28-134.228 25.308-77.887 39.256-77.887 13.949-155.78-25.307-77.893-41.442-59.944-100.933-116.235-57.79-54.671-63.875-63-145.769-63z" transform="translate(1 -477)"/>
    </g>
</svg>
